<?xml version="1.0" encoding="UTF-8"?>
<svg xmlns="http://www.w3.org/2000/svg" version="1.1" viewBox="0 0 31.5 30.2">
  <defs>
    <style>
      .cls-1 {
        fill: #c4f5ee;
        stroke: #7c797b;
      }
    </style>
  </defs>
  <!-- Generator: Adobe Illustrator 28.6.0, SVG Export Plug-In . SVG Version: 1.2.0 Build 709)  -->
  <g>
    <g id="mapasvg">
      <path id="ico-ags" class="cls-1" d="M30.2,17.8l-.2.4h0c0,0-.5.9-.5.9l-.4.6-.6.4-.9.4-.6.3-.4.5-.4.5-.7.2-.7.4-.3.7v.8c0,0-.3.8-.3.8l-.4.6-.5.3-.6.2-.6.3-.6.5-.5.5-.6.5-.6.4-.8.2h-1.5c0,0-.9-.2-.9-.2h-.8c0,0-1.8-.4-1.8-.4h-.9c0,0-1.3-.4-1.3-.4l-1.1-.6-1-.8-1.1-.5-.9-.2-1,.2-1,.4-.8.4-1-.6-.8-.5-.6-.8-.3-1.1v-1.2l.2-.6.2-.6.4-.5.4-.5.4-.5.4-.5.4-.7.4-.8.4-.7.5-.6.5-.6.6-.6.5-.7.4-.7v-.8c0,0-.2-.5-.2-.5l-.4-.4v-.4c0,0,.5-1,.5-1l1-.4h1.1c0,0,1,0,1,0h1.5l.4-.3.2-.4.2-.7.3-.3h.2c0,0,1.2,0,1.2,0l.3-.3.3-.4.3-.3.4-.2h.5l.4-.4.4-.6.3-.5.5-.5.4.3.4.7.3.6.3.6.4.7.5.4.5-.2.2-.2h.2c0,0,.2-.2.2-.2h.2c0,0,.4.3.4.3l.3.9.4.4h.5c0,0,.4.2.4.2l.3.4.4.4.5.3h1.1l.5.3.3.7v1.1c0,0,0,1.1,0,1.1v.9c0,0,.3.8.3.8l.6.4.8.4.7.4.4.4.4.4.4.5.4.5h0Z"/>
    </g>
  </g>
</svg>