<svg id="Querétaro" xmlns="http://www.w3.org/2000/svg" viewBox="0 0 1183.89 1061.52">
  <defs>
    <style>
      .cls-1 {
        fill: none;
      }

      .cls-1, .cls-2 {
        stroke: #000;
      }

      .cls-2 {
        fill: #c4f5ee;
        stroke-width: 0.2px;
        fill-rule: evenodd;
      }
    </style>
  </defs>
  <path id_mun="001" data-bs-toggle="tooltip" data-bs-title="Calkiní" class="cls-2" d="M380.09,798.42c.09.22.39.4.42.63.13.94-.34,2-1.7,3.4a5.78,5.78,0,0,0-1.84,3.61,11.75,11.75,0,0,1-1.13,4.1,25.48,25.48,0,0,1-2,3.89,5.12,5.12,0,0,1-1.56,1.48,4.54,4.54,0,0,1-2.33.57A8.41,8.41,0,0,0,366,817a7.14,7.14,0,0,1-3.26.92c-2.69,0-6.31.65-8.91,0-.46-.12-9-1.12-9-.64a26.34,26.34,0,0,1-.5,4.53c-.37,1.85-.95,3.6-1.84,3.82-1.79.45-2.93.53-3.25.85s.13.84,1.41,2.12c1.05,1,1.92,2,1.91,2.76a1.42,1.42,0,0,1-.7,1.13,7.81,7.81,0,0,1-2.34.85,14.63,14.63,0,0,1-4.53.35c-1.47-.09-2.94-.35-4.45-.35a3.35,3.35,0,0,0-2.2.71,5.24,5.24,0,0,0-1.13,1.41,3.76,3.76,0,0,1-1.13,1.27,2.66,2.66,0,0,1-2.05.22c-3-.6-4.9-.79-6.37-.43a7.2,7.2,0,0,0-3.54,2.62,66.13,66.13,0,0,0,9.06,2.76c2.39.6,6.31,3.18,9.48,3.18,5.73,0,3.18,3.18,6.37,6.37,2.21,2.21,4.86,4.27,6.29,7.14a13.51,13.51,0,0,0,6.37,6.3c2.6,1.29,4.07,3.27,7.14,4.8,2.63,1.32,4.3,3.32,7.15,4.74,2.27,1.14,6.33,4,7.92,7.15.26.52,6.18,7.81,4,8.7-4.72,1.89-5.51,1.61-5.51,7.92,0,5.14.38,6.6-4,8.77-2.81,1.41-6.22,2.83-8.77,4.74-2.95,2.21-4.95,3.8-8.7,4.74-5,1.25-3.62,1.76.78,4,3,1.51,4.77,2,9.55,3.18,6.75,1.69,3.18,2.07,3.18,7.15,0,3.61-.85,8-.85,11.1,0,3.5-1,9.3,1.63,11.89,1.53,1.52,6.75,4.68,8.7.77.81-1.61,7-6.13,4.74-1.55-1.42,2.84-4.47,7.14-.78,7.14,4.92,0,6.82.33,9.55-2.4,1.17-1.17,7.46-3,4.74,2.4s-1.29,3.53,2.41,6.3c2.73,2.05,3.74,3.81,6.3,6.36s4.17,4.74,8.77,4.74c5,0,7.43-.49,11.1,3.18,2.73,2.73,5.54,5.5,6.3,8.78,9.13,0-.86-1.94,3.18-4,2.91-1.45,6.17-3.54,8.7-4.81,2.75-1.37,5.29-1.84,9.56-.77,4,1,6.67,1.82,7.92-3.19.87-3.48,1.81-7.75,5.59-8.7,1.3-.32,8.61-2.31,9.48-3.18,2.68-2.68,2.92-3.63.77-7.92-.26-.54-2.24-9.46,1.63-5.59,2.44,2.44,3.8,3.87,6.3,6.37,2.22,2.21,3.4,4.65,7.14,5.58,3,.76,4.83,2.38,8,4,4.1,2,5.94.88,9.48,0,6.47-1.62,4.08-1.13,5.59-7.15.77-3.11,6.09-4.07,5.51-6.36-1.2-4.81-4.07-6.53-6.36-11.11-.94-1.87-3.24-9.3-1.56-12.66,1.46-2.93-.77-8.76,2.41-9.55,6.46-1.62,2.36-3.2.77-6.37-1-2,4.36-5.28,2.34-6.29-1.49-.75-10.32-5.59-7.93-5.59,3.65,0,3.53-7.75,1.63-8.7-.2-.1-11.85-4.67-11.88-4.74-1.24-2.48-2-8.15-3.19-12.73a6.26,6.26,0,0,0,0-1.56c-1.17-4.68-4-1.69-4-7.92v-.85a6.7,6.7,0,0,1-3.54,1.77,8.49,8.49,0,0,1-3.32-.14c-.21,0-3.68,4.88-4.17,5.38a11.07,11.07,0,0,1-2.69,1.91,4.78,4.78,0,0,0-2.12,2.26,5.5,5.5,0,0,1-2.06,2.62,15.15,15.15,0,0,1-3.32,1,4.88,4.88,0,0,0-2.9,1.55,8.31,8.31,0,0,0-1.2,3.19c-.16.62-.58.76-1.14.63a5.55,5.55,0,0,1-1.91-1,28.53,28.53,0,0,1-3-2.62,3.72,3.72,0,0,1-1-1.83,6.13,6.13,0,0,1-.14-2.06c.13-1.42.57-3,.57-4.45a2.77,2.77,0,0,0-.5-1.7,3,3,0,0,0-1.27-.92,24.64,24.64,0,0,0-3.61-.92,7.39,7.39,0,0,0-4,.21,2.91,2.91,0,0,1-1.63,0,5.35,5.35,0,0,1-2.05-1.41c-.67-.67,0-5.7,0-7.78,0-.64-1.54-1-3.18-1.42a30.34,30.34,0,0,1-4-.92,14.19,14.19,0,0,1-3.89-3c-1-1.08-1.86-2.21-2.68-3-1.18-1.17-1.35-1.9-1.21-2.9a20.07,20.07,0,0,0,.64-4.24,4.61,4.61,0,0,1,1.63-3.68,16.36,16.36,0,0,1,3.68-2.26.94.94,0,0,0,.49-1.14,5,5,0,0,0-.78-1.69,20,20,0,0,0-2.05-2.55c-.56-.56-.78-.94-.71-1.27s.4-.59.92-.78a41.34,41.34,0,0,1,4.53-.92c.29-.06-3.67-4.87-4.17-5.38-.7-.69-.92-2.24-1-3.82a31.92,31.92,0,0,0-.22-3.89c-.16-.64-2.05-.79-4.1-.77s-4.22.21-4.81.21c-3.26,0-7.18,0-9.55-.64-1.8-.45-2.84-.93-3.82-.85s-1.9.73-3.33,2.62a6.7,6.7,0,0,1-4.1,2.55,10.08,10.08,0,0,1-4.24-.14c-1.07-.27-1.48-.76-1.49-1.35a3.47,3.47,0,0,1,.92-2,14.51,14.51,0,0,1,3-2.62c.37-.18.23-.46-.14-.77a6.86,6.86,0,0,0-1.7-1,14,14,0,0,0-4.1-1.21,7.94,7.94,0,0,1-3.82-.78,11.11,11.11,0,0,1-2.76-2.19,7.08,7.08,0,0,1-2-3.32,17.27,17.27,0,0,1-.42-4.46c0-1.6-.39-2.34-1.14-2.76a13.4,13.4,0,0,0-3-.78Z"></path>
  <path id_mun="002" data-bs-toggle="tooltip" data-bs-title="Calkiní" class="cls-2" d="M645,298.55l.78.63,4.74,5.95.56,13.08-17.26,9.55v7.71l10.75,17.9-4.17,8.34,7.15,2.34v20.3l7.14,1.76-8.91,12.52-1.21,22.64.57,13.65,5.38,1.84,5.94-4.17,12.52,7.14,7.15-.64c.39.8.8,1.61,1.2,2.41.32.64,2.14.79,4.1.78s4-.22,4.81-.22h8.92a5.32,5.32,0,0,0,2.68-1.13,7.09,7.09,0,0,1,3.89-1.2,12.77,12.77,0,0,1,4.11.85,14.38,14.38,0,0,0,4.81.92,9.51,9.51,0,0,1,3.39,1.2,10.41,10.41,0,0,0,4.39,1.2,6.93,6.93,0,0,0,3.47-.92,15.63,15.63,0,0,1,3.67-1.48,36.6,36.6,0,0,0,3.75-1,7.55,7.55,0,0,0,2.76-2c1.49-1.49,2.12-3.89,3.61-5.38s3.25-2.68,4.74-4.17c.75-.75.85-2.12.92-3.54s.18-2.86.92-3.61a7.2,7.2,0,0,1,2.76-1.69c.56-.34.78-1,.78-3.68a2.82,2.82,0,0,1,.56-1.84,4.13,4.13,0,0,1,1-.78c.46-.31.31-.31-2.12-.92a2.55,2.55,0,0,1-1.63-1,1.92,1.92,0,0,1-.21-1.41,5.56,5.56,0,0,1,1.2-2.41,2.11,2.11,0,0,1,1.77-.42,8.52,8.52,0,0,1,2.27.63A26.08,26.08,0,0,1,751.7,410a1.8,1.8,0,0,1,1.13,1.63,6,6,0,0,1-.35,1.84c-.17.57-.27,1.09,0,1.34s.88.26,2.19-.07a1.46,1.46,0,0,0,1.13-1.13,6.52,6.52,0,0,0,0-2.12c-.16-1.57-.51-3.29.07-4.46a1.87,1.87,0,0,1,1.56-1.06,7.88,7.88,0,0,1,1.77.07c.51.06.89.07,1-.28s-.07-1-.71-2.34c-1-1.94-1.44-2.45-1.55-2.76s.1-.41.35-1.41c.12-.49.53-.6,1.06-.57s1.13.24,1.77.29a2.24,2.24,0,0,0,1.77-.5,3.77,3.77,0,0,0,.78-2.76c0-.65,1.66-.29,3.46.29s3.69,1.34,4.25,1.48a1,1,0,0,0,1.06-.42,5.66,5.66,0,0,0,.7-1.35c.45-1,1-2.18,1.84-2.4,1.89-.47,3.37-.08,4.39-.21a1.36,1.36,0,0,0,1.13-.78,5.78,5.78,0,0,0,.43-2.62,2.27,2.27,0,0,1,.49-1.63,3.88,3.88,0,0,1,1.06-.77,1.72,1.72,0,0,0,.85-.85,3.13,3.13,0,0,0,0-2c-.77-3.09-1.2-2.83-1.2-6.58,0-.41,3.75-3.89,4.17-4.74,0,0,0-.06,0-.07-.27-.31-.87-.73-.92-.92a3.66,3.66,0,0,0-1.62-2.34,13.49,13.49,0,0,1-2.34-1.69,22,22,0,0,0-6.51-4.46c-1.63-.82-3.37-2.88-4.52-4a42.84,42.84,0,0,0-4.46-3.47c-.32-.23-.54-.11-.71.22a6.88,6.88,0,0,0-.42,1.41c-.27,1.12-.56,2.33-1.35,2.33a1.58,1.58,0,0,1-1.34-.63,3.65,3.65,0,0,1-.57-1.56,23.42,23.42,0,0,1-.14-3.75,5.16,5.16,0,0,0-.35-2.26.94.94,0,0,0-1-.57c-.88.08-2.12.95-3.61,1.84a1.67,1.67,0,0,1-1.49.14,3.31,3.31,0,0,1-1.27-.92c-.81-.85-1.55-2-2.26-2.75-1.14-1.14-1.47-4.49-2-5.52a7.79,7.79,0,0,0-4-4,8.63,8.63,0,0,0-3.89-.85,4,4,0,0,1-3-1.13,13.86,13.86,0,0,0-4.53-3,2.76,2.76,0,0,0-2.33.07,6.82,6.82,0,0,0-2.19,1.48s-3.91-5.9-4-6a10.31,10.31,0,0,1-1.48-6,2,2,0,0,1,.49-1.49,1.93,1.93,0,0,1,1.21-.49,4.77,4.77,0,0,1,2.26.49,6.1,6.1,0,0,1,2.33,2.69c.62,1.14,1.14,2.39,1.7,3.32a2.77,2.77,0,0,0,2.55,1.63,1.42,1.42,0,0,0,1-.78,3.45,3.45,0,0,0,.42-1.84,32.46,32.46,0,0,1-.07-4,1.66,1.66,0,0,1,.71-1.13,3.5,3.5,0,0,1,1.91-.42,10.64,10.64,0,0,0,3.89-1c1.29-.55,2.41-1.17,3-1.49s-3.84-4.41-4-4.53a1.11,1.11,0,0,1-.21-1.41,4.36,4.36,0,0,1,1.27-1.42,19.28,19.28,0,0,1,2.9-1.69c.73-.37,1.06-.73,1.14-1.13a1.49,1.49,0,0,0-.36-1.21,7.52,7.52,0,0,0-2.26-1.62,13.79,13.79,0,0,0-2.83-1.06,4.72,4.72,0,0,1-2.12-1.42c-.69-.69-.78-2.07-.64-3.39a20.78,20.78,0,0,1,.64-3.12,4,4,0,0,0-.07-2.19,11.62,11.62,0,0,0-.78-1.7,3.26,3.26,0,0,1-.5-1.48,2.32,2.32,0,0,1,.85-1.63,5,5,0,0,0,1.7-2.55,4.27,4.27,0,0,0-.71-2.47c-1-1.93-2.15-3.18-3-5-1-2-2.24-3.07-3.47-5.52a5.23,5.23,0,0,1-.56-2.9,4.77,4.77,0,0,0-.43-2.62,9.15,9.15,0,0,0-2.19-2.54,5.85,5.85,0,0,1-1.84-2.9c-.16-.66,1.31-.57,2.83-.29a30.16,30.16,0,0,1,3.18.78,2.85,2.85,0,0,1,1.42,1.56l-.28-1.49-1.21-6.58-15.49-6.57V240.19l-14.29-2.4-.64-8.91L685,233.61l-9.48,6.58,4.1,5.38-8.91,13.08-17.19,6.58h-.07l-9.84,14.43-.77,11.11Z"></path>
  <path id_mun="003" data-bs-toggle="tooltip" data-bs-title="Calkiní" class="cls-2" d="M653.51,265.23l17.19-6.58,8.91-13.08-4.1-5.38,9.48-6.58,18.46-4.73.64,8.91,14.29,2.4v11.89l15.49,6.57,1.21,6.58.28,1.49c.07.12.29.23.35.35a2.94,2.94,0,0,0,2.27,1.56c.75.19,1.72-.3,2.83-.85a8.27,8.27,0,0,1,3.6-1.13,14.86,14.86,0,0,1,4,.42,8.94,8.94,0,0,1,3,1.56c.65.49,2.51.47,4.38.35s3.76-.35,4.6-.35c1.79,0,2.8-.16,3.47-.64a6,6,0,0,0,1.55-2.33c.3-.6,1.89-.74,3.54-.71s3.36.21,4,.21a10.42,10.42,0,0,0,3.68-.35c.85-.36,1.37-1.11,1.77-2.69.17-.67-3.14-3.63-3.47-4-.89-.89-1.45-4.47-2-5.52-1.13-2.26-2-3.28-2.54-5.44a14.13,14.13,0,0,1,0-3l27-10.46-5.52-12.52.5-10.47h-8l-10.47-22-9-8-.78-.85a3.39,3.39,0,0,1-.78,1.48c-2.62,2.63-4.67,1.53-7.92,4-2.55,1.91-3.28,7.92-6.37,7.15-4.21-1-4.55-3.12-7.92-4-4.1-1-8.31-.85-12.66-.85-6.14,0-4.73-.77-7.93-4-1.61-1.62-5.4-4-.85-6.3,2.61-1.3,4.53-4.1,0-6.36-3.7-1.85-14-8.52-11.1-5.59l-21.37-22.14-19.88-36.5-49.16-7.92c0,3.34-5.55,7.11-3.19,9.48L613.47,133,601.58,146.4c.27.27.52.59.78.85,3,3,3.18,3.76,3.18,9.48,0,4.77-3.18,6.2-3.18,8.7,0,1.88,1.19,10.77,0,11.95-1.88,1.88-4.8,4.68-1.56,7.92,3.87,3.87,2.87,3.44,0,6.3-3.74,3.74-1.15,3.37,0,8,.94,3.73-1.62,6.71-1.62,8.7,0,1.13.08,5.61,1.62,8.7,1.3,2.6,1.56,5.76,1.56,10.33,0,5.46-2.34,5.35-3.18,8.7-.29,1.16-4.28,8.45-4,8.77,2.16,2.16,2.94,4.5,5.58,7.14,2.05,2,3.1,3.88,5.52,6.3,1.37,1.37,5.66,6.3,7.15,4.81,2.76-2.76,4.67-1.17,8.7-3.18,2.18-1.09-.55-6.06,1.63-7.15a16.16,16.16,0,0,1,7.14-1.62c3.59,0,8.43-.87,11.89,0,3.71.92,4.94,3.87,8.7,4.81,7.53,1.88,3.12,9.42,2.4,8.7Z"></path>
  <path id_mun="004" data-bs-toggle="tooltip" data-bs-title="Calkiní" class="cls-2" d="M591,456.71l-.07.28,4.74,17.89-23.84-.63-7.71,3.61-9.55-5.38-11.32,13.09,17.9,17.25,22,2.41-7.71,15.49,7.14,5.37,4.74,13.66-5.3,7.78-2.41-1.21c-1.56-.77-2.5-1.42-3.25-1.48s-1.32.45-2.12,2-3.07,3.7-4.18,4.81c-.72.72-2.24.88-3.89.85s-3.42-.28-4.46-.28a40.56,40.56,0,0,0-8.34.63c-.44.11-.73,1.62-.92,3.33a43.54,43.54,0,0,0-.22,4.38,3.85,3.85,0,0,1-.77,2.12,9.25,9.25,0,0,1-1.7,1.91c-1.32,1.14-2.85,2-3.54,2.55-.41.31,1.16.36,2.41.78a2.09,2.09,0,0,1,1.34.92c.19.44,0,1-.78,1.84a3.57,3.57,0,0,0-1,3.11,40.31,40.31,0,0,1,.43,4c0,3.45,1.2,4,1.2,7.78a1.1,1.1,0,0,0,.85,1.13,6.7,6.7,0,0,0,2.05.29c1.56.06,3.36,0,4.24.92a21,21,0,0,1,4.74,6.57,6,6,0,0,0,2.27,2.13c.38.28-.09.28-2.83.28-2,0-3.19,0-3.89.57s-.85,1.63-.85,3.6a.71.71,0,0,1-.85.78,4.9,4.9,0,0,1-1.84-.78,21.67,21.67,0,0,1-3.89-3c-.88-.87-1.54-1.28-2-1.27s-.7.35-.85.92a20.78,20.78,0,0,0-.14,4.45,4,4,0,0,0,.49,2.34,2.23,2.23,0,0,0,1.42.78,15.43,15.43,0,0,1,4.6,1.06c.7.35.87,2.08.85,3.89s-.22,3.7-.22,4.45a9.31,9.31,0,0,0,1,3.61,22.75,22.75,0,0,1,1.42,3.54,4.76,4.76,0,0,0,1,2.12,1.83,1.83,0,0,0,1.34.64,4.56,4.56,0,0,0,3-1.56,10,10,0,0,0,1.7-2.9,2.17,2.17,0,0,1,1.13-.92,7.08,7.08,0,0,1,2.55-.35c1.14,0,2.47.93,3.68,2s2.32,2.24,2.9,2.83a31.1,31.1,0,0,0,2.55,2.54,10.12,10.12,0,0,0,4,1.63,9,9,0,0,0,4.6,0,6.87,6.87,0,0,0,4.81-4.53c.3-.6.78-.85,2.54-.85a1.12,1.12,0,0,1,1.21,1,5.88,5.88,0,0,1-.07,2.34c-.38,1.86-1.14,4.1-1.14,5.59,0,2.14.22,3.18.78,3.82a9.29,9.29,0,0,0,2.76,1.55c1.55.78,2,1.1,2.48,1s1-.69,2.9-1.62c.56-.28,2.78,0,3.61,0l10.11,22.63-10.11,1.84,3.53,7.14-2.4,5.95,13.72,7.14,1.27.49c3.69-.22,4.13-1,6.23-5.23,1-2.09,4-7.56,8.7-4.74,4.39,2.64,7.4,5.86,9.55,1.56,1.49-3,2.31-6.34,5.52-7.15,4.27-1.07,4.57-3.06,7.92-4.74,2.74-1.36,6.6-4.65,10.33-5.58,5.53-1.39,4.48,1.93,9.48,3.18,4.73,1.18,3.59,3.81,7.15,5.59,4.52,2.26,2-.39,5.58-4,2.35-2.35.76-5.54,3.19-8.78,2.59-3.45,8.37-1.22,8.7-1.55s1.09-5.06,3.18-7.15a25.24,25.24,0,0,1,7.93-5.51c3.32-1.66,8.48,3.4,11.1.78,2.28-2.29,2.39-8.71,5.52-7.93,6.65,1.66,3.44,2.94,8-1.62,1.69-1.69,8.06-2.16,8.71-4.74,1.2-4.82-7.63-5.3-6.37-10.33,1.06-4.26,4.06-4.29-.78-7.92a77.68,77.68,0,0,1-8.7-7.15c-1.43-1.42-8.13-5.34-8.77-7.92-1.65-6.6,4-4.63,4-7.92,0-6.08-.09-6.5,5.59-7.92,2.42-.61,7.14-1.82,7.14-4.74,0-7.94,5.39-2.07,7.15-5.59s1-4.72,0-8.7c-1.81-7.21,3.6-2.53,5.52-6.36,1-1.95-3.68-5.84-1.56-6.37,5.37-1.34,2.29-5.92,4.74-7.14,3.08-1.55-2.57-9.43.78-10.26.37-1.5.91-3.59,2.4-4,4.48-1.12,4.15-4,9.48-4,4.78,0,5.31-2.91,8-5.59,1.7-1.7,6.59-2.08,5.51-6.37-.37-1.49-4.44-8.38-3.18-8.7,5.64-1.41,2.42-3.2,5.59-6.36,1.23-1.23,7.53-2.4,7.92-4,1.08-4.3,3.19-3.13,3.19-8.7,0-5.85,3.66-6.74,4-7.93,1-4.05,1.79-2.64,4.74-5.58,3.13-3.14,1.55-3.45,1.55-8.7,0-3.29-1.27-9.41-.77-11.89.57-2.89.67-8.29,3.18-9.55,3.49-1.74,3.46-2.8,4.74-7.92.56-2.26.34-5.43,1.41-7.28l-1.48-.78L805.32,407,800,408.11,791.6,423l-20.23-4.18-6.51,16.7,2.33,5.94-5.94,29.21c-.79.2-1.61.37-2.41.57a8.39,8.39,0,0,1-4.88-.14,26.87,26.87,0,0,1-3.46-1.63,10.22,10.22,0,0,0-4.18-1.06,14.27,14.27,0,0,0-4.1.42c-1.2.3-5.21,3.53-7.78,4.81-1.63.82-1.75,1-1.49,1.49a5.27,5.27,0,0,1,.92,3.25,42.63,42.63,0,0,1-.63,8.35,2.32,2.32,0,0,1-1.35,1.62,7,7,0,0,1-2.47.43,34.74,34.74,0,0,0-5.66.35,1.88,1.88,0,0,0-1.28,1A7.26,7.26,0,0,0,722,492c-.24,1.35-.43,2.83-1.28,3.68-2,2-3.74,3.18-5.94,5.38a1.34,1.34,0,0,1-1.48.28,8.28,8.28,0,0,1-1.91-.92,13.11,13.11,0,0,0-1.91-1.06,2.24,2.24,0,0,0-1.84-.07c-1.79.89-2.94.93-3.82.42a6.36,6.36,0,0,1-2.13-2.83,15.05,15.05,0,0,1-1.48-3.61,9,9,0,0,1,.28-4.1c.38-1.52,1.28-2.59,1.42-3.25.06-.33,0-.56-.5-.71a10.53,10.53,0,0,0-2.69-.21,41.7,41.7,0,0,1-8.34-.64,5.59,5.59,0,0,1-2.83-1.77c-.75-.64-1.77-1.2-4.32-1.2-.8,0-1.09.8-1.34,1.7a6,6,0,0,1-1.06,2.48,1.66,1.66,0,0,1-1.63.42,6.5,6.5,0,0,1-1.91-.92c-1.36-.83-2.83-1.91-4.18-1.91-3.42,0-4.93.64-8.34.64l7.71-13.73-11.32-23.83,7.36-6.72-12.1-6.93-5.94,4.17-11.32,12.45-6.58-3.54-5.94,13.09L596.84,454Z"></path>
  <path id_mun="005" data-bs-toggle="tooltip" data-bs-title="Calkiní" class="cls-2" d="M372.09,465.12l-21.22,12.1-18.46,31.55,23.77-4.11L370.47,535l-8.28,10.75v13.08c-1,.2-2.05.37-3,.57a3.47,3.47,0,0,0-2.13,1.06,2.1,2.1,0,0,0-.42,1.56,6.82,6.82,0,0,0,.78,2.19,3.48,3.48,0,0,0,1.2,1.77,4.6,4.6,0,0,0,2.05,1,2.24,2.24,0,0,0,1.91-.43,2.84,2.84,0,0,0,.78-2.33,1.56,1.56,0,0,1,.35-1.13c.21-.19.49-.17.85-.07a8.53,8.53,0,0,1,2.76,1.77c2.05,1.74,4.29,4.14,5,4.73.26.21,1.21-7.31,1.21-8.34a1.72,1.72,0,0,1,.85-1.35,8.37,8.37,0,0,1,1.91-1.06c1.48-.62,3.15-1.1,3.75-1.69.93-.94,1.61-1.22,2.12-1.07s.85.73,1.06,1.49a20.35,20.35,0,0,1,.42,4.88,3.87,3.87,0,0,0,.85,2.69,4.09,4.09,0,0,0,1.56,1.06c.51.2.92.34,1,.64s-.22.71-1.06,1.55a7.45,7.45,0,0,1-3.33,1.77,1,1,0,0,0-.63.92,9,9,0,0,0,.42,2.69,4.79,4.79,0,0,1-.42,4.1,6.34,6.34,0,0,1-2.55,1.84c-.54.27-.63.66-.35,1.06a5.08,5.08,0,0,0,1.62,1.27,20.87,20.87,0,0,0,4.67,1.84c2,.5,4.63,3,5.94,3.61L387.8,599.3l7.14,3-10.18,4.18L372.3,644.57l5.31,7.78.64,9.48-10.12,5.38,5.94,16.12,20.24-7.14L411,678l10.12-1.2,3-4.18,14.29-.56,4.17,2.33V647l-8.91-13.09,42.3-5.37L470,638.06l19.6,3,4.81-3,12.52,1.7a2.71,2.71,0,0,0-.85-2.69,10.53,10.53,0,0,1-2.12-2.61,9,9,0,0,0-2.34-2.76,15.11,15.11,0,0,0-3-2,9.87,9.87,0,0,0-4.53-.92c-1.3,0-2.42,0-3.25-.85-.29-.29-.05-.66.49-1a13.1,13.1,0,0,1,2.27-.92c1.76-.59,3.73-1.11,3.82-1.13a3.66,3.66,0,0,0,1.77-.85,2.32,2.32,0,0,0,.7-1.41,13.44,13.44,0,0,0-.7-4.25c-.49-2-.44-3.32.14-4.17s1.73-1.2,3.47-1.2a1.83,1.83,0,0,1,1.69.84,5.28,5.28,0,0,1,.57,1.56c.12.47.22.8.56.78s.93-.43,1.91-1.42a3.12,3.12,0,0,1,2-.92,9,9,0,0,1,1.83.15,2.48,2.48,0,0,0,1.63-.22,3,3,0,0,0,1.13-2,8.28,8.28,0,0,1,1.77-3.25,1,1,0,0,0,.14-1,5.88,5.88,0,0,0-1.34-1.7,6.38,6.38,0,0,1-1.77-4.24c-.14-1.61,0-3.42,0-5.31a5,5,0,0,0-.42-2.4.77.77,0,0,0-1-.36,9,9,0,0,0-2.76,2.2,4,4,0,0,0-1.06,2.12,3.49,3.49,0,0,1-1.35,2.05L492.64,582l6.22-9.69c-.1,0-.17.15-.28.15-.39,0-.58-1.51-.64-3.19s0-3.51,0-4l9-16.05V536.78l-16.13-3-8.35-5.94a1.75,1.75,0,0,1-1.63-1.06,7.67,7.67,0,0,1-.63-2.47c-.25-1.92-.31-4.1-1.28-5.38a5.54,5.54,0,0,1-.84-3.75c0-1.24.05-2.42-.92-3.39a17,17,0,0,0-5.38-3.61,19.2,19.2,0,0,1-5.38-4.17,5.63,5.63,0,0,0-2.9-1.7,11.59,11.59,0,0,0-2.47-.07,14.46,14.46,0,0,1-3.54-.28,18.31,18.31,0,0,1-3.61-1.49c-1.57-.79-3.12-3.76-4.17-4.81-2.05-2.05-3.23-3.3-5.31-5.38a17.84,17.84,0,0,0-5.37-4.1c-2.26-1.13-6-1.38-7.79-1.84a4.62,4.62,0,0,1-3-1.77l-.56-15.42a5.58,5.58,0,0,1-3.82,1.21c-2.13,0-3.39,3.18-5.52,3.18-2.8,0-9.6-.29-10.33-4-1.12-5.62-2-4.74-7.92-4.74H387.44c-7.62,0-2.86,5.36-3.18,5.52-2.71,1.35-9.42-2.57-11.6-3.54l-.43.21c.08.08,0,.1.15.21Z"></path>
  <path id_mun="006" data-bs-toggle="tooltip" data-bs-title="Calkiní" class="cls-2" d="M254.45,785.33l.49-.21,1.2-18.46,7.72-1.77,3-.57a6.55,6.55,0,0,0,3.75-2.68c.87-1.18,1.37-2.35,1.62-2.69a.86.86,0,0,0,0-1.21,5.18,5.18,0,0,0-1.55-1c-1.31-.61-3-1.18-3.82-2a.84.84,0,0,1-.07-1.2,5.71,5.71,0,0,1,1.34-1.27c1.17-.87,2.63-1.8,2.9-2.9a7.55,7.55,0,0,0-.07-3.47,13.67,13.67,0,0,0-1.13-3l-2.34-21.5,10.12,1.2-5.16-20.51-.78.28-4.18-14.29h-3a37.7,37.7,0,0,1-5-.14,5.55,5.55,0,0,1-3.33-1.63,8.72,8.72,0,0,1-1.48-3.39,28,28,0,0,0-.92-3.18c-.25-.51-.53-.45-.85-.14a7.78,7.78,0,0,0-1.06,1.55c-.79,1.38-1.74,3.05-2.83,3.33a4.32,4.32,0,0,1-2.62,0,2.21,2.21,0,0,1-1.2-1.35,14.36,14.36,0,0,1-.35-4.6c0-.91.69-1.51,1.48-2.12a6.79,6.79,0,0,0,2.05-2,1.22,1.22,0,0,0-.07-1.34A4.86,4.86,0,0,0,247,671.8a23.43,23.43,0,0,1-3.33-2.19,1.4,1.4,0,0,1-.49-1.55,3,3,0,0,1,1.27-1.21,13.82,13.82,0,0,1,3.4-1.41c.48-.12.14-.53-.36-1A15.55,15.55,0,0,1,246,663l-29.78-1.2-1.77-.85s0,.13.07.14c4.35,2.18.62,4.58,4,7.93,4.63,4.62-.64,1.55-1.63,5.51-.77,3.09,4,9.55.78,9.55-2.82,0-12.5-1.35-13.44,2.41,0,2.14.51,5.08,0,7.14-1.5,6-.71,3.4,1.56,7.92,1.69,3.4-1.28,6.71-.78,8.7.3,1.22.86,4.83,3.18,7.15,1.15,1.14,6.37,5,6.37,7.92,0,4.11.78,8,.78,11.1v11.89c0,2.56-2.83,9.12-1.63,10.32a34.6,34.6,0,0,1,5.59,7.15,28.82,28.82,0,0,1,3.18,8.7c1.29,5.15,2.05,3.46,7.15,4.74,3.32.83,7.19.65,11.1,1.62,2.38.6,8.28.34,11,2.41C252.77,784,253.59,784.69,254.45,785.33Z"></path>
  <path id_mun="007" data-bs-toggle="tooltip" data-bs-title="Calkiní" class="cls-2" d="M498.86,572.35,492.64,582l13.65,17.9a3.49,3.49,0,0,0,1.35-2.05,4,4,0,0,1,1.06-2.12,9,9,0,0,1,2.76-2.2.77.77,0,0,1,1,.36,5,5,0,0,1,.42,2.4c0,1.89-.14,3.7,0,5.31a6.38,6.38,0,0,0,1.77,4.24,5.88,5.88,0,0,1,1.34,1.7,1,1,0,0,1-.14,1,8.28,8.28,0,0,0-1.77,3.25,3,3,0,0,1-1.13,2,2.48,2.48,0,0,1-1.63.22,9,9,0,0,0-1.83-.15,3.12,3.12,0,0,0-2,.92c-1,1-1.56,1.4-1.91,1.42s-.44-.31-.56-.78a5.28,5.28,0,0,0-.57-1.56,1.83,1.83,0,0,0-1.69-.84c-1.74,0-2.89.35-3.47,1.2s-.63,2.21-.14,4.17a13.44,13.44,0,0,1,.7,4.25,2.32,2.32,0,0,1-.7,1.41,3.66,3.66,0,0,1-1.77.85c-.09,0-2.06.54-3.82,1.13a13.1,13.1,0,0,0-2.27.92c-.54.33-.78.7-.49,1,.83.83,1.95.82,3.25.85a9.87,9.87,0,0,1,4.53.92,15.11,15.11,0,0,1,3,2,9,9,0,0,1,2.34,2.76,10.53,10.53,0,0,0,2.12,2.61,2.68,2.68,0,0,1,.85,2.76,9.52,9.52,0,0,0-.28,3.26,5.37,5.37,0,0,0,1.41,3.32c.85.85,3.1,1.41,4.88,1.56a6,6,0,0,0,2.12-.14c.46-.16.64-.43.22-.85a5.53,5.53,0,0,1-1.63-2.69,2.14,2.14,0,0,1,.21-1.42,3.27,3.27,0,0,1,1.42-1.27c1.2-.6,1.88-.78,2.61-.49a9.81,9.81,0,0,1,2.69,2.26c.46.46,1.72,1.43,2.9,2.48s2.29,2.15,2.48,2.9c.84,3.35,1.69,4,3,6.57.91,1.83,2.28,3.75,3,6.51a14.63,14.63,0,0,0,1.91,3.54,5,5,0,0,0,1.7,1.55,1.43,1.43,0,0,0,1.77-.28c.91-.92,1.28-1.91,1.84-2.47s1.3-.73,2.9.07a7.85,7.85,0,0,1,2.33,2.61,6,6,0,0,0,1.13,1.28,1.54,1.54,0,0,0,1.35.28c1.1-.28,1.9-1.43,2.69-2.48a6.34,6.34,0,0,1,1.2-1.34,1.72,1.72,0,0,1,1.48-.35,15.49,15.49,0,0,1,3.33,1.06,3.65,3.65,0,0,1,2,2.54c.18.72.75,2.21,1.13,3.68s.61,2.93.07,3.47a4.13,4.13,0,0,1-3.32,1.41,15.85,15.85,0,0,0-4.39.36,3.26,3.26,0,0,0-2.54,2.19,8,8,0,0,0,.14,4.38,7,7,0,0,0,2.12,3.33,33.6,33.6,0,0,0,3.25,2.62,30.64,30.64,0,0,0,3,2.33,2.86,2.86,0,0,0,1.63.49,1.66,1.66,0,0,0,1.28-1.06c1.1-2.21,1.55-3.56,2.4-3.75s2.11.82,4.74,3.19l1.84,1a2.23,2.23,0,0,1,1.77-1c2.87,0,9.38,1.25,11.88,0,1.85-.92,6.78-1.26,8.7-3.19,1.43-1.43,3.88-5.58,6.37-5.58h21.44c1,0,1-.25,1.69-.29l-1.27-.49-13.72-7.14,2.4-5.95-3.53-7.14,10.11-1.84-10.11-22.63c-.83,0-3-.28-3.61,0-1.88.93-2.42,1.51-2.9,1.62s-.93-.21-2.48-1a9.29,9.29,0,0,1-2.76-1.55c-.56-.64-.78-1.68-.78-3.82,0-1.49.76-3.73,1.14-5.59a5.88,5.88,0,0,0,.07-2.34,1.12,1.12,0,0,0-1.21-1c-1.76,0-2.24.25-2.54.85a6.87,6.87,0,0,1-4.81,4.53,9,9,0,0,1-4.6,0,10.12,10.12,0,0,1-4-1.63,31.1,31.1,0,0,1-2.55-2.54c-.58-.59-1.69-1.79-2.9-2.83s-2.54-2-3.68-2a7.08,7.08,0,0,0-2.55.35,2.17,2.17,0,0,0-1.13.92,10,10,0,0,1-1.7,2.9,4.56,4.56,0,0,1-3,1.56,1.83,1.83,0,0,1-1.34-.64,4.76,4.76,0,0,1-1-2.12A22.75,22.75,0,0,0,555,618.4a9.31,9.31,0,0,1-1-3.61c0-.75.19-2.64.22-4.45s-.15-3.54-.85-3.89a15.43,15.43,0,0,0-4.6-1.06,2.23,2.23,0,0,1-1.42-.78,4,4,0,0,1-.49-2.34,20.78,20.78,0,0,1,.14-4.45c.15-.57.41-.91.85-.92s1.1.4,2,1.27a21.67,21.67,0,0,0,3.89,3,4.9,4.9,0,0,0,1.84.78.71.71,0,0,0,.85-.78c0-2,.15-3.06.85-3.6s1.92-.57,3.89-.57c2.74,0,3.21,0,2.83-.28a6,6,0,0,1-2.27-2.13,21,21,0,0,0-4.74-6.57c-.88-.89-2.68-.86-4.24-.92a6.7,6.7,0,0,1-2.05-.29,1.1,1.1,0,0,1-.85-1.13c0-3.83-1.2-4.33-1.2-7.78a40.31,40.31,0,0,0-.43-4,3.57,3.57,0,0,1,1-3.11c.81-.81,1-1.4.78-1.84s-.59-.46-1-.64l-3.89-1.06c-1.33-.53-2.67-1.57-3.68-1.7a1.21,1.21,0,0,0-1.27.64,6.1,6.1,0,0,0-.43,2.83c0,1-1.07,1.87-2.33,2.62a15.4,15.4,0,0,1-3.61,1.55c-.6.15-.36-1.56.07-3.32s1-3.58,1.06-3.82c.12-.49-.2-.79-.78-1a7.57,7.57,0,0,0-2.26-.36c-1.79,0-3.84.15-4.67.15a1.36,1.36,0,0,0-1.13.77,8.79,8.79,0,0,0-.64,1.63,8.5,8.5,0,0,1-.7,1.63,1.31,1.31,0,0,1-1.14.7h-19a4.8,4.8,0,0,0-3,1.49A5.25,5.25,0,0,1,498.86,572.35Z"></path>
  <path id_mun="008" data-bs-toggle="tooltip" data-bs-title="Calkiní" class="cls-2" d="M314.15,839.16a7.2,7.2,0,0,1,3.54-2.62c1.47-.36,3.39-.17,6.37.43a2.66,2.66,0,0,0,2.05-.22,3.76,3.76,0,0,0,1.13-1.27,5.24,5.24,0,0,1,1.13-1.41,3.35,3.35,0,0,1,2.2-.71c1.51,0,3,.26,4.45.35a14.63,14.63,0,0,0,4.53-.35,7.81,7.81,0,0,0,2.34-.85,1.42,1.42,0,0,0,.7-1.13c0-.79-.86-1.71-1.91-2.76-1.28-1.28-1.73-1.81-1.41-2.12s1.46-.4,3.25-.85c.89-.22,1.47-2,1.84-3.82a26.34,26.34,0,0,0,.5-4.53c0-.48,8.52.52,9,.64,2.6.65,6.22,0,8.91,0A7.14,7.14,0,0,0,366,817a8.41,8.41,0,0,1,3.89-.92,4.54,4.54,0,0,0,2.33-.57,5.12,5.12,0,0,0,1.56-1.48,25.48,25.48,0,0,0,2-3.89,11.75,11.75,0,0,0,1.13-4.1,5.78,5.78,0,0,1,1.84-3.61c1.36-1.36,1.83-2.46,1.7-3.4a5,5,0,0,0-1.7-2.61,20.43,20.43,0,0,0-5.3-3.54l-.71-.35a6.89,6.89,0,0,0-.5.91c-.15.32-6,2.43-6.57,3a3.19,3.19,0,0,1-2,.92,5.35,5.35,0,0,1-2.2-.29,8.79,8.79,0,0,1-3-1.77A7.32,7.32,0,0,1,357.1,792a20,20,0,0,0-.92-3.25c-.67-1.34-1.27-1.92-1.7-2.69a7.77,7.77,0,0,1-.64-3.89c0-2.58.09-3.61-.14-4.39s-.79-1.28-2.26-2.76c-.53-.52-.87-.62-1.14-.49a1.77,1.77,0,0,0-.7.92,7.84,7.84,0,0,1-.78,1.48,2.7,2.7,0,0,1-1.56,1.06,2.49,2.49,0,0,1-1.84-.28,6.19,6.19,0,0,1-1.55-1.34c-1-1.11-1.89-2.46-2.55-3.11a3.21,3.21,0,0,0-1.77-1.07,2.32,2.32,0,0,0-1.48.36c-.95.54-1.9,1.55-3.33,1.91a7.6,7.6,0,0,0-3.18,1.77,1.08,1.08,0,0,1-1.06.14,5.62,5.62,0,0,1-1.7-1.35c-1.37-1.37-2.08-4.16-3-5.94a6.17,6.17,0,0,1-.85-3.32c0-1,.21-2,.21-3.82V753c0-.8-1-2.12-2.12-3.33s-2.31-2.31-2.62-2.62a17.94,17.94,0,0,1-3-4.81c-.36-.71-.16-1.06.42-1.2a8.28,8.28,0,0,1,2.62.14,54.76,54.76,0,0,0,6.51,1.06,43.2,43.2,0,0,0,8.35-.56c.32-.08.22-1.39.49-2.76a5.78,5.78,0,0,1,.78-2,2.7,2.7,0,0,1,1.7-1.2,4.28,4.28,0,0,1,2.4-.07,3,3,0,0,1,1.28.84,4,4,0,0,0,1.06.92,2.41,2.41,0,0,0,1.77.08,1.15,1.15,0,0,0,.92-1.14,4.47,4.47,0,0,0-.5-2,15.57,15.57,0,0,0-2.76-4,2.23,2.23,0,0,1-.85-1.7,2,2,0,0,1,.85-1.34c1-.8,2.76-1.48,4.18-2.33.68-.42.7-1.23.63-2.13a8.89,8.89,0,0,1-.07-2.61c.38-1.51.89-2.56,1.2-3.68a7.42,7.42,0,0,0,0-4.1.87.87,0,0,1,.64-1.14,8,8,0,0,1,2.12-.21,19.33,19.33,0,0,0,2.55-.14,2.78,2.78,0,0,0,1.84-.85c1.63-2.17,2.5-4.9,3-5.37s-5.08-3.46-5.38-3.61,0-3.71,0-4.17c-3,.06-9.48.27-9.55,0l-28.58,5.94c-.09-.39-.18-.59-.28-.92l-.28.35.56,7.78-8.34,3L291.3,685.67l-6,.63.64,10.69-13.51,5.09,5.16,20.51-10.12-1.2,2.34,21.5a13.67,13.67,0,0,1,1.13,3,7.55,7.55,0,0,1,.07,3.47c-.27,1.1-1.73,2-2.9,2.9a5.71,5.71,0,0,0-1.34,1.27.84.84,0,0,0,.07,1.2c.8.8,2.51,1.37,3.82,2a5.18,5.18,0,0,1,1.55,1,.86.86,0,0,1,0,1.21c-.25.34-.75,1.51-1.62,2.69a6.55,6.55,0,0,1-3.75,2.68l-3,.57-7.72,1.77-1.2,18.46-.49.21a13.45,13.45,0,0,1,4.45,5c.91,1.81.93,7.29,3.19,9.55,4,4,2.56,3.87,4,9.48.94,3.76.56,6.85,1.63,11.1,1.12,4.5,2.68,5.77,7.14,8,2.8,1.4,4.51,3.88,7.92,4.74,3,.74,5.85-1.69,9.48-.78,2.89.72,6.32,2.11,10.33,3.11,2.69.67,7.08,1.56,10.33,3.18C313.19,838.89,313.81,839,314.15,839.16Z"></path>
  <path id_mun="009" data-bs-toggle="tooltip" data-bs-title="Calkiní" class="cls-2" d="M764.15,179.86l.78.85,9,8,10.47,22h8l-.5,10.47,5.52,12.52-27,10.46a14.13,14.13,0,0,0,0,3c.54,2.16,1.41,3.18,2.54,5.44.53,1.05,1.09,4.63,2,5.52.33.33,3.64,3.29,3.47,4-.4,1.58-.92,2.33-1.77,2.69a10.42,10.42,0,0,1-3.68.35c-.6,0-2.31-.19-4-.21s-3.24.11-3.54.71a6,6,0,0,1-1.55,2.33c-.67.48-1.68.64-3.47.64-.84,0-2.72.23-4.6.35s-3.73.14-4.38-.35a8.94,8.94,0,0,0-3-1.56,14.86,14.86,0,0,0-4-.42,8.27,8.27,0,0,0-3.6,1.13c-1.11.55-2.08,1-2.83.85a2.94,2.94,0,0,1-2.27-1.56,3.57,3.57,0,0,0-1.77-1.91,30.16,30.16,0,0,0-3.18-.78c-1.52-.28-3-.37-2.83.29a5.85,5.85,0,0,0,1.84,2.9,9.15,9.15,0,0,1,2.19,2.54,4.77,4.77,0,0,1,.43,2.62,5.23,5.23,0,0,0,.56,2.9c1.23,2.45,2.49,3.55,3.47,5.52.89,1.77,2.08,3,3,5a4.27,4.27,0,0,1,.71,2.47,5,5,0,0,1-1.7,2.55,2.32,2.32,0,0,0-.85,1.63,3.26,3.26,0,0,0,.5,1.48,11.62,11.62,0,0,1,.78,1.7,4,4,0,0,1,.07,2.19,20.78,20.78,0,0,0-.64,3.12c-.14,1.32-.05,2.7.64,3.39a4.72,4.72,0,0,0,2.12,1.42,13.79,13.79,0,0,1,2.83,1.06,7.52,7.52,0,0,1,2.26,1.62,1.49,1.49,0,0,1,.36,1.21c-.08.4-.41.76-1.14,1.13a19.28,19.28,0,0,0-2.9,1.69,4.36,4.36,0,0,0-1.27,1.42,1.11,1.11,0,0,0,.21,1.41c.12.12,4.66,4.18,4,4.53s-1.75.94-3,1.49a10.64,10.64,0,0,1-3.89,1,3.5,3.5,0,0,0-1.91.42,1.66,1.66,0,0,0-.71,1.13,32.46,32.46,0,0,0,.07,4,3.45,3.45,0,0,1-.42,1.84,1.42,1.42,0,0,1-1,.78A2.77,2.77,0,0,1,732,329.1c-.56-.93-1.08-2.18-1.7-3.32a6.1,6.1,0,0,0-2.33-2.69,4.77,4.77,0,0,0-2.26-.49,1.93,1.93,0,0,0-1.21.49,2,2,0,0,0-.49,1.49,10.31,10.31,0,0,0,1.48,6c.06.11,3.94,6,4,6a6.82,6.82,0,0,1,2.19-1.48,2.76,2.76,0,0,1,2.33-.07,13.86,13.86,0,0,1,4.53,3,4,4,0,0,0,3,1.13,8.63,8.63,0,0,1,3.89.85,7.79,7.79,0,0,1,4,4c.51,1,.84,4.38,2,5.52.71.71,1.45,1.9,2.26,2.75a3.31,3.31,0,0,0,1.27.92,1.67,1.67,0,0,0,1.49-.14c1.49-.89,2.73-1.76,3.61-1.84a.94.94,0,0,1,1,.57,5.16,5.16,0,0,1,.35,2.26,23.42,23.42,0,0,0,.14,3.75,3.65,3.65,0,0,0,.57,1.56,1.58,1.58,0,0,0,1.34.63c.79,0,1.08-1.21,1.35-2.33a6.88,6.88,0,0,1,.42-1.41c.17-.33.39-.45.71-.22a42.84,42.84,0,0,1,4.46,3.47c1.15,1.15,2.89,3.21,4.52,4a22,22,0,0,1,6.51,4.46,13.49,13.49,0,0,0,2.34,1.69,3.66,3.66,0,0,1,1.62,2.34,8.75,8.75,0,0,0,2.62,2.69c1.22.9,2.41,1.46,2.41.77a21.12,21.12,0,0,1,.14-3.67,2.45,2.45,0,0,1,1.84-2.27c1.12-.28,2.24-1.61,3.25-2.61a5.29,5.29,0,0,1,1.42-1.14,1.12,1.12,0,0,1,1.34.22c2.05,2.05,6.28,5.72,7.5,7l.78.28c3.24-1.77,5.47,2.08,6.65,1.49,3.17-1.59,4.31-2.34,9.55-2.34,1.31,0,11.1.64,11.1-.77,0-3.59-.86-8.5,0-12a3.56,3.56,0,0,1,.92-1.63l-.07-.07c-.66,0-1.82.65-2,0-.57-2.29-1.79-2.69-2.47-5.44-.19-.76-3.75-5.31-3.54-5.52A14.59,14.59,0,0,0,829,345a2,2,0,0,0,.35-1.34,2.86,2.86,0,0,0-.91-1.63c-.57-.57-6.71-5.05-6.51-5.45.79-1.57,1.33-1.87,2-2a4.9,4.9,0,0,0,2.9-1.06,23.55,23.55,0,0,0,2.9-2.05,3.17,3.17,0,0,0,.92-1.49,2.66,2.66,0,0,0-.28-1.91,9.67,9.67,0,0,0-2.55-3,3.74,3.74,0,0,1-1.49-3c0-1.1.25-1.67.64-1.91a2.38,2.38,0,0,1,1.56-.07,5.56,5.56,0,0,0,1.77.14,2,2,0,0,0,1.55-1.2A10.32,10.32,0,0,0,833,316.3a4.87,4.87,0,0,0-.63-3.18,2.85,2.85,0,0,0-2.55-1.63,5,5,0,0,0-3.47,1.63,7.47,7.47,0,0,0-1.27,3c-.33,1.08-.73,2-1.7,2a15,15,0,0,1-3.61-.07,1.43,1.43,0,0,1-1-.85,3.71,3.71,0,0,1,.07-2,4.93,4.93,0,0,1,1.42-2.83,7.87,7.87,0,0,1,3.11-1.2c1.55-.39,2-.88,1.84-1.56a6.65,6.65,0,0,0-1.84-2.4c-.86-.87-4.53-3.94-4.53-5a17.07,17.07,0,0,1,1-3.25c.4-1.29.7-2.55.07-3.18-.95-.95-3.4-4.89-2.55-4,1,1,3.74,2.45,4.53,4a8.2,8.2,0,0,0,4,4c2.38,1.19,2.79,1.44,2.9,1.06a3.77,3.77,0,0,1,1.13-2.55c.73-.72,2.22-.63,3.54-.56a6.07,6.07,0,0,0,1.7-.07c.44-.13.77-.34.77-.85s-.25-2.19-.35-3.68,0-2.83.35-2.83c1.14,0,2.57-.17,3.89-.07s2.5.46,3.05,1.56a17.19,17.19,0,0,1,1.34,3.18,5.35,5.35,0,0,1,.21,2.12,1.35,1.35,0,0,1-1.06,1.2c-1.43.36-1.95.94-2,1.77a10.18,10.18,0,0,0,.57,3.18,10.65,10.65,0,0,0,1.27,2.76c.63,1,1.42,1.77,2.26,1.77a5.41,5.41,0,0,0,2.48-.56,9.72,9.72,0,0,0,2.48-1.91,12.45,12.45,0,0,0,1.48-2.76c.5-1.1,1-2.13,1.56-2.27,1.81-.45,2.41-.55,2.76-.92a18.83,18.83,0,0,0,1.2-2.54c.28-.57,1-1.49,1.63-2.48a4.2,4.2,0,0,0,.85-3,10.79,10.79,0,0,0-2.27-3.11c-1-1.13-1.86-2.23-1.7-2.9a3.72,3.72,0,0,1,2.41-2.19c1-.45,2.09-.65,2.12-.78a2.34,2.34,0,0,0-.85-2.34c-.49-.5-.88-.86-.21-1.2a2.3,2.3,0,0,0,1.13-1.41,8,8,0,0,0,.36-2.06c.08-1.41,0-2.7.56-3a8.57,8.57,0,0,1,3.47-.35,5,5,0,0,0,1.62-.21,1.29,1.29,0,0,0,.85-1c.14-.56.45-1.79.85-2.9s1-2,1.7-2a10.7,10.7,0,0,0,3.89-.64,3.62,3.62,0,0,0,1.49-1.06,2.88,2.88,0,0,0,.56-1.84v-7.5a13.84,13.84,0,0,1,.36-4.1,2.64,2.64,0,0,1,.92-1.34,2.83,2.83,0,0,1,1.77-.5c2.73,0,4.83.5,7.49.5,1.09,0,2.79.19,4.11.07a2.62,2.62,0,0,0,1.55-.5,1.46,1.46,0,0,0,.29-1.55c-.54-2.16-.91-3-1.49-3.54a14.53,14.53,0,0,1-2.48-2.48,16.81,16.81,0,0,1-1.91-3.6,10,10,0,0,0-2.12-3.4,5.26,5.26,0,0,1-1.34-2.47,3.12,3.12,0,0,1,.85-3.05c.72-.71,4.29-2.49,5-4s1-3.61,1-6.5c0-.67-.18-2.45-.14-4.11s.27-3.18,1.13-3.39,2.28-.14,3.68-.29,2.64-.44,2.83-1.2c.54-2.16.88-3.6,1.48-6a21.52,21.52,0,0,1,1.35-2.76,3.54,3.54,0,0,0,.14-3.25c-.82-1.63-5.32-4.45-5.45-4.95a3.51,3.51,0,0,1,.22-2.83,5,5,0,0,0,.77-2.69c0-.63-.19-2.23-.21-3.75s.12-3,.71-3.25c1.15-.58,1.77-1.06,2.55-1.42a8,8,0,0,1,3.46-.56c1,0,2.61-.14,4.1-.15s2.87.11,3.4.64a20.08,20.08,0,0,0,5,4,6.9,6.9,0,0,1,2.27,2.12,7.57,7.57,0,0,0,2.76,2.34c1.78.89,3.87,2.46,6,3.54s2.84,2.4,5,3.46c1.15.57,2,1.06,3,1.42a9.63,9.63,0,0,0,3.54.56,25.55,25.55,0,0,0,7-1c1.27-.31,2-.72,2.62-.78s1.28.23,2.33,1.28c1.83,1.83,4.39,3.89,5.81,5.3,2.21-.64,4.85-1.29,5.87-3.32,1.36-2.74,5.92-3.63,2.4-7.15-1.82-1.82-5.38-3.22-6.36-7.14-1-4.19-3.91-3.77-5.59-7.14-1.58-3.16-4-6.68-4.74-9.48-.86-3.41-2.41-7.88-2.41-11.11,0-4.34-.78-8.56-.78-11.88,0-5.51-4.74-6.19-4.74-9.55,0-3.92-.8-8,1.56-10.33s2.18-4.69,3.18-8.7a42,42,0,0,1,4-9.55c.39-.78,5.6-6.27,3.18-8.7s-2.62-3.68-4.74-7.92c-1.77-3.54-4.59-6.14-7.15-8.7-2.09-2.09-8.64-1.09-7.92-4,.81-3.23,2.63-6,1.56-10.33-1-3.87-2.29-4.69-5.52-7.92-2.62-2.61-3.18-5.16-7.15-7.14-5.66-2.83-4,.59-7.92,1.55-4.94,1.24-4.37-3.18-7.14-3.18-6.12,0-2.61,2.87-4.74,7.14-.79,1.57-.21,8.43-1.63,10.33-1.72,2.29-2.47,6.37-6.37,6.37-8.82,0-.8,5.17-4.74,7.14-3.59,1.8-4.12,1.77-9.48,3.11-3.92,1-12-1.63-12,2.41-.42,2.1-1.56,5.18-1.56,7.14,0,5.87,3.57,5.67,4.74,10.33.15.59,4.61,7.92,2.41,7.92-6.19,0-10.84-1.19-9.55,4,1.41,5.65-2.8,1.64-4.74,5.52-.63,1.25-3.53,9.27-6.37,7.14-1.86-1.39-9.76-1-11.11-2.33-4.7-4.7-5.32-4.25-11.1-7.14-1.48-.74-10.93-3.86-11.89,0-.53,2.12-1.61,7.76-.78,11.1s5.59,6.84,5.59,8.7c0,5,.29,7.15-4.81,7.15-5.62,0-6.3-.26-6.3,5.51,0,4.46-1,7.08-1.62,10.33-1.16,5.79-4,4.93-5.52,7.92-1.24,2.49-1.63,5.78-1.63,10.33,0,2.15-1.69,10.19-4.74,7.14-2-2-5.5-1.54-7.92-4-.42-.42-7.95-9.45-8.7-8.7-2.85,2.85-5.14,2.34-10.33,2.34C762.36,175.76,765.34,177.13,764.15,179.86Z"></path>
  <path id_mun="010" data-bs-toggle="tooltip" data-bs-title="Calkiní" class="cls-2" d="M955,200.51c-1.42-1.41-4-3.47-5.81-5.3-1.05-1.05-1.66-1.34-2.33-1.28s-1.35.47-2.62.78a25.55,25.55,0,0,1-7,1,9.63,9.63,0,0,1-3.54-.56c-.94-.36-1.82-.85-3-1.42-2.11-1.06-2.9-2.44-5-3.46s-4.23-2.65-6-3.54a7.57,7.57,0,0,1-2.76-2.34,6.9,6.9,0,0,0-2.27-2.12,20.08,20.08,0,0,1-5-4c-.53-.53-1.9-.64-3.4-.64s-3.1.15-4.1.15a8,8,0,0,0-3.46.56c-.78.36-1.4.84-2.55,1.42-.59.29-.73,1.73-.71,3.25s.21,3.12.21,3.75a5,5,0,0,1-.77,2.69,3.51,3.51,0,0,0-.22,2.83c.13.5,4.63,3.32,5.45,4.95a3.54,3.54,0,0,1-.14,3.25,21.52,21.52,0,0,0-1.35,2.76c-.6,2.41-.94,3.85-1.48,6-.19.76-1.43,1.06-2.83,1.2s-3,.11-3.68.29-1.1,1.74-1.13,3.39.14,3.44.14,4.11c0,2.89-.19,4.89-1,6.5s-4.3,3.25-5,4a3.12,3.12,0,0,0-.85,3.05,5.26,5.26,0,0,0,1.34,2.47,10,10,0,0,1,2.12,3.4,16.81,16.81,0,0,0,1.91,3.6,14.53,14.53,0,0,0,2.48,2.48c.58.58,1,1.38,1.49,3.54a1.46,1.46,0,0,1-.29,1.55,2.62,2.62,0,0,1-1.55.5c-1.32.12-3-.07-4.11-.07-2.66,0-4.76-.5-7.49-.5a2.83,2.83,0,0,0-1.77.5,2.64,2.64,0,0,0-.92,1.34,13.84,13.84,0,0,0-.36,4.1v7.5a2.88,2.88,0,0,1-.56,1.84,3.62,3.62,0,0,1-1.49,1.06,10.7,10.7,0,0,1-3.89.64c-.75,0-1.3.94-1.7,2s-.71,2.34-.85,2.9a1.29,1.29,0,0,1-.85,1,5,5,0,0,1-1.62.21,8.57,8.57,0,0,0-3.47.35c-.53.27-.48,1.56-.56,3a8,8,0,0,1-.36,2.06,2.3,2.3,0,0,1-1.13,1.41c-.67.34-.28.7.21,1.2a2.34,2.34,0,0,1,.85,2.34c0,.13-1.07.33-2.12.78a3.72,3.72,0,0,0-2.41,2.19c-.16.67.71,1.77,1.7,2.9a10.79,10.79,0,0,1,2.27,3.11,4.2,4.2,0,0,1-.85,3c-.62,1-1.35,1.91-1.63,2.48a18.83,18.83,0,0,1-1.2,2.54c-.35.37-1,.47-2.76.92-.54.14-1.06,1.17-1.56,2.27a12.45,12.45,0,0,1-1.48,2.76,9.72,9.72,0,0,1-2.48,1.91,5.41,5.41,0,0,1-2.48.56c-.84,0-1.63-.8-2.26-1.77a10.65,10.65,0,0,1-1.27-2.76,10.18,10.18,0,0,1-.57-3.18c.1-.83.62-1.41,2-1.77a1.35,1.35,0,0,0,1.06-1.2,5.35,5.35,0,0,0-.21-2.12,17.19,17.19,0,0,0-1.34-3.18c-.55-1.1-1.72-1.46-3.05-1.56s-2.75.07-3.89.07c-.38,0-.45,1.34-.35,2.83s.35,3.13.35,3.68-.33.72-.77.85a6.07,6.07,0,0,1-1.7.07c-1.32-.07-2.81-.16-3.54.56a3.77,3.77,0,0,0-1.13,2.55c-.11.38-.52.13-2.9-1.06a8.2,8.2,0,0,1-4-4c-.79-1.58-3.5-3-4.53-4-.85-.86,1.6,3.08,2.55,4,.63.63.33,1.89-.07,3.18a17.07,17.07,0,0,0-1,3.25c0,1.09,3.67,4.16,4.53,5a6.65,6.65,0,0,1,1.84,2.4c.16.68-.29,1.17-1.84,1.56a7.87,7.87,0,0,0-3.11,1.2,4.93,4.93,0,0,0-1.42,2.83,3.71,3.71,0,0,0-.07,2,1.43,1.43,0,0,0,1,.85,15,15,0,0,0,3.61.07c1,0,1.37-.9,1.7-2a7.47,7.47,0,0,1,1.27-3,5,5,0,0,1,3.47-1.63,2.85,2.85,0,0,1,2.55,1.63,4.87,4.87,0,0,1,.63,3.18,10.32,10.32,0,0,1-1.13,2.76,2,2,0,0,1-1.55,1.2,5.56,5.56,0,0,1-1.77-.14,2.38,2.38,0,0,0-1.56.07c-.39.24-.64.81-.64,1.91a3.74,3.74,0,0,0,1.49,3,9.67,9.67,0,0,1,2.55,3,2.66,2.66,0,0,1,.28,1.91,3.17,3.17,0,0,1-.92,1.49,23.55,23.55,0,0,1-2.9,2.05,4.9,4.9,0,0,1-2.9,1.06c-.72.11-1.26.41-2,2-.2.4,5.94,4.88,6.51,5.45a2.86,2.86,0,0,1,.91,1.63A2,2,0,0,1,829,345a14.59,14.59,0,0,1-2.12,2.05c-.21.21,3.35,4.76,3.54,5.52.68,2.75,1.9,3.15,2.47,5.44.16.65,1.32,0,2,0l.07.07c1.69-2.09,4.5.35,6.23-3.11.64-1.28,2.1-7,4-7.92,2.68-1.34,6.81-2.67,9.48,0,1.88,1.88,6,3.15,7.15,5.52,1.54,3.09,2.26,5.34,6.36,6.36,6.35,1.59,1.24,3.65,4.74,7.15,2.11,2.1,2.85,4.74,7.15,4.74,4.5,0,7.45-.12,10.33-1.56,4-2,5.24,1.64,8.7.78,5-1.26,1.08-7.2,4-7.92,4.37-1.1,11.5,3.24,13.51-.78,2.95-.74,4.1-1.14,5.52-4,1-2,2-7,5.59-7.92,5.22-1.31,3.47-5.84,10.33-2.41,4.53,2.27,4.17-2.3,7.14-1.56,3.67.92,6.49,0,10.26,0,3.55,0,8.88,1.82,9.55-.84.82-3.29,2.07-5.52,6.37-5.52,7.21,0,2.29-3.14,5.51-6.37,1.93-1.92,2.91-5.79,6.37-2.33,2.64,2.64,3.36,3.71,0,7.07-4.28,4.28-.61,2.75.78,2.41,3.12-.79,7.92.62,7.92-4,0-3.72,3.4-8.49.78-11.11-.67-.67-6.68-7.16-6.3-8.7.94-3.75,5.63-3.6,4.74-7.14-1.14-4.59-.62-5.59-6.36-5.59-4.35,0-8.33-2.43-7.15-7.15s3.27-2.42,6.37-5.51c3.8-3.8,4-2.38,4-7.15,0-2-.19-10.32-2.41-10.32-5.38,0-6.79.54-7.92-4-1-4.16-3.61-4.24-8.7-5.51-2.76-.69-6.21,5.46-7.92,3.18-2.36-3.14-4.72-7.9-7.15-10.33-4-4-2.38-4.39,2.41-5.58,3.33-.84,5-6.3.78-6.3-3.27,0-7.24,4.65-9.55,2.33-2.78-2.77-8.88-4.88-7.93-8.7,1.38-2.76,2.35-3.82,3.19-7.14,1.52-6.09,5.62-1.69,7.14-4.74,1.28-2.56,5.43-4.37,4.74-7.14-.89-3.57-9.08-8.66-5.52-9.55,6.72-1.68.75-7.1,4-8.7A15.39,15.39,0,0,1,955,200.51Z"></path>
  <path id_mun="011" data-bs-toggle="tooltip" data-bs-title="Calkiní" class="cls-2" d="M298.31,488.32l.14,1.42-1.2,11.88-2.41,1.2c-1.59.8-2.56,1.58-3.61,2.13a8.18,8.18,0,0,1-4.1.84c-.47,0-.59.31-.49.71a6,6,0,0,0,.77,1.56,17.83,17.83,0,0,1,2,3.75,7.19,7.19,0,0,1,.29,2.9,1.85,1.85,0,0,1-.92,1.41c-1,.54-2.73.43-4.74.43-2.44,0-3.46.22-3.89,1s-.21,2.1-.21,4.38a3.86,3.86,0,0,1-1.84,3.33,11.07,11.07,0,0,1-3.54,1.41,3.12,3.12,0,0,0-2.55,2.05A22.66,22.66,0,0,1,271,532c-.42.84-1.83,1.57-3.39,2.19a37.07,37.07,0,0,1-4.32,1.34,2.2,2.2,0,0,0-1.49,1.06,3.45,3.45,0,0,0-.28,1.77c.08,1.34.57,2.91.57,4.32,0,2.3-.92,3.19-1.06,4s.5,1.4,3.46,3.18a5.16,5.16,0,0,1,2.2,2,1.4,1.4,0,0,1-.29,1.56,8.28,8.28,0,0,1-3.75,1.77c-.64.16-.57.33-.07.49s1.46.32,2.48.57a17.44,17.44,0,0,1,3,1,2.7,2.7,0,0,1,1.7,1.55c.48,1.94-.57,3.95-.57,5.95l.57,38.12,14.29,3.54L299,604.68c.24,1,.36,2,.56,3,.38,1.91.18,3.24-.49,4.17a5.18,5.18,0,0,1-3,1.77,4.32,4.32,0,0,0-1.84.85,2.19,2.19,0,0,0-.63,1.34,40.3,40.3,0,0,0,.07,4.39,45.58,45.58,0,0,1,.14,4.6,2.75,2.75,0,0,1-.71,1.55,3.19,3.19,0,0,1-1.77,1,3.13,3.13,0,0,0-1.76.92,1.05,1.05,0,0,0,0,1.21,4.21,4.21,0,0,0,3.53,1.48c2.23,0,3.49.16,4.32-.21s1.2-1.29,1.63-3.4a2.8,2.8,0,0,0-.29-2.12,6.88,6.88,0,0,0-1.13-1.2,1.49,1.49,0,0,1-.57-1.2,4.3,4.3,0,0,1,1.42-2,3,3,0,0,1,2.12-1,2.93,2.93,0,0,1,1.91.7,5.34,5.34,0,0,1,1.91,3.89,2.7,2.7,0,0,0,.57,1.77,4.52,4.52,0,0,0,1.48,1.13c1.13.57,2.48.85,3.33,1.28s.56,1.24.07,2.19a11.39,11.39,0,0,1-1.91,2.55,2.24,2.24,0,0,0-.57,1.69,8.31,8.31,0,0,0,.36,2c.37,1.42.79,3,.21,4.11-.26.51-.75.49-1.35.21a8.32,8.32,0,0,1-1.91-1.49,37.31,37.31,0,0,1-2.68-2.9c-.86-.85-1.42-1-1.77-.78s-.47.89-.5,1.7a21.05,21.05,0,0,0,.5,4.46,7.91,7.91,0,0,1-.07,4c-.32,1.25-.83,2.46-1.13,3.68-.14.52.15.86.63,1.13a9.12,9.12,0,0,0,1.84.64,10.72,10.72,0,0,1,2,.63,1.4,1.4,0,0,1,.92,1.21,1.5,1.5,0,0,0,.78,1.34,4.17,4.17,0,0,0,1.84.49c1.47.13,3.26-.07,4.53-.07.8,0,1.22-.24,1.41-.63a2.24,2.24,0,0,0,0-1.56c-.33-1.22-1.14-2.66-1.41-3.75-.15-.6.18-.94.85-1.13A8.25,8.25,0,0,1,315,648a37,37,0,0,1,4.88.71c.25,0,0,8.19,0,9,0,2.15-.21,3.11-.77,3.75s-1.5.89-2.83,1.55a1.34,1.34,0,0,0-.78,1.56,6.87,6.87,0,0,0,1,2.33c1,1.68,2.45,3.56,2.76,5.1a1.56,1.56,0,0,1-.43,1.41,8.39,8.39,0,0,1-1.48,1.2c-1.1.78-2.27,1.56-2.27,2.69a2.77,2.77,0,0,0,.64,2,3.38,3.38,0,0,0,1.2.71c.35.15.61.27.57.57s-.4.75-1.2,1.55a3.79,3.79,0,0,1-1.91,1.13,11.16,11.16,0,0,1-1.28.14c-.33.07-.55.27-.7.85a13.22,13.22,0,0,0-.29,3.26,39.11,39.11,0,0,0,.64,8.27c.75,3,1.59,4.16,2.33,7.15L343.65,697c.09.33,10,0,11.32,0a5.86,5.86,0,0,0,3.89-1.28,8.86,8.86,0,0,0,2.13-2.9c.26-.53,2.71.24,5.23,1.2a59,59,0,0,1,5.45,2.41.57.57,0,0,1,.14,1,6.11,6.11,0,0,1-1.63,1.13,34.46,34.46,0,0,1-3.25,1.42c-.88.44-1.18,1-1.06,1.48a3.17,3.17,0,0,0,1.27,1.49,19.94,19.94,0,0,0,3.33,1.84,3.3,3.3,0,0,0,3.67-.36c.95-.73,1.8-1.77,2.9-2,5-1.25,4-1,4.74-1.77A1.27,1.27,0,0,0,382,699a7,7,0,0,0-1.56-1.7c-1.36-1.19-3.05-2.43-3.4-3.82-.53-2.13-.53-3.27-.77-4.1s-.73-1.38-2.2-2.48a1.61,1.61,0,0,1-.77-1.2,2.25,2.25,0,0,1,.42-1.28A7,7,0,0,1,375,683l-.92.35-5.94-16.12,10.12-5.38-.64-9.48-5.31-7.78,12.46-38.12,10.18-4.18-7.14-3,3.53-11.88c-1.31-.66-3.95-3.11-5.94-3.61a20.87,20.87,0,0,1-4.67-1.84,5.08,5.08,0,0,1-1.62-1.27c-.28-.4-.19-.79.35-1.06A6.34,6.34,0,0,0,382,577.8a4.79,4.79,0,0,0,.42-4.1A9,9,0,0,1,382,571a1,1,0,0,1,.63-.92,7.45,7.45,0,0,0,3.33-1.77c.84-.84,1.13-1.25,1.06-1.55s-.48-.44-1-.64a4.09,4.09,0,0,1-1.56-1.06,3.87,3.87,0,0,1-.85-2.69,20.35,20.35,0,0,0-.42-4.88c-.21-.76-.55-1.33-1.06-1.49s-1.19.13-2.12,1.07c-.6.59-2.27,1.07-3.75,1.69a8.37,8.37,0,0,0-1.91,1.06,1.72,1.72,0,0,0-.85,1.35c0,1-.95,8.55-1.21,8.34-.73-.59-3-3-5-4.73a8.53,8.53,0,0,0-2.76-1.77c-.36-.1-.64-.12-.85.07a1.56,1.56,0,0,0-.35,1.13,2.84,2.84,0,0,1-.78,2.33,2.24,2.24,0,0,1-1.91.43,4.6,4.6,0,0,1-2.05-1,3.48,3.48,0,0,1-1.2-1.77,6.82,6.82,0,0,1-.78-2.19,2.1,2.1,0,0,1,.42-1.56,3.47,3.47,0,0,1,2.13-1.06c1-.2,2.05-.37,3-.57V545.76L370.47,535l-14.29-30.35-23.77,4.11,18.46-31.55,21.22-12.1-37-20.51c-.95,1.91-4.69,4.08-3.18,5.59,2.21,2.21,4,3.36,4,7.92,0,2.79,2.09,9.21,1.56,9.48-3.58,1.79-7.86,1.78-11.89.78-1.19-.3-11.1-1.08-11.1,0,0,3.08,6.92,5.81,4.74,8-.59.59-2.79,3.37-5.52,4.74-2.88,1.44-6.07,2.64-8.7,4C302.91,486.09,301.32,488.18,298.31,488.32Z"></path>
  <path id_mun="012" data-bs-toggle="tooltip" data-bs-title="Calkiní" class="cls-2" d="M353.2,697c0,.46-.23,4,0,4.17s5.85,3.13,5.38,3.61-1.34,3.2-3,5.37a2.78,2.78,0,0,1-1.84.85,19.33,19.33,0,0,1-2.55.14,8,8,0,0,0-2.12.21.87.87,0,0,0-.64,1.14,7.42,7.42,0,0,1,0,4.1c-.31,1.12-.82,2.17-1.2,3.68a8.89,8.89,0,0,0,.07,2.61c.07.9.05,1.71-.63,2.13-1.42.85-3.16,1.53-4.18,2.33a2,2,0,0,0-.85,1.34,2.23,2.23,0,0,0,.85,1.7,15.57,15.57,0,0,1,2.76,4,4.47,4.47,0,0,1,.5,2,1.15,1.15,0,0,1-.92,1.14,2.41,2.41,0,0,1-1.77-.08,4,4,0,0,1-1.06-.92,3,3,0,0,0-1.28-.84,4.28,4.28,0,0,0-2.4.07,2.7,2.7,0,0,0-1.7,1.2,5.78,5.78,0,0,0-.78,2c-.27,1.37-.17,2.68-.49,2.76a43.2,43.2,0,0,1-8.35.56,54.76,54.76,0,0,1-6.51-1.06,8.28,8.28,0,0,0-2.62-.14c-.58.14-.78.49-.42,1.2a17.94,17.94,0,0,0,3,4.81c.31.31,1.5,1.41,2.62,2.62s2.12,2.53,2.12,3.33v8.91c0,1.79-.18,2.85-.21,3.82a6.17,6.17,0,0,0,.85,3.32c.89,1.78,1.6,4.57,3,5.94a5.62,5.62,0,0,0,1.7,1.35,1.08,1.08,0,0,0,1.06-.14,7.6,7.6,0,0,1,3.18-1.77c1.43-.36,2.38-1.37,3.33-1.91a2.32,2.32,0,0,1,1.48-.36,3.21,3.21,0,0,1,1.77,1.07c.66.65,1.54,2,2.55,3.11a6.19,6.19,0,0,0,1.55,1.34,2.49,2.49,0,0,0,1.84.28,2.7,2.7,0,0,0,1.56-1.06,7.84,7.84,0,0,0,.78-1.48,1.77,1.77,0,0,1,.7-.92c.27-.13.61,0,1.14.49,1.47,1.48,2,2,2.26,2.76s.14,1.81.14,4.39a7.77,7.77,0,0,0,.64,3.89c.43.77,1,1.35,1.7,2.69a20,20,0,0,1,.92,3.25,7.32,7.32,0,0,0,1.48,3.32,8.79,8.79,0,0,0,3,1.77,5.35,5.35,0,0,0,2.2.29,3.19,3.19,0,0,0,2-.92c.54-.55,6.42-2.66,6.57-3,.4-.79,1-1.27,1.07-1.9s-.27-1.4-1.7-2.83c-.87-.87-1.71-1.6-1.77-2.13s.69-.84,3-.84a41.69,41.69,0,0,0,4.95-.22,10.08,10.08,0,0,0,2.41-.56c.62-.25,1-.55,1-1,0-3.09-.57-6-.57-8.35a1.31,1.31,0,0,1,.78-1.2,9,9,0,0,1,1.84-.64,9.78,9.78,0,0,0,1.84-.56A1.4,1.4,0,0,0,386,772a6.59,6.59,0,0,1,.56-3,2.6,2.6,0,0,1,1.21-1.2c.49-.26,1-.46,1.55-.78a3.67,3.67,0,0,0,1.49-1.55c.2-.41.59-1.94,1.06-3.26s1-2.43,1.27-2.12c1.87,1.86,2.62,2.49,3.33,2.4s1.42-.92,3.25-1.83a3.81,3.81,0,0,0,1.77-1.56,3.62,3.62,0,0,0,.43-1.77,9.75,9.75,0,0,1,.77-5c.31-.62.58-2.45,1.14-4a5,5,0,0,1,1.13-2,1.89,1.89,0,0,1,1.91-.5,11,11,0,0,1,3.18,1.27,15.19,15.19,0,0,1,2.76,2.27c1.43,1.43,2.16,2.56,2.55,2.69s.42-.72.42-3.26a8,8,0,0,1,1.2-4,3.6,3.6,0,0,1,3-2c.72,0,9.73.08,9.56-.64a6.35,6.35,0,0,0-2.27-3.39c-.89-.76-1.73-1.28-1.91-2-.63-2.52-.56-3,0-3.11a6.08,6.08,0,0,0,3-.43,13,13,0,0,1,3.26-1.41,5.3,5.3,0,0,1,3.32.78c2.09,1,2.72,1.15,3,.49s.08-2.06.57-4c.64-2.58,3.61-5.83,3.61-6.58a5.72,5.72,0,0,1,1.34-4.17c.71-.77,1.47-1.14,1.63-1.77a23.26,23.26,0,0,0,.63-4,7,7,0,0,0-.14-2.27,2.08,2.08,0,0,0-1.06-1.41c-1.68-.84-2.53-1.66-2.9-3a20,20,0,0,1-.14-6l-.14-1.49a17.06,17.06,0,0,1-2.83-2.05c-1.49-1.49-3.82-2.12-5.31-3.61-.72-.72-2.21-1.13-2.9-1.55-.34-.21-.5-.42-.28-.64a5.07,5.07,0,0,1,2-.78,2.19,2.19,0,0,0,1.34-1,5.24,5.24,0,0,0,.71-1.84,20.65,20.65,0,0,0,.29-4.31,2,2,0,0,1,.77-1.56,11.91,11.91,0,0,1,1.63-1.13,5.49,5.49,0,0,0,1.63-1.34,4,4,0,0,0,.78-2.48v-3.61l-.08-.28-.56-.28-14.29.56-3,4.18L411,678l-16.69-1.77L375,683a7,7,0,0,0-1.27,1.41,2.25,2.25,0,0,0-.42,1.28,1.61,1.61,0,0,0,.77,1.2c1.47,1.1,1.95,1.65,2.2,2.48s.24,2,.77,4.1c.35,1.39,2,2.63,3.4,3.82A7,7,0,0,1,382,699a1.27,1.27,0,0,1-.22,1.62c-.77.78.29.52-4.74,1.77-1.1.28-2,1.32-2.9,2a3.3,3.3,0,0,1-3.67.36,19.94,19.94,0,0,1-3.33-1.84,3.17,3.17,0,0,1-1.27-1.49c-.12-.5.18-1,1.06-1.48a34.46,34.46,0,0,0,3.25-1.42,6.11,6.11,0,0,0,1.63-1.13.57.57,0,0,0-.14-1,59,59,0,0,0-5.45-2.41c-2.52-1-5-1.73-5.23-1.2a8.86,8.86,0,0,1-2.13,2.9A5.86,5.86,0,0,1,355,697C354.77,697,353.76,697,353.2,697Z"></path>
  <path id_mun="013" data-bs-toggle="tooltip" data-bs-title="Calkiní" class="cls-2" d="M475.31,403.44l13.15,2.34,7.72.56,14.29-19.66c.89.89.87,2.71,1.76,3.61a24.07,24.07,0,0,0,2.2,2.33,2.73,2.73,0,0,0,1.48.71,2,2,0,0,0,1.7-.64,13.41,13.41,0,0,1,2.41-2.26,3.77,3.77,0,0,1,2-.71,1.68,1.68,0,0,1,1.55,1.13,9.21,9.21,0,0,0,1.91,2.76c.62.58,1.27,1.05,2.27,2.05,1.21,1.22,4.1,2.47,5.37,4.18a30.31,30.31,0,0,0,2.48,2.83c1,1,2.19,1.91,2.9,1.91a7.06,7.06,0,0,1,2.76.42,2.68,2.68,0,0,1,1.2,1.06,6.16,6.16,0,0,0,2.62,2.69,7.94,7.94,0,0,0,3,.78,3.56,3.56,0,0,0,1.84-.36,2.43,2.43,0,0,0,1.13-1.62c.4-1.6.74-2.63,1.2-2.9s1,.21,1.77,1.69a31.74,31.74,0,0,1,1.56,3.05,5.36,5.36,0,0,1,.21,4.1l-1.2,3,12,13.16,8.92-10.76L590.26,457l6.58-3,29.79,4.74,5.94-13.09,6.58,3.54,11.32-12.45-5.38-1.84-.57-13.65,1.21-22.64,8.91-12.52-7.14-1.76v-20.3l-7.15-2.34,4.17-8.34-10.75-17.9v-7.71L651,318.21l-.56-13.08-4.74-5.95-.78-.63.28.92c-.77.19-5.85,2.07-7.14.78-2.78-2.78-2.71-4-8.78-4-4.44,0-6.92-.15-9.48,2.41-1.61,1.61-3.11,5.13-5.58,6.36s-4.07,3.21-7.15,4.74c-.73.37-6.67,4.5-6.3,6.37.7,3.46,5.76,9.4,2.34,10.26-2.33.58-8.32,1.74-11.89.85-.78-.2-10.26-3.31-11.1-1.63-.93,1.86-1.52,6.7-4,7.92-3.77,1.88-2.83,4.81-8.71,4.81h-2.4c-7.07,0-4.27-3-7.92-4.81a33.39,33.39,0,0,0-10.33-2.33c-3.59,0-8.06.44-9.48-2.41a15.05,15.05,0,0,0-7.15-7.14c-2.22-1.12-6.33-4-9.55-4-4.45,0-10.1,1.66-11.1-2.34-.91-3.61-6.08-4.13-5.52-6.36,1.24-5-1.44-4-7.15-4-8.86,0-6.16-6.36-4.74-6.36l-21.43-.78-7.15,22.21c.94.7,3,2.34,4.74,2.34s10.71.09,10.33,1.62c-.64,2.58-1.42,5.35-.78,7.92,1.15,4.59,1.88,3.65-1.62,7.15-1.2,1.2-4.21,5.74-2.34,9.48,1.35,2.69,2.72,6.83,0,9.55-3,2.95-4.16,3.5-6.36,7.92-1.81,3.6-.64,6.51-1.56,11.1-.63,3.16-4,7.11-2.41,10.33.95,1.89,5.59,4.2,5.59,6.29C469.15,397.51,474.89,400.3,475.31,403.44Z"></path>
  <path id_mun="014" data-bs-toggle="tooltip" data-bs-title="Calkiní" class="cls-2" d="M214.48,661l1.77.85L246,663a15.55,15.55,0,0,0,1.41,1.42c.5.46.84.87.36,1a13.82,13.82,0,0,0-3.4,1.41,3,3,0,0,0-1.27,1.21,1.4,1.4,0,0,0,.49,1.55A23.43,23.43,0,0,0,247,671.8a4.86,4.86,0,0,1,1.34,1.21,1.22,1.22,0,0,1,.07,1.34,6.79,6.79,0,0,1-2.05,2c-.79.61-1.48,1.21-1.48,2.12a14.36,14.36,0,0,0,.35,4.6,2.21,2.21,0,0,0,1.2,1.35,4.32,4.32,0,0,0,2.62,0c1.09-.28,2-2,2.83-3.33a7.78,7.78,0,0,1,1.06-1.55c.32-.31.6-.37.85.14a28,28,0,0,1,.92,3.18,8.72,8.72,0,0,0,1.48,3.39,5.55,5.55,0,0,0,3.33,1.63,37.7,37.7,0,0,0,5,.14h3l4.18,14.29L285.93,697l-.64-10.69,6-.63,15.43,27.44,8.34-3-.56-7.78.28-.35c-.67-2.25-1.4-3.63-2.05-6.23a39.11,39.11,0,0,1-.64-8.27,13.22,13.22,0,0,1,.29-3.26c.15-.58.37-.78.7-.85a11.16,11.16,0,0,0,1.28-.14,3.79,3.79,0,0,0,1.91-1.13c.8-.8,1.16-1.26,1.2-1.55s-.22-.42-.57-.57a3.38,3.38,0,0,1-1.2-.71,2.77,2.77,0,0,1-.64-2c0-1.13,1.17-1.91,2.27-2.69a8.39,8.39,0,0,0,1.48-1.2,1.56,1.56,0,0,0,.43-1.41c-.31-1.54-1.74-3.42-2.76-5.1a6.87,6.87,0,0,1-1-2.33,1.34,1.34,0,0,1,.78-1.56c1.33-.66,2.27-.92,2.83-1.55s.77-1.6.77-3.75c0-.79.25-8.93,0-9A37,37,0,0,0,315,648a8.25,8.25,0,0,0-2.61.21c-.67.19-1,.53-.85,1.13.27,1.09,1.08,2.53,1.41,3.75a2.24,2.24,0,0,1,0,1.56c-.19.39-.61.63-1.41.63-1.27,0-3.06.2-4.53.07a4.17,4.17,0,0,1-1.84-.49,1.5,1.5,0,0,1-.78-1.34,1.4,1.4,0,0,0-.92-1.21,10.72,10.72,0,0,0-2-.63,9.12,9.12,0,0,1-1.84-.64c-.48-.27-.77-.61-.63-1.13.3-1.22.81-2.43,1.13-3.68a7.91,7.91,0,0,0,.07-4,21.05,21.05,0,0,1-.5-4.46c0-.81.15-1.45.5-1.7s.91-.07,1.77.78a37.31,37.31,0,0,0,2.68,2.9,8.32,8.32,0,0,0,1.91,1.49c.6.28,1.09.3,1.35-.21.58-1.16.16-2.69-.21-4.11a8.31,8.31,0,0,1-.36-2,2.24,2.24,0,0,1,.57-1.69,11.39,11.39,0,0,0,1.91-2.55c.49-1,.69-1.81-.07-2.19s-2.2-.71-3.33-1.28a4.52,4.52,0,0,1-1.48-1.13,2.7,2.7,0,0,1-.57-1.77,5.34,5.34,0,0,0-1.91-3.89,2.93,2.93,0,0,0-1.91-.7,3,3,0,0,0-2.12,1,4.3,4.3,0,0,0-1.42,2,1.49,1.49,0,0,0,.57,1.2,6.88,6.88,0,0,1,1.13,1.2,2.8,2.8,0,0,1,.29,2.12c-.43,2.11-.8,3-1.63,3.4s-2.09.21-4.32.21a4.21,4.21,0,0,1-3.53-1.48,1.05,1.05,0,0,1,0-1.21,3.13,3.13,0,0,1,1.76-.92,3.19,3.19,0,0,0,1.77-1,2.75,2.75,0,0,0,.71-1.55,45.58,45.58,0,0,0-.14-4.6,40.3,40.3,0,0,1-.07-4.39,2.19,2.19,0,0,1,.63-1.34,4.32,4.32,0,0,1,1.84-.85,5.18,5.18,0,0,0,3-1.77c.67-.93.87-2.26.49-4.17-.2-1-.32-2-.56-3l-14.93,1.77-14.29-3.54-.57-38.12c0-2,1-4,.57-5.95a2.7,2.7,0,0,0-1.7-1.55,17.44,17.44,0,0,0-3-1c-1-.25-2-.4-2.48-.57s-.57-.33.07-.49a8.28,8.28,0,0,0,3.75-1.77,1.4,1.4,0,0,0,.29-1.56,5.16,5.16,0,0,0-2.2-2c-3-1.78-3.61-2.42-3.46-3.18s1.06-1.66,1.06-4c0-1.41-.49-3-.57-4.32a3.45,3.45,0,0,1,.28-1.77,2.2,2.2,0,0,1,1.49-1.06,37.07,37.07,0,0,0,4.32-1.34c1.56-.62,3-1.35,3.39-2.19a22.66,22.66,0,0,0,1.06-3.33,3.12,3.12,0,0,1,2.55-2.05,11.07,11.07,0,0,0,3.54-1.41,3.86,3.86,0,0,0,1.84-3.33c0-2.28-.22-3.61.21-4.38s1.45-1,3.89-1c2,0,3.74.11,4.74-.43a1.85,1.85,0,0,0,.92-1.41,7.19,7.19,0,0,0-.29-2.9,17.83,17.83,0,0,0-2-3.75,6,6,0,0,1-.77-1.56c-.1-.4,0-.71.49-.71a8.18,8.18,0,0,0,4.1-.84c1-.55,2-1.33,3.61-2.13l2.41-1.2,1.2-11.88-.14-1.42a6.41,6.41,0,0,1-2.12-.07,50.47,50.47,0,0,0-11.11-.85H272.42c-4.62,0-8,.06-11.11,1.63a8.53,8.53,0,0,1-8.7,0c-2.82-1.41-8.11-.52-11.89-2.4-1.67-.84-6.32-3.34-4-7.93,2.16-4.31,0-3.24-3.11-6.36-1.87-1.87-4.81-4.45-4.81.85,0,3.91,3.06,7.92-2.34,7.92-4.61,0-5.68,1.64-8.77,4.74-2.7,2.7-4.27,3.1-6.3,7.14-1.43,2.86-3.61,5.54-4.81,7.92-2.13,4.28-.54,3.59,1.63,7.93,2.33,4.66-.38,2-4,5.58-2.15,2.16-4.56,2.91-8.77,4-3.31.82-6.76.58-10.26,2.33-2.25,1.12-5.09,3.25-7.92,4-4.34,1.08-3.34,3.68-7.15,5.59-3.43,1.71-5.79,3-2.4,6.36,2.5,2.5,2.79,6,4.74,5.52,3.87-1,6.36-1.25,6.36,4,0,3.85-2.74,8.21-2.4,9.55.94,3.75,1.58,7,2.4,10.26.93,3.72,2,5.72,3.19,10.32,1,3.9-1.08,3.76-4.74,5.59a16.52,16.52,0,0,1-3.19,1.56c-1.58,0-3.27-.39-4.81,0s-9.28,1.6-9.48,2.4c-.35,1.42-3.54,8.42-1.62,10.33,1.53,1.53,4.82,4,6.36,7.07.87,1.73.76,8.69,2.41,10.33,2.26,2.26,7.27,1.1,8.7,4,1.55,3.11-1.16,8.24,1.63,10.33,2.28,1.71,4.47,4.41,7.07,6.36,5.68,4.26,4.48-.84,8-.84,3,0,4.19.29,7.08,3.18a60.88,60.88,0,0,0,7.14,6.36c2.33,1.75,7.15,4,7.15,7.15C213.7,652,212.74,659.79,214.48,661Z"></path>
  <path id_mun="015" data-bs-toggle="tooltip" data-bs-title="Calkiní" class="cls-2" d="M668.51,439.52l-7.36,6.72,11.32,23.83-7.71,13.73c3.41,0,4.92-.64,8.34-.64,1.35,0,2.82,1.08,4.18,1.91a6.5,6.5,0,0,0,1.91.92,1.66,1.66,0,0,0,1.63-.42,6,6,0,0,0,1.06-2.48c.25-.9.54-1.7,1.34-1.7,2.55,0,3.57.56,4.32,1.2a5.59,5.59,0,0,0,2.83,1.77,41.7,41.7,0,0,0,8.34.64,10.53,10.53,0,0,1,2.69.21c.48.15.56.38.5.71-.14.66-1,1.73-1.42,3.25a9,9,0,0,0-.28,4.1,15.05,15.05,0,0,0,1.48,3.61,6.36,6.36,0,0,0,2.13,2.83c.88.51,2,.47,3.82-.42a2.24,2.24,0,0,1,1.84.07,13.11,13.11,0,0,1,1.91,1.06,8.28,8.28,0,0,0,1.91.92,1.34,1.34,0,0,0,1.48-.28c2.2-2.2,3.91-3.34,5.94-5.38.85-.85,1-2.33,1.28-3.68a7.26,7.26,0,0,1,.49-1.84,1.88,1.88,0,0,1,1.28-1,34.74,34.74,0,0,1,5.66-.35,7,7,0,0,0,2.47-.43,2.32,2.32,0,0,0,1.35-1.62,42.63,42.63,0,0,0,.63-8.35,5.27,5.27,0,0,0-.92-3.25c-.26-.48-.14-.67,1.49-1.49,2.57-1.28,6.58-4.51,7.78-4.81a14.27,14.27,0,0,1,4.1-.42,10.22,10.22,0,0,1,4.18,1.06,26.87,26.87,0,0,0,3.46,1.63,8.39,8.39,0,0,0,4.88.14c.8-.2,1.62-.37,2.41-.57l5.94-29.21-2.33-5.94,6.51-16.7L791.6,423,800,408.11l5.37-1.13,7.15,11.32,1.48.78a2.74,2.74,0,0,1,1.77-1.42c6.38-1.59.9-6.39,4-7.92.23-.11,8.38-5.33,3.19-7.92-1.28-.64-8.9-1.43-6.37-4,1.08-1.09,7.64-2.76,4.81-5.59-4.19-4.2-4.88,2.34-9.55,0-4.08-2-6.37-.29-6.37-6.37,0-1.88-1.18-10.7,0-11.88a4.14,4.14,0,0,1,1.28-.71l-.78-.28c-1.22-1.28-5.45-4.95-7.5-7a1.12,1.12,0,0,0-1.34-.22,5.29,5.29,0,0,0-1.42,1.14c-1,1-2.13,2.33-3.25,2.61a2.45,2.45,0,0,0-1.84,2.27,21.12,21.12,0,0,0-.14,3.67c0,.69-1.19.13-2.41-.77a10.09,10.09,0,0,1-1.7-1.7c-.42.85-4.17,4.33-4.17,4.74,0,3.75.43,3.49,1.2,6.58a3.13,3.13,0,0,1,0,2,1.72,1.72,0,0,1-.85.85,3.88,3.88,0,0,0-1.06.77,2.27,2.27,0,0,0-.49,1.63,5.78,5.78,0,0,1-.43,2.62,1.36,1.36,0,0,1-1.13.78c-1,.13-2.5-.26-4.39.21-.88.22-1.39,1.36-1.84,2.4a5.66,5.66,0,0,1-.7,1.35,1,1,0,0,1-1.06.42c-.56-.14-2.45-.91-4.25-1.48s-3.46-.94-3.46-.29a3.77,3.77,0,0,1-.78,2.76,2.24,2.24,0,0,1-1.77.5c-.64-.05-1.24-.25-1.77-.29s-.94.08-1.06.57c-.25,1-.47,1.11-.35,1.41s.58.82,1.55,2.76c.64,1.29.81,2,.71,2.34s-.48.34-1,.28a7.88,7.88,0,0,0-1.77-.07,1.87,1.87,0,0,0-1.56,1.06c-.58,1.17-.23,2.89-.07,4.46a6.52,6.52,0,0,1,0,2.12,1.46,1.46,0,0,1-1.13,1.13c-1.31.33-1.93.33-2.19.07s-.17-.77,0-1.34a6,6,0,0,0,.35-1.84A1.8,1.8,0,0,0,751.7,410a26.08,26.08,0,0,0-3.11-1.63,8.52,8.52,0,0,0-2.27-.63,2.11,2.11,0,0,0-1.77.42,5.56,5.56,0,0,0-1.2,2.41,1.92,1.92,0,0,0,.21,1.41,2.55,2.55,0,0,0,1.63,1c2.43.61,2.58.61,2.12.92a4.13,4.13,0,0,0-1,.78,2.82,2.82,0,0,0-.56,1.84c0,2.68-.22,3.34-.78,3.68a7.2,7.2,0,0,0-2.76,1.69c-.74.75-.84,2.2-.92,3.61s-.17,2.79-.92,3.54c-1.49,1.49-3.25,2.68-4.74,4.17s-2.12,3.89-3.61,5.38a7.55,7.55,0,0,1-2.76,2,36.6,36.6,0,0,1-3.75,1,15.63,15.63,0,0,0-3.67,1.48,6.93,6.93,0,0,1-3.47.92,10.41,10.41,0,0,1-4.39-1.2,9.51,9.51,0,0,0-3.39-1.2,14.38,14.38,0,0,1-4.81-.92,12.77,12.77,0,0,0-4.11-.85,7.09,7.09,0,0,0-3.89,1.2,5.32,5.32,0,0,1-2.68,1.13h-8.92c-.76,0-2.85.2-4.81.22s-3.78-.14-4.1-.78c-.4-.8-.81-1.61-1.2-2.41l-7.15.64Z"></path>
  <path id_mun="016" data-bs-toggle="tooltip" data-bs-title="Calkiní" class="cls-2" d="M380.09,798.42l.56-.15a13.4,13.4,0,0,1,3,.78c.75.42,1.14,1.16,1.14,2.76a17.27,17.27,0,0,0,.42,4.46,7.08,7.08,0,0,0,2,3.32,11.11,11.11,0,0,0,2.76,2.19,7.94,7.94,0,0,0,3.82.78,14,14,0,0,1,4.1,1.21,6.86,6.86,0,0,1,1.7,1c.37.31.51.59.14.77a14.51,14.51,0,0,0-3,2.62,3.47,3.47,0,0,0-.92,2c0,.59.42,1.08,1.49,1.35a10.08,10.08,0,0,0,4.24.14,6.7,6.7,0,0,0,4.1-2.55c1.43-1.89,2.35-2.53,3.33-2.62s2,.4,3.82.85c2.37.6,6.29.64,9.55.64.59,0,2.76-.2,4.81-.21s3.94.13,4.1.77a31.92,31.92,0,0,1,.22,3.89c.07,1.58.29,3.13,1,3.82.5.51,4.46,5.32,4.17,5.38a41.34,41.34,0,0,0-4.53.92c-.52.19-.84.45-.92.78s.15.71.71,1.27a20,20,0,0,1,2.05,2.55,5,5,0,0,1,.78,1.69.94.94,0,0,1-.49,1.14,16.36,16.36,0,0,0-3.68,2.26,4.61,4.61,0,0,0-1.63,3.68,20.07,20.07,0,0,1-.64,4.24c-.14,1,0,1.73,1.21,2.9.82.83,1.65,2,2.68,3a14.19,14.19,0,0,0,3.89,3,30.34,30.34,0,0,0,4,.92c1.64.37,3.18.78,3.18,1.42,0,2.08-.67,7.11,0,7.78a5.35,5.35,0,0,0,2.05,1.41,2.91,2.91,0,0,0,1.63,0,7.39,7.39,0,0,1,4-.21,24.64,24.64,0,0,1,3.61.92,3,3,0,0,1,1.27.92,2.77,2.77,0,0,1,.5,1.7c0,1.5-.44,3-.57,4.45a6.13,6.13,0,0,0,.14,2.06,3.72,3.72,0,0,0,1,1.83,28.53,28.53,0,0,0,3,2.62,5.55,5.55,0,0,0,1.91,1c.56.13,1,0,1.14-.63a8.31,8.31,0,0,1,1.2-3.19,4.88,4.88,0,0,1,2.9-1.55,15.15,15.15,0,0,0,3.32-1,5.5,5.5,0,0,0,2.06-2.62,4.78,4.78,0,0,1,2.12-2.26,11.07,11.07,0,0,0,2.69-1.91c.49-.5,4-5.43,4.17-5.38a8.49,8.49,0,0,0,3.32.14,6.7,6.7,0,0,0,3.54-1.77c0-3.88,0-6.31-2.4-8.7-1.16-1.15-4.65-6-.78-7.92,4.66-2.33,2.78.54,7.14,1.63,4.07,1,3.89,3.1,6.3,5.51s3.18,3.5,3.18,8.71c0,3.74-.66,8,1.63,10.32,1.11,1.11,3.93,5.59,6.3,5.59,5.92,0,6.62,1.22,7.92-4,1-4.17-2.47-9-2.33-9.55,1.27-5.08-1.7-5.07-2.41-7.92-1.69-6.77,2-3.16,4-7.15.81-1.62,1.34-8.63,3.18-9.55,2.65-1.32,7.87-3.24,11.11,0,3.87,3.87,2.64,4.51,7.92,3.19,3.78-1,5.55-.23,9.56.78,2.11.53,8.7,2.83,8.7-1.56,0-5.92,2.12-6.65,4-10.33,2.51-5,0-3.32-4-6.29-5.73-4.29-3.32-3.83,0-7.15,3-3,1.55-5,1.55-11.1,0-4.19,3.19-9.79,3.19-11.11,0-4.45-1.56-7.32-1.56-11.88v-12c0-3.82,1.17-10-3.18-11.11-1.34-.33-9.63-3.81-6.37-7.07,2.18-2.18,8.53-1.79,7.92-4.81-.65-3.25-1.61-9.54-4.74-11.11a10.84,10.84,0,0,1-2.05-2.05l-.35.14c-2.21-.62-6.53-3.27-10.12-4.17a3,3,0,0,0-1.84.07,3.9,3.9,0,0,0-1.27.92,6.07,6.07,0,0,1-2.83,2,8,8,0,0,1-4.25-.28,23.58,23.58,0,0,1-3.53-1.49,10,10,0,0,0-4.32-.78c-1.58,0-3.18.22-4.6.22H509.9a14,14,0,0,0-7.14,1.77c-2.42,1.2-3.94,2.5-6,3.53-1.43.72-2.67,1.69-4.1,2.41-.52.26-.68.1-.57-.29a7.36,7.36,0,0,1,.92-1.69,30.47,30.47,0,0,1,3.19-4,4.75,4.75,0,0,0,1.2-1.84,2.52,2.52,0,0,0,0-1.56,6.68,6.68,0,0,0-1.77-2.55c-1.87-1.87-2.63-4.63-3.61-6.57a14.62,14.62,0,0,0-1.77-3,5.25,5.25,0,0,0-3-1.69,17.39,17.39,0,0,1-6.58-3c-.35-.27.39-1.85,1.28-3.54s2-3.53,2.33-4.24a6.5,6.5,0,0,0,.78-2.55,2,2,0,0,0-.43-1.49,3.83,3.83,0,0,0-2.75-.7,2,2,0,0,0-1.49.49c-.3.29-.5.65-.71.85-.4.4-1,.23-3.18-2a3,3,0,0,1-.92-2.12,13.84,13.84,0,0,1,.21-2.12,2,2,0,0,0-.35-1.63,3.33,3.33,0,0,0-2.48-.64,4.79,4.79,0,0,1-3.18-1.27c-.84-.72-1.51-1.66-2.19-2.34s-.49-2.48-.22-4.31.68-3.61.78-4a2.85,2.85,0,0,0-.07-1.91,5.22,5.22,0,0,0-.85-1.27,2.94,2.94,0,0,1-.71-1.28,3.31,3.31,0,0,1,.43-2.05,15.38,15.38,0,0,1,1.91-2.55c.37-.61.31-1.42-.71-3.46a1.24,1.24,0,0,0-1.41-.78,5,5,0,0,0-2,.92,17.69,17.69,0,0,0-2.55,2.26c-.9.9-.77,6.29-1.2,7.15-.55,1.1-.09,2.26.49,3.46a9.23,9.23,0,0,1,1.35,3.68c0,.53-3.93.42-4.81.64-.66.16-.83.66-.78,1.27a17.56,17.56,0,0,0,.42,1.91c.12.61.15,1.14-.28,1.27s-1.3-.12-2.9-.92c-.29-.14-2.82-6.19-3-6.5-.5-1-1.1-1.27-1.63-1.06a3.55,3.55,0,0,0-1.49,1.62,20.83,20.83,0,0,0-1.69,4.18,8.93,8.93,0,0,1-1.35,2.47,7.42,7.42,0,0,0-1,4.1c0,.54-.34.72-.78.71a4.25,4.25,0,0,1-1.69-.56c-.26-.14-.45-.34-.71-.5l.14,1.49a20,20,0,0,0,.14,6c.37,1.31,1.22,2.13,2.9,3a2.08,2.08,0,0,1,1.06,1.41,7,7,0,0,1,.14,2.27,23.26,23.26,0,0,1-.63,4c-.16.63-.92,1-1.63,1.77a5.72,5.72,0,0,0-1.34,4.17c0,.75-3,4-3.61,6.58-.49,2-.32,3.37-.57,4s-.88.55-3-.49a5.3,5.3,0,0,0-3.32-.78,13,13,0,0,0-3.26,1.41,6.08,6.08,0,0,1-3,.43c-.56.09-.63.59,0,3.11.18.7,1,1.22,1.91,2a6.35,6.35,0,0,1,2.27,3.39c.17.72-8.84.64-9.56.64a3.6,3.6,0,0,0-3,2,8,8,0,0,0-1.2,4c0,2.54,0,3.38-.42,3.26s-1.12-1.26-2.55-2.69a15.19,15.19,0,0,0-2.76-2.27,11,11,0,0,0-3.18-1.27,1.89,1.89,0,0,0-1.91.5,5,5,0,0,0-1.13,2c-.56,1.58-.83,3.41-1.14,4a9.75,9.75,0,0,0-.77,5,3.62,3.62,0,0,1-.43,1.77,3.81,3.81,0,0,1-1.77,1.56c-1.83.91-2.54,1.75-3.25,1.83s-1.46-.54-3.33-2.4c-.31-.31-.8.81-1.27,2.12s-.86,2.85-1.06,3.26a3.67,3.67,0,0,1-1.49,1.55c-.52.32-1.06.52-1.55.78a2.6,2.6,0,0,0-1.21,1.2,6.59,6.59,0,0,0-.56,3,1.4,1.4,0,0,1-.85,1.21,9.78,9.78,0,0,1-1.84.56,9,9,0,0,0-1.84.64,1.31,1.31,0,0,0-.78,1.2c0,2.36.57,5.26.57,8.35,0,.44-.37.74-1,1a10.08,10.08,0,0,1-2.41.56,41.69,41.69,0,0,1-4.95.22c-2.28,0-3,.32-3,.84s.9,1.26,1.77,2.13c1.43,1.43,1.81,2.19,1.7,2.83a3.24,3.24,0,0,1-.57,1l.71.35a20.43,20.43,0,0,1,5.3,3.54A6,6,0,0,1,380.09,798.42Z"></path>
  <path id_mun="017" data-bs-toggle="tooltip" data-bs-title="Calkiní" class="cls-2" d="M438.94,672.3l.08.28v3.61a4,4,0,0,1-.78,2.48,5.49,5.49,0,0,1-1.63,1.34,11.91,11.91,0,0,0-1.63,1.13,2,2,0,0,0-.77,1.56,20.65,20.65,0,0,1-.29,4.31,5.24,5.24,0,0,1-.71,1.84,2.19,2.19,0,0,1-1.34,1,5.07,5.07,0,0,0-2,.78c-.22.22-.06.43.28.64.69.42,2.18.83,2.9,1.55,1.49,1.49,3.82,2.12,5.31,3.61a16.42,16.42,0,0,0,3.54,2.55,4.25,4.25,0,0,0,1.69.56c.44,0,.78-.17.78-.71a7.42,7.42,0,0,1,1-4.1,8.93,8.93,0,0,0,1.35-2.47,20.83,20.83,0,0,1,1.69-4.18,3.55,3.55,0,0,1,1.49-1.62c.53-.21,1.13.06,1.63,1.06.15.31,2.68,6.36,3,6.5,1.6.8,2.47,1.06,2.9.92s.4-.66.28-1.27a17.56,17.56,0,0,1-.42-1.91c0-.61.12-1.11.78-1.27.88-.22,4.81-.11,4.81-.64a9.23,9.23,0,0,0-1.35-3.68c-.58-1.2-1-2.36-.49-3.46.43-.86.3-6.25,1.2-7.15a17.69,17.69,0,0,1,2.55-2.26,5,5,0,0,1,2-.92,1.24,1.24,0,0,1,1.41.78c1,2,1.08,2.85.71,3.46a15.38,15.38,0,0,0-1.91,2.55,3.31,3.31,0,0,0-.43,2.05,2.94,2.94,0,0,0,.71,1.28,5.22,5.22,0,0,1,.85,1.27,2.85,2.85,0,0,1,.07,1.91c-.1.42-.51,2.2-.78,4s-.37,3.73.22,4.31,1.35,1.62,2.19,2.34a4.79,4.79,0,0,0,3.18,1.27,3.33,3.33,0,0,1,2.48.64,2,2,0,0,1,.35,1.63,13.84,13.84,0,0,0-.21,2.12,3,3,0,0,0,.92,2.12c2.21,2.21,2.78,2.38,3.18,2,.21-.2.41-.56.71-.85a2,2,0,0,1,1.49-.49,3.83,3.83,0,0,1,2.75.7,2,2,0,0,1,.43,1.49,6.5,6.5,0,0,1-.78,2.55c-.36.71-1.44,2.55-2.33,4.24s-1.63,3.27-1.28,3.54a17.39,17.39,0,0,0,6.58,3,5.25,5.25,0,0,1,3,1.69,14.62,14.62,0,0,1,1.77,3c1,1.94,1.74,4.7,3.61,6.57a6.68,6.68,0,0,1,1.77,2.55,2.52,2.52,0,0,1,0,1.56,4.75,4.75,0,0,1-1.2,1.84,30.47,30.47,0,0,0-3.19,4,7.36,7.36,0,0,0-.92,1.69c-.11.39.05.55.57.29,1.43-.72,2.67-1.69,4.1-2.41,2.08-1,3.6-2.33,6-3.53a14,14,0,0,1,7.14-1.77h8.91c1.42,0,3-.21,4.6-.22a10,10,0,0,1,4.32.78,23.58,23.58,0,0,0,3.53,1.49,8,8,0,0,0,4.25.28,6.07,6.07,0,0,0,2.83-2,3.9,3.9,0,0,1,1.27-.92,3,3,0,0,1,1.84-.07c3.59.9,7.91,3.55,10.12,4.17l.35-.14c-1.44-1.62-2.47-3.61.5-5.09,3.53-1.77,5.83-2.78,4.74-7.14-.62-2.48-5.34-6.3-.78-6.3,6.26,0,5.74,0,4.74-4-1.59-6.35,4.4,0,5.59-4.81.7-2.81.77-7.87.77-11.88,0-2.13-.12-6.56,1.42-8.49l-1.84-1c-2.63-2.37-3.89-3.37-4.74-3.19s-1.3,1.54-2.4,3.75a1.66,1.66,0,0,1-1.28,1.06,2.86,2.86,0,0,1-1.63-.49,30.64,30.64,0,0,1-3-2.33,33.6,33.6,0,0,1-3.25-2.62,7,7,0,0,1-2.12-3.33,8,8,0,0,1-.14-4.38,3.26,3.26,0,0,1,2.54-2.19,15.85,15.85,0,0,1,4.39-.36,4.13,4.13,0,0,0,3.32-1.41c.54-.54.32-2-.07-3.47s-.95-3-1.13-3.68a3.65,3.65,0,0,0-2-2.54,15.49,15.49,0,0,0-3.33-1.06,1.72,1.72,0,0,0-1.48.35,6.34,6.34,0,0,0-1.2,1.34c-.79,1.05-1.59,2.2-2.69,2.48a1.54,1.54,0,0,1-1.35-.28,6,6,0,0,1-1.13-1.28,7.85,7.85,0,0,0-2.33-2.61c-1.6-.8-2.34-.64-2.9-.07s-.93,1.55-1.84,2.47a1.43,1.43,0,0,1-1.77.28,5,5,0,0,1-1.7-1.55,14.63,14.63,0,0,1-1.91-3.54c-.69-2.76-2.06-4.68-3-6.51-1.28-2.55-2.13-3.22-3-6.57-.19-.75-1.3-1.86-2.48-2.9s-2.44-2-2.9-2.48a9.81,9.81,0,0,0-2.69-2.26c-.73-.29-1.41-.11-2.61.49a3.27,3.27,0,0,0-1.42,1.27,2.14,2.14,0,0,0-.21,1.42,5.53,5.53,0,0,0,1.63,2.69c.42.42.24.69-.22.85a6,6,0,0,1-2.12.14c-1.78-.15-4-.71-4.88-1.56a5.37,5.37,0,0,1-1.41-3.32,9.52,9.52,0,0,1,.28-3.26s0,0,0-.07l-12.52-1.7-4.81,3-19.6-3,5.94-9.54-42.3,5.37L442.55,647v27.37Z"></path>
  <path id_mun="018" data-bs-toggle="tooltip" data-bs-title="Calkiní" class="cls-2" d="M427.7,467.1s0,.07,0,.07l.56,15.42a4.62,4.62,0,0,0,3,1.77c1.82.46,5.53.71,7.79,1.84a17.84,17.84,0,0,1,5.37,4.1c2.08,2.08,3.26,3.33,5.31,5.38,1.05,1.05,2.6,4,4.17,4.81a18.31,18.31,0,0,0,3.61,1.49,14.46,14.46,0,0,0,3.54.28,11.59,11.59,0,0,1,2.47.07,5.63,5.63,0,0,1,2.9,1.7,19.2,19.2,0,0,0,5.38,4.17,17,17,0,0,1,5.38,3.61c1,1,.94,2.15.92,3.39a5.54,5.54,0,0,0,.84,3.75c1,1.28,1,3.46,1.28,5.38a7.67,7.67,0,0,0,.63,2.47,1.75,1.75,0,0,0,1.63,1.06l8.35,5.94,16.13,3V549.3l-9,16.05c0,.45-.05,2.29,0,4s.25,3.19.64,3.19a4.8,4.8,0,0,0,3-1.49,4.8,4.8,0,0,1,3-1.49h19a1.31,1.31,0,0,0,1.14-.7,8.5,8.5,0,0,0,.7-1.63,8.79,8.79,0,0,1,.64-1.63,1.36,1.36,0,0,1,1.13-.77c.83,0,2.88-.2,4.67-.15a7.57,7.57,0,0,1,2.26.36c.58.2.9.5.78,1-.06.24-.63,2-1.06,3.82s-.67,3.47-.07,3.32a15.4,15.4,0,0,0,3.61-1.55c1.26-.75,2.33-1.65,2.33-2.62a6.1,6.1,0,0,1,.43-2.83,1.21,1.21,0,0,1,1.27-.64c1,.13,2.35,1.17,3.68,1.7l3.89,1.06c-.15-.07-.18-.22-.35-.28-1.25-.42-2.82-.47-2.41-.78.69-.52,2.22-1.41,3.54-2.55a9.25,9.25,0,0,0,1.7-1.91,3.85,3.85,0,0,0,.77-2.12,43.54,43.54,0,0,1,.22-4.38c.19-1.71.48-3.22.92-3.33a40.56,40.56,0,0,1,8.34-.63c1,0,2.81.25,4.46.28s3.17-.13,3.89-.85c1.11-1.11,3.34-3.14,4.18-4.81s1.37-2.11,2.12-2,1.69.71,3.25,1.48l2.41,1.21,5.3-7.78-4.74-13.66-7.14-5.37,7.71-15.49-22-2.41-17.9-17.25,11.32-13.09,9.55,5.38,7.71-3.61,23.84.63L590.9,457l.07-.28-.71.28-14.85-38.13-8.92,10.76-12-13.16,1.2-3a5.36,5.36,0,0,0-.21-4.1,31.74,31.74,0,0,0-1.56-3.05c-.74-1.48-1.31-2-1.77-1.69s-.8,1.3-1.2,2.9a2.43,2.43,0,0,1-1.13,1.62,3.56,3.56,0,0,1-1.84.36,7.94,7.94,0,0,1-3-.78,6.16,6.16,0,0,1-2.62-2.69,2.68,2.68,0,0,0-1.2-1.06,7.06,7.06,0,0,0-2.76-.42c-.71,0-1.85-.88-2.9-1.91a30.31,30.31,0,0,1-2.48-2.83c-1.27-1.71-4.16-3-5.37-4.18-1-1-1.65-1.47-2.27-2.05a9.21,9.21,0,0,1-1.91-2.76,1.68,1.68,0,0,0-1.55-1.13,3.77,3.77,0,0,0-2,.71,13.41,13.41,0,0,0-2.41,2.26,2,2,0,0,1-1.7.64,2.73,2.73,0,0,1-1.48-.71,24.07,24.07,0,0,1-2.2-2.33c-.89-.9-.87-2.72-1.76-3.61l-14.29,19.66-7.72-.56-13.15-2.34c.06.49.4,1,.14,1.49l-7.92,15.91-22.22-9.54a15.82,15.82,0,0,0-3.18,4.73c-2.26,4.52,1.63,2.91,1.63,8s-1.56,6.09-2.41,9.48-1.22,3.21-3.18,7.14c-1,2-2.16,5.25,1.62,7.14,6.21,3.11,1.14,2.83-2.4,6.37-3.88,3.88-.46,1.87,2.4,4.74,2,2,8.33,6.36,5.52,6.36-3.18,0-10.66,1.81-11.88,1.56C429.9,466.11,428.65,466.52,427.7,467.1Z"></path>
</svg>