<svg id="Sinaloa" xmlns="http://www.w3.org/2000/svg" viewBox="0 0 1183.89 1061.52">
  <defs>
    <style>
      .cls-1, .cls-2 {
        fill: none;
      }

      .cls-1, .cls-2, .cls-3 {
        stroke: #000;
      }

      .cls-2, .cls-3 {
        fill-rule: evenodd;
      }

      .cls-3 {
        fill: #c4f5ee;
        stroke-width: 0.24px;
      }
    </style>
  </defs>
  <path id_mun="001" data-bs-toggle="tooltip" data-bs-title="Calkiní" class="cls-3" d="M299.73,177.17c3.6,0-7.2-2.4-10.69-1.53-.08,0-7.8-1.52-9.93-1.52-5.26,0-6.56,1.87-9.16,5.34-1.74,2.32-.77,7.7-.77,10.69,0,2-3.82,4.6-3.82,9.17,0,3.58,9.13,0,3.82,5.34-3.29,3.29-6.32-1.63-4.58,5.35.93,3.72,2.2,5.76,3,9.16.54,2.13-3.22,3.29-5.34,3.82-3.06.76-.88-6.35-2.29-9.16-1.69-3.38-2.69-4.31-6.11-6.88s0-5.38,1.52-6.87c2.9-2.89-2.57-7.92-3.05-8.4-1.51-1.51-2.87-6.5-3.82-8.4-1.73-3.46-4,1.62-4.58,3.82-.83,3.33,0,8,0,11.45,0,3.76-.1,8-.76,10.69-.71,2.83-3.6,5.21-4.59,9.17-.74,3-6.55,1.36-8.4,3.82-.63.84-3,11-3,3.05a35.34,35.34,0,0,1,1.52-9.93c.85-3.38,3-4.89,3.82-8.4a30.73,30.73,0,0,1,3.06-8.4c1.52-3,3.82-1.38,3.82-7.63,0-4.38-7.12.5-7.64.76-2.11,1.06-3.28,6.25-3.82,8.4-.91,3.64-1.2,7.75-2.29,9.93-1.23,2.46-3.37,4.45-4.58,6.87-1.44,2.88-1.11,6.79-2.29,9.16-1.86,3.71-2.15,4.13-6.11,6.11-2.28,1.14-4.18,5.31-5.35,7.64-1.4,2.79-2.44,5.65-3.82,8.4-1.49,3-3.92,5.54-5.34,8.4-1.7,3.4-3.82,5.27-3.82,9.93,0,1,5.1,5.1,6.11,6.1s0,9.64,0,11.46c0,4.89.05,7.58-3.06,10.69s1,4.94,3.06,7.64c1.88,2.51.24,7.09.76,9.16,1.13,4.51,6.65-5.2,6.87-6.11,1.21-4.81.16-6.23,1.53-.76,1.19,4.76,5.6,1.27,6.87,0,2.1-2.1,1.62,7.63,4.59,7.63,5.17,0,5.76,1.37,4.58,6.11-1,3.87.92,6.27,0,9.93-1.13,4.53,4,5.39,6.87,6.11,3.76.94,1.84,7.95,4.59,10.69,1.9,1.9,6.37,2.29,9.16,2.29.46,0-4.39-8.08-4.58-8.4-1.54-2.57-3-4.44-3.82-7.64s-2.29-4.29-2.29-9.16c0-6,3.6-1.19,4.58.76,2.6,5.2,6.11,2.3,6.11,8.4,0,5.21,2.1,8.22,5.35,11.46s4.21,6.48,8.4,2.29c3.91-3.92,6.49,7.65,8.4,0,1.23-4.93,1.64-2.51,6.87-3.82,1-.24,3.29-5.24,7.64-6.11,3.42-.68,5-3.72,8.4-4.58,4.16-1,5.46,4.26,6.11,6.87.78,3.13-6.89.78-9.16,3.06-3.54,3.53-4.59,1.39-4.59,8.4,0,5.19-.63,6-3.05,8.4-2,2-2.55-5.09-3.82-7.64-2.81-5.62-4.58,3.42-4.58,5.35,0,2.57-7.86,1.52-9.93,1.52,0,5.38-2,4.72,3.82,7.64,3.22,1.61,3.46,3.9,4.58,8.4s6.26,1.83,8.4.76-2.5-3.9-3.05-6.11c-.18-.69,9.54-1.52,10.69-1.52,5.86,0,6.87,1.38,6.87,6.87,0,2.74-1.3,3.32,3.82.76,3.52-1.76,3.44-3.72,9.16-2.29,4.09,1,8.81-.58,10.7-1.53,3.9-2-7.29-3.05-8.4-3.05-5,0-7.31,1.34-8.4-3.06-.69-2.73-1.4-4.79-2.3-8.39-.74-3,6.19-1.51,9.17-.77,4.82,1.21,6.4.24,8.4-.76.48-.24-5.92-7.39-6.11-7.64-1-1.29-.51-9.69-.76-10.69-.84-3.36-2.9-4.69-3.82-8.4-.59-2.35,2.4-7.87,3.05-9.16,2.26-4.52,6.11-1.21,6.11-6.87,0-4.8-1.47-7.64,3.82-7.64,5.09,0,2.85,1.3,7.64-2.29,3.12-2.35,3.82-2.12,3.82-7.64,0-5.07-4.06-3.82-8.4-3.82-2.4,0-5.75,3.64-7.64,4.59-3.93,2-2.48,1.33-6.11-2.3-2.42-2.41-3.19-4.68-6.11-6.87-3.64-2.73-5.64.58-6.87,3.06-2.36,4.7-4.65-.07-6.11-1.53-2.42-2.42,0-7.43,0-9.93,0-1.68-6.38-4.26-7.64-4.58-2.54-.63,4.33-3.18,6.87-3.82.69-.17-2.22-7.29-2.29-7.63-.67-3.36,1.91-3.72-2.29-6.88-2.91-2.18,5.59.76,7.94-1.58,3.16-3.16-.46-8.79,1.22-12.16.91-1.82,0-5.29-.87-6.11-2.76-2.77-1.32-1.69-1.32-6.42,0-2.51,1.48-8.54,1.93-10.33,1.06-4.23,2.85-3.16-1.73-7.74-3.44-3.44-4.49,1.39-1.78-4,2.15-4.31-3.46-5.85,2.25-5.85,2.77,0,10.59,1.05,12.77.5,2.48-.62-4.75-7.38-3.61-9.67C301.29,187,300.52,181.14,299.73,177.17Z"></path>
  <path id_mun="002" data-bs-toggle="tooltip" data-bs-title="Calkiní" class="cls-3" d="M473.1,487.2c0,3.08,7.82,1.18,10.9,1.18a40.69,40.69,0,0,0,9.73-1.53c2.5-.63,1.35-11.49,8.23-11.49,1.11,0-8.82-4.46-9.77-5.72-2.35-3.13-1.27-5.22-4.58-6.87-2.69-1.35-2.53-7.06-3.06-9.17-.76-3.05-6.93-.06-9.16-2.29-3.59-3.59-3.24-3.82,2.29-3.82,3.57,0-.1-7.22.76-10.69.51-2-4.3-5.06-5.34-6.11-1.91-1.91-5.73-1.91-7.64-3.81-2-2.06,6.17-2.53,6.87-5.35.15-.59-4.15-6-4.58-6.87-1.93-3.86-1.77-5.59-4.58-8.4-1.8-1.8,4-6.46,4.58-7.64,1.95-3.88,3.05-4-2.29-5.34-3.71-.93-7-1.65-9.16-3.82-2.84-2.84-4.71-5.44-7.64-7.64-2.52-1.89-.88,6.35-2.29,9.17,0,0-10.69.76-10.69.76-1.09.27-7.25,2.48-8.41,3.05-2,1-3.26,6.32-4.58,7.64-3.11,3.11-8-1.36-8.4-3.06-1.1-4.4-4.43-.91-6.11.77s-2.26,6.81-3.05,8.4c-1.7,3.38-6-.26-4.59,5.34.63,2.49,6.5,2.58,8.4,3.06,4.14,1-6.71,3-6.87,3.05-3.47.87.1,7.23-.76,10.69-.38,1.51-.39,3.08-.77,4.58-.7,2.82,3.3-4.82,5.35-6.87,3.43-3.42,3.07-5.34,7.64-3,4,2,3.94,4.83,3.05,8.4-.7,2.79,3.81,4.38,6.11,6.11,4.47,3.35,7.34,5.05,10.69,8.4,2.62,2.61,5.64,7.92,7.64,9.92,3.18,3.19,4-.9,6.88-3.81s.26-4.32,6.87,2.29a68.77,68.77,0,0,0,7.64,6.11c1,.74,0,10.82,0,12.21,0,2.73,5.81,2.77,7.63,4.58,2.17,2.17,1.64,5.51,3.06,7.64"></path>
  <path id_mun="003" data-bs-toggle="tooltip" data-bs-title="Calkiní" class="cls-3" d="M566.27,454.37c3.64,0,4.4,3.49,6.29,7.28,1.19,2.38,8.38,4,11.09,5.36,3.64,1.82,4-1.57,8.59-.43,6.39,1.6,8.63,3.11,8.63-.72,0-6.42-3.83-9.53.53-8.44,5.61,1.4,12.52,4.5,11.7,1.19-.43-1.71-7.61-9.36-9-10.74-3.24-3.24-4.7-2.92-6.49-6.5-2.83-5.66-1.21-.16,2.65-.16,2.17,0,1.28,3.49,3.22,2.52,2.55-1.27,4.28-2.6,5.55-.06,1.16,2.31,7.17,2.3,10.69,2.3,5.47,0,6.59.37,5.35-4.59-.73-2.9,3.67-3.18,2.9-6.28-.71-2.85-9.24-8.68-10.54-11.28s-3-5.17-1.11-4.57c8,2.5,7.07,8.09,8,8.64,2.81,1.62,4.22,0,7.63,1.7,5.89,2.94,4.85-6.16,2.28-9.59a47.57,47.57,0,0,1-4.59-7.63c-1.45-2.9-4.43-7.57,1.53-4.59,4.51,2.26,7.06,4.19,3.82-2.29-1.75-3.5-1.17-5.06-5.35-6.11-4.77-1.19.5-8.13.77-8.39,2.84-2.85,3.1-3.06,8.4-3.06,3.91,0,3-4.55,3-8.4,0-5.94.31-5.65-4.58-6.87-3.43-.86-2.29-5.19-2.29-9.17,0-2.57,7.86-1.52,9.93-1.52,4.48,0,7.45.09,10.69-1.53a31.74,31.74,0,0,0,7.64-5.34c2.34-2.35,4.59-3.06,7.63-4.59,3.33-1.66,3.8-3.93,3.06-6.87-1-3.81-3.44-4.39,1.53-6.87s-2.68-5.83-3.82-6.11c-1.57-.39-6.24,3.28-8.4,3.82-.9.22-4.6-6.13-5.35-6.88-2.41-2.41,0-4.52-.76-7.63-.61-2.43-5.14-3.72-6.88-4.58-2.73-1.37-6-5.83-8.4-7.64-3-2.25-4.37-4.48-7.63-6.11-2.86-1.43-5.51-4.74-7.64-6.87-2.61-2.61.09-4.15-5.35-6.87-5.71-2.86-5-5-1.53-8.4,2.95-2.95-.46-8.11-1.52-9.17-3-3-3.8-2.24-4.59-3.81-1.57-3.15,0-4.64-3-7.64-2.31-2.31-2.29-5.28-2.29-9.16,0-2.64-8.15-.77-9.93-.77-6.6,0-2.6-.48-3.82-5.34-.7-2.79-4.58-3.82-6.11-5.35-2.81-2.81-6.24-1.08-8.4,0-3.42,1.71-2.22,3.82-7.64,3.82h-3c.06.32,1.08,4.09.76,5.35-.67,2.67-5.81,4.4-4.58,6.87.54,1.08.74,1.5,3.82,4.58,2.35,2.35,2.29,4.15,2.29,9.16,0,5.29-2.84,3.82-7.64,3.82-7.24,0-4,1-7.64,4.58-2.35,2.36-3.05,3.39-3.05,8.4,0,2.76,1.2,9.05,0,11.46-1.09,2.18-3.91,4.92-4.58,7.63-.61,2.43-3.19,6.35-3.06,6.88a22.14,22.14,0,0,1,0,9.92c-1,4.21,2.29,6,2.29,8.4,0,7.68.68,1.44,4.59,5.35,2.64,2.64,2,2.67.76,7.63a39.43,39.43,0,0,0-1.53,9.93c0,3.69.63,7.7-2.29,9.16-1.75.88-6.23,3.33-5.34,6.88s3.74,4.65,0,8.4c-2.3,2.29-3.37,4.89-5.35,6.87-.21.21-6.3,6.48-6.11,6.87.51,1,5.56,6,5.35,6.87-.86,3.41-1.23,3.06-7.64,3.06-2.09,0-8.31,1.34-9.17,3.05-.39.8-2.15,7.5-3.05,8.4s-7.31,5.35-.77,5.35c4.28,0,6.71-.17,9.17,2.29,2.26,2.26,3,3.71,4.58,6.87,1.44,2.87,3.2,5.42,6.11,6.87.62.31,7.87,3.59,9.93,1.53.48-.48,5.07-6.38,6.11-5.34.88.87,6.6,4.25,6.87,5.34.69,2.77,4.54,5.94,5.35,9.16C566.38,447.14,562.7,454.37,566.27,454.37Z"></path>
  <path id_mun="004" data-bs-toggle="tooltip" data-bs-title="Calkiní" class="cls-3" d="M835.11,894.21c2.57,2.58,8.75,5.28,12.39,5.28,3.25,0,5.39-4,8.67-3.18,4.84,1.21,4.14-4.48,4.14-9.74,0-3.13,4.58,1.55,4.58,5.35,0,3.59,10.55,16.79,10.55,9,0-5.53,2-4.32,4.58-6.87,3-3,9.65-13.28,5.52-17.41-2.18-2.18-3.75-2.93-5-5.49-1.75-3.5-4.36-.57-4.36-5.39,0-4.06-.15-4.35,4-6.87,4-2.42,2.08,2.49,6.06-1.5,3-3-5.15-5.39,1.63-5.39,4.94,0,12.2,8.7,7.95,3.82-1.6-1.84.66-4.84,7.59-3.1,6.07,1.51-.17-9.15,2-13.46,1.41-2.82,6.49-2.29,9.93-2.29,5.81,0,3.42-.07,2.29-4.58s.57-6.49-.76-9.17c-1.74-3.47-2.3-5-2.3-9.92s-1.84-6-3.81-9.93c-2.61-5.2.38-5.15-4.59-7.64-2.63-1.32-5.3-6.06-7.63-8.4-3.62-3.61-4.43-4-8.41,0-2.08,2.09-3.81-3.67-3.81,5.35,0,4.08-6.11,3.41-6.11-1.53,0-4.78.8-6.8-.77-9.93-1.79-3.58-2.83-4.47-3.82-8.4s.65-8.17,1.53-9.92c1.59-3.19,2.86-4.54,3.82-8.4.68-2.72-5.47-3.28-7.64-3.82-3.39-.85-8.33.17-10.69.76-2.72.68-2.29,6.23-2.29,9.17s-5.35.69-5.35,6.1c0,4.34-.38,7.64-1.52,9.93-1.34,2.67-6.3.95-8.41,3.06-3.1,3.11-2.81,4.37-3.81,8.4-1.4,5.56-.2,4.48-4.59,2.29-3.81-1.91-4.76-3.39-9.16-2.29-2.76.69-.84,5.63-1.53,8.4-1.25,5-.66,4.91-4.58,6.87-.84.42-2.11,7.45-3.06,8.4-3.1,3.1,2.79,8.13,3.82,9.16s0,9.64,0,11.46c0,5.6-2.15,4.35-6.11,5.34-.61.15,3.16,4.78,3.82,6.11.92,1.83,5.75,1.62,6.88,6.11.57,2.29,2.63,4,1.52,8.4-1,3.92-.74,6.08-3.05,8.4-3.21,3.2-5.35-.14-5.35,6.11,0,1.3,10.29.76,11.46.76,2.35,0,4,3.85,6.87,4.58,3.44.86.62,6.69,0,9.17C837.2,891.18,835.11,887.3,835.11,894.21Z"></path>
  <path id_mun="005" data-bs-toggle="tooltip" data-bs-title="Calkiní" class="cls-3" d="M681.6,521.56c0,3.7,7.33-4.27,7.63-4.58s7.38,7.38,7.64,7.64C699.2,527,701,528,703,530c2.52,2.52,3.51,4.17,6.11,7.64,1.95,2.6,4.59,3.82,6.87,6.11s2.62,4.9,4.59,6.87c3.11,3.12,5.34,2.83,5.34,8.4,0,3,2.1,6.48,3.06,8.4,1.63,3.27,2,7.12,3,11.45.79,3.17,3.69,5.58,4.59,9.17,1.09,4.38,3.28,4.58,8.4,4.58,3.18,0,6.18,4.11,6.87,6.87.9,3.62-1.89,6.11-5.35,6.11-6.06,0-1.53,6.1,0,7.64,2.32,2.31,2.59,5.64,4.59,7.63,1.6,1.61,2.72,7.74,3.81,9.93,2.15,4.29,1.05,5.35,6.88,5.35,5,0,7.36,1.25,9.93,3.81,4.11,4.11,2.91,5-.77,6.88-3,1.49-5.65,1.52-9.93,1.52H749.57c-5.37,0-4.2,2.11-7.64,3.82-3.88,1.94-6.86-1.9-11.45-3s-3.7-3.88-8.41-1.53c-3.63,1.82-2.79,4.68-6.87-.76-1.53-2-3.89-5.63-4.58-8.4-.46-1.86-5.59-3.94-6.88-4.58-2.7-1.35-4.21,0-9.16,0-5.27,0-5.71,2.22-6.11,3.81-.67,2.67-4.12-4.58-6.87-4.58-2.36,0-5.41-3.88-6.88-5.34-2.29-2.29-3.05-4.59-3.82-7.64-.82-3.3-4.51-5.07-5.34-8.4-.41-1.64-5.84-4.06-6.88-4.58-3.9-2-4-2.3-3-6.11,1.2-4.79-.43-6.44,2.29-9.16,1.85-1.85,8.05-.77,10.69-.77,4.65,0,2.31-7.56,2.29-7.63-.44-1.8-5.25-5.92-6.11-7.64-1.19-2.4-3.78-4.54-5.34-6.11-2.41-2.41-1.41-6.59-.77-9.16.82-3.25,6.94,0,9.93-1.53.32-.16-4.42-6.71-4.58-6.87-1.78-1.78-6.55-2-8.4-3.82-2.1-2.1-2.12-5.17-4.58-7.64-3.38-3.38.74-.76,4.58-.76s7.85.14,11.46-.76c2.2-.55,4.58,3.82,7.63,4.58,4.12,1,2.29-3.64,2.29-7.64,0-4.44-.76-6.51-.76-10.69C676.25,523.19,679.89,522.93,681.6,521.56Z"></path>
  <path id_mun="006" data-bs-toggle="tooltip" data-bs-title="Calkiní" class="cls-3" d="M635,422.29c.76,1.79,1.53,3.57,2.29,5.35.92,2.13,10.3,2,11.46,2.29,2.76.69-6.37,1.27-7.64,3.82-1.36,2.72,2.32,6.93,3,8.4,1.44,2.87.77,7.27.77,10.69,0,3.84.76,7,.76,11.45,0,5.76,1.12,5,5.35,6.11,3.6.9,3.15,5.45,5.34,7.64,2.77,2.76,1.75,6.33,3.82,8.4,2.43,2.43,1.53,7.26,1.53,10.69,0,5.08,5.34,1.53,8.4.76,1.25-.31,6,5.67,7.64,6.87s4,2.07,5.34,3.82c3,4-5.76,4.31-6.87,4.58-3.09.78,3.81,5.31,4.58,8.4.14.55-3.65,4.26-4.58,6.11-1.29,2.58,3.85,14.38,3.85,18,0,5.58-8.25,1.13-10.92-.2-4.1-2.05-2.25-5-5.33-1.93-.89.9-10.11-2.12-11.28-2.12-2,0,9.91,6.8,10,6.86,2.33,2.33,5.09,4.35,7.06,6.32,3.3,3.3,12.39,32.25-1.75,10.72-2.7-4.11-9.18-8.69-9.18-1.76,0,5.27,6.19,5.37,8.64,7.82,3.26,3.26,6,8.73,7.46,11.67,2.19,4.38.13.63-1.77,8.22-1.06,4.27-3.77,5-7.62,5-3.45,0-9.76.94-9.76,3.2,0,5.78,9,6.09,13.6,8.39,1.25.62,7.19,10.37,8,12,1.46,2.93-5.22,4.39-2.53,7.07,3.49,3.49,1.26,5.35,7.64,5.35,3.79,0,5.48,2.81,6.11,5.34,2.52,0-5.35,2.83-5.35,5.35,0,3.14-4.41,3-3,8.4a89.36,89.36,0,0,1,1.93,14c0,.42-10.69.15-11.1.55-1.27,1.27-6.19,1-7.81.21-5.23-2.62-2.84,1.13-3.42,3.42-.79,3.18,8,1.28,9.76,3,3.61,3.61-1.75,13.8-8.45,13.8-3.67,0-4.87-2.34-6.11.15-2.29,4.58-5.46,3.09-6.31,1.39-2.19-4.38-5.15-3.53-5.15-1.39v3.06c0,1.11-5.11-2.94-9.93-5.35-3.12-1.56-4.83-4.76-7.64-6.87-3.33-2.5-4.67-4.67-6.87-6.87-2.75-2.75-4.14-4-6.87-5.35-3.09-1.54-4.29-4.81-6.88-6.11-3.14-1.57-4.76-4-6.87-6.1a33.52,33.52,0,0,0-7.64-6.11A75.71,75.71,0,0,1,580,639.92a63.06,63.06,0,0,0-9.16-5.34c-4.24-2.12-4.94-4-9.17-6.11-5.55-2.77-4.46-3.47-3.05-3.82,3-.75-4.86-3.95-7.64-5.34-2.48-1.24-5.58-3.81-7.64-5.35a21.72,21.72,0,0,0-8.4-3.82c-2.17-.54-4.77-3.91-7.64-5.34-3-1.52-6.09-5.33-7.63-6.87-2.26-2.26-5.41-3.47-7.64-4.59-3.13-1.56-4.58-3.5-4.58-7.63,0-2.85,7.63,1,7.63,3.82,0,.88,7.24,3.61,7.64,3.81,2.38,1.19,5.34,3,8.4,4.59,1.5.74,4.58,5,6.88,6.1a26.56,26.56,0,0,1,6.87,5.35c2.82,2.83,2.4,3.82,7.64,3.82s5.15,1.34,7.63,3.82a32.07,32.07,0,0,0,7.64,5.34c1.84.92.25-.49,2.29-4.58,1.44-2.88.77-7.27.77-10.69,0-4.89-1-6.45-3.06-9.16a43.54,43.54,0,0,1-4.58-6.88c-2-4-2.89-1.67-1.92-5.51,1-4-17.64-14.72-1.34-13.59,2.4.16-2.45-2.23-1.37-4.38,1.54-3.09-.44-2.24,7.68-6.3,4.69-2.34,5.63-4.22,4.59-8.4-.66-2.62,4.69-3.48,5.34-6.11,1-3.93-4-6.47-5-8.39-1.15-2.31-3.45-2-5.52-2.47-1.78-.44-3.78-5.63-7.25-6.5-3-.74-2.41-7.23-5.15-8.6-3.08-1.54-8.12.45-6.11-6.11.68-2.23-5.44-.06-7.45-2.06-2.25-2.25-6.72-3.84-10-7.07-4.43-4.43-4-9.91-3.46-10.92,1.51-3,13.18,3.43,14.75-2.86.7-2.81,3-4.58,3.82-7.63.72-2.88,6.31-1.93,7.64-4.59,1.14-2.28-1.39-5.15-.77-7.63a17.35,17.35,0,0,1,4.58-7.64c2.34-2.34,3.48-4,6.11-5.34,3.27-1.64,3.87-3.08,6.88-4.58,2.18-1.09,6.3,6.06,8.4,7.63,2.67,2,6.68,2.29,10.69,2.29,2.33,0,8,2.46,9.17,3.06,3,1.52-.78-6.89-2.29-9.93-1.71-3.42,7.63,0,11.45,0,5.87,0-1.22-5.8-2.29-6.87-1.78-1.78-6-3-7.64-3.82-2.75-1.38-4-3.49-5.34-6.11-1.14-2.27,8.17-1.53,9.92-1.53,4.16,0,6.88-2.88,6.88,3.06,0,2.6,8.7,1.52,10.69,1.52,5.66,0,6.11.41,6.11-5.34,0-3.08-2.19-6-3.82-7.64s-3.14-6.48-4.58-8.4c-2.12-2.82-4.07-4.32-5.35-6.87-1.36-2.72,5.43,2.37,6.11,3.06,2.52,2.51,3.17,3.87,6.11,5.34C626.89,425.49,631.71,424.77,635,422.29Z"></path>
  <path id_mun="007" data-bs-toggle="tooltip" data-bs-title="Calkiní" class="cls-3" d="M476.15,174.12c.25-5.23,2.87-4.92,7.64-6.11,2.46-.62-2.51-2.94-1.53-6.87.29-1.14,6.24-4.71,6.88-5.35.12-.12-5.13-5.89-5.35-6.11a27.49,27.49,0,0,1-4.58-6.87c-1.56-3.12-3.43-4.19-6.11-6.87-3.2-3.2-.37-3.91-6.11-5.35-3.63-.91,3.63-6.11,6.87-6.11,2.4,0,1.67-5,3.82-6.11,5.08-2.54.5-4.84-1.53-6.87-.71-.71,3.46-7.7,3.82-9.16.45-1.78-4.83-2.83-3.82-6.87,1-3.79-3.13-7-4.58-8.4-2.66-2.66-4.63-3.15-6.11-6.11-1.68-3.37-6-2.29-9.93-2.29-3.13,0-1.53-4.37-1.53-8.4,0-3-6.2,1.93-7.63,2.29-3.36.84-6.54-2.38-9.93-3.06-2.26-.45,1.32-4.63.76-6.87-.94-3.79,2.82-6.37,5.35-7.64,4.23-2.11,4.58-1.53,3.05-7.63-1-3.81-2.82-5.41-6.11-4.58-4.78,1.19-3.26-1-6.87.76s-5.65,1.76-9.16,0c-1.11-.56-4.15,2.84-6.11,3.82-2.3,1.14-6.26-2.29-9.93-2.29-5.1,0-6.36-1.78-9.17-4.59s-5.51-.72-8.4,0c-3.23.81-2.49,4.69-5.34,6.11-2.55,1.28,5.62,1.81,7.63,3.82,3,3,2.17,6-1.52,6.87-3.2.8-3.18,5.47-5.35,7.64a31,31,0,0,0-6.11,8.4c-1.49,3-.68,7.29-1.53,10.69-1.09,4.37-7.18-.31-2.29,4.58,3.2,3.21-.48,7.36-1.53,8.4-2.16,2.16-6.43-1.36-9.16,0-2.95,1.48-2.29,7.11-2.29,10.69,0,5.43-3.06,3-3.06,8.4,0,3.13-6.54,1.1-1.53,6.11,3.08,3.07,8-1.84,2.3,3.82-3.38,3.38-4.66,12.57-2.69,14s7.08,9.22,7.58,11.19c.76,3,11.35-8.7,9.62-12.26-2.11-4.31,7,6.07,5.44,0-.89-3.58,1.88-2.74,1.88-6.46,0-1.08,2.65-3.27,3.37-.4,1.13,4.51,4.8,5.64,8.45,4.73,2-.5.25-7.29,2.24-7.79,3.51-.87-.62-5.5,6.11-3.81,2.2.55-1.47,3.92-1.06,5.55.72,2.89-3,.13-5.15,2.24-1.85,1.85-.54,10.28-1.43,12.06-.27.55-13.32,4.82-4.32,7.07,5.43,1.36,11.84-2.38,11.2,1.33-1.4,8.1-1.22,9.92,3.26,12.16,3.21,1.61,5.74-5.89,8.19-8.34s5.78,4,6.11,5.34c1.1,4.38,1.64,4.7,4.59,7.64,1.54,1.55-3.82,3.16-3.82,5.34,0,4.13-6.53,6.08-5.13,8.86.53,1.07,14.84,4.84,15.82-1.22,1.25-7.8,6.95,14,2.51,17.6-6.15,4.92,3.6-9,3.6-5.38,0,3.37,3.71,4.58,7.64,4.58,3.45,0,2.75,7.87,5.39,2.59.73-1.46,8.22.05,9.88.47,2.86.71.81,4.09,7.38,1.57,4.3-1.66,6.47,1.36,8.81.2,4.58-2.29,4.2-10.14,2.13-12.22-3.22-3.22-3.17-7.42,1.89-7.42C486.18,185.27,479.33,179.42,476.15,174.12Z"></path>
  <path id_mun="008" data-bs-toggle="tooltip" data-bs-title="Calkiní" class="cls-3" d="M694.58,748.36c0-4,13,3.09,17.37,3.09,4.08,0,2.23-6.91,6.31-6.91,2.41,0,5.68-1.61-.77-9.16-3.54-4.15,5.51,1.84,8.8,1,1.47-.37,2.55-9.86,4.26-11.14,2.2-1.65,1.22-6.46,1.88-9.12,1-4,9.78-4.09,2.34-7.81-4.26-2.13-6.17-1.89-4.44-5.34,1.58-3.16,7.14-4,9.29-6.21s-1.69-12-4.56-14.86c-2.07-2-4.82-3.29-6.88-5.34-2.54-2.55-4.79-3.27-6.87-5.35-2.52-2.52,15,4.44,18.58,4.44,2.77,0-2.49-10.76-.25-9.78,10,4.35,1.53-6.72,1.53-9.93,0-5.17-3.28-3.68-6.88-4.58-4-1-3.63-3.82-8.4-3.82a26,26,0,0,0-9.16,1.53c-2.66,1.33-2.48-5.54-4.58-7.64-3-3-3.62-5.24-6.88-6.87-3.51-1.76-4.35-3.06-9.16-3.06a58.06,58.06,0,0,0-9.93,1.53c-.91.23.67,7.47-3.06,8.4-1.6.4-3.48,6.29-3.81,7.64-.84,3.33,0,8,0,11.45,0,3.19-7,1.73-8.41,4.58-.88,1.77-7-1.74-9.16-2.29-3.52-.88-4.16,1.7-6.87,3.06-4.47,2.23,3.83,5,4.58,5.34,3.13,1.57,5.37,4.63,6.87,7.64s-7.29,2.77-8.4,3c-1.89.48-4.24,5-5.35,6.11-2.09,2.1-2.48-5.54-4.58-7.63-1.87-1.88-4.15,4.38-4.58,6.1-.32,1.3,0,3.23,0,4.59-.82,3.27,8.49,10,9.93,11.45,3.59,3.6,4.93,4.93,7.64,7.64s6.15,3.85,9.16,6.11a58.68,58.68,0,0,1,6.87,5.34c3.07,3.07,4.6,6.13,7.64,9.93,1.66,2.07,1.53,7.26,1.53,10.69C686.18,744.57,692.55,747.85,694.58,748.36Z"></path>
  <path id_mun="009" data-bs-toggle="tooltip" data-bs-title="Calkiní" class="cls-3" d="M959.59,952.24c2.73,0-2.23,7.52-3.05,9.17-1.38,2.75-5.57-.23-.76,4.58,4.31,4.32-1.84,7,3.81,8.4,2.77.69.49,6.39-1.52,8.4-1.55,1.55,1.69,4.81,3.82,5.34,2.43.61,5.94-5.45,3.81,3.06-1.1,4.42.77,4.58,3.06,6.87,1.07,1.08,1.18,5.08,4.58,7.64,3.24,2.42-.63,8.13-1.53,9.92-2.39,4.79-3,5.42-6.11,2.29-3-2.95-3.38-4.11-7.63-3-1.56.39-6.72-2.14-9.17-1.53s-6.56-5.8-11.45-4.58c-.56.14-7-7-7.64-7.63-2.8-2.81-2.79-4.28-3.82-8.4-.42-1.69,5.92-4.59-3-4.59-5.68,0-6.39,1-3.82,6.11,2.33,4.68-.84,6.8,2.29,9.93,2.17,2.17-1.51,6.19-.77,9.16.9,3.57.77,7.43.77,10.69,0,6.15-1.4,4.27-5.35,2.29-3.75-1.87-3.07-6.17-3.82-9.16-.32-1.31-4.23-6.15-5.34-7.64-1.52-2-2.8-5.59-3.82-7.63-1.54-3.07-2.75-5.8-4.58-7.64-2-2-3.24-6-3.82-8.4-.45-1.8-5.37-6.13-6.11-6.87-2.63-2.63-5.21-4.44-7.64-6.87s-4-4.74-6.11-6.87c-2.85-2.85-3.64-4.41-6.11-6.88-3.21-3.2-1.92-1.13,1.53-4.58,2.54-2.54,3.26-4.79,5.34-6.87,3.16-3.16,6.5-.48,9.17,1.53,3.43,2.57,4.4,2.38,7.64.76,4.72-2.36,1.4-6-.77-7.64-3.29-2.46-6-2.52-.76-3.82,3.49-.87,3.18-5.85,3.82-8.39,1.27-5.09,0-5.35,6.11-5.35,4.2,0,9.18,0,12.22-.76.11,0,5.94,5.26,7.63,6.11,4.06,2,6,2.82,7.64,6.1,1.33,2.67,3.65-5.77,3.82-6.1,1.72-3.43,8.8,5.83,9.16,6.1,3.92,2.94,2.72,3.16,8.41,4.59.37.09,3.42,7.24,3.81,7.63,2.77,2.77,2.85,3,9.17,6.11"></path>
  <path id_mun="010" data-bs-toggle="tooltip" data-bs-title="Calkiní" class="cls-3" d="M330.7,295.76a19.46,19.46,0,0,0,3.82.77c3.35,0,14.3,6,15.11,2.73.77-3.06.09-8.62,4.14-9.64,6.17-1.54-4.27-2-5.16-5.54-1.09-4.34-.18-4.41,3.06-7.64.62-.62,6.61-5.58,6.87-6.11,1.17-2.34.54-6,1.53-9.92,1.48-5.92-3.82-.05-3.82-6.11,0-6.65,2.74-3.19,4.58-6.87.41-.82,6.24-1.49,7.53-1.49,3.14,0,3.16-9.21,6.22-7.68,1.21.61,11.43,9.63,10.48,4.88-.17-.84-6.33-14.21-5.14-13.28,6.08,4.77,7.64,3.45,7.64,2.29,0-6,1.39-.9,3.82,1.53,2,2,7.71,4.29,8.4,1.53.75-3-1-6.05,0-9.93.73-2.93,10.49,3.19,10.49,2.69,0-6-2.08-9.56,3.26-9.56,5.57,0,12.38,9.32,13.84,3.5.69-2.76-2.91-10.75-.1-11.14,4.46-.62,1.88-2.17,1.88-6.11s.41-3.16.41-7c0-3.46-1.5-17.5-3.05-14.4h-3.82c-2.37,0-3.05-7.94-3.05-8.4,0-2,4.88-.93,2.29-6.11-1.71-3.42-3.82-2.21-3.82-7.63,0-4-4.8-4.34-6.87-3.82-4.86,1.21-.36,4.88-6.88,0-3.78-2.84-3.17-4.23-7.63-5.35-1.78-.44-5.07-3.67-6.88-4.58-2.1-1,4.78-2.3,5.35-4.58,1.29-5.19,1.27-4.33,4.58-7.64s6,1.81,8.4-3c1.27-2.55-2.54-5.09-3.82-7.64-2.09-4.17-7.32,2.42-7.63,3.06-1.38,2.74-3.27,4.24-4.59,6.87-1.62,3.25-6.66-5.13-6.87-5.35-2.07-2.06-6.53-3.64-8.4-4.58-4.33-2.16,1.1,4.92,1.53,5.35,3.29,3.3.28,7-2.3,7.63-3.34.84-4.82,2.54-6.87,4.59-3.28,3.28-3.26,3.4-5.35-.77-2.27-4.54.82-6.26-3.05-9.16-2.86-2.15.52-7.4,1.53-8.4,1.37-1.38-6.19-4.83-6.88-5.35-2.64-2-6.14,3.86-6.87,4.59-1.14,1.14,0,9.64,0,11.45,0,5.49-3,1.16-5.35,0-2.87-1.44-7.27-.76-10.69-.76-1.35,0-3.88,3.83-6.87,4.58s-3.23,2.29-7.64,2.29c-5.45,0-6.11-.17-6.11,5.34,0,4.69-1.08,5.89-4.58,7.64-2.86,1.43-8.58,2.29-1.53,2.29,4.48,0,8.38,0,11.46,1.53s-4.27,3.5-5.35,4.58c-1.28,1.28-1.91,8.4-2.29,9.16-1.39,2.77-7-.66-9.16,1.53a18.5,18.5,0,0,0-1.53,3c-1.32,1.32,1.27,9.42.76,11.46-.81,3.25,1.53,5.76,1.53,9.93,0,2.63-7.33,1.52-9.93,1.52-4.85,0-7.35-1.13-8.4,3.06-1.16,4.63-.61,7.63,3.82,7.63,3.35,0-.72,6.68-1.53,9.93s-2.29,5.45-2.29,9.16c0,5,1.67,5.19,5.35,6.11,4,1,3.05,4.25,3.05,8.4,0,2.85-5.62,1.81-7.64,3.82-2.64,2.64-2.58,4-.76,7.64a19.86,19.86,0,0,1,2.29,9.16c0,2.67,5.72,3-.76,4.58-2,.5-4.87,4.18-5.35,6.11-.69,2.76,5.63,1.81,7.64,3.82.95.95.76,9.38.76,10.69,0,3.15,6.94-.06,9.17-2.29,3.25-3.26,5.88,1.47,7.63,3.82,1.62,2.16,5.29,3.75,6.88,5.34,2.14,2.15,7.92-2.57,8.4-3,3-3,4.8-2.18,7.64-.77C331.53,293.87,330.7,303.91,330.7,295.76Z"></path>
  <path id_mun="011" data-bs-toggle="tooltip" data-bs-title="Calkiní" class="cls-3" d="M312,354.33c.8,4.68,3.16,5.35,9.17,5.35,5.09,0,4.68-.67,7.63,2.29,2.22,2.22-4.1,6.39-4.58,6.87-4,4,3.41,6.58,4.58,6.87,5.46,1.37.7,3.82-3.05,3.82-5.67,0-6.11-.41-6.11,5.35,0,5.29-4,2.23-6.88,1.52-2.48-.62-6-4.13-7.63-5.34-2.5-1.87-8.42-.77-11.46-.77H282.17c-4.89,0-8.32.77-1.53.77,3.14,0,6.41,1.53,10.69,1.53,2.85,0,6.6,1.77,9.17,3.05a24.22,24.22,0,0,1,6.87,5.35c1.93,1.93,6.85,1.89,9.16,3.05,3.17,1.58,6.83.75,9.93,1.53,4.42,1.1,6.91,3.05,12.22,3.05,4.6,0,6.65,1,10.69,3.06,3.05,1.52,5.95,3.77,9.17,4.58s6.78,3.6,10.69,4.58c3.39.85,5.07,2.77,6.87,4.58,3.07,3.06,4.79,4,6.88,6.11a22.88,22.88,0,0,0,7.64,5.35c4.73,1.89,5.68.6,6.87,5.34.88,3.54,3.69,7.9,2.29,2.29-1.06-4.22,1.53-6.53,1.53-10.69,0-3.26,5.33-3.8,7.63-6.11,1.38-1.37-5.64-3.35-6.87-4.58-2.16-2.16,4.86-1.77,3.82-7.64-.47-2.65,8.85.61,9.87-1.41,0-.05,1.84-8.77,2.35-9.28,2-2,4.2-3.42,6.24-5.46,1.56-1.57-1.66-10.7-1.66-13.63,0-5.66-.06-1.27,5.69-1.27a52,52,0,0,1,7.3.51,3.26,3.26,0,0,0,4-4.11c-2-4,.26-6.71,3.4-8.28,1.15-.58-8-7.11-8.14-7.46-2.22-4.46,3.34-6.4,4.58-7.64,3.54-3.54,3.34-7.12.06-7.94s-10.25.34-12.59-.24c-2.75-.69-6.39-3.87-8.09-5.57-3.19-3.19-4.22-3.23,0-5.34,2.82-1.41,1.67-8.67-.56-10.89-3.31-3.32-4.18-4.4-8.67-5.52-4.88-1.22-5.25-1.89-11-6.19-5-3.77-6.61,7.07-8.25.5-.94-3.75-1.3,7-1.3,9.12,0,4.67-12,.29-16.18.29-3.92,0,.84,3.54-2.15,4.29-1.93.48-3.05,2.46-6.88,3.42-2.11.52-8-2.05-11.25-2.05-5,0-7.39,2.9-10.13.16-3.2-3.21-2.47-5.75-.76-9.17,2.2-4.41-2.41-7.32-4.49-7.83-2.64-.67-3.83-8.33-5.93-8-.92.13-1.14-2.66-2.57,1.33a26.5,26.5,0,0,1-2.29,3.06c-2.16,2.16-5.81.46-9.95,1.5-4.71,1.17-2.41,5.64-3.75,10.3-1.26,4.36-2.8.19-4.63,5.76-.34,1-4.34,6.31-3.82,8.4,1,4.08,2.88,4.88,3.55,7.56a45,45,0,0,1,.76,10C308.62,347.8,311.13,357.63,312,354.33Z"></path>
  <path id_mun="012" data-bs-toggle="tooltip" data-bs-title="Calkiní" class="cls-3" d="M871,738.43c1.27,2.54,4.58,2.22,4.58,9.93,0,5.84-2.46,3-6.87,3-3.9,0,.68,5.06-.73,10.73-1.58,6.3-1.42,3.2-7.32,6.15-1.81.91-5.7,3.33-5.7,5.27,0,2.24-.72,10.76-2.7,12.74-2.82,2.82-7.24-1.28-10.28.24-4.47,2.23,3.43,14.79-2.88,8.48-3.29-3.29-6.58-3.46-7.64.76-.94,3.77,5.93,1-.36,2.61-3.69.92-7.45,1.54-7.45,5,0,2.76-5.35,3-3.82,9.16,1.65,6.6,2.29,3.52,6.64,7.86,2.74,2.74,2.78,13.34-5.11,7.41-3.46-2.59,12.79,16.34,8.56,16.34-6.52,0-2.7-4.3-.72-3.31,5.59,2.79.31,1.86,3.2,7.64,1.44,2.88-4.17,8.75-4.17,12.17,0,4.06-2.37,5.38-5.34,6.87-4.88,2.44-1,4.52,2.29,5.35,4.78,1.19,6.45-.43,9.16,2.29,3.61,3.61,10.28,2.43,10.28,9.34,0,1.38-2.79,8-5.79,8.13-5.27.3-5.08,2.56-9.07-1.44-2.42-2.41-4.84-4.08-6.87-6.1-2.37-2.37-7.12,4.05-7.64,4.58-2.65,2.65-5.43,3-8.4,1.52-2-1,.21-8.32,0-9.16-1-4-6.31,2.29-9.17,2.29-4.27,0-5.58-4-7.63-6.11l-6.88-6.87c-1.81-1.81-3.28-5.57-5.34-7.64L771,856.79c-2.29-2.29-4.6-3.84-6.87-6.11-3.25-3.25-.76-3.81-.76-9.16,0-4.1-2.2-6-4.59-8.4l-7.63-7.64c-2.41-2.4-3-4.52-5.35-6.87s-4.35-5.11-6.11-6.87c-1.57-1.57-.76-7.77-.76-10.69,0-2.62,2.29-6.83,2.29-10.69,0-1.22,2.32-6,1.53-9.17-.07-.25,11.92.77,13,.77,5.8,0,5.34-.49,5.34-6.11,0-3.57-2.45-4.91-3.81-7.64-3-6.06,4-3.82,6.87-3.82h11.46c4.44,0,8.78-1.51,9.92,3.06.47,1.88-.92,4-2.29,5.34-2.45,2.45,6.83,1.51,9.93,3.06,4.08,2,4.86,5.22,8.4,6.11,3.36.84,3.6,3,8.4,3,3.58,0,3.53-4.76,4.59-6.87,2-4,3.81-2.33,3.81-8.4,0-.87,6.13-3.09,6.88-4.58,1.69-3.38.76-5.92,4.58-6.88,3.53-.88,8.55,0,12.22,0,5,0-.29-4.87-1.53-6.1a4.68,4.68,0,0,1-.76-6.11c.84-3.36,7.48-.61,9.93-3.06,2.18-2.18,2.74-6.24,3.82-8.4,1.25-2.51,2.23-8.28,2.29-8.4,1.62-3.23,5.84,4.32,8.4,6.88A26.93,26.93,0,0,0,871,738.43Z"></path>
  <path id_mun="013" data-bs-toggle="tooltip" data-bs-title="Calkiní" class="cls-3" d="M546.42,310.81c4.08,0-.77,8.13-.77,12.21,0,3.39,1.84,4.87.77,9.17-.83,3.29,6.63,1.46,9.92,2.29,3.66.91-.76,5.71-.76,8.4,0,4.29-.34,2.88-1.53,7.63-1.28,5.14.6,6.28-2.29,9.17-2.64,2.64-4.63,1.63-6.87,6.11-2.73,5.45,1.53,2.41,1.53,7.63,0,3.21,1.34,6.36-.35,8-1.28,1.28,3.86,8.05-4.78,8.05-2.74,0-7.06-.89-7.86.71-.48,1,6.55,9.22,5.94,11.68-.83,3.3-7.66,1.35-10.7,2.87s-5.35-.63-5.93,2.25c-.35,1.78-1.85,5.51-2.84,6.5-3.23,3.23-3.94,1.31.77,1.31,4.06,0,6.19,2.52,7.63,2.88,2.2.55,4.32,7.76,5.35,8.79,3.41,3.41.31,2.25,5,3.41,4.12,1,1.89,2.29,7,2.29,2.34,0,5.23-3.69,6.89-5.35,2.34-2.34,7.39,6.32,10.7,6.32,2.71,0,2.66,7.43,3.43,9,2.05,4.09,3.25,3,3.25,9,0,4.66-2.29,8.63-3.81,11.67-1.18,2.37-4.38,1.52-5.91,4.58s-3.57,1.76-5,4.56-1.14,8.45-1.14,12c0,.83-8.38-1.54-9.19,1.7-.9,3.6-3.58,4.4-4.58,8.4-.66,2.63-6.84,1.53-9.93,1.53-1.33,0-3.87-.81-6.88-3.82-2.42-2.42-7.71-1.52-11.45-1.52-2.85,0-1.27-6.37-3.82-7.64-2.39-1.2-3.25-5.37-3.82-7.64-.81-3.25-6.68-.71-9.93-1.52s-3.82-4.19-3.82-7.64c0-2.41-5.34-2.38-5.34-6.87,0-4.25.53-5.35-5.35-5.35-3,0-6-4.45-6.11-4.58-1.94-1.94,5.7-5,7.64-3,3.28,3.28,1-1.71,2.27-4.21,2.4-4.8-2-9,4-10.52,5.24-1.31,3.53,3.72,6.47.79s-.25-4.89-1.3-5.15c-.17-.05-3.53-7.35-3.82-7.64-1.8-1.8-4.88-2.29-4.27-4.76.69-2.76,3.76-3.9,1.21-5.17-4.75-2.37,1-8,1.51-8.22,1.63-.81-1.26-5.28-1.51-6.29-.63-2.53,4.35-4.11-2.29-2.45-4.12,1-1.47-.57-6.11-2.89-3.54-1.77-2.16-5.61-.76-8.4,1.16-2.32-2.16-5.12-1.53-7.64.47-1.88-6.13-5.9-6.9-9-1.07-4.26,4.66-7.28,5.37-10.12.75-3-6.6-2.6-8.4-3.05-2.76-.69,2.55-5.09,3.82-7.64,1.71-3.42,4-3.05,8.4-3.05,3.67,0,4.86-2.85,6.11-5.35,1.93-3.86,2.81-5.08,6.87-3.05,6.85,3.42,5.81-.3,6.88-4.59.53-2.11,6.53-4.79,7.63-5.34,2.71-1.36,8.21-.66,9.93-1.53a26.46,26.46,0,0,0,6.88-5.34c2.25-2.25,6.21-1.53,9.93-1.53,2.88,0,.69-5.35,6.11-5.35C542.42,308.51,542.15,309.1,546.42,310.81Z"></path>
  <path id_mun="014" data-bs-toggle="tooltip" data-bs-title="Calkiní" class="cls-3" d="M917.59,836.17c-.75,3,3.82,5.33,3.82,8.4,0,5,3.53,5.82,6.11,8.4,2.33,2.34,4.14,3.38,6.11,5.35,1.14,1.14,0,9.64,0,11.45,0,4.49-.1,7.08-1.53,9.93-2.53,5.07,3.41,8.54,6.87,9.93,4.1,1.63,7.58-.88,10.7,5.34,1.37,2.74,5.5-3.37,6.87-6.11,2.63-5.26,1.31-4.8,5.35-.76,2.84,2.85,8.4,1.15,8.4-2.29,0-3.22,5.94,3.05,9.16,3.05,6.68,0,2.72,2.95-.76,3.82-4.75,1.19-1.21,5.67,0,6.87,4.64,4.64,0,3.82-4.58,3.82-3.42,0-3.06,5.74-3.06,9.17,0,3.25-3.25,4.58-6.87,4.58-3.33,0-5,3-6.11,5.34-2.6,5.19,2.65,6.29,5.34,7.64,3.69,1.84,3.55,4.46,0,5.34-.39.1,0,10.42,0,11.46,0,5.8-10.35,9.78-16,9.78-3.23,0,1.43-2.49.84-5.44-1-4.89-1.39-3.59-4.68-3.59s-6.37,9.85-8.62-3.25c-.72-4.18-3.06-4-3.42-3.31-1.48,3-12.62.45-12.89.18-2.36-2.36-4-11.28-5.12-7.91-3,9.3-3.5-2.43-3-.54,2.59,9.34-6.92-2.91-10.91-2.91-3.76,0,3.41,2.51,3.9,4.45.85,3.42-5.53,3.08-15,3.37-2.71.09,14.22,7.35,14.22,10.06,0,3.87-5.41,11.76-9.56,11.76-5.11,0-11.93-12.95-9.66-10,6.71,8.68-4.91,6.07-5.39,6.55-3.15,3.15-10.54-4.9-11.76,0-.09.35-.51.51-.76.77-1.22,4.85-4.66-3.67-2.3-8.4,1.53-3,5.52-4.62-2.29-3.06-2.17.44-.74-3.82-6.87-2.29-2.63.66,3.43-4.2,5.35-6.11a35.74,35.74,0,0,0,6.11-8.4c1.12-2.25-4.74-2.9-5.35-5.34-1.1-4.38-1.41-4.91-5.35-6.88-3.56-1.78-5.42-3.64-9.16-4.58-1.57-.39-7.34-3.66-9.17-4.58-2.52-1.26-2.62-5.68-4.58-7.64-1.61-1.61,1.45-4.5,3.06-6.1,1.17-1.18,8.28-1.47,9.92-2.3,2.88-1.43,7.28-.76,10.7-.76,2.4,0,4.41-2.12,6.11-3.82,2.69-2.69,3.64,6.94,3.82,7.64,1.2,4.82,2.89,3.89,6.11,2.29,2.54-1.27,1.8-5.62,3.81-7.64,3.33-3.32,5.39-1.45,3.06-6.11-1.86-3.71-.75-6.09-3.06-8.4-2.72-2.72-4.58-2.65-4.58-7.63,0-4.35,4.2-4.21,0-8.4-2-2.05,4.64-4.06,5.35-6.87.9-3.62,1-6,4.58-6.88,4.54-1.13,6.65,1.31,8.4,3.06,2,2,4.79-3.82,7.64-3.82,5.23,0,6-.47,7.64-3.82s4.51-3.82,8.4-3.82Z"></path>
  <path id_mun="015" data-bs-toggle="tooltip" data-bs-title="Calkiní" class="cls-3" d="M477.68,445.2c1.74-6.95.63-1-2.69-7.63-2.39-4.79,3-6.11-4.18-6.11-2,0-6.39-4.54-7.28-6.32-1.21-2.42,8.7-1,8-3.61-1.16-4.64-3-3.7-5.74-6.48-2.51-2.51-5.44-6-6.32-9.56-.7-2.81,4.05-4.08,5.35-6.68,2.17-4.35,1.28-5.14-1.88-5.14-4.43,0-10.56,1.16-11.52-2.7-.78-3.1-.35-8.54-2.8-9.15-.27-.07-1.47,9.7-1.53,9.93-.81,3.25-5.71,2.62-9.06,2.62-.28,0-7.13.13-7.74.43-3.73,1.87-2.78,8.14-4.9,10.26-2.4,2.4-6.27-1.21-8.85-1.86-2.41-.6-.76-7-.76-9.92,0-2.41,5.53-1.49,6.11-3.82.83-3.33,0-8,0-11.46,0-5.31-1.07-6.87,4.58-6.87,5.31,0,5.94.59,8.4,3.06,4.59,4.59,2.39-6.69,2.29-6.88-1.8-3.6-4.06-2.42,1.53-3.82,5.44-1.36-2.14-7.48-2.29-7.63-3.92-3.92-1.52-4.59.76-6.87,3.22-3.22,3-4.6,6.88-.77,1.16,1.17,6.79.22,8.74.71A55.63,55.63,0,0,0,465,350.31c3.65,0,7.86,1.87,10.35,2.49.65.17-3.67,8.11-3.82,8.4-1.75,3.5,2.43,7.43,3.06,9.93.72,2.88,1.45,5.81,2.29,9.16s1.39,7.37,2.29,9.17c1.14,2.29,5.35-1.91,7.64-.77,1,.52-.33,6.55.76,7.64,3.47,3.48,3.25,4.38.76,6.87-2.85,2.86-1.52,5.95-1.52,6.88,0,2.16,4,2.48,4.58,4.58.47,1.9-2.61,4.71-.77,8.4s3,3.81,5.35,6.11c1.82,1.82,8.8,2.76,1.53,4.58-3.23.81-8.35.18-10.69.76-.4.1,0,10.42,0,11.46C486.85,449.94,478.45,445.36,477.68,445.2Z"></path>
  <path id_mun="016" data-bs-toggle="tooltip" data-bs-title="Calkiní" class="cls-3" d="M739.64,809.45c0,3.85.59-7.72,1.53-11.46.87-3.47,1.07-6.59,1.53-8.4.36-1.48,4.23-3.35,6.63-1.76,9,6,17.33,7.4,14.69-1-2.07-6.56,2.59.24,3.15-.32,2.1-2.1-1.09-12.32-1.09-15.3,0-5.59-8.24-7.59-2.76-7.59,4.47,0,7.44-.09,10.69,1.53,3.07,1.53,8.58.76,12.22.76,2,0-7.92,9.43-7,11.27,1.57,3.13,9.59-4.09,12.34-1.34,1.66,1.66,3.69,2.92,5.35,4.58s5.62,4.58,8.4,4.58c3.77,0,8.21,5.47,10.1,3.58,2.34-2.33-.61-13.07,1.36-15,3.5-3.5,1.58-5.52,8.4-3.82.23.06,1.5-9.84,1.53-9.93.42-1.71,9.36,4.66,11,4.66,5.94,0,11.94-5.33,10.45-8.3-2.15-4.3-10.24-4.41-9.2-8.58.3-1.19,15,1.21,15.58.58,1.91-1.91,2.18-6.94,4.09-8.85,2.15-2.14-3.63-8.67-3.63-13.11,0-1.36,8.13,5.08,9.17,6.11,2.46,2.47,6.87,8.87,6.87,1.53V722.39c0-6.19,1.37-4.13,3.06-.76,1.46,2.93,8.78,2.52,11.45,3.06,5.64,1.12,6.11-.44,6.11-5.35,0-2.48-4.2-5-5.34-6.11-1.88-1.88-6.22-2.51-8.4-3.05-5.5-1.38-6.51-.37-2.3-4.58,3.14-3.14,4.06-2.59,2.3-6.11-1.45-2.88-5.79-.88-7.64-4.59-1.62-3.23-4.61-3.82-7.64-4.58-4.33-1.08-2.28-6.13-1.53-7.63,2.17-4.33,3.82-3.79,3.82-9.93,0-3-2.69-7.27-3.82-8.4-2.63-2.63-5.15-2.87-7.63-5.35-3-3-.87-5-4.59-6.87-2-1-1.73-7.71-2.29-9.92-.39-1.59-5.68-4.92-6.87-6.11-2.63-2.64-3.44-2.31-4.58-6.88-1-4-3.37-4.58-7.64-4.58-5,0-8.43-3.84-10.69-6.11s-9-.42-10.7,0c-4.07,1-2.59,3.82-8.4,3.82-4.41,0-3,4.36-3,8.4,0,4.38-4.93,3.82-9.17,3.82H774c-2.19,0-3.82,3.15-3.82,5.34s1.1,3.48,1.62,5.57c.79,3.17-3.55,1.31-6.2,1.31H754.15c-5,0-6.29.85-9.16,2.29-3.35,1.67-3.82,3.06-3.82,7.63,0,4.38-.24,7.35-1.53,9.93-1.72,3.44-2.45,4.43-6.11,5.35-3.29.82-8.52-.22-10.69-.77-3.89-1,1.45,3.4,3.82,4.58a63.26,63.26,0,0,1,9.16,5.35c.95.71-2.3,5.36-3.05,6.87-1.66,3.31-1,6.64-2.29,9.17s-3.69,4.44-5.35,6.1,3,4.37,3,6.88c0,2.17-4.57.75-6.11,2.29-.18.18,2.84,8,3.06,8.4,1.52,3-2,7.35-3.06,8.4-3.22,3.22-4.58.57-4.58,6.87,0,5.26.16,6.71-2.29,9.16-1.14,1.14-9.64,0-11.46,0-5.14,0-6.75-.11-9.16,2.29-3,3,1.26,7.37,3,9.17,4,4,6.11-.7,6.11,6.87,0,4.57,3.57,5.35-3.81,5.35-2.55,0,2.78,4.3,4.58,6.1,2.26,2.27,4.09,3.61,5.34,6.11,1.53,3,5.64,2.58,8.41,5.35,2.48,2.49,4.91,4.15,6.87,6.11,1.8,1.8,2.91,7.34,3.82,9.16C730.53,805,736.17,808.06,739.64,809.45Z"></path>
  <path id_mun="017" data-bs-toggle="tooltip" data-bs-title="Calkiní" class="cls-3" d="M476.92,175.64c2.84-2.84,7,4.67,9.93,7.64a11.45,11.45,0,0,1,3.81,9.16c0,1,4.44,5.06,5.35,6.88,2.08,4.16.92,6.26,3.82,9.16a22.14,22.14,0,0,1,4.58,6.87c1.44,2.88.55,8,1.53,9.93,1.55,3.1,7.48.61,9.93,3.05,1.91,1.91,1.91,5.73,3.82,7.64,3.19,3.2,6.14-2.33,7.63-3.82,2.57-2.57,7.25-2,10.7-4.58,2.41-1.81,3.5,1.45,6.87,2.29,4.57,1.15,1.92,4.77,6.87,2.29,3.21-1.6,8.18-.9,10.69-1.52,2.82-.71,2.53,6.16,5.35,6.87.93.23,1.42,9.51,1.53,9.93,1,4-2,4.81-4.58,6.1-4.77,2.39,4.17,5.25,4.58,5.35,3,.75,1.83,8.7,1.53,9.93-.82,3.24-6.68.71-9.93,1.52-1.94.49-4.23,5-5.35,6.11-1.69,1.7-1.81,8-2.29,9.93-.83,3.33,0,8,0,11.45,0,2.66-4.11,6.69-5.35,9.17-2.1,4.2-3.41,4-6.87,2.29-5.05-2.53-6.27,2.16-6.87,4.58-.87,3.47-7.23-.1-10.7.76-2.44.61-4.71,3.09-7.63,3.82-3.76.94-2.34,3.82-7.64,3.82-3.31,0-5.92,2.1-7.64,3.82-1.91,1.91-1.91,5.72-3.82,7.63s-6.11-1.53-7.63-2.29c-4.48-2.24-5.53,3-6.11,5.35s-4.18,4.58-6.88,4.58c-4.15,0-2.74-1.08-6.11,2.29-1.91,1.91-2.67,5-4.58,6.87-.36.36-1,0-1.53,0-2.52,2.53-7.22-.1-10.69.77-3.12.78-5.94-3.06-9.16-3.06-3.71,0-2.72-3.91-3.82-6.11-.37-.73-10.22,0-11.46,0-4.44,0-4.73-2.43-6.87-4.58l-6.11-6.11c-1.95-1.94,4.58-4.12,4.58-6.87,0-1.81-4.55-6.57-5.35-7.64-2.51-3.35-3.36-3.54-8.4-2.29-4,1-6-2.21-7.63-3.81-2.21-2.21-4.45-3.09-7.64-2.3-2.89.73-.95,6.3-3.06,8.4-1.14,1.15-9.64,0-11.45,0-5.59,0-5.1,2-6.11,6.11-.84,3.34-5.78,2.29-9.17,2.29S355.43,323,350.9,323c-4.73,0-6.91,0-9.16-2.29s-2.29-5.28-2.29-9.16-.3-3.35-3.82-6.87c-3-3-3.78-3.73-5.35-6.88-1.82-3.63,1.21-4.85,5.35-3.81s7.41.65,10.69,2.29c2,1,1.44-4.5,3.05-6.11,3.11-3.11,3.61-1.74.77-4.58-3.15-3.15-1-6.63.76-8.4,2.36-2.37,2.78-3.68,6.11-5.35,2.63-1.32,1.53-6.87,1.53-9.93,0-4.51-1.26-5-2.29-9.16-.55-2.2,3.6-4.91,4.58-6.87,1.69-3.39,2.09-4.48,5.35-6.11a13.55,13.55,0,0,1,9.92-.76c4.78,1.19,5.35,2.67,5.35-3.82a20.19,20.19,0,0,0-.76-3.82c-.52-2.61,5.75-.41,7.63-2.29,1.13-1.13,5.9,5.13,6.11,5.34,3.42,3.42,5.35,1.5,5.35-3.05,0-5.27-.16-6.71,2.29-9.16,3.51-3.52,5.28,1.81,6.87-4.59.81-3.22,6.71.05,9.93-.76,4.2-1,3-3.82,8.4-3.82,1.32,0-2.76-6.29-3-6.87-1.23-2.47-.76-7.09-.76-10.69,0-4.15,2.29-4.59,2.29-9.16s4-2.82,6.11-2.3c1.14.29,2,3.82,7.63,3.82,3.42,0-1.11,5.23-1.52,6.88-1.35,5.36,3.87,3.81,7.63,3.81,3.13,0,1.51-3.06,6.11-.76,1.56.78,6,2.92,7.64,4.58,1.11,1.11,2-2.73,3.82-4.58.71-.71,10.15-.63,10.69-.76,2.95-.74-1.15-8.66-1.53-9.17-3.12-4.16-.86-3.05,4.59-3.05S478.12,178.66,476.92,175.64Z"></path>
  <path id_mun="018" data-bs-toggle="tooltip" data-bs-title="Calkiní" class="cls-3" d="M562.45,588.76c3.6,1.8-6-5.89-9.92-6.87-4.8-1.2-7.07.38-8.4,3.05-.87,1.74,6.24,4.27,6.87,4.59,2.59,1.29-4.06,4.64-6.87,5.34-3.15.79-5.47-3.94-6.88-5.34-3.59-3.59-4.65.46-6.11-5.35-1.38-5.51-.26-6.42-4.58-5.35-2.31.58-4.08,7.4-4.58,8.4-1.1,2.19-5.35-6.4-5.35-8.4,0-3.61-5.06-1.13-6.11-5.34-.58-2.33-7.4-6-9.16-6.87-3.79-1.9-6-3-9.17-3.82-2.8-.7-5.24-3-8.4-4.58-2.24-1.12,2.45,4.44,3.06,6.87.23.94,7.93,4.23,8.4,4.58,2.73,2.05,2.29,5.81,2.29,6.87,0,3.19-5.55-3.15-8.4-4.58-3.29-1.64-4.55-2.25-6.88-4.58s-3.94-3.3-5.34-6.11c-1.8-3.59-4.3-5.06-6.88-7.63-2.25-2.26-4.13-4.9-6.11-6.88s2.34-5.51,3.06-8.4c.2-.82-5.82-7.34-6.11-7.63-3.2-3.2-1.06-4.92-.77-6.11.66-2.63,5.11,2.83,6.11,5.34,1.92,4.79,6.69,5.87,10.7,6.88,3.4.85,4.8,3.38,9.16,2.29,5-1.25-.7-6.11-3.82-6.11-5.47,0-4.82-5.62-3.82-7.64,1.28-2.54,5.86-.25,8.41-1.53.28-.14-6.49-4.38-6.88-4.58l-7.64-3.82c-4.1-2.05-4.14-2.73-1.52-5.34,2.05-2.05,7.94-1.07,10.69-3.82,1.73-1.73,6.46,0,10.69,0,5.8,0-.2-4.06-2.29-4.58-3.33-.83-8,0-11.46,0-5.66,0-5.8-.45-8.4-3-2.27-2.28,1.62-6.29,3.06-9.17.53-1.07,5-3.62,6.87-4.58,3.15-1.57,4.53-2.29,9.93-2.29,5.06,0,4.68-1.92,5.35-4.58.18-.76,3.25-4.69,4.58-5.35,4.43-2.21,5.34,1.45,5.34,5.35,0,2.9,3.63,3,4.59,6.87,1.25,5,1.93,3.82,7.63,3.82,2,0,4.67,3.07,7.64,3.82s4.64,3.27,5.35,6.11c1.06,4.25,2.37,4.66,4.58,6.87a24.48,24.48,0,0,0,7.64,5.34c2.47,1.24,5.82,4.3,7.63,6.11,2.71,2.71,4.26,3.38,6.88,6.87a62.56,62.56,0,0,0,6.11,6.88c1.6,1.6,5.22,3.21,7.64,3.82,2.92.73,4,4.51,4.58,6.87a13.82,13.82,0,0,1-.77,9.92c-1.52,3-3.81,1-3.81,7.64,0,.26-7.19,4.13-7.64,4.58-.89.89.09,5.92-.77,7.64-1.44,2.88-1.52,5.7-1.52,9.93C560.93,582.43,562.22,587.6,562.45,588.76Z"></path>
</svg>