<svg id="Ciudad_de_México" xmlns="http://www.w3.org/2000/svg" viewBox="0 0 1187 847">
  <defs>
    <style>
      .cls-1 {
        fill: #c4f5ee;
        fill-rule: evenodd;
        opacity: .74;
        stroke: #000;
        stroke-width: .25px;
      }
    </style>
  </defs>
  <path id="002" data-bs-toggle="tooltip" data-bs-title="Calkiní" class="cls-1 estado" d="M494.22,130.23l-16.12,57.05,16.44,6.45-1.61,3.55h3.55l-.32-4.19,24.17-.64-.32,9.02,6.12,4.83,14.18,5.8,9.67-.32.64,3.22,8.06-.64.82-2.5,7.49-7.35,7.8-2.39,2.58,2.9,3.87.32,6.02-4.12-19.88-50.02-1.61-7.74-62.85-16.76-8.7,3.55Z"/>
  <path id="003" data-bs-toggle="tooltip" data-bs-title="Calkiní" class="cls-1 estado" d="M596.29,363.45l-46.15-.62-1.87,1.88-6.08,1.93.64,8.38-6.88,2.42-2.72,8.86-5.44.97-3.2,8.7-7.36-.32-5.39,5.36,6.45,5.22-.97,13.71-16.76,24.49h5.48l10.31,4.9,49.64.98,5.8,7.18,5.48.98,8.06-8.49,10.31.33,10.64-13.39,35.13,16,14.43.29,1.3-39.81-7.09,1.61-16.37-19.56v-7.51l-13.21-16,.97-10.12-12.57-1.31-4.26,2.99-8.31-.06Z"/>
  <path id="004" data-bs-toggle="tooltip" data-bs-title="Calkiní" class="cls-1 estado" d="M429.47,295.15l-4.8,2.87-.32,7.09h-7.09l-6.77,12.89h-6.12v14.83l-6.45,9.35-5.8-8.7h-4.51l-.32,6.12-11.93,4.51-8.7,8.7-3.22-.97-1.61-11.93-3.22-2.58-6.12,7.74-6.45,8.06-10.31,6.12-1.61,2.26,2.58,6.77-3.87,2.9-6.45-1.61-4.51,4.19.32,5.16,5.16,2.58-.32,12.89-5.48.32-.97,8.7-3.22,3.55,1.29,7.09-4.83-3.55h-1.29v5.16l1.61,1.93-20.63,17.08.32,5.16h-4.19l-1.29-1.61-.97,4.19,1.29,3.22-4.19,1.93h-2.26l-.64,2.26,2.9,5.16,5.16.32,2.58,14.83-5.48,4.51.64,4.19-2.58,2.26-3.87-.32-7.09,8.06-.32,6.45,22.56.97-.32,4.83h4.19l7.09,6.77-.32,6.12,6.45.64.64,3.55-6.12,4.19v27.72l4.83,1.29v3.22l6.09-2.61,15.29-43.43,8.92-16.16-.97-35.45,6.77-12.57,9.02.64,9.02-7.09v-2.26l-4.51-2.58-2.26-8.06,6.12-5.48-1.4,8.92,7.41,2.33,6.08-7.09,1.28-15.15,6.4-6.12,9.92,1.29.64-4.83,15.99-5.16,13.75-17.08-8.96-6.45h2.88l2.56-9.99-8.32-1.29-1.28-12.57-5.44-1.93,4.48-4.51,11.84,2.9-.64-8.38,3.71-4.94,8.77.75,5.44-8.7-2.2-3.62,3.46-7.59h-11.28l-2.22-2.28.61-12.87Z"/>
  <path id="005" data-bs-toggle="tooltip" data-bs-title="Calkiní" class="cls-1 estado" d="M619.82,10.72l16.12,39.64-31.59,41.9,2.26,28.04,26.43,12.25,12.89.32,8.06-4.51,48.99,20.63-6.77,13.86,30.3,62.53-19.66,7.41-25.78-10.31-6.12,5.8-9.67-5.8-9.02-.32-.97,2.26-13.86-2.58-38.03-21.59-16.12.97-19.66-47.06-8.38-34.49-19.02-5.16.64-5.48-12.89-12.57,32.23,9.67,5.8-5.48-6.77-6.45,10.64-14.83-10.31-11.28,7.41-16.12,9.02,1.61,10.64-25.14,17.4-19.66,15.79,1.93Z"/>
  <path id="006" data-bs-toggle="tooltip" data-bs-title="Calkiní" class="cls-1 estado" d="M603.67,331.28l13.54,2.58v-7.74l41.9,2.9,8.7-18.05,6.77-.32.97-2.9,28.69,15.47,8.35-2,3.26-55.37-16.76.07-5.48,3.55-9.99,18.69-7.09.32-4.19-2.64h-28.36l-6.45,5.55-25.14.26-5.16.32-1.29,7.41,4.51.32-6.77,31.59Z"/>
  <path id="007" data-bs-toggle="tooltip" data-bs-title="Calkiní" class="cls-1 estado" d="M603.67,331.28l-7.31,31.89,8.25.34,4.26-2.99,12.57,1.31-.97,10.12,13.15,16v6.77l16.44,20.31,7.09-1.61-.64,10.96,35.45,43.51,7.74,5.16,10.31-10.31v-2.26l-2.26-.97-1.93-18.37,7.41,2.58,9.99-13.54,5.16,5.48,3.22-4.51,3.55,2.26,13.54-11.6,51.25-16.44,33.2.97,1.61,3.22,4.51.64,1.29-1.93,17.08-.97-47.7-50.92,3.87-13.86-100.24-43.16-.96,21.89-9.35,1.93-27.4-14.83-.97,2.9h-6.45l-9.35,18.05-41.87-3.16v7.74l-13.54-2.58Z"/>
  <path id="008" data-bs-toggle="tooltip" data-bs-title="Calkiní" class="cls-1 estado" d="M372.36,582.55l-7.74-.32-21.27-10.64-.64-3.22-4.19-3.55-1.29-2.9h-6.12l-.32.97h-3.22l14.5-36.42,25.46-8.7,21.77-24.78.64-12.25,9.28,2.9,2.88-5.8-4.16-3.55,8.64-24.82,2.3-3.58-3.26-1.58.2-9.66,9.1,2.53,16.29-26.07,19.83-2.26.64,6.77,6.25,1.51,2.58-7.41,24.34-11.85,13.54.32-6.12,6.12-1.29,8.38-11.93,9.99.29,13.84-6.13,1.12-6.77,6.63.32,4.73-5.16,11.99-12.57,1.58-.32,6.63,4.51,3.79-8.7,12.62.43,44.54-9.78,11.94.32,12.94-20.92,10.76-11.93,10.31-3.55,10.64-22.88.32-2.58-4.19-1.29-.32Z"/>
  <path id="009" data-bs-toggle="tooltip" data-bs-title="Calkiní" class="cls-1 estado" d="M609.8,772.66l114.1,60.59,19.98-42.87,25.78-18.37,56.4,7.41,17.73,12.89,14.18-20.31,9.35-65.11-12.25-21.92,19.34-22.88-19.02-10.64,17.08-7.09.64-12.25-20.31-15.47,1.29-15.15-9.67-1.93-6.12-10.64-6.45.64-.97-9.67,6.45-7.09-15.79-14.5h-58.66l-101.2,27.07-49.59,93.17-24.8-18.47-1.76,28.52-17.9,39.96,37.97,35.06,4.19,9.02Z"/>
  <path id="010" data-bs-toggle="tooltip" data-bs-title="Calkiní" class="cls-1 estado" d="M535.95,377.43l6.88-2.42-.64-8.38,6.08-1.93,2.38-2.56-8.78-7.11-6.75,2.86h-5.8l-4.51-2.31v-5.28l-3.87-2.31.97-25.07,4.83-2.97.64-11.87-5.35-3.34-6.4-10.96-4.48,4.83-17.59.32-2.56,5.48-10.24-2.26-5.12,5.8-22.07,1.61-2.6,9.83-11.15.16,1.28,1.93-5.44,8.7-9.28-.64-3.2,4.83.64,8.38-11.84-2.9-4.48,4.51,5.44,1.93,1.28,12.57,8.32,1.29-2.56,9.99h-2.88l8.96,6.45-13.75,17.08-15.99,5.16-.64,4.83-9.92-1.29-6.4,6.12-1.28,15.15-6.08,7.09-7.41-2.33,1.4-8.92-6.12,5.48,2.26,8.06,4.51,2.58v2.26l-9.02,7.09-9.02-.64-6.77,12.57.97,35.45-9.17,16.73-15.03,42.87,3.84.97v3.87l4.48,1.61.64,4.48,14.5-36.42,25.46-8.7,21.77-24.78.64-12.25,9.28,2.9,2.88-5.8-4.16-3.55,8.64-24.82,3.2-3.55-4.16-1.61-.32-9.02,9.28,1.29,16.63-25.46,19.83-2.26.64,6.77,6.08,1.29,2.93-5.83,24.17-13.21,13.54.32-6.12,6.12-1.29,8.38-11.93,9.99.93,14.01,1.91,3.4,13.24,3.85,5.45.47,16.99-25.58v-13.86l-6.4-4.51,6.08-4.83,7.36.32,3.2-8.7,5.44-.97,2.72-8.86Z"/>
  <path id="011" data-bs-toggle="tooltip" data-bs-title="Calkiní" class="cls-1 estado" d="M773.53,541.55l-12.31,17.03,60.34-.26,15.79,14.5-6.45,7.09,1.28,10.31,5.74-1.49,6.51,10.84,7.67,1.55,3.87-2.54-1.93-20.95h5.8l1.93-5.4,12.57,1.27,3.87-6.03,10.31,6.98,2.9-14.6-39.97-8.89-.32-32.7h-12.89l10.64-84.77,4.19.95,4.19-3.17s-1.93-15.56,0-15.24c1.93.32,7.74,1.27,7.74,1.27l-4.51-4.44,1.61-1.59-4.51-4.44-17.05,1.42-1.29,1.93-4.51-.64-1.61-3.22-32.43-.93-52.01,16.4-13.54,11.6-3.9-2.12-2.87,4.37-5.16-5.48-9.99,13.54-7.41-2.58,1.93,18.37,2.26.97v2.26l-9.22,9.56,21.83,12.87,21.92,3.87,13.54,14.5,19.98,3.22-1.93,3.22h8.7l-2.26,4.83h7.09l3.55-4.19,1.29.97-.97,26.11-4.51,2.26-2.58-6.45h-5.48l-2.58,9.99-4.83-1.93Z"/>
  <path id="012" data-bs-toggle="tooltip" data-bs-title="Calkiní" class="cls-1 estado" d="M343.35,571.59l-1.64,2.68-3.87,1.89,20.63,11.36,8.06,48.59,32.88,76.04,79.93,49.22,129.57,9.78-4.19-8.84-37.07-33.76,17.73-39.13,1.93-29.34,24.8,18.47,1.89-45.81,4.19-7.09-.64-34.16-7.41-4.83-3.22,3.22h-23.85l-9.99-8.38v-2.58l3.87-2.58,1.3-8.26-7.04-7.71.26-16.91,4.19-.32-.64-11.6,6.77.64,1.93,1.61v5.8l6.12.32,10.96-13.86,3.55-18.37-8.7-9.99v-18.69l42.54-11.6,17.47-11.16.21-3.05-13.75-.73-35.81-15.56-10.64,13.39-10.31-.33-8.06,8.49-5.12-.95-6.77-7.57-47.06-.32s-13.86-5.68-15.15-5.68h-8.06l-12.57-4.1-2.58-3.16-6.77.95-6.77,6.63.32,4.73-5.16,11.99-12.57,1.58-.32,6.63,4.51,3.79-8.7,12.62.64,43.86-9.99,12.62.32,12.94-20.92,10.76-11.93,10.31-3.55,10.64-22.88.32-2.58-4.19-9.46-.64-20.83-10.64Z"/>
  <path id="013" data-bs-toggle="tooltip" data-bs-title="Calkiní" class="cls-1 estado" d="M656.5,424.36l-.61,32.1-17.73,10.96-42.54,11.6v18.69l8.7,9.99-3.55,18.37-10.96,13.86-6.12-.32v-5.8l-1.93-1.61-6.77-.64.64,11.6-4.19.32v16.76l6.12,7.74-.64,8.38-3.87,2.58v2.58l9.99,8.38h23.85l3.22-3.22,7.41,4.83.64,34.16-4.19,7.09-1.89,45.81,48.95-92.54,100.24-26.43,12.25-18.05,4.83,1.93,2.58-9.99h5.48l2.58,6.45,4.51-2.26.97-26.11-1.29-.97-3.55,4.19h-7.09l2.26-4.83h-8.7l1.93-3.22-19.98-3.22-13.54-14.5-21.92-3.87-31.91-19.02-34.2-41.77Z"/>
  <path id="014" data-bs-toggle="tooltip" data-bs-title="Calkiní" class="cls-1 estado" d="M596.36,363.17l-45.45-.33-9.35-8.25-6.45,3.3h-5.8l-4.51-2.31v-5.28l-3.87-2.31.97-25.07,4.83-2.97.64-11.87,46.41-19.13,24.5,2.31,8.93.69-1.19,6.23,4.19.99-13.86,63.98Z"/>
  <path id="015" data-bs-toggle="tooltip" data-bs-title="Calkiní" class="cls-1 estado" d="M619.5,209.38l-16.12-9.14-16.08,1.1-6.06,3.99-3.87-.32-2.58-2.9-7.8,2.39-7.74,7.91.32,16.44-7.41,18.34-5.8,5.38-1.61,8.22-3.22,1.9v12.65l-11.28,10.44,3,6.29,6.67-.58,6.76,1.24,2.94,6.27,24.17-9.85,33.42,2.94,7.74-.57,5.22-58.57-6.77-5.69,6.09-17.88Z"/>
  <path id="016" data-bs-toggle="tooltip" data-bs-title="Calkiní" class="cls-1 estado" d="M485.23,218.12l8.06-21.92,6.77-.97-.32-3.22,20.31-.64-.64,7.74,7.74,6.45,13.86,5.48,8.38.32.32,2.9,9.57-1.85.32,16.44-7.41,18.34-6.03,5.77-1.38,7.83-3.22,1.9v12.65l-11.11,10.44,2.83,6.29,7.74-.78,5.7,1.44,2.94,6.27-22.24,9.09-5.16-2.96-6.58-11.33-4.3,4.58-17.77.58-2.56,5.48-10.24-2.26-5.12,5.8-22.07,1.61-2.6,9.83-11.15.16-.92-1.69,3.46-7.59h-11.28l-2.26-1.93.64-13.21,9.35-8.38,17.4-3.87,16.44-20.63-1.29-21.92,8.38-5.48,1.61-16.44,3.87-.32Z"/>
  <path id="017" data-bs-toggle="tooltip" data-bs-title="Calkiní" class="cls-1 estado" d="M726.15,225.31l-19.31,7.48-25.78-10.31-6.12,5.8-9.67-5.8-9.02-.32-.97,2.26-13.86-2.58-21.91-12.45-6.09,17.88,7.35,6.1-5.8,58.02h22.56l5.16-4.83,30.3-.64,3.55,2.58,7.09-.32,9.99-18.69,5.48-3.55h16.76l14.83-32.23-4.51-8.38Z"/>
</svg>