<svg id="Puebla" xmlns="http://www.w3.org/2000/svg" viewBox="0 0 1187 847">
  <defs>
    <style>
      .cls-1 {
        fill: #c4f5ee;
        fill-rule: evenodd;
        stroke: #000;
        stroke-width: .25px;
      }
    </style>
  </defs>
  <path id="001" data-bs-toggle="tooltip" data-bs-title="Calkiní" class="cls-1 estado" d="M567.76,460.14l7.7,8.95,8.8,6.52-1.65,5.81,4.95,10.6,4.24-2.36,2.12.94.47,5.66h4.95l-.47,4.24-13.2,9.43.24,4.01h-3.3l-3.3,6.99-.39.16-7.38-.31-.94-5.11-.63.63.08-1.57-6.36-.71-1.65-6.75,1.89-1.26.55-10.21-.55,9.82,11.62,2.04,2.12-5.42-2.91-5.5-8.33-.24-1.02-6.28,3.61-1.81v-8.56l3.93-4.71-3.69-13.12-1.49-1.89h0Z"/>
  <path id="002" data-bs-toggle="tooltip" data-bs-title="Calkiní" class="cls-1 estado" d="M753.44,185.94l39.98,10.53-21.52,26.63v.31l-14.69-1.57-2.51,5.58-3.69,1.18-4.71-7.07.55-4.16,4.16-3.14,5.97-1.65.24-3.69-6.21-7.85,2.43-15.08Z"/>
  <path id="003" data-bs-toggle="tooltip" data-bs-title="Calkiní" class="cls-1 estado" d="M519.06,756.57l.55-5.73.79-.79-1.34-.86v-.79h1.65l1.02-.86,5.26-1.1v-1.89l1.89-1.65.55-.24-.55-.86-.79-.55h-2.2l-.31.86-1.34.79-3.85-2.98-4.63-6.83,8.48-4.71-1.41-3.77,2.2-5.81,1.1-5.42,2.2-4.71,9.03-2.98,4.63,2.2,5.81-1.1,7.38,2.98,2.98.55,2.98,3.85,11.78-1.89h9.03l-.79,4.08-5.18,6.83-4.95,4.95,3.3,4.08-2.12,4.79-4.71-1.81,2.43,3.61-2.43,14.53,5.18-.86-1.1,7.38-.31,4.4,5.73,7.15-6.83,11.7-11.78-1.65-4.87-4.63,5.73-7.07-2.2.55-2.98-3.61-5.5,1.96,1.34-4.95-.79-1.34-.24-.31v-.79h.24l.55-.86v-4.4l-3.3,2.75.86,2.2-4.71-.79-1.89-1.96-.55,1.96-2.75,3.22-1.1-.79-2.75.24-1.34-.47-1.1-1.65-1.34-2.51-3.06-1.1-3.85-.79-1.34,1.34h-1.65l-.79-1.1ZM525.66,814.15l-3.53,1.02v19.01l-17.75,6.36v-12.72l-6.21-4.4,1.73-6.13-2.36-2.36-5.89-2.2-1.18-8.25h-2.98l.24-2.59.55-8.64,4.16.39,4.16-1.18,3.3,3.14,2.98.39,1.96-2.2,3.53,2.83h3.53l1.41-2.2,1.96.79-1.41,7.46-2.12,1.57-2.2-2.51-2.2,2.12,1.41,2.2-.39,2.51,1.81.24.79-3.14,1.34.16-.79,7.54,2.36.79,2.59-1.02v-1.73l3.14-.39.94,3.14,5.18-1.41-.08,1.41Z"/>
  <path id="004" data-bs-toggle="tooltip" data-bs-title="Calkiní" class="cls-1 estado" d="M615.83,496.67l2.04-3.14,12.49,13.35,7.46.24v-5.89l4.87.39v2.83l2.2-1.26v-1.81l6.13-.63,1.34,3.69-2.04.71-2.2,5.03-2.59-1.49-8.8,23.48-3.93-.24,1.49,5.03-1.18-.39v2.2l-.31.55-9.66.16v-.08l-8.56-2.91-.08-.16,1.26-1.1-1.34-6.21.24.86,2.28-5.42-4.87-4.87.86-1.81,4.16,3.14h1.34l-1.49-4.63-2.43-.47,1.49-19.17h-.16Z"/>
  <path id="005" data-bs-toggle="tooltip" data-bs-title="Calkiní" class="cls-1 estado" d="M379.64,576.47l4.63-.31,5.66.86,4.56,4.16-.63,3.22h-2.43l-.63,1.1,2.12.63-.39,8.95,1.34.63,2.36-2.59v1.1l-5.66,6.68,1.96,1.81-2.43,1.89,1.1,1.57-2.12,4.56.86,2.59-1.57,1.1-2.12-1.96-1.81.31.24-1.89-3.77-.24-.55-2.43,1.57-.55-1.26-2.75,3.38-.63,1.18-1.34-.47-6.13-1.81-1.89-2.2,1.89-8.01-3.69.39,1.49h-1.57l-.94-1.49,1.96-3.46h2.2l1.81-.71-2.36-1.34,4.32-5.11-1.96-2.36,2.83-2.98.24-.71Z"/>
  <path id="006" data-bs-toggle="tooltip" data-bs-title="Calkiní" class="cls-1 estado" d="M604.83,212.73c1.02.63,2.28,1.34,2.83,1.96,2.83,2.75-2.75,2.28-2.75,3.38,0,1.73.24,2.75.24,5.11,0,5.34-1.49,1.73,1.65,4.87,1.49,1.49,3.46,2.83,4.32,4.48,1.65,3.46-3.22,1.96-3.22,3.85,0,7.7-4.01,3.61-5.34,6.36-.63,1.34.24,2.75-1.65,2.75-2.98,0-5.97,1.34-8.09,1.34-2.59,0-5.26,3.38-7.7,4.32l-.94-7.46,11.86-16.02-6.99-4.4-.39-6.99-2.28,1.34,3.3-1.96.39-2.2,2.36.86,2.28-.63c2.67,1.34,5.58,2.67,7.23,1.81.86-.39.63-2.75,2.59-2.75h.31Z"/>
  <path id="007" data-bs-toggle="tooltip" data-bs-title="Calkiní" class="cls-1 estado" d="M481.2,636.01l-4.08-.24-2.75,5.26-2.75-.24.24,2.75-1.81-.47-1.41,1.81,3.77,4.32-.31,2.98h3.61l3.85,3.93-2.12,2.67,2.98,2.04,1.26-2.98h2.67l2.36,3.3-.86,1.18-3.3.31v1.49l6.91,1.49v1.26l-3.3,2.04v1.89l5.5,1.57.31,1.89-.31-2.04,2.91-2.43,3.3,2.04-3.77-2.36,1.26-1.73-3.3-1.02v-3.06l3.53-1.26-1.02-2.59,5.66-2.28v3.61l2.51-3.85h.31l-1.73-2.12,2.04-3.22,3.38,2.28-.39-2.91,3.38-2.12-1.57-5.18,3.38-4.16h2.04l.24-2.28-2.28.24-.39-2.51-6.91-4.32-.39-2.51,1.81-2.51-3.46-1.34-1.34,2.04-6.13-2.75-1.65-2.51-.24,1.89-1.57-1.18.24-2.04-7.3,1.57-3.61,2.98,1.57.94-1.18,7.23h1.18l-.94,3.22Z"/>
  <path id="008" data-bs-toggle="tooltip" data-bs-title="Calkiní" class="cls-1 estado" d="M513.56,230.48l2.04-1.49,6.83,1.18,1.18,6.05,4.01,1.49,8.25-6.05-1.57-5.34,1.57-3.69.79-6.68,2.51,1.65,1.73-3.06-.71-.94-3.22-3.69-2.59,2.59-8.25-4.48.94-1.02-5.11.08-17.75,16.73,9.35,6.68Z"/>
  <path id="009" data-bs-toggle="tooltip" data-bs-title="Calkiní" class="cls-1 estado" d="M511.83,724.21v2.51l2.43,3.38-6.13,3.38.24,4.01,1.89.63-.94,2.2-2.43.31-.94,1.81-.94-4.01-4.95,5.89.55,1.26.16-.63,4.08.31,5.42,5.42,4.4-1.65,1.96-1.73,2.43,1.1h1.65l1.02-.86,5.26-1.1v-1.89l1.89-1.65.55-.24-.55-.86-.79-.55h-2.2l-.31.86-1.34.79-3.85-2.98-4.63-6.83,8.48-4.71-1.41-3.77,2.12-5.58h-.47l-3.38,2.12-1.26,3.38h-3.06l-.94-2.12-1.89,3.38-2.12-1.57Z"/>
  <path id="010" data-bs-toggle="tooltip" data-bs-title="Calkiní" class="cls-1 estado" d="M812.36,667.11l8.95-5.34,14.45-8.88,3.38,4.24-1.65,6.6,9.5,12.88,2.91-3.77,3.22.63.86,3.53-3.69.86-13.27,4.56-8.64,4.95-13.27,13.2-5.81-4.08-2.43,3.3-5.42,2.51-4.95-1.73-4.56,2.51v4.08l4.56,4.24-1.65.79-9.11-4.56-2.51-7.07-3.69,4.16-4.16,1.26-4.56-4.56-2.51,1.65v4.16l-4.95-1.26-12.02-8.95,1.02-1.89-1.41-1.81,2.83-2.04-6.28-9.03,2.91-2.43,14.61-2.83.47-2.51,16.1.86,2.04,7.85,5.42-1.65,1.26-3.3,9.5-5.42.86,7.46,5.73,1.26,5.42-3.69.55-10.76Z"/>
  <path id="011" data-bs-toggle="tooltip" data-bs-title="Calkiní" class="cls-1 estado" d="M431.72,806.29h-8.48l-5.11,8.88h-8.88l-2.91,1.73-4.08-4.71,3.46-.71-.47-3.53-4.01,1.49-3.22-.94-.47,1.49-2.75-1.81v-6.68l1.96-1.02,6.21,2.51.79,2.2,1.96-.24,2.28,2.28,3.46-5.26.31-2.75,2.75-1.02,2.43,1.26,1.26-2.98-1.02-.71v-4.24l15.08,2.12-.16,1.02,5.03,1.02v3.38l-5.42,7.23Z"/>
  <path id="012" data-bs-toggle="tooltip" data-bs-title="Calkiní" class="cls-1 estado" d="M703.17,493.76l-16.34-7.62,1.34-3.93-4.01-2.12-5.42,8.72.94,3.69,8.33,2.67v2.91l9.11,6.6,3.85-.39,1.18,2.67,1.73-.31-.24-.55,4.24-5.81h2.91l.39.55,1.57-3.46-9.43-2.28-.16-1.34Z"/>
  <path id="013" data-bs-toggle="tooltip" data-bs-title="Calkiní" class="cls-1 estado" d="M745.12,701.36l3.14,3.3-2.12,8.72,10.21,3.53-.08-2.51,2.67-1.96v-3.06l3.61,1.57,1.26-4.87-.47-.08-12.02-8.95-1.73,3.22h-3.22l-1.26,1.1Z"/>
  <path id="014" data-bs-toggle="tooltip" data-bs-title="Calkiní" class="cls-1 estado" d="M624.23,227.89l3.53-6.28,2.28.31v-2.2l-6.13-2.12-.55-1.96-1.65,1.41-13.43-1.57c1.02,1.89-3.38,1.65-3.38,2.59,0,1.73.24,2.75.24,5.11,0,5.34-1.49,1.73,1.65,4.87,1.49,1.49,3.46,2.83,4.32,4.48l5.18-2.12,2.59,1.1,2.83-2.2,2.51-1.41ZM611.12,232.52h0ZM608.29,215.4h0Z"/>
  <path id="015" data-bs-toggle="tooltip" data-bs-title="Calkiní" class="cls-1 estado" d="M556.37,481.51l3.53.16,1.26,14.14h3.3l-.55,10.21-1.89,1.26,1.65,6.75,6.36.71-.08,1.57-7.38,7.38,1.34,1.81-3.46,2.2-3.69-5.5-8.56,2.91-1.26-2.51-3.61,1.26v2.51l-2.91.55-5.26-1.96-5.89,1.96.08-.16-2.04-2.36,4.79-1.1.71-2.75-2.04-2.67-.71-2.36h3.06l1.02-1.65.47-1.96,2.98-.55,1.65-2.98,3.14.94,5.18-6.05,1.73-6.68,4.24-3.14,2.75-9.98.08-1.96ZM544.2,513.16l-1.65-1.18,1.65-3.38,2.67,1.57v1.81l-2.67,1.18Z"/>
  <path id="016" data-bs-toggle="tooltip" data-bs-title="Calkiní" class="cls-1 estado" d="M561.32,315.62h3.22l4.01,4.87,10.13.39,2.04-2.43,12.57-1.65,2.04-2.83h4.48l4.01-.86-.39-5.58,3.3-2.91-8.95-10.53-7.7,1.26-1.26-4.08h5.26v-5.26l-5.89-1.18.08,1.1h-8.88v-5.58h-6.68l-.39,3.38.08-.79,1.41,1.41v7.7l-6.44-.39v19.09h-7.3l1.26,4.87Z"/>
  <path id="017" data-bs-toggle="tooltip" data-bs-title="Calkiní" class="cls-1 estado" d="M720.22,279.33l2.91,3.38-9.11,12.49-1.41,9.74-5.97,2.12-.71-13.59-4.32-4.08,1.65-8.8,9.74,1.49,5.81-3.53.39,1.73,1.02-.94Z"/>
  <path id="018" data-bs-toggle="tooltip" data-bs-title="Calkiní" class="cls-1 estado" d="M661.39,726.65l-3.61-4.01-6.36,10.13-8.88-10.13-8.88,6.28-7.3-7.3.63-1.73-10.6-12.65,9.43,11.23,1.96-.55,1.49-2.67h-2.67l-2.67-8.09,4.16-.71v-2.36l-1.49-.71-4.24-13.43,1.57-1.18,5.34,1.96v4.16h2.28l3.46-3.46-1.49-11.86-6.52-7.3-1.65.79.47-1.89,6.52,3.06,1.96-1.57,2.28,1.89,4.56-2.28,12.33,1.96,4.95-3.85,2.28,4.16h3.85l2.36-3.06,4.01,1.81,1.57-2.51,3.22.24-4.56,12.41-2.12-.94-2.28,2.51,3.93,6.05-.94,3.46,8.09,13.75-1.89,1.65v.94l-1.41-.24v3.06l-6.52,1.18-2.67,4.63,2.67,1.1v3.46h-4.95l-1.65,2.59Z"/>
  <path id="019" data-bs-toggle="tooltip" data-bs-title="Calkiní" class="cls-1 estado" d="M412.55,525.18l8.56,7.93v-3.06l3.69-.71.55,1.73,11.47,2.04,5.26,8.72,5.73,2.28v-2.51l9.5-3.3,5.03.31-1.73,2.2,1.96,1.26-.47,5.5,1.73,4.56,2.75-2.51-.47-2.75,3.22-2.51,3.22,1.02.55,1.96-4.79.47,1.26,7.54,2.98,1.96,3.06-1.96,1.49.47,1.02,7.3,4.48.47-1.26,1.96,1.49,1.02v2.98l-1.26,1.26-2.75-1.49-1.73,1.26v4.79l-2.04,2.43-1.26-.47-2.75,1.02h-4.63v-1.96l-1.96-.86,1.49-5.89-4.79-1.34-.39-2.83-3.93-.39-5.89,2.2-2.36-1.96-2.59,2.83v2.98l1.26.24.63,2.43h-1.89l-.47,6.52h-1.34l-6.28-11.31-3.06,2.83-4.32-1.96.86,4.56-.79-4.32-2.75-2.43-.24-10.21-2.04.16.63-2.2-6.52,1.02,2.04-.39-.63-3.22-5.03-4.48,2.51-3.77-2.51-4.48-2.75.47,1.26-1.26-3.3-5.73-2.98-.47v-2.04l4.24-5.89Z"/>
  <path id="020" data-bs-toggle="tooltip" data-bs-title="Calkiní" class="cls-1 estado" d="M584.1,578.04l-.16-4.32,2.43-.86v-2.67l2.04-1.34-1.81-2.67,5.11-1.18.24,2.67,2.28.94-.94,7.38,2.51,3.3-.71,3.85.47,3.53h-2.67l-1.57,4.01h-2.98l.08-.94-2.83-12.02-1.49.31Z"/>
  <path id="021" data-bs-toggle="tooltip" data-bs-title="Calkiní" class="cls-1 estado" d="M417.42,646.06l.24,1.34,5.11,1.18,1.18-.86,2.43,1.49-.63,4.48-4.16-.31-.63,2.43,2.75,2.36-2.12,2.12.39,3.06h0l-.39-2.91-1.34-.24-.24-2.67-4.01-1.89,1.57-2.36-2.36-2.75,2.43-3.22-.24-1.26Z"/>
  <path id="022" data-bs-toggle="tooltip" data-bs-title="Calkiní" class="cls-1 estado" d="M379.01,566.97l4.4-9.43,3.53.94v6.75l4.32-2.51.39-5.5,2.28.39,7.15,12.25-2.91,3.06,3.14,1.02,2.59-1.57.47,1.02,8.17-.86,8.95-5.11-1.41-5.73-1.65.63-1.65-3.3,2.91-.55v-2.04l6.52-1.02-.63,2.2,2.04-.16.24,10.21,2.75,2.43.79,4.32-9.35-1.96-.39,1.73,2.59.63v2.43h-1.34l-2.36-1.49-.63.16.16,2.43-3.46-1.73,1.34,3.69h-.86l-1.1-1.1-3.3,1.26-.39,6.99-1.34.24.47,2.59-.86.24-3.3-4.16-2.2.63-2.59,3.93.63,2.59-.39-1.81-3.53-.31,2.12-2.91-4.71-.79.79-4.48-3.38.24.47-2.28-4.56-4.16-5.66-.86-4.63.31,2.43-8.48-3.06-1.02Z"/>
  <path id="023" data-bs-toggle="tooltip" data-bs-title="Calkiní" class="cls-1 estado" d="M761.54,514.73l-6.13,13.12,13.9,17.28-2.51,7.62-12.96,8.33-7.93-8.17-4.24,1.96-3.69-2.98-1.81-21.76,5.5-2.59,2.59,1.65,7.46-3.61,6.52-11.31,3.3.47Z"/>
  <path id="024" data-bs-toggle="tooltip" data-bs-title="Calkiní" class="cls-1 estado" d="M479.55,748.17l-1.73-2.59-2.75.55.94-4.87,2.12-.31v-3.14l-2.12.31-4.01-4.95-1.89-7.7-2.2.16-4.01,5.58-3.14-2.2-3.53,2.67,4.87,1.34-3.06,1.73h-4.01l-3.06-3.53-8.33,7.38,1.81,2.67,3.06-.63,2.12,4.63-3.38,4.63,3.38.63v5.5l-3.38-1.81.94,6.44h1.81v3.14l-1.81.55v1.57l1.57.63v2.12l1.18.31,2.2,4.01-.63,2.04-.86-.31,2.75,1.02v2.04l4.4,5.73,1.34-4.71,4.71,1.34v.08l5.81-2.83,2.98-6.75-.31-2.36,1.89-.16.86-1.18-5.42-1.02,2.67-4.71-2.04-2.75v-3.38l3.77-2.36h2.36l-.39-2.67,2.04-2.04.47.16Z"/>
  <path id="025" data-bs-toggle="tooltip" data-bs-title="Calkiní" class="cls-1 estado" d="M704.35,199.77l-2.04,3.14,2.67,6.68h1.49l2.59,11,6.91,2.51,2.43,4.08-.47,1.89,4.24,9.58.31,1.49,5.89.39,1.02-28.28-2.83-6.75,1.1-5.03-1.49-5.5,2.67-.16-17.99,1.18-1.73,2.2-2.2-1.96.24,3.14-1.96.79-.86-.39Z"/>
  <path id="026" data-bs-toggle="tooltip" data-bs-title="Calkiní" class="cls-1 estado" d="M411.92,485.2l2.36-.55,4.87.79,12.57,4.48,2.59-1.02,9.11,3.46,1.41-1.41,1.89-.24,1.18,1.65,4.63.94,1.89-1.18,4.63,2.04-2.67-2.83,1.41-2.43,9.27,5.18-7.38,6.91,1.41,1.65.39.08-1.02,1.18-6.05-3.06-1.26,5.66-2.04-1.41-.79,1.41-6.21-3.77,1.02.08-3.61-2.51-3.3,1.49-2.36-2.51-3.53-.55-3.38.55-13.59-11.31h-3.85l1.81-2.04-1.41-.71Z"/>
  <path id="027" data-bs-toggle="tooltip" data-bs-title="Calkiní" class="cls-1 estado" d="M740.64,769.77l-8.09,6.05h-8.88l-11.39,12.72-1.26,26.63h-11.39l-7.62-17.75-7.62-5.11,2.51-12.65-9.27-8.01,1.57-3.61,11.86-2.51,4.24-8.25-4.79-3.93-2.59,6.21-5.66-5.97h-1.65l-4.87,4.87-4.24-2.04-4.08,6.36-8.4-7.23,8.88-21.52-1.65-1.81,5.26-2.67,13.59,2.83-3.38,6.52,4.24,1.73,3.69-2.83,3.69.86,6.21,9.27h5.66l1.96-1.41,15.32-1.65.55-6.52,5.97,8.48,7.85,3.69-1.41,7.3-1.96,2.04,7.15,9.9Z"/>
  <path id="028" data-bs-toggle="tooltip" data-bs-title="Calkiní" class="cls-1 estado" d="M629.58,221.84l.08,2.75,2.04,2.28-1.18,3.3,4.16,2.98-.71.08-1.1,1.81-3.61.63-1.49-1.1-3.06,1.96-1.81-2.04.31-2.2.79-.94.55-3.61-2.83,1.57,2.51-1.41,3.53-6.28,1.81.24Z"/>
  <path id="029" data-bs-toggle="tooltip" data-bs-title="Calkiní" class="cls-1 estado" d="M664.14,217.91l.31,3.93,5.97,2.51.79-7.78,6.28-1.41.24-4.48-5.26-2.83-1.18.63,2.2,2.91-5.03-.63-3.53,4.56,2.12,2.59-1.65.94-1.26-.94Z"/>
  <path id="030" data-bs-toggle="tooltip" data-bs-title="Calkiní" class="cls-1 estado" d="M633.03,231.97l3.3-5.89,2.91-1.1-.71-.24,1.73-7.93-2.75-3.46,2.12-3.77-1.57,2.67-1.49-.86-6.21,8.4-2.91-.94h0l2.59.86v2.2l-2.28-.31,1.81.24.08,2.75,2.04,2.28-1.18,3.3,2.51,1.81Z"/>
  <path id="031" data-bs-toggle="tooltip" data-bs-title="Calkiní" class="cls-1 estado" d="M508.77,633.89l1.65-2.83,3.46,2.51,3.69-5.89.39-1.41,2.36,1.49,1.02,3.38,1.96-1.26,1.41,1.1-.86,1.89,3.85.86v-.63l2.51.86,2.43,2.12-.55,2.59,3.06.94,1.41-3.38,1.73-1.1.71,2.67h4.08l1.26,1.18,2.28-2.12-2.51,2.36-1.26,2.83,2.04,3.3-5.11,1.81-.24,3.77-4.56,2.83-10.21-3.85-3.3,2.83-1.73,2.51-5.34-2.51-4.87,1.73-.47,6.36-3.06-3.53h-2.98l-1.73-2.12,2.04-3.22,3.38,2.28-.39-2.91,3.38-2.12-1.57-5.18,3.38-4.16h2.04l.24-2.28-2.28.24-.39-2.51-2.36-1.41Z"/>
  <path id="032" data-bs-toggle="tooltip" data-bs-title="Calkiní" class="cls-1 estado" d="M359.45,771.58l.39-.79-11.47-11.39v-7.62h-10.21v-2.2h3.38l-4.71-5.5,2.04-4.71,5.11-4.79h-3.06l.31-3.06h6.13l.63,3.06,2.43-2.36,2.36,2.75,2.36-1.73,10.21-1.73,5.11-5.03-.39-1.41-2.36,1.73-6.44-.71.71-6.44,2.67-.31-2.04-4.79,3.06-.63,10.92,13.9,2.98-2.04,4.48,5.73v2.04l-5.5-.63v2.67l-2.67-2.36-11.55,5.42-.31,3.77h1.65v2.67l2.04,3.46h2.75l-.39,5.73-4.71,2.36.71,3.06,2.67-2.36,2.36,3.06,5.11-1.73.79-1.89h3.06v3.3l2.28,1.49-.24,4.79,2.51.24-4.56,5.11h-3.3l-.79,1.34.39-.08-8.25,1.26v-2.2l-8.64-.47Z"/>
  <path id="033" data-bs-toggle="tooltip" data-bs-title="Calkiní" class="cls-1 estado" d="M369.74,618.73l-1.02-10.21,5.03-10.13-7.62-3.85,12.88-27.57,3.06,1.02-2.67,9.19-2.83,2.98,1.96,2.36-4.32,5.11,2.36,1.34-1.81.71h-2.2l-1.96,3.46.94,1.49h1.57l-.39-1.49,8.01,3.69,2.2-1.89,1.81,1.89.47,6.13-1.18,1.34-3.38.63-1.1-2.59-.79.31-.55,3.69-2.43,2.2,3.22,4.24-.79,2.67-1.89-1.81,1.02,1.81-1.34.55-1.57-1.89-4.71,4.63Z"/>
  <path id="034" data-bs-toggle="tooltip" data-bs-title="Calkiní" class="cls-1 estado" d="M490.63,475.38l9.82,3.06-4.24,7.54,1.49,1.57-1.89,2.28.71.86-1.34,2.67-1.1-1.73-2.59,3.06.08-2.12-2.98,3.69.08-1.34-.94-.39-1.26,2.75-7.07-5.34-.71-4.24,1.57-4.01-.08-4.32,2.75,2.67,1.49-2.98,5.18,3.61v-2.28l1.02-5.03Z"/>
  <path id="035" data-bs-toggle="tooltip" data-bs-title="Calkiní" class="cls-1 estado" d="M829.09,750.37l-10.29,10.29-15.24,1.26-13.9-15.24-.39.24.63-3.69-10.68-19.71,5.26-3.85,3.69-10.76,2.51-2.91,6.21,5.81,6.6-.47,12.88-5.73,3.3,4.56-.16,3.93-1.18-1.49-2.91,4.63,1.65,1.89-4.95,2.91-1.89.63.63,4.4-3.77,3.53v1.26l2.04.39,4.01,4.4,4.79.63.24,2.67-3.14,2.75.63,1.41,4.56-2.04,1.49,1.89,6.68-3.53,1.65,3.3-3.3,2.51.63,2.51,1.73,1.65Z"/>
  <path id="036" data-bs-toggle="tooltip" data-bs-title="Calkiní" class="cls-1 estado" d="M829.09,750.37l-1.73-1.65-.63-2.51,3.3-2.51-1.65-3.3-6.68,3.53-1.49-1.89-4.56,2.04-.63-1.41,3.14-2.75-.24-2.67-4.79-.63-4.01-4.4-2.04-.39v-1.26l3.77-3.53-.63-4.4,1.89-.63,4.95-2.91-1.65-1.89,2.91-4.63,8.17,10.68,5.18-5.66,4.24-.63-.63-2.75,2.51-3.53h3.06v-3.93l9.43,1.02.86-2.75,3.69-1.41.24-1.89-1.49-2.75h5.89l4.56-3.93,1.89,7.7,5.03-.79,2.12,2.28.63,7.7-2.12,2.51-2.75-.39.24,1.41-3.14.24-2.51,2.28-2.91,7.78-5.03-2.12-1.65,10.21,3.14,3.77-5.18,5.26-11.47-3.85-11.23,11.31Z"/>
  <path id="037" data-bs-toggle="tooltip" data-bs-title="Calkiní" class="cls-1 estado" d="M602.4,682.27l-2.28,1.18-5.34,6.13h5.73v2.67l-7.7,5.34,2.75,6.52,7.62-.31-.71,3.61,2.51-.31.86-4.16,5.5.47v-8.25l2.75.94,1.41,10.05,10.29,12.33,1.96-.55,1.49-2.67h-2.67l-2.67-8.09,4.16-.71v-2.36l-1.49-.71-4.24-13.43,1.57-1.18,5.34,1.96v4.16h2.28l3.46-3.46-1.49-11.86-6.52-7.3-3.85,1.96-2.28,3.06,2.67,1.89-.79,1.89h-3.85l-2.28,2.75-1.89-3.06-4.24-.39,1.18,5.73-3.46,1.89-2.36-6.13-3.46.39Z"/>
  <path id="038" data-bs-toggle="tooltip" data-bs-title="Calkiní" class="cls-1 estado" d="M603.89,549.69l.16-3.85,3.22-.24.79-2.83-4.01-.79,4.01-5.18,2.12-.79,2.59,2.43-.39,1.81-1.81-1.1-.55,2.67,12.02,5.5-1.02,3.06,5.26,2.51-.08.08-.31,2.2-.94.31-2.36-1.96-.47-.39-8.95-3.14-1.81,4.4-2.2-1.26v-.79l-5.26-2.67Z"/>
  <path id="039" data-bs-toggle="tooltip" data-bs-title="Calkiní" class="cls-1 estado" d="M620.07,248.54l7.85-5.81,2.83,1.18-2.04,5.42,2.98,2.43-2.67,2.91-5.11-.94,1.18,14.37,3.85-1.26.63,1.34h-.16l-6.13,3.61,2.43,4.08-3.61,2.04h-11.78l-2.91-7.7c.47-.94.94-1.81,1.1-2.43.55-1.65.71-3.69.71-5.5,0-2.04,2.04-1.49,2.04-3.14,0-.55-1.1-3.85-.08-3.85,3.53,0,3.3-3.69,4.79-4.16.55-.08,3.14.31,3.46,0,1.18-1.18,1.18-2.04.63-2.59Z"/>
  <path id="040" data-bs-toggle="tooltip" data-bs-title="Calkiní" class="cls-1 estado" d="M529.27,526.91l5.89-1.96,5.26,1.96,2.91-.55v-2.51l3.61-1.26,1.26,2.51,8.56-2.91,3.69,5.5,3.46-2.2-1.34-1.81,8.01-8.01.94,5.11,8.33.31.24,2.2-4.95.39,1.73,4.24-1.73.47-.16,3.77v2.2h2.51l-.71,1.81-3.85-.86-5.97,3.46-.39,1.41,2.59.79-.71,1.41,2.36.71,1.41,3.14-4.56-1.81-10.53,3.46-3.3-1.1-1.26,4.71-7.3,1.02-2.59-1.34v-2.83l-4.32-1.57.39-.16-5.11-5.03v-3.38l-5.03-2.04v-4.01l.63-5.26Z"/>
  <path id="041" data-bs-toggle="tooltip" data-bs-title="Calkiní" class="cls-1 estado" d="M498.79,477.97l10.6,3.38-3.46-1.1-1.57,10.76-4.08,10.13-2.67.31v.08l-2.51,1.34.47.24-2.43-1.02-1.34.63-.86-1.49-.71.86.86.55-.79,1.26-1.65.31-2.75-2.28-.55-2.51,1.1-2.12h0l1.26-2.75.94.39-.08,1.34,2.98-3.69-.08,2.12,2.59-3.06,1.1,1.73,1.34-2.67-.71-.86,1.89-2.28-1.49-1.57,4.24-7.54-1.65-.47h0ZM486.31,497.22l-1.34-1.02h0l1.34,1.02ZM495.57,503.58l1.81.31-.16,1.65-1.65-.71v-1.26ZM495.02,506.33l.63.31,1.26,2.04-.08,1.02-.55.31-2.36,2.43h-1.02l.63-2.2-2.04.16.24-2.43h2.51l.79-1.65Z"/>
  <path id="042" data-bs-toggle="tooltip" data-bs-title="Calkiní" class="cls-1 estado" d="M493.92,686.9l-2.28-14.69,2.91-2.43,4.08,2.51,3.53,2.04,4.08-4.32,1.57-4.32h2.28l1.49,2.28,2.83-.24-.79-2.04,3.06-1.02,3.77,4.32,10.45-3.85,2.04,1.81,1.73-3.85.31-1.96,4.79,1.96-.79,1.81.24,1.81,1.89,1.81-.86,2.75v5.5l2.75.94.47,3.69-2.75-1.81-5.5-3.69-3.22,6.44,7.3,3.61-.39,1.89-9.66-1.41-9.66,4.63.47,5.03,9.66.47-8.25,9.11-5.97-3.14-2.75-6.91,1.81-2.75-4.56-1.41-2.75,5.5-7.85,1.41-1.81-4.16,1.34-3.14-2.28-1.41-2.75,2.75h-6.83v-3.69l6.83-1.81Z"/>
  <path id="043" data-bs-toggle="tooltip" data-bs-title="Calkiní" class="cls-1 estado" d="M682.91,218.85l-1.96,9.5-5.97,4.16-.86,6.44h4.63l-.86,12.72,7.3-3.69,2.43,1.49,8.8-1.1v-5.42l13.04,2.43,5.73-11.07-1.96-3.85,4.4-2.12.31.71.47-1.89-2.43-4.08-6.91-2.51-2.59-11h-1.49v-.08l-7.54,1.57-1.1-2.59-4.48,4.01-4.16-2.67-3.3,8.4-1.49.63Z"/>
  <path id="044" data-bs-toggle="tooltip" data-bs-title="Calkiní" class="cls-1 estado" d="M668.22,329.45l2.98,11.23,9.5-10.92,9.74-4.56,1.65,1.57,4.63-11.39,1.89,1.1,2.12,14.37,6.28-1.1.24,2.75-3.53,2.43-.47,3.77-6.52,17.12.24,17.59-4.08,1.65-5.42-2.98-5.11,6.28-5.26,2.59-.71-.71v-4.08l-10.21-1.41-2.2,3.3-2.75-4.4,1.65-3.3-2.43-1.34.31.16,2.12-6.75h-3.53l-1.96-8.25h-7.7l-1.41-1.65v-5.5l-3.38-1.02.94-.94,4.63-5.18h6.13l6.6-4.95,4.4-5.81.63.31Z"/>
  <path id="045" data-bs-toggle="tooltip" data-bs-title="Calkiní" class="cls-1 estado" d="M686.37,535l-2.91-8.09,1.96-2.91,6.83,4.56h2.28v-6.83l-2.28-2.91,4.87-11.07,3.93,4.24,4.56-1.96-1.96-3.93,4.24-5.81h2.91l4.56,6.52,16.26,4.16,2.28-1.57,26.63,3.85-.55,1.26-1.73-.24-6.52,11.31-7.46,3.61-2.59-1.65-5.5,2.59,1.57,19.24.31,1.65-10.68,1.57-2.98,4.79-1.26.79-3.22-1.02-1.34-6.21h-4.56l-3.22,2.28v5.11l2.59-.86-6.52,2.28-8.72-2.28-8.8-23.09-2.98.63Z"/>
  <path id="046" data-bs-toggle="tooltip" data-bs-title="Calkiní" class="cls-1 estado" d="M740.96,602.94l-.79,6.83,1.26,1.57-10.53,7.38-5.66.39-.71,7.93,2.98,1.49,5.26-2.28,3.46,7.54-4.16,4.95-7.23,2.91.16-.39-7.07-2.51,1.73-4.24-1.96-.86-7.7,3.69-2.59-1.18-1.34-2.2,2.51-5.97-1.81-.24,4.08-4.16v-4.87l2.67-2.67,3.38,9.43,3.06-1.1.39-5.26,4.87-3.46.39-5.66,3.77-5.66,11.55-1.41ZM702.94,636.24l-.39.24.16-.31.24.08Z"/>
  <path id="047" data-bs-toggle="tooltip" data-bs-title="Calkiní" class="cls-1 estado" d="M372.65,679.76l3.61,3.53-.55-5.58,16.57-3.46.47,2.2-6.21,4.87h-4.4l4.87,6.21,4.87-.94,4.87,11.55.39-4.87,9.74-4.87-.86-4.4,9.74,3.53,2.2,6.13,8.4-3.06,5.73,3.53-2.2,3.53-4.01-1.34-2.67,2.2,4.87.86,9.27,13.27h13.27l4.87,4.4h-6.68l3.14,2.67-2.2,2.67,6.6,3.53,4.4-.47,7.54-.39-4.4,6.13-3.14-2.2-3.53,2.67,4.87,1.34-3.06,1.73h-4.01l-3.06-3.53-14.61,12.88,4.87,4.4-8.8,4.4-2.67-1.73-.86,5.26,1.73,1.81-1.34,2.59-2.2-2.2-4.87,2.67-.39-3.06-5.34,5.26.24.71-.24-.08.79,2.28-3.53-.47.24-5.34-3.53,1.49,1.26,1.57-4.56.71-.79,5.34,1.57,1.49-.55,2.59,1.57,1.02-1.02.94-2.59-.71.31-2.04h-1.81l-3.06,2.28-1.49-2.51-2.28,1.02-6.36-3.3-1.02,3.77-2.51-1.49v-3.85l2.83-4.56,1.49-1.02,1.26-5.81-1.02-.47-5.03,5.81h-1.26l-.31-5.58,1.57-2.04-2.04-1.49-2.51,2.28-.55-1.49-5.81-2.28-2.04.71,1.57,3.85h.71l-.79,1.89-5.11,1.73-2.36-3.06-2.67,2.36-.71-3.06,4.71-2.36.39-5.73h-2.75l-2.04-3.46v-2.67h-1.65l.31-3.77,11.55-5.42,2.67,2.36v-2.67l5.5.63v-2.04l-4.48-5.73-2.98,2.04-10.92-13.9-3.06.63,2.04,4.79-1.81-4.24-1.96-.79,2.12-8.8-.63-.31,2.98-2.67h3.14v2.67l3.93,10.13,6.21,3.53,7.07-4.87h7.54l-.94-3.53,4.48-2.67-6.68-5.73,1.81-3.53h-7.54l2.67-3.93-5.73-7.07-6.21,4.79-2.2-7.07,1.34-3.93-1.57-1.57Z"/>
  <path id="048" data-bs-toggle="tooltip" data-bs-title="Calkiní" class="cls-1 estado" d="M409.64,471.46l1.1-.86-1.65-1.34,1.65-2.51,3.77-.55-.24,2.2,3.53-2.98,3.85-1.1-1.89,3.53,3.85-.79h2.98l.24-2.75,1.65.55.86-1.96,2.75.55.55-1.65,1.65.86,2.75-4.08.16-.08h-.08l3.93,1.89,3.06-1.02,1.02,1.81,1.26-1.18,2.67,7.3-1.49,1.02h-2.51v3.53h-3.3l-6.76,6.75-5.73-.55-.79,2.28-7.7-.24-1.26-1.49-2.28.24-1.26,1.49h-5.73l-1.41-2.51,1.02-2.28,3.53-1.65-3.53-2.43h-.24Z"/>
  <path id="049" data-bs-toggle="tooltip" data-bs-title="Calkiní" class="cls-1 estado" d="M559.51,215.32l1.1,1.1-1.81,3.77,4.16,8.01-2.59,2.75,1.81,1.57,1.96-2.75,2.51-.16,6.52-6.13,6.44,4.56,6.36-3.77.39-6.68,3.3-1.96.39-2.2-5.5-1.89-.94-2.75-2.83-1.41,1.65-5.11-1.41-2.2-3.14-.16-3.53,2.36-5.5-1.57-.24-2.75-1.81.39.08,2.04-9.11,8.09,5.11.71.71,2.51-4.08,3.61Z"/>
  <path id="050" data-bs-toggle="tooltip" data-bs-title="Calkiní" class="cls-1 estado" d="M832.62,442.32l1.02,1.81-4.63,14.53-12.17,6.91,3.77,7.54,4.71,18.54-13.12-14.22-20.11-.16,2.04-11.07,4.56-4.08,4.95,2.59-2.04-4.79,7.15-7.15,6.21-.86,4.08,4.4,9.9-4.63-2.04-5.11,5.73-4.24Z"/>
  <path id="051" data-bs-toggle="tooltip" data-bs-title="Calkiní" class="cls-1 estado" d="M376.03,680.78l-3.77-37.23,6.99-.24-.79-2.91.55-4.32,3.77.31-.31,4.56,3.22,1.57,4.01-5.66-.24,2.75,6.68,2.36.86-1.89,3.46,1.1,2.43-3.46,5.58,2.67-.24,1.57,5.66,4.32-.31-3.22,3.22-.24.86,4.48-2.43,3.22,2.36,2.75-1.57,2.36,4.01,1.89.24,2.67,1.34.24,2.36,18.38,2.75.31v2.98l-10.84,5.73,1.34,3.77-1.41-4.08-9.74-3.53.86,4.4-9.74,4.87-.39,4.87-4.87-11.55-4.87.94-4.87-6.21h4.4l6.21-4.87-.47-2.2-16.57,3.46.31,3.06Z"/>
  <path id="052" data-bs-toggle="tooltip" data-bs-title="Calkiní" class="cls-1 estado" d="M535.87,626.9l1.57.31c1.02,0-1.41.94-.39,1.41,1.1.55.94-.47,1.96,0,1.1.55,2.12,1.1,2.12,1.1l1.96-1.96,2.83-.55c.86-.47,2.98.71,2.98.71l1.96-1.41,2.12-.47-1.41-1.65,2.83-1.41,1.57,1.81h8.64l1.18,1.18,3.38-2.36-2.91-1.34v-1.18s-1.41,1.02-1.41-.94l-.24-1.73-1.02,1.57-1.41-2.28s-.39.86-1.26.86-1.26-1.73-2.83-1.57-1.02,1.57-2.67,1.57-2.59-2.12-2.98-.55c-.31,1.65.39,1.41-.71.94-1.02-.55-1.57-.71-2.83-.55l-2.67,1.73-2.28.24-2.12,2.28-1.26,1.41-3.3.71-1.41,2.12Z"/>
  <path id="053" data-bs-toggle="tooltip" data-bs-title="Calkiní" class="cls-1 estado" d="M551.89,328.97l-4.4-13.35-11.47,13.98h-15.16l-17.75,2.51-6.36-7.62v-7.62l11.39-5.03v-6.36l-7.62-1.26-7.62-25.37-8.88-6.36,12.72-16.49,15.24-1.26,2.43-10.92,4.87.16,3.69,9.66,3.69-.71.79-5.97,6.68-.39,11.08,13.35-2.91,4.48,6.68,5.18,1.41-3.69,5.26.71.71,7.85,15.95,9.27.08-.79,1.41,1.41v7.7l-6.44-.39v19.09h-7.3l1.57,6.05h-3.22l-6.52,12.17Z"/>
  <path id="054" data-bs-toggle="tooltip" data-bs-title="Calkiní" class="cls-1 estado" d="M696.58,330.7l-1.02-20.11,23.88-33.54,10.05-.71,7.85,8.4-9.11,47.44-19.32,7.3-12.02-2.28-.31-6.52Z"/>
  <path id="055" data-bs-toggle="tooltip" data-bs-title="Calkiní" class="cls-1 estado" d="M608.53,799.7l3.61,15.47,1.34-1.65v2.67l4.56,4.56-2.12,8.33-11.39-3.77-11.39,7.62-8.88-5.11,5.03-7.62-11.31-4.48,4.4,1.73,3.46-3.85-1.89-8.17,5.26-1.34,4.79-3.93,14.53-.47Z"/>
  <path id="056" data-bs-toggle="tooltip" data-bs-title="Calkiní" class="cls-1 estado" d="M443.65,738.59l1.81,2.67,3.06-.63,2.12,4.63-3.38,4.63,3.38.63v5.5l-3.38-1.81.94,6.44h1.81v3.14l-1.81.55v1.57l1.57.63v2.12l1.18.31,2.2,4.01-.63,2.04-.86-.31-8.8,3.38-4.01,7.15-4.4-1.41-1.41,6.28-1.1-.94-1.73-5.58,3.77-3.77,3.06,1.02.24-1.26-7.62-11.15-5.03.79,2.98,3.3-1.73,1.26-3.53-3.3.71-1.26-.71-3.3-4.63-1.73-.24-.71,5.34-5.26.39,3.06,4.87-2.67,2.2,2.2,1.34-2.59-1.73-1.81.86-5.26,2.67,1.73,8.8-4.4-4.87-4.4,6.28-5.5Z"/>
  <path id="057" data-bs-toggle="tooltip" data-bs-title="Calkiní" class="cls-1 estado" d="M511.83,167.41l-8.72,7.46-15.24,2.59v-11.47l7.62-12.65,16.34,1.26,2.36,3.77-.31,3.3h-2.2l.16,5.73Z"/>
  <path id="058" data-bs-toggle="tooltip" data-bs-title="Calkiní" class="cls-1 estado" d="M774.26,428.57l3.46,5.97,6.36-3.77,8.25,1.02-3.69,3.06.55,6.05,6.36,4.71-8.25,2.59-3.3,14.14,1.89,2.2-5.18.71-8.25,3.3-.24,1.1-5.89,2.04-.94,2.91-4.56-1.96-.71,1.26-3.06-3.14,4.95-6.44h-1.96l.86-13.35,5.73-4.24-.55-4.4h-2.98l2.59-13.9,8.56.16Z"/>
  <path id="059" data-bs-toggle="tooltip" data-bs-title="Calkiní" class="cls-1 estado" d="M471.93,732.93l1.26-.94,4.95,3.06,4.63-1.89-.63-2.75,1.89-.31,6.21,4.95h1.18l-.94-2.2,2.51-1.49-1.57-3.69,1.57-.63,3.69,7.38,2.51-.31v-3.06l7.38-3.06h6.13l1.57,2.12-6.13,3.38.24,4.01,1.89.63-.94,2.2-2.43.31-.94,1.81-.94-4.01-4.95,5.89.55,1.26-.55,3.06-5.73,1.73-.31,5.11-3.77-1.02.39-3.38h-2.75l-2.04,1.96-1.96-3.38-4.32-1.49-1.73-2.59-2.75.55.94-4.87,2.12-.31v-3.14l-2.12.31-4.01-4.95-.08-.24Z"/>
  <path id="060" data-bs-toggle="tooltip" data-bs-title="Calkiní" class="cls-1 estado" d="M456.93,490.46l-2.59-1.65,1.18-1.73-5.5-.24.31-2.98-4.01.94v-1.96l-4.56,1.73-3.22-1.02-1.49,1.02,4.24,2.75.47,2.75-.47,1.41,2.12.86,1.41-1.41,1.89-.24,1.18,1.65,4.63.94,1.89-1.18,4.63,2.04-2.67-2.83.55-.86Z"/>
  <path id="061" data-bs-toggle="tooltip" data-bs-title="Calkiní" class="cls-1 estado" d="M835.76,652.89l8.4-5.11,10.13,5.11,6.36-5.11,13.82,16.26-5.58,2.59,1.57,8.17-1.1-5.58-9.11-3.38-5.81,2.43,2.43,3.77h-4.08l1.18,4.95-.86-3.53-3.22-.63-2.91,3.77-9.5-12.88,1.65-6.6-3.38-4.24Z"/>
  <path id="062" data-bs-toggle="tooltip" data-bs-title="Calkiní" class="cls-1 estado" d="M466.2,621.32l2.43,2.36,2.28-3.22.79.55-.31,3.38,1.49-.31.79,2.91-1.96,2.12,2.36,5.26,1.89-.86,1.18,2.28-2.75,5.26-2.75-.24.24,2.75-1.81-.47-1.41,1.81-.16-.16-4.79,2.36-.86-5.66-3.3-1.49,1.49-2.36-3.3-2.75.31-3.22,2.98-5.11-1.49-2.43-2.12,1.49h-2.98l-3.53-5.34.08-.16h0l-.08.16,1.49,2.28,8.25-3.53.16,2.67,4.95,1.18.47-1.49Z"/>
  <path id="063" data-bs-toggle="tooltip" data-bs-title="Calkiní" class="cls-1 estado" d="M753.84,561.08l-8.56,5.58-.86,7.3-4.01-1.34-2.28,2.28-3.61-.39.31-3.06-8.09-8.8-6.52,1.65-.31-4.24-5.18.94-1.34-3.53-2.59.86v-5.11l3.22-2.28h4.56l1.34,6.21,3.85,1.26,3.61-5.81,9.43-1.65,4.87,3.93,4.24-1.96,7.93,8.17Z"/>
  <path id="064" data-bs-toggle="tooltip" data-bs-title="Calkiní" class="cls-1 estado" d="M584.73,52.18l-.47-2.83v-8.88l-6.36-7.62,15.24-30.4h8.88l5.03,7.62,13.98-3.85,13.9,6.36-2.51,16.49-8.88,7.62,6.36,16.49,9.98,19.87-5.81,1.34-2.28-4.24-4.87-1.34-7.85,5.18-1.96-.94v-4.56l-8.48.31-1.96-2.59-9.11,3.53-3.93-6.83-2.36-14.06-6.52,3.3Z"/>
  <path id="065" data-bs-toggle="tooltip" data-bs-title="Calkiní" class="cls-1 estado" d="M651.49,502.09l4.56-.71,2.2,5.5-.86,1.81,3.53,1.26,4.56-2.59,2.43,1.96,1.65,11.47-4.32,1.96-1.1,2.36,3.14.24.63,3.06-7.46,3.3-2.67-5.03-9.66,3.06-1.26-1.34-1.34,2.67-7.38-2.59,7.38-19.79,2.59,1.49,2.2-5.03,2.04-.71-.86-2.36Z"/>
  <path id="066" data-bs-toggle="tooltip" data-bs-title="Calkiní" class="cls-1 estado" d="M539.87,803.62v6.44l-17.75,5.11,3.53-1.02.08-1.41-5.18,1.41-.94-3.14-3.14.39v1.73l-2.59,1.02-2.36-.79.79-7.54-1.34-.16-.79,3.14-1.81-.24.39-2.51-1.41-2.2,2.2-2.12,2.2,2.51,2.12-1.57,1.41-7.46-1.96-.79-.63.94-2.51-5.66,1.26-4.16,2.2.71.16-4.32-3.85-4.16,3.46-1.49,2.2,2.12,4.32-2.12-.71-4.32,3.46-5.03,3.06-1.02,2.2,1.89-1.34,1.34,1.1,1.49,2.59-1.26,4.32,2.83,3.06,7.93h2.2l1.65,7.38-2.83-.39,2.83,6.68-2.83,8.25,1.18,1.57Z"/>
  <path id="067" data-bs-toggle="tooltip" data-bs-title="Calkiní" class="cls-1 estado" d="M733.81,414.04l7.15-3.61,15.55,3.69.24,5.34-3.14,5.89-.39,6.21-8.01-3.3-3.14,8.25,4.4,4.95-1.65,3.85,1.81,2.2,5.5.16,4.24,10.6-4.79,1.65-5.66-10.45-5.89,2.75-6.36-2.91-4.95,9.27-8.48-4.48-.31-2.59-.63.24-.31-1.41-6.6-.94-8.48-20.03,7.23-3.85,1.26-5.11,5.11-3.85,16.18-2.04.16-.47Z"/>
  <path id="068" data-bs-toggle="tooltip" data-bs-title="Calkiní" class="cls-1 estado" d="M623.37,215.63l.55,1.96,6.44,2.2,6.21-8.4,1.49.86,4.79-8.48-.08.08-1.41-3.14,1.96-4.56-5.5-5.26-2.91-.24-1.41,5.5-2.12,1.18-1.81-.55,1.26.39.08,3.22-1.81-.94-3.77,5.34,2.98,6.6-4.95,4.24Z"/>
  <path id="069" data-bs-toggle="tooltip" data-bs-title="Calkiní" class="cls-1 estado" d="M458.81,583.54l-1.57-3.46-1.49.24-.63,3.22-7.38,6.28-3.69-4.56,1.02,7.23-2.36-.71v2.59l-4.16-.39-.63.86,1.34.86-.71,2.59-1.73-1.26-3.22,3.69-3.69,2.59-3.06,2.59v-3.06l-3.46-5.66-2.59,2.67-.86-2.67,2.12-2.59-2.59-1.26-4.56,3.46-.63,3.93-3.06-.86,1.1,5.66,1.73-1.96,2.2,2.98-3.53.24v2.59l-2.36,1.1.55,3.69v-.08l-6.13,2.2.24,2.67-4.32,3.77-1.02-.86.55-6.13-1.89-1.89-3.77.24-2.98,2.2,1.65.79-.31,2.91h-2.67l-2.67,2.98h-2.91l-.55-4.79,3.22-1.89-2.98-2.98.08-.55,1.81-.31,2.12,1.96,1.57-1.1-.86-2.59,1.1-2.36,7.38-2.2,4.08,1.26,1.34-1.26,2.59,3.06,2.83-2.43-.47-1.49h-1.73l-1.1,1.1-2.59-1.96.47-2.2-2.43-1.73.24-3.3,1.1-1.26-.86-2.2,2.12-.24-.63-2.59,2.59-3.93,2.2-.63,3.3,4.16.86-.24-.47-2.59,1.34-.24.39-6.99,3.3-1.26,1.1,1.1h.86l-1.34-3.69,3.46,1.73-.16-2.43.63-.16,2.36,1.49h1.34v-2.43l-2.59-.63.39-1.73,9.35,1.96-.86-4.56,4.32,1.96,3.06-2.83,6.28,11.31h1.34l.47-6.52h1.89l-.63-2.43-1.26-.24v-2.98l2.59-2.83,2.36,1.96,5.89-2.2,3.93.39.39,2.83,4.79,1.34-1.49,5.89,1.96.86v2.59l-3.53,1.34-.86,4.71h-1.1v-3.22l-2.12,1.73Z"/>
  <path id="070" data-bs-toggle="tooltip" data-bs-title="Calkiní" class="cls-1 estado" d="M517.96,626.27l2.36,1.49,1.02,3.38,1.96-1.26,1.41,1.1-.86,1.89,3.85.86v-1.57l4.24-1.18-.86-2.12,1.57.47.55-1.89h2.28l1.81-2.67,3.3-.71,1.26-1.41,2.12-2.28,2.28-.24,2.67-1.73c1.26-.16,1.81,0,2.83.55,1.1.47.39.71.71-.94.39-1.57,1.41.55,2.98.55,1.65,0,1.1-1.41,2.67-1.57s1.96,1.57,2.83,1.57,1.26-.86,1.26-.86l1.41,2.28,1.02-1.57.24,1.73c0,1.96,1.41.94,1.41.94v1.18l2.91,1.34.08-.08,3.3-2.51,1.26-3.3,4.87-1.57,1.02-2.28-1.02-1.49,1.02-2.28-1.57-2.59-.79-2.75-2.75-2.59.16-.08-3.77-.08-1.96,1.57h-1.57l2.28-4.24-3.14.16-2.28,1.41-2.12-1.57-.71.86-4.79-2.67-.31-1.41-1.81.55-.55,1.26h-1.89l-.39-1.81-3.53.39-1.57-1.41h-1.26l-4.79,3.85,3.93,3.77h1.57l1.96,3.85-1.1,1.81h-1.89l-3.06-.39s-1.18.16-2.83.71c-1.57.55-.86,1.57-1.89,1.81-1.1.16-1.26-1.1-2.51-1.81-1.26-.71-1.73-.71-3.38-.71s-2.43,1.81-4.24,2.51c-1.73.71-2.83-.71-4.56.71s-2.43,4.95-1.57,3.14c.86-1.73-1.57,1.26-1.57,1.26l-.47,1.26h1.1v2.12l-2.12,7.3Z"/>
  <path id="071" data-bs-toggle="tooltip" data-bs-title="Calkiní" class="cls-1 estado" d="M526.13,208.02l7.38-7.78-8.88-5.03-1.1-7.23,7.54,2.51,5.89-8.01-2.2-8.01,2.51-4.08,5.11-1.1,6.6-13.9,4.79-1.02,2.51,5.11,6.6-4.08.71,2.98-1.41,1.81-5.11,2.2-.39,2.91,1.49,2.2,1.81-1.49,2.2,4.4-2.91,2.2-2.59-.31-1.1,1.41,1.1,4.01-2.2,3.69,1.49,1.1,4.32-2.2,5.5-1.49,2.59.39,1.81-.71,2.2,5.5-5.5,1.41v5.5h-2.91v2.59l2.59,1.1.31,5.81-9.11,8.09,5.11.71.71,2.51-5.81,5.18-4.79,4.71-1.41-3.3h-4.79l-5.11-2.51-1.49-2.2-3.22-3.69-2.59,2.59-8.25-4.48Z"/>
  <path id="072" data-bs-toggle="tooltip" data-bs-title="Calkiní" class="cls-1 estado" d="M662.88,186.65l3.93.16,1.1,17.28,5.58,7.3-5.03-.63-3.53,4.56,2.12,2.59-1.65.94-3.22-2.51-9.9.94v-9.58h1.41l1.34,1.34,1.49-.16,1.89-9.11,2.43.63,2.04-13.75Z"/>
  <path id="073" data-bs-toggle="tooltip" data-bs-title="Calkiní" class="cls-1 estado" d="M365.26,672.77l8.95,8.56-1.34,3.93,2.2,7.07,6.21-4.79,5.73,7.07-2.67,3.93h7.54l-1.81,3.53,6.68,5.73-4.48,2.67.94,3.53h-7.54l-7.07,4.87-6.21-3.53-3.93-10.13v-2.67h-3.14l-2.98,2.67-5.42-2.51,3.22-7.07-.71-1.02-5.26,1.1,1.73,1.34-1.81-1.41,1.41-10.92,5.34-1.81v-2.43l-3.22-.31,1.1-2.83,10.92,2.12,1.65-.94-6.05-5.73Z"/>
  <path id="074" data-bs-toggle="tooltip" data-bs-title="Calkiní" class="cls-1 estado" d="M390.32,489.6l2.36-15.32,4.08,4.01,2.75-.94,5.03,1.26,2.75-.79.47-1.96,2.51,4.48h5.73l1.26-1.49,2.28-.24,1.26,1.49,7.7.24.79-2.28,5.73.55,6.76-6.75h3.3v-3.53h2.51l1.49-1.02-2.67-7.3,1.02-.86h4.08l3.06,3.06.63-2.67,1.89,1.49v6.99l4.71-2.91,2.28-3.93,2.04,1.49,1.49-3.22-1.18-1.41,3.69,4.63,7.46,6.05-3.69,6.36,1.41-2.43-2.2-1.65-3.3,2.83-3.85,9.98,6.13,3.93-3.06-1.96-.47.86-2.98-1.57-.55,1.81.55,1.26-2.98,1.96,1.49,1.02-.39,1.1-5.89-3.3-1.41,2.43,2.67,2.83-4.63-2.04-1.89,1.18-4.63-.94-1.18-1.65-1.89.24-1.41,1.41-9.11-3.46-2.59,1.02-12.57-4.48-4.87-.79-2.36.55,1.41.71-4.87-2.36-4.16,2.59-7.7-3.61-4.63,5.11-1.34-.24-.31,2.2ZM415.38,487.95l5.73,4.79h0l-5.73-4.79Z"/>
  <path id="075" data-bs-toggle="tooltip" data-bs-title="Calkiní" class="cls-1 estado" d="M706.71,275.33l1.65-10.21,10.05-8.95,1.81-4.24,4.16-.55-2.2-12.72.31,1.49,5.89.39.08-3.53-.16,5.66,1.65,5.58h.39l-.71,17.52-2.51-1.18-5.81,6.99-.08,2.36-2.59,2.43-4.08-.79-2.28,1.65-5.58-1.89Z"/>
  <path id="076" data-bs-toggle="tooltip" data-bs-title="Calkiní" class="cls-1 estado" d="M740.17,182.49l13.27,3.46-2.43,15.08,6.21,7.85-.24,3.69-5.97,1.65-4.16,3.14-.55,4.16,4.71,7.07,3.69-1.18,2.51-5.58,14.69,1.57,1.26,5.97-12.72,10.21-2.51,15.16-10.13,16.49-.63,2.75-9.35-1.02.31-6.99,3.38-8.48v-2.51l-3.38,1.96-1.73-12.88-2.2-.31-2.28,4.24-1.96.24-1.65-5.58,1.1-30.4-2.83-6.75,1.1-5.03-1.49-5.5,2.67-.16,5.03,2.83,6.44-2.51.63-7.07,1.81-4.87-2.59-.71Z"/>
  <path id="077" data-bs-toggle="tooltip" data-bs-title="Calkiní" class="cls-1 estado" d="M653.85,236.06l-.39-1.73-1.1-6.91,4.79-7.54,1.57.16,1.1-5.58-7.54-2.04v1.49l-2.28.16-2.75,9.9-1.65-.08-1.41,2.98-4.95-1.89-2.91,1.1-3.3,5.89-2.51-1.81,4.16,2.98,5.11-.55,2.43,2.28,4.79-1.34,1.49,2.28,5.34.24Z"/>
  <path id="078" data-bs-toggle="tooltip" data-bs-title="Calkiní" class="cls-1 estado" d="M639.87,239.75l.94-.71,3.14,1.96,3.69-1.41,5.03-.16-.79,2.2h3.06l-8.48,9.43-1.41,5.89,1.73,4.79h-4.32l-1.89,8.33-3.69-.71-2.2.94v-2.12h-5.11l-.63-1.34-3.85,1.26-1.18-14.37,5.11.94.71-.71,1.49,1.34,2.28-.71,6.36-14.85ZM629.42,268.18l-2.83,1.65h0l2.83-1.65Z"/>
  <path id="079" data-bs-toggle="tooltip" data-bs-title="Calkiní" class="cls-1 estado" d="M593.99,570.11l4.01.31.47,3.77-1.81-.24v5.81l3.38.24,1.1,3.53,3.77,1.34,6.91-.39,2.51,2.2-1.57,2.51,2.67,3.06-.94,2.67,1.57,2.51-3.06,1.81.86,1.49-4.71,1.18.47-2.04-3.38-3.77-1.1,2.91-7.15-.24-1.1-4.95-5.18-3.77v-.39l1.18-2.98h2.67l-.47-3.53.71-3.85-2.51-3.3.71-5.89Z"/>
  <path id="080" data-bs-toggle="tooltip" data-bs-title="Calkiní" class="cls-1 estado" d="M659.42,246.11l-3.61-6.91,3.22-14.45,5.81.55,4.16,8.09-5.81,12.02-3.77.71Z"/>
  <path id="081" data-bs-toggle="tooltip" data-bs-title="Calkiní" class="cls-1 estado" d="M406.34,816.9l-9.74,5.89-31.73-13.98-20.27-5.03-3.85-11.47,11.47-6.28,7.23-14.45,8.64.47v2.2l8.25-1.26-.55,2.04,2.51,1.49,1.02-2.28,2.75-.71-1.26,1.49.47,9.5,3.77,1.49,2.2-.55-.24,2.28,3.53-1.02,3.46,5.26-.71.71,2.2,3.3,4.01-1.81v2.51h1.73l2.04-4.01,3.46,2.51,5.97-2.2v-2.28l.79-.24,3.69,1.26v4.01l1.02.71-1.26,2.98-2.43-1.26-2.75,1.02-.31,2.75-3.46,5.26-2.28-2.28-1.96.24-.79-2.2-6.21-2.51-1.96,1.02v6.68l2.75,1.81.47-1.49,3.22.94,4.01-1.49.47,3.53-3.46.71,4.08,4.71Z"/>
  <path id="082" data-bs-toggle="tooltip" data-bs-title="Calkiní" class="cls-1 estado" d="M605.62,654.15l11.39-.16,1.41,1.41-1.81,2.43.94,3.14,2.2-1.34-1.34-2.04,3.77.39,1.57-2.36,2.98-.24-1.96,8.56,4.01,3.06-1.73,5.42-.08-.16-3.85,1.96-2.28,3.06,2.67,1.89-.79,1.89h-3.85l-2.28,2.75-1.89-3.06-4.24-.39,1.18,5.73-3.46,1.89-2.36-6.13-3.46.39-1.57.79-1.1-2.28-5.73-1.57,3.46-8.4-1.89-.39,1.89-5.42.79-5.34-1.96-1.49.79-.79,3.85,2.28v2.67l3.46-1.89-1.96-3.06,3.22-3.22ZM600.12,683.45l-1.73,1.96h0l1.73-1.96Z"/>
  <path id="083" data-bs-toggle="tooltip" data-bs-title="Calkiní" class="cls-1 estado" d="M616.22,384.11l-1.57-1.26-7.62,7.54-13.9-12.65,5.03-10.13-10.13-13.98-10.13,1.26-8.88-8.88,2.51-6.28-16.49-1.26-3.14-9.5,6.52-12.17h3.22l-.31-1.18h3.22l4.01,4.87,10.13.39,2.04-2.43,12.57-1.65,2.04-2.83h4.48l4.01-.86v.47l12.57.39-5.66,6.91,6.52,3.22,2.43-4.01,4.01,3.22.24-.24,3.69,16.02,16.1,9.82-7.3,13.98,4.71,1.57-1.57,6.21-10.92,2.59-2.04-5.18-7.23,3.14,1.02,4.63-4.16,8.25Z"/>
  <path id="084" data-bs-toggle="tooltip" data-bs-title="Calkiní" class="cls-1 estado" d="M657.3,236.13l2.28-7.78,3.69-2.36.55-1.96,2.2-1.57.71.31-2.28-.94-.31-3.93,1.26.94-3.22-2.51-2.75.31-.71,3.38-1.57-.16-4.79,7.54,1.1,6.91.39,1.73,3.46.08Z"/>
  <path id="085" data-bs-toggle="tooltip" data-bs-title="Calkiní" class="cls-1 estado" d="M437.45,619.04l-.94,11.62-2.12-.86-5.03,9.82,3.53,1.49-3.22,2.98-2.43-1.49-2.04,2.98-8.72-4.16,1.18,5.97,5.11,1.18,1.18-.86,2.43,1.49-.63,4.48-4.16-.31-.63,2.43,2.75,2.36-2.12,2.12,2.36,18.54,2.75.31v2.98l-10.84,5.73,2.12,5.81,8.4-3.06,5.73,3.53-2.2,3.53-4.01-1.34-2.67,2.2,4.87.86,9.27,13.27h12.41v-3.06l-.71-5.42h2.04l-1.02-4.71,4.08,3.06-.71-4.08h2.43l1.34-9.19,5.73-3.38-2.04-1.65,2.36-3.77,3.46,1.02,2.36-1.02-2.75-3.06.39-1.34,2.36.31,6.44-2.98-1.73-2.43.71-1.34,5.42,2.36,5.73-1.34.47.16v-1.89l3.3-2.04v-1.26l-6.91-1.49v-1.49l3.3-.31.86-1.18-2.36-3.3h-2.67l-1.26,2.98-2.98-2.04,2.12-2.67-3.85-3.93h-3.61l.31-2.98-3.93-4.48-4.79,2.36-.86-5.66-3.3-1.49,1.49-2.36-3.3-2.75.31-3.22,2.98-5.11-1.49-2.43-2.12,1.49h-2.98l-3.53-5.34.86-1.49-5.66-4.48-8.4,1.81-.24,2.98ZM452.45,714.32h0l-1.81-1.65,1.81,1.65Z"/>
  <path id="086" data-bs-toggle="tooltip" data-bs-title="Calkiní" class="cls-1 estado" d="M558.02,106.77l5.89-6.68,1.02-1.96,6.44.39-1.65-3.22,2.91-1.65,5.26,4.56,7.85,1.34,7.85-1.34,3.93-4.56,6.28-2.75,6.13,11.23h7.15l-2.91,3.61,2.91,1.34,2.59-3.93,4.95-.71,9.98,10.92,1.57-3.14-6.05,11.47-12.72-5.81-.31,4.56-10.13,3.3-9.11,5.5-6.6-2.28-2.59-4.56-7.46-2.28,2.91-3.93-9.11-2.59-4.32,6.21-6.52.63-2.91-1.96.94-8.8-4.16-2.91Z"/>
  <path id="087" data-bs-toggle="tooltip" data-bs-title="Calkiní" class="cls-1 estado" d="M278.71,713.77l19.01-17.75h6.28l15.08-11.86,10.37,9.35,5.66-3.53-1.41-2.43,9.9-1.41,5.97,3.14-2.51,1.1-.71,6.36,3.22,5.66,6.36-5.34-1.73-1.34,5.26-1.1.71,1.02-3.22,7.07,6.05,2.83-2.12,8.8,1.96.79,1.81,4.24-2.67.31-.71,6.44,6.44.71,2.36-1.73.39,1.41-5.11,5.03-10.21,1.73-2.36,1.73-2.36-2.75-2.43,2.36-.63-3.06h-6.13l-.31,3.06h3.06l-5.11,4.79-2.04,4.71,4.71,5.5h-3.38v2.2h-3.69l-15.24-12.72-6.36,11.47-12.65-8.88,1.26-10.21-17.75-6.28-5.03-11.39Z"/>
  <path id="088" data-bs-toggle="tooltip" data-bs-title="Calkiní" class="cls-1 estado" d="M670.34,229.93l1.65,3.46,2.75.63.24-1.49,5.97-4.16,1.96-9.5,1.49-.63-2.67,1.02-1.26-2.51-2.12,1.02-.24,2.04-1.81-.16-.39,2.83-4.79,7.07-.79.39Z"/>
  <path id="089" data-bs-toggle="tooltip" data-bs-title="Calkiní" class="cls-1 estado" d="M628.95,161.6l4.71,8.25v13.9l19.01,7.62.55-.86,1.18,2.36-2.75,2.91,1.57,3.93-1.96,1.96-2.75-1.34-5.73,3.53-1.41-3.14,1.96-4.56-5.5-5.26-2.91-.24-1.41,5.5-2.12,1.18-1.81-.55-2.12,1.34-3.14-.55.94-4.56-1.34-.39-2.59,4.32-2.36,1.02-2.36-2.98,1.18-3.14-1.73-.94-2.59.94s-3.77.79-2.2-4.71l.63-2.12-1.96-.39-2.36,1.96-1.41-1.41s-1.96-1.18-3.3-.94l-3.14,1.96-1.02-1.02s2.2-1.96,1.18-2.91c-.94-1.02-1.73.55-1.73-1.41s.79-1.73.55-3.3c-.16-1.57-1.96-.63-1.34-2.36.24-.79.55-1.96.86-2.91l.47.24,2.98-3.06-3.3-2.51,1.41-1.65,4.4-2.43,3.06,2.75,3.61-1.41-1.65,1.65c-3.06,2.83,5.26,1.41,7.46,1.41s1.96-1.96,1.96-1.96l2.75-3.3,7.54-.39Z"/>
  <path id="090" data-bs-toggle="tooltip" data-bs-title="Calkiní" class="cls-1 estado" d="M463.68,492.19l.39-1.1-1.49-1.02,2.98-1.96-.55-1.26.55-1.81,2.98,1.57.47-.86,3.38,2.2,6.44-.55-.16.31.71,4.24,4.79,3.61h0l-1.57-1.18.08,2.75-2.2,2.43-3.53-3.14-4.32,1.57h-2.36l-.24-1.18-3.46.08,2.98-3.93-.94-.39-3.53,3.3,1.96-1.81-3.38-1.89Z"/>
  <path id="091" data-bs-toggle="tooltip" data-bs-title="Calkiní" class="cls-1 estado" d="M570.67,179.58v-1.96l3.69-1.18-.55-1.34h-1.81l-.16-3.14-2.75,1.57-1.96-1.96.39-2.91-5.58,1.41.24.31-2.91,2.2-2.59-.31-1.1,1.41,1.1,4.01-2.2,3.69,1.49,1.1,4.32-2.2,5.5-1.49,2.59.39,1.81-.71.47,1.1Z"/>
  <path id="092" data-bs-toggle="tooltip" data-bs-title="Calkiní" class="cls-1 estado" d="M621.88,631.84l2.12-2.75,4.16,1.81,7.23,7.78-2.43,4.16,10.6,1.81,4.79-7.38,2.36,5.58v3.38l2.59-3.14,1.18-4.01,6.99,7.54-2.2,7.62,11.62,11.39-2.43,6.6-1.57-.71-2.36,3.06h-3.85l-2.28-4.16-4.95,3.85-12.33-1.96-4.56,2.28-2.28-1.89-1.96,1.57-5.11-2.43,1.57-4.79-4.01-3.06,1.96-8.56-2.98.24-1.57,2.36-3.77-.39,1.34,2.04-2.2,1.34-.94-3.14,1.81-2.43-1.41-1.41-11.39.16,1.41-1.41-1.18-8.01,1.96-7.3-.47-.08,1.81-1.73,6.05,5.81,7.62-8.95-.94-.63ZM605.54,637.19l1.81.16"/>
  <path id="093" data-bs-toggle="tooltip" data-bs-title="Calkiní" class="cls-1 estado" d="M750.85,412.78l16.73,4.01,10.13,17.75,2.2-1.34,1.18,5.81-20.89,46.73-33.7-5.81-2.75-16.89,27.1-50.27Z"/>
  <path id="094" data-bs-toggle="tooltip" data-bs-title="Calkiní" class="cls-1 estado" d="M650.71,418.44l-15.79-19.16-18.69-15.16,4.16-8.25-1.02-4.63,7.23-3.14,2.04,5.18,10.53-2.43,3.93,3.14,3.53-1.41-.79-2.43,2.98-.55,6.36,7.38,2.75-.79,2.51-7.15,2.43,1.34-1.65,3.3,2.75,4.4,2.2-3.3,10.21,1.41v4.08l10.68,9.66v3.06l-10.13,4.4-6.05,4.63-4.95,8.56-6.05-9.11-4.95-2.2-1.73.86.55,4.08-2.2,4.71,4.16,6.05-5.03,3.46Z"/>
  <path id="095" data-bs-toggle="tooltip" data-bs-title="Calkiní" class="cls-1 estado" d="M543.17,592.26l2.04,2.98-4.63,3.69,2.59,2.43-1.65-1.49-4.4,1.41v2.04l-7.85.47v-1.65l5.89-4.16,1.34-.55.31,2.04,1.49-1.65-.94-6.44,1.96-1.34,1.49,2.2h2.36Z"/>
  <path id="096" data-bs-toggle="tooltip" data-bs-title="Calkiní" class="cls-1 estado" d="M649.13,469.33l5.81,3.22.79,2.51-5.58,6.05,4.08,1.49.55,4.24,3.46,1.18-2.12,13.51-.08-.16-4.56.71.86,2.36-.86.31-3.85-.08-2.75-3.3,4.87-.47v-4.48l-5.5-3.53,1.26-4.24h2.59l2.28-3.3-8.72-1.57,1.89-4.56h2.98l-4.24-5.26-2.28,5.58-2.28-3.61-4.95-3.69-3.22-2.43,2.04-2.91,2.28,2.04,2.36.16,1.18-2.28,11,3.85.71-1.34Z"/>
  <path id="097" data-bs-toggle="tooltip" data-bs-title="Calkiní" class="cls-1 estado" d="M589.83,547.02l4.79-.86,3.77.79,1.02,3.3h-1.57l.24,2.59-3.46,1.96v-.79l-5.11-4.71.31-2.28Z"/>
  <path id="098" data-bs-toggle="tooltip" data-bs-title="Calkiní" class="cls-1 estado" d="M609.39,601.84l-4.24,10.37,5.34,2.67-2.67,1.1-3.14-.24v3.14l3.14.24,1.34-.94,3.61,2.91,3.77-1.96,2.04,1.1-.24,2.2-5.81,2.51,10.29,7.54-7.62,8.95-6.05-5.81-1.81,1.73-3.38-.31v-2.67l-11.15-2.28-6.05.94-1.81-1.41,1.02-6.6,2.36-1.26,3.77-8.88-3.53-6.6-7.93-6.91,6.99-4.56.79-7.07-.08.94h2.98l.39-1.02v.39l5.18,3.77,1.1,4.95,7.15.24,1.1-2.91,3.38,3.77-.47,2.04.24-.08Z"/>
  <path id="099" data-bs-toggle="tooltip" data-bs-title="Calkiní" class="cls-1 estado" d="M744.41,573.96l-3.46,28.98-11.55,1.41-3.77,5.66-.39,5.66-4.87,3.46-.39,5.26-3.06,1.1-3.38-9.43-2.67,2.67v4.87l-4.08,4.16,1.81.24-2.28-.31-1.41-3.93-2.2.55-2.59-7.07.16.31,3.85-7.54-11-11.7-.79-.31.47-6.83,5.66-7.62,11.31,7.62,4.16-4.56-2.28-3.06-3.38,1.18,4.48-6.44,6.05-1.89,3.85,2.98v-6.05l15.47,1.57,2.28-2.28,4.01,1.34Z"/>
  <path id="100" data-bs-toggle="tooltip" data-bs-title="Calkiní" class="cls-1 estado" d="M521.42,177.85l4.08-1.18v-3.06l6.68-6.05,2.75-12.8,3.38-2.2,5.11.31.16.55,5.11,2.67.31-.71-6.6,13.9-5.11,1.1-2.51,4.08,2.2,8.01-5.89,8.01-7.54-2.51-1.41-9.27-.71-.86Z"/>
  <path id="101" data-bs-toggle="tooltip" data-bs-title="Calkiní" class="cls-1 estado" d="M669.95,240.85l.16-.94,4.01-.94h4.63l-.86,12.72-1.96,1.02-8.56,7.15-2.28-3.14,2.36-11.7,4.63-2.91-2.12-1.26h0Z"/>
  <path id="102" data-bs-toggle="tooltip" data-bs-title="Calkiní" class="cls-1 estado" d="M438.63,507.43l2.67,1.73,3.22,3.46,2.51.39v-1.34l5.73,3.93.47-4.56,2.36-.39-.55-2.67-1.96-.86.08-.63-2.04-1.41-.79,1.41-6.21-3.77,1.02.08-3.61-.24-3.85,2.04,1.02,2.83h-.08Z"/>
  <path id="103" data-bs-toggle="tooltip" data-bs-title="Calkiní" class="cls-1 estado" d="M741.43,611.34l3.85,4.79,8.88-2.59,6.44,10.76-.55,7.23-6.05,4.16,2.04,1.1.47-.55-2.59,2.75v-1.57l-2.98,1.34v1.89l-2.04.47-1.57-1.65.63-2.75-6.68,1.18-.24,1.1-1.57-1.41-7.38,6.83-2.83-1.96-4.48,3.69v3.38l-4.56-.31,4.63-7.54,7.23-2.91,4.16-4.95-3.46-7.54-5.26,2.28-2.98-1.49.71-7.93,5.66-.39,10.53-7.38Z"/>
  <path id="104" data-bs-toggle="tooltip" data-bs-title="Calkiní" class="cls-1 estado" d="M585.83,476.8l-1.57-1.18-1.65,5.81,4.95,10.6,4.24-2.36,2.12.94v.31l10.84-5.03-1.1,3.69,9.03,3.3v3.77h3.14l2.04-3.14,12.49,13.35,7.46.24v-5.89l4.87.39v2.83l2.2-1.26v-1.81l4.87-.47v-4.48l-5.5-3.53,1.26-4.24h2.59l2.28-3.3-8.72-1.57,1.89-4.56h2.98l-4.24-5.26-2.28,5.58-2.28-3.61-18.54-13.98-4.24.31-2.28-2.91,2.91-3.22-6.83-6.21,2.28-2.91,5.89,4.56,4.87-.31,2.04-5.81-6.91-5.73-9.35-.08-8.17,9.27,12.49,14.85-17.2,3.22-3.14,7.54-5.73,2.28Z"/>
  <path id="105" data-bs-toggle="tooltip" data-bs-title="Calkiní" class="cls-1 estado" d="M644.89,346.02l3.38,1.02v5.5l1.41,1.65h7.7l1.96,8.25h3.53l-2.12,6.75-.31-.16-2.51,7.15-2.75.79-6.36-7.38-2.98.55.79,2.43-3.53,1.41-3.93-3.14-2.83.63,3.22-.79,1.57-6.21-4.71-1.57,7.3-13.98-2.67-1.57,1.57.94,2.28-2.28Z"/>
  <path id="106" data-bs-toggle="tooltip" data-bs-title="Calkiní" class="cls-1 estado" d="M474.29,531.54l-1.96-1.73,2.51-5.11,1.73.86.24-1.96,2.28-2.04.55.31h4.24l-.24,2.83,5.03,4.24,2.98.63-.47,3.22,1.73,4.08,2.67.31.31,3.06h-4.32l.31,5.73h-3.06l1.02,6.36h3.69l-.31,3.38-6.05,5.73,3.69,5.73,2.28.16-2.12-.16-.39,1.41-7.78-1.1v-.94l-1.49-1.02,1.26-1.96-4.48-.47-1.02-7.3-1.49-.47-3.06,1.96-2.98-1.96-1.26-7.54,4.79-.47-.55-1.96-3.22-1.02-.71.55v-1.26h-1.65l-.55-4.48,2.75-.31-.55-5.89,2.83.79,2.83-2.2Z"/>
  <path id="107" data-bs-toggle="tooltip" data-bs-title="Calkiní" class="cls-1 estado" d="M653.38,190.89l6.05-4.4,5.97.31-2.51-.16-2.04,13.75-2.43-.63-1.89,9.11-1.49.16-1.34-1.34h-1.41v6.21l-2.28.16-2.75,9.9-1.65-.08-1.41,2.98-5.66-2.12,1.73-7.93-2.75-3.46,5.34-9.58,5.66-3.46,2.75,1.34,1.96-1.96-1.57-3.93,2.75-2.91-1.02-1.96Z"/>
  <path id="108" data-bs-toggle="tooltip" data-bs-title="Calkiní" class="cls-1 estado" d="M660.05,436.74l3.38-1.81-.31-11.47-10.45-2.59-7.78-9.5,11.47-18.69,6.68,9.82,7.85,14.3,8.56-6.21,3.3,5.81h11.7l6.28,13.04-17.67,6.52,6.05,10.76,5.66-1.49v3.77l-5.26.55-2.28,3.38,4.16,2.67-2.43,3.38-2.2-1.96-2.91,3.77-26.71-6.83,8.09-15.39-5.18-1.81Z"/>
  <path id="109" data-bs-toggle="tooltip" data-bs-title="Calkiní" class="cls-1 estado" d="M521.42,177.85l-9.43-10.6-.16.16-.16-5.73h2.2l.31-3.3-2.36-3.77h.16v-7.62l13.9-1.26,10.76-16.97-5.89,9.35,10.21,5.5,2.59,9.82-.16-.55-5.11-.31-3.38,2.2-2.75,12.8-6.68,6.05v3.06l-4.08,1.18Z"/>
  <path id="110" data-bs-toggle="tooltip" data-bs-title="Calkiní" class="cls-1 estado" d="M653.77,554.4l10.21,4.32,4.24-5.18,8.09,1.65,6.21-11.39-.94-7.78,7.78-1.65,8.8,23.09,8.72,2.28,6.52-2.28,1.34,3.53,5.18-.94.31,4.24,6.52-1.65,8.09,8.8-.31,3.06-11.86-1.18v6.05l-3.85-2.98-6.05,1.89-4.48,6.44,3.38-1.18,2.28,3.06-4.16,4.56-11.31-7.62-5.66,7.62-.47,6.83-18.85-6.83,1.49.55v-3.22l-2.2-3.77-8.33-.79-4.16-3.77,3.38-3.38-1.18-4.79,3.46-2.04.16-3.77-2.28.47-11.15-9.19,1.1-3.06ZM655.42,574.66h0l.86-1.73-.86,1.73Z"/>
  <path id="111" data-bs-toggle="tooltip" data-bs-title="Calkiní" class="cls-1 estado" d="M564.93,98.13l4.08-8.17-3.14-6.28.63-2.04,17.75-9.43,2.51-7.62-2.04-12.41,6.52-3.3,2.36,14.06,3.93,6.83,9.11-3.53,1.96,2.59,8.48-.31v4.56l1.89.94-1.26,7.85,4.24,3.93-3.22,2.59-1.65-2.28-2.28.71,2.28,5.5-7.85-3.93-4.87,2.36-6.83,2.91-3.93,4.56-7.85,1.34-7.85-1.34-5.26-4.56-2.91,1.65,1.65,3.22-6.44-.39Z"/>
  <path id="112" data-bs-toggle="tooltip" data-bs-title="Calkiní" class="cls-1 estado" d="M604.52,763.33l-1.26,2.36,1.26,17.75,11.39,5.11-7.62,10.13.24,1.02-14.53.47-4.79,3.93-5.26,1.34,1.89,8.17-3.46,3.85-9.43-3.77,2.59-14.61-3.46-9.74-4.24-1.34-.16-5.18,2.51.31,6.83-11.7-1.73-2.2,2.2-4.16.94-1.41,1.26,3.06h3.22l2.28-4.56,3.22,1.81,3.69-5.5,3.22,2.75-1.41,4.16,2.36,1.34,2.75-6.44,5.5,3.06Z"/>
  <path id="113" data-bs-toggle="tooltip" data-bs-title="Calkiní" class="cls-1 estado" d="M476.09,766.94l-1.41,2.04,2.36,1.34,5.11,2.67,1.73-1.34,2.98.39,2.04-3.06-.63,3.38,1.34,2.67,3.69.71,2.75-1.02,1.65,2.67,2.36-.63,2.04,3.06.71,2.36,2.36,1.34-5.42,5.42h-2.36l-3.06-2.36h-4.08l-6.36,3.38-1.41,3.38h-2.67v3.06h3.06l-2.75,8.09-.31,2.36,3.38,1.34v2.04l-3.06,2.75,2.36,5.03,5.11-1.65.31-3.06,3.93-.47-.16-.08-1.18-8.25h-2.98l.24-2.59.55-8.64,4.16.39,4.16-1.18,3.3,3.14,2.98.39,1.96-2.2,3.53,2.83h3.53l.79-1.26-2.51-5.66,1.26-4.16,2.2.71.16-4.32-3.69-4.01h-.16v-.16l3.46-1.49-3.38,1.49,1.1-6.68h1.41v-1.57l-2.75-.79v-1.73l-2.75-1.34.24-1.57,4.24-.79,1.18,1.96h1.96l.16-2.2-1.18-4.87h2.36l.63-2.28,1.89.39.55-.24.55-5.26.79-.79-1.34-.86v-.79l-2.43-1.1-1.96,1.73-4.4,1.65-5.42-5.42-4.08-.31-.71,3.69-5.73,1.73-.31,5.11-3.77-1.02.39-3.38h-2.75l-2.04,1.96-1.96-3.38-4.79-1.65-2.04,2.04.39,2.67h-2.36l-3.77,2.36v3.38l2.04,2.75-2.67,4.71,5.42,1.02Z"/>
  <path id="114" data-bs-toggle="tooltip" data-bs-title="Calkiní" class="cls-1 estado" d="M505.94,480.25l8.56,2.75,1.26,7.62,7.62,1.26,13.9-7.62v-7.62l16.49-20.26,1.89.47v1.41l2.67,3.06,1.73,4.48-3.3,8.56-.47,9.11-2.75,9.98-4.24,3.14-1.73,6.68-5.18,6.05-3.14-.94-1.65,2.98-2.98.55-.47,1.96-1.02,1.65h-3.06l.71,2.36,2.04,2.67-.71,2.75-4.79,1.1,2.04,2.36-.71,5.42v4.01l5.03,2.04v3.38l5.11,5.03-3.38,1.41-3.06,2.67-.63-3.69-2.04-.71-1.02,2.36h-2.67l-1.41,3.06,4.08,1.02h2.67l-1.65,3.38h-5.42l-1.65,5.03,1.02,2.04,2.67-.31-1.34,4.01-3.69-.31-3.38,2.04-4.79-2.75h-4.32l-5.11,2.04-7.38-.31-5.42-.39-3.69-5.73,6.05-5.73.31-3.38h-3.69l-1.02-6.36h3.06l-.31-5.73h4.32l-.31-3.06-2.67-.31-1.73-4.08.71-5.03h4.01l2.04-5.11,6.44-4.01,1.02-5.42-7.15,1.02-1.65-2.36.31-3.22-1.26-2.04-.63-.31.55-1.18v-.31l1.65.71.16-1.65-1.81-.31v-.47l-.47-.24,2.51-1.34v-.08l2.67-.31,4.08-10.13,1.57-10.76ZM544.2,513.16l-1.65-1.18,1.65-3.38,2.67,1.57v1.81l-2.67,1.18Z"/>
  <path id="115" data-bs-toggle="tooltip" data-bs-title="Calkiní" class="cls-1 estado" d="M638.14,528.48l7.38,2.59,1.34-2.67,1.26,1.34,9.66-3.06,2.67,5.03,7.46-3.3-.63-3.06-3.14-.24,1.1-2.36,7.54-3.3,2.36,5.42,6.6.94,1.89.86-.16.24,2.91,8.09-4.79,1.02.94,7.78-6.21,11.39-8.09-1.65-4.24,5.18c-4.08-1.73-8.17-3.93-12.1-5.18v-1.96l-10.37-5.58-2.67-4.63,1.02-2.28-5.58-2.12-1.49-5.03,3.93.24,1.41-3.69Z"/>
  <path id="116" data-bs-toggle="tooltip" data-bs-title="Calkiní" class="cls-1 estado" d="M792.33,431.79l1.89.24,7.62,6.28,10.13-7.54,8.88,7.54,10.13,1.34,2.67,4.48-4.63,14.53-12.17,6.91,1.49,2.98-9.9,8.8-29.22-.24-1.1,2.36-6.36-7.46.71-3.46,8.25-3.3,5.18-.71-1.89-2.2,3.3-14.14,8.25-2.59-6.36-4.71-.55-6.05,3.69-3.06Z"/>
  <path id="117" data-bs-toggle="tooltip" data-bs-title="Calkiní" class="cls-1 estado" d="M621.8,451.11h1.89c.16,0,.55.24.94.24l-.94,2.28.79,1.41-2.75,3.22,5.81,5.03,6.36,5.66-2.43,2.28-12.25-9.27-4.24.31-2.28-2.91,2.91-3.22-6.83-6.21,2.28-2.91,5.89,4.56,4.87-.31v-.16Z"/>
  <path id="118" data-bs-toggle="tooltip" data-bs-title="Calkiní" class="cls-1 estado" d="M618.81,545.84l1.57-3.61,2.59.79.16-3.61-8.72-2.98,1.34-1.18-1.34-6.21-7.23-2.43v-5.58l-2.98-2.12-3.93,5.97,3.77,1.41-.79,1.73,5.89,4.01-2.12,4.01.71,1.18.31-.39,2.12-.79,2.59,2.43-.39,1.81-1.81-1.1-.55,2.67,8.8,4.01Z"/>
  <path id="119" data-bs-toggle="tooltip" data-bs-title="Calkiní" class="cls-1 estado" d="M469.81,513.24l1.96,3.61,7.85,5.03h4.24l-.24,2.83,5.03,4.24,2.98.63.24-1.81h4.01l2.04-5.11,6.44-4.01,1.02-5.42-7.15,1.02-1.65-2.36.24-2.2-.55.31-2.36,2.43h-1.02l.63-2.2-2.04.16.24-2.43h-5.18l-.24.79h-1.18l-1.49,3.06-1.73-.63-2.51-.24-9.19,2.04-.39.24Z"/>
  <path id="120" data-bs-toggle="tooltip" data-bs-title="Calkiní" class="cls-1 estado" d="M761.06,647.32l-.39.31,3.14.94.39,2.98,6.44-.39,4.08,5.73-7.54,1.49,9.11,7.15-1.89,4.48-.08.08-3.38.39-4.16,1.89.86,2.28-2.2-.16-.47,2.51-14.61,2.83,2.43-2.12-4.87-8.09-.86-7.78,2.51-2.36-2.51-4.56,1.81-.71,1.81,2.28,4.16-.71v-2.75l6.21-5.73Z"/>
  <path id="121" data-bs-toggle="tooltip" data-bs-title="Calkiní" class="cls-1 estado" d="M466.43,578.36h4.63l2.75-1.02,1.26.47,2.04-2.43v-4.79l1.49-1.1,5.26,3.77,3.38-3.14,11.15,2.83.31,2.75,1.26,1.26-1.26,2.75-1.89.31-.94,3.46-6.13-3.46-5.26,3.14v6.13l2.75,3.46-3.69,5.26-2.2,1.81.63,2.51-1.18,5.81,1.41-1.26-1.73,1.57v1.18l-.08.39-1.49-.63-1.96,2.04-3.38.39-2.36-.39-2.59,1.81v1.26l-3.61-.63-1.1,2.43,1.18-2.67-2.67-3.69.86-4.95.63-4.56-2.28-3.3.39-8.4h-1.89l2.67-2.83-.55-1.96.63-3.61,3.53-1.34v-.63Z"/>
  <path id="122" data-bs-toggle="tooltip" data-bs-title="Calkiní" class="cls-1 estado" d="M409.64,471.46h-3.85l2.2-1.41.79-3.53-1.89-.31.24-2.2h2.51l2.43,1.41-1.34-3.3,2.43.79,1.34-3.53,4.16-.31,7.07-3.53,2.2-2.98h2.51l1.1,2.43,2.2.31-.31-1.96,4.4-.71-.31.16h3.3l-.63,3.53-2.98,2.2-.16.08-2.75,4.08-1.65-.86-.55,1.65-2.75-.55-.86,1.96-1.65-.55-.24,2.75h-2.98l-3.85.79,1.89-3.53-3.85,1.1-3.53,2.98.24-2.2-3.77.55-1.65,2.51,1.65,1.34-1.1.86Z"/>
  <path id="123" data-bs-toggle="tooltip" data-bs-title="Calkiní" class="cls-1 estado" d="M608.29,215.48l13.43,1.57,6.6-5.66-2.98-6.6,3.77-5.34,1.81.94-.08-3.22-1.26-.39-2.12,1.34-3.14-.55.94-4.56-1.34-.39-2.59,4.32-2.36,1.02-.24-.31v.24c0,1.26-3.61,2.75-4.01,4.87-.63,2.75-1.73,1.02-2.59,2.75-.24.39,3.22,6.21-2.36,4.48-4.95-1.57-3.38,2.28-4.95,2.75,1.02.63,2.28,1.34,2.83,1.96.31.24.55.55.63.79ZM604.75,212.73h-.08.08ZM604.68,212.73h-.08.08ZM604.6,212.73h-.08.08ZM604.52,212.73h-.16.16ZM604.28,212.73h-.08.08ZM604.21,212.73l-.08.08.08-.08ZM604.13,212.81h-.08.08ZM604.05,212.81h0ZM603.97,212.81h0ZM603.89,212.81h0ZM603.89,212.89h-.08.08ZM603.66,212.96h0ZM603.58,212.96h0Z"/>
  <path id="124" data-bs-toggle="tooltip" data-bs-title="Calkiní" class="cls-1 estado" d="M745.12,701.36l3.14,3.3-2.59,10.53,4.56,2.51-1.41,5.34-11.62,3.69v12.49l-3.14,6.75-3.14,1.73-1.89-.86-5.34-7.54-2.04-8.56-2.28-1.73-.55-9.03,3.14-4.24-.63-20.66,1.96-.86,1.65.94,7.62,6.68,4.4-2.75,3.69,3.46h3.22l1.26-1.18Z"/>
  <path id="125" data-bs-toggle="tooltip" data-bs-title="Calkiní" class="cls-1 estado" d="M466.98,525.73l2.12,1.34,1.89-1.18,2.43,1.81,1.41-2.98,1.73.86.24-1.96,2.28-2.04-7.3-4.71,2.59,1.65-1.02.94-.86-1.81-3.22,3.22-2.2,4.87h-.08Z"/>
  <path id="126" data-bs-toggle="tooltip" data-bs-title="Calkiní" class="cls-1 estado" d="M461.48,502.72l-1.02,1.18-6.05-3.06-1.34,6.28,1.96.86.55,2.67-2.36.39-.55,4.87,1.41,5.73,1.34,2.2,2.67-2.51,1.02,1.73,1.18-1.26,3.38,4.08,3.38-.16,2.2-4.87,3.22-3.22.86,1.81,1.02-.94-2.59-1.65-1.96-3.61.39-.24-6.13,3.38-1.89.16-.16,3.38h-1.41l-2.83-6.6.24-3.38,4.32-.24,1.18-1.57,1.73-.16v-1.81l-2.12-.39.86-2.75-2.51-.31Z"/>
  <path id="127" data-bs-toggle="tooltip" data-bs-title="Calkiní" class="cls-1 estado" d="M610.02,752.25l-.47,2.04-5.03,9.03-5.5-3.06-2.75,6.44-2.36-1.34,1.41-4.16-3.22-2.75-3.69,5.5-3.22-1.81-2.28,4.56h-3.22l-1.34-3.22-3.06,5.73-4.01-4.95.31-4.4,1.1-7.38-1.26.16.94-2.91-.47-6.44,6.91,1.41,1.81-1.81-1.41-2.36,8.72-9.11-5.03-4.16,1.26-2.83.55-.31,5.58.86.08-.16,1.73,3.38,5.97-.94-.47,5.97,2.75-1.81,3.22,1.81-3.22,16.97,2.28,2.28,7.38-.24Z"/>
  <path id="128" data-bs-toggle="tooltip" data-bs-title="Calkiní" class="cls-1 estado" d="M660.05,436.74l5.18,1.81-16.81,32.12-11-3.85-1.18,2.28-2.36-.16-6.36-5.66-5.81-5.03,2.75-3.22-.79-1.41.94-2.28c-.39,0-.79-.24-.94-.24h-1.89l2.04-5.66,3.61,2.98,2.43-7.93,18.54,2.75,11.62-6.52Z"/>
  <path id="129" data-bs-toggle="tooltip" data-bs-title="Calkiní" class="cls-1 estado" d="M789.26,746.91l-12.33,7.38-24.04,6.36-12.25,9.11-7.15-9.9,1.96-2.04,1.41-7.3-7.85-3.69,1.89.86,3.14-1.73,3.14-6.75v-12.49l11.62-3.69,1.41-5.34-4.56-2.51.47-1.81,12.25,4.24,7.85-3.38,3.3,6.68,9.11,1.65,11.23,20.66-.63,3.69Z"/>
  <path id="130" data-bs-toggle="tooltip" data-bs-title="Calkiní" class="cls-1 estado" d="M679.69,492.43l-2.51,5.5-.39,8.88-8.25,6.91,1.02,7.07,3.22-1.34,2.36,5.42,6.6.94,1.89.86,1.81-2.67,6.83,4.56h2.28v-6.83l-2.28-2.91,4.87-11.07,3.93,4.24,4.56-1.96-1.73-3.38-1.73.31-1.18-2.67-3.85.39-9.11-6.6v-2.91l-8.33-2.67v-.08Z"/>
  <path id="131" data-bs-toggle="tooltip" data-bs-title="Calkiní" class="cls-1 estado" d="M543.17,592.26l2.04,2.98.16-.16h1.26l1.57,1.41,3.53-.39.39,1.81h1.89l.55-1.26,1.81-.55.31,1.41,4.79,2.67.71-.86,2.12,1.57,2.28-1.41,3.14-.16-2.28,4.24h1.57l1.96-1.57,3.77.08-.16.08,3.14-1.89-.86-.63-2.98-.31-1.18-2.04-6.36.31-7.38-3.3-1.73,1.34-2.12-1.34.63-2.51-9.9-2.98-2.51,3.46h-.16Z"/>
  <path id="132" data-bs-toggle="tooltip" data-bs-title="Calkiní" class="cls-1 estado" d="M445.07,430.85l22.54,28.59-1.49,3.22-2.04-1.49-2.28,3.93-4.71,2.91v-6.99l-1.89-1.49-.63,2.67-3.06-3.06h-4.08l-2.28,2.04-1.02-1.81-3.06,1.02-3.93-1.89,3.06-2.2.63-3.53h-3.3l3.93-2.67-.86-1.81-2.04.79-1.65-1.89,2.91-2.04-4.95-.16-.63-1.89,3.3-.39,5.18-6.21,2.36-5.66Z"/>
  <path id="133" data-bs-toggle="tooltip" data-bs-title="Calkiní" class="cls-1 estado" d="M466.67,619.51l1.18.08.31-1.57,3.22-.24-.47-.94,2.67-1.34,2.91,5.5-3.14,1.41-.55,1.65-1.41.31.31-3.38-.79-.55-2.28,3.22-2.43-2.36.47-1.81Z"/>
  <path id="134" data-bs-toggle="tooltip" data-bs-title="Calkiní" class="cls-1 estado" d="M433.29,414.04l8.95,13.12,1.96,2.51-1.81-2.28-1.26-.08-3.06,2.98.86,2.51-2.75,5.18-5.18.24v1.02l-4.63-.55-.31-5.34-7.85.47.47-4.08h5.89v-5.34l-3.53-1.26,2.28-4.32,6.36,2.51v-6.05l3.61-1.26Z"/>
  <path id="135" data-bs-toggle="tooltip" data-bs-title="Calkiní" class="cls-1 estado" d="M613.47,813.52l11.31-13.59-5.03-6.36,2.51-7.54,12.65,2.51-2.51,6.36,6.36,6.28-20.34,17.75-.71,2.98.31-1.18-4.56-4.56v-2.67Z"/>
  <path id="136" data-bs-toggle="tooltip" data-bs-title="Calkiní" class="cls-1 estado" d="M482.22,472.32l-3.14,5.34,1.1,2.36v-.63l2.75,2.67,1.49-2.98,5.18,3.61v-2.28l1.02-5.03-7.85-2.51-.55-.55Z"/>
  <path id="137" data-bs-toggle="tooltip" data-bs-title="Calkiní" class="cls-1 estado" d="M688.96,458.97l2.43-3.38-4.16-2.67,2.28-3.38,5.26-.55v-3.77l-5.66,1.49-6.05-10.76,20.42-7.54,8.88,20.97,6.6.94.31,1.41-1.65.47-2.28,14.92-8.17,7.46,1.02,1.65-5.89,10.68,1.02,8.17-.16-1.34-16.34-7.62,1.34-3.93-4.01-2.12-.24.39-3.38-2.75-.39-3.53,2.12-1.89-.79-2.75,8.64-3.93,3.14-2.91-4.32-3.77Z"/>
  <path id="138" data-bs-toggle="tooltip" data-bs-title="Calkiní" class="cls-1 estado" d="M396.6,520.15v-16.89l-7.62-5.11,1.65-10.76,1.34.24,4.63-5.11,7.7,3.61,4.16-2.59,4.87,2.36-1.81,2.04h3.85l13.59,11.31,3.38-.55,3.53.55,2.36,2.51,3.3-1.49,3.61,2.51-3.61-.24-3.85,2.04,1.02,2.83-2.83-.24v2.59l-4.32,8.17-5.18-1.49-2.28,3.06s-1.57-1.34-2.83-1.57c-1.26-.24-1.02,1.02-2.59.24-1.49-.71-2.28-2.83-2.28-2.83h-3.38l-2.51-1.49v2.83l4.08,4.32-.94.39-4.32-4.08-8.48-.24-4.24,3.06Z"/>
  <path id="139" data-bs-toggle="tooltip" data-bs-title="Calkiní" class="cls-1 estado" d="M512.54,771.1h-1.41l-1.1,6.68,3.38-1.49,2.2,2.12,4.32-2.12-.71-4.32,3.46-5.03,3.06-1.02,2.2,1.89-1.34,1.34,1.1,1.49,2.59-1.26,4.32,2.83,3.06,7.93h2.2l-.08-.39-1.49-2.83,2.98-.24,1.1,2.83,1.49-.63-1.49-4.32,3.69-4.56,2.83.24,4.08-1.34v-1.81l-4.4,1.57,1.34-4.95-.79-1.34-.24-.31v-.79h.24l.55-.86v-4.4l-3.3,2.75.86,2.2-4.71-.79-1.89-1.96-.55,1.96-2.75,3.22-1.1-.79-2.75.24-1.34-.47-1.1-1.65-1.34-2.51-3.06-1.1-3.85-.79-1.34,1.34h-1.65l-.79-1.1v-.47l-.55.24-1.89-.39-.63,2.28h-2.36l1.18,4.87-.16,2.2h-1.96l-1.18-1.96-4.24.79-.24,1.57,2.75,1.34v1.73l2.75.79v1.57ZM509.95,777.86v.08h.16l-.16-.08Z"/>
  <path id="140" data-bs-toggle="tooltip" data-bs-title="Calkiní" class="cls-1 estado" d="M462.03,519.92h-1.41l-2.83-6.6.24-3.38,4.32-.24,1.18-1.57,1.73-.16v-1.81l-2.12-.39.86-2.75-2.91-.39-1.41-1.65,8.95-8.4.94.39-2.98,3.93,3.46-.08.24,1.18h2.36l4.32-1.57,3.53,3.14,2.2-2.43-.08-2.75,3.85,2.91-1.1,2.12.55,2.51,2.75,2.28,1.65-.31.79-1.26-.86-.55.71-.86.86,1.49,1.34-.63,2.43,1.02v2.04l-1.34,2.83h-7.7l-.24.79h-1.18l-1.49,3.06-1.73-.63-2.51-.24-9.19,2.04-6.13,3.38-1.89.16-.16,3.38Z"/>
  <path id="141" data-bs-toggle="tooltip" data-bs-title="Calkiní" class="cls-1 estado" d="M572.94,813.68l-2.67-1.02-13.9-10.21-6.36,7.62-10.13-7.62v1.18l-1.18-1.57,2.83-8.25-2.83-6.68,2.83.39-1.73-7.78-1.49-2.83,2.98-.24,1.1,2.83,1.49-.63-1.49-4.32,3.69-4.56,2.83.24,4.08-1.34v-1.81l1.1-.39,2.98,3.61,2.2-.55-5.73,7.07,4.87,4.63,9.27,1.34.16,5.18,4.24,1.34,3.46,9.74-2.59,14.61Z"/>
  <path id="142" data-bs-toggle="tooltip" data-bs-title="Calkiní" class="cls-1 estado" d="M657.15,453.94l26.71,6.83,2.91-3.77,6.52,5.73-3.14,2.91-8.64,3.93.79,2.75-2.12,1.89.39,3.53,3.38,2.75-5.18,8.33.94,3.69v-.08l-2.51,5.5-.39,8.88-8.25,6.91-.63-4.4-2.43-1.96-4.56,2.59-3.53-1.26.86-1.81-2.2-5.5.08.16,2.12-13.51-3.46-1.18-.55-4.24-4.08-1.49,5.58-6.05-.79-2.51-5.81-3.22,8.01-15.39Z"/>
  <path id="143" data-bs-toggle="tooltip" data-bs-title="Calkiní" class="cls-1 estado" d="M396.21,451.82l2.98,2.91,2.98-2.2v2.43h2.75l-.79,2.2,1.34,1.89,1.96.86.55-1.89h1.89l.55-5.5,9.58-.86.86-4.08h4.87v-3.85h5.26v-5.5l5.18-.24,2.75-5.18-.86-2.51,3.06-2.98,1.26.08,2.67,3.46-2.36,5.66-5.18,6.21-3.3.39.63,1.89,4.95.16-2.91,2.04,1.65,1.89,2.04-.79.86,1.81-3.61,2.51-4.4.71.31,1.96-2.2-.31-1.1-2.43h-2.51l-2.2,2.98-7.07,3.53-4.16.31-1.34,3.53-2.43-.79,1.34,3.3-2.43-1.41h-2.51l-.24,2.2,1.89.31-.79,3.53-2.2,1.41h4.08l3.53,2.43-3.53,1.65-1.02,2.28-1.1-1.96-.47,1.96-2.75.79-5.03-1.26-2.75.94-4.08-4.01,3.53-22.46Z"/>
  <path id="144" data-bs-toggle="tooltip" data-bs-title="Calkiní" class="cls-1 estado" d="M623.13,539.48l9.66-.16-1.49,2.51-.47,5.42-1.81,1.34-.47,4.24-2.36.16.08-.08-5.26-2.51,1.02-3.06-4.79-2.2h0l1.57.71,1.57-3.61,2.59.79.16-3.53Z"/>
  <path id="145" data-bs-toggle="tooltip" data-bs-title="Calkiní" class="cls-1 estado" d="M874.49,664.05l-5.58,2.59,3.3,17.44-5.34,4.08.39,3.77-2.91,4.24,1.57,6.6,5.03-.79,2.12,2.28.63,7.7-2.12,2.51-2.75-.39.24,1.41-3.14.24-2.51,2.28-2.91,7.78-5.03-2.12-1.65,10.21,3.14,3.77,2.36-2.36,19.09-2.51,5.03-20.34,10.13-16.42h13.98l-1.26-11.47-11.47,1.26-2.51-27.88-8.88-1.26-7.62,8.88-1.34-1.49Z"/>
  <path id="146" data-bs-toggle="tooltip" data-bs-title="Calkiní" class="cls-1 estado" d="M527.7,633.1l2.51.86,2.43,2.12-.55,2.59,3.06.94,1.41-3.38,1.73-1.1.71,2.67h4.08l1.26,1.18,4.56-4.32,6.91,1.02,9.11-5.03-2.28-2.59,4.32-2.98-1.18.86-1.18-1.18h-8.64l-1.57-1.81-2.83,1.41,1.41,1.65-2.12.47-1.96,1.41s-2.12-1.18-2.98-.71l-2.83.55-1.96,1.96s-1.02-.55-2.12-1.1c-1.02-.47-.86.55-1.96,0-1.02-.47,1.41-1.41.39-1.41l-1.57-.31-.39.55h-2.28l-.55,1.89-1.57-.47.86,2.12-4.24,1.18v.94Z"/>
  <path id="147" data-bs-toggle="tooltip" data-bs-title="Calkiní" class="cls-1 estado" d="M526.05,713.92l-4.56-3.14v-5.11l8.25-9.11-9.66-.47-.47-5.03,9.66-4.63,9.66,1.41.39-1.89-7.3-3.61,3.22-6.44,5.5,3.69,2.75,1.81-.47-3.69-2.75-.94v-5.5l.86-2.75.16.24,4.08-.79,2.51-1.81,1.81.55,1.65-1.26,3.61,7.23,2.75-.94,4.56,5.03,5.5-.39,6.44,6.83.47,7.38,5.97,3.22-3.22,5.97,1.41,2.75-4.63,6.36,2.12,3.38h-3.38l-11.78,1.89-2.98-3.85-2.98-.55-7.38-2.98-5.81,1.1-4.63-2.2-9.03,2.98-2.2,4.71-.08.55Z"/>
  <path id="148" data-bs-toggle="tooltip" data-bs-title="Calkiní" class="cls-1 estado" d="M457.01,538.45l-1.96-2.04,1.41-3.06-.71-1.89,1.49-3.22-2.51-2.83.31-2.2.39.63,2.67-2.51,1.02,1.73,1.18-1.26,3.38,4.08,3.3-.16,2.12,1.34,1.89-1.18,2.43,1.81-1.1,2.12,1.96,1.73-2.83,2.2-2.83-.79.55,5.89-2.75.31.55,4.48h1.65v1.26l.71-.55-3.22,2.51.47,2.75-2.75,2.51-1.73-4.56.47-5.5-1.96-1.26,1.73-2.2-5.03-.31-.31.16Z"/>
  <path id="149" data-bs-toggle="tooltip" data-bs-title="Calkiní" class="cls-1 estado" d="M707.42,636.16l2.59,1.18,7.7-3.69,1.96.86-1.73,4.24,7.07,2.51-4.79,7.93,4.56.31v-3.38l4.48-3.69,2.83,1.96,7.38-6.83,1.57,1.41-.63,3.06-2.36,3.38v2.12l-4.08.24-3.22,2.75-3.06,1.57v4.63l.24,3.93-2.04,1.81-2.51-6.44-3.69-.86-2.75,9.66-2.12-.94v-2.98l-3.22-.94.47-6.44-5.73-3.93.24-2.51-.55-.24.31-.47-4.79-7.62,1.02-2.28.39-.24,5.42,1.34-.94-1.41Z"/>
  <path id="150" data-bs-toggle="tooltip" data-bs-title="Calkiní" class="cls-1 estado" d="M524.4,566.81l2.51,2.51-1.81,6.99,3.69,3.22,2.51-1.18,2.36-2.83,1.81,3.14-1.81,2.04,2.83,1.49.31,5.58,2.51-.39,1.89-5.03,3.3.86-.94,2.2,2.28,3.3-2.51,3.53h-2.51l-1.49-2.2-1.96,1.34.94,6.44-1.49,1.65-.31-2.04-1.34.55-5.89,4.16v1.65l7.85-.47v-2.04l4.4-1.41,2.98,2.83h1.57l1.96,3.85-1.1,1.81h-1.89l-3.06-.39s-1.18.16-2.83.71c-1.57.55-.86,1.57-1.89,1.81-1.1.16-1.26-1.1-2.51-1.81-1.26-.71-1.73-.71-3.38-.71s-2.43,1.81-4.24,2.51c-1.73.71-2.83-.71-4.56.71s-2.43,4.95-1.57,3.14c.86-1.73-1.57,1.26-1.57,1.26l-.47,1.26-2.36.31-4.95-9.9-5.26-5.26,6.52-.31,1.89-1.57-3.77-2.12.31-2.51h-6.44l-1.89-3.69,5.58-1.26.31-1.81,4.95-3.46,2.12-8.64-2.12-1.26,1.65-8.17,2.36,1.41,3.38-2.04,3.14.24Z"/>
  <path id="151" data-bs-toggle="tooltip" data-bs-title="Calkiní" class="cls-1 estado" d="M599.26,549.69l4.56-.08,5.34,2.75v.79l-.31-.24-5.81,9.5-.24.55-4.87-1.81.16-1.49-3.38-.55-.08-4.32,3.46-1.96-.24-2.59h1.57l-.16-.55Z"/>
  <path id="152" data-bs-toggle="tooltip" data-bs-title="Calkiní" class="cls-1 estado" d="M618.34,494l12.02,12.88,7.46.24v-5.89l4.87.39v2.83l2.2-1.26v-1.81l4.87-.47v-4.48l-5.5-3.53,1.26-4.24h2.59l2.28-3.3-8.72-1.57,1.89-4.56h2.98l-4.24-5.26-2.28,5.58-2.28-3.61-4.95-3.69-6.13,12.49-2.59-8.8-8.48,5.58,2.75,12.49Z"/>
  <path id="153" data-bs-toggle="tooltip" data-bs-title="Calkiní" class="cls-1 estado" d="M545.29,552.51l7.3-1.02,1.26-4.71,3.3,1.1,10.53-3.46,4.56,1.81-1.41-3.14-2.36-.71.71-1.41-2.59-.79.39-1.41,5.97-3.46,3.85.86.71-1.81h-2.51v-2.2l.16-3.77,2.91-.71,3.14,5.03-.94,1.49,3.3,3.61h3.77l1.65,3.14-4.32,1.41.86,2.75,4.4,1.65-.39,2.51,5.11,4.71.08,5.11-1.18-.16-2.91,3.06.24,3.22-4.24.94,1.81,2.67-2.04,1.34v2.67l-2.43.86.16,4.32-2.2.47-6.36-5.89-12.41.24-4.71-3.06v-4.16l2.75-.71-.39-5.5-7.85-3.38-2.67,2.51-1.89-.79,2.04-2.75-5.11-2.51Z"/>
  <path id="154" data-bs-toggle="tooltip" data-bs-title="Calkiní" class="cls-1 estado" d="M625.88,555.18l-.94.31-2.36-1.96-4.4,11.78,1.18,1.18-.86,1.49,3.3-1.18-2.98,5.26,5.11,5.42,4.08,1.18-4.56,6.91,11.94,3.06,4.63-5.73-2.43-1.34,5.58-5.26-.71-2.75,6.13-.86.94,1.81,2.28-.63,2.04-1.18,2.43.24-1.02,2.12,1.65.31,9.03-5.42.16-3.77-2.28.47-11.15-9.19,1.18-3.3-1.96-.63v-1.96l-10.37-5.58-2.67-4.63,1.02-2.28-6.76-2.51v2.2l-1.81,3.06-.47,5.42-1.81,1.34-.47,4.24-2.36.16-.31,2.2Z"/>
  <path id="155" data-bs-toggle="tooltip" data-bs-title="Calkiní" class="cls-1 estado" d="M498.17,823.42l-2.67-1.89-1.26,10.13-6.36-6.36-.94,2.12-.71-.63v-5.42h-4.08l1.1-3.61-.79.24,5.11-1.65.31-3.06,3.93-.47,5.73,2.12,2.36,2.36-1.73,6.13ZM464.86,780.22l5.81-2.83,2.98-6.75-.31-2.36,1.89-.16-.55.86,2.36,1.34,5.11,2.67,1.73-1.34,2.98.39,2.04-3.06-.63,3.38,1.34,2.67,3.69.71,2.75-1.02,1.65,2.67,2.36-.63,2.04,3.06.71,2.36,2.36,1.34-5.42,5.42h-2.36l-3.06-2.36h-4.08l-6.36,3.38-1.41,3.38h-2.67v3.06h3.06l-2.75,8.09-.31,2.36,3.38,1.34-.86-.31-3.85,2.36-5.81-.31v-3.38l2.04-1.34-4.71-1.41-1.73,1.73-.94-.31,1.65-4.08h4.08l.31-2.04-6.05-7.07,1.96-3.06-4.4-4.4v-4.32ZM507.36,803.86l.55.79h0l-.55-.79Z"/>
  <path id="156" data-bs-toggle="tooltip" data-bs-title="Calkiní" class="cls-1 estado" d="M663.04,667.11l-.71-3.46,1.18-2.75,4.16-.94,2.28,1.89,1.65-1.65h2.51l.24-2.28-2.12-2.75,1.41-3.22,2.04-.94,3.69,2.28,2.75-1.34,8.8.16,3.22,2.59-1.65,3.46-5.26,1.1-.71,1.65-.24,2.51-3.93-.71-.47,1.65-5.5,1.57,1.65,2.98,2.28-.47,3.46,1.65,1.34-1.18,1.18,3.69,2.98-1.1,4.63,1.57,1.57-1.18.71,4.16,2.98,1.65,3.69-.94v-6.21l8.09-2.51v-3.69l-14.77-10.6.24-5.73,5.26-3.46h2.59v1.57l2.28.94-.24,2.51,5.73,3.93-.47,6.44,3.22.94v2.98l2.12.94,2.75-9.66,3.69.86,2.51,6.44,2.04-1.81-.24-3.93v-4.63l3.06-1.57,3.22-2.75,4.08-.24v-2.12l2.36-3.38.86-4.16,6.68-1.18-.63,2.75,1.57,1.65,2.04-.47v-1.89l2.98-1.34v1.57l2.59-2.75,2.04-1.34,4.16,2.04h2.98l1.81-2.98,1.89-.94,4.16,2.36-4.87,7.78h-2.51l-1.65-.94-2.98,1.41-.47,3.69-6.21,5.73v2.75l-4.16.71-1.81-2.28-1.81.71,2.51,4.56-2.51,2.36.86,7.78,4.87,8.09-5.34,4.56,6.28,9.03-2.83,2.04,1.41,1.81-2.75,5.11h-3.22l-2.51,2.28h-3.22l-3.69-3.46-4.4,2.75-7.62-6.68-2.28-1.34-.47-1.65,2.12-.47-1.18-1.81-11.55-4.63-6.44,3.46-14.92,12.88-2.75-.39-.47,3.85.71,3.22-5.58,5.58-6.21-1.41v-2.51l1.89-1.65-8.09-13.75.94-3.46-3.93-6.05,2.28-2.51,2.12.94,4.56-12.41-3.22-.24-1.57,2.51-5.11-2.28,1.89-2.98-4.63-.94Z"/>
  <path id="157" data-bs-toggle="tooltip" data-bs-title="Calkiní" class="cls-1 estado" d="M449.78,712.67v-3.06l-.71-5.42h2.04l-1.02-4.71,4.08,3.06-.71-4.08h2.43l1.34-9.19,5.73-3.38-2.04-1.65,2.36-3.77,3.46,1.02,2.36-1.02-2.75-3.06.39-1.34,2.36.31,6.44-2.98-1.73-2.43.71-1.34,5.42,2.36,5.73-1.34,5.97,1.73,2.28,14.53-6.83,1.81v3.69h6.83l2.75-2.75,2.28,1.41-1.34,3.14,1.81,4.16,7.85-1.41,2.75-5.5,4.56,1.41-1.81,2.75,2.75,6.91,5.97,3.14h0v5.11l4.56,3.14-1.02,4.87-.08.24h-.47l-3.38,2.12-1.26,3.38h-3.06l-.94-2.12-1.89,3.38-2.12-1.57v2.51l.86,1.26h-6.13l-7.38,3.06v3.06l-2.51.31-3.69-7.38-1.57.63,1.57,3.69-2.51,1.49.94,2.2h-1.18l-6.21-4.95-1.89.31.63,2.75-4.63,1.89-4.95-3.06-1.26.94.08.24-1.89-7.7-2.2.16.39-.55-7.54.39-4.4.47-6.6-3.53,2.2-2.67-3.14-2.67h6.68l-4.87-4.4h-.86Z"/>
  <path id="158" data-bs-toggle="tooltip" data-bs-title="Calkiní" class="cls-1 estado" d="M697.21,192.86l2.43-4.01,3.77-11.39,8.88-8.88,12.65-2.59,2.59,10.13,12.65,6.36,2.59.71-1.81,4.87-.63,7.07-6.44,2.51-5.03-2.83-17.99,1.18-1.73,2.2-2.2-1.96.24,3.14-1.96.79-1.65-.79.55-3.69-6.91-2.83Z"/>
  <path id="159" data-bs-toggle="tooltip" data-bs-title="Calkiní" class="cls-1 estado" d="M482.85,567.52l7.78,1.1.39-1.41,5.26.39,7.38.31,5.11-2.04h4.32l2.43,1.34-1.65,8.17,2.12,1.26-2.12,8.64-4.95,3.46-.31,1.81-5.58,1.26,1.89,3.69h6.44l-.31,2.51,3.77,2.12-1.89,1.57-6.52.31,5.26,5.26,4.95,9.9,2.51-.31h.94v2.12l-2.51,8.72-3.69,5.89-3.46-2.51-1.65,2.83-4.56-2.91-.39-2.51,1.81-2.51-3.46-1.34-1.34,2.04-6.13-2.75-1.65-2.51-.24,1.89-1.57-1.18.24-2.04-7.23,1.57-1.26-2.75-1.18-.08-.08-1.65,1.26-2.59,1.34-1.49,2.67-1.02h1.02l1.41-2.83-.79-.79-2.67,1.34-3.77-2.91-1.41,1.26,1.18-5.81-.63-2.51,2.2-1.81,3.69-5.26-2.75-3.46v-6.13l5.26-3.14,6.13,3.46.94-3.46,1.89-.31,1.26-2.75-1.26-1.26-.31-2.75-11.15-2.83-3.38,3.14-5.26-3.77.24-.16,2.75,1.49,1.26-1.26v-2.04ZM480.41,610.01l.08-.39v.39h-.08Z"/>
  <path id="160" data-bs-toggle="tooltip" data-bs-title="Calkiní" class="cls-1 estado" d="M319.08,684.16l2.67-2.12v-6.36l20.34-7.62v-7.54l6.28-3.85,22.94,21.84-1.65.94-10.92-2.12-1.1,2.83,3.22.31v2.43l-5.34,1.81-1.41,10.92,1.81,1.41-6.36,5.34-3.22-5.66.71-6.36,2.51-1.1-5.97-3.14-9.9,1.41,1.41,2.43-5.66,3.53-10.37-9.35Z"/>
  <path id="161" data-bs-toggle="tooltip" data-bs-title="Calkiní" class="cls-1 estado" d="M656.91,641.66l.47-3.77,9.03.86v-1.73l3.46-1.1,1.65,2.83,8.48-2.28,7.7-9.9,3.93.86,3.14-2.59-.31-5.66,5.66-1.96,2.59,7.07,2.2-.55,1.41,3.93,2.28.31-2.51,5.97,2.28,3.61-5.66-1.41-1.18,2.59,4.79,7.62-.31.47-1.73-.71v-1.57h-2.59l-5.26,3.46-.24,5.73,14.77,10.6v3.69l-8.09,2.51v6.21l-3.69.94-2.98-1.65-.71-4.16-1.57,1.18-4.63-1.57-2.98,1.1-1.18-3.69-1.34,1.18-3.46-1.65-2.28.47-1.65-2.98,5.5-1.57.47-1.65,3.93.71.24-2.51.71-1.65,5.26-1.1,1.65-3.46-3.22-2.59-8.8-.16-2.75,1.34-3.69-2.28-2.04.94-1.41,3.22,2.12,2.75-.24,2.28h-2.51l-1.65,1.65-2.28-1.89-2.04.47-6.36-6.21,2.2-7.62-4.56-4.95Z"/>
  <path id="162" data-bs-toggle="tooltip" data-bs-title="Calkiní" class="cls-1 estado" d="M611.12,232.52l5.18-2.12,2.59,1.1,2.83-2.2,2.83-1.57-.55,3.61-.79.94-.31,2.2,1.81,2.04,3.06-1.96,1.49,1.1,3.69-.63,2.28,2.67-2.83.79-.24,1.34-.08-.16-1.73,1.73-2.04-1.41-7.46.47-.63,2.67-6.13-4.32-.94,1.49-4.32.16-.86,1.02c-.31-.24-.63-.47-1.02-.79.55-.71.94-1.96.94-4.32,0-1.89,4.87-.39,3.22-3.85h0ZM606.88,240.69v.08-.08Z"/>
  <path id="163" data-bs-toggle="tooltip" data-bs-title="Calkiní" class="cls-1 estado" d="M569.25,462.03l3.69,13.12-3.93,4.71v8.56l-3.61,1.81,1.02,6.28,8.33.24,2.91,5.5-2.12,5.42-11.62-2.04.55-9.82h-3.3l-1.26-14.14-3.53-.16-.08,1.96.47-9.11,3.3-8.56-1.73-4.48-2.67-3.06v-1.41l-1.89-.47,13.98,3.77,1.49,1.89Z"/>
  <path id="164" data-bs-toggle="tooltip" data-bs-title="Calkiní" class="cls-1 estado" d="M593.92,490.93l10.84-5.03-1.1,3.69,9.03,3.3v3.77h3.3l-1.49,19.17,2.43.47,1.49,4.63h-1.34l-4.16-3.14-.86,1.81,4.87,4.87-2.28,5.42-.24-.86-7.23-2.43v-5.58l-2.98-2.12-3.93,5.97,3.77,1.41-.79,1.73,5.89,4.01-2.12,4.01.71,1.18-3.69,4.79,4.01.79-.79,2.83-3.22.24-.16,3.85-.08-.08-4.56.08.16.55-1.02-3.3-3.77-.79-4.79.86.08-.24-4.4-1.65-.86-2.75,4.32-1.41-1.65-3.14h-3.77l-3.3-3.61.94-1.49-3.14-5.03-1.18.24-1.73-4.24,4.95-.39-.24-2.2-5.89-.24,4.95.24.39-.16,3.3-6.99h3.3l-.24-4.01,13.2-9.43.47-4.24h-4.95l-.47-5.34ZM573.1,520.78l.86.08"/>
  <path id="165" data-bs-toggle="tooltip" data-bs-title="Calkiní" class="cls-1 estado" d="M394.01,583.46l3.38-.24-.79,4.48,4.71.79-2.12,2.91,3.53.31.39,1.81-2.12.24.86,2.2-1.1,1.26-.24,3.3,2.43,1.73-.47,2.2,2.59,1.96,1.1-1.1h1.73l.47,1.49-2.83,2.43-2.59-3.06-1.34,1.26-4.08-1.26-7.38,2.2,1.02-2.2-1.1-1.57,2.43-1.89-1.96-1.81,5.66-6.68v-1.1l-2.36,2.59-1.34-.63.39-8.95-2.12-.63.63-1.1h2.43l.16-.94Z"/>
  <path id="166" data-bs-toggle="tooltip" data-bs-title="Calkiní" class="cls-1 estado" d="M462.27,583.93l.55,1.96-2.67,2.83h1.89l-.39,8.4,2.28,3.3-.63,4.56-.86,4.95,2.67,3.69-1.18,2.67,2.83,3.06-1.02,3.46-4.95-1.18-.16-2.67-8.25,3.53-1.49-2.28.86-1.49-5.66-4.48-8.4,1.81,1.57-.39-.79-2.91-6.21-4.79,1.73-5.89-.55-1.26.16-.08,3.22-3.69,1.73,1.26.71-2.59-1.34-.86.63-.86,4.16.39v-2.59l2.36.71-1.02-7.23,3.69,4.56,7.38-6.28.63-3.22,1.49-.24,1.57,3.46,2.12-1.73v3.22h1.1l.24-1.1Z"/>
  <path id="167" data-bs-toggle="tooltip" data-bs-title="Calkiní" class="cls-1 estado" d="M606.95,240.69c2.04,1.57,3.22,2.36,6.13,2.36.94,0,3.69,2.75.55,2.75-.94,0-.79,1.34-.16,1.34,3.06,0,9.43.55,5.97,4.01-.31.31-2.91-.08-3.46,0-1.49.47-1.26,4.16-4.79,4.16-1.02,0,.08,3.3.08,3.85,0,1.65-2.04,1.1-2.04,3.14,0,1.81-.16,3.85-.71,5.5-.16.63-.63,1.49-1.1,2.43l-.31-.86-4.08,2.51.86.31-2.98-1.1-.79-7.38h-5.5l-8.95-7.46-1.18-10.21h0c1.18,10.45,2.12.79,8.33.79,2.12,0,5.11-1.34,8.09-1.34,1.89,0,1.02-1.41,1.65-2.75.86-1.89,3.06-.55,4.4-2.04Z"/>
  <path id="168" data-bs-toggle="tooltip" data-bs-title="Calkiní" class="cls-1 estado" d="M376.34,613.62l1.02,1.81-1.34.55-1.57-1.89-8.01,7.78,3.46,27.65,2.98.24-.63-6.21,6.99-.24-.79-2.91.55-4.32,3.77.31-.31,4.56,3.22,1.57,4.01-5.66-.24,2.75,6.68,2.36.86-1.89,3.46,1.1,2.43-3.46h0l2.67-4.08-2.98-4.24,2.67-1.65,1.34,3.22,3.77-2.91,5.66,2.43v-4.08h-1.65v-1.89l.31-.08-.79-4.48h-1.89l-.31-1.81,1.34-.86-2.12-3.22-6.13,2.2.24,2.67-4.32,3.77-1.02-.86.55-6.13-1.89-1.89-3.77.24-2.98,2.2,1.65.79-.31,2.91h-2.67l-2.67,2.98h-2.91l-.55-4.79,3.22-1.89-2.98-2.98.31-2.43-3.77-.24-.55-2.43,1.57-.55-2.36-5.34-.79.31-.55,3.69-2.43,2.2,3.22,4.24-.79,2.67-1.89-1.81Z"/>
  <path id="169" data-bs-toggle="tooltip" data-bs-title="Calkiní" class="cls-1 estado" d="M586.77,633.02l6.05-.94,11.15,2.28v2.67l3.85.39-1.96,7.3,1.18,8.01-4.63,4.63,1.96,3.06-3.46,1.89v-2.67l-3.85-2.28-.79.79,1.96,1.49-.79,5.34-1.89,5.42,1.89.39-3.46,8.4,5.73,1.57,1.1,2.28-.71.39-5.34,6.13h5.73v2.67l-7.7,5.34,2.75,6.52,7.62-.31-.71,3.61-4.4.63-7.3,2.51.16,2.75-.24-2.98-4.56-1.41-5.97,3.22-.08.16h-3.77l-2.12-3.38,4.63-6.36-1.41-2.75,3.22-5.97-5.97-3.22-.47-7.38-6.44-6.83-5.5.39-4.56-5.03-2.75.94-3.61-7.23,1.41-1.02,1.73,1.73-.24-6.36-.47-4.32,3.77,1.57-.24-3.3-2.28-2.04,1.02-1.81,5.34,2.83v-5.58l-3.06-1.02,2.83-3.53,2.75,2.98.55-4.56-3.85-3.06,4.32-2.51,2.83,1.02,2.75-.24,5.89,1.49,5.26-.47,2.59-3.85,1.02,1.81,2.28-1.57-.79-.63Z"/>
  <path id="170" data-bs-toggle="tooltip" data-bs-title="Calkiní" class="cls-1 estado" d="M719.2,344.06l-5.66-.55,3.85,22.86,7.54,15.16h12.72v13.98l-13.98,6.36,9.66,12.41.47-.24-.16.47-16.18,2.04-5.11,3.85-1.26,5.11-7.23,3.85-.39-.94-2.75,1.02-6.28-13.04h-11.7l-3.3-5.81-8.56,6.21-4.16-7.62,4.16-7.15,6.05-4.63,10.13-4.4v-3.06l-9.98-8.95,5.26-2.59,5.11-6.28,5.42,2.98,4.08-1.65-.24-17.59,6.52-17.12.08-.94,3.93.16,17.36-13.59-5.42,19.71Z"/>
  <path id="171" data-bs-toggle="tooltip" data-bs-title="Calkiní" class="cls-1 estado" d="M598.08,570.81l.94-.39.86,2.36,4.56,1.26v2.91h2.36l-1.49,7.93h-.39l-3.77-1.34-1.1-3.53-3.38-.24v-5.81l1.81.24-.39-3.38Z"/>
  <path id="172" data-bs-toggle="tooltip" data-bs-title="Calkiní" class="cls-1 estado" d="M603.03,271.87l4.08-2.51,3.22,8.56h11.78l3.61-2.04-2.43-4.08,6.13-3.61h5.26v4.87l9.35-2.43,4.01,3.61.39-4.48,4.08-1.96.79-5.34,4.87,2.91-5.66,11.31-3.22,1.26-.86,16.18-18.22,4.87-.39,2.43,3.61,6.13h-6.05l-3.22,6.44,3.22.86,2.04,3.22-5.73,5.26-4.01-3.22-2.43,4.01-6.52-3.22,5.66-6.91-12.57-.39-.39-6.05,3.3-2.91-8.95-10.53-7.7,1.26-1.26-4.08h5.26v-5.26l-5.89-1.18-.31-2.28,15.24-5.5.79-4.87-.86-.31Z"/>
  <path id="173" data-bs-toggle="tooltip" data-bs-title="Calkiní" class="cls-1 estado" d="M701.76,273.68l10.53,3.53,2.28-1.65,4.08.79,4.08-3.93,1.18,3.38-4.71,4.48-.39-1.73-5.81,3.53-11.78-1.81.55-6.6Z"/>
  <path id="174" data-bs-toggle="tooltip" data-bs-title="Calkiní" class="cls-1 estado" d="M747.16,273.99l-.47,2.28-.55-.08-3.3,5.18-.39,6.99-10.05,11.62-3.53-.79-1.89,5.03-2.12-.16-.24-1.57,5.66-20.89-4.63-3.85-2.12,1.1-2.51-.71.31-6.6,5.81-6.99,2.51,1.18.71-17.52,1.57-.24,2.28-4.24,2.2.31,1.73,12.88,3.38-1.96v2.51l-3.38,8.48-.31,6.99,9.35,1.02Z"/>
  <path id="175" data-bs-toggle="tooltip" data-bs-title="Calkiní" class="cls-1 estado" d="M413.65,521.41l.94-.39-4.08-4.32v-2.83l2.51,1.49h3.38s.79,2.12,2.28,2.83c1.57.79,1.34-.47,2.59-.24,1.26.24,2.83,1.57,2.83,1.57l2.28-3.06,5.18,1.49,4.32-8.17v-2.59l2.75.24,2.67,1.73,3.22,3.46,2.51.39v-1.34l5.73,3.93.16-1.81h0l-.24,2.12,1.41,5.73,1.34,2.2-.39-.63-.31,2.2,2.51,2.83-1.49,3.22.71,1.89-1.41,3.06,1.96,2.04.31-.16-9.5,3.3v2.51l-5.73-2.28-5.26-8.72-11.47-2.04-.55-1.73-3.69.71v3.06l-8.56-7.93,2.04-2.83-.94-.94ZM412.55,525.18l-1.96,2.75"/>
  <path id="176" data-bs-toggle="tooltip" data-bs-title="Calkiní" class="cls-1 estado" d="M405.56,633.65l-2.67,4.08,5.58,2.67-.24,1.57,5.66,4.32-.31-3.22,3.22-.24.71,3.69-1.02-5.11,8.72,4.16,2.04-2.98,2.43,1.49,3.22-2.98-3.53-1.49,5.03-9.82,2.12.86.94-11.62v-.39l-1.65-.79-3.22,1.65.86,2.91-1.1,1.65-3.77-3.77-.79.55,2.43,4.01-2.43,1.1-5.66-1.65v-2.43l-2.12-1.02-.79,3.22-1.65-1.1-3.22,1.57v1.89h1.65v4.08l-5.66-2.43-3.77,2.91-1.34-3.22-2.67,1.65,2.98,4.24Z"/>
  <path id="177" data-bs-toggle="tooltip" data-bs-title="Calkiní" class="cls-1 estado" d="M631.54,634.51l7.93-26,4.56-5.66,2.67,2.59,7.15-2.59,3.38-4.95,1.89,3.38,14.37-10.13,19.64,7.15,11,11.7-3.85,7.54-.16-.31-5.66,1.96.31,5.66-3.14,2.59-3.93-.86-7.7,9.9-8.48,2.28-1.65-2.83-3.46,1.1v1.73l-9.03-.86-.47,3.77-2.43-2.59-1.18,4.01-2.59,3.14v-3.38l-2.36-5.58-4.79,7.38-10.6-1.81,2.43-4.16-3.85-4.16Z"/>
  <path id="178" data-bs-toggle="tooltip" data-bs-title="Calkiní" class="cls-1 estado" d="M530.76,138.11l12.88-20.26,10.13-6.36,4.24-4.71,4.16,2.91-.94,8.8,2.91,1.96,6.52-.63,4.32-6.21,9.11,2.59-2.91,3.93,7.46,2.28,2.59,4.56,3.14,1.1-14.85,10.68-2.28-3.93-3.93,2.59,1.26,5.26-5.89,4.56,1.96,1.65-3.53,2.91-5.58-5.18-9.5-.71-1.96,2.36,1.73,6.52-2.83.63-.31.71-5.11-2.67-2.59-9.82-10.21-5.5Z"/>
  <path id="179" data-bs-toggle="tooltip" data-bs-title="Calkiní" class="cls-1 estado" d="M781.33,477.19l-2.12-.08-17.67,37.62-3.3-.47,1.73.24.55-1.26-26.63-3.85-2.28,1.57-16.26-4.16-4.16-5.97,1.57-3.46-9.43-2.28-1.02-8.17,5.89-10.68-1.02-1.65,8.17-7.46,2.28-14.92,2.28-.71.31,2.59,13.67,7.15-1.65,3.93,4.87,6.52,10.37,2.28,9.11,5.81,4.24-7.15,4.56,1.96.94-2.91,7.46-2.59,7.54,8.09Z"/>
  <path id="180" data-bs-toggle="tooltip" data-bs-title="Calkiní" class="cls-1 estado" d="M394.48,462.89l3.38-21.76-6.36-22.86,8.88-1.26-8.88-17.75,3.85-8.88,17.75,8.88,7.54-3.77,12.65,18.54-3.61,1.26v6.05l-6.36-2.51-2.28,4.32,3.53,1.26v5.34h-5.89l-.47,4.08,7.85-.47.31,5.34,4.63.55v4.48h-5.26v3.85h-4.87l-.86,4.08-9.58.86-.55,5.5h-1.89l-.55,1.89-1.96-.86-1.34-1.89.79-2.2h-2.75v-2.43l-2.98,2.2-2.98-2.91-1.73,11.07Z"/>
  <path id="181" data-bs-toggle="tooltip" data-bs-title="Calkiní" class="cls-1 estado" d="M475.31,472.63l-1.41,2.43,5.18,2.51v.08l1.1,2.36v-.63l.08,4.32-1.41,3.69-6.44.55-6.44-4.16,3.85-9.98,3.3-2.83,2.2,1.65Z"/>
  <path id="182" data-bs-toggle="tooltip" data-bs-title="Calkiní" class="cls-1 estado" d="M593.99,570.11l3.61.24h-.55l.63-1.96,2.91,1.26,2.2-6.68-4.87-1.81.16-1.49-4.56-.71-2.91,3.06.24,3.22.86-.24.24,2.67,2.28.94-.24,1.49Z"/>
  <path id="183" data-bs-toggle="tooltip" data-bs-title="Calkiní" class="cls-1 estado" d="M566.82,198.35l1.81-.39.24,2.75,5.5,1.57,3.53-2.36,3.14.16,1.41,2.2-1.65,5.11,2.83,1.41.94,2.75,7.85,2.75,2.98-.79-.24-1.18-3.69-1.81.79-7.85,2.51-1.18.79,1.57,4.56-1.18.55-3.53,4.16-2.36-.39-1.81,3.3-1.57-.08-6.13-.08.08-1.41-1.41s-1.96-1.18-3.3-.94l-3.14,1.96-1.02-1.02s2.2-1.96,1.18-2.91c-.94-1.02-1.73.55-1.73-1.41s.79-1.73.55-3.3c-.16-1.57-1.96-.63-1.34-2.36.24-.79.55-1.96.86-2.91l-3.46-2.28-3.06.55-1.34,3.06s-1.96-.24-1.96,1.65.55,3.06,0,4.48c-.55,1.34-.31,1.65-3.3,1.34-3.06-.24-.86-2.98-2.83-2.98l-1.89.24-.86,1.96-3.06-.31s.86-3.06-1.65-3.06l-1.02-.31-3.14,1.02v1.96l1.73,4.4-5.5,1.41v5.5h-2.91v2.59l2.59,1.1.24,3.77Z"/>
  <path id="184" data-bs-toggle="tooltip" data-bs-title="Calkiní" class="cls-1 estado" d="M594.7,213.67c2.67,1.34,5.58,2.67,7.23,1.81.86-.39.63-2.75,2.59-2.75,2.12,0,0-4.48,5.26-2.75,5.58,1.73,2.12-4.08,2.36-4.48.86-1.73,1.96,0,2.59-2.75.39-2.12,4.01-3.61,4.01-4.87v-.24l-2.12-2.67,1.18-3.14-1.73-.94-2.59.94s-3.77.79-2.2-4.71l.63-2.12-1.96-.39-2.36,1.96.08-.08.08,6.13-3.3,1.57.39,1.81-4.16,2.36-.55,3.53-4.56,1.18-.79-1.57-2.51,1.18-.79,7.85,3.69,1.81.24,1.18-.71.16ZM606.09,185.08h0ZM605.78,185h0Z"/>
  <path id="185" data-bs-toggle="tooltip" data-bs-title="Calkiní" class="cls-1 estado" d="M433.44,600.82l.55,1.26-1.73,5.89,6.21,4.79.79,2.91-1.57.39-.24,2.98v-.39l-1.65-.79-3.22,1.65.86,2.91-1.1,1.65-3.77-3.77-.79.55,2.43,4.01-2.43,1.1-5.66-1.65v-2.43l-2.12-1.02-.79,3.22-1.65-1.1-2.91,1.49-.79-4.48h-1.89l-.31-1.81,1.34-.86-2.12-3.14-.55-3.69,2.36-1.1v-2.59l3.53-.24-2.2-2.98-1.73,1.96-1.1-5.66,3.06.86.63-3.93,4.56-3.46,2.59,1.26-2.12,2.59.86,2.67,2.59-2.67,3.46,5.66v3.06l3.06-2.59,3.53-2.51Z"/>
  <path id="186" data-bs-toggle="tooltip" data-bs-title="Calkiní" class="cls-1 estado" d="M683.15,251.69l4.08,18.69-1.89,16.81-5.42.31.24,6.99,1.65,4.63,4.08,1.65-1.41,9.5h-3.53l-2.67,6.99,3.53,4.95-1.1.71,2.51,1.02v1.89l-13.43,1.1.55,3.61-2.12-1.1,2.98,11.23,9.5-10.92,9.74-4.56,1.65,1.57,4.63-11.39,1.49.94.08-.39,8.4-7.07-.79-15.39-4.32-4.08,2.67-14.37-2.98-8.4,5.42-9.82h5.5l1.34-1.89-3.53-.79v-3.53l8.4-4.87,1.1,1.57-1.65,4.95,6.52-.86-2.2-12.72-4.56-10.29-4.4,2.12,1.96,3.85-5.73,11.07-13.04-2.43v5.42l-8.95,1.1-1.34,2.43-2.98-.24Z"/>
  <path id="187" data-bs-toggle="tooltip" data-bs-title="Calkiní" class="cls-1 estado" d="M535.63,130.49l8.01-12.65,8.72-5.5,7.54,9.74-1.26,4.56,3.85,1.96-1.26,2.28-3.61-1.26-1.96,5.5-9.11,3.3-7.23-3.3,1.02-2.91-4.71-1.73Z"/>
  <path id="188" data-bs-toggle="tooltip" data-bs-title="Calkiní" class="cls-1 estado" d="M380.9,562.96l2.98-6.44v-7.62l12.72-27.88v-.86l4.24-3.06,8.48.24,5.26,5.03-6.28,8.72v2.04l2.98.47,3.3,5.73-1.26,1.26,2.75-.47,2.51,4.48-2.51,3.77,5.03,4.48.63,3.22-2.04.39v2.04l-2.91.55,1.65,3.3,1.65-.63,1.41,5.73-8.95,5.11-8.17.86-.47-1.02-2.59,1.57-3.14-1.02,2.91-3.06-7.15-12.25-2.28-.39-.39,5.5-4.32,2.51v-6.75l-3.53-.94-2.51,5.42Z"/>
  <path id="189" data-bs-toggle="tooltip" data-bs-title="Calkiní" class="cls-1 estado" d="M597.06,570.34l.63-1.96,2.91,1.26,2.43-7.23,5.81-9.5,2.51,1.49,1.81-4.4,8.95,3.14.39.63-4.32,11.55,1.18,1.18-.86,1.49,3.3-1.18-2.98,5.26,5.11,5.42,4.08,1.18-4.16,7.07-.24.08-4.56,11-5.66,3.14.47.79-.86-1.49,3.06-1.81-1.57-2.51.94-2.67-2.67-3.06,1.57-2.51-2.51-2.2-6.52.39,1.49-7.93h-2.36v-2.91l-4.56-1.26-.86-2.36h-1.02l-.94-.08Z"/>
  <path id="190" data-bs-toggle="tooltip" data-bs-title="Calkiní" class="cls-1 estado" d="M626.36,721.62l-1.57-1.57-10.13,6.36-2.51,16.49-2.59,11.39.47-2.04-7.38.24-2.28-2.28,3.22-16.97-3.22-1.81-2.75,1.81.47-5.97-5.97.94-1.73-3.38,4.48-5.34-3.69-2.75-.39-6.21,7.3-2.51,6.91-.94.86-4.16,5.5.47v-8.25l2.75.94,1.41,10.05,11.47,13.75-.63,1.73Z"/>
  <path id="191" data-bs-toggle="tooltip" data-bs-title="Calkiní" class="cls-1 estado" d="M474.68,805.19l-2.04,1.34v3.38l5.81.31,3.85-2.36.86.31v2.04l-3.06,2.75,2.36,5.03.79-.24-1.1,3.61h4.08v5.42l.71.63-2.91,6.75-11.39,6.36-5.03-6.36-10.21,10.13-8.88-15.24,5.11-6.28-3.77-10.13-6.36,1.26-5.11-7.62h-6.68l5.42-7.23v-3.38l-5.03-1.02,2.36-10.84,4.4,1.41,4.01-7.15,8.8-3.38,2.75,1.02v2.04l4.4,5.73,1.34-4.71,4.71,1.34v4.4l4.4,4.4-1.96,3.06,6.05,7.07-.31,2.04h-4.08l-1.65,4.08.94.31,1.73-1.73,4.71,1.41Z"/>
  <path id="192" data-bs-toggle="tooltip" data-bs-title="Calkiní" class="cls-1 estado" d="M666.02,222.47l-2.2,1.57-.79,3.06.79,3.69,1.41.16,1.34-1.41,2.59,1.02,1.96-1.02,4.79-7.07.39-2.83,1.81.16.24-2.04,2.12-1.02,1.26,2.51,2.67-1.02,3.3-8.4,4.16,2.67,4.48-4.01,1.1,2.59,7.54-1.57-2.67-6.6,2.04-3.14-.79-.39.55-3.69-6.91-2.83-1.41,2.36-3.77,7.54-8.25,3.61-4.48,7.85-1.73-.71-.08,1.65-6.28,1.41-.79,7.78-4.4-1.89Z"/>
  <path id="193" data-bs-toggle="tooltip" data-bs-title="Calkiní" class="cls-1 estado" d="M538.38,546.78l4.32,1.57v2.83l7.7,3.85-2.04,2.75,1.89.79,2.67-2.51,7.85,3.38.39,5.5-2.75.71v4.16l4.71,3.06,12.41-.24,6.36,5.89,3.69-.79,2.83,12.02-.79,7.07-7.7,5.03-3.06-2.2-2.98-.31-1.18-2.04-6.36.31-7.38-3.3-1.73,1.34-2.12-1.34.63-2.51-9.9-2.98v-.08l-2.28-3.3.94-2.2-3.3-.86-1.89,5.03-2.51.39-.31-5.58-2.83-1.49,1.81-2.04-1.81-3.14-2.36,2.83-2.51,1.18-3.69-3.22,1.81-6.99-2.51-2.51.55.08,1.34-4.01-2.67.31-1.02-2.04,1.65-5.03h5.42l1.65-3.38h-2.67l-4.08-1.02,1.41-3.06h2.67l1.02-2.36,2.04.71.63,3.69,3.06-2.67,2.98-1.26Z"/>
  <path id="194" data-bs-toggle="tooltip" data-bs-title="Calkiní" class="cls-1 estado" d="M639.87,73.07l1.41,2.91,26.63,5.11,15.24,16.49-12.72,7.54-11.39,15.24h-8.88l-13.98-10.13-1.57,3.14-9.98-10.92-4.95.71-2.59,3.93-2.91-1.34,2.91-3.61h-7.15l-6.13-11.23.55-.16,4.87-2.36,7.85,3.93-2.28-5.5,2.28-.71,1.65,2.28,3.22-2.59-4.24-3.93,1.26-7.85h.08l7.85-5.18,4.87,1.34,2.28,4.24,5.81-1.34Z"/>
  <path id="195" data-bs-toggle="tooltip" data-bs-title="Calkiní" class="cls-1 estado" d="M760.59,624.3l1.18,1.96,8.8-5.11,21.6,11.39v16.49l16.49,20.34,7.38-4.48-3.69,2.2-.55,10.76-5.42,3.69-5.73-1.26-.86-7.46-9.5,5.42-1.26,3.3-5.42,1.65-2.04-7.85-13.9-.71-.86-2.28,4.16-1.89,3.46-.39,1.89-4.56-9.11-7.15,7.54-1.49-4.08-5.73-6.44.39-.39-2.98-3.14-.94.39-.31.47-3.69,2.98-1.41,1.65.94h2.51l4.87-7.78-4.16-2.36-1.89.94-1.81,2.98h-2.98l-4.16-2.04-2.04,1.34-.47.55-2.04-1.1,6.05-4.16.55-7.23Z"/>
  <path id="196" data-bs-toggle="tooltip" data-bs-title="Calkiní" class="cls-1 estado" d="M590.3,725l-5.97-.94-1.41,3.22,5.03,4.16-8.72,9.11,1.41,2.36-1.81,1.81-6.91-1.41.47,6.44-.94,2.91-3.93.71,2.43-14.53-2.43-3.61,4.71,1.81,2.12-4.79-3.3-4.08,4.95-4.95,5.18-6.83.79-4.08h-1.89l.08-.16,5.97-3.22,4.56,1.41.47,6.44,3.69,2.75-4.56,5.5Z"/>
  <path id="197" data-bs-toggle="tooltip" data-bs-title="Calkiní" class="cls-1 estado" d="M570.59,172.67l.08-1.26h3.61l3.85,2.75h5.03l.86-3.61,2.2-.55,1.89,1.96,1.96-1.65,3.93-5.26.79-5.81,2.2-.31,1.1-11.62,1.96-.86,3.93,3.61,4.4-3.06-1.41-9.11,2.83.31,3.85,5.26,2.75-.86.31-4.71,8.4-5.73-.31-.39,5.34-10.05-12.72-5.81-.31,4.56-10.13,3.3-9.11,5.5-6.6-2.28,3.14,1.1-14.85,10.68-2.28-3.93-3.93,2.59,1.26,5.26-5.89,4.56,1.96,1.65-3.53,2.91-5.58-5.18-9.5-.71-1.96,2.36,1.73,6.52,1.96-.39,2.51,5.11,6.6-4.08.71,2.98-1.41,1.81-5.11,2.2-.39,2.91,1.49,2.2,1.81-1.49,1.96,4.08,5.58-1.41-.39,2.91,1.96,1.96,1.49-.86ZM562.18,170.39l-2.12,1.57h0l2.12-1.57Z"/>
  <path id="198" data-bs-toggle="tooltip" data-bs-title="Calkiní" class="cls-1 estado" d="M375.95,773.07l.79-1.34h3.3l4.56-5.11-2.51-.24.24-4.79-2.28-1.49v-3.3h-3.77l-1.57-3.85,2.04-.71,5.81,2.28.55,1.49,2.51-2.28,2.04,1.49-1.57,2.04.31,5.58h1.26l5.03-5.81,1.02.47-1.26,5.81-1.49,1.02-2.83,4.56v3.85l2.51,1.49,1.02-3.77,6.36,3.3,2.28-1.02,1.49,2.51,3.06-2.28h1.81l-.31,2.04,2.59.71,1.02-.94-1.57-1.02.55-2.59-1.57-1.49.79-5.34,4.56-.71-1.26-1.57,3.53-1.49-.24,5.34,3.53.47-.79-2.28,4.87,1.81.71,3.3-.71,1.26,3.53,3.3,1.73-1.26-2.98-3.3,5.03-.79,7.62,11.15-.24,1.26-3.06-1.02-3.77,3.77,1.73,5.58,2.51,2.04-1.18,3.69-1.18-.24.16-1.02-15.08-2.12v.24l-3.69-1.26-.79.24v2.28l-5.97,2.2-3.46-2.51-2.04,4.01h-1.73v-2.51l-4.01,1.81-2.2-3.3.71-.71-3.46-5.26-3.53,1.02.24-2.28-2.2.55-3.77-1.49-.47-9.5,1.26-1.49-2.75.71-1.02,2.28-2.51-1.49.55-2.04-.39.08Z"/>
  <path id="199" data-bs-toggle="tooltip" data-bs-title="Calkiní" class="cls-1 estado" d="M746.69,276.27l-6.52,29.22,6.36,2.51,1.26,17.75-11.39,2.51-10.13,16.49-7.07-.71,5.42-19.71-1.96,1.65.24-1.89-2.12-2.67,3.69-17.44,2.51.24,1.89-5.03,3.53.79,10.05-11.62.39-6.99,3.3-5.18.55.08Z"/>
  <path id="200" data-bs-toggle="tooltip" data-bs-title="Calkiní" class="cls-1 estado" d="M658.17,265.35l6.52-1.1-.24,5.42-.94,2.59,2.28,5.11-4.01,15.71-3.14.71-.08,4.01-.31-.31-2.75,1.1-5.58-1.1.31-3.85-1.73-.31-.08.79.86-16.18,3.22-1.26,5.66-11.31Z"/>
  <path id="201" data-bs-toggle="tooltip" data-bs-title="Calkiní" class="cls-1 estado" d="M473.58,611.82l3.38-.39,1.96-2.04,1.57.63v-1.57l1.73-1.57,3.77,2.91,2.67-1.34.79.79-1.41,2.83h-1.02l-2.67,1.02-1.34,1.49-1.26,2.59.08,1.65,1.18.08,1.26,2.75h-.08l-3.61,2.98,1.57.94-1.18,7.23h1.18l-.94,3.22-4.08-.24-1.73,3.38,1.73-3.38-1.18-2.28-1.89.86-2.36-5.26,1.96-2.12-.79-2.91h-.08l.55-1.65,3.14-1.41-2.91-5.5-2.67,1.34.47.94-3.22.24-.31,1.57-1.18-.08.08-.16-2.83-3.06,1.1-2.43,3.61.63v-1.26l2.59-1.81,2.36.39Z"/>
  <path id="202" data-bs-toggle="tooltip" data-bs-title="Calkiní" class="cls-1 estado" d="M652.43,240.14l5.42-.08,2.91,2.04,2.91-1.81,2.59,2.91,3.69-2.36,2.12,1.26-4.63,2.91-2.36,11.7,2.28,3.14-2.59,2.12-.08,2.28-6.52,1.1h0l-4.87-2.91-.79,5.34-4.08,1.96-.39,4.48-4.01-3.61-9.35,2.43v-2.75l2.2-.94,3.69.71,1.89-8.33h4.32l-1.73-4.79,1.41-5.89,8.48-9.43h-3.06l.55-1.49Z"/>
  <path id="203" data-bs-toggle="tooltip" data-bs-title="Calkiní" class="cls-1 estado" d="M613.4,599.95l5.66-3.14,4.56-11,.24-.08,11.55,2.91-.55-.16-2.12,8.64,11.31,5.34v.39h0l-4.56,5.66-7.93,26-3.38-3.61-4.16-1.81-2.12,2.75-9.35-6.91,5.81-2.51.24-2.2-2.04-1.1-3.77,1.96-3.61-2.91-1.34.94-3.14-.24v-3.14l3.14.24,2.67-1.1-5.34-2.67,4.24-10.37-.24.08,4.71-1.18-.47-.79Z"/>
  <path id="204" data-bs-toggle="tooltip" data-bs-title="Calkiní" class="cls-1 estado" d="M704.12,274.46l2.59.86,1.65-10.21,10.05-8.95,1.81-4.24-2.36.31,1.65-4.95-1.1-1.57-8.4,4.87v3.53l3.53.79-1.34,1.89h-5.5l-5.42,9.82,2.83,7.85Z"/>
  <path id="205" data-bs-toggle="tooltip" data-bs-title="Calkiní" class="cls-1 estado" d="M644.03,602.86v-.39l-11.31-5.34,2.12-8.64.55.16,4.63-5.73-2.43-1.34,5.58-5.26-.71-2.75,6.13-.86.94,1.81,2.28-.63,2.04-1.18,2.43.24-1.02,2.12,1.65.31,5.58-3.38,1.18,4.79-3.38,3.38,4.16,3.77,8.33.79,2.2,3.77v3.22l-1.49-.55-14.37,10.13-1.89-3.38-3.38,4.95-7.15,2.59-2.67-2.59Z"/>
  <path id="206" data-bs-toggle="tooltip" data-bs-title="Calkiní" class="cls-1 estado" d="M498.64,672.3l-4.56-2.83,1.26-1.73-3.3-1.02v-3.06l3.53-1.26-1.02-2.59,5.66-2.28v3.61l2.51-3.85h3.3l3.06,3.53.47-6.36,4.87-1.73,5.34,2.51,1.73-2.51,3.3-2.83,10.21,3.85,4.56-2.83.24-3.77,5.11-1.81-2.04-3.3,1.26-2.83,4.79-4.56,6.91,1.02,9.11-5.03-2.28-2.59,6.6-4.56,3.3-2.51,1.26-3.3,4.87-1.57,1.02-2.28-1.02-1.49,1.02-2.28-1.57-2.59-.79-2.75-2.75-2.59,3.77-2.28,1.81,1.02,8.4,7.38,3.53,6.6-3.77,8.88-2.36,1.26-1.02,6.6,2.59,2.04-2.28,1.57-1.02-1.81-2.59,3.85-5.26.47-5.89-1.49-2.75.24-2.83-1.02-4.32,2.51,3.85,3.06-.55,4.56-2.75-2.98-2.83,3.53,3.06,1.02v5.58l-5.34-2.83-1.02,1.81,2.28,2.04.24,3.3-3.77-1.57.47,4.32.24,6.36-1.73-1.73-3.06,2.28-1.81-.55-2.51,1.81-4.08.79-2.04-2.04-.24-1.81.79-1.81-4.79-1.96-.31,1.96-1.73,3.85-2.04-1.81-10.45,3.85-3.77-4.32-3.06,1.02.79,2.04-2.83.24-1.49-2.28h-2.28l-1.57,4.32-4.08,4.32-3.53-2.04Z"/>
  <path id="207" data-bs-toggle="tooltip" data-bs-title="Calkiní" class="cls-1 estado" d="M687.62,249.49l-2.43-1.49-9.27,4.71-11.15,9.27-.31,7.7-.94,2.59,2.28,5.11-4.01,15.71-3.14.71-.08,4.01,4.08,3.3,1.89,5.18-1.65,1.96-3.53-.31,4.4,4.71,1.65-1.96,2.75.86,4.95,8.25,2.98,1.26-.55-.24-3.46-7.93,1.65-11.39,5.42-7.23,1.02.31v-.08l-.24-6.99,5.42-.31,1.89-16.81-4.08-18.69,2.98.24,1.34-2.43h.16Z"/>
  <path id="208" data-bs-toggle="tooltip" data-bs-title="Calkiní" class="cls-1 estado" d="M514.43,243.83l4.87.16,3.69,9.66,3.69-.71.79-5.97,6.68-.39,11.08,13.35-2.91,4.48,6.68,5.18,1.41-3.69,5.26.71.71,7.85,15.95,9.27.39-3.38h6.68v5.58h8.88l-.39-3.38,15.24-5.5.79-4.87-2.98-1.1-.79-7.38h-5.5l-8.95-7.46-1.49-12.57,11.86-16.02-6.99-4.4-.39-6.99-2.28,1.34-.39,6.68-6.36,3.77-6.44-4.56-6.52,6.13-2.51.16-1.96,2.75-1.81-1.57,2.59-2.75-4.16-8.01,1.81-3.77-1.1-1.1-1.73,1.57-4.79,4.71-1.41-3.3h-4.79l-5.11-2.51-.79-1.26-1.73,3.06-2.51-1.65-.79,6.68-1.57,3.69,1.57,5.34-8.25,6.05-4.01-1.49-1.18-6.05-6.83-1.18-1.1.86,2.51,2.12-2.59,11.86Z"/>
  <path id="209" data-bs-toggle="tooltip" data-bs-title="Calkiní" class="cls-1 estado" d="M677.65,771.65l-10.21-8.88,4.08-6.36,4.24,2.04,4.87-4.87h1.65l5.66,5.97,2.59-6.21,4.79,3.93-4.24,8.25-11.86,2.51-1.57,3.61ZM666.26,732.22l-8.48-9.58-6.28,10.05,1.1-22.07,54.59-28.9,19.01,4.24.79,6.52-5.66,2.59.63,20.66-3.14,4.24.55,9.03,2.28,1.73,2.04,8.56-.63-.94-.55,6.52-15.32,1.65-1.96,1.41h-5.66l-6.21-9.27-3.69-.86-3.69,2.83-4.24-1.73,3.38-6.52-13.59-2.83-5.26,2.67Z"/>
  <path id="210" data-bs-toggle="tooltip" data-bs-title="Calkiní" class="cls-1 estado" d="M632.87,235.03l1.1-1.81,5.81-.63,2.43,2.28,4.79-1.34,1.49,2.28,10.53.39-1.02,3.93-.16-.08-5.42.08-.55,1.49.79-2.2-5.03.16-3.69,1.41-3.14-1.96-.94.71.08-.16-6.68,2.36-1.18-2.28.08.16.24-1.34,2.83-.79-2.28-2.67h-.08Z"/>
  <path id="211" data-bs-toggle="tooltip" data-bs-title="Calkiní" class="cls-1 estado" d="M680.71,322.93l-5.18-2.12-3.46-7.93,1.65-11.39,5.42-7.23,1.02.31,1.65,4.56,4.08,1.65-1.41,9.5h-3.53l-2.67,6.99,3.53,4.95-1.1.71Z"/>
  <path id="212" data-bs-toggle="tooltip" data-bs-title="Calkiní" class="cls-1 estado" d="M648.51,293.32l1.73.31-.31,3.85,5.58,1.1,2.75-1.1,4.4,3.61,1.89,5.18-1.65,1.96-3.53-.31,4.4,4.71,1.65-1.96,2.75.86,4.95,8.25,10.13,4.16v1.89l-13.43,1.1.55,3.61-2.75-1.41-4.4,5.81-6.6,4.95h-6.13l-4.63,5.18-3.22,3.22-15-9.19-3.69-16.02-.24.24,5.73-5.26-2.04-3.22-3.22-.86,3.22-6.44h6.05l-3.61-6.13.39-2.43,18.22-4.87.08-.79Z"/>
  <path id="213" data-bs-toggle="tooltip" data-bs-title="Calkiní" class="cls-1 estado" d="M573.81,176.6l1.02.31c2.51,0,1.65,3.06,1.65,3.06l3.06.31.86-1.96,1.89-.24c1.96,0-.24,2.75,2.83,2.98,2.98.31,2.75,0,3.3-1.34.55-1.41,0-2.51,0-4.48s1.96-1.65,1.96-1.65l1.34-3.06,3.06-.55,3.93,2.51,2.98-3.06-3.3-2.51,1.41-1.65,4.4-2.43,3.06,2.75,3.61-1.41-1.65,1.65c-3.06,2.83,5.26,1.41,7.46,1.41s1.96-1.96,1.96-1.96l2.75-3.3,7.54-.39-.31-.63,19.01-10.13-15.24-8.88-7.3-9.82-8.4,5.73-.31,4.71-2.75.86-3.85-5.26-2.83-.31,1.41,9.11-4.4,3.06-3.93-3.61-1.96.86-1.1,11.62-2.2.31-.79,5.81-3.93,5.26-1.96,1.65-1.89-1.96-2.2.55-.86,3.61h-5.03l-3.85-2.75h-3.61l-.08,1.26,1.26-.71.16,3.14h1.81l.55,1.34-.55.16Z"/>
  <path id="214" data-bs-toggle="tooltip" data-bs-title="Calkiní" class="cls-1 estado" d="M756.35,716.91l-.08-2.51,2.67-1.96v-3.06l3.61,1.57,1.26-4.87,4.48,1.18v-4.16l2.51-1.65,4.56,4.56,4.16-1.26,3.69-4.16,2.51,7.07,2.43,1.26-3.69,10.76-5.26,3.85-.55-.94-9.11-1.65-3.3-6.68-7.85,3.38-2.04-.71Z"/>
  <path id="215" data-bs-toggle="tooltip" data-bs-title="Calkiní" class="cls-1 estado" d="M629.73,253.96l1.49,1.34,2.28-.71,6.44-15-6.68,2.36-1.18-2.28-1.73,1.73-2.04-1.41-7.46.47-.63,2.67-6.13-4.32-.94,1.49-4.32.16-.86,1.02c1.49,1.02,2.75,1.57,5.11,1.57.94,0,3.69,2.75.55,2.75-.94,0-.79,1.34-.16,1.34,2.04,0,5.42.31,6.6,1.41l7.85-5.81,2.83,1.18-2.04,5.42,2.98,2.43-1.96,2.2Z"/>
  <path id="216" data-bs-toggle="tooltip" data-bs-title="Calkiní" class="cls-1 estado" d="M664.84,230.87l.79,3.06-1.18-.16-.94,6.6.16-.08,2.59,2.91,3.69-2.36.16-.94,4.01-.94.86-6.44-.24,1.49-2.75-.63-1.65-3.46-1.18.63-2.59-1.02-1.34,1.41-.39-.08Z"/>
  <path id="217" data-bs-toggle="tooltip" data-bs-title="Calkiní" class="cls-1 estado" d="M791.93,707.17v-4.08l4.56-2.51,4.95,1.73,5.42-2.51,2.43-3.3,5.81,4.08,13.27-13.2,8.64-4.95,13.27-4.56,3.69-.86-1.18-4.95h4.08l-2.43-3.77,5.81-2.43,9.11,3.38,2.83,14.85-5.34,4.08.39,3.77-2.91,4.24-.31-1.1-4.56,3.93h-5.89l1.49,2.75-.24,1.89-3.69,1.41-.86,2.75-9.43-1.02v3.93h-3.06l-2.51,3.53.63,2.75-4.24.63-5.18,5.66-6.99-9.19.16-3.93-3.3-4.56-12.88,5.73-6.6.47-4.95-4.63Z"/>
</svg>