<!--?xml version="1.0" encoding="UTF-8"?--><svg id="Campeche" xmlns="http://www.w3.org/2000/svg" version="1.1" viewBox="0 0 1300 1300">
  <defs>
    <style>
      .cls-1 {
        fill: #c4f5ee;
        stroke: #646464;
        stroke-miterlimit: 15.1;
        stroke-width: .2px;
      }
    </style>
  </defs>
  <path id="001" data-bs-toggle="tooltip" data-bs-title="Calkiní" class="cls-1" d="M720.3,25.5l6.6,114.5,14.5,2,2-12.5,2.6,15.7,37.5-5.3,2.6,29.6,16.4,2.6.7,7.2,18.4-2,14.5,3.9,9.9.7,7.9-5.3-.7-9.2,15.8-11.8,68.4,73h-11.8l-1.3,10.5-35.5-7.2-28,.7-7.7,17.8h-7.8c0,.1-1.8-4.5-1.8-4.5l-12.6-.2-2.6,6.6-8.5.7,2,12.5-19.7-1.3.7-17.1-6.6-1.3,1.3,5.3-8.5-.7.7,7.2-43.4-1.3-45.4,24.3-5.9-37.5,2-11.8-8.5-3.9,8.5-13.1-8.5-21.1,3.3-4.6-7.2-7.2,11.2-2.6-.7-5.3-9.9,2.6-.7-10.5,6.6-24.3,7.9-18.4,3.3-12.5-.7-28.3-5.3,13.2-4,28.3-5.9-3.3,3.3-29,7.9-15.8,2.6-9.2,9.2-5.3.7-5.3-7.2-5.9v-7.2l6.6-18.4,11.2,1.3Z"></path>
  <path id="002" data-bs-toggle="tooltip" data-bs-title="Campeche" class="cls-1" d="M869.3,434l8-1.3,4.7,4.7-17.3,38.7,19.3,4.7,11.3-13.3,8,9.3,2,11.3-10,4,6.7,14,2,18,17.3,2.7-.7,12-12,4.7.7,16,11.3,14,16.7,4.7,20.7-4.7,1.3,46.7h-16.7v-28l-80,4-3.3,54-17.3-3.3,3.3,13.3-8.7-.7-3.3-13.3-10.7-2-2,4-17.3.7-5.3-2.7-1.3-5.3h4.7v-13.3l-7.3.7-5.3-56.7-9.3-10-8.7,6,2,5.3,8-1.3,2.7,5.3-3.3,6.7-9.3-2-4.7,10-3.3-11.3h-7.3l-4-9.3v-8l5.3-17.3v-8l-12,8.7h-11.3l8-18.7-4.7-6-6,7.3h-18.7l-4-3.3,1.3-11.3.7-10.7-8.7,3.3-8.7-6.7-24.7-6,.7-18-8.7,6-10.7-4.7-3.3-6.7,2-8.7,10.7-12.7,16-12,15.3-10,4-11.3h7.3l6.7-8,4.7-17.3,7.3-2.7-1.3-11.3,24,.7,3.3-4.7h9.3l4,6.7h12.7l8.7,18.7,8.7,2,12.7-10.7,2,11.3-8,11.3,7.3,4.7,10-6.7,11.3,12.7-9.3,11.3h11.3l10-9.3,20,2.7,12.7,6.7Z"></path>
  <path id="003" data-bs-toggle="tooltip" data-bs-title="Carmen" class="cls-1" d="M450,1151.3l-8.7-3.2-16,2.5-4.5-6.6-4.5,3.3-9-.8-5.4-6.6h-6.6l-6.6-6.6-7.4,2.9-.4-4.1-4.5-1.2-1.2-8.6,5.4-1.7-1.6-4.5-4.9-1.6-3.7,4.1-.4,4.5-2.5,2.9-7-5.3-3.7,2.1-4.5-2.1-2.5,2.1,4.1,5.8v2.5l-3.7,1.6-3.3,1.2,1.6,7-4.9,4.1,1.6,8.2-4.5,5.3.4,6.2,2.5,1.7-1.2,3.3,2.1,4.1-2.1,5.8,2.5,10.7-2,12,.4,6.2,1.6,2.5,2,5.8,1.6,2.9-2.1,2h-5.4l1.6,5.8-.8,5.8-2.9,1.6-16.9-9.5-12.8-6.6h-6.2l-4.9-2.9,1.2-3.6,6.7-11.3-12.7-12-3.4-6.6,10,.7,28-5.3-.7-4.7-25.3,3.3-10.7-2.7-4.7-8,12-5.3v-15.3l-11.3-20h8.7l-8-12-7.3,6.7,3.3,23.3-3.3-.7-3.3-25.3-9.3-5.3-.7-9.3-14-26v-15.3l-8-1.3-18.7,16-10-11.3,7.3-7.3,9.3,2.7,8-9.3v-8l2-14,8.7-18,4.7,2.7-3.8,1.3-1.7,4.1-1.2,4.1-1.2,3.7,2.1.8,2.9,2.5-1.2,4.5,1.2,1.7-1.6,2.5-4.1-1.6-2.9,2.1-.4,3.3v5.3l2.9,1.2,3.3,2.5.8,4.1,1.2,3.7,3.3-2.1v-3.3l1.6-4.9-.8-3.7,4.1-3.7.8-4.1-4.1-4.5-2.1-3.3-2.1-4.9-.8-3.3.4-3.3,2.9-.8,5.8,2,2.9-1.6,2.1,3.7h-4.9l-2.5,4.1,2.1,3.7,3.7.8h3.3l.4,4.9,2.5,1.7,5.8-.8,2.9-3.3,3.7-.4,1.6,3.3,2.1,2.1,2.9,2.1,4.5,2.9-4.5-6.6-3.7-6.6-3.7-1.2-4.1-1.2-1.2-3.3-.8-4.9-4.1-4.1-4.5-3.3-3.3-1.2v-2.9l3.3-1.7,2.9,2.9,4.5,4.5h4.9l2.5-2.9-2.9-6.2-5.8-1.2-4.9-.4-.4-2.5,1.8-4.7-13.3-4h-19.3l-9.3,2,1.3-6.7,9.3.7-.7-4-17.3-9.3-4,6-8-2-12.7,13.3-14.7-.7-4-9.3-4.7,4.7-20.7-4.7-.7-12,4.7-2-3.3-6-10,10-14-2.7v8.7l-7.3,6.7-16.7-.7-3.3,14.7,16.7,19.3v10.7l-48.5,5.3-3.3-1.6v-5.8l-12.3,14.4-4.5-2.4,1.6-4.1-4.1-1.2-6.6-5.3-5.3.4-4.6-1.6-6.6-12.8.8-4.9.4-9-13.1-16.9-7-.4,1.2-4.5,2.5-5.8v-7.4l-2.5-1.7,5.8-5.8,4.1,1.7,3.7-1.2-1.6-6.2,2.9-.8h1.6l.4,2.5,3.7,3.3,2.5-.8.8-2.5-2.9-2,3.7-.4,5.3,2,3.7-1.6-2.1-2.1-4.1-2.1,2.1-2.1,9.5-2,11.2-3.4h11.5l9.9-3.3,12.8-.8,6.2,1.2-7,2.9h18.1l11.1-1.2,14.4-1.2,13.2-4.1,10.7-.8,12.8-.4-14.8,4.5h-9.1l-15.7,3.7-3.7,3.7-7-1.2-11.1,2,6.6,1.7h8.2l13.6-.4,7,.8,6.6-2.9,2.1,2.5,8.2-.8,4.1,1.2,9.5.4,8.2,1.7,14.5-1.7-.9-6.6h4.6c0,.1,5.8-3,5.8-3l7.4,1.8,6.7,3.7-8.5,2.2-6.8.5-8.3,1.5-10.4,4.5-7-1.2-11.5.4,1.6,3.7-.8,3.3-4.5,2.1-4.1-1.2-1.6-2.9-2.4-5-18.1,2.9-5.8,6.2-3.7,6.6-4.9-2.9-5.8-4.5-2.9,2.8-10.7-.4-4.1,3.7-3.3,4.9.8,8.2-1.2,4.9-3.7,3.3h-5.8l-7,3.3-4.1,5.3-4.1.8h-7l6.2,2.5.4,4.9,4.5,2.5.8-9,3.7-4.5,5.8-4.1,7.8-.8,3.7-4.1,2.9-1.2,3.9,1.8,16.7.7,7.3-6.7v-8.7l14,2.7,10-10,3.3,6-4.7,2,.7,12,20.7,4.7,4.7-4.7,4,9.3,14.7.7,12.7-13.3,8,2,4-6,17.3,9.3.7,4-9.3-.7-1.3,6.7,9.3-2h19.3l13.3,4,4.4,1.8,5.4.8,3.7-.4,9.1,1.2,5.4,2.9,5.4,3.3,7-1.2,6.2-1.6,2.9,3.7,6.2.4,2.5-4.5,5.4.4,3.3.4,7.4-.4h7l6.2-.8,8.2-3.3,7.4-3.7,4.5-.8,1.2,4.5,1.2,2.9,3.7-2.9,3.3-.8-2.1-5.8-1.6-5.8.8-6.6.8-6.2,3.7-2.9,5.4-2.9,3.3-.8,2.9,1.2.4,4.5,2.9,1.2,4.5-1.2v-3.7l-.4-5.8-3.3.4-2.5-.8,2.9-2.9,8.2-2.5,9.1-3.7,3.3-1.7,1.2,4.5,3.3,1.2,3.3-.8.8-6.6,3.7-2.9,2.9-1.2.4-3.7v-3.7l2.9,2.1,3.3,1.7,3.7-4.5-4.5-2.9,2.1-3.7-1.7-4.6,3.7-1.7,4.1-.8v-2.9l5.4-.4,1.6,3.3,2.1-.8v-4.5l4.1-.8.8-4.1h-4.9l-6.6-1.7-2.5-.8-5.8,1.2-.8-3.7,3.7-2.1v-2.8l-.4-3.3,3.3-2.5,6.2-2.5.4-3.3.4-5.3,1.6-3.7.8-4.5-2.9-1.2-.4-5.3,4.1-1.2v-2.5l2.5-1.2-2-2.1h-1.2l-1.2-2.9-3.7,1.2-2.9.8-.8-2.9-3.7.4-1.3-2.4-1.2-1.2-2.1-3.8-3.3,2.1-.8-5.8-4.1,1.2-2.1-1.2-3.3-.4-1.2,2.1-2.5-2-5.4,7-2.5-4.1-1.2-2.5-4.9,2.5-.4-2.1,3.7-6.6-1.2-1.6,2.5-2.9-2.9-2.5,3.3-4.9-2.9-.8-5.8,4.9,3.3-4.9,4.5-6.6h-4.9l.8-2.5.4-2.9-2-2,8.6-7.4,9-7.4,13.6-8.2,5.8-2.1.8,2.5,5.8,1.2,1.2,2.5h4.6l1.2-3.7,2.5.4.8-4.1-1.2-2.5,2.1-1.7,2.5-3.3-3.7,2.1-5.8-2.5,11.1-7,9.5-4.5,11.5-4.5,5.8-3.3-1.2-4.1-7.4,5.3-8.2,1.7-4.5,2.5-5.8.8-7.4,4.9-4.9,5-3.7,4.5-6.6,3.7-7.4.8-5.4,5.8-5.8,2.9-4.9,3.7-4.9,2-3.7,1.7-.4-.4-7.4,4.5-9,6.2-4.1,4.1-4.5,4.1-3.3,4.9.8,3.3-6.6,4.9-2.9,5.8-2.9,4.2-5,5.4-4.1,3.3,1.6,3.7-1.2,4.1-3.3,1.6-4.9,1.3-7,6.2,4.1,6.6-2.5-.4-5.7-5.8-2.9,2.5-3.7-2.5-20.6,11.9-3.3,4.9-7.4,4.9-3.7,5.3-1.6,4.5-4.5,1.2-4.5,2.1-2.5,3.3-3.7-4.1-8.6,6.6.4,4.5-3.7,2-5.3,4.1-4.1,7-5.4,1.2-6.6,1.7-4.5-2.5-2.9-.4v4.1l-4.5,4.1-4.9-3.3-3.3-2.9-4.9-2,2.1-3.7v-3.3l4.9-.4,5.8-2.1,6.6-.8,5.8-1.2,8.6-1.6,7.8-4.5,6.6-4.1,7.8-5.3,4.1-3.3,7.4-4.1,5.4-3.3,4.9-4.1,7-4.1,22.6-12.8,4.1-4.5,4.1-1.2,2.1,3.7,2.9,2.9,8.6-8.2-2.9-2.9,12.4-14,14.4-17.7,8.2-10.3,7-8.6,18.9-11.9,17.3-9.9,24.7-15.2,12-8.2,8.6-4.1,19.1-4.2,1.3,4.7,5.3,1.3,19.3,13.3,6-12.7,11.3,14-9.3,7.3,26,18.7,6.7-12,18,13.3-6,6.7-.7,8.7,18,10.7,8,.7,11.3,2-8,14,2.7,12,10.7.7-.7,6,8.7.7-2.7,10.7-6.7-.7-2,12-7.3,1.3v2.7l-10,4-5.3-.7-4,19.3-4.7,1.3-1.3-12.7-23.3,2,.7,8,4,.7.7,18-14.7,14,7.3,7.3-10,46.7,14,10.7,1.3,10-8,4v8.7l-18.7-2-.7-12-12,5.3,2.7,7.3-4.7,5.3h-7.3l6,10-7.3,8.7-10.7-2-8,6.7-1.3,20-26,6.7-3.3,6.7,10.7-.7-4,20,8.7,18.7-23.3,2v7.3l-6.7-.7-2.7,10Z"></path>
  <path id="004" data-bs-toggle="tooltip" data-bs-title="Champotón" class="cls-1" d="M861.1,746.6l-1.1,5.4-14.7,14.7-2,23.3h-30v42h-56.7v92.7l-22.7-.7,6-40.7-57.3-5.3-31.3-12.7-2.7-9.3,5.3-14-7.3-3.3,6-4,2.7-14.7-6-2-11.3,13.3-13.3-13.3-1.3,4.7-8.7-8.7-9.3,5.3.7,12-8-.7-18-10.7.7-8.7,6-6.7-18-13.3-6.7,12-26-18.7,9.3-7.3-11.3-14-6,12.7-19.3-13.3-5.3-1.3-1.3-4.7,44-35.3,31.3-26,22.7-26,24-23.3,14.7-26.7-4-18,4.7-10,2.7-17.3,11.3-7.3,11.3,2-1.3-20,18.7-3.3-2-22,8.7,1.3,6-8.7,14.7-2-1.3,11.3,4,3.3h18.7l6-7.3,4.7,6-8,18.7h11.3l12-8.7v8l-5.3,17.3v8l4,9.3h7.3l3.3,11.3,4.7-10,9.3,2,3.3-6.7-2.7-5.3-8,1.3-2-5.3,8.7-6,9.3,10,5.3,56.7,7.3-.7v13.3h-4.7l1.3,5.3,5.3,2.7,17.3-.7,2-4,10.7,2,3.3,13.3,8.7.7-3.3-13.3,17.3,3.3,3.3-54,80-4v28l-1.3,28.7,4.7,80-29.9-7.1,2.9,10-57.9-5.7v20.7Z"></path>
  <path id="005" data-bs-toggle="tooltip" data-bs-title="Hecelchakán" class="cls-1" d="M936.7,298l.7,18-3.3,3.3,1.3,16-13.3-2-.7,21.3-5.3,10.7h8.7l1.3,10-36,5.3-4-2,6-4.7v-5.3h-3.3v-9.3l-9.3-.7,8.7-8-2.7-2h-14l-10,6.7-18-19.3-13.3,6.7-2.7,6h-8l-.7-24.7-32.7,2.7-12.7-6.7-4-7.3-20,2.7-2.7-6-10-4.7-6.7,7.3-10,.7-1.3-7.3-18.7,2-3.3-6,8.7-12.7-4.8-7.9,45.4-24.3,43.4,1.3-.7-7.2,8.5.7-1.3-5.3,6.6,1.3-.7,17.1,19.7,1.3-2-12.5,8.5-.7,2.6-6.6,12.6.2,1.8,4.6h7.8c0-.1,4.2,16.6,4.2,16.6l11.3-.7.7,14,12,.7.7-20,12-2v-5.3l10,2.7.7,10-9.3,17.3,28.7,4-4.7,11.3,17.3-1.3Z"></path>
  <path id="006" data-bs-toggle="tooltip" data-bs-title="Hopelchén" class="cls-1" d="M938.7,259.3l15.3,2,1.3,14,4,12,15.3-19.3,62,68-2,24,6-.7v6l4.7.7-2,16,28,38.7,19.3-1.3v14h-5.3l8.7,14.7h9.3l12.7,18,109.3,79.3,8.7,114,6.7,2-1.3,59.3,3.3,40.7-31.3,4.7-3.3-16,.7-18-92.7,10.7-6-79.3-36.7-.7-.7,40-71.3,4,1.3,14.7-56.7,7.3-4.7-80,1.3-28.7h16.7l-1.3-46.7-20.7,4.7-16.7-4.7-11.3-14-.7-16,12-4.7.7-12-17.3-2.7-2-18-6.7-14,10-4-2-11.3-8-9.3-11.3,13.3-19.3-4.7,17.3-38.7-4.7-4.7-8,1.3,2.7-17.3,11.3,4,5.3,11.3h6l-.7-22.7-16.7.7v-22.7l16.7,3.3-4-10,36-5.3-1.3-10h-8.7l5.3-10.7.7-21.3,13.3,2-1.3-16,3.3-3.3-.7-18,2-38.7Z"></path>
  <path id="007" data-bs-toggle="tooltip" data-bs-title="Palizada" class="cls-1" d="M118.7,1016l-16.7-19.3,3.3-14.7,16.7.7,7.3-6.7v-8.7l14,2.7,10-10,3.3,6-4.7,2,.7,12,20.7,4.7,4.7-4.7,4,9.3,14.7.7,12.7-13.3,8,2,4-6,17.3,9.3.7,4-9.3-.7-1.3,6.7,9.3-2h19.3l13.3,4-9.3,6-4.7,12.7-4.7-2.7-8.7,18-2,14v8l-8,9.3-9.3-2.7-7.3,7.3,10,11.3,18.7-16,8,1.3v15.3l10,20,4,6,.7,9.3,9.3,5.3,3.3,25.3,3.3.7-3.3-23.3,7.3-6.7,8,12h-8.7l11.3,20v15.3l-12,5.3,4.7,8,10.7,2.7,25.3-3.3.7,4.7-28,5.3-10-.7,3.3,6.7,12.7,12-6.7,11.3-8.7-9.3-.7,8-18-14h-21.3l-12-12-28,2-4.7-12-7.3,3.3-7.3-5.3-5.3-11.3-6,2.7,2.7-9.3-12,1.3-8.7,6.7-14.7-8,1.3-7.3-10-1.3-1.3-10-5.3-2-.7-16.7,5.3-4-14-21.3,1.3-30.7-5.3-10.7v-34.7Z"></path>
  <path id="008" data-bs-toggle="tooltip" data-bs-title="Tenabo" class="cls-1" d="M890,380.7l4,10-16.7-3.3v22.7l16.7-.7.7,22.7h-6l-5.3-11.3-11.3-4-2.7,17.3-12.7-6.7-20-2.7-10,9.3h-11.3l9.3-11.3-11.3-12.7-10,6.7-7.3-4.7,8-11.3-2-11.3-12.7,10.7-8.7-2-8.7-18.7h-12.7l-4-6.7h-9.3l-3.3,4.7-24-.7.7-4.7-5.3-1.3-3.3-4.7,4.7-8-15.3-18,4.7-10-4-3.3,6-9.3-6.7-10,18.7-2,1.3,7.3,10-.7,6.7-7.3,10,4.7,2.7,6,20-2.7,4,7.3,12.7,6.7,32.7-2.7.7,24.7h8l2.7-6,13.3-6.7,18,19.3,10-6.7h14l2.7,2-8.7,8,9.3.7v9.3h3.3v5.3l-6,4.7,4,2Z"></path>
  <path id="009" data-bs-toggle="tooltip" data-bs-title="Escárcega" class="cls-1" d="M854,1076.6l-14.7.8v-11.3l-53.3,3.3-14-103.3,2-18.7-21.3,1.3.7,18-29.3,2.7v-14l-8.7-.7-1.3,11.3-40.7,3.3,3.3,55.3-28.7-1.3v34.7l-13.3-.7-.7-16.7-27.3.7v10l-21.3,2.7,4-9.3,2.7-1.3,4.7-9.3-8-4-6,7.3h-8l-1.3-9.3-14.7-2.7,8-4-1.3-10-14-10.7,10-46.7-7.3-7.3,9.3-8.7,5.3-5.3-.7-18-4-.7-.7-8,23.3-2,1.3,12.7,4.7-1.3,4-19.3,5.3.7,10-4v-2.7l7.3-1.3,2-12,6.7.7,2.7-10.7-8.7-.7.7-6-10.7-.7-2.7-12,8-14-11.3-2-.7-12,9.3-5.3,8.7,8.7,1.3-4.7,13.3,13.3,11.3-13.3,6,2-2.7,14.7-6,4,7.3,3.3-5.3,14,2.7,9.3,31.3,12.7,57.3,5.3-6,40.7,22.7.7v-92.7h56.7v-42h30l2-23.3,14.7-14.7,1.1-5.4,35.7-1.4.7,12.9,11.4-.7-4.3,99.3-20,.7-1.4-5.7h-14.3l.7,15.7,9.3.7-.7,7.9-13.6.7v12.9h-7.1l-4.3,18.6,7.1,2.1-4.3,10.7,15-1.4v18.6l3.6.7.7,12.2,6.4.7.7,4.3,22.9-2.9-.7,29.3,6.4-.7,5,76.4-61.4,8.6-.7,10Z"></path>
  <path id="010" data-bs-toggle="tooltip" data-bs-title="Calakmul" class="cls-1" d="M1242.7,761.3l7,47.4-6.4,1.4,12.8,117.2,10.7,1.4,3.6,24.3-5.7.7,4.3,36.4-6.4.7v26.4l6.4,1.4.7,29.3-20.7,4.3,2.9,22.1,22.1-2.9v10.7l-7.9,2.1,1.4,13.6-15,.7,2.1,28.6,17.9-1.4,5.7,54.3-412.9,35-6.4-137.8-5-.7.7-10,61.4-8.6-5-76.4-6.4.7.7-29.3-22.9,2.9-.7-4.3-6.4-.7-.7-12.2-3.6-.7v-18.6l-15,1.4,4.3-10.7-7.1-2.1,4.3-18.6h7.1v-12.9l13.6-.7.7-7.9-9.3-.7-.7-15.7h14.3l1.4,5.7,20-.7,4.3-99.3-11.4.7-.7-12.9-35.7,1.4v-20.7l57.9,5.7-2.9-10,29.9,7.1,56.7-7.3-1.3-14.7,71.3-4,.7-40,36.7.7,6,79.3,92.7-10.7,2.7,34,31.3-4.7Z"></path>
  <path id="011" data-bs-toggle="tooltip" data-bs-title="Candelaria" class="cls-1" d="M865.4,1215.1l-280.1,23.5-2-24-3.3-2-.7-8,4.7-2.7-1.3-23.3-49.3,4-6.7-8-.7,11.3-6.7-8-24,3.3-8.7-3.3-7.3-9.3-17.3-14-10-.7-2-2.7,2.7-10,6.7.7v-7.3l23.3-2-8.7-18.7,4-20-10.7.7,3.3-6.7,26-6.7,1.3-20,8-6.7,10.7,2,7.3-8.7-6-10h7.3l4.7-5.3-2.7-7.3,12-5.3.7,12,18.7,2v-8.7l14.7,2.7,1.3,9.3h8l6-7.3,8,4-4.7,9.3-2.7,1.3-4,9.3,21.3-2.7v-10l27.3-.7.7,16.7,13.3.7v-34.7l28.7,1.3-3.3-55.3,40.7-3.3,1.3-11.3,8.7.7v14l29.3-2.7-.7-18,21.3-1.3-2,18.7,14,103.3,53.3-3.3v11.3l14.7-.8,5,.7,6.4,137.9Z"></path>
  <path id="012" data-bs-toggle="tooltip" data-bs-title="Seybaplaya" class="cls-1" d="M709.3,514l-14.7,2-6,8.7-8.7-1.3,2,22-18.7,3.3,1.3,20-11.3-2-11.3,7.3.7-8.7-4-4v-20l-5.3-2,9.3-12,.7-13.3-7.3-8-15.3.7,16-2.7-3.3-6.7,16-20,10.7,4.7,8.7-6-.7,18,24.7,6,8.7,6.7,8.7-3.3-.7,10.7Z"></path>
  <path id="013" data-bs-toggle="tooltip" data-bs-title="Dzitbalché" class="cls-1" d="M924.3,239.3l.4,6.7,12.7-2,1.3,15.3-2,38.7-17.3,1.3,4.7-11.3-28.7-4,9.3-17.3-.7-10-10-2.7v5.3l-12,2-.7,20-12-.7-.7-14-11.3.7-4.2-16.7,7.7-17.8,28-.7,35.5,7.2Z"></path>
</svg>