<svg id="Chiapas" xmlns="http://www.w3.org/2000/svg" viewBox="0 0 1187 847">
  <defs>
    <style>
      .cls-1 {
        fill: #c4f5ee;
        stroke: #000;
        stroke-miterlimit: 15.12;
        stroke-width: .5px;
      }
    </style>
  </defs>
  <path id_mun="001" data-bs-toggle="tooltip" data-bs-title="Acacoyagua" class="cls-1 estado" d="M489.24,632.85l1.21-8.48,14.54-8.48,8.03-2.12,24.23-.45-2.73,8.78-8.03-.15-6.66,10.3,5.15,2.42-8.33,17.87-15.45,4.39-6.06-4.09-5.91-19.99Z"/>
  <path id_mun="002" data-bs-toggle="tooltip" data-bs-title="Acala" class="cls-1 estado" d="M450.63,330.31l4.85-2.27,9.69,3.48,6.51,14.54,3.33.76-.45,8.03-5.75-.15-1.82,3.94.61,3.63,7.87-.61-3.48,4.24,8.18,5.45-3.48,7.72-4.24,1.06,5,6.97-7.27,6.51-2.12-8.78-9.24-1.82-1.67-4.54-6.66-.3,1.36-3.48-5.91-6.06-3.63,1.36v-3.63l6.81-1.82-1.21-4.85,5.6-5.3-4.69-.15-.3-3.79-3.63.15-11.96-12.72,2.27-3.03,15.45-2.12v-2.42Z"/>
  <path id_mun="003" data-bs-toggle="tooltip" data-bs-title="Acapetahua" class="cls-1 estado" d="M501.21,656.93l23.02,12.87-5.3,8.48,1.82,3.63-17.41,21.2-4.24-4.54-3.48,3.79-.91,6.21,10.75,18.02-2.88,1.21-49.21-45.12,16.96-14.39,1.97-9.84,6.81-6.81-.3-13.63,5,2.57,5.45-7.72,5.91,19.99,6.06,4.09Z"/>
  <path id_mun="004" data-bs-toggle="tooltip" data-bs-title="Altamirano" class="cls-1 estado" d="M616.74,298.36l17.11-8.18,3.63-17.72,8.63.76-2.42,4.85,3.48,4.09,14.84-3.48,7.87,4.69,1.97,9.99,30.59-1.67-1.97,11.81,34.68,19.08,16.66,1.97,5.45,7.12-13.17,3.94-.61,6.06-9.69.45-6.97-9.24-4.09,3.03-1.67,11.21-14.23,5.45-5.45-11.05-11.36,1.06-6.66-4.54-13.93,4.39-1.67-11.36-16.96,2.42-9.69-16.2,3.33-6.21-11.66-3.03-16.05-9.69Z"/>
  <path id_mun="005" data-bs-toggle="tooltip" data-bs-title="Amatán" class="cls-1 estado" d="M420.04,126.19l1.67,2.12,1.06-2.12,2.73-.15,1.82-1.82,5.45,1.36,3.63,8.78,4.85-3.94,1.21,6.36,2.12,2.73-.15,3.33-1.06,1.82-6.81,1.36.76,2.42,5.45,2.73-.15-2.88,9.84-2.57-.45,3.03,5.6,4.39-.3,6.36,2.73-.3v2.73l2.73,1.97-1.67,1.67,1.06,5.45-3.48-2.57-6.36,3.33,3.48,2.73-1.82,3.94-5.3.91h-2.73l-2.27-2.88.3,5.91-6.21-.91.61-2.27-4.85-3.33,1.67-1.06-1.67-3.33-9.84.76-4.24-7.72-.15-4.85.3-6.21-1.21-1.21v-2.12l3.48-.3,1.21-1.36-2.27-2.73-2.27-.15-.3-3.03-4.09-1.36,2.57-4.09-.15-4.54,3.48-6.36Z"/>
  <path id_mun="006" data-bs-toggle="tooltip" data-bs-title="Amatenango de la Frontera" class="cls-1 estado" d="M632.19,571.22l10.15.15,1.82-4.24h25.29l-29.22,61.18-6.51-6.51,4.54-11.51,3.63-.15.45-13.02-2.73-2.42-5.45,3.63-9.54-6.06-3.79-9.39,9.09.45,2.27-12.11Z"/>
  <path id_mun="007" data-bs-toggle="tooltip" data-bs-title="Amatenango del Valle" class="cls-1 estado" d="M562.53,345.3l11.05,9.84,5.3,7.87-1.51,8.63-5.75,2.88-1.82-5.91-14.84-1.67-13.02,10.6-3.79-10.45,6.36,1.82.15-14.54,3.63-11.66,14.23,2.57Z"/>
  <path id_mun="008" data-bs-toggle="tooltip" data-bs-title="Ángel Albino Corzo" class="cls-1 estado" d="M518.32,523.52l2.27,6.97-1.67,8.93,3.79,5.75,6.97-2.57,13.48,6.66-.91,9.39v9.24l6.66,5.75-9.99,11.96-4.85-4.39-13.93-2.42,6.81-6.21-2.27-3.03,4.39-5.6-1.51-9.99,2.73-2.57-2.57-2.88-3.79,2.88-10.75,3.48h-4.69l-5.75,9.99-1.97-3.94h-3.33v6.21l-12.11,5.3-.15,7.42-15.14-7.12,6.51-14.69-8.33-6.51v-5.15l10.15-12.27-5.91-.45,8.33-8.48,4.24.45,20.44-16.35,6.06,7.27,3.94-.3,2.88,7.27Z"/>
  <path id_mun="009" data-bs-toggle="tooltip" data-bs-title="Arriaga" class="cls-1 estado" d="M159.75,466.13l13.93-9.69,2.73-4.69-2.42-5.45,2.27-4.85-5.6-14.39-12.27-16.66,7.27-5,2.88,2.12.76,3.79h2.27l2.42-1.67,7.27,3.18-1.82,2.88,6.36,2.57,1.82-3.03,1.97,2.57,8.03.15,9.69,3.94,11.21,2.12.15,3.48,1.82.76,1.97-1.67,3.18-4.69,6.81-.45,9.54,3.94.45,3.18,7.12,5.91-10.3,14.54,1.06,6.97h-3.18v2.57l-4.69-.15-.91-3.94-20.9,10.15-3.79,21.2-43.16-7.57-3.03-4.85-.91-7.27Z"/>
  <path id_mun="010" data-bs-toggle="tooltip" data-bs-title="Bejucal de Ocampo" class="cls-1 estado" d="M624.62,592.27l9.54,6.06,5.45-3.63,2.73,2.42-.45,13.02-3.63.15-4.54,11.51-1.67-5.15-10.75-.76,3.33-23.62Z"/>
  <path id_mun="011" data-bs-toggle="tooltip" data-bs-title="Bella Vista" class="cls-1 estado" d="M591,566.22l4.69-5.91,7.87,3.48,8.63-8.03,19.99,15.45-2.27,12.11-9.09-.45,3.79,9.39-8.63-2.73-6.36,1.82-6.66,1.97-6.51-2.12-5.15-6.81,1.82-9.09-2.12-9.09Z"/>
  <path id_mun="012" data-bs-toggle="tooltip" data-bs-title="Berriozábal" class="cls-1 estado" d="M336.46,252.78l.15,6.21,5.3,2.12v9.39l-4.39,6.21,4.39,4.24,5,.76,1.36,11.66,14.69,7.87-.61,5.6-6.97,9.09-2.88,3.79-2.88-.15-1.21,3.94h-4.39l-5.6-2.57v-4.09l-1.51-2.57,1.67-1.97.91-4.54-4.85-2.88-9.09,2.27-1.67-1.67.45-5.6-6.97-9.99-2.12.15-.15-1.67,1.51-1.82v-4.39h-2.57l-.45,1.97-1.51.61-2.57-1.67.76-3.03,8.93-.15,2.73-3.63-1.36-2.12,1.82-1.06-.15-5.3-1.36-3.03-4.09.15-.91-2.88,2.57-2.73,3.63-.61-1.06-7.27,4.39-2.73,8.03,2.27,3.03,1.82Z"/>
  <path id_mun="013" data-bs-toggle="tooltip" data-bs-title="Bochil" class="cls-1 estado" d="M386.88,240.36l-.45-2.42,5.75-2.73-1.06-3.48,5.6-3.03-1.21-3.33,2.57-4.09-4.09-5.91,6.36,3.79,7.42.15,4.69,4.85,2.57-3.03,6.36-.3-10.6,10.6-.61,5.15,11.66,2.42-3.03-4.09.91-3.18,4.54-6.66.3,12.27,5.91,4.54,6.97-2.57,1.97-3.94,2.27,1.36.45,6.66,8.33,2.88-6.06,8.63,3.18,2.57-2.57,8.48-5.15,3.79-6.81,2.73-7.87-.91-3.79-5,1.51-2.73-11.36-5.3-9.54-.45-6.36-1.82-2.88-13.93-5.91-1.97Z"/>
  <path id_mun="014" data-bs-toggle="tooltip" data-bs-title="El Bosque" class="cls-1 estado" d="M469.25,257.32l-4.24-.15-.76-7.57-3.03.91-2.12,5.15-8.63-9.39,3.48-4.39-4.54-7.72,9.84,1.67,5.15-12.27,7.87,2.27,10.15-3.63,6.06,6.06-2.57,9.09-8.48,8.93-.3,3.33h-6.36l-1.51,7.72Z"/>
  <path id_mun="015" data-bs-toggle="tooltip" data-bs-title="Cacahoatán" class="cls-1 estado" d="M636.27,677.82l13.93,15.29v10.15l-3.94,6.36-3.79,2.27,4.69,10.45-5.15,6.51-6.97,3.18-2.88-4.09.76-7.27-8.93-1.67-1.21-1.97,4.69-21.96,4.09-3.48.61-9.39,4.09-4.39Z"/>
  <path id_mun="016" data-bs-toggle="tooltip" data-bs-title="Catazajá" class="cls-1 estado" d="M587.82,52.75l7.72,1.67v-3.63s3.46,1.03,4.24-.15c.63-.95-1.21-3.18-1.21-3.18l1.67-1.97s-6.33-4.93-4.39-6.81c1.8-1.75,6.21,4.24,6.21,4.24l3.03-3.94s1.31-3.8.76-5.6c-.2-.65-1.36-1.51-1.36-1.51,0,0-.56-2.24.15-2.88,2.71-2.43,7.52,1.96,10.9.61,1.03-.41,2.01-1.35,2.27-2.42.26-1.07-.09-2.44-.91-3.18-1.25-1.14-4.78.77-5-.91-.44-3.43,5.94-4.12,9.39-4.39,1.1-.09,2.35,1.63,3.18.91.81-.7-1.32-2.55-.45-3.18,1.04-.76,2.26,2.08,3.48,1.67,1.67-.56,2.23-2.94,2.42-4.69.31-2.8-4.6-6.83-2.12-8.18,2.76-1.5,3.44,5.79,6.36,6.97,2.2.89,5-1.54,7.12-.45.85.43,1.57,1.47,1.51,2.42-.12,2.01-3.79,4.69-3.79,4.69l-.15,3.18,1.97,1.67,3.33-.3,1.97-2.42v-4.54s.84-2.59,1.97-2.88c1.6-.4,4.39,2.27,4.39,2.27l1.67,1.51,1.82-.45,1.67-1.51,1.97.15,2.42,1.67,2.57.45,4.24-3.33,1.97-1.97s1.59-.47,2.12,0c1.76,1.54.91,6.97.91,6.97l2.12,2.57,3.03.91s1.51.66,1.67,1.36c.19.81-1.06,2.27-1.06,2.27l-1.51,1.51v5l1.06,1.97-7.72,3.03-.76-2.42-2.42-1.97-2.12-.45-.45-1.97-7.27.76-5.3-3.48-5.15,2.73-.15,1.51,2.73.61-.3,1.67-4.85.76-.76,2.27,3.94,2.88-1.97,2.57,1.36,2.73-4.85.76,2.88,5.15,1.67,4.39-.76,1.51-4.24-2.57-1.06,8.18,4.24,6.21-8.03,9.99-8.03-7.27-3.63,3.18,1.82,1.51-.3,2.42-1.36.61,2.57,1.97.3,3.63-4.85,5.6-11.66-4.85,1.06-6.97,2.12-3.03.45-5.45-1.97-1.97-4.54.45-.45-2.57-8.18.15-.3-2.27,4.69-.45-.3-3.33-2.12-.3,1.67-4.09-4.69-.15-2.12,5.6-10.15-3.18v-6.21Z"/>
  <path id_mun="017" data-bs-toggle="tooltip" data-bs-title="Cintalapa" class="cls-1 estado" d="M148.54,398.24l55.27-167.63,6.06,2.88-2.12,3.33-2.73.45v10.6l7.87,2.12,6.66,6.36,2.88-.3,15.6,18.93h6.36l2.27,3.18,1.82.15,2.73-2.42,5.45,4.39.3,2.73h5.3l7.12,3.63,10.6,8.78-5.6,7.87-.76,5-13.02.91,1.06,11.96-3.79,2.88-2.42,11.96h-3.63l-.45,16.66-4.69,6.97.15,6.81h-5.15l-3.03,5.15.15,2.12,1.97,2.73-3.18,6.66-10.6,1.21-6.36,6.21-3.03-2.12h-3.48l-2.88,3.63.45,3.94-4.54,4.09h-8.63l-2.27,6.36.91,1.82,2.88.3v1.67l-4.09,1.06,3.79,1.36,2.12,3.48-4.24,2.57-8.03-.15-1.97-2.57-1.82,3.03-6.36-2.57,1.82-2.88-7.27-3.18-2.42,1.67h-2.27l-.76-3.79-2.88-2.12-7.27,5-9.84-12.87Z"/>
  <path id_mun="018" data-bs-toggle="tooltip" data-bs-title="Coapilla" class="cls-1 estado" d="M394,215.38l4.09,5.91-2.57,4.09,1.21,3.33-5.6,3.03,1.06,3.48-5.75,2.73.45,2.42-5,.76-.91-2.73-4.39,1.97-3.79-4.09,3.03-2.88-5.15-1.21,3.63-3.03-5.75-.45-10.6-8.63,3.63-10.3-1.67-3.03,10.75-.91,1.21,3.03,4.85-.91,3.33,2.88-2.27,1.67,1.51,1.97-.15,5.3,7.57.76,1.21-3.33,6.06-1.82Z"/>
  <path id_mun="019" data-bs-toggle="tooltip" data-bs-title="Comitán de Domínguez" class="cls-1 estado" d="M610.53,361.95l-.91,8.93,6.36.15-.45,8.18,10.15.76,21.35,17.57-6.36,9.69,9.39,3.18-5,8.63,13.33,18.32-20.44,4.54-1.97,15.9,3.03,3.79-4.24,5-8.63-3.94-12.87,16.2-10.3-.15-1.97-12.57,5.15-.15,1.82-3.94-3.79-3.79h9.84l10.9-19.23-5.75-9.39-4.54,4.39-9.99-10.75-14.99-5.75-5.3,10.9-3.48-12.72,2.42-6.06,7.57-.76-11.96-17.26,4.69-13.17-6.21-6.81,1.51-8.63-5.3-7.87.76-9.39,9.99,1.36,3.33,9.09,11.81,5.45,11.05.3Z"/>
  <path id_mun="020" data-bs-toggle="tooltip" data-bs-title="La Concordia" class="cls-1 estado" d="M448.96,431.31l20.44,1.51,6.21,12.57h5l6.81-6.66,34.68,17.41,10.15-5.3,12.57,2.42-17.87,8.18,6.36,9.09,51.64,21.96-10.6,12.11-3.63,10.9,4.39,1.97-3.63,8.33-33.62-20.29-5,8.78-9.09.76-5.45,8.48-2.88-7.27-3.94.3-6.06-7.27-20.44,16.35-4.24-.45-8.33,8.48,5.91.45-10.15,12.27v5.15l8.33,6.51-6.51,14.69-9.39,1.06-6.51-2.27-1.06-4.54-9.39,5.75-5.91,1.67-4.85-3.94-3.63-8.33-14.23-.91-1.36-6.97-10.9,1.97,4.24-9.24-9.09-14.08,8.63-6.97-2.57-11.05,4.09-5.6,9.99-.76,13.78-23.47,9.09-24.23,13.17-23.02-5.15-6.51Z"/>
  <path id_mun="021" data-bs-toggle="tooltip" data-bs-title="Copainalá" class="cls-1 estado" d="M321.01,251.42l.45-7.12-2.88-6.51,2.27-2.12,5.6-.15.91-2.57,5-1.06.3-3.03,4.69-6.81-.45-5,2.27-.91.15-2.73-1.97-1.36,3.63-4.39-5.45-4.24.3-1.51,2.42-.61,3.48,2.73,2.73-3.94,3.03-.3,6.36,1.97-.61,4.54,2.73,2.88,3.94-2.42,1.67,3.03-3.63,10.3,10.6,8.63,5.75.45-3.63,3.03,5.15,1.21-3.03,2.88,3.79,4.09-2.42,2.27.76,2.12-8.48,7.57-4.54-5.45-7.27-.61-12.72,8.18-2.12-2.57-3.33.91-3.03-1.82-8.03-2.27-4.39,2.73Z"/>
  <path id_mun="022" data-bs-toggle="tooltip" data-bs-title="Chalchihuitán" class="cls-1 estado" d="M509.23,219.31l5.45,5-.3,4.69-3.03,1.21,2.42,7.72-.45,8.18,3.18,4.54-4.09,3.63-8.18,2.42-13.17-1.36-.76-4.85-13.17-.91.3-3.33,8.48-8.93,2.57-9.09,10.6-3.48,6.36-7.87,3.79,2.42Z"/>
  <path id_mun="023" data-bs-toggle="tooltip" data-bs-title="Chamula" class="cls-1 estado" d="M454.42,273.37l11.81,7.87,7.42.15,13.93-7.57,31.04,7.12,1.82,16.2,2.42,7.87-3.33,3.18-8.03-2.57-4.85-10.15-5.6,7.87-7.12-2.12-7.87,2.57-23.47-3.33-6.21,2.12-3.63-4.09,3.33-4.69-.76-8.33-3.33,1.36-1.21-2.57,2.12-6.66-8.18.15-.15-2.88,9.84-1.51Z"/>
  <path id_mun="024" data-bs-toggle="tooltip" data-bs-title="Chanal" class="cls-1 estado" d="M632.79,308.05l11.66,3.03-3.33,6.21-7.72,2.27-8.93-2.12-9.54,6.81.91,22.86-5.3,14.84-11.05-.3-11.81-5.45-3.33-9.09-9.99-1.36-.76,9.39-11.05-9.84-.15-3.63.61-12.42,21.5.3,1.67-14.99,46.64-6.51Z"/>
  <path id_mun="025" data-bs-toggle="tooltip" data-bs-title="Chapultenango" class="cls-1 estado" d="M352.2,172.98l10.45,14.84,5.45,1.06,3.03-2.88,6.81-2.27,3.03,3.03,7.72-.45.45-7.72,4.39-4.09-1.97-4.69,1.06-5,1.06-4.24-2.73-1.82-2.12,2.57-8.03,1.06-1.21,1.97h-8.63v-3.33l-2.42.45-1.67-1.36v-3.63l-4.24-.3-4.09-.3-.61-1.97h-2.42l-1.36,1.21v4.09l2.57.61v3.18l1.51,1.82h3.18l2.27,2.88-1.82,3.03-3.63-1.21-6.06,3.48Z"/>
  <path id_mun="026" data-bs-toggle="tooltip" data-bs-title="Chenalhó" class="cls-1 estado" d="M514.68,224.31l4.85,4.39,5.75,1.97-3.18,5.3,6.36,13.93,10.9-2.27-2.57,4.09,5,7.12-11.05,1.21-2.57,6.97-5.15,1.97-11.36-.3-7.27,8.78-16.81-3.63,4.54-6.66.15-4.39-5.91.91-5.15-3.63-.15-6.97-3.94-3.48,13.17.91.76,4.85,13.17,1.36,8.18-2.42,4.09-3.63-3.18-4.54.45-8.18-2.42-7.72,3.03-1.21.3-4.69Z"/>
  <path id_mun="027" data-bs-toggle="tooltip" data-bs-title="Chiapa de Corzo" class="cls-1 estado" d="M392.79,374.83l5.45-2.27.3-8.78,3.03,3.18,1.51-3.63-1.82-2.27.45-12.72,3.18-.61-.15-2.57-7.87-5.91,4.24-6.36,5-3.48-1.06-5-3.33-2.73,3.94-2.88-6.66-7.12,4.69-.76-8.18-9.54.91-10.3,6.66-2.42,2.73-5.75-2.42-.91.3-5.15,8.93-4.85,12.42,5.75-3.33,5.3-4.09-1.82-2.27,2.42,4.85,5-4.85,3.79,1.21,5.6-7.27,2.57-.45,5.91,17.87,1.21,10.6,4.85,8.33,13.33-.15,3.63,5.15.76v2.42l-15.45,2.12-2.27,3.03-7.87,15.6,6.06,16.81-1.82,2.27.76,3.03h7.72l7.87,19.53,3.03-2.42,9.24,5.45,6.36.3.91,1.97-13.63,14.39-.15,5.91h-5l-2.12-3.63-.3-7.72-3.03-.3,3.33-5.6-12.87-8.78-3.03-4.39-17.11-.76-2.88-2.88-11.96,11.66-2.12-.61,1.51-5.3,9.69-11.21-12.72-6.36Z"/>
  <path id_mun="028" data-bs-toggle="tooltip" data-bs-title="Chiapilla" class="cls-1 estado" d="M491.82,348.63l-3.48,4.39.61,11.21-13.48-2.57-7.87.61-.61-3.63,1.82-3.94,5.75.15.45-8.03,8.63-1.97,8.18,3.79Z"/>
  <path id_mun="029" data-bs-toggle="tooltip" data-bs-title="Chicoasén" class="cls-1 estado" d="M381.43,265.65l-12.11-7.12-2.88-6.21,8.48-7.57-.76-2.12,2.42-2.27,4.39-1.97.91,2.73,5-.76,5.91,1.97,2.88,13.93,4.39,4.54-5.75,5.15-4.39-3.18-8.48,2.88Z"/>
  <path id_mun="030" data-bs-toggle="tooltip" data-bs-title="Chicomuselo" class="cls-1 estado" d="M584.94,492.48l9.84,10.3,26.35-2.88-2.73,20.9-12.72,17.11,6.51,17.87-8.63,8.03-7.87-3.48-4.69,5.91-20.9-6.21-3.33,3.33.61,3.79-8.93,1.36-5.75,6.81-3.79-1.67-6.66-5.75v-9.24l.91-9.39-13.48-6.66-6.97,2.57-3.79-5.75,1.67-8.93-2.27-6.97,5.45-8.48,9.09-.76,5-8.78,33.62,20.29,3.63-8.33-4.39-1.97,3.63-10.9,10.6-12.11Z"/>
  <path id_mun="031" data-bs-toggle="tooltip" data-bs-title="Chilón" class="cls-1 estado" d="M571.16,252.32l21.2-.45,3.18-12.57,19.38,6.06,57.39-12.72,22.56-13.48,7.42-13.78,3.63-26.65-6.06-8.33-48,.45-11.96,2.12-1.36,4.69-5.75,3.18-6.81-8.03-4.24.3-3.63-4.09-15.14,17.41-6.97-6.66-3.48,3.94-5.3,6.81,4.69,5.15-.45,2.27-2.42.15-5.91-4.54-2.42-.3-2.12,3.18v3.03l-1.67,1.97-3.03-1.82-2.57,4.09-4.39,4.09-3.48,2.57-2.12-3.03-4.54-3.79-3.03.45-5.75,5,3.94,3.94.61,4.09-1.36,6.66,6.06-4.85,5.15,3.18,4.85-1.51,3.48,3.18,5.3-.45,1.36,2.88-3.03,4.24,3.03,4.39-13.63,9.69-1.82,6.36,9.24,1.51Z"/>
  <path id_mun="032" data-bs-toggle="tooltip" data-bs-title="Escuintla" class="cls-1 estado" d="M547.09,612.86l4.09,2.73,4.09,8.03,13.33,3.03-1.67,15.14-8.78,7.72,6.66,10.15-9.09,4.85-8.03-2.88,3.63-8.33-12.42-.76-1.97-3.79-6.97,5,.15,4.54,4.85,9.99-7.72,12.87-6.51.76-1.82-3.63,5.3-8.48-23.02-12.87,15.45-4.39,8.33-17.87-5.15-2.42,6.66-10.3,8.03.15,2.73-8.78,9.84-.45Z"/>
  <path id_mun="033" data-bs-toggle="tooltip" data-bs-title="Francisco León" class="cls-1 estado" d="M314.8,183.58l-.45-5.91,11.51-3.03,2.42-5.6,11.81-.61,4.69-3.94h2.73l3.03,2.73-.15,2.27,1.82,3.48,10.45,14.84-2.27,2.57,2.27,2.88-5.6,3.18-3.18,5.3-6.36-1.97.45-5.3-3.63.3-1.51,3.48-3.63,1.51-2.88-1.51.15-3.18,1.67-.15.76-4.09-1.82-2.12-1.97,1.97-9.84-1.06-7.42,1.67-2.12-1.06-.91-6.66Z"/>
  <path id_mun="034" data-bs-toggle="tooltip" data-bs-title="Frontera Comalapa" class="cls-1 estado" d="M621.13,499.9l12.42-.3,15.29,16.2,23.02-.15,11.05,10.45.45,12.27-13.93,28.77h-25.29l-1.82,4.24-10.15-.15-19.99-15.45-6.51-17.87,12.72-17.11,2.73-20.9Z"/>
  <path id_mun="035" data-bs-toggle="tooltip" data-bs-title="Frontera Hidalgo" class="cls-1 estado" d="M620.07,778.52l6.21,5.45,3.03-7.12,9.24-1.97,5,6.21v3.33l-2.88,1.51,3.94,5.75-3.48.76-1.97,5-5.6-.45-3.94,4.54h-6.66l-3.79-3.94-1.21-17.57,2.12-1.51Z"/>
  <path id_mun="036" data-bs-toggle="tooltip" data-bs-title="La Grandeza" class="cls-1 estado" d="M624.62,592.27l-3.33,23.62-10.3-3.03,2.57-10.15-3.94-11.36,6.36-1.82,8.63,2.73Z"/>
  <path id_mun="037" data-bs-toggle="tooltip" data-bs-title="Huehuetán" class="cls-1 estado" d="M586,702.35l10.9,1.06,4.09,6.51-2.88,5.75-7.27,4.54,10.3,2.27,5,8.63-3.33,6.51-16.51,5.45-9.54-1.51-8.63,6.21-7.57-8.18-2.57,5.15-13.48-1.36v-10.75l19.53-16.35,8.78,2.88,5.15-6.06,11.51-4.39-3.48-6.36Z"/>
  <path id_mun="038" data-bs-toggle="tooltip" data-bs-title="Huixtán" class="cls-1 estado" d="M552.84,298.36l1.82,3.79,14.23-.45,17.26,12.87-1.67,14.99-21.5-.3-.61,12.42-11.05-8.48-12.27,1.36-.15-4.09,13.02-4.85-6.51-4.85-17.72.91.3-21.96,10.75-3.48,2.73,4.24,11.36-2.12Z"/>
  <path id_mun="039" data-bs-toggle="tooltip" data-bs-title="Huitiupán" class="cls-1 estado" d="M462.74,163.89l4.85-3.48,2.57,4.69,4.54.91,2.12-1.97,13.78,13.02,2.88-.3-.61,5.6,11.51-4.85-3.79,8.03,1.51,9.09-2.27,7.72-4.24,5-2.42-.15-2.57,5-8.78-5.6-4.69,1.67-6.51-2.27-.61-5.3-14.54-8.33-6.06-2.42-.76-10.6,5.3-.91,1.82-3.94-3.48-2.73,6.36-3.33,3.48,2.57-1.06-5.45,1.67-1.67Z"/>
  <path id_mun="040" data-bs-toggle="tooltip" data-bs-title="Huixtla" class="cls-1 estado" d="M564.8,659.65l5.75.3,1.51,3.18-9.54,11.36,4.09,1.36v6.81l6.81-.3,1.82,2.42-1.67,3.79-2.73,1.06-9.54,20.9,2.73,5.75-19.53,16.35-10.3,12.42-12.87.15-12.11-11.96,6.51.3,3.03-10.45,10.75-2.57,2.57-16.51h13.48l5-9.84-4.54-5.15,5.45-3.33-2.27-9.09,10.15-8.48-3.63-3.63,9.09-4.85Z"/>
  <path id_mun="041" data-bs-toggle="tooltip" data-bs-title="La Independencia" class="cls-1 estado" d="M650.05,410.41l13.33-6.81,2.88,10.3,21.5-1.51,3.79,7.87,8.93-3.18,7.42,6.66,9.09-3.03,1.21-9.99,12.87-3.94,12.11,4.24,2.12,8.93,17.57,4.09,12.72,7.57-3.48,5-8.78-5.45-11.96,8.18-11.21,3.33-6.97-6.66-14.23,7.42-16.05-14.99-6.06-1.82-8.18,10.6-30.28.15-13.33-18.32,5-8.63Z"/>
  <path id_mun="042" data-bs-toggle="tooltip" data-bs-title="Ixhuatán" class="cls-1 estado" d="M423.68,172.22l4.39,9.84-5.45.15-.15,3.79,1.97,1.97-.15,1.67-6.21-3.18-4.85-6.81-1.97.15-1.82,3.63-9.99-.76-1.51,3.63-3.33-.45-.61-2.27-5.3-.15.45-4.85,4.39-4.09-1.97-4.69,5.3,2.57,1.36-2.57,1.82,1.67-2.27,4.39,3.48-3.03h1.36l6.81,3.18-3.79-8.18.3-2.42,3.63-.3.15,2.42-1.82,1.67,1.21,1.97,6.51,1.06.3-5.45,3.48-2.27,4.24,7.72Z"/>
  <path id_mun="043" data-bs-toggle="tooltip" data-bs-title="Ixtacomitán" class="cls-1 estado" d="M362.65,156.17l4.24.3v3.63l1.67,1.36,2.42-.45v3.33h8.63l1.21-1.97,8.03-1.06,2.12-2.57,1.51-3.33-5.15-.61-1.36-1.67,4.09-3.33.15-4.39,1.82-.76-1.36-6.51-3.03-1.36,4.85-3.03-3.48-3.48-.91,1.82-3.79-1.21-.76,2.88-2.12-2.12-.15,3.33-2.12-1.82-1.97.45.61,2.57-4.09,3.03.45,2.42-2.73,1.67-.61,3.94-4.69,1.97-3.48,3.48v3.48Z"/>
  <path id_mun="044" data-bs-toggle="tooltip" data-bs-title="Ixtapa" class="cls-1 estado" d="M445.03,265.95l9.39,7.42-9.84,1.51.15,2.88,8.18-.15-2.12,6.66,1.21,2.57,3.33-1.36.76,8.33-3.33,4.69,3.63,4.09-4.54,1.82-2.57-2.57-5.75,11.36,5.45,5.45-3.33,7.27-8.33-13.33-10.6-4.85-17.87-1.21.45-5.91,7.27-2.57-1.21-5.6,4.85-3.79-4.85-5,2.27-2.42,4.09,1.82,3.33-5.3,4.09,3.79,5.45-3.94-1.51-5.15,6.81-2.73,5.15-3.79Z"/>
  <path id_mun="045" data-bs-toggle="tooltip" data-bs-title="Ixtapangajoya" class="cls-1 estado" d="M392.48,133.76l2.27-1.36,1.51,2.57.15,2.57,1.51,2.27,4.69.15v1.67h2.12l8.18,9.69h2.42l.15,4.54-1.67,1.82,1.36,2.12,4.09-.15.3-6.21-1.21-1.21v-2.12l3.48-.3,1.21-1.36-2.27-2.73-2.27-.15-.3-3.03-4.09-1.36,2.57-4.09-.15-4.54,3.48-6.36h-4.24l-1.82,6.06-2.88-2.42-2.73-6.36h-1.51l-1.36,2.12-2.88-4.24,2.88-1.21-3.03-4.09-3.18-.76.61,6.51-3.63-.15v2.73l-1.67.15-.3,5.3-5.3.45,3.48,3.48Z"/>
  <path id_mun="046" data-bs-toggle="tooltip" data-bs-title="Jiquipilas" class="cls-1 estado" d="M298.75,389.21l-2.57,3.63-7.27,4.24-7.12-.3,5.15,7.72-4.39,1.36-3.63-2.12-2.88.91-2.12,2.57-.15,5.15-5.45,2.12-2.73,4.85.3,9.69-5.6-4.39-2.42,3.18-.15,4.69-4.54-4.39-3.33,1.51-7.42-1.06-.45-3.18-9.54-3.94-6.81.45-3.18,4.69-1.97,1.67-1.82-.76-.15-3.48-11.21-2.12-9.69-3.94,4.24-2.57-2.12-3.48-3.79-1.36,4.09-1.06v-1.67l-2.88-.3-.91-1.82,2.27-6.36h8.63l4.54-4.09-.45-3.94,2.88-3.63h3.48l3.03,2.12,6.36-6.21,10.6-1.21,3.18-6.66-1.97-2.73-.15-2.12,3.03-5.15h5.15l-.15-6.81,4.69-6.97.45-16.66h3.63l2.42-11.96,3.79-2.88-1.06-11.96,13.02-.91.76-5,5.6-7.87h3.18l4.39,5.3.15,4.69-2.12,2.27-.3,5.45,3.63,3.94-.3,5.15-6.97,10.45v3.33l3.48,3.18,4.39.15v4.39l3.48,2.57-.15,2.57,8.48,4.85.15,1.67-1.51,1.97-.61,12.87-5.3,4.69.3,7.27-1.51.61.91,5.75,5,1.36Z"/>
  <path id_mun="047" data-bs-toggle="tooltip" data-bs-title="Jitotol" class="cls-1 estado" d="M415.05,221.13l-.76-2.42-4.85-4.24.91-3.94,2.73.15,1.21-2.57,5.75,2.12,1.21,3.03,9.84,2.73v-3.03l4.85-.45,1.82,2.57,6.66-2.12,2.27,4.69,14.23,1.51,3.03-3.18.45,7.57-5.15,12.27-9.84-1.67,4.54,7.72-3.48,4.39-8.33-2.88-.45-6.66-2.27-1.36-1.97,3.94-6.97,2.57-5.91-4.54-.3-12.27-4.54,6.66-.91,3.18,3.03,4.09-11.66-2.42.61-5.15,10.6-10.6-6.36.3Z"/>
  <path id_mun="048" data-bs-toggle="tooltip" data-bs-title="Juárez" class="cls-1 estado" d="M369.47,51.39l3.03-5.45,5.75.3,7.87-1.21,8.78,12.42-3.94,5.75-3.33.3-2.73,7.27v5.15l4.54,3.94v3.33l-5.75,3.63,1.51,2.73-3.03-.3-3.94,14.23h3.03l.91,8.18-3.94-2.12-1.21,2.42-4.54-3.33-2.12,2.42-2.12-1.82-1.51,2.73-4.54-3.33-1.82,5.75-2.12,1.82-6.36-.3-3.03-1.82.91-3.33-2.12-2.73-4.24-.61-2.12,2.12,4.54,2.42-.3,3.33-3.03,3.03-2.42.3-.91-3.63-2.73,1.51-.3-3.33-2.12-1.21.91-3.33-3.94-2.73-3.03,2.73-4.24-4.24.91-5.75-3.03-4.85-6.66-.91v-10.9l-7.57-7.87-2.27-6.36.15-1.51,4.69,3.18,5,.15,1.82-6.06,2.42-7.27,3.33.91v4.24h1.82l1.21,3.03,8.18,2.12,1.51-8.78,3.63-1.82-.3,4.54,4.85,3.33,9.69,1.21,3.03-3.03,6.36,1.21v3.94l3.33,1.82.61-9.69,1.51-1.82,4.24,1.51.61-5.15-3.33-2.42Z"/>
  <path id_mun="049" data-bs-toggle="tooltip" data-bs-title="Larráinzar" class="cls-1 estado" d="M450.48,246.27l8.63,9.39,2.12-5.15,3.03-.91.76,7.57,4.24.15,5.91,8.18,1.67,4.54,10.75,3.79-13.93,7.57-7.42-.15-11.81-7.87-9.39-7.42,2.57-8.48-3.18-2.57,6.06-8.63Z"/>
  <path id_mun="050" data-bs-toggle="tooltip" data-bs-title="La Libertad" class="cls-1 estado" d="M672.77,53.96s5,.33,7.12,1.51c1.4.78,1.74,3.7,3.33,3.48.85-.12.35-2.25,1.21-2.27,1.06-.03.76,2.17,1.67,2.73,1.17.71,2.8.76,4.09.3.98-.34,1.25-2.31,2.27-2.12,1.15.22.67,2.37,1.51,3.18.55.53,1.36,1.05,2.12.91.77-.15.88-1.74,1.67-1.67.98.09.7,2.24,1.67,2.42.71.14,1.13-1.44,1.82-1.21,1.01.34.07,2.63,1.06,3.03.73.3,1.35-1.24,2.12-1.06,1.16.28.93,2.89,2.12,2.88,1.3,0,1.01-2.85,2.27-3.18,1.25-.32,3,.47,3.48,1.67.38.95-1,1.86-1.06,2.88-.19,3.1,2.12,9.09,2.12,9.09,0,0,2.16-.32,2.42.45.48,1.42-2.94,1.83-3.03,3.33-.19,3.14,4.23,4.82,5.45,7.72,1.29,3.07,1.82,9.84,1.82,9.84l-2.88,9.24-5.91,6.97-2.42-2.42-5.3-1.36-4.54-3.03-1.67-3.94-5.3-2.12-9.84,1.67-4.54-.76-1.06-1.97-1.67,2.42-10.15-3.79,4.39-2.88v-2.42l-3.79-5.3.45-6.81,1.06-1.21-5.3-14.39,5.15-1.82,2.27-3.48,3.03-1.51-1.97-1.36,2.73-3.63Z"/>
  <path id_mun="051" data-bs-toggle="tooltip" data-bs-title="Mapastepec" class="cls-1 estado" d="M470.01,572.74l15.14,7.12.61,5,14.99,2.57,8.33-2.73-6.21,27.1,2.12,4.09-14.54,8.48-1.21,8.48-5.45,7.72-5-2.57.3,13.63-6.81,6.81-1.97,9.84-16.96,14.39-48.61-41.49,13.33-11.36-8.93-1.67-3.94-5.6,11.36-8.03,13.78,6.36,9.09-7.57-2.73-22.86,3.63-1.51,9.69,7.57-3.03-14.08,20.75-.3-7.12-8.33,9.39-1.06Z"/>
  <path id_mun="052" data-bs-toggle="tooltip" data-bs-title="Las Margaritas" class="cls-1 estado" d="M641.12,317.29l9.69,16.2,16.96-2.42,1.67,11.36,13.93-4.39,6.66,4.54,11.36-1.06,5.45,11.05,14.23-5.45,1.67-11.21,4.09-3.03,6.97,9.24,9.69-.45,7.12,1.06.76,10.3,10.6-7.12,5.45,2.73,8.33-6.51,11.36,7.72-3.33,6.06,5.6,4.69-2.73,5.3,9.84,7.57,12.72-4.85,9.54,21.65-10.6,6.51-7.57,9.54,2.88,12.72,9.09-.76.91,19.08,13.48,11.05-21.2,2.42-6.06-7.27-17.11-.61-10.45-6.36,3.48-5-12.72-7.57-17.57-4.09-2.12-8.93-12.11-4.24-12.87,3.94-1.21,9.99-9.09,3.03-7.42-6.66-8.93,3.18-3.79-7.87-21.5,1.51-2.88-10.3-13.33,6.81-9.39-3.18,6.36-9.69-21.35-17.57-10.15-.76.45-8.18-6.36-.15.91-8.93,5.3-14.84-.91-22.86,9.54-6.81,8.93,2.12,7.72-2.27Z"/>
  <path id_mun="053" data-bs-toggle="tooltip" data-bs-title="Mazapa de Madero" class="cls-1 estado" d="M619.92,629.67l1.36-13.78,10.75.76,1.67,5.15,6.51,6.51-16.2,35.13-6.06-3.79-2.12-8.63,6.36-.45,5.6-4.54-1.36-3.33-5.3-.91-1.21-12.11Z"/>
  <path id_mun="054" data-bs-toggle="tooltip" data-bs-title="Mazatán" class="cls-1 estado" d="M576.77,741.57l2.88,7.57,7.27,3.48,1.06,23.62-16.35,14.99-50.27-46.03,12.87-.15,10.3-12.42v10.75l13.48,1.36,2.57-5.15,7.57,8.18,8.63-6.21Z"/>
  <path id_mun="055" data-bs-toggle="tooltip" data-bs-title="Metapa" class="cls-1 estado" d="M637.33,763.23l1.21,11.66-9.24,1.97-3.18-6.81,4.85-6.81h6.36Z"/>
  <path id_mun="056" data-bs-toggle="tooltip" data-bs-title="Mitontic" class="cls-1 estado" d="M523.01,268.98l1.82,4.24-6.21,7.72-14.23-3.48,7.27-8.78,11.36.3Z"/>
  <path id_mun="057" data-bs-toggle="tooltip" data-bs-title="Motozintla" class="cls-1 estado" d="M568.59,626.64l.76-3.79,5.6.15,2.88-2.57,11.81,4.39,8.78,4.39,6.21-.91,9.09,4.24,6.21-2.88,1.21,12.11,5.3.91,1.36,3.33-5.6,4.54-6.36.45,2.12,8.63,6.06,3.79,5.45,6.81-22.11,16.96-3.18-6.51,6.36-.76-1.67-6.06-6.97-2.88-6.97-1.06-.3,9.24-7.87-.15-9.09-6.21-11.05,3.03-4.09-1.36,9.54-11.36-1.51-3.18-5.75-.3-6.66-10.15,8.78-7.72,1.67-15.14Z"/>
  <path id_mun="058" data-bs-toggle="tooltip" data-bs-title="Nicolás Ruiz" class="cls-1 estado" d="M511.8,372.86l6.51,5.45-1.21,5.75-3.79.3-9.39,7.72-4.54.15-.61-1.51,1.36-2.88,7.12-5,.3-4.69-2.27-1.51v-3.18l6.51-.61Z"/>
  <path id_mun="059" data-bs-toggle="tooltip" data-bs-title="Ocosingo" class="cls-1 estado" d="M814.95,197.21l6.81.15,5.75,11.05s5.87,7.8,10.15,9.69c3.19,1.42,7.7-1.4,10.45.76,1.96,1.54,2.27,7.12,2.27,7.12,0,0,13.05,4.8,14.23,10.6.28,1.37-2.25,2.24-2.12,3.63.15,1.6,1.77,2.86,3.18,3.63,4.3,2.37,10.42-.4,14.54,2.27,1.71,1.11,1.29,5.15,3.33,5.15,1.2,0,1.89-1.83,1.97-3.03.1-1.51-2.04-2.58-1.97-4.09.05-1.18.76-2.52,1.82-3.03,1.42-.69,3.51-.44,4.69.61.9.79,1.24,2.33.91,3.48-.46,1.61-2.98,1.94-3.63,3.48-.34.79-.71,2.09,0,2.57,1.29.89,2.83-1.63,4.39-1.67,1.44-.03,3.15.27,4.09,1.36.77.89.61,3.48.61,3.48,0,0,1.27,5.77,3.63,6.66,3.06,1.16,6.02-3.93,9.24-3.33,3.02.57,4.06,5.06,6.97,6.06,3.58,1.23,8.32-2.88,11.36-.61,1.58,1.18-.05,4.38,1.36,5.75,2.55,2.47,8.16-.6,10.45,2.12,3.39,4.04,7.51,5.84,12.11,9.09,1.21.86-.13,3.2.76,4.39,1.45,1.93,5.75.89,6.51,3.18,2.47,7.47,7.63,13.42,8.03,20.9.05,1.03-2.12,2.27-2.12,2.27l-7.12-1.97-1.21,6.66,7.12,20.9-6.81-1.21.15,13.78-5.6-6.81-8.63,12.42v3.63l6.06,14.84-23.77,3.63-3.94,8.33,8.63,18.47-10.15,7.12,1.82,5.75-10.3,17.26-6.66,2.12,4.09,6.81-52.54,3.94v-12.87l10.6-12.11-12.42-10.75,3.18-10.9-7.42-.76,9.99-18.17-8.03-1.97-8.03,7.12-8.03-3.33-.3,18.32-9.24-.61-7.42-10.3-9.54-21.65-12.72,4.85-9.84-7.57,2.73-5.3-5.6-4.69,3.33-6.06-11.36-7.72-8.33,6.51-5.45-2.73-10.6,7.12-.76-10.3-7.12-1.06.61-6.06,13.17-3.94-5.45-7.12-16.66-1.97-34.68-19.08,1.97-11.81-30.59,1.67-1.97-9.99-7.87-4.69-14.84,3.48-3.48-4.09,2.42-4.85-8.63-.76-3.63,17.72-17.11,8.18-.15-4.24-7.42-5-18.32-.45.15-7.42-15.14-12.72v-5.3l-13.02.61,2.42-6.97,5.91-1.51v-3.03l21.2-.45,3.18-12.57,19.38,6.06,57.39-12.72,22.56-13.48,7.42-13.78,3.63-26.65,8.93-8.03,11.81,7.12.15-3.03,9.24-3.33,6.81,1.97.76,2.12,7.12.3.91,4.09-6.21,7.87-1.36,8.33,5.6,3.79,3.18-3.33,7.87,2.42-.3,1.51,9.54,5.15,2.12-5.45-12.87-6.06,4.24-10.6,4.39,8.63,2.57.15,2.27-2.42,3.79,4.85h2.12l3.63,9.69,4.39,1.67,1.82-7.57,3.33,2.73,1.06-8.93,7.72.15v4.85l3.94-.91,1.21-3.03,4.85,1.97-6.06,7.42,1.82,4.39,8.63-9.99Z"/>
  <path id_mun="060" data-bs-toggle="tooltip" data-bs-title="Ocotepec" class="cls-1 estado" d="M368.1,188.88l5.91,5.3,2.57,6.36-.15,3.63h-4.39l-1.36,1.67-10.75.91-3.94,2.42-2.73-2.88.61-4.54,3.18-5.3,5.6-3.18-2.27-2.88,2.27-2.57,5.45,1.06Z"/>
  <path id_mun="061" data-bs-toggle="tooltip" data-bs-title="Ocozocoautla de Espinosa" class="cls-1 estado" d="M210.17,233.34l6.66,1.21,9.69,5,3.03-3.33,2.57,1.97-.45,2.27,4.39,2.88.76-4.24,3.94.45.76-1.82h2.88l2.57-8.03-2.12-.61,1.06-3.03-1.82-1.97,6.36-1.67,1.67,3.03h9.09l18.32,6.81,8.03-3.48,5.3,4.54,4.24,2.57,5.3,6.66,6.97,3.63-.91,3.03h6.36l1.21,1.21-.15,1.51-2.42-.15-1.82,2.27,2.57,4.24,4.54,1.51-2.57,2.73.91,2.88,4.09-.15,1.36,3.03.15,5.3-1.82,1.06,1.36,2.12-2.73,3.63-8.93.15-.76,3.03,2.57,1.67,1.51-.61.45-1.97h2.57v4.39l-1.51,1.82.15,1.67,2.12-.15,6.97,9.99-.45,5.6,1.67,1.67,9.09-2.27,4.85,2.88-.91,4.54-1.67,1.97,1.51,2.57v4.09l5.6,2.57h4.39l1.21-3.94,2.88.15,2.88-3.79,4.69.15-1.82,3.18h-2.27l-.91,2.73,1.67.61-.3,5,2.73,1.06.3,4.24-1.97.76.76,2.57,13.02,12.87-2.73,6.06-5.6,3.18-.45,4.24-3.63-2.88-1.36,2.73-1.97-2.42v-4.24h-4.69l-5,3.48,4.85,12.72-.61,2.73-1.97,2.57-6.36,1.51-19.53-.76-5.15,1.82-5.75,2.73-3.94,3.63,1.97,7.87-1.36,3.18-2.73-2.27.3-3.79-3.18-1.67-1.97,1.82-1.67-2.12-5-1.36-.91-5.75,1.51-.61-.3-7.27,5.3-4.69.61-12.87,1.51-1.97-.15-1.67-8.48-4.85.15-2.57-3.48-2.57v-4.39l-4.39-.15-3.48-3.18v-3.33l6.97-10.45.3-5.15-3.63-3.94.3-5.45,2.12-2.27-.15-4.69-4.39-5.3h-3.18l-10.6-8.78-7.12-3.63h-5.3l-.3-2.73-5.45-4.39-2.73,2.42-1.82-.15-2.27-3.18h-6.36l-15.6-18.93-2.88.3-6.66-6.36-7.87-2.12v-10.6l2.73-.45,2.12-3.33Z"/>
  <path id_mun="062" data-bs-toggle="tooltip" data-bs-title="Ostuacán" class="cls-1 estado" d="M302.39,111.65l1.67,2.12-.15,1.97,4.09,3.03,3.03-.15.15,1.82,5.91,6.97-4.39,2.27,2.27,3.79,13.48-.76,4.54.3,1.36,2.73.15,6.36,3.94-.15,2.12,2.12-.15,6.97h2.42s.15,3.79.15,3.79l2.12.3-.3,9.39-4.69,3.94-11.81.61-2.42,5.6-11.51,3.03.45,5.91-5.75-1.06-.15-3.63h-2.27l-2.88-2.42-.61,8.18h-3.18l-.45-2.88-2.27-.76v-3.94l-9.69-.76-.76-12.87-6.81-2.27-1.36,3.63-4.85-.91,8.48-14.54.91-8.48-2.12-2.57,2.73-3.48,3.33-11.51,2.27-1.21,2.73,1.06,2.73.91.15-10.15,5.45-.3,1.97-1.97Z"/>
  <path id_mun="063" data-bs-toggle="tooltip" data-bs-title="Osumacinta" class="cls-1 estado" d="M385.21,289.88l.3-8.93-7.57-4.39-3.33-9.84,6.81-1.06,8.48-2.88,4.39,3.18,5.45,2.12,3.94,8.78-.3,5.15,2.42.91-2.73,5.75-6.66,2.42-11.21-1.21Z"/>
  <path id_mun="064" data-bs-toggle="tooltip" data-bs-title="Oxchuc" class="cls-1 estado" d="M562.83,263.83l13.02-.61v5.3l15.14,12.72-.15,7.42,18.32.45,7.42,5,.15,4.24,16.05,9.69-46.64,6.51-17.26-12.87-14.23.45-1.82-3.79,6.21-3.94,1.21-7.27-17.72-1.67-4.39-7.42,3.03-4.09,5.91,2.57,14.69-.45,4.54-9.69-3.48-2.57Z"/>
  <path id_mun="065" data-bs-toggle="tooltip" data-bs-title="Palenque" class="cls-1 estado" d="M550.87,80.31l-.91-10.6,3.48-2.88s8.09-.1,11.66,1.51c.98.44,1.61,2.82,2.42,2.12,2.91-2.53,10.32-15.76,17.26-21.96,1.5-1.34,3.14-3.01,5.15-3.18,1.74-.15,3.72.63,4.85,1.97.76.91.76,3.48.76,3.48v3.63l-7.72-1.67v6.21s10.15,3.18,10.15,3.18l2.12-5.6,4.69.15-1.67,4.09,2.12.3.3,3.33-4.69.45.3,2.27,8.18-.15.45,2.57,4.54-.45,1.97,1.97-.45,5.45-2.12,3.03-1.06,6.97,11.66,4.85,4.85-5.6-.3-3.63-2.57-1.97,1.36-.61.3-2.42-1.82-1.51,3.63-3.18,8.03,7.27,8.03-9.99-4.24-6.21,1.06-8.18,4.24,2.57.76-1.51-1.67-4.39-2.88-5.15,4.85-.76-1.36-2.73,1.97-2.57-3.94-2.88.76-2.27,4.85-.76.3-1.67-2.73-.61.15-1.51,5.15-2.73,5.3,3.48,7.27-.76.45,1.97,2.12.45,2.42,1.97.76,2.42,7.72-3.03s1.97,2.45,2.27,3.94c.62,3.09-.37,6.35-1.21,9.39-.24.85-.24,2.11-1.06,2.42-1.35.51-2.5-1.92-3.94-1.82-2.11.16-5.36,1.37-5.3,3.48.03,1.11,2.88,1.67,2.88,1.67l-2.73,3.63,1.97,1.36-3.03,1.51-2.27,3.48-5.15,1.82,5.3,14.39-1.06,1.21-.45,6.81,3.79,5.3v2.42l-4.39,2.88,10.15,3.79,1.67-2.42,1.06,1.97,4.54.76,9.84-1.67,5.3,2.12,1.67,3.94,4.54,3.03,5.3,1.36,2.42,2.42s-5.61.24-5.3,2.12c.46,2.79,6.98-1.94,8.48.45.9,1.44-2.63,3.13-1.97,4.69,1.14,2.69,5.36,3.95,8.18,3.18.87-.24.8-1.89,1.67-2.12,1.9-.5,4.11.83,5.45,2.27.54.58.18,1.72.76,2.27,2.85,2.68,8.25,5.42,11.36,3.03,1.2-.92-.9-3.32,0-4.54.82-1.1,2.61-1.58,3.94-1.21.65.18,1.1.89,1.36,1.51.3.7-.26,1.63.15,2.27,1.24,1.94,3.83,3.91,6.06,3.33.92-.24,1.51-2.42,1.51-2.42l10.45,4.69,2.57.76,1.36-2.27s4.63.61,6.21,2.12c.9.86,1.35,2.24,1.36,3.48.01,1.02-1.53,1.97-1.06,2.88.79,1.53,3.59.36,5,1.36,1.83,1.31,3.33,3.4,3.79,5.6.28,1.36.24,3.13-.76,4.09-.52.49-1.42.42-2.12.3-1.4-.24-2.36-2-3.79-1.97-1.22.02-2.57.76-3.18,1.82-1.01,1.75.33,4.07,0,6.06-.33,2-1.94,3.73-1.97,5.75-.04,3.02.91,6.22,2.73,8.63.98,1.31,2.51,2.28,4.09,2.73,2.82.8,5.92-.93,8.78-.3,1.76.38,3.5,1.22,4.85,2.42,1.03.92,1.9,2.15,2.27,3.48.32,1.17-.62,2.52-.15,3.63.29.69.92,1.46,1.67,1.51.54.04,1.11-.43,1.36-.91.57-1.07-.45-2.51,0-3.63.43-1.1,1.33-2.13,2.42-2.57,3.46-1.41,7.71-.87,11.21.45,1.34.51,2.69,1.44,3.33,2.73.5.99.47,2.27.15,3.33-.25.83-1.24,1.3-1.51,2.12-.61,1.82-.73,3.93-.15,5.75.54,1.68,3.18,4.24,3.18,4.24l-8.63,9.99-1.82-4.39,6.06-7.42-4.85-1.97-1.21,3.03-3.94.91v-4.85l-7.72-.15-1.06,8.93-3.33-2.73-1.82,7.57-4.39-1.67-3.63-9.69h-2.12l-3.79-4.85-2.27,2.42-2.57-.15-4.39-8.63-4.24,10.6,12.87,6.06-2.12,5.45-9.54-5.15.3-1.51-7.87-2.42-3.18,3.33-5.6-3.79,1.36-8.33,6.21-7.87-.91-4.09-7.12-.3-.76-2.12-6.81-1.97-9.24,3.33-.15,3.03-11.81-7.12-8.93,8.03-6.06-8.33-48,.45-1.82-9.84h4.85l1.06-5.6-8.33-1.06-1.97-5.6,8.78-7.57.61-2.27-3.79-.15-2.42,1.97-2.88-1.97,1.21-1.51,2.73-.76,1.21-3.03.45-3.48-5.15-6.66-3.63.15-8.78,8.03-4.85-1.06-6.97,2.57-.15-2.12-21.96-15.45,6.36-7.72-8.03-4.54-1.06,3.33-3.48.76-5.15-5.91-5.45-1.67.15-3.79-6.51-.76,3.79-3.48-6.36-8.78-13.02-5-4.09,5.3-6.36-2.88Z"/>
  <path id_mun="066" data-bs-toggle="tooltip" data-bs-title="Pantelhó" class="cls-1 estado" d="M539.36,247.63l-10.9,2.27-6.36-13.93,3.18-5.3-5.75-1.97-4.85-4.39-5.45-5,5-2.88,2.27-5.91,2.73.45.61,5.91s-2.05,1.23-2.42,2.27c-.55,1.53-.29,3.49.61,4.85.84,1.26,2.44,2.51,3.94,2.27.6-.1,1.21-1.36,1.21-1.36l-.3-3.33,2.73-1.06v-8.78l1.97-1.97,9.39-.15,10.3,5.91,5.3,1.51-1.36,6.66-5.3,2.88,2.88,5.75-1.97,6.51-7.42,8.78Z"/>
  <path id_mun="067" data-bs-toggle="tooltip" data-bs-title="Pantepec" class="cls-1 estado" d="M380.98,186.76l7.72-.45v-2.88s5.3.15,5.3.15l.61,2.27-.3,6.36,4.24,1.51-.76,7.57,1.51,1.97-1.67,5,3.79,4.24,6.66,4.09,6.21,2.12.76,2.42-2.57,3.03-4.69-4.85-7.42-.15-6.36-3.79-6.06,1.82-1.21,3.33-7.57-.76.15-5.3,7.27-5.75,2.88-7.42-8.48-14.54Z"/>
  <path id_mun="068" data-bs-toggle="tooltip" data-bs-title="Pichucalco" class="cls-1 estado" d="M314.95,92.88l-1.06,1.82,1.67,1.21v2.42l-5.45-.45-.3,3.48-5.6,3.63-1.82,6.66,1.67,2.12-.15,1.97,4.09,3.03,3.03-.15.15,1.82,5.91,6.97-4.39,2.27,2.27,3.79,13.48-.76,3.18-4.69,1.67,2.12,1.36-2.57,2.12-1.21.45-2.57,5.3-2.73,3.94,2.12.45,5.6,3.63,2.12,4.24,2.73,1.36,3.48-3.48,2.42-1.36,4.39-3.48.3-5,6.81.15,3.79,2.12.3-.3,9.39h2.73l3.03,2.73-.15,2.27,1.82,3.48,6.06-3.48,3.63,1.21,1.82-3.03-2.27-2.88h-3.18l-1.51-1.82v-3.18l-2.57-.61v-4.09l1.36-1.21h2.42l.61,1.97,4.09.3v-3.48l3.48-3.48,4.69-1.97.61-3.94,2.73-1.67-.45-2.42,4.09-3.03-.61-2.57,1.97-.45,2.12,1.82.15-3.33,2.12,2.12.76-2.88,3.79,1.21.91-1.82,5.3-.45.3-5.3,1.67-.15v-2.73l3.63.15-.91-11.81-3.03-3.63-3.18-1.21-2.12-2.57-1.67-2.27.45-17.11-5.75,3.63,1.51,2.73-3.03-.3-3.94,14.23h3.03l.91,8.18-3.94-2.12-1.21,2.42-4.54-3.33-2.12,2.42-2.12-1.82-1.51,2.73-4.54-3.33-1.82,5.75-2.12,1.82-6.36-.3-3.03-1.82.91-3.33-2.12-2.73-4.24-.61-2.12,2.12,4.54,2.42-.3,3.33-3.03,3.03-2.42.3-.91-3.63-2.73,1.51-.3-3.33-2.12-1.21.91-3.33-3.94-2.73-3.03,2.73-4.24-4.24.91-5.75-3.03-4.85-6.66-.91Z"/>
  <path id_mun="069" data-bs-toggle="tooltip" data-bs-title="Pijijiapan" class="cls-1 estado" d="M460.62,573.8l7.12,8.33-20.75.3,3.03,14.08-9.69-7.57-3.63,1.51,2.73,22.86-9.09,7.57-13.78-6.36-11.36,8.03,3.94,5.6,8.93,1.67-13.33,11.36-97.82-73.74,8.03-9.39,4.69,2.57,21.35-35.43,1.97,9.84,11.81,1.82,11.21,2.42,6.06-6.66,7.57,1.21,13.17-7.57,5.15,6.66,9.09,14.08-4.24,9.24,10.9-1.97,1.36,6.97,14.23.91,3.63,8.33,4.85,3.94,5.91-1.67,9.39-5.75,1.06,4.54,6.51,2.27Z"/>
  <path id_mun="070" data-bs-toggle="tooltip" data-bs-title="El Porvenir" class="cls-1 estado" d="M589.64,624.83l6.66-8.93,8.63-2.42,6.06-.61,10.3,3.03-1.36,13.78-6.21,2.88-9.09-4.24-6.21.91-8.78-4.39Z"/>
  <path id_mun="071" data-bs-toggle="tooltip" data-bs-title="Villa Comaltitlán" class="cls-1 estado" d="M555.72,664.5l3.63,3.63-10.15,8.48,2.27,9.09-5.45,3.33,4.54,5.15-5,9.84h-13.48l-2.57,16.51-10.75,2.57-3.03,10.45-6.51-.3-6.66-5.45,2.88-1.21-10.75-18.02.91-6.21,3.48-3.79,4.24,4.54,17.41-21.2,6.51-.76,7.72-12.87-4.85-9.99-.15-4.54,6.97-5,1.97,3.79,12.42.76-3.63,8.33,8.03,2.88Z"/>
  <path id_mun="072" data-bs-toggle="tooltip" data-bs-title="Pueblo Nuevo Solistahuacán" class="cls-1 estado" d="M448.66,179.34l.76,10.6,6.06,2.42-1.82,1.51,4.24,3.94.15,5-4.24-5.6h-1.82l-7.57,15.75-6.66,2.12-1.82-2.57-4.85.45v3.03l-9.84-2.73,5.91-4.85-.76-3.03,3.18-4.54-2.88-2.27,1.21-2.27,3.33.91.76-11.36-5.45-1.06-2.12,3.18-1.97-1.97.15-3.79,5.45-.15-4.39-9.84,9.84-.76,1.67,3.33-1.67,1.06,4.85,3.33-.61,2.27,6.21.91-.3-5.91,2.27,2.88h2.73Z"/>
  <path id_mun="073" data-bs-toggle="tooltip" data-bs-title="Rayón" class="cls-1 estado" d="M411.26,194.78l4.85,3.63v3.18l-2.42,1.21.61,5.3-1.21,2.57-2.73-.15-.91,3.94,4.85,4.24-6.21-2.12-6.66-4.09-3.79-4.24,1.67-5-1.51-1.97.76-7.57,12.72,1.06Z"/>
  <path id_mun="074" data-bs-toggle="tooltip" data-bs-title="Reforma" class="cls-1 estado" d="M315.86,27.46l4.85,1.21,4.85-2.42-.91-3.63,3.63-3.94-.61-4.24,7.27,4.85,3.63,2.73,8.48-3.03,3.33,1.21,1.51,3.94,9.09.61v3.33l4.24,3.33,4.54-1.21,5.15,3.33.3,2.42-7.57,2.73-2.12,6.36,3.94,6.36,3.33,2.42-.61,5.15-4.24-1.51-1.51,1.82-.61,9.69-3.33-1.82v-3.94l-6.36-1.21-3.03,3.03-9.69-1.21-4.85-3.33.3-4.54-3.63,1.82-1.51,8.78-8.18-2.12-1.21-3.03h-1.82v-4.24l-3.33-.91-2.42,7.27-3.03-.3-1.82,2.42h-3.33l-.3-2.73,3.94-3.33,3.94,1.82.91-2.12-2.73-2.12,3.94-9.09-5.15-5.15,3.63-8.78-2.12-3.33,1.21-3.33Z"/>
  <path id_mun="075" data-bs-toggle="tooltip" data-bs-title="Las Rosas" class="cls-1 estado" d="M571.62,374.52l5.75-2.88,6.21,6.81-4.69,13.17,11.96,17.26-7.57.76-2.42,6.06-12.27.91-9.39-4.54-2.12-5.91-8.78-.61v-10.9l8.93-20.14,11.66,4.85,2.73-4.85Z"/>
  <path id_mun="076" data-bs-toggle="tooltip" data-bs-title="Sabanilla" class="cls-1 estado" d="M467.59,160.41l10.9-7.57-.15-8.03,2.12-3.18-.91-7.57,2.73,3.18,3.03,1.06,2.27-2.27,4.54,5.45,2.27-.76,3.63,6.06,2.27,9.84-3.18-.15-2.27,3.03,7.72,8.93,5.15,3.33-.15-3.79,3.48-.15.76,4.24,7.57,5,.15,12.11-3.03,6.97-14.39-1.51-1.51-9.09,3.79-8.03-11.51,4.85.61-5.6-2.88.3-13.78-13.02-2.12,1.97-4.54-.91-2.57-4.69Z"/>
  <path id_mun="077" data-bs-toggle="tooltip" data-bs-title="Salto de Agua" class="cls-1 estado" d="M521.5,102.72l10.6-.3,7.27-2.57,11.81-9.99v-1.67l-2.27-2.12v-4.24l1.97-1.51,6.36,2.88,4.09-5.3,13.02,5,6.36,8.78-3.79,3.48,6.51.76-.15,3.79,5.45,1.67,5.15,5.91,3.48-.76,1.06-3.33,8.03,4.54-6.36,7.72,21.96,15.45.15,2.12,6.97-2.57,4.85,1.06,8.78-8.03,3.63-.15,5.15,6.66-.45,3.48-1.21,3.03-2.73.76-1.21,1.51,2.88,1.97,2.42-1.97,3.79.15-.61,2.27-8.78,7.57,1.97,5.6,8.33,1.06-1.06,5.6h-4.85l1.82,9.84-11.96,2.12-1.36,4.69-5.75,3.18-6.81-8.03-4.24.3-10.15-11.05-5,5.75-6.21-3.94-.91-3.94,1.82-2.88-12.11-3.94-3.48-2.27-2.27-5-4.24,4.85-15.14-.91-6.66-6.06-12.42.45-2.27-6.06,4.09-2.88-1.51-6.06,3.94-.45,5.91,4.39,3.63-4.69-.15-2.42-7.27-4.24-3.33.15-4.09-4.09-.3-4.09-7.57,3.79-14.84-1.97.3-12.87Z"/>
  <path id_mun="078" data-bs-toggle="tooltip" data-bs-title="San Cristóbal de las Casas" class="cls-1 estado" d="M505.45,348.02l-6.21-2.88.45-3.63-4.69-.91-1.36-3.63-10.6.91,1.36-5.91-2.57-2.12-1.82-16.51,6.81-6.06-.76-3.48,7.87-2.57,7.12,2.12,5.6-7.87,4.85,10.15,8.03,2.57,3.33-3.18-2.42-7.87,7.57,2.57-.3,21.96,17.72-.91,6.51,4.85-13.02,4.85-12.57.15-3.63,6.36-13.33-6.21,5.15,15.9-9.09,1.36Z"/>
  <path id_mun="079" data-bs-toggle="tooltip" data-bs-title="San Fernando" class="cls-1 estado" d="M366.44,252.32l2.88,6.21,12.11,7.12-6.81,1.06,3.33,9.84,7.57,4.39-.3,8.93-6.21.3v9.24l-16.05,1.82-14.69-7.87-1.36-11.66-5-.76-4.39-4.24,4.39-6.21v-9.39l-5.3-2.12-.15-6.21,3.33-.91,2.12,2.57,12.72-8.18,7.27.61,4.54,5.45Z"/>
  <path id_mun="080" data-bs-toggle="tooltip" data-bs-title="Siltepec" class="cls-1 estado" d="M567.38,567.13l-.61-3.79,3.33-3.33,20.9,6.21,2.12,9.09-1.82,9.09,5.15,6.81,6.51,2.12,6.66-1.97,3.94,11.36-2.57,10.15-6.06.61-8.63,2.42-6.66,8.93-11.81-4.39-2.88,2.57-5.6-.15-.76,3.79-13.33-3.03-4.09-8.03,9.09-4.69.15-3.94,14.08-2.42,4.39,2.57,3.18-3.03-.45-3.79-11.21-16.05,2.42-1.21-6.21-6.51,8.33-10.45-3.18-1.36-4.39,2.42Z"/>
  <path id_mun="081" data-bs-toggle="tooltip" data-bs-title="Simojovel" class="cls-1 estado" d="M463.96,215.98l-6.21-2.42-1.97-7.57,2.27-3.18-.15-5-4.24-3.94,1.82-1.51,14.54,8.33.61,5.3,6.51,2.27,4.69-1.67,8.78,5.6,2.57-5,2.42.15,4.24-5,2.27-7.72,14.39,1.51,11.05,2.88,2.12,2.27,8.63.3-1.36,8.03-9.39.15-1.97,1.97v8.78l-2.73,1.06s.65,2.27.3,3.33c-.19.58-.61,1.27-1.21,1.36-1.5.24-3.1-1.01-3.94-2.27-.9-1.36-.61-4.85-.61-4.85l2.42-2.27-.61-5.91-2.73-.45-2.27,5.91-5,2.88-3.79-2.42-6.36,7.87-10.6,3.48-6.06-6.06-10.15,3.63-7.87-2.27-.45-7.57Z"/>
  <path id_mun="082" data-bs-toggle="tooltip" data-bs-title="Sitalá" class="cls-1 estado" d="M551.17,223.71l6.06-4.85,5.15,3.18,4.85-1.51,3.48,3.18,5.3-.45,1.36,2.88-3.03,4.24,3.03,4.39-13.63,9.69-3.79-4.09-6.97,1.36-6.21-2.88,1.97-6.51-2.88-5.75,5.3-2.88Z"/>
  <path id_mun="083" data-bs-toggle="tooltip" data-bs-title="Socoltenango" class="cls-1 estado" d="M544.82,453.26l1.97-18.32,21.8-18.32,12.27-.91,3.48,12.72,8.18,6.66-4.24,3.94-8.33,1.97.3,7.12,6.51-.15,7.42,4.85-9.84,5.6-3.33,8.03,1.82,9.84,16.05,11.36,18.63,7.27,3.63,5-26.35,2.88-9.84-10.3-51.64-21.96-6.36-9.09,17.87-8.18Z"/>
  <path id_mun="084" data-bs-toggle="tooltip" data-bs-title="Solosuchiapa" class="cls-1 estado" d="M391.57,169.8l2.12-9.24-2.73-1.82,1.51-3.33-5.15-.61-1.36-1.67,4.09-3.33.15-4.39,1.82-.76-1.36-6.51-3.03-1.36,4.85-3.03,2.27-1.36,1.51,2.57.15,2.57,1.51,2.27,4.69.15v1.67h2.12l8.18,9.69h2.42l.15,4.54-1.67,1.82,1.36,2.12,4.09-.15.15,4.85-3.48,2.27-.3,5.45-6.51-1.06-1.21-1.97,1.82-1.67-.15-2.42-3.63.3-.3,2.42,3.79,8.18-6.81-3.18h-1.36l-3.48,3.03,2.27-4.39-1.82-1.67-1.36,2.57-5.3-2.57Z"/>
  <path id_mun="085" data-bs-toggle="tooltip" data-bs-title="Soyaló" class="cls-1 estado" d="M403.69,276.85l-3.94-8.78-5.45-2.12,5.75-5.15-4.39-4.54,6.36,1.82,9.54.45,11.36,5.3-1.51,2.73,3.79,5,7.87.91,1.51,5.15-5.45,3.94-4.09-3.79-12.42-5.75-8.93,4.85Z"/>
  <path id_mun="086" data-bs-toggle="tooltip" data-bs-title="Suchiapa" class="cls-1 estado" d="M362.5,362.56l.45-4.24,5.6-3.18,2.73-6.06-13.02-12.87-.76-2.57,1.97-.76,4.24.15.15,3.48,13.17,2.88,1.06-7.57,14.08,3.94,2.88-3.63-1.67-5.6,7.72,6.36-4.24,6.36,7.87,5.91.15,2.57-3.18.61-.45,12.72,1.82,2.27-1.51,3.63-3.03-3.18-.3,8.78-5.45,2.27-15.9-5.45-.15,4.39-12.57-1.06-3.48-2.73,1.82-7.42Z"/>
  <path id_mun="087" data-bs-toggle="tooltip" data-bs-title="Suchiate" class="cls-1 estado" d="M608.11,822.28l23.62,19.68,1.67-1.21v-4.85l7.87-5.75.15-11.36,6.97-9.99-.91-13.78-2.88-3.33-3.48.76-1.97,5-5.6-.45-3.94,4.54h-6.66l-3.79-3.94-11.05,24.68Z"/>
  <path id_mun="088" data-bs-toggle="tooltip" data-bs-title="Sunuapa" class="cls-1 estado" d="M328.43,132.7l3.18-4.69,1.67,2.12,1.36-2.57,2.12-1.21.45-2.57,5.3-2.73,3.94,2.12.45,5.6,7.87,4.85,1.36,3.48-3.48,2.42-1.36,4.39-3.48.3-5,6.81h-2.42s.15-6.97.15-6.97l-2.12-2.12-3.94.15-.15-6.36-1.36-2.73-4.54-.3Z"/>
  <path id_mun="089" data-bs-toggle="tooltip" data-bs-title="Tapachula" class="cls-1 estado" d="M571.62,791.24l13.63,11.51.15,2.27,22.71,17.26,11.05-24.68-1.21-17.57,2.12-1.51-.76-15.6,6.97-25.14,5.91-9.84.76-7.27-8.93-1.67-1.21-1.97,4.69-21.96,4.09-3.48.61-9.39,4.09-4.39-6.81-7.57-22.11,16.96-3.18-6.51,6.36-.76-1.67-6.06-6.97-2.88-6.97-1.06-.3,9.24.45,3.63-3.48,6.81-6.51,4.39,5.3.61-4.39,7.72,10.9,1.06,4.09,6.51-2.88,5.75-7.27,4.54,10.3,2.27,5,8.63-3.33,6.51-16.51,5.45-9.54-1.51,2.88,7.57,7.27,3.48,1.06,23.62-16.35,14.99Z"/>
  <path id_mun="090" data-bs-toggle="tooltip" data-bs-title="Tapalapa" class="cls-1 estado" d="M368.1,188.88l3.03-2.88,6.81-2.27,3.03,3.03,4.39,7.57,4.09,6.97-2.88,7.42-7.27,5.75-1.51-1.97,2.27-1.67-3.33-2.88-4.85.91-1.21-3.03,1.36-1.67h4.39l.15-3.63-2.57-6.36-5.91-5.3Z"/>
  <path id_mun="091" data-bs-toggle="tooltip" data-bs-title="Tapilula" class="cls-1 estado" d="M398.54,193.72l-4.24-1.51.3-6.36,3.33.45,1.51-3.63,9.99.76,1.82-3.63,3.03,12.27-3.03,2.73-12.72-1.06Z"/>
  <path id_mun="092" data-bs-toggle="tooltip" data-bs-title="Tecpatán" class="cls-1 estado" d="M299.96,184.64h3.18l.61-8.18,2.88,2.42h2.27l.15,3.63,5.75,1.06.91,6.66,2.12,1.06,7.42-1.67,9.84,1.06,1.97-1.97,1.82,2.12-.76,4.09-1.67.15-.15,3.18,2.88,1.51,3.63-1.51,1.51-3.48,3.63-.3-.45,5.3-3.03.3-2.73,3.94-3.48-2.73-2.42.61-.3,1.51,5.45,4.24-3.63,4.39,1.97,1.36-.15,2.73-2.27.91.45,5-4.69,6.81-.3,3.03-5,1.06-.91,2.57-5.6.15-2.27,2.12,2.88,6.51-.45,4.69v2.42l1.06,7.27-3.63.61-4.54-1.51-2.57-4.24,1.82-2.27,2.42.15.15-1.51-1.21-1.21h-6.36l.91-3.03-6.97-3.63-5.3-6.66-4.24-2.57-5.3-4.54,2.88-6.51,8.03-4.69-4.69-1.21-3.18-6.21,5.91-1.97.76-3.03-2.42-.91-7.12-9.99-1.06-3.63,1.36-4.09,8.18,1.36,4.09-2.73Z"/>
  <path id_mun="093" data-bs-toggle="tooltip" data-bs-title="Tenejapa" class="cls-1 estado" d="M541.18,273.98l-3.03,4.09,4.39,7.42,17.72,1.67-1.21,7.27-6.21,3.94-11.36,2.12-2.73-4.24-10.75,3.48-7.57-2.57-1.82-16.2,6.21-7.72-1.82-4.24,5.15-1.97,2.57-6.97,11.05-1.21-.61,7.27,3.03,3.48-3.03,4.39Z"/>
  <path id_mun="094" data-bs-toggle="tooltip" data-bs-title="Teopisca" class="cls-1 estado" d="M538.91,330.46l.15,4.09,12.27-1.36,11.05,8.48.15,3.63-14.23-2.57-3.63,11.66-.15,14.54-6.36-1.82-11.66,9.54-10.15-7.42-1.51-15.14-9.39-6.06,9.09-1.36-5.15-15.9,13.33,6.21,3.63-6.36,12.57-.15Z"/>
  <path id_mun="096" data-bs-toggle="tooltip" data-bs-title="Tila" class="cls-1 estado" d="M482.28,137.24v-3.03s2.88-2.12,2.88-2.12l3.79-.91,5.45-3.63,1.97-3.03-.91-7.27,5.91-7.42,3.03,2.12,5.91-2.27,2.12-6.36,9.09-.61-.3,12.87,14.84,1.97,7.57-3.79.3,4.09,4.09,4.09,3.33-.15,7.27,4.24.15,2.42-3.63,4.69-5.91-4.39-3.94.45,1.51,6.06-4.09,2.88,2.27,6.06.15,3.94-1.97.15,1.36,19.38,5.45.45.45,10.45,4.24,9.09-3.79,4.54-8.48,1.67-4.24,3.79.15,3.94-8.63-.3-2.12-2.27-11.05-2.88,3.03-6.97-.15-12.11-7.57-5-.76-4.24-3.48.15.15,3.79-5.15-3.33-7.72-8.93,2.27-3.03,3.18.15-2.27-9.84-3.63-6.06-2.27.76-4.54-5.45-2.27,2.27-3.03-1.06Z"/>
  <path id_mun="097" data-bs-toggle="tooltip" data-bs-title="Tonalá" class="cls-1 estado" d="M275.89,454.78l5.91,23.62,6.66,10.6-3.79,4.54,5.3,12.11,6.21-6.81,14.54,5.45,1.06,5.15,8.78-1.82,14.54,14.08,10.45,1.06,9.24,14.08-11.81-1.82-1.97-9.84-21.35,35.43-4.69-2.57-8.03,9.39-59.21-37.4-39.67-18.47-11.05-.3-18.47-7.72-14.84-25.29,43.16,7.57,3.79-21.2,20.9-10.15.91,3.94,4.69.15v-2.57h3.18l-1.06-6.97,15.6,6.66,12.72-2.88,8.33,1.97Z"/>
  <path id_mun="098" data-bs-toggle="tooltip" data-bs-title="Totolapa" class="cls-1 estado" d="M505.45,348.02l9.39,6.06,1.51,15.14-5.91-.3,1.36,3.94-6.51.61-1.21-2.27-9.69,8.48-8.78-8.03-1.67,7.27-3.03,2.12-4.24-1.97,3.48-7.72-8.18-5.45,3.48-4.24,13.48,2.57-.61-11.21,3.48-4.39,8.03,2.12,5.6-2.73Z"/>
  <path id_mun="099" data-bs-toggle="tooltip" data-bs-title="La Trinitaria" class="cls-1 estado" d="M658.38,437.36l30.28-.15,8.18-10.6,6.06,1.82,16.05,14.99,14.23-7.42,6.97,6.66,11.21-3.33,11.96-8.18,8.78,5.45,10.45,6.36,17.11.61,6.06,7.27-82.53,5.6-39.82,81.92-.45-12.27-11.05-10.45-23.02.15-15.29-16.2-12.42.3-3.63-5-4.24-16.05,12.87-16.2,8.63,3.94,4.24-5-3.03-3.79,1.97-15.9,20.44-4.54Z"/>
  <path id_mun="100" data-bs-toggle="tooltip" data-bs-title="Tumbalá" class="cls-1 estado" d="M554.66,187.67l-4.24-9.09-.45-10.45-5.45-.45-1.36-19.38,1.97-.15-.15-3.94,12.42-.45,6.66,6.06,15.14.91,4.24-4.85,2.27,5,3.48,2.27,12.11,3.94-1.82,2.88.91,3.94,6.21,3.94,5-5.75,6.51,6.97-15.14,17.41-6.97-6.66-3.48,3.94-7.42-7.57-5.75,7.12-6.36-5.91-9.84,1.21v4.09l1.36,2.42-3.79.61-.3,2.27-2.12,1.82-3.63-2.12Z"/>
  <path id_mun="101" data-bs-toggle="tooltip" data-bs-title="Tuxtla Gutiérrez" class="cls-1 estado" d="M359.47,332.88l-.3-4.24-2.73-1.06.3-5-1.67-.61.91-2.73h2.27l1.82-3.18-4.69-.15,6.97-9.09.61-5.6,16.05-1.82v-9.24l6.21-.3,11.21,1.21-.91,10.3,8.18,9.54-4.69.76,6.66,7.12-3.94,2.88,3.33,2.73,1.06,5-5,3.48-7.72-6.36,1.67,5.6-2.88,3.63-14.08-3.94-1.06,7.57-13.17-2.88-.15-3.48-4.24-.15Z"/>
  <path id_mun="102" data-bs-toggle="tooltip" data-bs-title="Tuxtla Chico" class="cls-1 estado" d="M632.19,727.95l2.88,4.09,6.97-3.18,2.42,11.66v7.87l3.03,4.54-2.27,4.85-7.87,5.45h-6.36l-4.85,6.81,3.18,6.81-3.03,7.12-6.21-5.45-.76-15.6,6.97-25.14,5.91-9.84Z"/>
  <path id_mun="103" data-bs-toggle="tooltip" data-bs-title="Tuzantán" class="cls-1 estado" d="M566.62,675.86l11.05-3.03,9.09,6.21,7.87.15.45,3.63-3.48,6.81-6.51,4.39,5.3.61-4.39,7.72,3.48,6.36-11.51,4.39-5.15,6.06-8.78-2.88-2.73-5.75,9.54-20.9,2.73-1.06,1.67-3.79-1.82-2.42-6.81.3v-6.81Z"/>
  <path id_mun="104" data-bs-toggle="tooltip" data-bs-title="Tzimol" class="cls-1 estado" d="M584.34,428.43l5.3-10.9,14.99,5.75,9.99,10.75,4.54-4.39,5.75,9.39-10.9,19.23h-9.84l3.79,3.79-1.82,3.94-5.15.15,1.97,12.57,10.3.15,4.24,16.05-18.63-7.27-16.05-11.36-1.82-9.84,3.33-8.03,9.84-5.6-7.42-4.85-6.51.15-.3-7.12,8.33-1.97,4.24-3.94-8.18-6.66Z"/>
  <path id_mun="105" data-bs-toggle="tooltip" data-bs-title="Unión Juárez" class="cls-1 estado" d="M650.21,693.12l11.96,14.39-2.73,2.42-1.06,8.18-3.94,4.69-7.27-.45-4.69-10.45,3.79-2.27,3.94-6.36v-10.15Z"/>
  <path id_mun="106" data-bs-toggle="tooltip" data-bs-title="Venustiano Carranza" class="cls-1 estado" d="M516.35,369.22l10.15,7.42,11.66-9.54,3.79,10.45,13.02-10.6,14.84,1.67,1.82,5.91-2.73,4.85-11.66-4.85-8.93,20.14v10.9l8.78.61,2.12,5.91,9.39,4.54-21.8,18.32-1.97,18.32-12.57-2.42-10.15,5.3-34.68-17.41-6.81,6.66h-5l-6.21-12.57-20.44-1.51,5.45-3.03,1.06-6.97-4.09-.61.15-5.91,13.63-14.39-.91-1.97,5.91-4.85,7.27-6.51-5-6.97,4.24-1.06,4.24,1.97,3.03-2.12,1.67-7.27,8.78,8.03,9.69-8.48,1.21,2.27v3.18l2.27,1.51-.3,4.69-7.12,5-1.36,2.88.61,1.51,4.54-.15,9.39-7.72,3.79-.3,1.21-5.75-6.51-5.45-1.36-3.94,5.91.3Z"/>
  <path id_mun="107" data-bs-toggle="tooltip" data-bs-title="Villa Corzo" class="cls-1 estado" d="M448.96,431.31l5.15,6.51-13.17,23.02-9.09,24.23-13.78,23.47-9.99.76-4.09,5.6,2.57,11.05-8.63,6.97-5.15-6.66-13.17,7.57-7.57-1.21-6.06,6.66-11.21-2.42-9.24-14.08-10.45-1.06-14.54-14.08-8.78,1.82-1.06-5.15-14.54-5.45-6.21,6.81-5.3-12.11,3.79-4.54-6.66-10.6-5.91-23.62,48.61,5.91,1.67-2.27-5.15-9.69,4.09-2.88,8.33,8.18,33.01-8.78,4.85-14.23,20.14-1.51,5.91,3.94,7.27-6.36,27.41,8.48,16.96-4.24Z"/>
  <path id_mun="108" data-bs-toggle="tooltip" data-bs-title="Villaflores" class="cls-1 estado" d="M242.42,428.58l7.42,1.06,3.33-1.51,4.54,4.39.15-4.69,2.42-3.18,5.6,4.39-.3-9.69,2.73-4.85,5.45-2.12.15-5.15,2.12-2.57,2.88-.91,3.63,2.12,4.39-1.36-5.15-7.72,7.12.3,7.27-4.24,2.57-3.63,1.67,2.12,1.97-1.82,3.18,1.67-.3,3.79,2.73,2.27,1.36-3.18-1.97-7.87,3.94-3.63,5.75-2.73,5.15-1.82,19.53.76,6.36-1.51,1.97-2.57.61-2.73-4.85-12.72,5-3.48h4.69v4.24l1.97,2.42,1.36-2.73,3.63,2.88-1.82,7.42,3.48,2.73,12.57,1.06.15-4.39,15.9,5.45,12.72,6.36-9.69,11.21-1.51,5.3,2.12.61-2.73,6.21,6.06,2.73-2.88,6.81,7.72,13.02-7.27,6.36-5.91-3.94-20.14,1.51-4.85,14.23-33.01,8.78-8.33-8.18-4.09,2.88,5.15,9.69-1.67,2.27-48.61-5.91-8.33-1.97-12.72,2.88-15.6-6.66,10.3-14.54-7.12-5.91Z"/>
  <path id_mun="109" data-bs-toggle="tooltip" data-bs-title="Yajalón" class="cls-1 estado" d="M538.3,201.6l-.15-3.94,4.24-3.79,8.48-1.67,3.79-4.54,3.63,2.12,2.12-1.82.3-2.27,3.79-.61-1.36-2.42v-4.09l9.84-1.21,6.36,5.91,5.75-7.12,7.42,7.57-5.3,6.81,4.69,5.15-.45,2.27-2.42.15-5.91-4.54-2.42-.3-2.12,3.18v3.03l-1.67,1.97-3.03-1.82-2.57,4.09-4.39,4.09-3.48,2.57-2.12-3.03-4.54-3.79-3.03.45-5.75,5,3.94,3.94.61,4.09-5.3-1.51-10.3-5.91,1.36-8.03Z"/>
  <path id_mun="110" data-bs-toggle="tooltip" data-bs-title="San Lucas" class="cls-1 estado" d="M481.82,329.85l2.57,2.12-1.36,5.91,10.6-.91,1.36,3.63,4.69.91-.45,3.63,6.21,2.88-5.6,2.73-8.03-2.12-8.18-3.79-8.63,1.97-3.33-.76-6.51-14.54-9.69-3.48,2.27-3.79,5,2.42,5.15-1.36,11.51,7.57,2.42-3.03Z"/>
  <path id_mun="111" data-bs-toggle="tooltip" data-bs-title="Zinacantán" class="cls-1 estado" d="M456.38,302.6l6.21-2.12,23.47,3.33.76,3.48-6.81,6.06,1.82,16.51-2.42,3.03-11.51-7.57-5.15,1.36-5-2.42-2.27,3.79-4.85,2.27-5.15-.76.15-3.63,3.33-7.27-5.45-5.45,5.75-11.36,2.57,2.57,4.54-1.82Z"/>
  <path id_mun="112" data-bs-toggle="tooltip" data-bs-title="San Juan Cancuc" class="cls-1 estado" d="M541.79,258.84l-5-7.12,2.57-4.09,7.42-8.78,6.21,2.88,6.97-1.36,3.79,4.09-1.82,6.36,9.24,1.51v3.03l-5.91,1.51-2.42,6.97,3.48,2.57-4.54,9.69-14.69.45-5.91-2.57,3.03-4.39-3.03-3.48.61-7.27Z"/>
  <path id_mun="113" data-bs-toggle="tooltip" data-bs-title="Aldama" class="cls-1 estado" d="M481.22,260.05l5.15,3.63,5.91-.91-.15,4.39-4.54,6.66-10.75-3.79-1.67-4.54,6.06-5.45Z"/>
  <path id_mun="114" data-bs-toggle="tooltip" data-bs-title="Benemérito de las Américas" class="cls-1 estado" d="M964.71,310.93l.45,3.03s1.67,1,2.57.91c.88-.09,2.27-1.36,2.27-1.36l.15-4.54s4.7,3.03,4.39,5.3c-.3,2.26-4.59,1.89-5.6,3.94-.61,1.22-.26,2.79.15,4.09.36,1.15,1.89,1.83,1.97,3.03.07,1.06-1.61,1.84-1.36,2.88.21.87,1.23,1.58,2.12,1.67,1.87.18,3.13-2.7,5-2.57,1.23.08,2.5,1.01,3.03,2.12.59,1.23.33,2.88-.3,4.09-.6,1.14-1.74,2.46-3.03,2.42-.75-.02-.92-1.51-1.67-1.51-.68,0-1.47.69-1.51,1.36-.08,1.18,1.14,2.37,2.27,2.73.9.28,1.98-.18,2.73-.76.73-.57.6-1.9,1.36-2.42,1.13-.78,3.08-1.55,4.09-.61.92.86-1.07,2.78-.3,3.79.62.82,2.01.77,3.03.61,1.5-.25,2.55-1.67,3.94-2.27,1.26-.55,2.81-2,3.94-1.21.75.52-.18,1.88.15,2.73.26.67.78,1.25,1.36,1.67.88.61,2.01,1.39,3.03,1.06.76-.25.75-1.46,1.36-1.97.94-.78,2.11-1.49,3.33-1.51.93-.02,2.08.27,2.57,1.06.43.69-.66,1.8-.15,2.42.45.55,1.45.56,2.12.3.74-.28.79-1.51,1.51-1.82.56-.23,1.82.15,1.82.15l-.3,5.15s-1.77,1.41-1.82,2.42c-.02.48.76,1.21.76,1.21,0,0,6.83-.21,15.9-1.06,1.42-.13.48,3.15,1.67,3.94.59.39,1.54.4,2.12,0,.58-.4.2-1.54.76-1.97.68-.53,1.89-.82,2.57-.3.77.59.99,2.07.45,2.88-.46.69-1.83.02-2.42.61-.68.66-1.06,1.83-.76,2.73.51,1.5,2.27,2.41,3.79,2.88.92.28,2.04-.61,2.88-.15.81.45,1.42,1.5,1.36,2.42-.05.76-.62,1.66-1.36,1.82-.8.16-1.48-.7-2.12-1.21-.64-.51-.89-1.56-1.67-1.82-.78-.26-1.71.05-2.42.45-1,.57-2.39,1.44-2.27,2.57.18,1.69,2.54,2.33,4.09,3.03,1.13.51,2.92-.25,3.63.76.44.62.27,1.77-.3,2.27-1.14,1-3.13-.55-4.54,0-.77.3-1.53.89-1.82,1.67-.42,1.15.73,2.45.45,3.63-.21.89-.75,1.77-1.51,2.27-1.2.79-3.1-.12-4.24.76-.57.44-1.14,1.28-.91,1.97.24.71,1.93.32,1.97,1.06.04.8-1.53.69-1.97,1.36-.45.69-.81,1.68-.45,2.42.72,1.48,3.57.84,4.39,2.27.48.83.58,2.25-.15,2.88-.38.33-1.04.02-1.51-.15-.75-.28-1.17-1.35-1.97-1.36-1.13-.02-2.3.84-2.88,1.82-.51.87-.66,2.16-.15,3.03.23.39.76.61,1.21.61.86-.01,1.42-1.31,2.27-1.21,1.07.12,1.93,1.17,2.42,2.12.23.45.45,1.11.15,1.51-.77,1.03-2.73.02-3.79.76-1.11.78-1.85,2.15-2.12,3.48-.45,2.25-.5,5.12,1.06,6.81,1.16,1.26,3.48.42,5,1.21.95.49,2.1,1.1,2.42,2.12.25.79-.04,1.81-.61,2.42-1.08,1.17-3.3.52-4.54,1.51-.46.37-.92.93-.91,1.51.02.73.56,1.5,1.21,1.82,1.09.53,2.49-.72,3.63-.3.54.2,1.21,1.21,1.21,1.21l.3,4.54-3.94.3s-1.21-1.34-1.97-1.21c-.32.06-.61.76-.61.76,0,0-1.5,4.61-.3,6.36.54.79,1.83,1.25,2.73.91,1.31-.49.99-2.8,2.12-3.63.71-.52,1.79-1.01,2.57-.61.72.38,1.14,1.49.91,2.27-.23.76-1.45.76-1.97,1.36-1.06,1.24-2.12,4.39-2.12,4.39l-82.53,6.36-.3-18.17,19.68-8.93-1.51,14.39,10.6-1.06.15-7.57,12.87,2.57.3,4.69,8.03-.61-4.69-14.99-3.94.61v1.97l-4.24-.15.3-16.35,13.78-4.39-.45-11.51-6.36-.15-1.67-3.18-3.79,3.18.45-10.15h-5.6l2.73-4.85-11.66.3,4.39-5.45-.3-12.11-16.51,1.67-.15-13.78,6.81,1.21-7.12-20.9,1.21-6.66,7.12,1.97Z"/>
  <path id_mun="115" data-bs-toggle="tooltip" data-bs-title="Maravilla Tenejapa" class="cls-1 estado" d="M818.74,390.27l7.42,10.3,9.24.61.3-18.32,8.03,3.33,8.03-7.12,8.03,1.97-9.99,18.17,7.42.76-3.18,10.9,12.42,10.75-10.6,12.11v12.87l-28.92,1.82-13.48-11.05-.91-19.08-9.09.76-2.88-12.72,7.57-9.54,10.6-6.51Z"/>
  <path id_mun="116" data-bs-toggle="tooltip" data-bs-title="Marqués de Comillas" class="cls-1 estado" d="M956.84,349.08l16.51-1.67.3,12.11-4.39,5.45,11.66-.3-2.73,4.85h5.6l-.45,10.15,3.79-3.18,1.67,3.18,6.36.15.45,11.51-13.78,4.39-.3,16.35,4.24.15v-1.97l3.94-.61,4.69,14.99-8.03.61-.3-4.69-12.87-2.57-.15,7.57-10.6,1.06,1.51-14.39-19.68,8.93.3,18.17-36.19,3.33-4.09-6.81,6.66-2.12,10.3-17.26-1.82-5.75,10.15-7.12-8.63-18.47,3.94-8.33,23.77-3.63-6.06-14.84v-3.63l8.63-12.42,5.6,6.81Z"/>
  <path id_mun="117" data-bs-toggle="tooltip" data-bs-title="Montecristo de Guerrero" class="cls-1 estado" d="M509.08,584.7l-8.33,2.73-14.99-2.57-.61-5,.15-7.42,12.11-5.3v-6.21h3.33l1.97,3.94,5.75-9.99h4.69l10.75-3.48,3.79-2.88,2.57,2.88-2.73,2.57,1.51,9.99-4.39,5.6,2.27,3.03-6.81,6.21-11.05,5.91Z"/>
  <path id_mun="118" data-bs-toggle="tooltip" data-bs-title="San Andrés Duraznal" class="cls-1 estado" d="M444.42,212.95l2.27,4.69,14.23,1.51,3.03-3.18-6.21-2.42-1.97-7.57,2.27-3.18-4.24-5.6h-1.82l-7.57,15.75Z"/>
  <path id_mun="119" data-bs-toggle="tooltip" data-bs-title="Santiago el Pinar" class="cls-1 estado" d="M477.13,249.6l3.94,3.48.15,6.97-6.06,5.45-5.91-8.18,1.51-7.72h6.36Z"/>
  <path id_mun="120" data-bs-toggle="tooltip" data-bs-title="Capitán Luis Ángel Vidal" class="cls-1 estado" d="M538.91,585.61l-1.97,6.97.3,6.97,4.69,3.33-.91,3.79,6.06,6.21-9.84.45-24.23.45-8.03,2.12-2.12-4.09,6.21-27.1,11.05-5.91,13.93,2.42,4.85,4.39Z"/>
  <path id_mun="121" data-bs-toggle="tooltip" data-bs-title="Rincón Chamula San Pedro" class="cls-1 estado" d="M411.26,179.79l1.97-.15,4.85,6.81,6.21,3.18.15-1.67,2.12-3.18,5.45,1.06-.76,11.36-3.33-.91-1.21,2.27,2.88,2.27-3.18,4.54.76,3.03-5.91,4.85-1.21-3.03-5.75-2.12-.61-5.3,2.42-1.21v-3.18l-4.85-3.63,3.03-2.73-3.03-12.27Z"/>
  <path id_mun="122" data-bs-toggle="tooltip" data-bs-title="El Parral" class="cls-1 estado" d="M396.42,398.3l11.96-11.66,2.88,2.88,17.11.76,3.03,4.39,12.87,8.78-3.33,5.6,3.03.3.3,7.72,2.12,3.63h5l4.09.61-1.06,6.97-5.45,3.03-16.96,4.24-27.41-8.48-7.72-13.02,2.88-6.81-6.06-2.73,2.73-6.21Z"/>
  <path id_mun="123" data-bs-toggle="tooltip" data-bs-title="Emiliano Zapata" class="cls-1 estado" d="M464.26,398.45l-6.36-.3-9.24-5.45-3.03,2.42-7.87-19.53h-7.72l-.76-3.03,1.82-2.27-6.06-16.81,7.87-15.6,11.96,12.72,3.63-.15.3,3.79,4.69.15-5.6,5.3,1.21,4.85-6.81,1.82v3.63l3.63-1.36,5.91,6.06-1.36,3.48,6.66.3,1.67,4.54,9.24,1.82,2.12,8.78-5.91,4.85Z"/>
  <path id_mun="124" data-bs-toggle="tooltip" data-bs-title="Mezcalapa" class="cls-1 estado" d="M273.77,163.89l4.85.91,1.36-3.63,6.81,2.27.76,12.87,9.69.76v3.94l2.27.76.45,2.88-4.09,2.73-8.18-1.36-1.36,4.09,1.06,3.63,7.12,9.99,2.42.91-.76,3.03-5.91,1.97,3.18,6.21,4.69,1.21-8.03,4.69-2.88,6.51-8.03,3.48-18.32-6.81h-9.09l-1.67-3.03-6.36,1.67,1.82,1.97-1.06,3.03,2.12.61-2.57,8.03h-2.88l-.76,1.82-3.94-.45-.76,4.24-4.39-2.88.45-2.27-2.57-1.97-3.03,3.33-9.69-5-6.66-1.21-6.06-2.88-1.06-3.18,1.97-.76-.3-3.48,8.33-2.88-.45-4.09,4.54-9.99.45-2.73,2.27-.45.76,2.88,3.94-3.79,2.27,1.82,7.57-3.48,7.72.45,1.82-2.88,5.91.3-.61-7.57,5.15-1.06,8.18-7.72,11.51-17.41Z"/>
  <path id_mun="125" data-bs-toggle="tooltip" data-bs-title="Honduras de la Sierra" class="cls-1 estado" d="M548.9,573.64l3.79,1.67,5.75-6.81,8.93-1.36,4.39-2.42,3.18,1.36-8.33,10.45,6.21,6.51-2.42,1.21,11.21,16.05.45,3.79-3.18,3.03-4.39-2.57-14.08,2.42-.15,3.94-9.09,4.69-4.09-2.73-6.06-6.21.91-3.79-4.69-3.33-.3-6.97,1.97-6.97,9.99-11.96Z"/>
</svg>