<svg id="Tabasco" xmlns="http://www.w3.org/2000/svg" viewBox="0 0 1187 847">
  <defs>
    <style>
      .cls-1 {
        fill: #c4f5ee;
        opacity: .74;
        stroke: #000;
        stroke-width: .25px;
      }
    </style>
  </defs>
  <path id="001" data-bs-toggle="tooltip" data-bs-title="Balancán" class="cls-1 estado" d="M1176.65,435.3l-11.28-172.53h-3.87v-9.2l3.87-.97-3.39-23.73-46.49,3.39.48-4.84-6.3-2.91v10.17l-6.3-1.45,1.45-3.87-11.14-.97-2.42,2.91-3.87-2.91-7.75,2.42-5.33-3.39-4.36.97-6.3-9.2-10.65-5.81-6.3-5.81-4.36-1.94h-4.84l-1.45-1.45-1.94-5.33-4.84,2.42-4.36-3.39-7.75,3.39h-4.36l-2.42-2.42-.48-2.91-16.46.48-1.94-5.81h-2.42l-3.87-2.91h-4.36l-1.45-2.91-3.87.97-1.45-2.42-2.91,1.94-1.45-.97v-4.84l-5.33-.48-.48-7.75,4.84-.97.48-4.36-3.39-2.42-3.39,1.94-5.81,7.26-4.36-2.91-11.14.97-2.42,2.42,4.36,3.39-4.36,4.84-2.91,1.94,2.42,8.23-5.33-.97-2.42,5.33,2.91,5.33-1.94,4.36-4.84,2.91,5.33,5.33-3.39,14.53,2.42,5.81-.97,9.2-1.45,8.23,3.39,5.33v4.36l4.36,5.33-5.33.97-2.42.48v2.91l.48,2.91-1.45,7.26-15.01-6.78-.48,6.78.48,1.94-2.91,2.91,2.42,1.94.48,6.78-6.3,2.91,2.42,2.91-5.33,14.53-3.39,3.87,2.42,5.81,5.81,6.78-4.84.97,2.42,11.62,10.65,1.45,2.91-7.75,3.39-4.84,7.75,4.84,8.23-.97-1.94-5.81-8.23-2.42-4.84-2.42,12.59-2.42,17.43-1.45.97,10.17,3.39,5.81-3.39,5.81,6.3,2.42-.97,2.91-4.84,2.91,1.45,12.59,4.36,4.36-1.94,3.87,6.74,3.24,3.42-2.05,4.11-8.21h4.11l1.37-6.16,15.74-3.42,2.05,3.42-4.11,6.16,17.11,8.21,6.16-5.48,17.11,3.42,5.48,7.53.68,13.69,10.27-1.37,8.21-12.32,8.21,4.11,6.16-1.37,6.16,15.74,3.42-7.53,10.27-2.05,1.37-6.85,6.85,6.16h6.16l.68,15.74,14.37,9.58-2.05,4.79,15.74,1.37,15.06-5.48,1.37,6.85h8.9l2.05,16.43,14.37-2.05Z"/>
  <path id="002" data-bs-toggle="tooltip" data-bs-title="Cárdenas" class="cls-1 estado" d="M321.79,281.07l.84,3.62-5.02,4.46.28,4.46h-7.81l-2.51-2.23-3.9-.84-4.18,2.51-1.39,5.3-3.35-1.67-1.67,6.13-1.67-5.02-5.85-1.12,5.58-1.95-.56-4.18-6.69-6.41-.56-2.51h-2.23l-3.62,2.79-7.25,1.95-19.52,1.67-20.07-.56-3.07,3.62-.28,5.58-2.23,1.95-3.35-.56-2.23-2.23-3.9.56-6.13.56-.28-10.87-10.04-.28-3.9-1.12-1.95-2.79,8.08-1.12-.84-18.12-27.32,1.95v-9.2l-2.51-7.25-15.05.28.28,12.55-7.25-1.12,1.95-6.41-6.69-3.35-15.05-.84-6.69-4.74-2.79,2.79-2.79.28-1.12-2.79-3.62-.28-.56,3.35-2.79,2.79-3.62-.28-1.67-3.07-2.79-.28-2.23,3.35-5.02-6.97,1.67-1.95-3.35-.84-1.95-5.02-1.39-4.74-1.12-3.9-4.46.84-5.85,3.62-5.58,2.23-1.12-4.18-11.43,4.74-3.9,5.3-1.12,2.51-4.46.84-4.74-6.69,13.1-9.2v-9.2l-2.79-4.18-4.18,2.79-2.23-3.9-4.18-.56-6.13,5.3h-5.02l-1.67-3.35-3.62-.56-4.74-3.62-3.35-.56-1.67,1.67,1.95,3.62-.28,1.67-3.07,1.39h-8.08l-2.79-3.9.28-3.07,1.67-1.95,48.51-18.4,49.9-19.24,17.28-5.85,13.38-5.85,20.91-10.32,13.1-6.13,15.61-5.85,12.82-5.3,3.62.28-4.74,2.51-2.79,3.07-5.58.28-2.23,2.79-1.67,2.51-4.18-.56-3.35-.56-5.3,1.67-1.39,1.39-1.95,2.79.28,3.07-3.35.84-2.79-2.51-4.18.56-2.23,1.67v2.79l-1.95.84-2.51-.28-4.18.28-8.64,3.9-.56,3.35-1.39,4.18h-3.07l-1.12,1.39-3.07-.84-2.51,1.67.56,4.18-2.51,1.12-5.58-.28-2.23-2.23-2.23-.28-3.07,1.39-3.62,2.79-5.85,4.18-2.79.84-2.51,1.67.84,1.95-.84,1.67-1.95,1.39v2.79l1.95,2.51,2.23,2.51,5.02,1.67,5.3-1.12,5.3-1.67,6.41-1.39,2.51,1.12,1.12,1.67-2.23,1.39-3.07,2.23-1.95,2.79.28,2.51,1.95,1.95,2.51.84,3.07,1.39,1.95-2.23,2.79-2.23,1.95-2.23.84-2.23-.84-3.07-1.39-2.51-2.23-1.12,2.79-1.95-.28-1.67,3.07-.84,4.74-1.95,2.51-2.23,2.23-2.23,1.39,1.67,1.67,1.95,2.23,1.12.84.56,1.39,1.95,1.12,1.95,1.95-.56.28,2.79-.56,2.51,1.67,1.67,1.95,2.51,1.39,2.79v3.35l-.56,2.23-1.67,3.35-1.39,1.95-1.39,3.9-2.79,1.95-2.23-.28-.56,2.51-.56,2.51,1.39,1.67,2.51.28h3.62l1.39-2.23,2.51-1.67h-2.79l-1.95,2.51h-3.07l-1.67-.28-.28-1.67.28-1.67,3.35-1.67,2.23-2.79,1.39-2.51,1.95-2.79,2.23-4.46v-3.9l-1.67-3.62-.28-1.39-2.79-2.79v-6.13l-2.23-.56-1.95-1.39-1.95-3.07h-1.39l-1.67-1.39-1.67-2.79.56-3.07-.56-3.35-1.12-3.62-1.12-2.51-1.67-1.39,2.79-2.51,1.39-2.23,2.23-.28,2.79-.56.84-1.67,1.39,2.79,1.95,1.39,1.12-1.39,1.39-2.23,1.12,1.39-.84,1.67.56,1.95,1.67.56,2.23,1.67,1.67,1.67,1.39,1.67.84,2.51.84,1.95,2.79-1.67v-2.51l.84-1.95-1.39-3.07-1.95-1.12-1.95-1.95-1.39-.84h-1.39l-2.79-.28-.28-2.23,2.51-.56,3.07-2.79,1.39,1.95v1.39l1.39,1.67,2.79,1.67,3.62.84,3.35-.56.56,1.12-2.51.84-2.23,2.23.56,1.12,2.79,1.67,2.79-1.12,2.23-.56,2.51,1.95,1.67,1.95,3.62.56,1.95.28,1.12,2.23,2.79,1.39,1.95-2.23,3.07-2.51-.84-2.51-1.95-2.23-2.79-.56-3.62.56-4.18-.28-2.79-1.12,3.35-1.12,4.46-.84-.56-2.51-2.51.56-4.18-.84,5.85-1.67,2.51-.84,3.35-.28,1.67-.28.84,1.67.56,1.12,2.23-.84,1.12-1.67.84-1.39,1.12-1.67,3.35.56,3.35-2.51v-1.95l.56-3.07.28-1.67,1.67-.56-.28,2.23,1.12,1.12.84,2.79-.84,1.39-1.12,1.39-.56,1.67,1.12,1.39v1.95l1.67,1.95,2.23-.84.84-1.67,2.23.84.84,1.95v3.07l.56,3.9,1.12,1.39,1.95,1.67-1.67,2.79-2.51,1.67-1.67,1.67-1.12,1.67.56,1.95,2.51,1.12,2.79,1.67,1.67,1.67,1.12,2.23-.56,2.51.84,1.95,1.67,3.07,2.79,1.95,2.23,2.23,2.23.28,3.35,1.67,2.79.28-2.23-2.51-2.79.28-1.95-1.39-1.67-2.23-1.95-.84-2.23-2.23-.56-1.67-.84-.84.28-1.67.28-2.23-.56-1.67-1.39-1.95-1.67-1.12-1.39-1.12-2.23-.28-.84-.84.56-1.39,1.12-1.95,3.07-1.39,1.95-3.07-.28-2.23-1.67-.84-1.12-1.67-.56-2.51.28-2.79-.56-2.23-.84-1.67-1.67-.84-1.39-.56-1.12.56-1.67.84-.56-1.39v-1.95l1.67-2.23.28-2.51-1.12-2.23v-2.51l-1.12-1.67h-.84l1.67-2.79-2.79-.84-3.35.56-1.95,1.95-.28,1.67.28,2.51-2.79-.28-1.39-1.39-.84-1.95,2.23-1.39v-1.67l-.56-.56.84-1.39-.28-1.67.56-.84.56-1.95-1.12-1.67-2.23-.56,1.67-2.23,4.18-1.67,1.67.28-.28,1.67-.56,1.67,1.67,1.12,2.51.84,2.23-1.95,3.07-.84,1.95-.28.84-1.95-.28-2.23-2.51.28-2.79.84-3.07.56-.84-1.12,1.67-1.67,3.62-.84,3.07-.56,5.3,2.23-2.51,3.07.84,2.23-2.23,1.67.84,5.58-.84,1.39-.28,2.51-1.39,4.74,3.35.56,1.12,2.51,3.07,1.12,3.07,5.02,1.12,3.9,2.23-1.39,2.23.84,1.39,3.07-.56,5.58,5.85,4.18v4.18h-1.67l-3.62,2.23,2.79,4.18-1.39,1.39,5.58,3.9-2.51,2.79,1.39,3.07-1.39,2.23,1.12,2.23,2.79.28,1.39,2.23,5.3-1.67-.84,4.18,5.3,3.35,5.58-3.62.56,7.53.84,1.39,4.18-.84-1.67,3.35.84,1.95,3.35,1.95v9.48l11.99,2.23,8.64,10.04,1.67-2.51,1.67,1.12,2.79-1.67,3.35,4.46-.56,3.07,3.35,2.51-2.79,1.67-3.35.28-4.18,2.51v1.95l6.13-1.12.56,3.07,3.9-1.67,2.79,5.3-2.51,1.12h-3.9l-.56,3.35,1.12,1.95h4.46l5.85,4.74-1.67,2.23,1.39,1.67,5.58-.84.84,3.35-2.23,2.79,3.9,1.95Z"/>
  <path id="003" data-bs-toggle="tooltip" data-bs-title="Centla" class="cls-1 estado" d="M458.95,142.51l-4.74-4.46-5.85-.84-4.46-5.58h-6.97l-.84,17.84-24.25.28-2.23-4.46,6.41-35.68-8.36-4.18-2.23-.56-2.79,2.23h-2.79l-2.51-2.51-2.23-.28-2.51,2.23-4.46-.28-8.36-6.69,15.61,1.67,16.45-.56,18.12-1.95,17.56-3.62,17.56-6.13,10.87-7.53,10.87-7.53,10.32-9.76,6.69-9.76,8.64-9.48.28-3.35,6.13-9.76,3.9,5.58,4.46,5.3,4.46,3.62,4.74,7.53.28,4.18-.84,4.74-.28,6.13v11.15l2.79,2.79,2.23,3.9,1.95,3.07-.84,6.97v4.74l2.51,5.02v-3.9l-1.67-2.79.56-6.13.84-5.02-1.12-2.79-1.67-2.79-3.07-3.62-.28-5.58.28-7.81v-6.41l.84-6.13-2.51-5.85-2.79-4.18-5.3-5.3-3.9-4.74v-2.79l-.84-2.79.84-3.62,3.62.56h9.48l13.94-3.07,17.56-4.46,17.01-6.13,14.22-6.41,2.79.84.84,5.3v5.58l4.46,4.46,1.67,4.74,5.02,4.46,1.12,4.18,3.9,3.07,1.95,5.3-.84,10.87,1.12,5.3,4.46,6.41.84,2.23,3.62,1.67,5.58-.28,4.18,2.79,3.62.84,2.79,4.46-.84,4.46,3.9.28,3.07-1.12-.28-3.35,3.01-3.04,4.72.56.83,1.94-1.39,2.5-1.67,1.67,5.27,5.55-13.32,13.88,16.1,5.55v3.33l8.33,4.72-1.11,3.33,8.33,6.66-7.77,7.77,13.32,1.67.56,3.05,5,1.11,3.05-4.72,5.27,3.61,1.39,3.33.83,5.55-3.05,1.67-13.88.56-3.05-2.78-3.89.28-4.16,6.94-4.44-1.67-3.89,1.11-1.39,4.44,3.05,4.72-5.55,6.94,6.94,2.5-2.78,6.11-.83,8.33,4.44,6.66,5.83.28,5.55,5.83-2.5,2.22-9.6-2.82-1.12,2.51-6.13.84-3.62,4.46-3.07-3.07-5.3-.56-.28-5.02-6.69-5.58-10.04,2.79,7.53,5.3-.28,3.07,3.62,1.95-18.4,13.1-8.64-1.67.28-4.46-10.59,1.12-2.51-2.51,2.79-1.39,3.9,1.95,2.23-1.39.28-3.07-11.43-7.25-.84-7.25-6.13-.84-5.3,2.79-1.39,4.18,1.95,1.95,3.07,1.39-8.64,18.96,1.39,3.9,6.41,4.46v6.41l-4.74-7.81-3.35,1.12-.84,6.41-3.62-1.12-8.36,2.79-2.79-2.51-4.46.56.84-6.13-6.13-.84-1.12-15.33,1.95-3.9-4.74-5.58-3.9-.28-4.74-2.51-1.12,4.74-5.3-1.39-3.07-6.69,1.95-4.18h-13.38l-9.2-6.41,13.66-13.94-2.79-5.02v-3.35l3.35-3.07-.28-3.62,3.9-5.58,1.12-4.18-16.45-1.67-25.93,20.07-9.76-19.79-8.36-6.41-5.02,1.67-5.3-3.07,1.12-3.07-2.79-1.12-5.02,4.46-.28,5.58Z"/>
  <path id="004" data-bs-toggle="tooltip" data-bs-title="Centro" class="cls-1 estado" d="M418.81,355.78l5.3-7.25-.56-1.95,1.39-2.79-2.79-2.51-.56-3.35-2.51-1.95v-2.23l-5.3-5.58-7.81-1.12-8.64,2.51-5.02.56-1.12-3.35-5.02,10.04-6.41-8.08-.84-3.9,2.79-3.9.56-3.35,5.3-1.95,6.41-4.74.84-2.23-4.18-1.67-1.12-2.23-6.13-.84-.56.84-3.07.84-1.39-1.12-1.95-3.35h-3.07l-.56-1.67.56-3.35-2.51-.84-5.85-.28-1.67-1.39-4.18.56-2.51-5.85-9.2-1.12-5.02,3.9h-5.3l-3.9-4.18,3.62-5.3,7.53,1.12,1.95,1.39,6.13.56,5.58-1.12-2.79-2.51,9.76-5.85-2.23-1.39,1.39-5.58,1.67-1.67,9.76,6.97-2.23,2.51,1.95,1.95,5.85.56,1.95,3.07,3.35-.84.84-2.23,5.02-.56,4.46-6.13,7.81-.56.84-9.76,10.32-6.41-3.07-5.85,8.64-1.67,5.85,1.39-1.95,3.07,3.62,1.12-1.39,3.9,1.39,4.46,5.02,1.67,6.97-2.51v-3.9l5.3,1.39-1.39-6.69,4.18-.56,2.79,2.79,4.46-4.46,3.62-5.02-5.3-2.51v-5.58l1.95-1.95,5.3.84.84-4.18-2.79-3.35,1.95-3.35,1.67-3.35-1.12-2.79,2.23-4.46-.28-6.69,5.85-3.9-3.62-6.13,8.92-10.87-3.07-1.67v-4.18l8.36-7.25-1.39-5.58-4.18-.28-2.23-3.62.84-6.41-3.35-6.97-3.07,1.39-.84-3.35-4.46-1.39-3.07-4.18.28-5.58,5.02-4.46,2.79,1.12-1.12,3.07,5.3,3.07,5.02-1.67,8.36,6.41,9.76,19.79,25.93-20.07,16.45,1.67-1.12,4.18-3.9,5.58.28,3.62-3.35,3.07v3.35l2.79,5.02-13.66,13.94,9.2,6.41,4.18.28,9.2-.28-1.95,4.18,3.07,6.69,5.3,1.39,1.12-4.74,4.74,2.51,3.9.28,4.74,5.58-1.95,3.9,1.12,15.33,6.13.84-.84,6.13-5.02,3.07-6.69-6.97-8.64,10.87,2.79,4.46,7.25,3.35,16.17-.28,1.12,7.53,3.62-2.23,1.67,1.39-3.07,5.85.56,3.9-.84,4.46-4.46-2.51-2.51-3.62h-1.12l-1.67,4.18-4.18,2.51-6.41.28-.84,5.58-4.74-1.95-1.39,2.23,2.23,3.07-3.62,2.51,2.23,3.62-4.46,1.67h-8.64l-1.12,2.51-4.18,3.07-5.85,1.67-3.9,5.02-.56,2.79-2.51,3.62-7.53,1.39-3.07-1.67-7.25-2.23-4.46,1.39-3.35-1.67-3.07,2.51v4.74l-2.23,4.74-3.35,2.51,1.95,4.74-1.95,2.79-5.02,2.79-3.07,2.79-1.95,5.85,1.12,3.62-1.39,3.9-3.35.84v4.46l-4.18-1.95-3.07-6.97-3.35,1.39-.84,3.9-3.9,3.35-.28,3.62,5.58,6.69-.56,6.41-8.64-4.74-11.71,5.02-2.23-4.18-1.95,5.58,4.18,1.39,1.67,7.25-3.62.84-8.64-4.74-.28-2.51,3.07-6.13-2.79-3.07-3.35,1.12-4.46-1.12-.84-3.62Z"/>
  <path id="005" data-bs-toggle="tooltip" data-bs-title="Comalcalco" class="cls-1 estado" d="M273.56,218.06l-3.35-1.95-.84-1.95,1.67-3.35-4.18.84-.84-1.39-.56-7.53-5.58,3.62-5.3-3.35.84-4.18-5.3,1.67-1.39-2.23-2.79-.28-1.12-2.23,1.39-2.23-1.39-3.07,2.51-2.79-5.58-3.9,1.39-1.39-2.79-4.18,3.62-2.23h1.67v-4.18l-5.85-4.18.56-5.58-1.39-3.07-2.23-.84-2.23,1.39-1.12-3.9-3.07-5.02-3.07-1.12-1.12-2.51-3.35-.56,1.39-4.74.28-2.51.84-1.39-.84-5.58,2.23-1.67,1.95.56,4.46-4.46.28-4.46,4.18-.28,3.9,2.79v2.51l-1.67,1.12-1.95.56-2.51,1.67.56,1.39.84,1.67-1.12.84-2.51-1.12-.84.84v1.95l1.12,1.95,2.51,1.12-.56,1.67-2.51,1.39.56,1.39,1.39-.28,3.35-.28.28-1.67,2.23-.28.84,1.95-.84.84-1.67,1.67-2.51.56-1.39,1.67.56,1.67,1.12,1.95,2.51.56h2.51l.84-2.79-1.95-.56-1.67-.56.84-1.12,2.51-.28,2.79,1.12,2.23-.84,2.79.84,1.67-.56,1.67,1.12,2.79-1.67-.28-2.79.56-2.23-2.51-.56-1.12-1.95.84-1.67-1.12-1.67-1.95-.28-1.95.56-2.23-1.67-1.12-1.12-1.39-2.51-2.51-3.62,6.41,3.35,8.36-4.74v-2.51l-2.23-3.35-2.23-1.67,3.9-2.51h3.62l3.07,1.12,6.69-2.79,4.18-.84,2.51,1.12,3.07.28.56-2.23,3.62.84-.28-2.23,3.07.28.84,2.23,6.13,2.79,5.58-.84-.28,3.35,6.13,5.3h2.79l1.39,1.12-1.12,1.67.56,2.79,3.07.56,1.95.84-.28,4.18-.84,3.07,2.23,1.39-1.67,2.79,2.51,1.39.56,3.62-2.51,3.07-5.02-5.02-3.9,1.67-1.39,3.35,1.39,1.95,1.39-1.95,2.51-.56,2.79,1.67-2.23.28-.84,3.62,3.62,2.23,3.9-1.95,4.74-.84-4.18-5.3,3.62-.56,2.79,3.07,1.67-1.95,6.69-.28,6.69-3.07,2.51,1.39,2.79-1.39h4.74l5.02,1.12,3.62.56,3.62,3.62,1.12,3.07-.56,2.79,1.39,2.51,2.23,2.79,3.9,1.67h3.62l3.35-.84,1.12-3.35,1.67,2.51-.28,3.62,2.51,1.67,3.62-.28.56,3.62-2.79,6.13h-2.79l-1.95,1.39-1.12,3.62-2.51,2.79-3.07-1.12-2.51-2.51-2.51,3.35-4.18,1.67-1.39-3.62-2.23-.84-1.67,4.46-3.35,2.51-3.62,1.67,1.12,2.51v2.79l-3.62,2.23-2.23,3.62-1.39,3.9-2.79.84-.84,3.07-1.95.84-.84,3.62-3.9-3.07-2.79-4.46h-3.07l-1.95,4.18-3.9-5.02-.84-3.62-6.41-.28-7.81,5.58-.56-4.74-1.67-1.12,1.12-3.35v-1.67l-1.95-2.23-.84-4.46-5.02-2.51-.28,2.51-4.18,1.95.56,2.51-2.23,3.62-3.35-.28-3.62,3.62.56,3.9-6.69,10.32-3.07,1.67Z"/>
  <path id="006" data-bs-toggle="tooltip" data-bs-title="Cunduacán" class="cls-1 estado" d="M333.22,286.92l-3.07-.56-5.02-6.41-3.35,1.12-3.9-1.95,2.23-2.79-.84-3.35-5.58.84-1.39-1.67,1.67-2.23-5.85-4.74h-4.46l-1.12-1.95.56-3.35h3.9l2.51-1.12-2.79-5.3-3.9,1.67-.56-3.07-6.13,1.12v-1.95l4.18-2.51,3.35-.28,2.79-1.67-3.35-2.51.56-3.07-3.35-4.46-2.79,1.67-1.67-1.12-1.67,2.51-8.64-10.04-11.99-2.23v-9.48l3.07-1.67,6.69-10.32-.56-3.9,3.62-3.62,3.35.28,2.23-3.62-.56-2.51,4.18-1.95.28-2.51,5.02,2.51.84,4.46,1.95,2.23v1.67l-1.12,3.35,1.67,1.12.56,4.74,7.81-5.58,6.41.28.84,3.62,3.9,5.02,1.95-4.18h3.07l2.79,4.46,3.9,3.07.84-3.62,1.95-.84.84-3.07,2.79-.84,4.18,3.62,1.12,3.35,3.07-1.12,2.79-2.51,1.95,2.79,2.51.84,2.79-1.12,4.18-2.79,1.12,2.79,5.02-.28,4.46,3.35,1.95,4.74-1.12,4.46-8.36,7.81.28,1.67,4.18.84,2.79,2.79,6.13-3.07,4.46-.56,5.85,3.07h5.85l5.02,3.9,10.59-1.39-.28,3.9,1.95.56-1.67,5.02,3.07,5.85-10.32,6.41-.84,9.76-7.81.56-4.46,6.13-5.02.56-.84,2.23-3.35.84-1.95-3.07-5.85-.56-1.95-1.95,2.23-2.51-9.76-6.97-1.67,1.67-1.39,5.58,2.23,1.39-9.76,5.85,2.79,2.51-5.58,1.12-6.13-.56-1.95-1.39-7.53-1.12-3.62,5.3Z"/>
  <path id="007" data-bs-toggle="tooltip" data-bs-title="Emiliano Zapata" class="cls-1 estado" d="M948.71,451.05l-7.64-2.38-2.5,2.5-12.77-4.72,2.22-7.22-12.49-.28,8.33-3.61,6.11-6.38,3.05-6.66-1.11-4.44,3.33-1.11-.56-3.61,1.94-1.67v-7.22l-1.94-3.61.28-8.33-8.88-9.71,4.72-5-3.89-1.39-.56-7.77-2.78-6.38,2.5-4.16-5-2.78-3.89,4.44-9.16-6.38-3.05,1.39-2.5-1.11-5-1.94-3.05-4.72-2.5,3.33-8.05-.28-2.78-4.44-3.05,3.33-.28-4.72-11.1-1.11-5.27-4.16,4.72-6.11,5.55,3.05,3.05-.28-1.67-3.61,3.89-12.49-1.11-5-4.16-8.6-.56-4.44,1.67-3.61,2.5-3.05.83-1.67-4.44-2.78-3.33-.83-2.22-2.22-1.39-3.61-1.11-6.66-1.39-2.5,9.71-8.6,4.72-9.71,3.05,2.22.28-5,14.71,10.55,3.05.28.28,1.94,14.55,8.37-.48,6.78.48,1.94-2.91,2.91,2.42,1.94.48,6.78-6.3,2.91,2.42,2.91-5.33,14.53-3.39,3.87,2.42,5.81,5.81,6.78-4.84.97,2.42,11.62,10.65,1.45,2.91-7.75,3.39-4.84,7.75,4.84,8.23-.97-1.94-5.81-8.23-2.42-4.84-2.42,12.59-2.42,17.43-1.45.97,10.17,3.39,5.81-3.39,5.81,6.3,2.42-.97,2.91-4.84,2.91,1.45,12.59,4.36,4.36-1.94,3.87,6.74,3.24-2.74,9.58-4.79-.68-5.48,10.27,5.48,4.79,6.16,25.33-4.79,1.37-6.85,10.95,1.37,8.21-5.48,4.79Z"/>
  <path id="008" data-bs-toggle="tooltip" data-bs-title="Huimanguillo" class="cls-1 estado" d="M317.89,293.61l-.28,3.07-3.62,1.39-2.79,2.51-4.74,1.39-3.62-3.62-1.39,2.23,1.12,3.07v3.9l2.23,3.62-3.62-.28.56,5.58-2.51,1.67.28,6.97,3.35,3.35,3.07,1.39v2.79l-2.23,1.12v4.46l-2.51,3.9.28,3.9,2.79,4.18-1.12,2.23-3.62.84-2.23-3.35h-2.51l-.28,2.79-3.62.56v5.3l5.02.56,2.79-2.79,5.02-.28.28,3.07-1.39,2.51v2.51l-1.12.84-7.25.56-3.62-3.9-2.79-1.39-1.39,1.39v2.79l4.46,6.13,3.9,4.74-.56,2.51,3.62.28,2.79,6.13,1.95,6.13-1.39,3.9,1.67,3.07-1.12,2.51-1.39,1.95,1.12,5.58.28,3.07-5.85.28-3.9,1.67.56,2.79-4.46,1.67-4.74,3.9-1.12,1.95.56,4.74-2.23,5.02-1.67,1.95-6.13-.56-2.51,1.39-1.67,3.35,1.12,9.76-1.12,2.79-1.95.28-3.35-3.07-1.95-1.12-2.23,1.12-1.67,2.23-4.46,9.48-1.39,8.92-3.07,3.62,1.95,4.46-.56,6.69-1.12,7.81-31.5,50.74-2.79-2.23-3.9-.28-.56,3.9h-3.62l-2.51-1.95-.28-4.46,2.51-3.07-18.96-11.43.28-2.51-2.23-1.39-.84-3.07,3.9-4.18-.28-3.07,2.51-2.79v-1.95h6.41l2.51-4.18,2.51-2.23-1.12-3.62v-1.95l3.07-.84-5.02-3.35,3.9-1.95v-3.9l2.23-3.07-.28-2.23,1.95-2.23-3.9-5.58,3.35-2.51.56-4.18-1.95-.28-.28-2.79,3.62-3.35,1.67-4.18-3.07,1.39-3.07.28-.84-2.79-10.32.28v-2.79l-3.35-1.12-.56-2.79-2.51-.28-.84-3.07-2.51-.28-.28-1.95-2.51.28-2.51-.84v-7.25l-3.62.56-1.12-3.07.28-2.79-1.39-1.39-2.23.84-.84,1.39-3.9-1.12-1.12-1.95,1.39-2.79-.84-3.62h-2.79l-2.79-3.07.56-2.79,2.23-3.9-4.46.84-1.12-2.79-1.95-.56-1.95,2.51-2.51-5.3-3.62.56-2.79-2.23-3.9,3.07-2.79.28-1.12-2.23.56-2.51-.56-2.51-1.39.84-3.07,3.62-2.23-2.79.28-6.97-4.46,2.23-.56,2.51-2.23.56-1.12-3.9-5.85.56-1.12,2.79-1.39-.28-4.18-5.3v-1.95l2.79-1.95.28-4.46-2.23-1.67-4.18,1.39-8.92-.84-1.95,3.07-3.9-1.39-3.9-1.95-1.67-3.35-2.23-.56-3.07-5.3,1.12-5.85-2.79-.84,1.39-3.35-.28-1.67-2.51-.28-1.67-1.12,3.35-4.18-1.12-2.79-3.35-2.79-3.35-2.79-1.95-.28-1.67,4.46h-13.38l-5.58-10.32h-3.9l-4.46,2.23-7.53-1.39-1.12-7.25,1.39-1.12-1.95-1.39.56-2.51-2.51-1.39v-2.23l1.95-3.9-3.35-2.51-.28-6.97,1.12-1.95-.84-2.51-1.12-2.51-.28-1.39,5.02-.56-1.39-3.62,1.95-1.67,3.35.28,2.79-3.07-2.79-1.12-1.12-3.07,2.51-3.07-2.79-1.12-2.79,1.12-1.67,1.95-.56-6.97,1.12-1.67-2.23-1.39.56-2.23,3.07-2.23.28-5.58-1.12-3.07-3.07-2.51-3.35-.56-1.67-2.23.56-2.23,4.74-2.79.84-1.39-.28-2.23-3.9-3.62-2.79-1.12-1.39-3.35-.28-4.74,1.39-5.3,1.12-3.62-2.23-4.18-3.62-2.51-1.39,1.95-.56,2.23-2.79.28-2.51-.56-1.39-3.62-.56-9.48,2.79,3.9h8.08l3.07-1.39-1.67-5.3,1.67-1.67,3.35.56,4.74,3.62,3.62.56,1.67,3.35h5.02l6.13-5.3,4.18.56,2.23,3.9,4.18-2.79,2.79,4.18v9.2l-13.1,9.2,4.74,6.69,4.46-.84,1.12-2.51,3.9-5.3,11.43-4.74,1.12,4.18,5.58-2.23,5.85-3.62,4.46-.84,2.51,8.64,1.95,5.02,3.35.84-1.67,1.95,5.02,6.97,2.23-3.35,2.79.28,1.67,3.07,3.62.28,2.79-2.79.56-3.35,3.62.28,1.12,2.79,2.79-.28,2.79-2.79,6.69,4.74,15.05.84,6.69,3.35-1.95,6.41,7.25,1.12-.28-12.55,15.05-.28,2.51,7.25v9.2l27.32-1.95.84,18.12-8.08,1.12,1.95,2.79,3.9,1.12,10.04.28.28,10.87,10.04-1.12,2.23,2.23,3.35.56,2.23-1.95.28-5.58,3.07-3.62,20.07.56,19.52-1.67,7.25-1.95,3.62-2.79h2.23l.56,2.51,6.69,6.41.56,4.18-5.58,1.95,5.85,1.12,1.67,5.02,1.67-6.13,3.35,1.67,1.39-5.3,4.18-2.51,3.9.84,2.51,2.23h7.81Z"/>
  <path id="009" data-bs-toggle="tooltip" data-bs-title="Jalapa" class="cls-1 estado" d="M458.95,358.29l-5.58-6.69.28-3.62,3.9-3.35.84-3.9,3.35-1.39,3.07,6.97,4.18,1.95v-4.46l3.35-.84,1.39-3.9-1.12-3.62,1.95-5.85,3.07-2.79,5.02-2.79,1.95-2.79-1.95-4.74,3.35-2.51,2.23-4.74v-4.74l3.07-2.51,3.35,1.67,4.46-1.39,7.25,2.23,3.07,1.67,7.53-1.39,2.51-3.62.56-2.79,3.9-5.02,5.85-1.67.56,3.9,3.62.28-1.12,3.62,6.69.84.28,6.97,3.62.28.56,5.85,3.9,1.95-.28,4.18-2.79-3.07-4.46,3.9,3.62,1.67.56,4.46,1.67,1.95.28,3.35-1.39,3.35,2.79,1.95,2.79,1.39-1.12,2.51,1.12,4.18h0l-1.12,2.51-3.07.56-2.23,1.39.56,3.07,2.51,4.74.28,6.69-3.35,1.39-1.67,1.95,3.07,3.9-1.12,2.79-2.79.84-1.12,4.18,4.18,3.07.56,2.79,1.95,1.12-.56,3.35,3.9,5.02-14.5-1.39.56,4.74-3.9-.28-1.39,3.9-1.67-5.85-3.9,1.12-.28,3.35-5.3,3.35-9.48-3.62-.28-4.18-6.69,4.74-6.13.28-5.02-1.95-.28,3.9-11.43-.56-2.23-6.13v-7.53l-3.9.28-5.3-6.13h-3.07s-.28-11.15-.28-11.15l-5.02-5.58,1.12-2.23,3.62-1.39,4.74-.84v-6.41l-7.53-.56-4.18,3.9Z"/>
  <path id="010" data-bs-toggle="tooltip" data-bs-title="Jalpa de Méndez" class="cls-1 estado" d="M412.67,239.8l-10.59,1.39-5.02-3.9h-5.85l-2.23-1.12-3.62-1.95-4.46.56-6.13,3.07-2.79-2.79-4.18-.84-.28-1.67,8.36-7.81,1.12-4.46-1.95-4.74-4.46-3.35-5.02.28-1.12-2.79-4.18,2.79-2.79,1.12-2.51-.84-1.95-2.79-2.79,2.51-3.07,1.12-1.12-3.35-4.18-3.62,1.39-3.9,2.23-3.62,3.62-2.23v-2.79l-1.12-2.51,3.62-1.67,3.35-2.51,1.67-4.46,2.23.84,1.39,3.62,4.18-1.67,2.51-3.35,2.51,2.51,3.07,1.12,2.51-2.79,1.12-3.62,1.95-1.39h2.79l2.79-6.13-.56-3.62-3.62.28-2.51-1.67.28-3.62-1.67-2.51,5.02-2.23,2.79-3.62-2.23-2.51,1.95-5.3,2.51-2.23v-6.41l-1.95-2.51-2.51-3.9,1.12-2.51,2.79-1.67v-2.79l2.79-1.39,2.23-3.35,2.51,1.67,6.13-1.12,5.3-4.18,1.95-4.46,1.67,2.51h2.79l5.58-5.3-6.41,35.68-4.46,1.95.56,5.02,1.39,3.9-.56,2.51-2.79,1.12-.56,1.12,1.12,1.95,2.51,1.12.28.84-2.79,2.79v1.39l2.51,1.67,1.12,1.39-1.67,2.23h-2.51l-3.9,1.67-.28,1.67.84,2.23-3.9,1.12,3.9,4.18,1.12,4.46,3.9.56,2.51-.56,2.23,2.23-.28,2.79-5.02,3.9,1.39,1.12,5.02-.28.56,1.95-5.58,6.97h3.07l6.97,5.3.28,1.95-3.35,3.9.84,2.23,5.58,2.79-6.97,15.33Z"/>
  <path id="011" data-bs-toggle="tooltip" data-bs-title="Jonuta" class="cls-1 estado" d="M862.24,274.36l-6.11,3.61-2.5,3.61-3.05,1.39-4.44.28-5-2.5-4.16.56-2.22,1.67-3.05-.83-3.05-3.33-3.33-.83-3.61.28-1.67,2.78,1.11,2.5.83,4.72-1.94,2.5-4.72,3.33-3.89-1.67-1.94-4.44,3.05-5.27,1.94-3.33.83-2.78-2.22-1.39h-6.11l-5.55-.56-3.89-5-5.55-6.94,3.61,11.1-3.05,9.99-5-2.22-1.11,3.89-5.27.28-7.77,4.72h-7.22l9.16,4.44,1.67,3.89-1.11,3.33-5,1.11-5.27-1.94-3.33-1.94-1.67,3.33-3.05-.83-1.94,4.72,3.33,2.22-2.5,8.6-3.89,5.55-9.16-4.44-1.11-8.33-2.22-1.39-.28-3.33-10.27-7.22,1.11-14.43-8.05-1.39-5,2.78-3.61,4.72-.28,3.05-16.65-8.88-.83,3.61-12.21-4.44,2.22-4.72-9.99-1.39-1.94-1.94,2.5-3.33-.28-3.33-1.67-1.94,4.72-2.78-5.27-5.83.28-5,3.33-4.44-1.94-1.94-.28-2.5,4.72-2.5-5.83-2.78,1.67-2.78-.28-2.5-4.44-2.5-.56-4.44-7.77-.56,9.99-10.83,4.72,1.67-1.94-8.33,3.61-1.67.83-7.49,2.5-2.22-5.55-5.83-5.83-.28-4.44-6.66.83-8.33,2.78-6.11-6.94-2.5,5.55-6.94-3.05-4.72,1.39-4.44,3.89-1.11,4.44,1.67,4.16-6.94,3.89-.28,3.05,2.78,13.88-.56,3.05-1.67-.83-5.55-1.39-3.33-5.27-3.61-3.05,4.72-5-1.11-.56-3.05-13.32-1.67,7.77-7.77-8.33-6.66,1.11-3.33-8.33-4.72v-3.33l-16.1-5.55,13.32-13.88-2.5-2.78-2.78-2.78,1.67-1.67,1.39-2.5-.83-1.94-4.72-.56,3.61-3.33,6.94,4.16,46.63-3.89,1.67,31.92-2.5,1.67,6.38,12.49-2.22,18.04,3.33,1.39.56,4.16-4.16.28,14.16,24.15-5.55,5.83,3.05,4.44-.83,11.1,5.27,2.78-.56,4.44,8.6,5.27v5l7.22,4.72h6.38l3.89,2.5,1.94-3.61,3.05.83,2.78-2.78,3.61,2.5,3.33-3.61,2.5,2.22v3.61l-3.33,3.33,6.11-.83,4.44,8.6,10.83,5.83,2.78-2.22,1.94-.56,3.61,9.71,16.38,2.22,3.33-1.94,3.61-.28,6.11,2.22,9.44,8.6,22.21,2.22,13.88,8.6-4.72,9.71-9.71,8.6Z"/>
  <path id="012" data-bs-toggle="tooltip" data-bs-title="Macuspana" class="cls-1 estado" d="M743.44,318.49l6.57,8.85-2.23,1.95.84,5.58-7.53,1.39-.28-5.58-7.25-2.51-5.58,7.53-3.07-2.51-11.99,11.99-14.78,22.02-5.3-3.62-1.67,1.67-7.81-2.79-5.02-2.51-2.79,1.12-1.39,2.23-4.18,1.39,2.51,18.4h-2.51l-.84,6.13,3.35,7.81-17.01,13.38-1.39,3.07-6.41,1.12-4.46,2.79h-8.36l-3.9-1.95-18.68,3.07-4.46,9.76-9.76,3.62-3.62-3.07,6.69-8.36-9.76.56v-8.08l-4.18-.84-1.67-3.07-2.51-1.12-4.18.56-2.51-3.62-4.18.56-1.12,3.9-3.9-.56-.56-6.13,3.07-2.51.28-3.07h-3.07l-1.67-2.23v-3.07l-4.18-.28-.84-2.51-5.85,6.41-3.62-.84-3.9-5.02.56-3.35-1.95-1.12-.56-2.79-4.18-3.07,1.12-4.18,2.79-.84,1.12-2.79-3.07-3.9,1.67-1.95,3.35-1.39-.28-6.69-2.51-4.74-.56-3.07,2.23-1.39,3.07-.56,1.12-2.51-1.95-1.12.84-3.07,1.12-2.51-2.79-1.39-2.79-1.95,1.39-3.35-.28-3.35-1.67-1.95-.56-4.46-3.62-1.67,4.46-3.9,2.79,3.07.28-4.18-3.9-1.95-.56-5.85-3.62-.28-.28-6.97-6.69-.84,1.12-3.62-3.62-.28-.56-3.9,4.18-3.07,1.12-2.51h8.64l4.46-1.67-2.23-3.62,3.62-2.51-2.23-3.07,1.39-2.23,4.74,1.95.84-5.58,6.41-.28,4.18-2.51,1.67-4.18h1.12l2.51,3.62,4.46,2.51.84-4.46-.56-3.9,3.07-5.85-1.67-1.39-3.62,2.23-1.12-7.53-16.17.28-7.25-3.35-2.79-4.46,8.64-10.87,6.69,6.97,5.02-3.07,4.46-.56,2.79,2.51,8.36-2.79,3.62,1.12.84-6.41,3.35-1.12,4.74,7.81v-6.41l-6.41-4.46-1.39-3.9,8.64-18.96-3.07-1.39-1.95-1.95,1.39-4.18,5.3-2.79,6.13.84.84,7.25,11.43,7.25-.28,3.07-2.23,1.39-3.9-1.95-2.79,1.39,2.51,2.51,10.59-1.12-.28,4.46,8.64,1.67,18.4-13.1-3.62-1.95.28-3.07-7.53-5.3,10.04-2.79,6.69,5.58.28,5.02,5.3.56,3.07,3.07,3.62-4.46,6.13-.84,1.12-2.51,9.6,2.82-.83,7.49-3.61,1.67,1.94,8.33-4.72-1.67-9.99,10.83,7.77.56.56,4.44,4.44,2.5.28,2.5-1.67,2.78,5.83,2.78-4.72,2.5.28,2.5,1.94,1.94-3.33,4.44-.28,5,5.27,5.83-4.72,2.78,1.67,1.94.28,3.33-2.5,3.33,1.94,1.94,9.99,1.39-2.22,4.72,12.21,4.44.83-3.61,16.65,8.88.28-3.05,3.61-4.72,5-2.78,8.05,1.39-1.11,14.43,10.27,7.22.28,3.33,2.22,1.39,1.11,8.33Z"/>
  <path id="013" data-bs-toggle="tooltip" data-bs-title="Nacajuca" class="cls-1 estado" d="M472.89,163.42l-1.12,3.9-2.23,1.12-1.12-.56v2.79l-.84,1.12-1.95-1.95-3.62-.28,1.95,2.23-.84,1.39,1.95,2.23.28,2.23,1.95,1.39,3.07-1.12h1.95v2.23s0,4.18,0,4.18l3.07,1.67-8.92,10.87,3.62,6.13-5.85,3.9.28,6.69-2.23,4.46,1.12,2.79-1.67,3.35-1.95,3.35,2.79,3.35-.84,4.18-5.3-.84-1.95,1.95v5.58l5.3,2.51-3.62,5.02-4.46,4.46-2.79-2.79-4.18.56,1.39,6.69-5.3-1.39v3.9l-6.97,2.51-5.02-1.67-1.39-4.46,1.39-3.9-3.62-1.12,1.95-3.07-5.85-1.39-8.64,1.67,1.67-5.02-1.95-.56.28-3.9,6.97-15.33-5.58-2.79-.84-2.23,3.35-3.9-.28-1.95-6.97-5.3h-3.07l5.58-6.97-.56-1.95-5.02.28-1.39-1.12,5.02-3.9.28-2.79-2.23-2.23-2.51.56-3.9-.56-1.12-4.46-3.9-4.18,3.9-1.12-.84-2.23.28-1.67,3.9-1.67h2.51l1.67-2.23-1.12-1.39-2.51-1.67v-1.39l1.12-1.12,1.67-1.67-.28-.84-2.51-1.12-1.12-1.95.56-1.12,2.79-1.12.56-2.51-1.39-3.9-.56-5.02,4.46-1.95,2.23,4.46,24.25-.28.84-17.84h6.97l4.46,5.58,5.85.84,4.74,4.46,3.07,4.18,4.46,1.39.84,3.35,3.07-1.39,3.35,6.97-.84,6.41Z"/>
  <path id="014" data-bs-toggle="tooltip" data-bs-title="Paraíso" class="cls-1 estado" d="M379.78,99.57l8.36,6.69,4.46.28,2.51-2.23,2.23.28,2.51,2.51h2.79l2.79-2.23,2.23.56,8.36,4.18-5.58,5.3h-2.79l-1.67-2.51-1.95,4.46-5.3,4.18-6.13,1.12-2.51-1.67,1.12-2.23.56-2.79-1.67-1.95-2.51-.84-2.51-1.12h-2.51l-3.35.56-1.67-1.12-2.23-1.67-1.12.28-1.95-1.39-2.23,1.12-1.67-.56-2.79,1.12-3.07-.56-3.62-1.12-1.39,1.67h-2.23l-1.39,1.39-1.39.56-1.39,1.95-1.95,1.95v1.39l1.12,1.67,1.95,3.9,3.07,2.51,3.35,2.23,3.07-.28,4.46.28,3.35-.84,2.51-1.39.84-1.95,1.67-1.67,1.39,1.12-.84,3.62-2.51.84-1.12,2.23.56,1.67v1.39l-1.12.84-1.67,1.95,1.12,1.67,1.95.84-1.12,3.07,1.12.56,2.51-1.39,1.12-2.23-1.39-1.39-1.39-1.39.56-1.39,1.12-1.12,1.67-.28.56-1.12.84-2.23,1.39-1.67v-1.95l1.67-1.95.84.56,2.51-.56,1.12-1.39,4.74-1.39-2.23,3.35-2.79,1.39v2.79l-2.79,1.67-1.12,2.51,2.51,3.9,1.95,2.51v6.41l-2.51,2.23-1.95,5.3,2.23,2.51-2.79,3.62-5.02,2.23-1.12,3.35-3.35.84h-3.62l-3.9-1.67-2.23-2.79-1.39-2.51.56-2.79-1.12-3.07-3.62-3.62-3.62-.56-5.02-1.12h-4.74l-2.79,1.39-2.51-1.39-3.62,1.12-3.07,1.95-6.69.28-1.67,1.95-2.79-3.07-3.62.56,4.18,5.3-4.74.84-3.9,1.95-3.62-2.23.84-3.62,2.23-.28-2.79-1.67-2.51.56-1.39,1.95-1.39-1.95,1.39-3.35,3.9-1.67,2.23,2.79,2.79,2.23,2.51-3.07-.56-3.62-2.51-1.39,1.67-2.79-2.23-1.39.84-3.07.28-4.18-1.95-.84-3.07-.56-.56-2.79,1.12-1.67-1.39-1.12h-2.79l-6.13-5.3.28-3.35-5.58.84-6.13-2.79-.84-2.23-3.07-.28.28,2.23-3.62-.84-.56,2.23-3.07-.28-2.51-1.12-4.18.84-3.62,1.39-3.07,1.39-3.07-1.12h-3.62l-3.9,2.51,2.23,1.67,2.23,3.35v2.51l-8.36,4.74-6.41-3.35v-2.51l-3.9-2.79-4.18.28-.28,4.46-4.46,4.46-1.95-.56-.84-2.23,2.51-3.07-5.3-2.23,6.13-2.51,8.92-3.07,11.15-2.79,10.32-2.79,10.32-1.95,11.99-2.23,10.87-.84,12.27-2.23,16.17-.56,10.59.56,2.23-2.23,1.39-3.07,2.51,5.02-1.67,2.23,1.39,1.39,2.23.28,1.95-3.62-1.67-1.95,2.79-.28.84-2.23-2.79-1.67-.84-1.39,1.95-.84,2.79,1.39,1.39,2.79v2.23l-.84,1.95-.84,2.23.56,1.95,1.39,1.39,2.51-.84,1.12-1.39-.84-.56-2.23.56-.84-.84,1.12-3.07,1.39-2.79,11.99-.56h11.43l7.53-1.12Z"/>
  <path id="015" data-bs-toggle="tooltip" data-bs-title="Tacotalpa" class="cls-1 estado" d="M594.45,428.82l-3.62.28-6.97,10.87,2.23,1.95v5.02l-3.07,1.12,3.62,2.23-2.79,4.46-5.02,5.3-5.3,3.35h-4.46l-3.9,2.51-.84,5.02-5.3-4.46,1.67,11.43-2.79,4.18-.84,4.46,1.12,10.04-6.97,3.9-1.12,2.79h-3.35l-6.69,6.41-10.04,3.07-1.67-5.58-3.9-.56.28-10.04-8.64-6.97,1.39-5.3-7.53,3.9-7.81,1.12-.56,5.02-6.13-4.74-3.62-1.12v-2.23l3.9-2.23h5.02l3.62-1.95.84-4.74-3.62-5.85-1.67-7.81-2.23-2.51,3.35-3.07-1.39-6.13-2.79-2.79.56-3.35-5.58-4.74-3.07.28-2.23-1.67.56-3.9-3.35-4.74,2.51-5.02-1.67-2.51,2.23-3.9-5.85-.28-2.23-5.3-4.18-.28-6.41-5.3-1.39-5.02,3.62-1.39-.84-1.67-4.46-3.07-.84-3.07,1.95-3.9,3.07-1.67.28-6.13,5.3,6.13,3.9-.28v7.53l2.23,6.13,11.43.56.28-3.9,5.02,1.95,6.13-.28,6.69-4.74.28,4.18,9.48,3.62,5.3-3.35.28-3.35,3.9-1.12,1.67,5.85,1.39-3.9,3.9.28-.56-4.74,14.5,1.39,3.62.84,5.85-6.41.84,2.51,4.18.28v3.07l1.67,2.23h3.07l-.28,3.07-3.07,2.51.56,6.13,3.9.56,1.12-3.9,4.18-.56,2.51,3.62,4.18-.56,2.51,1.12,1.67,3.07,4.18.84v8.08l9.76-.56-6.69,8.36Z"/>
  <path id="016" data-bs-toggle="tooltip" data-bs-title="Teapa" class="cls-1 estado" d="M497.71,461.16l-1.12,3.35-4.46,2.51-2.51-4.46-1.12-7.81-10.32-3.9-3.35,3.62h-4.74l-1.12,1.95-3.62-1.39-6.13.28-2.51,8.36-4.74-2.79-3.62-8.64-1.12-2.23-4.18,4.18-1.12-3.9-4.18-3.62,5.3-2.51-3.62-2.23v-4.46l-4.46.28-2.23-2.79.28-8.08-2.79-.28-1.12-3.62-5.85-1.12-5.3-6.41-1.95-15.61,1.95-15.33-1.12-4.74-2.23-2.79-2.79-.56-2.23-2.79,1.12-8.08,2.79-2.79.84-5.85,4.46-1.12.84,3.62,4.46,1.12,3.35-1.12,2.79,3.07-3.07,6.13.28,2.51,8.64,4.74,3.62-.84-1.67-7.25-4.18-1.39,1.95-5.58,2.23,4.18,11.71-5.02,8.64,4.74.56-6.41,4.18-3.9,7.53.56v6.41l-4.74.84-3.62,1.39-1.12,2.23,5.02,5.58.28,11.15h3.07s-.28,6.13-.28,6.13l-3.07,1.67-1.95,3.9.84,3.07,4.46,3.07.84,1.67-3.62,1.39,1.39,5.02,6.41,5.3,4.18.28,2.23,5.3,5.85.28-2.23,3.9,1.67,2.51-2.51,5.02,3.35,4.74-.56,3.9,2.23,1.67,3.07-.28,5.58,4.74-.56,3.35,2.79,2.79,1.39,6.13-3.35,3.07Z"/>
  <path id="017" data-bs-toggle="tooltip" data-bs-title="Tenosique" class="cls-1 estado" d="M1017.16,515.39l166.34-15.06-6.85-65.03-14.37,2.05-2.05-16.43h-8.9l-1.37-6.85-15.06,5.48-15.74-1.37,2.05-4.79-14.37-9.58-.68-15.74h-6.16l-6.85-6.16-1.37,6.85-10.27,2.05-3.42,7.53-6.16-15.74-6.16,1.37-8.21-4.11-8.21,12.32-10.27,1.37-.68-13.69-5.48-7.53-17.11-3.42-6.16,5.48-17.11-8.21,4.11-6.16-2.05-3.42-15.74,3.42-1.37,6.16h-4.11l-4.11,8.21-3.42,2.05-2.74,9.58-4.79-.68-5.48,10.27,5.48,4.79,6.16,25.33-4.79,1.37-6.85,10.95,1.37,8.21-5.48,4.79,3.42,4.79,17.11,4.79v-8.21l6.85-.68v5.48l10.95,5.48,2.74-4.11,19.17,9.58,2.74-4.11,4.11-2.05,4.79,4.79,1.37,8.9,6.85,2.74,6.85,8.9-2.05,7.53-8.9-2.74-4.11,3.42-3.42,19.85Z"/>
</svg>