<?xml version="1.0" encoding="UTF-8"?>
<svg id="Baja_California_Sur" xmlns="http://www.w3.org/2000/svg" viewBox="0 0 1183.89 1061.52">
  <defs>
    <style>
      .cls-1, .cls-2 {
        fill-rule: evenodd;
      }

      .cls-1, .cls-2, .cls-3, .cls-4 {
        stroke: #000;
      }

      .cls-1, .cls-2, .cls-4 {
        fill: #c4f5ee;
      }

      .cls-1, .cls-3, .cls-4 {
        stroke-miterlimit: 7.37;
      }

      .cls-1, .cls-4 {
        stroke-width: .2px;
      }

      .cls-2 {
        stroke-width: .2px;
      }

      .cls-3 {
        fill: none;
      }
    </style>
  </defs>
  <g id="01">
    <path id="path6819" class="cls-2" d="M686.7,769.18c0,2.49.58-5.23-.53-7.46-1.25-2.5-2.13-2.89-2.13-6.4s-1.65-3.83-2.67-5.86c-1.37-2.74-2.92-1.29-3.73-5.33-.47-2.37-1.81-3.65-4.27-4.27-3.51-.88-4.42.38-6.4-1.6-1.72-1.72-3.76-3.62-5.33-4.8-1.57-1.18-2.55-3.08-3.73-4.27-2.23-2.23-2.28-3.2-5.87-3.2h-8c-3.53,0-5.14.18-8-.53-3.6-.9-4.52.79-5.87,2.13-1.06,1.06,5.91,2.96,6.4,3.2,3.17,1.58,5.21,2.17,5.87,4.8.32,1.28,5.31,2.38,6.4,3.2,2.18,1.64,5.42,2.2,7.46,3.73,1.95,1.46,3.63,2.88,5.33,3.73,1.77.89,3.93,5.24,4.8,6.4,1.54,2.05,3.26,3.76,5.33,4.8,1.53.76,4.22,3.57,5.87,4.8,2.29,1.72,4.55,2.41,5.87,3.73,1.93,1.93-1.53.36,3.2,3.2Z"/>
    <g id="g6872">
      <g id="g6868">
        <path id="path6866" class="cls-1" d="M676.52,340.94c-.79.19-1.62.37-2.42.4-.97.04-1.91-.06-2.71-.46-1.13-.57-1.47-1.34-1.79-1.67s-.57-.24-1.61.81c-.68.68-1.15,1.22-1.67,1.55s-1.14.39-2.25.12c-1.78-.44-2.17-1.17-2.53-1.44s-.67-.08-2.19,1.44c-1.17,1.17-3.27,2.3-4.78,3.05-2.4,1.2-3.15,1.11-5.12,2.59-1.72,1.29-2.69,1.77-3.92,2.99-.57.57-1.04.89-1.5.98s-.91-.07-1.27-.29c-.71-.44-1.23-1.31-1.55-1.96-.85-1.7-.68-4.01-1.27-5.18-.44-.87-.77-1.3-1.04-1.38s-.47.18-.63.58c-.33.78-.54,2.18-.92,2.94-.26.52-.63.7-1.04.63s-.88-.32-1.32-.69c-.88-.73-1.69-1.81-1.96-2.07-.57-.57-.97-.8-1.27-.81s-.47.2-.63.58c-.32.75-.52,2.07-1.09,3.22-.22.44-.6.56-1.04.46s-.94-.39-1.44-.75c-1-.72-1.98-1.68-2.3-1.84-1.05-.52-1.57-1.22-1.84-1.27s-.29.52-.29,2.53c0,.47-.24.69-.63.75s-.94-.01-1.5-.17c-1.11-.32-2.29-.9-2.59-.98-1.06-.26-1.67-.73-2.36-1.09s-1.45-.63-2.82-.63h-13.82c-.05,0-.89-.99-1.96-2.02s-2.33-2.09-3.17-2.3c-1.63-.41-2.89-.22-3.97-.23-.54,0-1.07-.07-1.55-.29s-.91-.58-1.38-1.21c-1.49-1.98-3.77-3.31-5.18-4.72-.65-.65-1.74-.87-2.94-.92s-2.5.06-3.51.06c-1.18,0-2.09-.73-2.76-1.04-.34-.16-.6-.2-.86,0s-.48.6-.69,1.44c-.29,1.15-.82,1.72-1.5,2.07s-1.54.54-2.42.98c-.08.04-4.66-1.5-5.59-1.73-1.97-.49-4.22-.46-6.45-.46-2.3,0-4.61,0-6.91,0-2.44,0-4.87,0-7.31,0-2.37,0-4.79-.07-6.91.46-.36.09-.6.39-.75.86s-.21,1.14-.23,1.78c-.03,1.29.12,2.71.12,3.4,0,.82-.1,1.25-.29,1.55s-.47.46-.75.58-.59.23-.86.46-.52.6-.69,1.27c-.35,1.42-.25,2.31-.29,3.05s-.18,1.33-.98,2.13c-.46.46-.88.59-1.27.52s-.74-.38-1.04-.75c-.6-.74-1.01-1.81-1.15-2.36-.34-1.37-.88-2.46-1.44-2.76-.28-.15-.59-.06-.86.23s-.54.82-.75,1.67c-.29,1.15-.89,1.71-1.61,1.96s-1.56.17-2.25.17c-1.14,0-1.68-.5-2.3-.92s-1.33-.73-2.88-.35c-1.24.31-1.44.96-1.67,1.21s-.47.1-1.79-1.21c-1.33-1.33-1.65-2.98-2.99-4.32-1.49-1.49-1.91-2.31-3.45-3.86-.64-.64-1.04-.82-1.32-.69s-.46.57-.52,1.15c-.11,1.15.12,2.83.12,3.8v7.77c0,1.11-.52,2.09-1.21,2.94s-1.56,1.56-2.25,2.25c-.5.5-.71.97-.75,1.44s.15.93.4,1.32c.51.79,1.41,1.39,2.07,1.55,1.66.42,2.3.61,2.53,1.21s.06,1.57.06,3.51c0,.92-1.08,1.54-1.73,2.19.57.14.98.29,1.67.46,3.42.85,4.58,1.68,5.36,4.78.59,2.34,4.18,3.42,5.87,4.26,2.03,1.02,3.74,4.25,3.74,6.97,0,3.88,2.45,3.75,4.78,3.17,2.76-.69.32-3.74,4.78-3.74,2.14,0,3.42,4.58,3.74,5.87.07.3,6.51,1.41,6.91,1.61.95.47,1.74,6.01,2.19,6.91,1.14,2.28,4.96,1,7.43,1.61,3.11.78-.06,3.74,4.26,3.74,2.39,0,1.59-4.25,2.13-6.39.87-3.47,5.96.52,8,1.04,2.78.69,3.2,1.59,4.84,3.22,2.28,2.28,3.08,3.99,3.69,6.39.6,2.42,3.51,3.28,5.36,3.74.88.22,1.4,6.93,1.61,8,.77.19,1.42.68,2.13,1.04,1.26.63.52,6.13.52,7.49,0,1.86,2.65,3.12,2.65,6.39,0,2.28,4.34-2.23,5.36-4.26.86-1.72-2.36-3.06-3.22-4.78-.14-.29,6.22,1.38,6.39,1.55,1.2,1.2,3.81,1.93,5.36,2.71,3.61,1.8-3.04,3.68-4.26,3.68-3.49,0-.3,4.75,0,5.35.93,1.86,3.72,3.2,4.78,4.26,1.6,1.6,2.6,3.01,4.26,4.26,2.08,1.56,2.82,3.51,3.74,5.35,1.14,2.29.99,4.63,2.13,6.91,1.09,2.18,2.54,4.24,3.22,6.97.68,2.71,1.89,4.88,3.17,7.43,1.21,2.42,2.57,4.87,3.22,7.49,1,3.99,2.65,4.03,2.65,8.52,0,2.83.05,5.39.58,8,.54,2.7-.03,5.29.52,7.49.75,2.99,2.65,4,2.65,7.43,0,2.07,2.65,4.83,2.65,8,0,3.45.02,6.81.58,10.13.42,2.53-.16,6.33-.58,8-.2.8-3.19,3.34-4.78,3.74-3.34.83.55,4.24,1.09,4.78,1.82,1.82,2.13,2.61,2.13,5.87,0,3.6.98,4.84-1.09,6.91-1.89,1.89-1.68,3.31-1.04,5.87.82,3.29,2.13,3.61,2.13,7.49,0,3.27-.14,5.53-1.09,7.43-1.16,2.32-.52,5.96-.52,8.58,0,3.74,1.25,4.45-2.13,5.3-4.06,1.02-1.5,3.63,1.04,4.26,3.43.86-.28,4.46-1.04,4.84-3.01,1.51-4.21-.05-6.39,2.13-1.87,1.87-2.13,2.49-2.13,5.87s-.14,6.14-1.09,8.52c-1.4,3.5-3.63,1.67-1.04,4.26,1.94,1.94,3.37.34,4.78,3.17.66,1.31-.44,2.95-1.09,4.26,1.37,2.75-1.36,6.47-2.13,8-1.2,2.41-4.26.96-4.26,5.35,0,4.12-1.51,3.27,1.09,5.87s-1.34,5.08-2.13,5.87c-1.28,1.28.77,4.86,0,6.39-1.28,2.57.42,2.13,3.74,2.13.07,0,2.11-6.9,2.13-6.97.57-2.29.52-4.83.52-7.43,0-2.91,1.26-4.46,1.61-5.87.61-2.43-2.66-2.7,1.04-6.39,3.35-3.35,3.74.32,3.74,3.17,0,2.67-2.7,1.63-1.09,4.84,1.57,3.14,3.77,1.62,2.71,5.87-.42,1.69-3.99-.3-.52,3.17,2.46,2.46-1.32,4.34-2.19,4.78-2.18,1.09,3.06,4.32-3.17,4.32-.34,0,3.63,2.69,4.26,3.17,1.66,1.25-.66,4.4-2.13,5.87-.02.02,7.24,2.48,2.65,4.78-2.92,1.46-.14,4.64.58,5.35,2.55,2.55-.93,3.74,4.26,3.74,2.24,0,1.55-5.14,1.55-6.97,0-3.07.58-5.61.58-8.52,0-1.81.72-5.65,1.04-6.91.95-3.81,3.74,3.99,3.74,5.3,0,3.69,1.95,3.41-.52,5.87-1.92,1.92.02,2.96-.58,5.35-.57,2.26,8.24,4.26,10.13,4.26s-.72-3.7-1.55-5.35c-1.23-2.46-2.09-4.95-2.71-7.43-.93-3.71,1.61-4.06,1.61-7.49s-5.24-3.47,0-4.78c1.55-.39,1.37,6.55,1.61,8,.52,3.11,3.17,3.7,3.17,8,0,3.85.44,4.69,2.71,6.39,1.63,1.22,1.94,3.56,3.17,4.78,2.03,2.03,4.28,2.67,6.39,4.78,2.51,2.51,2.77,4.38,5.36,6.97,1.62,1.62,3.52,2.88,5.36,4.26,2.54,1.9-2.44,3.67-3.22,4.26-2.35,1.76,3.48,5.42,4.78,6.39,2.38,1.79,4.57,3.26.58,4.26-1.5.38,3.32,4.9-.58,5.87-3.46.87-3.4,1.2-2.13,3.74.51,1.02,6.55,1.04,7.49,1.04,5.51,0,3.62.12,4.78-1.04,1.34-1.34-2.93-2.41-4.26-3.74-2.68-2.68,2.96-2.13,4.84-2.13,1.41,0,2.05-2.72,2.82-4.09l-.06-.29c.52-.7.71-1.92,1.55-2.13.79-.2,1.95-.32,2.99-.69s1.95-.96,2.19-1.9c.24-.96.56-1.49.92-1.84s.81-.5,1.27-.58.92-.08,1.44-.23,1.06-.42,1.61-.98c.82-.82,1.39-1.71,2.07-2.53s1.49-1.61,2.65-2.19c1.85-.93,4.5-.96,6.74-2.07.61-.3,1.64-1.39,2.19-2.65.27-.63.41-1.33.35-1.96s-.31-1.21-.92-1.67c-1.73-1.3-2.23-1.45-1.96-1.61s1.3-.32,2.48-1.5c.8-.8,1.8-2.14,2.82-2.88.51-.37,1.01-.6,1.5-.52s.97.5,1.38,1.32c1.06,2.12,1.46,2.59,1.9,2.36s.97-1.18,2.3-1.84c1.6-.8,3.37-2.33,5.18-3.68,1.59-1.19,3.97-2.4,6.79-3.11,1.21-.3,1.93-.82,2.65-1.38s1.47-1.17,2.59-1.73c1.48-.74,2.23-.76,3.11-.58s1.84.58,3.63.58c2.75,0,4.12.18,4.89-.06s.97-.94,1.38-2.59c.32-1.29.73-1.97,1.04-2.76s.52-1.68.52-3.45.1-2.85.35-3.8.61-1.79,1.21-2.99c.37-.73.76-1.8,1.32-2.59.28-.4.6-.72.98-.92s.86-.24,1.38-.12c1.04.26,2.46-.32,3.63-.92s2.03-1.25,2.07-1.21c.93.93,2.06,1.29,3.17,1.61s2.21.66,3.11,1.55c1.31,1.31,2.01,2.08,2.88,2.53s1.92.58,3.92.58c.9,0,1.49-.11,1.9-.35s.65-.59.75-1.04c.2-.89-.06-2.22-.06-3.86,0-2.48.09-3.06.52-2.88s1.21,1.13,2.65,1.84c.03.01,1.45.7,2.88,1.04.71.17,1.42.24,1.96.12s.86-.48.86-1.15c0-2.7-.52-5.25-.52-7.31,0-1.08-.87-2.39-1.5-3.57-.32-.59-.58-1.09-.63-1.55s.09-.85.58-1.09c.84-.42,1.52-1.22,2.25-1.9s1.48-1.27,2.42-1.27,1.53.18,1.96.46.68.66.92,1.09c.48.86.89,1.91,2.36,2.65,1.23.62,4.34.59,6.28,1.55l5.18,2.59c1.1.55,1.99.98,2.88.98s1.79-.41,2.88-1.5c.14-.14,1.05-1.53,1.67-2.99.31-.73.55-1.48.58-2.07s-.16-1.02-.69-1.15c-1.45-.36-2.07-.79-2.36-1.55s-.23-1.88-.23-3.68c0-1.14-.2-2.69-.12-3.97.04-.64.14-1.2.4-1.61s.66-.69,1.27-.69c1.3,0,3.26.65,4.89.98.81.16,1.54.24,2.07.12s.86-.44.86-1.09c0-1.06-.44-4.95-1.04-7.31-.27-1.1-1.08-2.01-1.27-2.65-.09-.32-.05-.52.29-.69s.98-.29,2.02-.29,2.11.91,3.11,1.61c.5.35.94.62,1.38.75s.91.07,1.27-.29c1.31-1.31,3.96-4.34,5.7-5.7-.55-1.78-.37-3.84-1.09-5.3-1.27-2.54-3.86-3.34-5.3-4.78-.76-.76.23-7.08,0-8-.25-1.01-.88-1.64-1.5-2.3h-10.08c-.99,0-1.68-.15-2.13-.46s-.68-.74-.81-1.27c-.26-1.06-.06-2.5-.4-3.86-.16-.66-4.65-3.44-5.07-3.86-.76-.76-.82-2.41-.69-4.09s.47-3.42.69-4.32c.14-.57.07-1.11-.17-1.61s-.62-.95-1.04-1.44c-.84-.97-1.85-1.98-2.13-3.11-.45-1.79-.68-2.99-.4-3.8.14-.4.44-.73.86-.92s1-.29,1.79-.29h3.92c.63,0,.71-.19.46-.58s-.82-.94-1.5-1.55c-1.36-1.23-3.15-2.75-3.45-3.97-.84-3.35-1.53-3.51-2.19-6.16-.3-1.2-.99-2.38-1.67-3.45s-1.4-2.05-1.73-2.71c-.56-1.12-1.35-1.91-2.3-2.53s-2.09-1.08-3.28-1.38c-1.31-.33-2.86-.31-4.43-.23s-3.14.23-4.49.23c-1.22,0-2.6.43-3.69,1.27-.54.42-1.05.98-1.38,1.61s-.52,1.35-.52,2.19c0,1.45-.06,2.63-.52,3.57s-1.31,1.64-2.82,2.02c-1.75.44-2.99.26-4.09.29s-2.05.26-3.17,1.38c-.41.41-1.03.37-1.73.12s-1.46-.73-2.25-1.32c-1.57-1.18-3.13-2.73-3.86-3.28-1.88-1.41-3.13-3.7-4.43-5.01-1.71-1.71-2.48-3.05-3.92-4.49-.84-.84-2.01-1.27-3.22-1.55s-2.45-.38-3.45-.63c-.15-.04-.66.61-1.5,1.09-.42.24-.91.42-1.5.46s-1.31-.08-2.07-.46-3.21-5.45-4.43-6.68c-1.21-1.21-2.06-1.56-2.59-2.19s-.75-1.54-.75-3.97c0-1.56-.4-2.47-1.15-3.11s-1.88-1.02-3.34-1.38c-1.88-.47-3.04-.23-3.92-.29-.44-.03-.8-.12-1.15-.4s-.71-.74-1.09-1.5c-.34-.69-.73-1.14-1.21-1.38s-1.06-.29-1.61-.17c-1.11.23-2.25,1.04-3.28,2.07-.57.57-1.06.75-1.5.63s-.86-.52-1.27-1.04c-.8-1.03-1.6-2.6-2.82-3.51-1.14-.85-1.48-2.01-1.79-3.22s-.55-2.45-1.55-3.45c-1.22-1.22-2.58-1.39-3.51-1.73-.46-.17-.85-.4-1.04-.81s-.18-1.02.06-1.96c.46-1.83.97-2.4.98-2.94s-.46-1.04-2.07-2.65c-1.71-1.71-2.48-3-3.92-4.43-.56-.56-.87-1.08-.92-1.55s.13-.92.46-1.32c.65-.81,1.92-1.48,3.22-2.13,1.63-.82,2.36-1.3,2.53-1.9s-.23-1.32-.86-2.59c-.56-1.11-1.58-1.87-2.65-2.48s-2.18-1.06-2.94-1.44c-.56-.28-.69-1.3-.69-2.59s.17-2.84.17-4.09c0-1.18.73-2.1,1.38-3.11.33-.5.63-1.03.81-1.61s.19-1.21,0-1.96c-.64-2.55-.52-5.52-.52-8.41,0-2.52-.66-5.27-1.15-7.25-.23-.9-1.12-1.96-2.07-2.88s-1.93-1.7-2.36-2.13c-.87-.87-1.12-2.11-1.09-3.34s.29-2.5.52-3.4c.39-1.56,1.29-2,1.79-2.42.25-.21.42-.4.35-.69s-.41-.7-1.04-1.32c-1.15-1.15-1.4-1.84-1.04-2.3s1.39-.69,2.76-1.04c1.42-.36,2.22-.72,2.71-1.44s.63-1.82.63-3.63c0-1.56-.29-2.63-.63-3.63s-.75-1.92-1.04-3.05c-.19-.74-3.79-2.51-4.49-3.92-1.27-2.53-2.22-4.43-3.34-6.68-.44-.88-.46-2.47-.35-4.09s.35-3.31.35-4.32c0-.95-.87-1.84-1.79-2.82s-1.88-2.03-2.13-3.28c-.16-.81.06-1.32.4-1.67s.81-.54,1.21-.75.7-.42.69-.81-.34-.97-1.21-1.84c-1.14-1.14-1.87-1.84-2.25-2.71s-.33-1.85.06-3.4c.15-.59,1.08-1.39,2.07-2.13s2-1.43,2.36-1.78c.7-.7,1.13-1.23,1.32-1.67s.12-.77-.06-1.09c-.36-.64-1.3-1.19-2.36-2.25-1.78-1.78-3.05-3.62-4.49-5.07-1.47-1.47-3.65-2.63-5.01-4.43-.71-.95-1.14-1.68-1.38-2.65s-.29-2.19-.29-4.09c0-.83.83-1.72,1.67-2.88.42-.58.84-1.24,1.15-1.96s.52-1.52.52-2.42c0-3.27.39-5.55,1.09-8.35.73-2.94,1.17-4.01,2.25-6.16.08-.17.39,0,.58,0l.52-.69c-.85-.7-1.48-1.41-2.25-2.19Z"/>
        <path id="path6821" class="cls-1" d="M618.45,549.52c.39.39-.65,6.88-1.07,8.53-.59,2.35-.42,4.86-1.07,7.46-.58,2.34-.92,5.28-1.6,8-.61,2.43-.98,4.98-1.6,7.46-.65,2.6-1.2,4.54-2.13,6.4-1.36,2.71-2.13,3.85-2.13,6.93,0,2.79.1,5.48-.53,8-.73,2.93-1.55,6.73-2.13,9.06-.43,1.73-2.05,3.65-3.2,4.8-1.37,1.37-1.72,4.21-2.13,5.86-.64,2.57-.55,5.41-1.07,7.46-.54,2.16-.53,4.66-.53,7.46,0,3.1-2.84,4.09-4.27,4.8-.51.26,0,7.13,0,8,0,2.89-5.16,5.42-6.93,5.86-1.54.39-1.07,6.66-1.07,8,0,2.84-2.05,2.88-2.67,5.33-.12.46-4.54.03-5.33,3.2-.66,2.64,1.49,6.43,2.67,8,1.55,2.07,3.38,2.85,5.33,4.8.87.87,1.07-5.54,1.07-5.86,0-1.64,3.64.09,4.8-1.07,2.16-2.16,2.97-1.83,4.8,0,1.98,1.98,3.55,2.13,6.93,2.13,1.42,0,3.01,4.95,3.73,6.4,1.1,2.19,1.07,4.27,1.07,6.93.53.71,1.07,1.42,1.6,2.13,1.1,1.47-5.31,1.99-5.87,2.13-3.24.81-2.95,2.11-1.6,4.8,1.84,3.68,5.33.63,5.33,5.86,0,.7,4.76,3.69,5.33,4.27,1.6,1.6.08,2.88-.53,5.33-.19.75,4.34,4.42,4.8,5.33.83,1.66,5.96,1.6,7.46,1.6,2.2,0-.05-4.84-1.6-6.4-1.87-1.87-3.2-2.67-3.2-5.86,0-1.85-3.13-3.66-4.27-4.8-2.01-2.01-2.84-3.33-4.8-4.8-2.41-1.81-2.45-2.51,0-3.73,2.46-1.23,3.63-1.93,4.8-4.27.84-1.69-2.93-2.4-4.27-3.73-.91-.91.43-5.54,0-6.4-.9-1.79-2.92-3.45-4.27-4.8-1.44-1.44-1.63-5.93-2.13-6.93-.53-1.06-6.42-1.09-7.46-2.13-1.94-1.94-3.11-2.62-5.33-3.73-.09-.04,4.61-2.13,5.87-2.13,2.45,0,2.13-3.66,2.13-5.86v-8c0-2.96.53-5.02.53-7.46,0-2.59,2.46-2.92,3.2-5.86.02-.08-1.07-3.26-1.07-5.86,0-2.02.78-5.3,1.6-6.93,1.5-3-.42-4.38,1.6-6.4,1-1,.71-5.49,1.07-6.93.44-1.75,2.03-2.78,2.67-5.33.68-2.74.52-4.73,1.07-6.93.85-3.42.26-4.44,2.13-6.93,1.43-1.91,2.75-2.73,4.8-4.27.69-.52,0-6.94,0-8v-16c0-2.22,1.6-3.06,1.6-6.4,0-4.19-.05-5.05-2.13-8.53Z"/>
      </g>
      <path id="path6825" class="cls-1" d="M854.12,590.57c0,1.79,3.73-2.03,3.73-5.33s.43-4.4,1.07-6.93c.85-3.4-5.09-.73-5.87-.53-1.75.44-1.07,5.19-1.07,6.93,0,4.24.11.8,2.13,5.86Z"/>
    </g>
  </g>
  <g id="02">
    <path id="path6861" class="cls-1" d="M691.84,338.75l.35.06c.3-.6.79-.8,1.38-.75s1.3.36,2.02.81c1.43.9,2.92,2.34,3.86,3.28,1.39,1.39,4.29,3.02,5.59,3.34,1.06.26,2.05-.3,3.05-.92s2.02-1.27,3.11-1.27c.79,0,1.11-1.11,1.67-1.67l.23-.12c-.27-.26-.53-.43-.81-.98-.94-1.88-.15-7.05-.52-8.52-.34-1.36-1.09-4.61-1.09-7.49,0-1.88,3.17-4.1,3.74-6.39.58-2.32-3.21-4.31-4.26-5.35-1.56-1.56-3.06-2.89-4.78-3.74-1.9-.95-3.73-2.63-5.36-4.26-1.6-1.6-2.61-3.54-4.26-4.78-2.22-1.66-3.14-3.72-4.78-5.35-1.44-1.44-3.85-1.9-5.36-2.65-2.4-1.2-2.61-1.99-3.74-4.26-.94-1.88-2.51-3.6-3.69-4.78-1.35-1.35-2.06-3.67-3.74-5.35-1.68-1.68-4.34-1.54-6.39-.52-3.46,1.73-4.73,1.14-2.71,3.17,1.97,1.97,2.9,2.9,5.36,5.35,1.13,1.13-.52,6.59-.52,8,0,3.12.05,4.89,1.55,6.39.82.82,0,7.32,0,8.52,0,3.82-.07,4.48,2.71,5.87s2.65,1.34,2.65,5.35c0,2.21,1.74,4.3,3.74,5.3,2.67,1.34,5.11.85,6.91,2.65,1.24,1.24,3.54,2.45,4.84,3.74.78.78-.58,4.16-.58,6.39,0,.43-.11.61-.17.92Z"/>
    <path id="path6813" class="cls-1" d="M277.71,45.16c-.36-.09-2.73,4.34-3.17,4.78-1.41,1.41-2.5,3.34-3.22,4.78-.83,1.66-3.17,2.66-4.26,3.74-1.61,1.61-2.99,3.56-4.26,4.84-1.85,1.85-2.35,3.38-3.74,4.78-1.81,1.81-2.69,2.53-2.13,4.78.67,2.68-.52,5.34-.52,8,0,3.05,5.44-.19,5.87-.52,2.14-1.6,2.53-2.36,5.3-3.74,2.71-1.35,4.84-2.48,4.84-5.87,0-1.93,2.65,2.74,2.65,4.84,0,3.05-.32,1.63,3.74,2.65,3.47.87,4.26.41,4.26,4.26,0,2.27-2.04,3.59-3.22,4.78-1.41,1.41-4.44,3.01-5.82,4.84-.95,1.27-1.48,2.84-2.19,4.26-1.15,2.29,4.32,3.83,4.32,6.39,0,1.61-2.05,2.5-1.61,4.26.26,1.05-1.86,3.72-.52,6.39.51,1.02,5.46,1.38,6.39,1.61,2.54.63,3.48,1.76,5.82-.58,1.48-1.48,4.86-1.6,6.97-2.13s-.27-4.89-2.13-5.82-3.39-3.03-3.74-3.74c-.91-1.81,2.84-3.02,3.74-4.84,1.75-3.5,3.71,5.72,3.74,5.87,1.22,4.9,1.11,1.43,0,5.87-1,3.99,4.71-.59,5.3-1.04,2.73-2.05-.37-3.93,4.26-1.61,2.4,1.2,2.31,2.85,5.87,3.74,4.43,1.11,3.46-.11,5.36,3.68,1.44,2.88-2.19,5.41-3.22,6.45-1.69,1.69-1.61,2.8-1.61,6.39s.44,5.29-2.65,3.74c-1.77-.89-3.49-3.03-4.78-4.32-.53-.53-6.02-1.37-6.39-1.55-1.77-.89-3.62-3.62-4.84-4.84-.89-.89-4.96,2.37-5.3,2.71-1.08,1.08,2.65,2.16,2.65,3.68,0,3.14-.11,5.11-1.04,6.97-.48.95-3.48,2.08-4.32,3.74-1.73,3.47-2.83,2.99-4.78,1.04-1.78-1.78-.98-5.08-.52-6.91.7-2.81,1.22-3.43,0-5.87-.28-.56-5.16-2.69-5.87-3.22-2.38-1.78-2.91-3.07-5.36-3.68-2.32-.58-4.96-1.99-6.39-2.71-2.4-1.2-3.19-3.19-4.78-4.78-1.98-1.98-2.37-2.25-5.36-3.74-2.43-1.22-2.14-3.82-2.65-5.87-.51-2.02,2.31-1.79,4.26-3.74.85-.85-3.41-3.93-3.74-4.26-2.7-2.7-2.05-2.58,1.61-4.78,3.37-2.02-.52-3.63-2.13-3.22-2.35.59-3.41,2.25-5.36,3.22-2.13,1.06-4.46,1.09-6.91,1.09-1.82,0-5.66,6.17-6.91,7.43-1.57,1.57-4.92,3.24-6.97,4.26-2.39,1.2-3.18,1.61-6.39,1.61-1.92,0-3.43-2.61-5.87-3.22-1-.25-6.39,1.09-8.52,1.09-3.2,0-6.42,0-9.62,0-2.83,0-3.39-1.61-6.91-1.61-4.12,0-4.04-.81-6.39-3.17-2.35-2.35-2.47-2.71-6.39-2.71h-9.1c-3.29,0-4.79-.53-6.39-2.13-2.01-2.01-2.55-2.65-5.87-2.65h-8.52c-3.14,0-2.41.73-3.17,3.74-.73,2.93-5.79-1.52-5.87-1.61-2.04-2.04-3.22-.95-3.22-4.78,0-4.11-1.3-3.79-3.17-4.26-2.02-.5-3.86,1.63-5.87,2.13-2.08.52,2.65,3.73,2.65,5.87,0,2.62-.06,5.58-.52,7.43-.34,1.35,2.83,1.3,3.17,2.65.97,3.87-2.08,2.15,2.19,5.35,1.94,1.45,1.55,3.82,1.55,6.91,0,1.39,4.99-2.68,5.36-3.17,1.93-2.58,7.83,3.6,8,3.74.61.49.52,7.25.52,8,0,1.33,4.49-2.06,4.78-3.22.24-.96,4.21-2.91,4.84-3.22,3.22-1.61,5.3,1.93,5.3,4.84,0,3.45-.1,4.26-3.69,4.26-4.26,0,.23,4.75,1.04,5.35,1.82,1.37,6.22-.78,7.49-1.09,1.16-.29,2.72,1.28,3.17,1.61,4.2-1.05,4.78,5.68,5.36,8,.65,2.61,0,5.94.52,8,.37,1.48,4.17,2.13,5.87,2.13,3.03,0,2.79,2.35,3.74,4.26,1.06,2.13,7.99,1.55,10.13,1.55,1.67,0,2.44,2.19,5.87,2.19,3.74,0,5.17,1.83,6.39,4.26,1.56,3.12-.3,5.51,2.13,7.95,1.57,1.57,4.64,2.19,7.43,2.19,1.86,0,3.82,5.51,4.26,6.39.88,1.76,0,6.48,0,8.52v17.04c0,3.35-1.93,1.24,1.09,4.26,2.15,2.15,4.4-1.12,5.36,2.71.55,2.2,5.72,6.39.52,6.39-5.59,0,1.8,3.58,3.17,4.26.95.48,1.71-1.93,4.84-2.71,3.25-.81,4.37,1.72,5.87,3.22,1.42,1.42,3.57,2.53,5.3,4.26,2.39,2.39.52,3.22,5.87,3.22,2.31,0,1.62-4.38,2.65-6.45,1.66-3.33,3.8-.47,5.36,1.09,2.74,2.74,3.49,3.65,6.91,5.35,2.3,1.15,6.09.86,7.49,1.55,3.49,1.75,5.99,5.71,9.04,8,1.94,1.46,4.96,3.14,6.45,4.26.69.52,0,6.95,0,8,0,1.65,3.7,2.67,4.78,3.74,1.72,1.72,2.88,2.13,5.87,2.13,4.03,0,3.8-1.31,4.26-3.17.21-.84,7.29,1.04,8,1.04,2.8,0,5.91,3,8,4.26,3.3,1.98,5.22,1.53,7.43,3.74.83.83.84.84,1.61,1.61,2.74,2.74,4.08,3.33,5.36,5.87,1.17,2.35.48,4.16,2.13,5.82,1.87,1.87,2.56,2.06,3.69,4.32,1.34,2.68,2.19,4.19,2.19,7.43,0,4.07.7,3.95,4.26,4.84,4.03,1.01,4.46-.69,6.39,3.17,1,1.99,1.99,4.05,3.17,6.39.8,1.6,4.95,3.38,6.39,3.74,3.27.82,2.93,2.27,5.87,3.74,2.79,1.4,3.98-2.37,4.84-3.22,3.12-3.12,1.83-2.5,6.39-4.78.28-.14.4-7.01.52-7.49.98-3.91-.17-5.3,4.78-5.3,3.8,0,3.06-1.97,4.84-3.74,2.48-2.48,6.28,2.59,7.43,3.74,2.44,2.44,1,3.74,5.87,3.74,3.01,0,3.63,3.3,4.26,5.82.16.63,6.23,2.05,6.39,2.13,2.52,1.26,3.87,1,5.87,0,2.25-1.12-1.04-4.91-1.04-7.43,0-2.72,2.39-2.91,3.74-4.26,2.27-2.27-.33-3.22,4.78-3.22,3.88,0,3.74-.48,3.74-4.26,0-2.68,2.13-3.73,2.13-7.49,0-2.55.08-5.69.52-7.43.44-1.76,1.74-4.58,2.65-6.39,1.44-2.87,4.26.32,4.26-4.84,0-2.94,1.66,5.92,3.74,8,1.23,1.23-1.04,6.23-1.04,8,0,2.55,2.13,2.16,2.13,5.87,0,3.14-2.13,1.88-2.13,5.87,0,2.81-2.74,2.74-4.26,4.26-1.99,1.99-1.24,3.27-4.26,4.78-2.54,1.27-4.33,1.16-5.87,2.71-1.89,1.89-3.88,2.99-1.09,3.68,4.67,1.17,3.34,5.24,6.97,1.61,2.06-2.06,1.15-3.51,3.69-4.78,2.42-1.21,3.32-1.73,5.87-1.09.67.17-.52,6.94-.52,7.49,0,2.77,1.27,5.01,1.61,6.39.67,2.69,3.92,3.86,6.91,5.35,2.72,1.36,2.05,3.99,2.65,6.39,1.25,4.99-1.71,2.02-3.69,1.04-3.01-1.51-4.92.49-6.97-1.55-1.99-1.99-2.57-3.49-3.17-5.87-.22-.88-3.7-3.18-4.26-3.74-1.63-1.63-3.01-2.31-4.84-3.22-2.52-1.26-3.7-1.02-5.3.58s-3.98,1.28-5.36,2.65c-2.56,2.56,4.48,2.82,5.87,3.17,3.13.78,4.59-.19,6.91,2.13,1.78,1.78,2.85,3.37,4.84,5.35l4.26,4.26c1.85,1.85,3.47,2.02,5.87,3.22,2.29,1.14,2.76,2.26,4.26,4.26,1.52,2.03,3.21,2.69,4.78,4.26,1.68,1.68,2.1,3.14,3.74,4.78,1.97,1.97,5.91,3.74,9.04,3.74,4.15,0,5.41.89,8.52,3.22.81.61,1.06,1.4,1.61,2.13,2.63,1.97,4.85,5.36,6.39,6.91,1.97,1.97,4.38,2.72,6.39,3.22,1.49.37,3.21,3.72,3.74,4.78,1.15,2.3,2.67,2.79,4.72,3.28.65-.65,1.73-1.27,1.73-2.19,0-1.95.17-2.92-.06-3.51s-.87-.79-2.53-1.21c-.67-.17-1.56-.77-2.07-1.55-.26-.39-.44-.85-.4-1.32s.25-.94.75-1.44c.69-.69,1.56-1.4,2.25-2.25s1.21-1.83,1.21-2.94v-7.77c0-.97-.23-2.65-.12-3.8.06-.58.24-1.02.52-1.15s.68.05,1.32.69c1.55,1.55,1.96,2.37,3.45,3.86,1.34,1.34,1.66,2.99,2.99,4.32,1.31,1.31,1.56,1.46,1.79,1.21s.43-.9,1.67-1.21c1.54-.39,2.26-.07,2.88.35s1.17.92,2.3.92c.69,0,1.52.08,2.25-.17s1.33-.81,1.61-1.96c.21-.85.48-1.38.75-1.67s.58-.38.86-.23c.56.3,1.1,1.4,1.44,2.76.14.55.55,1.62,1.15,2.36.3.37.65.68,1.04.75s.81-.06,1.27-.52c.8-.8.94-1.39.98-2.13s-.07-1.63.29-3.05c.17-.67.42-1.03.69-1.27s.58-.35.86-.46.56-.27.75-.58.29-.74.29-1.55c0-.69-.15-2.11-.12-3.4.02-.65.08-1.31.23-1.78s.38-.77.75-.86c2.12-.53,4.54-.46,6.91-.46,2.44,0,4.87,0,7.31,0,2.3,0,4.61,0,6.91,0,2.23,0,4.47-.03,6.45.46.92.23,5.51,1.77,5.59,1.73.88-.44,1.74-.62,2.42-.98s1.21-.92,1.5-2.07c.21-.84.43-1.24.69-1.44s.52-.16.86,0c.68.31,1.58,1.04,2.76,1.04,1.02,0,2.31-.11,3.51-.06s2.28.27,2.94.92c1.42,1.42,3.69,2.74,5.18,4.72.47.63.9.99,1.38,1.21s1.01.28,1.55.29c1.08.01,2.35-.18,3.97.23.84.21,2.1,1.28,3.17,2.3s1.9,2.02,1.96,2.02h13.82c1.37,0,2.14.27,2.82.63s1.3.83,2.36,1.09c.3.07,1.48.65,2.59.98.56.16,1.1.23,1.5.17s.63-.28.63-.75c0-2.01.01-2.58.29-2.53s.8.74,1.84,1.27c.32.16,1.31,1.13,2.3,1.84.5.36,1,.65,1.44.75s.82-.02,1.04-.46c.58-1.16.77-2.47,1.09-3.22.16-.38.33-.58.63-.58s.69.23,1.27.81c.27.27,1.08,1.34,1.96,2.07.44.37.91.63,1.32.69s.77-.11,1.04-.63c.38-.76.59-2.15.92-2.94.17-.39.37-.66.63-.58s.6.51,1.04,1.38c.59,1.18.42,3.48,1.27,5.18.33.65.84,1.51,1.55,1.96.36.22.81.38,1.27.29s.93-.41,1.5-.98c1.23-1.23,2.19-1.7,3.92-2.99,1.98-1.48,2.72-1.39,5.12-2.59,1.51-.75,3.61-1.88,4.78-3.05,1.52-1.52,1.83-1.71,2.19-1.44s.76,1,2.53,1.44c1.11.28,1.72.21,2.25-.12s.99-.87,1.67-1.55c1.04-1.04,1.29-1.14,1.61-.81s.65,1.1,1.79,1.67c.79.4,1.74.5,2.71.46.8-.03,1.63-.21,2.42-.4-.52-.54-1.27-1.21-1.55-1.5-2.23-2.23-2.13-3.5-2.13-6.91s-2.45-3.8-3.74-6.39c-.52-1.04-4.5-2.31-5.3-2.71-2.67-1.33-2.1-2.77-1.09-4.78,1.51-3.03-1.63-4.85-2.65-5.87-1.95-1.95-3.01-3.47-4.84-5.3-2.47-2.47.68-3.39,2.13-4.84,2.17-2.17,3.74.29,3.74-4.78,0-3.19.61-6.06,0-8.52-.47-1.9-3.03-3.41-3.74-4.84-1.22-2.44-2.85-1.95-3.69-5.3-.32-1.29-4.03-2.82-4.84-3.22-2.7-1.35-.14-3.88-3.74-4.78-2.11-.53-4.21-3.17-5.3-4.26-2.09-2.09-1.43-4.68-2.13-7.49-.68-2.73.16-5.67,1.04-7.43,1.47-2.95,3.63-1.16,2.71-4.84-.5-1.99,2.15-2.4,3.69-3.17,3.16-1.58-.98-4.2-2.13-5.35-1.93-1.93-2.82-2.82-4.26-4.26-1.65-1.65-4.19-1.61-6.91-1.61-3.54,0-5.43-.58-7.49-1.61-1.73-.86-3.36-3.84-5.3-5.3-2.16-1.62-3.52-2.51-6.39-3.22-2.69-.67-4.96-2.16-6.97-3.17-2.38-1.19-3.08-2.7-3.74-5.35-.25-1.01,5.71-4.66,5.87-4.78.96-.72-3.41-3.41-4.26-4.26-1.83-1.83-3.31-3.37-4.78-4.84-2.76-2.76.39-4.33-3.74-6.39-1.47-.74-3.93-4.45-4.78-5.3-2.61-2.61-4.11-4.04-5.87-6.39-.9-1.2,3.86-3.05,1.04-5.87-2.16-2.16-3.17-1.8-3.17-5.87,0-2.63.53-5.37,0-7.49-.74-2.95-1.61-3.86-1.61-7.43,0-2.77-1.85-3.89-3.74-4.84-2.2-1.1-3.29-2.16-5.3-3.17-2.43-1.22-3.22-2.12-5.36-4.26-1.54-1.54-4.39-1.09-6.91-1.09s-4.19-1.41-5.36-3.74c-1.43-2.86-2.94-4.26-5.87-4.26-3.31,0-4.37-.6-6.39-1.61-2.7-1.35-3.36-2.69-5.36-3.68-2.03-1.02-2.5-3.18-4.78-4.32-2.59-1.29-4.89-2.44-8-3.68-3.04-1.22-.83-3.02-3.17-5.35-2.15-2.15-3.82-3.32-4.84-5.35-1.05-2.11,3.97-5.17,4.84-6.91,1-1.99-4.3-1.65-5.87-3.22-1.63-1.63-2.89-2.31-4.26-3.68-1.84-1.84-2.93-3.06-4.26-4.84-1.64-2.19.42-5.89,1.04-7.43,1.1-2.74,3.92-.86.52-4.26-2.4-2.4-.89-2.28,1.09-4.26,2.08-2.08,1.42-4.64.52-6.45-.96-1.93-2.74-2.22-4.78-4.26l-210.63-2.13c-.71.36-1.42.74-2.13,1.09-2.1,1.05-3.2,1.62-4.26,3.74-1.54,3.07.45,4.33-1.61,6.39-2.29,2.29-4.95-1.48-5.87-2.71-.66-.88-.78-3.74-1.55-5.3-1.09-2.19-2.39-2.97-4.26-4.84-1.47-1.47,2.66-3.29,3.17-5.3.41-1.66,2.37-3.65,3.22-5.35,1.67-3.34-.66-4.79-2.71-5.3Z"/>
  </g>
  <g id="03">
    <path class="cls-1" d="M1033.81,887c-2.73-2.73,1.01-3.97,1.61-6.39.58-2.32-3.66-3.09-5.36-4.78-1.94-1.94.11-6.14.52-6.97,1.19-2.38,1.07-5.43.58-7.43-.71-2.82-3.47-6.12-5.35-8-1.92-1.91-3.65-2.92-5.3-3.74-2.68-1.34-2.71-1.34-2.71-5.35,0-2.28-3.69-2.65-5.3-4.26-1.69-1.69-2.82-2.92-3.74-4.78-1.26-2.51.81-5.59,1.61-6.39.79-.79,2.08-.82,3.17-1.09,3.31-3.31,2.03-3.76-1.04-5.3-2.06-1.03-1.61-4.59-1.61-6.97,0-2.93-6.69-1.24-7.49-1.04-2.95.74-3.39,3.03-4.26,4.78-1.17,2.34-3.17-.14-3.17,5.35,0,2.96-4.53-4.84-7.49-4.84-4.18,0-4.51.08-5.87-2.65-1.39-2.78,1.33-4.77,0-7.43-1.62-3.25-1.04-3.37-1.04-6.97,0-3.25-.42-5.14-2.19-6.91-1.76-1.76-3.27-2.72-5.3-3.22-2.92-.73-3.58-1.9-5.36-4.26-1.4-1.87-3.64-3.27-4.78-4.78-.99-1.32-4.69-2.04-5.87-3.22-1.77-1.77-4.04-3.98-5.36-5.3-1.33-1.33-3.45-1.89-4.78-3.22-1.17-1.17-3.87-2.1-5.3-3.17-1.99-1.49-2.19-3.79-3.22-5.87-1.25-2.49-3.75-3.46-5.36-4.26-1.02-.51-10.88,0-1.55,0,2.69,0-1.09,5.26-1.09,7.95,0,4.21-1.55,3.22-5.36,3.22s-4.78.07-4.78,3.74c0,1.32,2.65,1.88,2.65,5.3,0,2.92,1.09,4.22,1.09,7.49,0,2.79-3.52.55-4.26,4.26-.34,1.69,4.28,3.74-1.09,3.74-3.29,0,.85,2.99,1.61,3.74,1.05,1.04-.39,6.93-.52,7.43-.51,2.03-6.67,1.09-8.52,1.09-4.31,0-2.88,3.92-4.26-1.61-.79-3.15-1.71-4.92-2.71-6.91-.79-1.59,5.75-1.09,6.97-1.09,3.09,0,.19-3.81-1.61-4.26-2.33-.58-5.59,0-8,0-2.84,0-5.68,0-8.52,0-2.15,0-4.51-2.49-5.87-3.17-2.01-1.01-3.12-2.11-5.36-3.22-2.31-1.15-3.02-2.5-4.78-4.26-1.79-1.79-3.24-3.24-4.78-4.78-1.88-1.88-2.71-1.95-2.71-5.35,0-3.85-.73-3.95-2.65-5.87-1.92-1.92-2.41-2.93-4.26-4.78-1.72-1.72-1.61-4.05-1.61-6.97,0-2.98.63-5.44,0-7.95-.53-2.12,1.74-4.38,1.09-6.97-.5-2-2.45-3.23-3.22-4.78-.97-1.94-3.28-2.76-4.78-4.26-1.4-1.4-2.1-3.71-3.74-5.35-1.64-1.64,1.4-4.05,2.13-4.78,1.59-1.59-2.13-4.14-2.13-6.39,0-3.21,1.03-4.65,1.61-6.97.54-2.14,1.54-5.06,2.13-7.43.82-3.28,5.19-4.1,6.91-6.39,1.65-2.2,1.09-5.3,1.09-8,0-2.46,1.03-4.63,1.61-6.97.73-2.93,2.2-3.04.52-6.39-1.1-2.19-2.81-2.91-3.74-4.78-.91-1.82-.66-5.46-1.04-6.97-.12-.49-.74-.68-1.09-1.04.18-.89.34-1.76.52-2.65.68-3.38-.87-4.46-2.65-5.35-1.71-.86-4.32-2.58-5.87-3.74-2.19-1.64-1.61-4.09-1.61-6.91,0-3.07-1.13-4.36-2.65-5.87-1.63-1.63-2.11-3.19-4.26-4.26-.22-.11-.02,4.76-3.74,1.04-2.18-2.18-3.72-3.72-5.3-5.3-1.83-1.83-2.98-2.98-4.84-4.84-.43-.43-.35-1.07-.52-1.61-1.74,1.36-4.39,4.39-5.7,5.7-.36.36-.82.42-1.27.29-.45-.13-.88-.4-1.38-.75-1-.7-2.09-1.61-3.11-1.61s-1.68.12-2.02.29c-.33.17-.38.37-.29.69.19.64.99,1.55,1.27,2.65.59,2.37,1.04,6.25,1.04,7.31,0,.65-.33.97-.86,1.09-.53.12-1.26.05-2.07-.12-1.63-.33-3.59-.98-4.89-.98-.6,0-1.01.28-1.27.69s-.36.97-.4,1.61c-.09,1.28.12,2.83.12,3.97,0,1.81-.06,2.92.23,3.68s.91,1.19,2.36,1.55c.53.13.72.56.69,1.15-.03.59-.27,1.34-.58,2.07-.62,1.46-1.53,2.85-1.67,2.99-1.08,1.08-1.99,1.5-2.88,1.5-.89,0-1.78-.43-2.88-.98-1.77-.88-3.37-1.69-5.18-2.59-1.93-.97-5.04-.94-6.28-1.55-1.47-.73-1.88-1.79-2.36-2.65-.24-.43-.49-.82-.92-1.09s-1.05-.46-1.96-.46-1.69.59-2.42,1.27-1.4,1.48-2.25,1.9c-.48.24-.63.63-.58,1.09.06.46.32.97.63,1.55.63,1.18,1.5,2.49,1.5,3.57,0,2.06.52,4.61.52,7.31,0,.67-.33,1.02-.86,1.15s-1.24.05-1.96-.12c-1.43-.33-2.85-1.02-2.88-1.04-1.43-.72-2.23-1.66-2.65-1.84-.42-.18-.52.4-.52,2.88,0,1.64.26,2.96.06,3.86-.1.45-.33.8-.75,1.04-.41.23-1,.35-1.9.35-1.99,0-3.05-.12-3.92-.58-.87-.46-1.57-1.23-2.88-2.53-.9-.89-2-1.23-3.11-1.55-1.11-.33-2.23-.68-3.17-1.61-.04-.04-.91.61-2.07,1.21-1.16.6-2.58,1.18-3.63.92-.52-.13-1-.09-1.38.12-.38.2-.7.52-.98.92-.56.79-.96,1.86-1.32,2.59-.6,1.2-.97,2.04-1.21,2.99-.24.95-.35,2.04-.35,3.8,0,1.78-.21,2.66-.52,3.45s-.71,1.47-1.04,2.76c-.41,1.65-.61,2.35-1.38,2.59-.77.24-2.14.06-4.89.06-1.79,0-2.75-.39-3.63-.58-.88-.19-1.63-.16-3.11.58-1.12.56-1.87,1.16-2.59,1.73s-1.44,1.08-2.65,1.38c-2.82.71-5.2,1.92-6.79,3.11-1.81,1.36-3.58,2.89-5.18,3.68-1.33.67-1.86,1.61-2.3,1.84-.44.23-.84-.24-1.9-2.36-.41-.83-.89-1.24-1.38-1.32-.49-.09-.98.15-1.5.52-1.03.73-2.02,2.07-2.82,2.88-1.18,1.18-2.21,1.33-2.48,1.5-.27.16.22.31,1.96,1.61.62.46.86,1.04.92,1.67.06.63-.07,1.33-.35,1.96-.55,1.26-1.58,2.34-2.19,2.65-2.24,1.12-4.88,1.15-6.74,2.07-1.16.58-1.97,1.36-2.65,2.19-.68.82-1.26,1.72-2.07,2.53-.55.55-1.09.83-1.61.98s-.99.15-1.44.23c-.45.08-.91.23-1.27.58-.36.35-.68.89-.92,1.84-.24.94-1.14,1.53-2.19,1.9-1.05.37-2.21.49-2.99.69-.84.21-1.03,1.43-1.55,2.13l.06.29c.11-.2.23-.57.35-.69.9-.9,2.51,6.12,2.65,6.39,1.9,3.8,4.2-3.79,4.32-4.26.94-3.74.39-3.22,4.78-3.22.83,0,2.79,5.44,3.74,6.39,1.68,1.68,1.01,4.23,2.65,5.87.25.25.43.42.55.54.24.18.38.35,0,0-.23-.18-.55-.35-.55-.02.63.63,1.08,1.42,1.61,2.13,2.89,3.85-2.72,3.86,4.78,5.35,1.97.39-.59,4.15-1.04,6.39-.62,3.08,5.25.05,5.3,0,1.88-1.88,1.73-5.27,2.65-1.61.99,3.96.74,4.48,3.22,6.97,2.48,2.48,4.09,3.52,5.87,5.3,2.05,2.05,3.8,4.69,0,3.74-2.18-.55-4.28-.95-6.91-1.61-2.55-.64-4.1-1.76-5.87-2.65-1.83-.91-6.27.22-7.49.52-2.24.56-1.76-1.51-4.78,0-3.33,1.66-4.84-1.97-4.84,3.22,0,2.57,6.2,2.84,8,3.74,2.47,1.23,6.83-.51,8-1.09,1.34-.67,6.43,3.22,7.49,3.74,3.56,1.78,5.58,2.17,9.56,3.17,3.15.79,5.61.13,8.58,1.61,3.23,1.62,4.98,3.5,8,4.26,2.08.52,4.06,1.83,5.82,2.71,2.48,1.24,2.7,1.86,5.87,2.65,1.64.41,4.38,2.2,5.36,3.17,1.66,1.66,2.98,2.52,4.78,4.32,1.09,1.09,3.95,2.68,5.87,3.17,2.08.52,5.2,3.07,7.49,4.78,2.17,1.63,4.23,1.73,6.91,3.74,2.33,1.75,5.01,3.89,6.91,4.84,2.44,1.22,5.36,3.17,6.97,4.78,2.01,2.01,3.95,3.43,5.3,4.78,1.64,1.64,4.36,2.7,6.45,3.74,1.62.81,3.66,3.66,4.78,4.78,2.41,2.41,3.84,3.96,6.39,5.87,1.97,1.48,3.45,3.97,5.36,5.87,2.77,2.77,4.89,5.15,6.91,8.52,1.31,2.18,3.16,3.22,4.78,4.84,2.31,2.31,2.88,3.54,5.36,4.78,1.97.98,2.92,2.61,3.74,4.26,1.43,2.87,5.17,4.59,6.91,6.91,1.77,2.36,5.54,5.02,7.49,6.97,1.44,1.44,3.36,3.36,4.78,4.78,2.11,2.11,3.41,3.41,5.87,5.87,1.95,1.95,3.69,3.17,5.87,4.26,2.9,1.45,4.42,3.27,6.39,4.26,1.58.79,3.19,3.07,4.78,4.26,2.33,1.75,3.67,2.92,6.97,3.74,2.49.62,4.54.52,7.43.52,3.01,0,4.68,2.15,5.87,3.74,1.63,2.17,5.62,5.46,7.49,6.39.36.18.68.4,1.04.58,2.26,1.13,3.59,4.57,4.84,5.82,2.04,2.04,2.65,3.29,3.69,5.35.96,1.92,2.8,3.26,4.32,4.78,2.09,2.09,3.34,3.91,5.3,5.87,1.57,1.57,3.19,3.7,4.84,5.35,1.49,1.49,2.24,3.44,3.17,5.3,1.35,2.7,2.69,5.21,3.74,6.97,1.35,2.24,3.11,5.12,4.26,7.43,1.49,2.98,2.13,4.56,2.13,8,0,2.23.52,5.09.52,8s-.05,5.51.58,8c.79,3.16,2.56,5.56,3.17,8,.58,2.31,1.43,4.68,2.13,7.49.16.63.12,1.18.17,1.78l.12-.17h6.68c.8,0,1.3-.6,1.73-1.32s.78-1.59,1.21-2.02c.31-.31,1.63-.31,2.99-.23,1.37.08,2.79.23,3.28.23.42,0,.65-.26.81-.63.16-.37.23-.85.29-1.38.12-1.06.23-2.21.98-2.59.5-.25,1.08-.2,1.61.06.53.26,1.02.71,1.5,1.21.95.99,1.73,2.18,1.96,2.48.52.7,1.28,1.26,2.13,1.67s1.73.69,2.42.86c1.06.27,2.2.24,3.22.06,1.02-.19,1.94-.57,2.65-.92.61-.31.99-.62,1.15-.98.16-.36.14-.78,0-1.15-.27-.75-1-1.46-1.55-2.02-.83-.83-3.36-1.51-4.61-2.13-1.36-.68-1.96-1.33-2.13-2.02s.08-1.37.46-2.13c.34-.67.76-.98,1.15-1.09.39-.11.76-.06.98,0,.44.11.28.16-1.32-1.44-1.51-1.51-2.53-2.98-3.34-4.61-1.06-2.12-1.93-3.25-2.48-5.41-.12-.49.08-.68.46-.69.38,0,.96.19,1.61.46,1.3.55,2.84,1.45,3.74,1.9.75.38,1.31.49,1.73.4.42-.09.69-.42.86-.81.35-.78.35-1.96.35-2.94,0-2.11-.03-4.8-.4-6.28-.22-.89-.46-1.61-.58-2.36-.12-.75-.11-1.52.17-2.65.03-.12-3.22-3.22-3.34-3.34-.42-.42-.65-.99-.69-1.61-.04-.63.11-1.35.29-2.02.35-1.34.95-2.6,1.21-3.11.35-.71.3-1.19,0-1.55-.3-.37-.86-.61-1.5-.75-1.27-.27-2.86-.17-3.51-.17-1.25,0-2.05-.17-2.71-.52s-1.19-.84-1.9-1.55c-.31-.31-.28-.68-.06-1.04.22-.35.66-.71,1.15-1.04.98-.65,2.2-1.21,2.65-1.32.4-.1.73-1.2.92-2.36.2-1.16.28-2.37.35-2.65.21-.83.94-1.24,1.78-1.61.84-.38,1.82-.72,2.42-1.32.6-.6,1.38-.87,2.25-1.04.86-.16,1.79-.17,2.76-.17,1.42,0,2.41.17,3.28.52.87.35,1.65.85,2.59,1.55,1.81,1.36,2.84,3.3,4.15,4.61.88.88,1.72,1.3,2.65,1.5.93.2,1.96.17,3.22.17.52,0,.77-.27.86-.69.1-.42.07-1.02-.06-1.67-.26-1.31-.81-2.87-.81-3.92,0-.5-.16-.89-.46-1.15-.3-.27-.71-.4-1.15-.52-.89-.24-1.98-.25-2.59-.4-1.06-.27-1.37-.94-1.79-1.5-.41-.56-.9-1.04-2.36-1.04-2.53,0-3.76-.38-5.47-.81-.46-.11-.72-.4-.92-.75-.2-.35-.3-.78-.35-1.27-.08-.97.06-2.13.06-3.05,0-2.09,0-4.18,0-6.28,0-1.11-.53-2.14-1.09-3.17-.56-1.02-1.17-1.98-1.44-3.05-.58-2.32-1.27-2.85-1.27-5.47,0-.74.12-1.26.35-1.67s.55-.71.92-.86c.73-.31,1.7-.15,2.53.06.18.05,3.72,3.72,4.15,4.15.85.85,1.47,1.32,2.19,1.5.72.18,1.52.09,2.82-.23.34-.08,2.85-2.19,4.2-2.53.43-.11.7-.4.86-.81.17-.4.24-.87.35-1.38s.27-1.07.52-1.5c.25-.43.61-.77,1.21-.92.99-.25,1.96-.55,2.88-.75.92-.2,1.76-.25,2.53-.06.36.09.53.43.58.86.05.43,0,.94,0,1.5,0,.56.02,1.14.23,1.61.21.48.63.86,1.32,1.04,1,.25,1.66-.25,2.19-.92.53-.67.9-1.52,1.15-2.02.25-.51,1.56-.6,2.94-.58,1.38.02,2.83.17,3.34.17.63,0,1-.11,1.27-.35s.39-.57.52-.92c.26-.7.49-1.54,1.55-2.07,1.28-.64,2.06-.69,2.59-.92s.81-.65,1.15-2.02c.21-.85.36-1.55.75-2.07s1.02-.86,2.19-.86l.23-.12c-1.1-.76-2.12-1.6-3.05-2.53Z"/>
    <path class="cls-1" d="M996.49,779.32c2.28,2.28,2.67,3.69,2.67,6.93,0,2.55,1.38,4.04,2.67,5.33.87.87,1.46,4.74,2.13,5.86-.03-.11,7.74.94,9.06,1.6,2.52,1.26,2.17,1.87,5.33,2.67.7.18-1.07-5.91-1.07-6.93,0-1.65-2.39-4.38-3.2-6.4-1.28-3.19-1.26-3.28-3.2-5.86-1.4-1.86-1.83-3.43-3.2-4.8-1.68-1.68-1.56-3.69-3.2-5.33-1.96-1.96-2.82-3.35-4.27-4.8-1.68-1.68-1.6-4.28-1.6-6.93,0-3.3-1.62-3.78-2.67-5.86-2.2-4.41-2.99.24-3.73,3.2-.69,2.74.45,5.71,1.07,6.93.75,1.5,2.48,2.99,3.2,5.86.48,1.91-4.43,2.75-5.33,3.2-.45.23,4.65,4.65,5.33,5.33Z"/>
    <path class="cls-1" d="M911.71,725.46c0,2.92-.53,4.37-.53,7.46,0,4.12,1.96,3.91,4.8,3.2,2.94-.73,1.47,3.18,1.07,4.8-.6,2.38-5.51-1.42-3.2,3.2,1.22,2.45,2.67,2.06,2.67,5.86,0,2.89,4.89,1.13,6.4.53,1.63,1.63.42-5.84,2.67-6.4,2.55-.64,3.06-4.28,2.67-5.86-.78-3.14-4-1.6-1.6-6.4,1.53-3.05-.79-1.32-3.2-3.73-1.92-1.92-2.8-3.46-3.73-5.33-1.2-2.41-3.16-3.53-3.73-6.4-.53-2.65-3.55-3.24-5.87-2.67-1.49.37-1.35,5.41-1.6,6.4-.5,2.01,3.2,3.26,3.2,5.33Z"/>
    <path class="cls-1" d="M856.79,631.63c0,1.37,5.38,1.11,6.93,2.67,1.41,1.41,1.07,4.06,1.07,6.93,0,3.84.36,4.09,2.13,5.86,1.57,1.57,2.33,3.07,3.2,4.8,1.23,2.46,4.8.05,4.8,4.27,0,.89,1.11,1.32,1.85,1.89.09-.01.19.05.28.24-.08-.08-.18-.16-.28-.24-.7.09-1.24,5.19.28,5.57,3.19.8,3.57-1.97,4.8-3.2,1.29-1.29,5.62-.53,7.46-.53s-1.2-3.7-2.67-4.8c-2.21-1.66-2.62-2.97-3.2-5.86-.46-2.31-3.2-2.07-3.2-5.86v-8c0-2.6-2.43-3.81-4.27-4.27-2.28-.57-2.61-2.67-6.4-2.67-3.07,0-3.3-2.03-5.87-2.67-1.12-.28-3.51-4.04-4.27-4.8-1.19-1.19-1.92-2.77-2.67-4.27-1.03-2.07,0,4.62,0,6.93v8Z"/>
  </g>
  <path id="08" class="cls-1" d="M1036.86,889.54l-.23.12c-1.17,0-1.8.34-2.19.86s-.54,1.23-.75,2.07c-.34,1.36-.62,1.78-1.15,2.02s-1.31.28-2.59.92c-1.06.53-1.3,1.37-1.55,2.07-.13.35-.25.69-.52.92s-.64.35-1.27.35c-.51,0-1.96-.15-3.34-.17-1.38-.02-2.68.07-2.94.58-.25.49-.63,1.34-1.15,2.02-.53.67-1.19,1.17-2.19.92-.7-.17-1.11-.56-1.32-1.04-.21-.48-.23-1.05-.23-1.61,0-.56.05-1.06,0-1.5-.05-.43-.22-.77-.58-.86-.78-.19-1.61-.14-2.53.06-.92.2-1.89.5-2.88.75-.6.15-.96.5-1.21.92-.25.43-.41.99-.52,1.5-.11.51-.18.98-.35,1.38-.17.4-.43.7-.86.81-1.35.34-3.86,2.45-4.2,2.53-1.3.32-2.1.41-2.82.23-.72-.18-1.34-.65-2.19-1.5-.42-.42-3.97-4.1-4.15-4.15-.83-.21-1.8-.37-2.53-.06-.37.16-.7.46-.92.86s-.35.93-.35,1.67c0,2.62.69,3.15,1.27,5.47.27,1.07.88,2.03,1.44,3.05.56,1.02,1.09,2.06,1.09,3.17,0,2.09,0,4.19,0,6.28,0,.93-.14,2.09-.06,3.05.04.48.14.92.35,1.27.2.35.46.63.92.75,1.71.43,2.94.81,5.47.81,1.46,0,1.95.48,2.36,1.04.41.56.72,1.23,1.79,1.5.61.15,1.7.17,2.59.4.45.12.86.25,1.15.52.3.27.46.65.46,1.15,0,1.05.54,2.61.81,3.92.13.65.16,1.25.06,1.67-.1.42-.34.69-.86.69-1.26,0-2.3.02-3.22-.17-.93-.2-1.77-.61-2.65-1.5-1.3-1.3-2.33-3.25-4.15-4.61-.94-.71-1.72-1.21-2.59-1.55-.87-.35-1.86-.52-3.28-.52-.97,0-1.9,0-2.76.17-.86.16-1.65.44-2.25,1.04-.6.6-1.57.95-2.42,1.32-.84.38-1.58.79-1.79,1.61-.07.28-.15,1.49-.35,2.65s-.52,2.26-.92,2.36c-.45.11-1.66.67-2.65,1.32-.49.33-.93.68-1.15,1.04-.22.35-.25.72.06,1.04.71.71,1.24,1.21,1.9,1.55s1.46.52,2.71.52c.65,0,2.24-.1,3.51.17.63.14,1.19.38,1.5.75.3.37.35.84,0,1.55-.26.51-.86,1.77-1.21,3.11-.18.67-.33,1.39-.29,2.02.04.63.27,1.2.69,1.61.12.12,3.37,3.22,3.34,3.34-.28,1.13-.29,1.9-.17,2.65.12.75.35,1.47.58,2.36.37,1.48.4,4.16.4,6.28,0,.97,0,2.16-.35,2.94-.18.39-.45.72-.86.81-.42.09-.97-.03-1.73-.4-.91-.45-2.44-1.35-3.74-1.9-.65-.28-1.23-.47-1.61-.46s-.58.2-.46.69c.54,2.16,1.42,3.29,2.48,5.41.81,1.63,1.83,3.09,3.34,4.61,1.6,1.6,1.76,1.55,1.32,1.44-.22-.06-.59-.11-.98,0-.39.11-.81.42-1.15,1.09-.38.76-.63,1.45-.46,2.13s.77,1.33,2.13,2.02c1.24.62,3.78,1.3,4.61,2.13.56.56,1.28,1.26,1.55,2.02.14.38.16.79,0,1.15-.16.36-.54.67-1.15.98-.71.35-1.63.73-2.65.92-1.02.19-2.16.21-3.22-.06-.69-.17-1.57-.45-2.42-.86s-1.61-.97-2.13-1.67c-.23-.3-1.01-1.48-1.96-2.48-.47-.5-.97-.95-1.5-1.21-.53-.26-1.11-.31-1.61-.06-.75.38-.85,1.54-.98,2.59-.06.53-.13,1.01-.29,1.38-.16.37-.39.63-.81.63-.5,0-1.92-.15-3.28-.23-1.37-.08-2.68-.08-2.99.23-.43.43-.78,1.29-1.21,2.02-.43.73-.93,1.32-1.73,1.32h-6.68l-.12.17c.2,2.45-.07,4.76.92,6.74,1.03,2.07.67,5.71,1.55,7.49,1.71,3.42,3.68,6.56,4.84,11.17.54,2.15,2.96,5.61,4.26,6.91,1.89,1.89,2.49,4.1,4.78,6.39,1.63,1.63,2.37,2.95,3.74,4.32,1.78,1.78,3.52,2.13,6.39,2.13,2.32,0,5.23,1.04,8,1.04,2.62,0,5.64-.06,7.49-.52,2.09-.52,4.2-2.65,5.3-3.74,1.99-1.99,4.01-2.4,5.87-4.26,1.52-1.52,2.78-4.46,3.74-6.39,1.32-2.64,3.06-3.98,4.78-4.84,2.17-1.08,5.61-1.09,7.49-1.55,4.24-1.06,3.44-1.25,4.26-5.35.76-3.81.53-4.5,3.74-6.91,2.37-1.78,4.6-2.33,6.39-3.22,3.59-1.79,2.84-1.75,5.36-4.26.96-.96,6.48.52,7.95.52,3.14,0,2.7-2.62,4.32-4.78,1.85-2.47,3.63-3.58,4.78-5.87.92-1.84,3.76-3.24,4.78-4.26,1.74-1.74,2.93-2.35,4.84-4.26,2.5-2.5,1.53-4.21,3.17-7.49,1.11-2.21.52-5.53.52-8,0-2.89-.01-5.07.58-7.43.52-2.07,1.55-3.78,1.55-6.97,0-3.09.58-5.47.58-8.52,0-3.02,0-6.02,0-9.04,0-3.11-.2-5.18-1.09-6.97-.79-1.57-2.97-3.49-4.26-4.78-1.91-1.91-2.94-2.94-4.78-4.78-1.95-1.95,2.68-4.87,3.17-5.35,2.38-2.38-1.64-3.77-2.65-4.78-1.73-1.73-4.47-.66-6.39-3.22-1.64-2.18-3.4-2.3-6.39-1.55-3.15.79-4.68-1.33-6.39-2.19-2.46-1.23-4.07-3.54-6.97-4.26-3.54-.89-4.74-.79-6.91-3.68-.71-.95-1.81-1.6-2.82-2.3Z"/>
  <g id="09">
    <path id="path6859" class="cls-1" d="M678.77,343.12l-.52.69c-.19,0-.49-.17-.58,0-1.08,2.15-1.51,3.23-2.25,6.16-.7,2.8-1.09,5.08-1.09,8.35,0,.89-.2,1.7-.52,2.42s-.73,1.38-1.15,1.96c-.84,1.16-1.67,2.05-1.67,2.88,0,1.89.05,3.12.29,4.09s.67,1.7,1.38,2.65c1.36,1.81,3.54,2.96,5.01,4.43,1.45,1.44,2.71,3.29,4.49,5.07,1.06,1.06,2,1.6,2.36,2.25.18.32.25.66.06,1.09s-.63.97-1.32,1.67c-.36.36-1.37,1.05-2.36,1.78s-1.92,1.54-2.07,2.13c-.39,1.55-.43,2.53-.06,3.4s1.11,1.57,2.25,2.71c.87.87,1.2,1.46,1.21,1.84s-.29.6-.69.81-.86.4-1.21.75-.56.86-.4,1.67c.25,1.25,1.22,2.3,2.13,3.28s1.79,1.87,1.79,2.82c0,1.01-.24,2.7-.35,4.32s-.09,3.21.35,4.09c1.12,2.25,2.07,4.14,3.34,6.68.7,1.41,4.31,3.17,4.49,3.92.28,1.13.69,2.05,1.04,3.05s.63,2.07.63,3.63c0,1.81-.15,2.91-.63,3.63s-1.29,1.08-2.71,1.44c-1.37.34-2.4.57-2.76,1.04s-.12,1.15,1.04,2.3c.63.63.96,1.03,1.04,1.32s-.1.48-.35.69c-.49.41-1.4.86-1.79,2.42-.23.9-.5,2.17-.52,3.4s.22,2.47,1.09,3.34c.44.43,1.41,1.21,2.36,2.13s1.85,1.98,2.07,2.88c.49,1.98,1.15,4.74,1.15,7.25,0,2.89-.12,5.85.52,8.41.19.75.17,1.37,0,1.96s-.48,1.11-.81,1.61c-.65,1-1.38,1.93-1.38,3.11,0,1.25-.17,2.8-.17,4.09s.13,2.31.69,2.59c.76.38,1.87.84,2.94,1.44s2.09,1.36,2.65,2.48c.63,1.27,1.03,2,.86,2.59s-.9,1.08-2.53,1.9c-1.31.65-2.57,1.32-3.22,2.13-.33.41-.51.85-.46,1.32s.36.99.92,1.55c1.44,1.44,2.21,2.73,3.92,4.43,1.61,1.61,2.08,2.11,2.07,2.65s-.52,1.1-.98,2.94c-.23.94-.24,1.55-.06,1.96s.57.63,1.04.81c.93.34,2.29.51,3.51,1.73,1.01,1.01,1.25,2.24,1.55,3.45s.65,2.37,1.79,3.22c1.22.92,2.02,2.48,2.82,3.51.4.52.83.92,1.27,1.04s.93-.06,1.5-.63c1.03-1.03,2.18-1.85,3.28-2.07.55-.11,1.13-.06,1.61.17s.86.69,1.21,1.38c.38.76.74,1.22,1.09,1.5s.71.37,1.15.4c.88.06,2.03-.18,3.92.29,1.46.37,2.59.75,3.34,1.38s1.15,1.55,1.15,3.11c0,2.43.21,3.35.75,3.97s1.38.98,2.59,2.19c1.23,1.23,3.65,6.29,4.43,6.68s1.48.5,2.07.46,1.08-.22,1.5-.46c.84-.48,1.35-1.13,1.5-1.09,1,.25,2.24.35,3.45.63s2.39.72,3.22,1.55c1.44,1.44,2.21,2.79,3.92,4.49,1.31,1.31,2.55,3.6,4.43,5.01.73.55,2.29,2.1,3.86,3.28.78.59,1.55,1.07,2.25,1.32s1.32.29,1.73-.12c1.12-1.12,2.07-1.35,3.17-1.38s2.34.15,4.09-.29c1.52-.38,2.36-1.08,2.82-2.02s.52-2.12.52-3.57c0-.83.19-1.56.52-2.19s.84-1.19,1.38-1.61c1.09-.84,2.46-1.27,3.69-1.27,1.35,0,2.92-.15,4.49-.23s3.13-.1,4.43.23c1.2.3,2.33.76,3.28,1.38s1.74,1.42,2.3,2.53c.33.65,1.05,1.63,1.73,2.71s1.37,2.26,1.67,3.45c.66,2.65,1.35,2.81,2.19,6.16.31,1.23,2.1,2.74,3.45,3.97.68.61,1.24,1.17,1.5,1.55s.17.58-.46.58h-3.92c-.78,0-1.36.1-1.79.29s-.72.52-.86.92c-.28.81-.05,2.01.4,3.8.28,1.13,1.29,2.14,2.13,3.11.42.48.79.93,1.04,1.44s.31,1.05.17,1.61c-.22.9-.56,2.64-.69,4.32s-.07,3.33.69,4.09c.42.42,4.9,3.2,5.07,3.86.34,1.35.15,2.8.4,3.86.13.53.36.95.81,1.27s1.14.46,2.13.46h10.08c-.89-.96-1.83-1.9-2.25-3.57-.64-2.58-2.04-4.44-2.65-7.49-.3-1.51,3.15-5.84,3.69-6.91,1.64-3.29-2.09-4.56-3.69-5.35-2.71-1.35-3.17-2.55-4.84-4.78-2-2.66-2.87-3.96-4.78-5.87-1.11-1.11.28-7.38,0-8.52-.81-3.26-4.11-1.39-1.61-6.39,1.49-2.98,3.47-1.91,4.26-5.87.25-1.27-3.9-3.08-4.78-3.74-1.84-1.38-3.24-1.62-4.78-3.17-2.37-2.37-3.41-1.52-6.45,0s-5.15.1-7.43-1.61c-2.43-1.82-2.8-4.42-4.78-6.39-1.97-1.97-4.18-3.51-5.36-5.87-1.23-2.47.91-6.09,1.61-7.49.36-.72-4.09-4.55-4.84-5.3-1.66-1.66.58-6.26.58-8.52,0-1.38-3.96-3.96-4.84-4.84-1.33-1.33-3.45-1.83-4.78-3.17-1.35-1.35-4.62-3.12-5.87-3.74-2.06-1.03-3.67-3.87-3.17-5.87.66-2.64,7.36-2.74,2.13-5.35-1.96-.98-3.58-1.91-4.84-3.17-1.8-1.79-1.61-3.2-1.61-6.39,0-2.7-.05-6.12-.52-8-.49-1.98-1.74-3.53-2.65-5.35-1.06-2.13-.41-5.26,0-6.91.5-1.99,2.89-3.66,3.74-5.35,1.24-2.49,1.23-4.45,2.65-5.87.18-.71.34-1.42.52-2.13.74-2.98-1.07-5.24-1.61-7.43-.75-2.99,1.7-4.27-2.65-5.35-2.14-.54-2.65-3.87-2.65-5.87,0-3.49.03-4.75-1.61-6.39-2.1-2.1-3.94-1.16-2.13-4.78,1.73-3.46.84-4-1.04-5.87-2.25-2.25-2.71-2.77-2.71-6.39,0-1.54,3.04-4.99,3.74-6.39,1.41-2.81-1.27-5.01-2.13-5.87-1.26-1.26-4.7-1.54-5.87-2.13-2.75-1.38-3.23-2.64-1.04-4.84,1.69-1.69-2.89-4.44-3.22-4.78-1.91-1.91-2.59-2.48-3.74-4.78-.96-1.91,0-6.82,0-9.1,0-2.15,3.34-3.33,4.26-4.26,1.78-1.78,1.61-3.25,1.61-6.39s-3.67-3.57-5.3-3.17c-2.24.56-3.86,3.47-4.84,4.78-.48.63-4.6-3.56-4.78-3.74-1.85-1.85-3.19-.35-4.55-1.67l-.23.12c-.56.56-.88,1.67-1.67,1.67-1.09,0-2.11.64-3.11,1.27s-2,1.19-3.05.92c-1.29-.32-4.2-1.95-5.59-3.34-.94-.94-2.43-2.38-3.86-3.28-.72-.45-1.43-.75-2.02-.81s-1.08.15-1.38.75l-.35-.06c-.43,2.24-2.28,1.78-5.12,1.78-2.54,0-2.64,3.74-6.39,3.74-.36,0-1-.7-1.55-1.15Z"/>
    <path id="path6827" class="cls-1" d="M775.74,486.07c0,2.38-1.77-4.49-3.2-6.4-2.38-3.18,1.37-3.2,3.73-3.2,4.16,0-.9-4.1-1.6-4.8-2.73-2.73,3.42-4.91,4.27-5.33,2.22-1.11.4-2.84,2.67-5.86,2.12-2.83,3.2-.61,3.2-5.33,0-3.48-.94-5.1,2.13-5.86,2.7-.67,3.06,4.77,3.73,7.46.82,3.28,3.68,1.12,5.33-.53,2.62-2.62.42-5.44-1.07-6.93-2.48-2.48-.58-3.22-3.73-4.8-2.21-1.1.65-5.84,1.07-6.4,1.84-2.45,5.12-.95,3.2-4.8-1.46-2.91-5.98.59-6.93,1.07-2.93,1.46-.81,3.8-5.33,2.67-3.13-.78-3.85,1.9-6.93,2.67-2.47.62,0,4.74,0,6.4,0,4.07.22,4.69-3.2,6.4-2.39,1.2-1.6,5.53-1.6,6.93,0,2.89-2.67,4.49-2.67,8s1.9,4.8-2.67,4.8c-3.11,0-1.17,4.6-.53,5.86.45.9,3.17,3.18,4.27,3.73,3.57,1.78,1.84,5.07,5.87,4.27Z"/>
  </g>
</svg>