<?xml version="1.0" encoding="UTF-8"?>
<svg id="004" xmlns="http://www.w3.org/2000/svg" viewBox="0 0 1300 1300">
  <defs>
    <style>
      .cls-1 {
        fill: #c4f5ee;
        stroke: #646464;
        stroke-width: .94px;
      }

      .cls-1, .cls-2 {
        stroke-miterlimit: 15.12;
      }

      .cls-2 {
        fill: none;
        stroke: #000;
      }
    </style>
  </defs>
  <polygon id="Campeche" class="cls-2" points="865.43 1215.14 1278.29 1180.14 1272.57 1125.86 1254.71 1127.29 1252.57 1098.71 1267.57 1098 1266.14 1084.43 1274 1082.29 1274 1071.57 1251.86 1074.43 1249 1052.29 1269.71 1048 1269 1018.71 1262.57 1017.29 1262.57 990.86 1269 990.14 1264.71 953.71 1270.43 953 1266.86 928.71 1256.14 927.29 1243.29 810.14 1249.71 808.71 1242.67 761.33 1234.73 762.52 1242.67 761.33 1239.33 720.67 1240.67 661.33 1234 659.33 1225.33 545.33 1116 466 1103.33 448 1094 448 1085.33 433.33 1090.67 433.33 1090.67 419.33 1071.33 420.67 1043.33 382 1045.33 366 1040.67 365.33 1040.67 359.33 1034.67 360 1036.67 336 974.67 268 959.33 287.33 955.33 275.33 954 261.33 938.67 259.33 938.67 259.33 937.33 244 924.67 246 924.26 239.32 924.26 239.32 925.58 228.79 937.42 228.79 869 155.76 853.21 167.61 853.87 176.82 845.97 182.08 836.11 181.42 821.63 177.47 803.21 179.45 802.55 172.21 786.11 169.58 783.47 139.97 745.97 145.24 743.34 129.45 741.37 141.95 726.89 139.97 720.32 25.5 709.13 24.18 702.55 42.61 702.55 49.84 709.79 55.76 709.13 61.03 699.92 66.29 697.29 75.5 689.39 91.29 686.11 120.24 692.03 123.53 695.97 95.24 701.24 82.08 701.89 110.37 698.61 122.87 690.71 141.29 684.13 165.63 684.79 176.16 694.66 173.53 695.32 178.79 684.13 181.42 691.37 188.66 688.08 193.26 696.63 214.32 688.08 227.47 696.63 231.42 694.66 243.26 700.58 280.76 700.58 280.76 705.33 288.67 696.67 301.33 700 307.33 706.67 317.33 700.67 326.67 704.67 330 700 340 715.33 358 710.67 366 714 370.67 719.33 372 718.67 376.67 718.67 376.67 720 388 712.67 390.67 708 408 701.33 416 694 416 690 427.33 674.67 437.33 658.67 449.33 648 462 646 470.67 649.33 477.33 649.33 477.33 633.33 497.33 636.67 504 620.67 506.67 636 506 643.33 514 642.67 527.33 633.33 539.33 638.67 541.33 638.67 561.33 642.67 565.33 642 574 653.33 566.67 653.33 566.67 642 574 639.33 591.33 634.67 601.33 638.67 619.33 624 646 600 669.33 577.33 695.33 546 721.33 502 756.67 503.33 761.33 508.67 762.67 528 776 528 776 508.67 762.67 503.33 761.33 502 756.67 482.89 760.84 474.25 764.95 462.31 773.19 437.62 788.41 420.34 798.29 401.41 810.22 394.41 818.86 386.18 829.15 371.78 846.85 359.43 860.84 362.31 863.72 360.24 865.7 361.08 864.95 366.02 863.72 369.31 862.07 370.54 857.96 368.9 854.26 373.01 850.96 377.95 845.61 380.83 841.5 383.71 835.74 390.3 830.8 389.47 827.51 392.77 822.57 397.29 818.45 401.41 814.34 410.46 808.16 417.87 803.64 418.28 804.05 421.98 802.4 426.92 800.35 431.86 796.64 437.62 793.76 442.97 788 450.38 787.18 456.96 783.47 460.67 778.95 465.6 774.01 473.01 769.07 478.77 768.25 483.3 765.78 491.53 764.13 498.94 758.78 500.17 762.9 494.41 766.19 482.89 770.72 473.42 775.24 462.31 782.24 468.07 784.71 471.78 782.65 469.31 785.94 467.25 787.59 468.49 790.06 467.66 794.17 465.19 793.76 463.96 797.47 459.43 797.47 458.2 795 452.44 793.76 451.61 791.29 445.85 793.35 432.27 801.58 423.22 808.99 414.58 816.4 416.63 818.45 416.22 821.33 415.4 823.8 420.34 823.8 415.81 830.39 412.52 835.33 418.28 830.39 421.16 831.21 417.87 836.15 420.75 838.62 418.28 841.5 419.51 843.14 415.81 849.73 416.22 851.79 421.16 849.32 422.4 851.79 424.86 855.9 430.21 848.91 432.68 850.96 433.92 848.91 437.21 849.32 439.27 850.55 443.38 849.32 444.21 855.08 447.5 853.02 449.56 856.72 450.79 857.96 452.02 860.43 455.73 860.02 456.55 862.9 459.43 862.07 463.14 860.84 464.37 863.72 465.61 863.72 467.66 865.78 465.19 867.01 465.19 869.48 461.08 870.72 461.49 876.07 464.37 877.3 463.55 881.83 461.9 885.53 461.49 890.88 461.08 894.17 454.91 896.64 451.61 899.11 452.02 902.4 452.02 905.28 448.32 907.34 449.14 911.05 454.91 909.81 457.37 910.63 463.96 912.28 468.9 912.28 468.07 916.4 463.96 917.22 463.96 921.74 461.9 922.57 460.26 919.28 454.91 919.69 454.91 922.57 450.79 923.39 447.09 925.04 448.73 929.56 446.67 933.27 451.2 936.15 447.5 940.68 444.21 939.03 441.33 936.97 441.33 940.68 440.91 944.38 438.03 945.61 434.33 948.49 433.51 955.08 430.21 955.9 426.92 954.67 425.69 950.14 422.4 951.79 413.34 955.49 405.11 957.96 402.23 960.84 404.7 961.66 407.99 961.25 408.4 967.01 408.4 970.72 403.88 971.95 401 970.72 400.58 966.19 397.7 964.95 394.41 965.78 389.06 968.66 385.36 971.54 384.54 977.71 383.71 984.3 385.36 990.06 387.42 995.82 384.12 996.64 380.42 999.52 379.19 996.64 377.95 992.12 373.42 992.94 366.02 996.64 357.79 999.93 351.61 1000.76 344.62 1000.76 337.21 1001.17 333.92 1000.76 328.57 1000.35 326.1 1004.87 319.93 1004.46 317.05 1000.76 310.87 1002.4 303.88 1003.64 298.53 1000.35 293.18 997.47 284.12 996.23 280.42 996.64 275.07 995.82 270.67 994 268.9 998.7 269.31 1001.17 274.25 1001.58 280.01 1002.81 282.89 1008.99 280.42 1011.87 275.48 1011.87 270.95 1007.34 268.07 1004.46 264.78 1006.11 264.78 1008.99 268.07 1010.22 272.6 1013.51 276.72 1017.63 277.54 1022.57 278.77 1025.86 282.89 1027.09 286.59 1028.33 290.3 1034.91 294.82 1041.5 290.3 1038.62 287.42 1036.56 285.36 1034.5 283.71 1031.21 280.01 1031.62 277.13 1034.91 271.37 1035.74 268.9 1034.09 268.49 1029.15 265.19 1029.15 261.49 1028.33 259.43 1024.63 261.9 1020.51 266.84 1020.51 264.78 1016.81 261.9 1018.45 256.14 1016.4 253.26 1017.22 252.85 1020.51 253.67 1023.8 255.73 1028.74 257.79 1032.03 261.9 1036.56 261.08 1040.67 256.96 1044.38 257.79 1048.08 256.14 1053.02 256.14 1056.31 252.85 1058.37 251.61 1054.67 250.79 1050.55 247.5 1048.08 244.62 1046.85 244.62 1041.5 245.03 1038.21 247.91 1036.15 252.02 1037.79 253.67 1035.33 252.44 1033.68 253.67 1029.15 250.79 1026.68 248.73 1025.86 249.97 1022.16 251.2 1018.04 252.85 1013.93 256.67 1012.67 252 1010 243.33 1028 241.33 1042 241.33 1050 233.33 1059.33 224 1056.67 216.67 1064 226.67 1075.33 226.67 1075.33 216.67 1064 224 1056.67 233.33 1059.33 241.33 1050 241.33 1042 243.33 1028 252 1010 256.67 1012.67 261.33 1000 270.67 994 270.67 994 270.67 994 270.67 994 257.33 990 238 990 228.67 992 230 985.33 230 985.33 230 985.33 230 985.33 230 985.33 239.33 986 239.33 986 239.33 986 239.33 986 239.33 986 238.67 982 221.33 972.67 221.33 972.67 221.33 972.67 217.33 978.67 209.33 976.67 209.33 976.67 209.33 976.67 208.07 978 196.67 990 182 989.33 178 980 173.33 984.67 173.33 984.67 152.67 980 152 968 152 968 152 968 152 968 152 968 156.67 966 156.67 966 156.67 966 156.67 966 156.67 966 153.33 960 153.33 960 143.33 970 129.33 967.33 129.33 967.33 129.33 967.33 129.33 967.33 129.33 967.33 129.33 976 129.33 976 129.33 976 129.33 976 129.33 976 122 982.67 105.33 982 105.33 982 105.33 982 105.33 982 105.33 982 101.41 980.18 98.53 981.42 94.82 985.53 87 986.35 81.24 990.47 77.54 995 76.72 1004.05 72.19 1001.58 71.78 996.64 65.6 994.17 72.6 994.17 76.72 993.35 80.83 988 87.83 984.71 93.59 984.71 97.29 981.42 98.53 976.48 97.7 968.25 101 963.31 105.11 959.61 115.81 960.02 118.69 957.14 124.45 961.66 129.39 964.54 133.09 957.96 138.86 951.79 156.96 948.91 159.43 953.84 161.08 956.72 165.19 957.96 169.72 955.9 170.54 952.61 168.9 948.91 180.42 948.49 187.42 949.73 197.82 945.19 183.3 946.85 175.07 945.2 165.6 944.79 161.49 943.56 153.26 944.38 151.2 941.91 144.62 944.79 137.62 943.97 124.04 944.38 115.81 944.38 109.23 942.73 120.34 940.68 127.33 941.91 131.04 938.21 146.67 934.5 155.73 934.5 170.54 929.98 157.79 930.39 147.09 931.21 133.92 935.33 119.51 936.56 108.4 937.79 90.3 937.79 97.29 934.91 91.12 933.68 78.36 934.5 68.49 937.79 56.96 937.79 45.85 941.09 36.39 943.14 34.33 945.2 38.44 947.26 40.5 949.32 36.8 950.96 31.45 948.91 27.74 949.32 30.63 951.37 29.8 953.84 27.33 954.67 23.63 951.37 23.22 948.91 21.57 948.91 18.69 949.73 20.34 955.9 16.63 957.14 12.52 955.49 6.76 961.25 9.23 962.9 9.23 970.3 6.76 976.07 5.52 980.59 12.52 981 25.69 997.88 25.28 1006.93 24.45 1011.87 31.04 1024.63 35.56 1026.27 40.91 1025.86 47.5 1031.21 51.61 1032.44 49.97 1036.56 54.49 1039.03 66.84 1024.63 66.84 1030.39 70.13 1032.03 118.67 1026.69 118.67 1050.67 124 1061.33 122.67 1092 136.67 1113.33 131.33 1117.33 132 1134 137.33 1136 138.67 1146 148.67 1147.33 147.33 1154.67 162 1162.67 170.67 1156 182.67 1154.67 180 1164 186 1161.33 191.33 1172.67 198.67 1178 206 1174.67 210.67 1186.67 238.67 1184.67 250.67 1196.67 272 1196.67 290 1210.67 290.67 1202.67 299.33 1212 306 1200.67 306 1200.67 299.33 1212 298.12 1215.57 303.05 1218.45 309.23 1218.45 321.98 1225.04 338.86 1234.5 341.74 1232.86 342.56 1227.09 340.91 1221.33 346.26 1221.33 348.32 1219.28 346.67 1216.4 344.62 1210.63 342.97 1208.16 342.56 1201.99 344.62 1190.06 342.15 1179.36 344.21 1173.6 342.15 1169.48 343.38 1166.19 340.91 1164.54 340.5 1158.37 345.03 1153.02 343.38 1144.79 348.32 1140.67 346.67 1133.68 349.97 1132.44 353.67 1130.8 353.67 1128.33 349.56 1122.57 352.02 1120.51 356.55 1122.57 360.26 1120.51 367.25 1125.86 369.72 1122.98 370.13 1118.45 373.84 1114.34 378.77 1115.98 380.42 1120.51 375.07 1122.16 376.3 1130.8 380.83 1132.03 381.24 1136.15 388.65 1133.27 395.23 1139.85 401.82 1139.85 407.17 1146.44 416.22 1147.26 420.75 1143.97 425.28 1150.55 441.33 1148.08 450 1151.33 450 1151.33 452 1154 462 1154.67 479.33 1168.67 486.67 1178 495.33 1181.33 519.33 1178 526 1186 526.67 1174.67 533.33 1182.67 582.67 1178.67 584 1202 579.33 1204.67 580 1212.67 583.33 1214.67 585.33 1238.67 865.43 1215.14 865.43 1215.14"/>
  <path id="001" class="cls-1" d="M720.32,25.5l6.58,114.47,14.47,1.97,1.97-12.5,2.63,15.79,37.5-5.26,2.63,29.61,16.45,2.63.66,7.24,18.42-1.97,14.47,3.95,9.87.66,7.89-5.26-.66-9.21,15.79-11.84,68.42,73.03h-11.84l-1.32,10.53-35.53-7.24-27.98.74-7.68,17.8-7.8.11-1.86-4.59-12.58-.25-2.63,6.58-8.55.66,1.97,12.5-19.74-1.32.66-17.11-6.58-1.32,1.32,5.26-8.55-.66.66,7.24-43.42-1.32-45.39,24.34-5.92-37.5,1.97-11.84-8.55-3.95,8.55-13.16-8.55-21.05,3.29-4.61-7.24-7.24,11.18-2.63-.66-5.26-9.87,2.63-.66-10.53,6.58-24.34,7.89-18.42,3.29-12.5-.66-28.29-5.26,13.16-3.95,28.29-5.92-3.29,3.29-28.95,7.89-15.79,2.63-9.21,9.21-5.26.66-5.26-7.24-5.92v-7.24l6.58-18.42,11.18,1.32Z"/>
  <path id="002" class="cls-1" d="M869.33,434l8-1.33,4.67,4.67-17.33,38.67,19.33,4.67,11.33-13.33,8,9.33,2,11.33-10,4,6.67,14,2,18,17.33,2.67-.67,12-12,4.67.67,16,11.33,14,16.67,4.67,20.67-4.67,1.33,46.67h-16.67v-28l-80,4-3.33,54-17.33-3.33,3.33,13.33-8.67-.67-3.33-13.33-10.67-2-2,4-17.33.67-5.33-2.67-1.33-5.33h4.67v-13.33l-7.33.67-5.33-56.67-9.33-10-8.67,6,2,5.33,8-1.33,2.67,5.33-3.33,6.67-9.33-2-4.67,10-3.33-11.33h-7.33l-4-9.33v-8l5.33-17.33v-8l-12,8.67h-11.33l8-18.67-4.67-6-6,7.33h-18.67l-4-3.33,1.33-11.33.67-10.67-8.67,3.33-8.67-6.67-24.67-6,.67-18-8.67,6-10.67-4.67-3.33-6.67,2-8.67,10.67-12.67,16-12,15.33-10,4-11.33h7.33l6.67-8,4.67-17.33,7.33-2.67-1.33-11.33,24,.67,3.33-4.67h9.33l4,6.67h12.67l8.67,18.67,8.67,2,12.67-10.67,2,11.33-8,11.33,7.33,4.67,10-6.67,11.33,12.67-9.33,11.33h11.33l10-9.33,20,2.67,12.67,6.67Z"/>
  <path id="003" class="cls-1" d="M450,1151.33l-8.67-3.25-16.05,2.47-4.53-6.58-4.53,3.29-9.05-.82-5.35-6.58h-6.58l-6.58-6.58-7.41,2.88-.41-4.12-4.53-1.23-1.23-8.64,5.35-1.65-1.65-4.53-4.94-1.65-3.7,4.12-.41,4.53-2.47,2.88-7-5.35-3.7,2.06-4.53-2.06-2.47,2.06,4.12,5.76v2.47l-3.7,1.65-3.29,1.23,1.65,7-4.94,4.12,1.65,8.23-4.53,5.35.41,6.17,2.47,1.65-1.23,3.29,2.06,4.12-2.06,5.76,2.47,10.7-2.06,11.93.41,6.17,1.65,2.47,2.06,5.76,1.65,2.88-2.06,2.06h-5.35l1.65,5.76-.82,5.76-2.88,1.65-16.87-9.47-12.76-6.58h-6.17l-4.94-2.88,1.22-3.57,6.67-11.33-12.67-12-3.33-6.67,10,.67,28-5.33-.67-4.67-25.33,3.33-10.67-2.67-4.67-8,12-5.33v-15.33l-11.33-20h8.67l-8-12-7.33,6.67,3.33,23.33-3.33-.67-3.33-25.33-9.33-5.33-.67-9.33-14-26v-15.33l-8-1.33-18.67,16-10-11.33,7.33-7.33,9.33,2.67,8-9.33v-8l2-14,8.67-18,4.67,2.67-3.82,1.26-1.65,4.12-1.23,4.12-1.23,3.7,2.06.82,2.88,2.47-1.23,4.53,1.23,1.65-1.65,2.47-4.12-1.65-2.88,2.06-.41,3.29v5.35l2.88,1.23,3.29,2.47.82,4.12,1.23,3.7,3.29-2.06v-3.29l1.65-4.94-.82-3.7,4.12-3.7.82-4.12-4.12-4.53-2.06-3.29-2.06-4.94-.82-3.29.41-3.29,2.88-.82,5.76,2.06,2.88-1.65,2.06,3.7h-4.94l-2.47,4.12,2.06,3.7,3.7.82h3.29l.41,4.94,2.47,1.65,5.76-.82,2.88-3.29,3.7-.41,1.65,3.29,2.06,2.06,2.88,2.06,4.53,2.88-4.53-6.58-3.7-6.58-3.7-1.23-4.12-1.23-1.23-3.29-.82-4.94-4.12-4.12-4.53-3.29-3.29-1.23v-2.88l3.29-1.65,2.88,2.88,4.53,4.53h4.94l2.47-2.88-2.88-6.17-5.76-1.23-4.94-.41-.41-2.47,1.77-4.7-13.33-4h-19.33l-9.33,2,1.33-6.67,9.33.67-.67-4-17.33-9.33-4,6-8-2-12.67,13.33-14.67-.67-4-9.33-4.67,4.67-20.67-4.67-.67-12,4.67-2-3.33-6-10,10-14-2.67v8.67l-7.33,6.67-16.67-.67-3.33,14.67,16.67,19.33.02,10.68-48.56,5.35-3.29-1.65v-5.76l-12.35,14.4-4.53-2.47,1.65-4.12-4.12-1.23-6.58-5.35-5.35.41-4.53-1.65-6.58-12.76.82-4.94.41-9.05-13.17-16.87-7-.41,1.23-4.53,2.47-5.76v-7.41l-2.47-1.65,5.76-5.76,4.12,1.65,3.7-1.23-1.65-6.17,2.88-.82h1.65l.41,2.47,3.7,3.29,2.47-.82.82-2.47-2.88-2.06,3.7-.41,5.35,2.06,3.7-1.65-2.06-2.06-4.12-2.06,2.06-2.06,9.47-2.06,11.11-3.29h11.52l9.88-3.29,12.76-.82,6.17,1.23-7,2.88h18.11l11.11-1.23,14.4-1.23,13.17-4.12,10.7-.82,12.76-.41-14.81,4.53h-9.05l-15.64,3.7-3.7,3.7-7-1.23-11.11,2.06,6.58,1.65h8.23l13.58-.41,7,.82,6.58-2.88,2.06,2.47,8.23-.82,4.12,1.23,9.47.41,8.23,1.65,14.52-1.66-.95-6.62,4.6.14,5.79-3.17,7.45,1.8,6.73,3.7-8.51,2.17-6.85.51-8.27,1.46-10.4,4.54-7-1.23-11.52.41,1.65,3.7-.82,3.29-4.53,2.06-4.12-1.23-1.65-2.88-2.47-4.94-18.11,2.88-5.76,6.17-3.7,6.58-4.94-2.88-5.76-4.53-2.88,2.88-10.7-.41-4.12,3.7-3.29,4.94.82,8.23-1.23,4.94-3.7,3.29h-5.76l-7,3.29-4.12,5.35-4.12.82h-7l6.17,2.47.41,4.94,4.53,2.47.82-9.05,3.7-4.53,5.76-4.12,7.82-.82,3.7-4.12,2.88-1.23,3.93,1.82,16.67.67,7.33-6.67v-8.67l14,2.67,10-10,3.33,6-4.67,2,.67,12,20.67,4.67,4.67-4.67,4,9.33,14.67.67,12.67-13.33,8,2,4-6,17.33,9.33.67,4-9.33-.67-1.33,6.67,9.33-2h19.33l13.33,4,4.4,1.82,5.35.82,3.7-.41,9.05,1.23,5.35,2.88,5.35,3.29,7-1.23,6.17-1.65,2.88,3.7,6.17.41,2.47-4.53,5.35.41,3.29.41,7.41-.41h7l6.17-.82,8.23-3.29,7.41-3.7,4.53-.82,1.23,4.53,1.23,2.88,3.7-2.88,3.29-.82-2.06-5.76-1.65-5.76.82-6.58.82-6.17,3.7-2.88,5.35-2.88,3.29-.82,2.88,1.23.41,4.53,2.88,1.23,4.53-1.23v-3.7l-.41-5.76-3.29.41-2.47-.82,2.88-2.88,8.23-2.47,9.05-3.7,3.29-1.65,1.23,4.53,3.29,1.23,3.29-.82.82-6.58,3.7-2.88,2.88-1.23.41-3.7v-3.7l2.88,2.06,3.29,1.65,3.7-4.53-4.53-2.88,2.06-3.7-1.65-4.53,3.7-1.65,4.12-.82v-2.88l5.35-.41,1.65,3.29,2.06-.82v-4.53l4.12-.82.82-4.12h-4.94l-6.58-1.65-2.47-.82-5.76,1.23-.82-3.7,3.7-2.06v-2.88l-.41-3.29,3.29-2.47,6.17-2.47.41-3.29.41-5.35,1.65-3.7.82-4.53-2.88-1.23-.41-5.35,4.12-1.23v-2.47l2.47-1.23-2.06-2.06h-1.23l-1.23-2.88-3.7,1.23-2.88.82-.82-2.88-3.7.41-1.23-2.47-1.23-1.23-2.06-3.7-3.29,2.06-.82-5.76-4.12,1.23-2.06-1.23-3.29-.41-1.23,2.06-2.47-2.06-5.35,7-2.47-4.12-1.23-2.47-4.94,2.47-.41-2.06,3.7-6.58-1.23-1.65,2.47-2.88-2.88-2.47,3.29-4.94-2.88-.82-5.76,4.94,3.29-4.94,4.53-6.58h-4.94l.82-2.47.41-2.88-2.06-2.06,8.64-7.41,9.05-7.41,13.58-8.23,5.76-2.06.82,2.47,5.76,1.23,1.23,2.47h4.53l1.23-3.7,2.47.41.82-4.12-1.23-2.47,2.06-1.65,2.47-3.29-3.7,2.06-5.76-2.47,11.11-7,9.47-4.53,11.52-4.53,5.76-3.29-1.23-4.12-7.41,5.35-8.23,1.65-4.53,2.47-5.76.82-7.41,4.94-4.94,4.94-3.7,4.53-6.58,3.7-7.41.82-5.35,5.76-5.76,2.88-4.94,3.7-4.94,2.06-3.7,1.65-.41-.41-7.41,4.53-9.05,6.17-4.12,4.12-4.53,4.12-3.29,4.94.82,3.29-6.58,4.94-2.88,5.76-2.88,4.12-4.94,5.35-4.12,3.29,1.65,3.7-1.23,4.12-3.29,1.65-4.94,1.23-7,6.17,4.12,6.58-2.47-.41-5.76-5.76-2.88,2.47-3.7-2.47-20.58,11.93-3.29,4.94-7.41,4.94-3.7,5.35-1.65,4.53-4.53,1.23-4.53,2.06-2.47,3.29-3.7-4.12-8.64,6.58.41,4.53-3.7,2.06-5.35,4.12-4.12,7-5.35,1.23-6.58,1.65-4.53-2.47-2.88-.41v4.12l-4.53,4.12-4.94-3.29-3.29-2.88-4.94-2.06,2.06-3.7v-3.29l4.94-.41,5.76-2.06,6.58-.82,5.76-1.23,8.64-1.65,7.82-4.53,6.58-4.12,7.82-5.35,4.12-3.29,7.41-4.12,5.35-3.29,4.94-4.12,7-4.12,22.63-12.76,4.12-4.53,4.12-1.23,2.06,3.7,2.88,2.88,8.64-8.23-2.88-2.88,12.35-13.99,14.4-17.7,8.23-10.29,7-8.64,18.93-11.93,17.28-9.88,24.69-15.23,11.93-8.23,8.64-4.12,19.11-4.17,1.33,4.67,5.33,1.33,19.33,13.33,6-12.67,11.33,14-9.33,7.33,26,18.67,6.67-12,18,13.33-6,6.67-.67,8.67,18,10.67,8,.67,11.33,2-8,14,2.67,12,10.67.67-.67,6,8.67.67-2.67,10.67-6.67-.67-2,12-7.33,1.33v2.67l-10,4-5.33-.67-4,19.33-4.67,1.33-1.33-12.67-23.33,2,.67,8,4,.67.67,18-14.67,14,7.33,7.33-10,46.67,14,10.67,1.33,10-8,4v8.67l-18.67-2-.67-12-12,5.33,2.67,7.33-4.67,5.33h-7.33l6,10-7.33,8.67-10.67-2-8,6.67-1.33,20-26,6.67-3.33,6.67,10.67-.67-4,20,8.67,18.67-23.33,2v7.33l-6.67-.67-2.67,10Z"/>
  <path id="004" class="cls-1" d="M861.14,746.57l-1.14,5.43-14.67,14.67-2,23.33h-30v42h-56.67v92.67l-22.67-.67,6-40.67-57.33-5.33-31.33-12.67-2.67-9.33,5.33-14-7.33-3.33,6-4,2.67-14.67-6-2-11.33,13.33-13.33-13.33-1.33,4.67-8.67-8.67-9.33,5.33.67,12-8-.67-18-10.67.67-8.67,6-6.67-18-13.33-6.67,12-26-18.67,9.33-7.33-11.33-14-6,12.67-19.33-13.33-5.33-1.33-1.33-4.67,44-35.33,31.33-26,22.67-26,24-23.33,14.67-26.67-4-18,4.67-10,2.67-17.33,11.33-7.33,11.33,2-1.33-20,18.67-3.33-2-22,8.67,1.33,6-8.67,14.67-2-1.33,11.33,4,3.33h18.67l6-7.33,4.67,6-8,18.67h11.33l12-8.67v8l-5.33,17.33v8l4,9.33h7.33l3.33,11.33,4.67-10,9.33,2,3.33-6.67-2.67-5.33-8,1.33-2-5.33,8.67-6,9.33,10,5.33,56.67,7.33-.67v13.33h-4.67l1.33,5.33,5.33,2.67,17.33-.67,2-4,10.67,2,3.33,13.33,8.67.67-3.33-13.33,17.33,3.33,3.33-54,80-4v28l-1.33,28.67,4.67,80-29.86-7.1,2.86,10-57.86-5.71v20.71Z"/>
  <path id="005" class="cls-1" d="M936.67,298l.67,18-3.33,3.33,1.33,16-13.33-2-.67,21.33-5.33,10.67h8.67l1.33,10-36,5.33-4-2,6-4.67v-5.33h-3.33v-9.33l-9.33-.67,8.67-8-2.67-2h-14l-10,6.67-18-19.33-13.33,6.67-2.67,6h-8l-.67-24.67-32.67,2.67-12.67-6.67-4-7.33-20,2.67-2.67-6-10-4.67-6.67,7.33-10,.67-1.33-7.33-18.67,2-3.33-6,8.67-12.67-4.75-7.9,45.39-24.34,43.42,1.32-.66-7.24,8.55.66-1.32-5.26,6.58,1.32-.66,17.11,19.74,1.32-1.97-12.5,8.55-.66,2.63-6.58,12.58.25,1.86,4.59,7.8-.11,4.25,16.71,11.33-.67.67,14,12,.67.67-20,12-2v-5.33l10,2.67.67,10-9.33,17.33,28.67,4-4.67,11.33,17.33-1.33Z"/>
  <path id="006" class="cls-1" d="M938.67,259.33l15.33,2,1.33,14,4,12,15.33-19.33,62,68-2,24,6-.67v6l4.67.67-2,16,28,38.67,19.33-1.33v14h-5.33l8.67,14.67h9.33l12.67,18,109.33,79.33,8.67,114,6.67,2-1.33,59.33,3.33,40.67-31.33,4.67-3.33-16,.67-18-92.67,10.67-6-79.33-36.67-.67-.67,40-71.33,4,1.33,14.67-56.67,7.33-4.67-80,1.33-28.67h16.67l-1.33-46.67-20.67,4.67-16.67-4.67-11.33-14-.67-16,12-4.67.67-12-17.33-2.67-2-18-6.67-14,10-4-2-11.33-8-9.33-11.33,13.33-19.33-4.67,17.33-38.67-4.67-4.67-8,1.33,2.67-17.33,11.33,4,5.33,11.33h6l-.67-22.67-16.67.67v-22.67l16.67,3.33-4-10,36-5.33-1.33-10h-8.67l5.33-10.67.67-21.33,13.33,2-1.33-16,3.33-3.33-.67-18,2-38.67Z"/>
  <path id="007" class="cls-1" d="M118.67,1016l-16.67-19.33,3.33-14.67,16.67.67,7.33-6.67v-8.67l14,2.67,10-10,3.33,6-4.67,2,.67,12,20.67,4.67,4.67-4.67,4,9.33,14.67.67,12.67-13.33,8,2,4-6,17.33,9.33.67,4-9.33-.67-1.33,6.67,9.33-2h19.33l13.33,4-9.33,6-4.67,12.67-4.67-2.67-8.67,18-2,14v8l-8,9.33-9.33-2.67-7.33,7.33,10,11.33,18.67-16,8,1.33v15.33l10,20,4,6,.67,9.33,9.33,5.33,3.33,25.33,3.33.67-3.33-23.33,7.33-6.67,8,12h-8.67l11.33,20v15.33l-12,5.33,4.67,8,10.67,2.67,25.33-3.33.67,4.67-28,5.33-10-.67,3.33,6.67,12.67,12-6.67,11.33-8.67-9.33-.67,8-18-14h-21.33l-12-12-28,2-4.67-12-7.33,3.33-7.33-5.33-5.33-11.33-6,2.67,2.67-9.33-12,1.33-8.67,6.67-14.67-8,1.33-7.33-10-1.33-1.33-10-5.33-2-.67-16.67,5.33-4-14-21.33,1.33-30.67-5.33-10.67v-34.67Z"/>
  <path id="008" class="cls-1" d="M890,380.67l4,10-16.67-3.33v22.67l16.67-.67.67,22.67h-6l-5.33-11.33-11.33-4-2.67,17.33-12.67-6.67-20-2.67-10,9.33h-11.33l9.33-11.33-11.33-12.67-10,6.67-7.33-4.67,8-11.33-2-11.33-12.67,10.67-8.67-2-8.67-18.67h-12.67l-4-6.67h-9.33l-3.33,4.67-24-.67.67-4.67-5.33-1.33-3.33-4.67,4.67-8-15.33-18,4.67-10-4-3.33,6-9.33-6.67-10,18.67-2,1.33,7.33,10-.67,6.67-7.33,10,4.67,2.67,6,20-2.67,4,7.33,12.67,6.67,32.67-2.67.67,24.67h8l2.67-6,13.33-6.67,18,19.33,10-6.67h14l2.67,2-8.67,8,9.33.67v9.33h3.33v5.33l-6,4.67,4,2Z"/>
  <path id="009" class="cls-1" d="M854,1076.57l-14.67.76v-11.33l-53.33,3.33-14-103.33,2-18.67-21.33,1.33.67,18-29.33,2.67v-14l-8.67-.67-1.33,11.33-40.67,3.33,3.33,55.33-28.67-1.33v34.67l-13.33-.67-.67-16.67-27.33.67v10l-21.33,2.67,4-9.33,2.67-1.33,4.67-9.33-8-4-6,7.33h-8l-1.33-9.33-14.67-2.67,8-4-1.33-10-14-10.67,10-46.67-7.33-7.33,9.33-8.67,5.33-5.33-.67-18-4-.67-.67-8,23.33-2,1.33,12.67,4.67-1.33,4-19.33,5.33.67,10-4v-2.67l7.33-1.33,2-12,6.67.67,2.67-10.67-8.67-.67.67-6-10.67-.67-2.67-12,8-14-11.33-2-.67-12,9.33-5.33,8.67,8.67,1.33-4.67,13.33,13.33,11.33-13.33,6,2-2.67,14.67-6,4,7.33,3.33-5.33,14,2.67,9.33,31.33,12.67,57.33,5.33-6,40.67,22.67.67v-92.67h56.67v-42h30l2-23.33,14.67-14.67,1.14-5.43,35.71-1.43.71,12.86,11.43-.71-4.29,99.29-20,.71-1.43-5.71h-14.29l.71,15.71,9.29.71-.71,7.86-13.57.71v12.86h-7.14l-4.29,18.57,7.14,2.14-4.29,10.71,15-1.43v18.57l3.57.71.71,12.14,6.43.71.71,4.29,22.86-2.86-.71,29.29,6.43-.71,5,76.43-61.43,8.57-.71,10Z"/>
  <path id="010" class="cls-1" d="M1242.67,761.33l7.05,47.38-6.43,1.43,12.86,117.14,10.71,1.43,3.57,24.29-5.71.71,4.29,36.43-6.43.71v26.43l6.43,1.43.71,29.29-20.71,4.29,2.86,22.14,22.14-2.86v10.71l-7.86,2.14,1.43,13.57-15,.71,2.14,28.57,17.86-1.43,5.71,54.29-412.86,35-6.43-137.86-5-.71.71-10,61.43-8.57-5-76.43-6.43.71.71-29.29-22.86,2.86-.71-4.29-6.43-.71-.71-12.14-3.57-.71v-18.57l-15,1.43,4.29-10.71-7.14-2.14,4.29-18.57h7.14v-12.86l13.57-.71.71-7.86-9.29-.71-.71-15.71h14.29l1.43,5.71,20-.71,4.29-99.29-11.43.71-.71-12.86-35.71,1.43v-20.71l57.86,5.71-2.86-10,29.86,7.1,56.67-7.33-1.33-14.67,71.33-4,.67-40,36.67.67,6,79.33,92.67-10.67,2.67,34,31.33-4.67Z"/>
  <path id="011" class="cls-1" d="M865.43,1215.14l-280.1,23.52-2-24-3.33-2-.67-8,4.67-2.67-1.33-23.33-49.33,4-6.67-8-.67,11.33-6.67-8-24,3.33-8.67-3.33-7.33-9.33-17.33-14-10-.67-2-2.67,2.67-10,6.67.67v-7.33l23.33-2-8.67-18.67,4-20-10.67.67,3.33-6.67,26-6.67,1.33-20,8-6.67,10.67,2,7.33-8.67-6-10h7.33l4.67-5.33-2.67-7.33,12-5.33.67,12,18.67,2v-8.67l14.67,2.67,1.33,9.33h8l6-7.33,8,4-4.67,9.33-2.67,1.33-4,9.33,21.33-2.67v-10l27.33-.67.67,16.67,13.33.67v-34.67l28.67,1.33-3.33-55.33,40.67-3.33,1.33-11.33,8.67.67v14l29.33-2.67-.67-18,21.33-1.33-2,18.67,14,103.33,53.33-3.33v11.33l14.67-.76,5,.71,6.43,137.86Z"/>
  <path id="012" class="cls-1" d="M709.33,514l-14.67,2-6,8.67-8.67-1.33,2,22-18.67,3.33,1.33,20-11.33-2-11.33,7.33.67-8.67-4-4v-20l-5.33-2,9.33-12,.67-13.33-7.33-8-15.33.67,16-2.67-3.33-6.67,16-20,10.67,4.67,8.67-6-.67,18,24.67,6,8.67,6.67,8.67-3.33-.67,10.67Z"/>
  <path id="013" class="cls-1" d="M924.26,239.32l.4,6.68,12.67-2,1.33,15.33-2,38.67-17.33,1.33,4.67-11.33-28.67-4,9.33-17.33-.67-10-10-2.67v5.33l-12,2-.67,20-12-.67-.67-14-11.33.67-4.25-16.71,7.68-17.8,27.98-.74,35.53,7.24Z"/>
</svg>