<svg id="ico-s5" xmlns="http://www.w3.org/2000/svg" width="88.036" height="77.201" viewBox="0 0 88.036 77.201">
  <g id="Capa_1" data-name="Capa 1">
    <path id="Trazado_48" data-name="Trazado 48" d="M0,20.6l3.136-3.809a9.36,9.36,0,0,0,5.616,2.36c2.046,0,3-.777,3-2.016,0-1.329-1.27-1.762-3.256-2.6l-2.942-1.24C3.136,12.337.881,10.32.881,6.975.881,3.107,4.346,0,9.245,0a10.7,10.7,0,0,1,7.5,3.032L13.979,6.5A7.486,7.486,0,0,0,9.23,4.735c-1.7,0-2.763.687-2.763,1.927S7.931,8.424,9.977,9.23l2.883,1.15c2.853,1.15,4.555,3.062,4.555,6.318,0,3.838-3.226,7.229-8.8,7.229A12.947,12.947,0,0,1,0,20.611Z" fill="#fff"/>
    <path id="Trazado_49" data-name="Trazado 49" d="M12.97,20.582l2.509-3.465a7.009,7.009,0,0,0,4.749,2.2,3.28,3.28,0,0,0,3.629-3.6c0-2.39-1.389-3.57-3.375-3.57a5.121,5.121,0,0,0-3.256,1.12l-2.42-1.583L15.39.27H28.353V4.855H20.139L19.8,8.768a5.823,5.823,0,0,1,2.39-.463c3.9,0,7.184,2.3,7.184,7.288a8.07,8.07,0,0,1-8.334,8.185A10.981,10.981,0,0,1,12.97,20.582Z" transform="translate(6.401 0.133)" fill="#fff"/>
    <path id="Trazado_50" data-name="Trazado 50" d="M32.418,68A39,39,0,0,1,10.653,18.624l3.832,1.392A34.922,34.922,0,0,0,33.971,64.228Z" transform="translate(4.099 9.192)" fill="#fff"/>
    <path id="Trazado_51" data-name="Trazado 51" d="M74.43,32.75a37.214,37.214,0,0,0-9.824-19.259l.924-.947A39.027,39.027,0,0,0,26.32,3.386l1.256,3.88a34.945,34.945,0,0,1,35.107,8.2l1-1.029A36.247,36.247,0,0,1,64.616,63.5l.983.872A37.34,37.34,0,0,0,74.43,32.75Z" transform="translate(12.99 0.738)" fill="#fff"/>
    <path id="Trazado_52" data-name="Trazado 52" d="M29.353,34.367h.732v4.809a1.67,1.67,0,0,0,.9,1.494,1.421,1.421,0,0,0,1.583-.358l.045-.045,4.286-5.9H55.206a3.066,3.066,0,0,0,2.868-3.226V15.026A3.076,3.076,0,0,0,55.206,11.8H29.428a3.066,3.066,0,0,0-2.868,3.226V31.141a3.012,3.012,0,0,0,2.823,3.226ZM27.934,15.026a1.489,1.489,0,0,1,1.419-1.583H55.132a1.507,1.507,0,0,1,1.419,1.583V31.141a1.489,1.489,0,0,1-1.419,1.583H36.463a.7.7,0,0,0-.284.09c-.045.045-.075.045-.119.09s-.075.045-.119.09l-.045.045-4.451,6.123V33.531a.785.785,0,0,0-.732-.821H29.294a1.507,1.507,0,0,1-1.419-1.583V15.011h.045Z" transform="translate(13.108 5.824)" fill="#fff"/>
    <path id="Trazado_53" data-name="Trazado 53" d="M47.516,47.629a9.761,9.761,0,0,0,3.883-7.99c0-5.272-3.794-9.529-8.483-9.529s-8.483,4.272-8.483,9.529a9.876,9.876,0,0,0,3.794,7.946c-5.66.687-10.066,6.079-10.066,12.62a6.01,6.01,0,0,0,.045.866l.075,1.27H57.045l.075-1.27c0-.269.045-.538.045-.866-.075-6.362-4.242-11.62-9.663-12.576Zm-10.664-7.99c0-3.764,2.7-6.811,6.064-6.811s6.064,3.047,6.064,6.811-2.7,6.811-6.064,6.811S36.852,43.358,36.852,39.639ZM30.594,59.577c.284-5.227,4.167-9.394,8.887-9.394h6.348c4.735,0,8.6,4.182,8.887,9.394Z" transform="translate(13.898 14.86)" fill="#fff"/>
  </g>
</svg>
