<svg id="ico-denuncia" xmlns="http://www.w3.org/2000/svg" xmlns:xlink="http://www.w3.org/1999/xlink" width="324.488" height="218.842" viewBox="0 0 324.488 218.842">
  <defs>
    <linearGradient id="linear-gradient" x1="0.5" x2="0.5" y2="1" gradientUnits="objectBoundingBox">
      <stop offset="0" stop-color="#6d4061"/>
      <stop offset="0.542" stop-color="#6a4264"/>
      <stop offset="1" stop-color="#1d3546"/>
    </linearGradient>
    <linearGradient id="linear-gradient-7" x1="0.5" x2="0.5" y2="1" gradientUnits="objectBoundingBox">
      <stop offset="0" stop-color="#34c9b2"/>
      <stop offset="1" stop-color="#1a6559" stop-opacity="0.631"/>
    </linearGradient>
  </defs>
  <path id="Trazado_105" data-name="Trazado 105" d="M191.589,83.015a158.585,158.585,0,0,0,4.393,36.29,292.6,292.6,0,0,0,7.934,28.534A244.846,244.846,0,0,0,215.3,174.47c3.136,6.426,7.245,12.377,10.907,18.549a7.128,7.128,0,0,1,.452,1.217,3.617,3.617,0,0,1-1.337.068,154.252,154.252,0,0,0-27.07-6.8c-5.673-.951-11.407-1.644-17.143-2.076a161.315,161.315,0,0,0-17.547-.531c-13.071.443-26.084,1.575-38.834,4.774-2.607.654-5.323.891-7.9,1.627a2.372,2.372,0,0,1-2.926-1.111,81.73,81.73,0,0,1-10.936-20.82,80.119,80.119,0,0,1-4.2-30.115c.087-1.905.55-2.719,2.536-3.413,9.346-3.271,18.677-6.626,27.3-11.639,6.887-4.005,14.085-7.535,20.683-11.966,15.364-10.32,29.208-22.411,40.646-37.087A5.666,5.666,0,0,1,191,74.3a4.815,4.815,0,0,1,.562,1.476c.059,2.412.027,4.826.027,7.238" transform="translate(-41.5 -31.248)" fill="url(#linear-gradient)"/>
  <path id="Trazado_106" data-name="Trazado 106" d="M62.02,176.394c0,3.26-.112,6.524.02,9.779a90.036,90.036,0,0,0,7.067,32.4,78.85,78.85,0,0,0,11.645,19.619,7,7,0,0,1,.965,1.77c1,2.359.73,2.887-1.736,3.607-7.926,2.315-15.873,4.564-23.763,7-2.264.7-3.819.488-5.539-1.332A79.454,79.454,0,0,1,31.7,211.405a84.381,84.381,0,0,1-.987-24.382c.523-4.929,2.424-7.264,7.319-8.346,6.911-1.528,13.626-3.941,20.44-5.922,3.57-1.038,4.128-.5,3.548,3.639" transform="translate(-12.721 -72.463)" fill="url(#linear-gradient)"/>
  <path id="Trazado_110" data-name="Trazado 110" d="M.007,233.8c-.071-1.96.368-3.335,2.707-3.645a29.529,29.529,0,0,0,4.682-1.44c2.439-.759,2.89-.476,3.413,2.2a87.024,87.024,0,0,0,1.836,9.284c1.913,6.116,4.057,12.168,6.356,18.148.582,1.515.285,1.883-1,2.18a40.742,40.742,0,0,0-4.192.99c-4.3,1.487-4.341,1.558-6.594-2.432a55.409,55.409,0,0,1-6.626-21C.42,236.653.2,235.229.007,233.8" transform="translate(0 -96.037)" fill="url(#linear-gradient)"/>
  <path id="Trazado_148" data-name="Trazado 148" d="M468.978,4.248c-.688,1.045-1.154,2.387-2.1,3.089-7.6,5.656-15.3,11.18-22.945,16.769-3.02,2.206-5.952,4.536-9,6.7-2.383,1.691-4.69,1.485-6.109-.341-1.473-1.894-1.074-4.532,1.268-6.291,5.438-4.084,10.991-8.014,16.474-12.038,4.924-3.614,9.793-7.3,14.747-10.875A6.731,6.731,0,0,1,464.434.03c2.7-.262,4.1,1.186,4.543,4.218" transform="translate(-179.985 0)" fill="url(#linear-gradient)"/>
  <path id="Trazado_149" data-name="Trazado 149" d="M475.68,116.841c-3.519-.045-4.695-1.009-5.113-3.446a3.77,3.77,0,0,1,2.978-4.507c8.288-2.428,16.6-4.777,24.886-7.205,3.96-1.16,7.872-2.49,11.838-3.625,1.905-.545,3.963-1.308,5.762.237,2.767,2.376,1.814,5.983-2,7.372-2.066.752-4.255,1.159-6.369,1.786-7.544,2.24-15.075,4.527-22.622,6.757-3.391,1-6.808,1.916-9.356,2.63" transform="translate(-197.874 -40.955)" fill="url(#linear-gradient)"/>
  <path id="Trazado_150" data-name="Trazado 150" d="M481.559,204.072c9.619.681,19.872,1.438,30.131,2.114,2.787.184,5.59.144,8.386.18,2.107.027,3.362,1.319,4.239,2.983a3.105,3.105,0,0,1-1.1,4.107,9.881,9.881,0,0,1-5.087,1.24c-3.831-.078-7.651-.6-11.481-.859-8.916-.6-17.835-1.148-26.752-1.728-2.588-.169-3.835-1.48-3.873-4.013a4.217,4.217,0,0,1,4.031-4.022c.289-.016.579,0,1.508,0" transform="translate(-200.197 -85.823)" fill="url(#linear-gradient)"/>
  <path id="Trazado_151" data-name="Trazado 151" d="M343.118,92.3C329.355,45.369,304.947,11.208,288.6,16,275.158,19.943,271.355,49,278.077,85.29a23.725,23.725,0,1,1,12.869,44.993c14.043,35.883,33.655,59.736,47.492,55.679,16.347-4.794,18.443-46.726,4.681-93.66" transform="translate(-115.583 -6.541)" fill="url(#linear-gradient-7)"/>
  <path id="Trazado_152" data-name="Trazado 152" d="M174.419,280.147c1.321-.3,1.366,1.148,1.671,2.175,1.7,5.721,3.328,11.462,5.013,17.187q4.487,15.241,9.014,30.47c.906,3.049.936,3.076-2.1,3.979-2.767.822-5.613,1.42-8.313,2.419-1.99.736-2.5-.1-2.958-1.75C175.452,330,174.05,325.4,172.69,320.8q-5.4-18.289-10.809-36.575c-.49-1.653-.184-2.452,1.764-2.627,3.453-.309,6.881-.907,10.774-1.447" transform="translate(-67.995 -117.803)" fill="#34c9b2"/>
</svg>