<?xml version="1.0" encoding="UTF-8"?>
<svg id="Capa_1" xmlns="http://www.w3.org/2000/svg" xmlns:xlink="http://www.w3.org/1999/xlink" viewBox="0 0 290.89 208.51">
  <defs>
    <style>
      .cls-1 {
        fill: url(#Degradado_sin_nombre_6);
      }

      .cls-2 {
        fill: url(#Degradado_sin_nombre_6-4);
      }

      .cls-3 {
        fill: #34c9b2;
      }

      .cls-4 {
        fill: #fff;
      }

      .cls-5 {
        fill: url(#Degradado_sin_nombre_6-3);
      }

      .cls-6 {
        fill: #ced8db;
      }

      .cls-7 {
        fill: url(#Degradado_sin_nombre_7);
      }

      .cls-8 {
        fill: url(#Degradado_sin_nombre_7-2);
      }

      .cls-9 {
        fill: url(#Degradado_sin_nombre_6-2);
      }
    </style>
    <linearGradient id="Degradado_sin_nombre_7" data-name="Degradado sin nombre 7" x1="163.08" y1="42.33" x2="277.32" y2="42.33" gradientUnits="userSpaceOnUse">
      <stop offset="0" stop-color="#34c9b2"/>
      <stop offset="1" stop-color="#1a6559" stop-opacity=".63"/>
    </linearGradient>
    <linearGradient id="Degradado_sin_nombre_6" data-name="Degradado sin nombre 6" x1="163.44" y1="42.3" x2="174.24" y2="42.3" gradientUnits="userSpaceOnUse">
      <stop offset="0" stop-color="#6d4061"/>
      <stop offset=".54" stop-color="#6a4264"/>
      <stop offset="1" stop-color="#1d3546"/>
    </linearGradient>
    <linearGradient id="Degradado_sin_nombre_6-2" data-name="Degradado sin nombre 6" x1="163.46" y1="64.9" x2="168.68" y2="64.9" xlink:href="#Degradado_sin_nombre_6"/>
    <linearGradient id="Degradado_sin_nombre_7-2" data-name="Degradado sin nombre 7" x1="115.7" y1="151.63" x2="134.19" y2="151.63" gradientTransform="translate(276.57 26.69) rotate(90)" xlink:href="#Degradado_sin_nombre_7"/>
    <linearGradient id="Degradado_sin_nombre_6-3" data-name="Degradado sin nombre 6" x1="226.61" y1="109.71" x2="262.34" y2="109.71" xlink:href="#Degradado_sin_nombre_6"/>
    <linearGradient id="Degradado_sin_nombre_6-4" data-name="Degradado sin nombre 6" x1="8.17" y1="54.21" x2="147.91" y2="54.21" xlink:href="#Degradado_sin_nombre_6"/>
  </defs>
  <rect class="cls-4" x="162.75" y="10.29" width="114.57" height="17.02" rx="5.46" ry="5.46"/>
  <rect class="cls-7" x="163.08" y="33.82" width="114.23" height="17.02" rx="5.46" ry="5.46"/>
  <rect class="cls-6" x="163.08" y="56.34" width="114.23" height="17.02" rx="5.46" ry="5.46"/>
  <path class="cls-3" d="M168.56,10.5h73.51v16.55h-73.51c-3.04,0-5.5-2.47-5.5-5.5v-5.54c0-3.04,2.47-5.5,5.5-5.5Z"/>
  <path class="cls-1" d="M174.24,50.54h-2.43c-3.28,0-7.98-2.87-8.35-7.48v-.17c-.37-5.18,4.14-9,9.7-8.84h1.08v16.49Z"/>
  <path class="cls-9" d="M168.68,72.38l-.43-.25c-2.63-1.1-4.67-3.92-4.8-6.96v-.79c0-2.7,1.73-5.29,4.94-6.92l.28-.06v14.97Z"/>
  <g>
    <g>
      <path class="cls-3" d="M192.38,189.43l10.12-22.11h-13.28v-4.79h19.33v3.58l-10.19,23.33h-5.97Z"/>
      <path class="cls-3" d="M229.93,175.96c0,4.7-.77,8.19-2.31,10.45-1.54,2.26-3.92,3.39-7.12,3.39s-5.45-1.17-7.03-3.5-2.37-5.78-2.37-10.34.77-8.26,2.3-10.51,3.9-3.38,7.09-3.38,5.46,1.18,7.05,3.54c1.59,2.36,2.39,5.81,2.39,10.35ZM216.76,175.96c0,3.3.28,5.67.86,7.1.57,1.43,1.53,2.15,2.88,2.15s2.28-.73,2.87-2.17c.59-1.45.89-3.81.89-7.07s-.3-5.68-.89-7.12-1.55-2.16-2.86-2.16-2.3.72-2.88,2.16c-.58,1.44-.86,3.82-.86,7.12Z"/>
      <path class="cls-3" d="M245.24,170.52c0,2.83-.55,4.95-1.64,6.37-1.09,1.42-2.7,2.13-4.81,2.13s-3.59-.73-4.7-2.18c-1.11-1.46-1.66-3.56-1.66-6.31,0-5.61,2.12-8.42,6.36-8.42,2.08,0,3.67.73,4.78,2.18,1.11,1.46,1.67,3.53,1.67,6.24ZM237.08,170.56c0,1.56.14,2.72.41,3.49s.72,1.15,1.34,1.15c1.18,0,1.77-1.55,1.77-4.64s-.59-4.61-1.77-4.61c-.62,0-1.06.38-1.34,1.13-.28.75-.41,1.91-.41,3.47ZM257.92,162.49l-14.94,26.94h-4.42l14.94-26.94h4.42ZM264.11,181.28c0,2.81-.55,4.93-1.64,6.35-1.09,1.42-2.7,2.13-4.81,2.13s-3.59-.73-4.7-2.18c-1.11-1.46-1.66-3.55-1.66-6.29,0-5.61,2.12-8.42,6.36-8.42,2.08,0,3.67.73,4.78,2.18,1.11,1.46,1.67,3.53,1.67,6.24ZM255.95,181.32c0,1.56.14,2.72.42,3.49.28.77.72,1.15,1.33,1.15,1.18,0,1.77-1.55,1.77-4.64s-.59-4.61-1.77-4.61c-.61,0-1.06.38-1.33,1.13-.28.75-.42,1.91-.42,3.47Z"/>
    </g>
    <path class="cls-4" d="M3.82,142.38h51.36c3.25,0,5.89,2.64,5.89,5.89v6.72c0,3.25-2.64,5.89-5.89,5.89H3.82v-18.49h0Z" transform="translate(-119.18 184.08) rotate(-90)"/>
    <path class="cls-3" d="M34.49,142.38h51.36c3.25,0,5.89,2.64,5.89,5.89v6.72c0,3.25-2.64,5.89-5.89,5.89h-51.36v-18.49h0Z" transform="translate(-88.52 214.74) rotate(-90)"/>
    <path class="cls-6" d="M65.15,142.38h51.36c3.25,0,5.89,2.64,5.89,5.89v6.72c0,3.25-2.64,5.89-5.89,5.89h-51.36v-18.49h0Z" transform="translate(-57.86 245.4) rotate(-90)"/>
    <path class="cls-8" d="M96.32,142.38h51.36c3.25,0,5.89,2.64,5.89,5.89v6.72c0,3.25-2.64,5.89-5.89,5.89h-51.36v-18.49h0Z" transform="translate(-26.69 276.57) rotate(-90)"/>
    <path class="cls-3" d="M130.04,142.38h51.36c3.25,0,5.89,2.64,5.89,5.89v6.72c0,3.25-2.64,5.89-5.89,5.89h-51.36v-18.49h0Z" transform="translate(7.04 310.3) rotate(-90)"/>
    <rect class="cls-3" x="28.55" y="167.18" width="7.74" height="18.05" transform="translate(208.62 143.79) rotate(90)"/>
    <rect class="cls-3" x="79.37" y="156.67" width="28.76" height="18.05" transform="translate(259.44 71.95) rotate(90)"/>
    <rect class="cls-3" x="116.43" y="162.59" width="16.92" height="18.05" transform="translate(296.5 46.73) rotate(90)"/>
    <rect class="cls-6" x="145.13" y="157.6" width="27.06" height="17.89" transform="translate(325.21 7.88) rotate(90)"/>
    <rect class="cls-3" x="22.81" y="191.67" width="147.83" height="6.84" rx="2.27" ry="2.27"/>
    <path class="cls-3" d="M226.61,116.33l27.76,22.48c-12.42,15.33-34.91,17.7-50.25,5.28-15.33-12.42-17.7-34.91-5.28-50.25,6.89-8.51,16.81-13.24,27.76-13.24v35.73Z"/>
    <path class="cls-5" d="M226.61,116.33v-35.73c19.73,0,35.73,15.99,35.73,35.73,0,8.76-2.45,15.67-7.96,22.48l-27.76-22.48Z"/>
  </g>
  <path class="cls-2" d="M144.44,64.64l-12.44,3.25-4.57,5.4-1.46,6.63-3.18,3.79-8.88,3.23-8.88-5.23-5.41-7.69-3.57-12.41.56-12.35,1.96-2.21-2.51-4.22-8.28-5.05-6.12-11.58c-2.16-2.84-8.25-5.25-8.25-5.25l-4.58,3.67-9.1-11.02-7.43-4.09-18.32.59L13.31,0l-5.14,1.97s11.19,26.24,11.74,28.21c-1.29.33-2.6.56-3.92.67l-.25,2.6,9.3,7.35,2.16,6.68,3.5,4.61,4.01,7.73,3.76-3.18-2.33-6.43-9.41-22.03-4.48-9.12-1.86-7.02,3.27,1.19,27.12,43.92,6.88,14.71-1.01,6.14,22.39,18.17,19.42,8.06,2.37-.06c-.03-.15-.03-.3-.06-.45,1.36.69,3.08,1.1,4.95,1.1,1.67,0,3.22-.33,4.5-.89,0,0,0,0,0,0l5.22-.15,7.96,4.66,2.06-2.44-.54-4.24,5.37-.44,2.32-4.74s-3.63-3.89-3.73-4.89h.1l5.06-.59,4.23-5.49,3.19.68,6.43-19.12c-.03-.23-3.47-2.53-3.47-2.53Z"/>
</svg>