<?xml version="1.0" encoding="UTF-8"?>
<svg id="Capa_1" xmlns="http://www.w3.org/2000/svg" viewBox="0 0 16 16">
  <defs>
    <style>
      .cls-1 {
        fill: #824e80;
      }
    </style>
  </defs>
  <g id="icon_x5F_interconexion">
    <path class="cls-1" d="M14.14,9.89l-.53.55-.17.68-.37.39-1.02.33-1.02-.53-.62-.78-.41-1.27.06-1.26.23-.23-.29-.43-.95-.52-.7-1.18c-.25-.29-.95-.54-.95-.54l-.53.37-1.05-1.12-.86-.42-2.11.06L.47,2.96l-.59.2s1.29,2.68,1.35,2.88c-.15.03-.3.06-.45.07l-.03.27,1.07.75.25.68.4.47.46.79.43-.32-.27-.66-1.08-2.25-.52-.93-.21-.72.38.12,3.12,4.48.79,1.5-.12.63,2.58,1.85,2.24.82h.27c.51,0,.76-.01,1.08-.03l.6-.02.92.48.24-.25-.06-.43.62-.05.27-.48s-.42-.4-.43-.5h.01l.58-.06.49-.56.37.07.74-1.95s-.4-.26-.4-.26l-1.43.33Z"/>
  </g>
</svg>