<?xml version="1.0" encoding="UTF-8"?>
<svg id="Capa_2" data-name="Capa 2" xmlns="http://www.w3.org/2000/svg" xmlns:xlink="http://www.w3.org/1999/xlink" viewBox="0 0 728.08 680">
  <defs>
    <style>
      .cls-1 {
        fill: #a0616a;
      }

      .cls-1, .cls-2, .cls-3, .cls-4, .cls-5, .cls-6, .cls-7, .cls-8, .cls-9, .cls-10, .cls-11, .cls-12, .cls-13, .cls-14 {
        stroke-width: 0px;
      }

      .cls-2 {
        fill: url(#Degradado_sin_nombre_6-3);
      }

      .cls-3 {
        fill: #3f3d56;
      }

      .cls-4 {
        fill: #ffb8b8;
      }

      .cls-5 {
        fill: url(#Degradado_sin_nombre_6-5);
      }

      .cls-6 {
        fill: #2f2e41;
      }

      .cls-7 {
        fill: url(#Degradado_sin_nombre_6-2);
      }

      .cls-8 {
        fill: #e6e6e6;
      }

      .cls-9 {
        fill: url(#Degradado_sin_nombre_7);
      }

      .cls-10 {
        fill: url(#Degradado_sin_nombre_6-4);
      }

      .cls-11 {
        fill: url(#Degradado_sin_nombre_6-6);
      }

      .cls-12 {
        fill: #fff;
      }

      .cls-13 {
        fill: #34c9b2;
      }

      .cls-14 {
        fill: url(#Degradado_sin_nombre_6);
      }
    </style>
    <linearGradient id="Degradado_sin_nombre_6" data-name="Degradado sin nombre 6" x1="63" y1="733.57" x2="63" y2="731.99" gradientTransform="translate(-3120.6 38135.29) scale(55.23 -51.79)" gradientUnits="userSpaceOnUse">
      <stop offset="0" stop-color="#6d4061"/>
      <stop offset=".54" stop-color="#6a4264"/>
      <stop offset="1" stop-color="#1d3546"/>
    </linearGradient>
    <linearGradient id="Degradado_sin_nombre_6-2" data-name="Degradado sin nombre 6" x1="68.73" y1="731.35" x2="68.73" y2="729.77" gradientTransform="translate(-1236.01 25003.4) scale(22.44 -33.94)" xlink:href="#Degradado_sin_nombre_6"/>
    <linearGradient id="Degradado_sin_nombre_6-3" data-name="Degradado sin nombre 6" x1="85.09" y1="723.41" x2="85.09" y2="721.84" gradientTransform="translate(-424.63 10846.12) scale(8.32 -14.71)" xlink:href="#Degradado_sin_nombre_6"/>
    <linearGradient id="Degradado_sin_nombre_6-4" data-name="Degradado sin nombre 6" x1="74.62" y1="724.88" x2="74.62" y2="723.31" gradientTransform="translate(-861.04 10116.65) scale(17.69 -13.8)" xlink:href="#Degradado_sin_nombre_6"/>
    <linearGradient id="Degradado_sin_nombre_6-5" data-name="Degradado sin nombre 6" x1="72.86" y1="715.42" x2="72.86" y2="713.85" gradientTransform="translate(-1004.1 6157.45) scale(20.34 -8.4)" xlink:href="#Degradado_sin_nombre_6"/>
    <linearGradient id="Degradado_sin_nombre_6-6" data-name="Degradado sin nombre 6" x1="72.45" y1="694.18" x2="72.45" y2="692.61" gradientTransform="translate(-1041.3 3376.58) scale(21.01 -4.59)" xlink:href="#Degradado_sin_nombre_6"/>
    <linearGradient id="Degradado_sin_nombre_7" data-name="Degradado sin nombre 7" x1="66.52" y1="734.7" x2="66.52" y2="733.13" gradientTransform="translate(-1809.72 54278.34) scale(33.39 -73.72)" gradientUnits="userSpaceOnUse">
      <stop offset="0" stop-color="#34c9b2"/>
      <stop offset="1" stop-color="#1a6559" stop-opacity=".63"/>
    </linearGradient>
  </defs>
  <g id="Capa_1-2" data-name="Capa 1">
    <path id="a55003b0-0446-4784-a3ce-c481a9759178-454" class="cls-3" d="M554.81,161.59h-3.74V59.24C551.07,26.52,524.55,0,491.83,0h-216.85c-32.72,0-59.24,26.52-59.24,59.24v561.52c0,32.72,26.52,59.24,59.24,59.24h216.85c32.72,0,59.24-26.52,59.24-59.24V234.45h3.73v-72.86Z"/>
    <path id="ad332593-d547-4870-8db7-c0503e6eb31e-455" class="cls-8" d="M539,55.28v569.45c0,24.8-20.11,44.91-44.91,44.92h-221.31c-24.82,0-44.94-20.11-44.94-44.93V55.28c0-24.81,20.13-44.92,44.94-44.92h26.85c-4.44,10.93.81,23.39,11.74,27.84,2.55,1.04,5.27,1.57,8.02,1.57h126.17c11.8-.02,21.35-9.59,21.34-21.39,0-2.75-.54-5.47-1.58-8.02h28.76c24.8,0,44.91,20.11,44.92,44.91h0Z"/>
    <path class="cls-12" d="M515.42,639.93H251.42c-4.69,0-8.49-3.81-8.5-8.5V76.43c0-4.69,3.81-8.49,8.5-8.5h264c4.69,0,8.49,3.81,8.5,8.5v555c0,4.69-3.81,8.49-8.5,8.5Z"/>
    <rect id="af237293-25a3-489f-aa06-65014690590a" class="cls-8" x="316.61" y="279.75" width="125.84" height="9.46"/>
    <rect id="aecd757e-3845-4054-8ef4-8f3b3f1464a2" class="cls-8" x="299.77" y="304.33" width="158.37" height="9.46"/>
    <rect id="a528162f-764e-4523-bc44-e6dc5465582a" class="cls-8" x="271.87" y="374.92" width="223.09" height="223.09"/>
    <rect id="ac408f88-9589-4a26-924c-e7a781ddb6bc" class="cls-12" x="275.42" y="379.64" width="213.65" height="213.66"/>
    <g id="be47c712-4ebf-4226-80ad-879612060a69">
      <rect id="fadc6105-0551-448d-b6d9-436c4cc2b7a7" class="cls-8" x="319.42" y="400.27" width="83.17" height="6.25"/>
      <rect id="a4376b16-bb23-442d-8938-a8bcab4f190c" class="cls-13" x="319.42" y="418.62" width="128.43" height="6.25"/>
      <rect id="ae6c1c25-1aef-4af7-84b7-a99cb79f7c28" class="cls-8" x="320.75" y="436.1" width="104.67" height="6.25"/>
      <rect id="ad31106a-9486-4fc6-9d92-2d07f7dcec19" class="cls-8" x="319.42" y="455.27" width="61.1" height="6.25"/>
      <rect id="e133e237-d12d-4331-8259-b0f1b7869d24" class="cls-13" x="319.42" y="474" width="92.22" height="6.25"/>
      <rect id="a9ae706b-b3a6-4b62-8ac7-3a7f4cd0039d" class="cls-8" x="319.42" y="492.85" width="83.17" height="6.25"/>
      <rect id="bd082349-b2f2-4b60-be0c-57e16efac88b" class="cls-13" x="319.42" y="511.2" width="128.43" height="6.25"/>
      <rect id="ac0416d6-b57f-4bc7-9ff0-bb8dbe215cb0" class="cls-8" x="320.75" y="528.68" width="104.67" height="6.25"/>
      <rect id="b9702d28-4113-492b-a4b0-dbfc92fa702e" class="cls-8" x="319.42" y="547.86" width="61.1" height="6.25"/>
      <rect id="b41357bb-831a-49ca-b340-115c840dd657" class="cls-8" x="319.42" y="566.59" width="92.22" height="6.25"/>
    </g>
    <g id="ac800076-fc8a-4256-a3b5-70e496d28429">
      <path id="b13647df-bb42-4a02-9bba-2700c526619d-457" class="cls-4" d="M692.77,485.03c-2.5,4.38-8.08,5.9-12.46,3.39s-5.9-8.08-3.39-12.46h0s.04-.07.06-.11c.26-.43.54-.84.86-1.22l-7.68-54.74-.23-1.64-1.56-11.17-.23-1.61.85.04,14.88.68,3.99.18.5,10.19,2.83,57.29c3.04,2.91,3.7,7.53,1.58,11.17Z"/>
      <path id="bd34735f-0976-456f-8e45-072b5e73a744-458" class="cls-13" d="M669.97,418.75l18.9-1.73c2.04-.19,3.54-2,3.36-4.04l-3.5-39.29c-.7-7.88-7.66-13.7-15.54-13-7.88.7-13.7,7.66-13,15.54.02.27.06.54.1.81l5.67,38.54c.27,1.82,1.83,3.18,3.68,3.18.11,0,.23,0,.34-.02Z"/>
      <path id="f1e660d0-c56f-45d1-8714-e8a3d2ffeea9-459" class="cls-13" d="M684.29,387.01c3.93-11.12-.03-23.5-9.68-30.29-7.12-4.88-16.88-6.62-27.38,5.88-21,25-26.5,52.5-26.5,52.5l43,7s14.62-17.88,20.55-35.09Z"/>
      <path id="eb60bd0b-2a6b-4db7-a453-977e2259822f-460" class="cls-4" d="M614.75,668.61h-12.26l-5.83-47.29h18.09v47.29Z"/>
      <path id="b4104c20-2c86-47e7-b6b0-d86d656d7ba2-461" class="cls-6" d="M578.85,680h38.53v-14.89h-23.64c-8.22,0-14.89,6.67-14.89,14.89h0Z"/>
      <path id="b4e48bf6-fea8-48c3-adaa-b392a855b3f6-462" class="cls-4" d="M715.54,657.92l-11.64,3.85-20.38-43.07,17.18-5.68,14.84,44.9Z"/>
      <path id="a6908023-9fbc-48a9-be4c-c86c0c45ebaf-463" class="cls-6" d="M685.02,680l36.58-12.09-4.67-14.13-22.45,7.42c-7.81,2.58-12.04,11-9.46,18.81h0Z"/>
      <circle id="a687fec6-02c9-4040-89ed-32d713123e7f" class="cls-4" cx="657.3" cy="319.76" r="24.56"/>
      <path id="badfc474-5669-4d61-bc01-f70cc92406de-464" class="cls-6" d="M635.8,655.45l11.39-75.15c.29-1.91,2.07-3.23,3.98-2.94,1.41.21,2.54,1.25,2.88,2.64l17.34,71.61c.57,2.27,2.77,3.74,5.09,3.39l47.83-7.69c2.45-.39,4.12-2.7,3.73-5.16-.03-.2-.08-.4-.14-.59l-62.36-205.6c-.18-.58-.2-1.2-.06-1.8l2.08-9c.47-2.01-.49-4.08-2.33-5.01-8.49-4.33-30-13.34-46.23-3.47-1.06.65-1.82,1.71-2.08,2.93l-48.72,228.97c-.52,2.43,1.03,4.82,3.46,5.34.18.04.36.06.54.08l58.76,5.26c.13.01.27.02.4.02,2.22,0,4.11-1.63,4.45-3.83h0Z"/>
      <path id="eb685785-93ca-4296-839e-b201e57ae5bb-465" class="cls-6" d="M673.59,302.41c-1.85-1.11-3.49-2.54-4.85-4.22-1.37-1.72-1.73-4.04-.97-6.1,1.24-2.74,4.93-3.6,7.79-2.67s5.07,3.17,7.15,5.33c1.84,1.9,3.73,3.89,4.6,6.39s.42,5.67-1.75,7.18c-2.13,1.49-5.19.88-7.24-.72s-3.32-3.97-4.53-6.27l-.2,1.07Z"/>
      <path id="a7ccb8bb-f2b9-4447-b454-9c546e399f41-466" class="cls-6" d="M681.91,295.41c.14-6.92,8.02-11.88,14.84-10.66s12.05,7.04,14.67,13.44c5.54,13.54,1.38,28.98-3.96,42.6s-11.94,27.44-11.16,42.04c1.07,16.08,10.87,30.28,25.52,37-7.69,3.48-16.88-.11-23.34-5.55-14.35-12.07-19.89-33.55-13.16-51.04,3.32-8.63,9.16-16.02,13.73-24.06s7.91-17.52,5.56-26.46-12.39-16.18-20.96-12.72l-1.73-4.6Z"/>
      <path id="bd42e2a1-f38b-413b-b655-cc202f14f4c1-467" class="cls-6" d="M655.83,330.66c2.14-3.62,4.3-8.37.39-11.53-1.72-1.33-3.9-1.9-6.05-1.6-4.41.53-9.22.75-13.49-.85-3.24-1.11-5.88-3.49-7.34-6.59-2.2-5.22.56-11.57,5.16-14.87,5.77-3.98,13.36-4.11,19.26-.34,5.97-2.64,13.21-1.46,18.64,2.17s9.14,9.44,11.15,15.65c1.86,5.34,2.18,11.1.92,16.61-2.05,7.79-7.76,14.09-15.32,16.88-2.95,1.16-6.3.67-8.78-1.3,0,0-3.39-2.95-4.44-6.51-.82-2.74-1.25-5.77-.11-7.71Z"/>
      <path id="a0cecca8-8fe0-4420-9365-651f9eef8dd5-468" class="cls-4" d="M582.97,352.58c.12.54.2,1.09.24,1.64l42.96,24.78,10.44-6.01,11.13,14.57-17.45,12.44c-2.9,2.06-6.81,1.97-9.6-.23l-44.3-34.95c-5.44,2.01-11.48-.76-13.49-6.2-2.01-5.44.76-11.48,6.2-13.49,5.44-2.01,11.48.76,13.49,6.2.15.41.28.83.38,1.25h0Z"/>
      <path id="b21f2b01-13d8-4bae-8637-c810de2f9faf-469" class="cls-13" d="M627.6,380.17l13.88,17.99c1.52,1.97,4.35,2.33,6.31.81.17-.13.34-.28.49-.44l15.72-16.32c5.54-4.12,6.69-11.95,2.56-17.49s-11.95-6.69-17.49-2.56h0c-.14.1-.27.2-.4.31l-19.71,11.02c-2.17,1.21-2.94,3.96-1.73,6.12.11.19.23.38.36.55h0Z"/>
    </g>
    <g id="b22d1c68-5a77-444f-a5cc-3f82f20a89dd">
      <path id="e5b1612b-0075-49ae-a43a-e875f9772667-470" class="cls-1" d="M123.7,423.06c-.49.22-.96.49-1.41.79l-44.85-19.14-1.6-11.82-17.92-.11,1.06,27.1,59.2,15.66c.12.41.27.81.45,1.21,2.4,5.12,8.49,7.32,13.61,4.92,5.12-2.4,7.32-8.49,4.92-13.61-2.37-5.06-8.36-7.28-13.46-5h0Z"/>
      <path id="aa9c986c-d78a-4457-b2bb-b0791fabccea-471" class="cls-1" d="M51.4,668.62h12.26l5.83-47.29h-18.09v47.29Z"/>
      <path id="b210f84f-9c85-4cf8-a59b-65b7d4fb35d0-472" class="cls-6" d="M72.42,665.11h-23.64v14.88h38.53c0-8.22-6.67-14.89-14.89-14.89h0,0Z"/>
      <path id="f66096e0-a946-448d-a2e8-3cde5fe284ed-473" class="cls-1" d="M3.72,665.15l12.2,1.2,10.44-46.49-18.01-1.77-4.63,47.06Z"/>
      <path id="fcefb2c9-d6d5-4bec-a5f5-cc8066a5bb74-474" class="cls-6" d="M24.98,663.73l-23.53-2.32-1.46,14.81,38.34,3.78c.81-8.18-5.17-15.47-13.35-16.27h0Z"/>
      <circle id="b1d8892c-f39d-4126-8224-86b256c1ff9d" class="cls-1" cx="47.99" cy="318.17" r="24.56"/>
      <path id="ac2d3eab-b9a5-4eb5-9d63-fe405943fbfc-475" class="cls-6" d="M66.4,659.05c2.18,0,4.04-1.56,4.42-3.7,6.34-35.22,27.09-150.4,27.58-153.59.01-.07.02-.15.02-.22v-8.59c0-.31-.1-.62-.28-.87l-2.74-3.84c-.26-.37-.69-.61-1.14-.62-15.62-.73-66.78-2.88-69.26.21h0c-2.48,3.1-1.6,12.51-1.4,14.36v.19S.6,649.38.6,649.38c-.37,2.44,1.28,4.73,3.71,5.14l14.36,2.36c2.21.35,4.35-.96,5.02-3.09,4.44-14.19,19.33-61.92,24.49-80.39.08-.27.35-.42.62-.34.22.06.36.26.36.48-.26,17.61-.88,62.52-1.1,78.04l-.02,1.67c-.02,2.35,1.76,4.32,4.09,4.54l13.84,1.25c.14.01.28.02.42.02Z"/>
      <path id="bbed60f3-1a89-4078-91d7-bc96163e326a-476" class="cls-8" d="M63.57,352.39c4.29,2.55,6.85,7.23,8.32,12,2.72,8.82,4.36,17.94,4.88,27.16l1.56,27.6,19.26,73.17c-16.69,14.12-26.32,10.91-48.78-.64s-25.03,3.85-25.03,3.85l-4.49-62.26-6.42-68.03c1.44-1.73,3.07-3.3,4.86-4.67,12.02-9.35,27.66-12.67,42.44-9l3.4.82Z"/>
      <path id="ff536e95-7831-431c-8ca8-0e166a93b4bb-477" class="cls-1" d="M69.83,437.83c-.52.19-1.02.43-1.5.7l-44.35-22.2-.74-12.03-18.29-1.26-.98,27.41,59.27,19.6c1.31,5.65,6.96,9.16,12.61,7.85,5.65-1.31,9.16-6.96,7.85-12.61s-6.96-9.16-12.61-7.85c-.42.1-.84.22-1.25.38h0Z"/>
      <path id="ed99b844-bab2-4090-afff-3e8d6994d5eb-478" class="cls-8" d="M13.19,365.54c-10.91,3.85-12.83,45.57-12.83,45.57,12.84-7.06,28.24,4.49,28.24,4.49,0,0,3.21-10.91,7.06-25.03,2.36-8.07.43-16.79-5.13-23.11,0,0-6.42-5.78-17.33-1.93Z"/>
      <path id="a410275c-d14b-4b59-9c0e-be849f4d4fe2-479" class="cls-6" d="M25.97,324.66c3.06-2.45,7.23,2,7.23,2l2.45-22.03s15.3,1.83,25.09-.61,11.32,8.88,11.32,8.88c.5-4.57.61-9.18.31-13.77-.61-5.51-8.57-11.02-22.64-14.69s-21.42,12.24-21.42,12.24c-9.8,4.89-5.4,30.43-2.34,27.99Z"/>
    </g>
    <g id="Grupo_85" data-name="Grupo 85">
      <path id="Trazado_105" data-name="Trazado 105" class="cls-14" d="M378.68,147.34c.04,8.29,1.05,16.56,2.99,24.62,1.47,6.54,3.26,13,5.38,19.36,2.22,6.17,4.8,12.2,7.73,18.07,2.13,4.36,4.92,8.4,7.4,12.58.13.27.23.54.31.83-.3.07-.6.09-.91.05-5.97-2.09-12.12-3.63-18.36-4.62-3.85-.64-7.74-1.11-11.64-1.42-3.96-.34-7.93-.46-11.91-.36-8.87.14-17.7,1.23-26.35,3.24-1.77.44-3.62.6-5.36,1.1-.76.28-1.61-.04-1.98-.75-3.14-4.33-5.64-9.08-7.42-14.13-2.24-6.57-3.21-13.5-2.85-20.43-.13-1.1.63-2.12,1.72-2.31,6.41-2.04,12.61-4.68,18.52-7.9,4.67-2.72,9.56-5.11,14.03-8.12,10.47-6.86,19.78-15.36,27.58-25.16.22-.22.46-.41.72-.57.18.31.31.65.38,1,.04,1.64.02,3.27.02,4.91"/>
      <path id="Trazado_106" data-name="Trazado 106" class="cls-7" d="M310.3,182.73c0,2.21-.08,4.43.01,6.63.22,7.56,1.85,15.01,4.79,21.98,1.97,4.8,4.64,9.28,7.9,13.31.27.37.5.77.65,1.2.68,1.6.5,1.96-1.18,2.45-5.38,1.57-10.77,3.1-16.12,4.75-1.31.58-2.85.21-3.76-.9-6.53-7.23-10.98-16.1-12.88-25.66-1.02-5.45-1.25-11.02-.67-16.54.36-3.34,1.64-4.93,4.97-5.66,4.69-1.04,9.24-2.67,13.87-4.02,2.42-.7,2.8-.34,2.41,2.47"/>
      <path id="Trazado_110" data-name="Trazado 110" class="cls-2" d="M276.86,205.68c-.05-1.33.25-2.26,1.84-2.47,1.08-.24,2.15-.56,3.18-.98,1.65-.51,1.96-.32,2.32,1.49.3,2.12.72,4.22,1.25,6.3,1.3,4.15,2.75,8.26,4.31,12.31.39,1.03.19,1.28-.68,1.48-.96.17-1.91.4-2.84.67-2.92,1.01-2.95,1.06-4.47-1.65-2.43-4.4-3.96-9.25-4.49-14.25-.11-.97-.26-1.94-.4-2.91"/>
      <path id="Trazado_148" data-name="Trazado 148" class="cls-10" d="M472.92,115.1c-.36.77-.84,1.48-1.42,2.1-5.16,3.84-10.38,7.58-15.57,11.38-2.04,1.5-4.04,3.08-6.11,4.55-1.11,1.09-2.89,1.07-3.98-.05-.06-.06-.11-.12-.16-.18-.96-1.31-.68-3.15.63-4.11.07-.05.15-.11.23-.15,3.69-2.77,7.46-5.44,11.18-8.17,3.34-2.45,6.64-4.95,10.01-7.38.62-.45,1.35-.74,2.12-.84,1.83-.18,2.78.8,3.08,2.86"/>
      <path id="Trazado_149" data-name="Trazado 149" class="cls-5" d="M465.33,163.7c-2.39-.03-3.18-.69-3.47-2.34-.3-1.38.58-2.74,1.96-3.04.02,0,.04,0,.06-.01,5.62-1.65,11.26-3.24,16.88-4.89,2.69-.79,5.35-1.69,8.03-2.46,1.29-.37,2.69-.89,3.91.16,1.88,1.61,1.23,4.06-1.36,5-1.4.51-2.89.79-4.32,1.21-5.12,1.52-10.22,3.07-15.35,4.58-2.3.68-4.62,1.3-6.35,1.78"/>
      <path id="Trazado_150" data-name="Trazado 150" class="cls-11" d="M467.74,192.44c6.53.46,13.48.97,20.44,1.43,1.89.12,3.79.1,5.69.12,1.27.05,2.4.84,2.88,2.02.53.98.2,2.2-.75,2.79-1.05.59-2.25.88-3.45.84-2.6-.05-5.19-.41-7.79-.58-6.05-.41-12.1-.79-18.15-1.17-1.36.1-2.54-.93-2.64-2.28-.01-.15,0-.29,0-.44.07-1.48,1.25-2.66,2.73-2.73.2-.01.39,0,1.02,0"/>
      <path id="Trazado_151" data-name="Trazado 151" class="cls-9" d="M431.22,170.4c-9.34-31.84-25.9-55.02-36.99-51.77-9.12,2.67-11.7,22.39-7.14,47.01,8.03-3.82,17.63-.42,21.45,7.61,3.82,8.03.42,17.63-7.61,21.45-1.61.77-3.34,1.26-5.12,1.46,9.53,24.34,22.83,40.53,32.22,37.78,11.09-3.25,12.51-31.7,3.17-63.54"/>
      <path id="Trazado_152" data-name="Trazado 152" class="cls-13" d="M349.06,222.35c.9-.2.93.79,1.13,1.47,1.15,3.88,2.26,7.78,3.4,11.66,2.03,6.89,4.07,13.78,6.12,20.67.61,2.07.63,2.09-1.43,2.7-1.88.56-3.81.96-5.64,1.64-1.35.5-1.69-.07-2.01-1.19-.88-3.14-1.83-6.26-2.75-9.38-2.44-8.27-4.89-16.54-7.33-24.81-.33-1.12-.12-1.66,1.2-1.78,2.34-.21,4.67-.61,7.31-.98"/>
    </g>
  </g>
</svg>