<?xml version="1.0" encoding="UTF-8"?>
<svg id="Coahuila" xmlns="http://www.w3.org/2000/svg" version="1.1" viewBox="0 0 764.4 1000.3">
  <defs>
    <style>
      .cls-1 {
        fill: #c4f5ee;
        fill-rule: evenodd;
        stroke: #000;
        stroke-width: .2px;
      }
    </style>
  </defs>
  <path id="001" class="cls-1" d="M461.8,523.7l10.8,6.7,11.2,9.7,5.6-.4,7.5-5.6,4.9,6,14.9-5.6,4.5,3.4,15.3-13.4-27.3-11.2-7.1,6.7-2.6-6-3.7-3.7-.4-6.7h-5.2l-4.9-7.5-8.6-4.1-15.3,15.7-9-3.7-4.5,10,6.7,1.9,7.1,7.9Z"/>
  <path id="002" class="cls-1" d="M548.1,123.8c-.1.8-.1,1.7,0,2.5.9,1.8,2.6,2.2,3.5,4,.3.6,2.8,5.5-1,5.5s-2.4-2.8-5.5-2c-2.5.6-4.3,0-7,0s-5-.8-5,2.5.6,4.9-3,4c-2.5-.6-4,0-4,3v2.5l-53.8-5,.5-16.9-19.9,7.5-9-24.9-50.3,18.9-27.4,52.3-65.6-14.5-10,17.4-27.9-26.4-15.9-8-20.4-15.4c-1.5-2.9-5.2-1.4-6.5-4s.2-2.2,2-4c.8-.8-1-4.9-1-6.5s1.5-3.6,2-5.5c.6-2.3,4.7,0,7-.5s.5-4.3.5-6,3.2-1.7,4.5-3c2.3-2.3-1.8-3.9-3-4.5-2.8-1.4-.4-4.8,1-5.5,1.7-.8,2-4,3-5s.6-5.5,1-7c.5-2.1,2.7-2.2,4-3.5,1.7-1.7,2-2.4,2-5.5s2.4-1.6-.5-4.5c-2.6-2.6,1.9-2,4-2s0-5,0-7.5,4.1-1.9,4.5-3.5c.5-2.2,1.5-3.4,2-5.5.8-3.3-1-4.5,2-6,3.3-1.7-.3-4,4.5-4s3.9,3.3,4,3.5c.9,0,1.3,1.3,2,2s2.5-4.6,2.5-6c0-3.3,4,1,4-3.5s1.7-1.8,3.5,0c2.1,2.1,2.9,3,6.5,3s2-3.8,1.5-6c-.6-2.4,5-.1,7.5.5,2.6.7,3,2,6,2s4.7.5,7.5.5,0-5.3,0-8,1.5-2.9,1.5-6,2.6-3.8,4-4.5c2.4-1.2,2.9-2.3,5.5-3,3.4-.9,4,1.7,4,4.5s6.6,1.5,8,1.5c2.3,0,4.7,0,7,.5.7.2,3.9,2.6,5.5,3,1.8.4,4.4,3.9,5.5,5,2.6,2.6,1,.9,4.5,0,2.8-.7,5,2.5,6,3.5,2.2,2.2,3.5.9,3.5-2s2.3-2.7,4-1c2.4,2.4,4.2-2.9,4.5-3.5,1.8-3.7,6,3.1,6.5,4,1.8,3.7,4.3,1.8,5,1.5,1.9-1,.3-3.4,4-2.5,4.2,1,3.3,3.2,5.5,1,2.4-2.4,2.1-1.9,5,1,.1.1,1.5-3.9,4.5-1,3.3,3.3,1.2,4.9,4,3.5,2.6-1.3,2.4-3,5,.5,1.7,2.3,5.9,2.3,8.5,3,.5,0,1,0,1.5,0,3.8,1,6.3,2.7,8.5.5,2-2,1.6-2,5.5-1,3.7.9,3.5-1.3,4-3.5.3-1.2,4.5-4.5,5-5,1.9-1.9,5,5.8,5,6,0,1.5-4.9-.4-1.5,3,1.8,1.8,6.4-.9,7-1.5,2.2-2.2,0-3,5-3s0,4.7.5,7c.4,1.7,3.3-1.3,4.5-2.5,2.4-2.4,2.5,4.5,2.5,5.5,0,2.5,3.5,1.4,3.5,5s2.9,1.8,2,6.5,1.7,2,2.5.5c1.1-2.2,4.8-.6,6,0,2,1,1.5,4,1.5,6.5s-4,2-4.5,4c-.5,2.2,3.5,3.4,3.5,6s2-3.5,2-5.5c0-3.6.3-3.8,2-5.5,1.9-1.9,5.7,2.4,6.5,3.5,1.8,2.4-1.2,5.4-2,6-2,1.5-2,2.8-1.5,5,.6,2.5.6,5.2,1.5,7,1.8,3.6,4.4-2,4.5-2.5.7-2.9,5.6.6,6,2,.6,2.3,5.3,2.1,6,5,.9,3.7.7,4,4.5,5,2.5.6,4.4-.5,7-.5s3.3,3.3,5,5c2,2,4,2.9,4,5.5s.8,3.8,1.5,6.5c.3,1.2,3.4,2.9,4.5,3.5,2.7,1.4,3.9,1.4,5.5,3,2.5,2.5,3.6,2.8,6.5,3.5,2.6.7,3.1,2.1,4.5,3.5-.4.2,2.5,4.9,2.8,5.4Z"/>
  <path id="003" class="cls-1" d="M522.8,314.4l.3,8.5h24.9l.3-5.4,3.5-2.7-6.4-6.7,17.4-16.6c0,1,2.2-1,2.9-.3,1.5,1.5,1,1.6,3.5,1.6s2.6.4,2.9-1.1-.3-2.4-.3-3.7-1.5,1.6-1.6,1.9c-.8,1.5-1.6-.4-1.6-1.3s-3.3-.5-3.5-.5c-1.4-.4-2-1.1-3.7-1.1s-2,.3-2.9.3l-16.3,6.1-7.8,6.4.5,3.5-12,11Z"/>
  <path id="004" class="cls-1" d="M596.6,812.9c-.5,1-.7,2.2-.6,3.3,0,1.3,2.6,1,3.5,1,1.5,0,.9,1.2,1.2,2.5.4,1.5.2,1.4,1.5,2.1,1.5.8,2.4,1.5,4.1,1.5,1.4,0,2.8.2,4.1.6.7.3.4,2.1.6,2.9.3,1.2-.1,2.3,1.4,2.3s2.6.2,3.7.2,2.4-.4,2.7.8c.1.5,3.4,1.3,3.7,1.5.8.2,1.5.8,1.9,1.7.3,1.2-1.8,1.9-2.3,3.1s-1,2.2-1.5,3.1c-.5.8-1.3,1.3-2.3,1.4-1.1.3-1.3.9-1.9,1.7-1.1,1.5.8,1.8,1.9,2.1,1.5.4,3.1.5,3.1,2.1s2.7,1,3.9,1.7c1.6.8,4.7.2,6.4.6,1.4.2,2.8.2,4.1,0,1.3,0,1.1-.9,1.5-1.7.4-.8,1-1.5,1.9-1.9.8-.3,1.6-.5,2.5-.6,1.2-.1,2.3-.1,3.5,0,1,0,1.8,2.2,2.3,2.9.9,1.4,2.3,2.3,3.9,2.5,1.4.3,2.8,0,3.9.6s.8,2.2.8,3.3v3.5c0,.9-1.8.4-2.7.6-1.3.3-.2,1.6.2,2.1.6.6,3,.2,3.7.2,1.6,0,1.5.8,1.9,2.1.1,1.1,0,2.2-.2,3.3-.2.9-1.8.6-2.7,1-1.2.6-1.1,1.3-2.3,1.7-1,.2-2.1.3-3.1.2-1.1,0-2.1.2-3.1.6-1,.5-1.8,1-2.7,1.4-1.2.6-1.2,1.1-2.5,1.5-.7.2-.8,0-1.4.2-1.1.3-4.1-1.7-5.4-1.9-1-.2-2.2-1-3.3-1.2-1.3-.5-2.6-1.1-3.7-1.9-1.3-.7-2.7-1.2-4.1-1.7-1.5-.6-2.9-1.1-4.3-1.9-1.1-.4-2.2-.8-3.3-1-1.2-.2-2.3-.3-3.5-.2-1.2,0-2.5.2-3.7.2s-2.4.2-3.7.2-2.7-1.6-3.9-2.1c-1.1-.5-2.3-.9-3.5-1.2-1.6-.3-3.2-.3-4.8-.2h-3.7c-.7,0-2.4-1.9-3.3-2.3-.9-.4-1.9-.5-2.9-.2-.8.2-1,1.3-1.5,2.1-.3,1-.5,2-.6,3.1-.2,1.3-.7,2.5-1.2,3.7-.4,1-1.1,1.9-1.9,2.7-1,.7-.2.8-.2,2.3s.2,2.3.2,3.5,0,1.7-1.4,1.7-1-1.1-1-2.3.2-2.5-.6-3.3c-1-1-2.2,0-2.7,1-.5,1-1.1,2-1.9,2.9-.7.7,1.7,1.3,1.7,2.3s-1.2,1.6-1.7,2.1c-.7.7-1.2,1.4-1.7,2.3-.4.6-1.1,1-1.9.8-.8,0-1.7-.3-2.5-.6-.2,0-.4,0-.6,0-.5-.1-3-1.4-3.5-1.7-.9-.5-1.7-1.3-2.7-1.7-1.2-.3-2.5-.4-3.7-.2-1.2,0-2.5-1-3.3-1.7-1-.6-2-1.1-3.1-1.4-.4,0,1.4-2.5,1.5-2.9.3-1.4-.5-1.5-1-2.1-.8-.8-1.5-1.3-2.3-2.1-.7-.8-1-1.9-.6-2.9.3-1.1.6-1.1,1.9-1.5s1.5.1,2.1-1c.5-.9,1-1.4,1-2.5s.2-2.1.2-3.3-.8-1.6-1.5-2.3c-.9-.7-1.7-1.3-2.7-1.9-1-.7-2.1-1.1-3.3-1.2-1.1-.2-2.2-.3-3.3-.2-.8,0,.6-1.2.8-1.5.7-.7.9-1.3,2.1-1.9.6-.3.8-1.4,1.9-1.7.4,0,3.1,2.5,3.3,2.7.7.9,1.6,1.6,2.7,1.9,1.5.4,1.8.9,2.7,0,.6-.8,1.1-1.7,1.4-2.7.2-.4-1.4-1.4-1.7-1.7-.7-.5-1.4-.9-2.3-1-.9-.3-1.7-.7-2.5-1.2-1.2-.6-1.6-1.4-2.5-1.9s-.4-1.9-.4-2.7c0-1.3,2.2-.4,3.1-.2,1,.2,1.9.7,2.7,1.5.8.7,1.8,1.2,2.9,1.4,1.5.4,2,.3,2.7-.4s0-2.4-.2-2.7c-.3-.6-1.6-1.2-2.1-1.7-1-1-1.9-1.1-2.9-2.1-.7-.7-1.4-1.2-2.1-1.9-.6-.7-1.2-1.5-1.7-2.3-.5-.6,1-1.8,1.2-2.1.9-.9-1.3-2.4-1.7-2.7-.9-.7-.6-1.6-.6-2.9s-1-1.8-1.5-2.3c-.7-.7-1.2-.8-1.9-1.4l-1.9-1.9c-.3-.5-.6-1.1-.8-1.7-.7-.7,1.4-1.4,1.7-2.3s1.6-1,2.5-1c.9,0,1.8,0,2.7.4.4.2,1,1.9,1.2,2.3s1.5,1.3,1.9,1.7c.8.8.7,1,2.3,1s1.2-.7,1.5-1.7c.2-.8,1.2-1.1,1.9-1.5.7-.5,1.6-.7,2.5-.6h6.2c1,0,2.1,0,3.1.2,1.2.3,2.1,0,2.5-.8s.2-2.2.4-2.9,2.2-.6,2.7-.6h3.1c1.3,0,2-.2,2.3.8,0,.2-.4-.1-.6-.2-.8-.3,1.5.8,2.3,1.2s.9-1.3,1.7-1.5c.9-.3,1.9-.4,2.9-.4,1.3,0,2-.3,2.3.8,0,.1,1.6,1.2,1.9,1.4,1,1,0,1.7,2.1,1.7.9,0,1.8-.3,2.7-.6.7-.1,1.3-.4,1.8-.8Z"/>
  <path id="005" class="cls-1" d="M534.7,623.8l35.5-34.4,10.8,22.8,12.7-13.5.4-6.3,11.2-15.3c.1-.6.2-1.2.4-1.9,0-.3-3.1-3.1-3.4-3.4-.9-.9-.2-4,0-4.8.3-1.2,2.7-2.9,3.4-3.7,1.2-1.5,0-3.8-.4-5.2-.4-2.1-2.5-2-.4-4.1,1.5-1.5,1.1-2.3.4-3.7-1.1-2.2-2.3-1.8-1.1-4.1,1-2.1,1.5-2.8,1.5-5.2v-6c0-2.2-.9-1.9-3.7-1.9-2.9-.1-5.8-.6-8.6-1.5-1.7-.6-3.3-1.6-4.5-3-1.7-1.7-2-1.9-3-3.7s-2.9-2.5-3.7-3.4c-1.3-1.3-4,0-4.8.8s-.6,3.2-1.5,4.1c-1.7,1.7-2.9-1.1-3.7,2.2,0,0,2.2,1.7,2.2,3.4s-3.2,1.2-3.7,1.1c-1.1-.3-2.5-2.9-3-3.4-1.2-1.2-2.6,0-3.4,1.5-1.2,2.5-3.2-1.4-3.4-2.2s-2.9-1.6-3.4-1.9l-9.7,10.5-6-13.8h-4.8l-16,14.2,3.7,8.6,6.7-.4,12,16.1c-.2-.8-.7,1.9-1.5,1.9-2.3,0-1.5,2.1-1.5,4.1s-.7,2.9-2.6,3.4c-1.6.4-2.3,1.7-3,3s.2,4.5.4,5.2c.8,3-1,2.7-2.6,1.9-1.9-.9-2.1-2.2-4.8-1.5-.3,0-.2.5-.4.8l-15.7,16.4,15.7,18.7c-1.6.4,4.1,0,4.9,1.5,1,2-1.9,3,1.1,3.7,1.8.4,1.5.6,1.5,2.6Z"/>
  <path id="006" class="cls-1" d="M534.9,623.3l-38.8,34.1,19.1,22,2.9,9.4-6.8,1.8-4.4-6.2-1.2-.9c-1.2-.9-2.2-1.9-3.2-2.9-.9-.9-2.2-.8-3.5-1.8-1.1-.9-1.4-1.7-2.7-2.9s-1.9-2.2-2.9-3.2-2.2-.9-3.8-.9-2.6-1.3-4.1-2.1c-1.3-.7-3.7,0-4.7-.6-2.2-1.1-1.2.4-2.9.9-1.5.4-3.7,0-5.3,0s-.4,2.4-1.2,3.2l-2.7,2.7c-.3.2-.6.4-.9.6l-11.8-.3-8.2-12-4.7-8.2,3.5-1.8-5.6-4.7,9.1-.6-16.7-20.6-15.3-8.5v-5.9l-5.6-4.7-2.6,3.5-17.1-28.8,14.1-11.5,17.7-9.4-2.1,5,7.1,5.3,5.3,5,8.8-7.3c-.9.9,2,1.5,2.9,2.3s1.3,1.7,2.7,2.1c1.5.2,2.9.2,4.4,0,2.2,0,1.1-1.8,3.2-1.8h4.4c1.7,0,2-.2,2.3-1.5l6.2,3.2,17.4-5.6,11.5,11.2v7.3l12.9,9.1,15,18.2h1.5c1.3,0,2.6.6,3.5,1.5,1.2,1.2-.2,2.6-.3,2.7s2.9,2,3.2,2.1c1.2.3,1.5-.1.3,1.5Z"/>
  <path id="007" class="cls-1" d="M173.7,586.6l19.5,19.1,8.2-14,3.1,2.7-10.2,21.9,5.8,8.9-5.5,4.8,6.8,5.5,2.4,11.6,3.1-5.8.7-14,25.6-20.8,8.9,1,11.6,20.5,10.2,7.2,18.8-1.7,22.2-17.8h5.8l-28,58.4,21.9.7,1.4-.3c2-.5,2.7,2.6,2.7-.7v-5.8l5.8,9.9-13.7,28,17.8-5.5,1.7,10.2,3.4,3.8c0-.5.9.5,1.4.7l20.5-7.2-1.7-8.5.3-6.8,15.7-6.8,4.5,2,.3,7.5,7.2,1.4-2.1-14.3-29-33.8,18.8,9.2,13.7-3.8,3.8,7.5,7.2,1c0-1.8,2.9-4.7,3.8-5.8,1.7-2.3-.6,1.1.3-.7l2,15,8.2-5.8,16.7,4.8,3.1-17.3,4.4,13.7,15.4,10.2,8.9-12.6-3.8-7.9,3.1-1.4-5.1-5.1,9.2-.3-17.4-21.2-15.4-8.5v-5.5l-5.1-5.1-2.7,3.8-17.4-29,15-11.8-7.9-10.2-11.3-1,.3-6.5c.4-.6.7-1.1,1-1.7.8-1.4,2.4-1.3,3.1-2.7.5-1-1.5-1.7-1.7-2.7,0,0,1.7-2.5,1.7-3.8s1.7-2.1,2.4-2.7.7-1.1.7-2.4l-9.2-8.2c1-1-1.7,2.7-3.1,3.1-1.3.5-2.7.6-4.1.3-2.5-.6-2.7.3-2.7,2.4s-2.1,1.4-3.8,1.4h-5.1c-2,0-2-1.3-3.1-2.4-1.5-1.6-1.8-2-1-3.4,1-2,2.2-1.3,2.7-3.4.1-.5-1.6-2.8-1.7-3.4-.2-1-1.8-2.2-2.4-2.7-1-.9-1.8-1.9-2.4-3.1-.9-1.8-1.7-1.2-1.7-3.8s0-2.6-1.7-3.4c-1.3-.6-3.2-.3-4.8-.3s-.8-2.6-1.4-3.8-.3-3.3-.3-4.8v-4.8l-7.5-5.8-28-.7,4.5,5.5-2.7,3.4-9.9-6.5-7.5,13,13.7,11.6,4.8,22.2-23.6-5.1-12-12-6.8-.3-13.6-9.1-8.5,16.4-7.2-3.5-.4,6.5-5.1.7-6.5-7.2,1.4,38.3-29.7-18.5-1.7,4.1-4.8-4.5h-32.8l28,29.7-20.1,10.6Z"/>
  <path id="008" class="cls-1" d="M452.4,503.9l8.6,4.1,16.1-15.7,8.2,3.7,5.2,7.5,4.9.4v6.3l4.5,3.7,1.5,6.3,7.5-6.7,27.6,10.5,5.2-.8-5.2-8.6-13.1-8.3-.8-6-1.5-1.5c-1.1-1.1-1.9-2.6-3-3.7-1.1-1.1-1.9-2.4-2.6-3.7-.8-1.7-1.9-2.3-3-3.4-1.7-1.7-1.8-1.6-4.1-2.2-1.7-.4-2.2,2.9-3,0-.2-.9-2.1-2.4-2.6-3l-3.4-3.4c-1.5-1.5-2.2-1.4-3-3-.9-1.8-1.7-2.2-3.7-2.6-1.4-.3-2.7-1.3-3.7-1.9l-3.7-1.9c-1.4-.5-2.6-1.3-3.7-2.2-.9-.9-.4-3.9-.4-5.2,0-2.4-.4-3-1.5-4.1-1.4-1.4-1.9-1.5-1.9-4.1s-3.6-.8-4.9-.8c-2.7,0-2.9-.2-4.1-1.5s1.2-3-2.6-3-2.6-1.7-3.7-2.2-4.2,0-5.6,0h-10.8l2.2,6-.4,10.1,7.1,9.7-3.7,10.5,5.6,1.9-4.5,18.8Z"/>
  <path id="009" class="cls-1" d="M164,766.8l-9.7,12-4.1-3.2c-2.1,0,1.1-4.9-.5-6.5-1.1-1.1-2.6,2.3-4.1,2.3-1.6-1.6-.9-5.7-.9-7.8s1.4-3.5,1.4-6-2.6-3.8-3.2-4.6c-1.5-2,.1-4,1.4-4.6,1.6-.8-.6-3.8-1.9-5.1-1.5-1.5-3-1.4-3.7-4.2-.4-2.1-.6-4.3-.5-6.5v-4.2c0-1.2,2.4-.6,3.2-1.4,1.8-1.8,1.4-3.8,1.4-6.5v-6.9c0-2.2.9-4.1.9-6.9s1.6-4.4,1.8-5.5c.7-2.7,1.2-3.5,1.9-6s1.4-4,1.4-6.9,2.2-3.9,2.8-6c.2-1,3.1-4.7,3.7-5.5,2-2.7,3.2-3.5,3.2-6s-.5-4.2-.5-6.5-2.7-3-3.2-4.1c-.8-1.6-3.2-2.8-4.1-3.7-1.6-1.6-2.8-2.3-3.7-4.2-1.4-2.8-.2-3-2.3-5.1-1.1-1.2-2.1-2.5-3.2-3.7s1.9-4.5,1.9-6c0-2.5-.9-3.6-2.3-5.1-1.7-1.7-.6-4,.5-6s.5-4.8.5-6.9-3.2-4-3.7-4.6c-1.1-1.4-2.5-2.5-4.1-3.2l10.6-9.2,30-16.1,18.4,18.9,8.3-13.8,3.7,3.3-10.1,21.7,5.1,8.3-5.1,5,6.5,5.5,2.8,10.6c-1.4-.7,2.3,2.6,2.3,4.2,0,3-.9,3.1-1.8,5.1-1.3,2.6,1.1,4.3,1.8,5.1,1.9,1.9,1.5,2.4,2.3,5.5.7,2.9,0,3.4,2.8,4.1,2.1.5,5.1,0,7.4,0s2.1,4.3-.9,5.1c-2.1.5-1.4,4-1.4,6v6.9c.1,2,.4,4,.9,6,.4,1.6-3.6.8-5.1,0-1.1-.5-3-3.5-3.7-4.2-1.5-1.5-4.4-.9-6.5-.9s-4.5-.5-6.9-.5-4-.9-6-.9-3.8-1.4-5.5-1.8c-2.1-.4-4.3-.5-6.5-.5-3.3,0-2.6,1.2-4.1,2.8-2.7,2.7,2.6,3.4,3.7,3.7,2.4.6,2.6,1.6,3.7,3.7,1.7,3.3-2.2,2.8-4.1,2.8-3.4,0-2.8,1-2.8,4.2.1,2-.2,4.1-.9,6-.3.6-3.8-4.2-4.1-4.6-2-2.6-1.8,0-2.3,1.8-.6,1.9-.9,4-.9,6,0,3.2.2,3.5,2.3,4.6,1,.4,2.1.6,3.2.5,2,1,6,.2,7.4.9.4.2,0,6.2,0,6.9,0,2.2,0,4.3-.5,6.5-.4,1.6-3.5-.2-4.6-1.4-1.3-1.3-2-3.4-2.8-.5-.5,1.8-2,2.5-2.8,4.2-1,2,3,2.6,4.6,4.2,2,2-1.7,3.5-2.3,4.1-1.3,1.3-3.9-2.5-4.1-2.8-.6-.6-.9,5.2-.9,6,0,2.9-.2,4.4-1.4,6-1.2,1.4-1.6,3.3-.9,5.1.4,1.6,2.5,2.2,3.2,3.7,1.2,2.3-.1,6.5-1.8,7.4Z"/>
  <path id="010" class="cls-1" d="M443.5,571.1l-9,7.1-7.1-6.3-4.9-3.7,1.9-4.9-2.6-10.1-8.6-8.6,5.6-3,5.2,5.6,14.2-.8,7.8-7.5,11.2-7.8,5.2-7.5,10.1,6.3c-.6,2.5-1.3,2.3-2.2,4.1-1.1,2.2-.3,2.7-2.2,4.1s-3.4-1.5-3.4,2.2-1.1,2.3-1.9,3.7c-.7,1.1-1.6,2.1-2.6,3-1,.9-1.7,2.1-2.2,3.4.2,1.6.3,3.2.4,4.9-.4,1.5-1.5,1.9-1.5,4.5s-3.1.5-4.1,1.5-1.7,2-2.6,3c-1.8,1.8.7,2.6-3,2.6s-3.3,0-4.5,1.1c-.5.6.7,2.9.8,3Z"/>
  <path id="011" class="cls-1" d="M478.3,820.9l-12.4.3v1.3c-.1,1.5,0,3,.6,4.5.7,1.4,2.5,1.6,3.2,2.9,1,2,0,2.7,1.6,3.8.7.5,3.9,0,4.8,0s2.7.6,4.1.6,3.3.3,5.1.3c.8.9,1.5,1.9,2.2,2.9,1.6,1.6,3.2.8,3.2,3.8s-1.6,1.9-3.5,1.9-2.3-2.3-2.9-2.9c-1.4-1.4-1.3-1.7-2.9-1-.8.4-.3,3.6-.3,4.5v4.8c0,2.1-2.6,1.3-4.5,1.3h-5.7c-1.7,0-1,1.2-1,3.2v4.8c0,2.3-.1,2.4-1.9,2.9,0,1.6,0,3.2,0,4.8v4.8c0,1.8-2.1,1.3-3.8,1.3s-2.5.3-3.2,1.6c-.8,1.6-.5,1.9-2.9,1.9h-5.1c-2.2,0-2.7,0-3.2-1.9-.2-.7-3.8-.3-4.5-.3h-15.3c-2.9,0,.4.2-.6-.3l6.4-8c-1.1,0-3.5-1.3-5.4-1.3s-2.4-.2-1.9-2.5c.2-1.6,0-3.2-.3-4.8-.4-1.8-1.8-2-2.9-2.5-1.2-.6-1.2-2.2-2.2-3.2s-1.3-1.9-2.5-2.5c-1.4-.7-3-.6-4.8-.6s-2.9-1.8-3.5-2.5c-.7-1.1-1.1-2.3-1.3-3.5-.4-1.7-2.9.6-2.9-2.5s0-3.1,1.6-3.5,3.6-.3,4.5-.6c1.4-.5-.7-3-.3-4.5.5-2,.8-3.1,1.9-4.1s.4-4.4.6-5.7c.4-2.1-.5-2.6-1.6-3.2s-3.6,0-4.8,0c-1.6,0-3.2,0-4.8-.3-.9-.2-2.8-2.5-3.5-2.9-2-1-2.5,0-1.3-2.5.5-1.1-1.9-2.5-2.5-3.2-1.3-1.3.2-2.3-1.6-3.2-1.2-.4-2.5-.8-3.8-1-1.1-.4-2.2-.9-3.2-1.6-.9-.3-1.8-.9-2.5-1.6-.5-.3-.9-.6-1.3-1-1.2-.9.9-3.7,1-3.8,1-1,1.9-1.9,1.9-3.2s.8-2.7-.6-4.1.9-1.9,1.9-2.9c.6-.6,0-2.9,0-4.1,0-1.3.5-2.5,1.5-3.3,1.1-1.1,4.2,1.1,4.5,1.3,1.3,1,.3,1.7,2.5,2.2,1,.1,1.9.1,2.9,0,.8.2.6-4.9.6-5.4v-4.8c0-.2,3-1.4,3.2-1.6.6-.6.3-3.8.3-4.8v-4.8c0-1.3.1-2.6.6-3.8l5.4-3.5,17.2,7.6,5.1-8.6-2.2-6.4,3.5-2.9,4.1,7,6-.3,6,2.5-17.2,8.9v20l22.6-.3-8.9-11.8,18.8,1.9-3.8,12.4-8.6,7.6,9.2,7.6,2.2-5.7,5.1.3c-1.6.3,1.4-3.3.6-4.8-1-2,.8-1.9,2.5-1.9,2.6,0,1.5,1.3,2.9,3.2.8,1,1,3.2,1.3,4.1,1.6,0,3.2,0,4.8,0h4.8c2.1,0,2.3-.5,3.8-1.3s2.9,1.3,3.2,1.9c.8,1.7,1.7,1.3,3.8,1.3s2,1.2,2.9,2.2c1.5,2-2.3,1.6-3.2,1.6-2.1,0-2.8.5-4.1,1.9-.8,1.1-1.4,2.2-1.9,3.5-.6,1.3-.8,2.7-.6,4.1,0,1.2,2.3.8,3.2,1.6,1.3,1.3-3,1.5-3.5,1.6-1.1.3-.6,3.1-.6,4.1,0,2.3.4,2.7-1.6,3.2-1.4.3-3.3,0-4.8,0h-4.8c-1.1,0-.5-.2-.8,1.6Z"/>
  <path id="012" class="cls-1" d="M623.1,255.5c0,1.5-.6,3,1.5,3.5,1.7.4,2.1,1.7,2.1,3.5s4.2.9,5,.9c2.2,0,3.1-.1,4.1.9.7.7-1.3,3-1.8,3.2-1.3.6-3.5,0-4.7.6-1.4.7.4,3.5.6,3.8.4.8,3.4,2,4.1,2.4,1.3.7,1.6,2.3,2.9,3.2,1.6,1.2-1.5,2.6-2.3,2.6-1.6,0-1.5,1.6-1.5,3.2.1,1.4.5,2.8,1.2,4.1.7,1.5,2.4,2.1,3.2,2.9,1.7,1.7,1.8,1.7,2.3,3.8s1.8,2.4,4.4,2.9c1.2.2-.4,4-.6,4.4-.6,1.1-1.9,1.5-3,1.8-.2,0,3.5,3.4,3.8,3.8.7,1,1,2.9,1.2,3.8.1.4,2.4,1.5,2.7,1.8,1.6,1.6,1.8,1.8,4.4,1.8s3.2,1.2,3.2,3.2-.2,1.8.9,2.9,3.4.3,4.4.3,0,2.7.6,3.8c.5.9,3.7.7,4.7.9,1.7.3,3.4.7,5,1.5,1.8.9,2.2.4,3.5,1.8,1.1,1.1,2.3,2,3.5,3.2s1.7,1.7,2.1,2.9c.4,1.6.5,2.4.9,3.8.2.6.4,1,.6,1.8l-8.7,6.5,5.9,13.5-16.8,4.2-.9,19.1-22.4,3.8,3.8,15.6-59.1-13.2,9.1-25.6,4.7-2.4,1.2-6.5,3.5,2.4,2.1-7.1-9.7-6.2,8.5-9.1-15-2.9-4.4-8.8-.6-7.6,5.3-1.8,5-15.6,1.2-.9c.6-.5,1.2-2.4,1.8-2.9s3.7,0,4.4,0c1.8,0,2.4-.6,3.5-1.8,1-1,1.8-1.3,2.7-2.1,1-1,1.2-1.4,1.2-3.5-.1-1.3.1-2.6.6-3.8.5-1.1,2-1.4,2.7-2.1,1-1,1.8-.7,1.8-2.6s1.8-3,2.1-3.2c1.2-1.2,1.3-1.2.6-2.6-.5-.9-2.7-.6-3.8-.6-2,0-2.3-.1-3-1.5s.3-2.1,1.5-2.4c2-.5,2.1-.4,2.1-2.6s-1.5-2-1.8-2.9c-.4-1.7.4-2.6.9-3.5.5-1.1,2.7,0,3.5-.9s1.6-1,3.5-.6c.8.2,1.6-2.3,1.8-2.9s1.6,0,2.4,0Z"/>
  <path id="013" class="cls-1" d="M682.2,340.2c.3-1.1.9,2.6,2.1,2.6,1.4-.1,2.8,0,4.1.6.3.1,0,3.9,0,4.4,0,1.3,1.7,1.7,2.3,2.4.4.4,0,3.7,0,4.4,0,1.8,3.2,1.5,3.2,3.5s3.5.6,4.1.6c1.9,0,3.1-.3,3.8,1.2s1.2,1.8,1.2,3.8-2.6.6-3.5,1.5c-1.2,1.2,3.2,2.9,3.8,3.2,1.4.7,2.5.8,3.5,1.8.8.8,1.4,2.9,1.8,3.5.7,1.4,2.2,2.6,0,2.6s-2.5,0-2.9,1.8c-.5,2,.5,3.1,2.1,3.8s2.8.7,4.1,2.1,1.5,2,1.2,3.5c-.3,1.3-1.2,1.8-1.2,3.5s3,1.8,3.8,2.4c1.5,1.1,1.8,1.9,1.8,3.8,0,.3.1.6.3.9l-25.3,28.8-32.1-33.2-14.4,12.4-3.2-3.2-3.5-15,22.4-4.1,1.2-18.8,17.1-4.1-6.2-13.5,8.5-7.1Z"/>
  <path id="014" class="cls-1" d="M472.2,140.1l-1.6,21.1,38.8,5.3-.5,33.7-6.2,16.6,7.5-1.1,12,4.3,8.8,4.3h11.2l10.7-9.1v-5.9l5.6-3.5,4.3.3,3.8-4.8c-.1-1.7,0-3.4.5-5.1.3-1.4,2.5-.5,2.9-2.1s.8-2.1,1.1-3.2c.2-.6,3.5-.3,4-.3,2.1,0,1.7-1.1,3.2-1.9s.2-2.1,3.2-2.1c.6,0,1.3,0,1.9-.3.6,0,1.3-5.3,1.3-6.1v-9.3c0-.4-2.3-1.5-2.7-1.9-.8-.8-1.2-2-1.1-3.2,0-1.4.2-2.7.5-4,.4-1.8-.4-3-1.1-4.3-.8-1.6-1.3-3-2.9-3.8-1.1-.6-2.4-.6-3.2-1.1-1.9-1-1.9-2.4-3.5-3.2s-1.7-1.9-3.2-2.7c-1.1-.6-2.1-1.6-2.7-2.7-.8-.8-1.4-1.8-1.6-2.9-.3-1,.5-2.4.5-3.7s-2-2.2-2.4-2.7c-1.2-1.2-1.1-2-1.1-4s-.3-2.4-1.6-3.7c-1-1-2-.9-3.2-1.9-.9-.7-1.9-1.1-2.9-1.3-1.3-.3-1.3-1.1-3.2-1.1s-1.7,1.9-1.9,2.1c-1.3,0,1.5,2.3,2.4,3.2s1.5,1.2,2.1,1.9.5,2.2.5,3.5c0,2,.1,2.1-1.9,2.1s-2.1-.3-3-1.1-2.4-.5-3.7-.5h-8c-1.7,0-2.7-.5-2.7,1.3v4c0,1.5-1.7,1.3-2.4,1.1-1.2-.3-1.6-.8-3.2-.8s-1.2,1.7-1.6,2.4c-.5,1-.3,2.5-.3,3.7v.5l-53.7-6.2Z"/>
  <path id="015" class="cls-1" d="M646.1,405.9l-12,10-9.4,51.8-16.3-14.6-10.9-3.4-.3-5.1-17.5,6.6-15.7,7.7-7.7-3.4-6.3,6,1.2-8.3h-6l-2.6,2.6-21.5-21.2,2.3-11.4,13.7-8.6,7.2,4.9,1.1-17.2-18-13.2,5.7-4-4.3-5.1,4.6-9.1,5.7,2,45.5,17.5,58.7,12.9,2.9,2.8Z"/>
  <path id="016" class="cls-1" d="M396.1,539l-9.7-9.3c1.9,0-2.4,2.8-3.7,4.1-.6.5-4.7,0-5.6,0-1.4,0-.6,3.1-1.9,3.7s-4.5,0-6,0c-2.6,0-3.2,0-4.1-1.9-.7-1.4-1.1-2.9-1.1-4.5,0-.4,2-2.6,2.2-3.7.2-.8-2.2-3-2.6-3.7-.7-1.4-2-2.2-2.6-3.4-.8-1.5-2.3-2.4-3-3.7s-.2-3.8-.8-4.9c-.3-.6-5-.7-5.2-.8-1.8-.4-2.2-3.3-2.2-4.8v-8.2c0-2,5.5,2.2,5.6,2.2,1.4,1.4,2.6,1.1,4.8,1.1s.7-4.6.8-4.8c.3-1,2-2.8,2.6-3.4,1.3-1.3,3.4,1.9,4.1,2.6,1.1,1.1,1.1,1.5,3,1.5l13.1-9.7,7.5,7.5,22,40.3c1.6,1.6-4.5,0-6.7,0s-1.6,2.1-3.7,0c-1.4-1.4-1-1.2-2.6.4-1.2,1.3-2.5,2.4-4.1,3.3Z"/>
  <path id="017" class="cls-1" d="M145.4,771.1l-4.5,9.1,2.6,4.7-3,8,14.2,2.3,2.3,5.8-7.5.3-4.7,22.9,5.6,10.7,6.3-3.8h10.8l13.1,4.5,3-14.5,3-4.9-2.3-18.7,5.4-.2,5.6-6.3-4.7-2.3-4.4,4-7.4-5.8-10.8-4.5-4.4-14.9-9.3,11-4.9-3.5v-.9c0-.8.4-1.5,1-1.9.6-.6.4-1.8.4-2.6s-.8-.9-1.8-.9c-.8,0-1.5.5-1.8,1.2-.6,1.2-1.1.6-2.6,1.4"/>
  <path id="018" class="cls-1" d="M511.1,597.2l-12.7-9v-7.8l-11.2-10.8-17.6,6-6.3-3.4c-.6.5-1.2,1-1.9,1.5-.4.3-3.5-.6-4.5-.4-1.2.3-2.4,1.7-3.4,2.2-1.8.9-2.3.5-4.1,0-1.6-.4-2.5-2-3.7-2.6s-1.2-1-2.2-1.5l-.4-3.7,6.3-.7c-1.5-.8,2.6-2.8,2.6-4.5s2.8-2.3,4.1-2.6.9-2.8,1.9-3.7c1.2-1.2.4-2.8,0-4.5-.6-2.5.9-2.8,1.9-3.7s2.5-1.8,3.4-3c.7-1,.8-3.3,1.1-4.5.4-1.8,2.1-2,3.4-2.6,1.5-.7,2.7-2.1,3-3.7.5-1.9,1.1-2.1,1.5-3.7l11.6,9.7,5.2-.4,7.8-5.6,5.6,6.3,14.6-6.3,4.1,3.7,3,8.6,7.5-.4,11.2,15.7c.2-.6-.5,1.5-1.1,1.5-1.8,0-1.1,2.8-1.1,4.5,0,2.5-.8,2.5-2.6,3-2,.5-2.6,1.3-2.6,3.4s-.8,3.1-.8,4.9c.1,1.3,0,2.5-.4,3.7-.4,1.5-2.8-1.2-4.1-1.9-1.8-.9-2.7-2.2-3.4.4-.3,1.3-1.2,1.2-2.2,1.5l-13.5,14.6Z"/>
  <path id="019" class="cls-1" d="M477.6,314.4l1.1-16.6,14.7-8.3,22.2-1.6,19-3.2,4-5.3,1.1-.3c.9-.2,2-1.2,2.7-1.6,1.5-.7.6-1.3,2.9-1.3s1.9-.9,3.5-1.3c1.8-.5,2.4,0,2.4,1.6s2,.8,3.2.8.8,1.6,2.7,1.6,1.9.2,1.9,2.1v4.3c0,.8-.1,1.7-.5,2.4l-16.9,6.2-6.7,6.4v3.2l-12,11-39.3,3.4-5.6-.3-.3-3.2Z"/>
  <path id="020" class="cls-1" d="M447.1,424v-15.6l.4-6.6-10.9-5.8-12.1-5.5-24.5-8.2c0,2.7.6,3.5-2.3,3.5s-4.4.5-6.2,0c-1.5-.4-4.3-.4-5.5-1.6-1-1-1.8-2.2-2.3-3.5-.6-1.3-1.4-4.3-3.5-4.3s-2.7-.9-2.7-3.5-.5-2.9-2-4.3c-1.2-1.2-4.7,0-4.7-1.6s-.2-6.2,0-6.2c2.3-.6,2.8-.4.8-2-.8-.6-2.2-5.2-2.7-5.1-1.9.5-2.9.6-4.3,2-1.7,1.7-2.4.6-3.9-2.3s-2.5-1.3-3.9-2.7-4.3-.4-4.3-2l3.9-13.6v-3.1c0-2.2-.4-4-.4-6.2s.6-6.2,0-6.6c-1.8-1.4-2.3-1.4-2.3-4.3s-.6-5.2,0-5.8c1.4-1.4,3-.6,2.3-3.1-.3-1.1.3-4.3-.4-5.5l-1.1-1.9-1.2-21.8-11.7-14.8-6.6-2.3-11.7-7.8-12.5-13.2-7-2.7.4,6.2-6.2,8.2-1.2,15.6-7.4-5.8-1.9-10.1-4.3,1.9-9.4-10.9,3.1-5.1-14-6.2,27.3-49.4,10.9-17.5,65.4,14.4,46.3,88.8,79.8,23-14,8.6-1.6,16.8h-.7c-.9-.1-1.8-.1-2.7,0-.8,0-1.6-.1-2.3-.4-.8-.2-1.7-.2-2.5-.2-1.1,0-1.2.6-1.4,1.4-.2.6-1.5.5-2.1.5h-2.7c-1,0-1.7-.2-2.5-.2-.7-.1-1.5.2-2,.7-.5.4-.9.9-1.2,1.4-.3.5-1.3.9-1.8,1.2-.7.5-1.4,1.1-2,1.8-.6.6-.7,1.4-1.2,2s-1,1-1.4,1.4c-.3.2-.6.4-.9.5l-12.3-7.1-3.6-.9-5.3,3.9,13.7,21.4,5.2,1.1-.2,6,2.5,5.2-3.2,4.5-.7.5c0,.9.1,1.8.3,2.7.2.9.6,1.1,1.8,1.1s1.8.4,2.8.4.7-1,.7-2,.3-1.4,1.6-1.1c.8.2,1.7.2,2.5.2l11,5-3.7,6.4,7.7.4.9,3.6,7.3,2.7,3,8.7-8.5-5.9-4.7,1.8,16.8,41.7-38-.5Z"/>
  <path id="021" class="cls-1" d="M404.7,490.8l.4-10.8-16.8-26.9-8.2-.4-4.8,3.4-9-2.2,17.6,32.9,6,6.7,23.5,42.2-.4,9.3,6.7-3.4,4.8,5.6,14.2-1.1,7.1-6.3c-1.4,1.4-3.1-2.4-4.5-3.7-1-1-.9-2.7-2.2-4.1-1-1-4.2-.4-5.6-.4-2.1,0-3-1.7-4.9-2.6-1.5-.6-2.9-1.5-4.1-2.6-1-.9-2.1-1.7-3.4-2.2-1.2-.6-.4-2.3-3-3-1.5-.4-1.1-2-1.1-4.5s-.4-3.2-2.2-4.1c-2.5-1.2-1.1-2.3.4-3,1.3-.6,3.7-.3,4.9,0,.8.2,2.6,2.6,3,3,.7.7,1.6-.5,2.6-1.5s3.4-.7,4.9-.7-.5-2.8-.8-3.4-3.2-1.3-3.7-1.9c-1.5-1.5,1.1-2.6-2.6-2.6s-1.7-1.6-3-2.2c-2-1-1.7.6-2.2,2.6-.5,2.2-2.1-.4-3.4-1.1s-1.8-2.4-3-3,2.5-.9,3.7-1.5c2-1-2.3-2.9-2.6-3-2.5-.6-3.5,1.1-4.1-1.5-.2-.9-3.1-1.6-4.1-1.8Z"/>
  <path id="022" class="cls-1" d="M588.2,238.7l-12,8.8-8.3,9.1-6.1,7.8-6.7,12.8.3,1.3c.2,1.2,2.6,0,3.5.8.4.4,0,3.6,0,4.3,0,1.3,0,2.5.3,3.7.3,1.3,2.7,0,4,.3,1.1.4,2.3.6,3.5.5,1.3,0,2.3,1.4,2.7,2.1s1.6-1.2,1.9-2.1c0-.2,5.2,0,5.9,0h12.8c1.4,0,1.4,1.6,1.6,2.7,0,.4,1.9.1,1.9,2.4v5.9c0,1.8,2.2-3,3.7-3.7,1.4-.7,3-1,4.5-1.1,1.4-.2,2.7-.6,4-1.1,1.2-.3,1.6-1.3,2.4-2.1.4-1.3.8-2.6,1.1-4,.4-1.7,0-2.4,1.1-3.5.8-.9,1.7-1.6,2.7-2.1,1.1-.5,1.3-2.7,1.6-3.2.8-1.5,1.7-1.4,2.1-2.9.3-1.1-1.9-1.9-2.4-2.1-1.1-.5-2.8-.2-4-.5-1.4-.4-.5-2.3,0-2.9,1-1.3,2.1,0,2.1-2.1s-.8-1.8-1.1-2.9c-.1-1.3-.1-2.7,0-4,0-.3,2.8-.9,3.5-1.1.9-.2.8-1.6,3-1.6s2.4.9,2.4-1.3,2-.8,3.2-.8.9-2.2,1.9-2.7c1.5-.7,1.3-2.1,1.1-3.2-.3-1.3-1.7-1.4-2.7-1.6-1.5-.4-2.5,0-3.5-.5s-1.5-1.2-2.4-1.6l-10.7-5.9-9.6-2.1-9.1.5Z"/>
  <path id="023" class="cls-1" d="M225.3,129.4c-.4,1.3,1.4,5.9-1.7,5.9s-4.3-.4-5.9,1.7,0,3.1-3.8,2.1c-.8-.2-3.4,2.1-4.6,2.1-2.4,0-1.6-2.3-4.6-.8-1.3.6-1.1,4.7-1.3,5.5-.3,1.1-4.2,1.7-5,2.1-.6.3-1.5,5.6-1.7,6.3-.5,2-3,1.9-4.2,2.5s-2.9,5-3.8,5.9c-1.9,1.9-2.5-.6-2.5,3.8s1.7,5-1.3,5-.4,3.8-1.3,5.5c-.4.7-3.4.5-4.2,2.1s-5.1-3-5.5-3.4c-1.8-1.8-3.1-1.7-5.9-1.7s-2.3,2.4-5.5.8-3.3-1.3-5.5.9c-1.8,1.8-2.1-2.6-2.5-3.4l-.4-.9c0-.1-1.6,4.1-3.8,6.3-1.4,1.6-2.5,3.5-3.4,5.5-.8,1.6-1.6,3.3-2.1,5-.5,2-3.9,3.4-5,4.6s-2.9,3-3.4,5.1c0,.2,2.7,5.5,3,5.9.9,1.2-3.1.6-4.2,1.7s-1.5,2.7-2.5,3.8c-1,1.3-1.9,2.7-2.5,4.2-1.1,2.1-1.5,4.3-2.5,6.3-.8,1.9-1.8,3.7-3,5.5-1.3,1.8-1.5,4-3,5.9s-2,4-3,5.9c-1.1,1.9-2.6,3.6-4.2,5-1.9,1.9-3,.8-4.6,0-2.2-1.1-1.5-2.1-4.6-2.1s-.9,4.1-.4,4.6c1.8,1.8,2.5,1.3,2.5,4.6s-3.5.8-5.1.8-1.5,4.4-1.7,4.6c-.4.5-.8.9-1.3,1.3l36.7,18.5-35.8,105.4,5.9-3.8,23.6,13.5-7.6,7.6,3.3,4.7-5.9,58.5,24.4,6.3-16.9,21.9h-11l-2.1,18.5,12.6,24.4,18.5,13.9,21.9.4,31.2.4,5,3.4,1.7-3.4,29.5,19-1.3-38.3,6.3,7.2,5.5-.8.4-5.9,7.2,2.5,8.9-16,13.5,9.3,6.7.4,11.4,11.8,24,4.2-5-21.5-13.4-12.2,7.6-12.2,9.7,6.3,2.5-3.4-3.8-4.6h27.8l7.6,5.9c-.7,1.3,3.3,0,4.2,1.3,1.6,2.2,1,2.1,4.6,2.1s2.5-1.7,2.1-3.4c-.6-2.5-.6-3.3,1.3-4.2s1.8-.6,4.2,0,0,3.4,3.8,3.4,2.4-2.8,2.9-3.4,4-1.4,4.6-1.7c1.5-.8,2.7-1.8,4.2-2.5,1-.3,1.8-1.1,2.1-2.1l-18.1-33.3-10.5-8.4-8-14.7-3-16.4-8,6.7-3.4-7.6,7.2-20.6-6.7-7.1-6.3-.8-4.6,2.1-5.5-6.7,7.6-2.9,5.9-9.7-11.4-9.3-9.3,5.9-6.3-7.6v-10.9l-9.7-26.1-8.9-13.5,11-9.3-5.9-36.2-3-11-3.9,1.7-9.7-11.4,3.4-4.2-13.9-6.3,27.4-49.7-27.4-26.5-16.9-8-21.1-16Z"/>
  <path id="024" class="cls-1" d="M436.8,939.9l-1-9.7h-20.4v5.8l-12.1-4.4-12.1-18.4.5-6.3-24.2-13.1-5.3,5.3-35.4-11.6-23.8-1.5-16,1-14.5-23.3-6.8-2.9-16.5-20.8-.5-18.9-14.1-2.4,1.5-7.3-19.4-5.3,2.4-12.6,13.6,3.9,7.8-14.5h13.1c.3-.8.6-1.6,1-2.4.6-1.6-3.1-1.7-4.4-2.9-1.7-1.6-3.7-2.9-5.8-3.9-2.6-1.3-3-2.4.5-2.4s4.9,1,4.9-2.4-.1-4.3,1.5-5.8c1.9-1.9,5.1,1.5,7.8,1.5h10.1l6.3-18.4,12.6.5,3.9,17.9h7.3l1-10.7,10.7,1,1.5,8.7,4.8-.5,6.8-25.7-1.9-6.8c.9,0,.7-1.6,1-2.4l5.3-10.7,24.7-.5,7.3-7.8,19.9,8.2,8.2-5.3-3.9-3.9h-6.3v-7.8l2.4-3.9-10.7-14.5-27.6-33.5,17.9,9.2,13.1-3.9,4.4,7.8,6.3.5,4.4-5.3,2.4,14.1,8.7-5.8-1,11.2,2.4,8.2h-11.6l-4.8,17,13.6,3.9.5,10.2,4.8,12.6-6.3,3.4v4.8l6.8,9.2,2.4,11.2-.9.2c-.4,0-.2,2.4-.2,2.8v3c0,1.3.2,2.4.2,3.6v3c0,.6-1.8,1.2-2.2,1.4-1.2.6-1.6.1-1.6,1.6v3c0,1,.2,1.9.2,3,0,1.1,0,2.3-.2,3.4,0,.3-3.2-.2-3.2-.2-.7-.2-1.3-1.3-1.6-1.8-.5-.8-1.2-1.5-2-2-.8-.6-1.9-.7-2.8-.4-.4.1-1.3,1.2-1.8,1.4-1,.5-.8,1.2-.8,2.4,0,.9,0,1.9.2,2.8.3,1.1.7,1.4.4,2.4,0,.2-2.3.3-2.6.4-.9.2.9,1.7,1.6,2.4.4.4.2,2.1.2,2.8-.2,1.1-.7,2.1-1.4,2.8-.6.8-1.2,1.5-1.8,2.2-.6.6-.7.9-.4,2.2.2.8,1.2,1.4,2.2,1.6,1.3.5,2.4,1.1,3.4,2,1,.7,2.1.8,3,1.2s2.1.3,2.6.6.6,2.2.8,2.8c.2.9,2.5,1.5,3,1.6,1.1.3,0,2.1,0,2.2-.6,1.1-1.1,1.2.8,1.6,1.1.3,1,.8,1.6,1.4.8.8.7,1.2,1.6,1.6.7.3,2.5,0,3.2,0h6.7c1.4,0,1.6.3,1.6,1.6v6.5c0,1.4-.1,1.5-1.2,1.8-.7.2-1.2,1.1-1.4,1.6-.5,1,.3,2.4.6,3,.3.9.3,1.9,0,2.8-.2.9-1.9.4-2.8.4-.9,0-1.8.4-2.6.8-.3.2-.4,2.1-.4,2.6v1.2c0,1.7,1.4,1.2,2.4,1.4s.6,1.5.6,2.6,1.3,1.5,1.6,1.8c.8.8,1.2,1.3,2.2,1.6.9.3,1.7.4,2.6.4,1.1-.1,2.2,0,3.2.4.9.5,1.6,1.3,2,2.2.6.8,1.3,1.5,2,2.2.8,1.1.1,1.3,1.6,2,1.1.6,1.2,1.2,1.6,2,.6,1.2,1.4,1.9,1.6,3,.2.9,0,1.8-.4,2.6-.4.8-1,1-1,2.2s3,.2,3.2.2c1-.1,2,0,3,.4,1.2.6,2.7.3,1.2,1-.5.2-1.2,2-1.6,2.4-.7.6-1.2,1.2-1.6,2-.3.6-1.2,1-1.6,1.4-1,1-1.7,0-2,1.4s.7,2.1,1.2,2.8c.8,1.1.8,2,2.2,3,.9.7.6,1.7.6,2.8s2.3.8,3,1c1.5.4,2.4.1,3,1.6.4,1,.5,2.1.4,3.2,0,1-.7,1.5-1,2.2s-.8,1.1-1.2,2c-.3.7,0,2.4.2,3,.4,1.5-.2,1.4,1.4,1.8.9.2,2,1,2-.4s.8-1.8,1.6-2.6,1.2-.6,2.4-.6h9.6c1.2,0,2.2.8,2.2,2,0,.1,0,.3,0,.4,0,1.1-.9.9-.6,2.2.2.8,2.5.8,3.2.6,1.3-.2,1.6-1.1,1.6-2.2s.2-1.8.2-2.8.4-1.6,1.8-1.6c1,0,2,0,3,.2,1.8.5,1.8.8,2.2,2.6.1,1.1.1,2.3,0,3.4,0,.9-.2,1.7-.2,2.8,0,.9-.4,1.8-.8,2.6-.8,1.5-1.5.8-3.2.8s-2.1-.9-2.6-1.2c-.8-.5-1.8-.5-2.6,0-.5.2-.7,1.9-1,2.2,0,0-.3,0-.4,0l.6,7.9-13.5,13.5.4,8.1-7.9,6.4Z"/>
  <path id="025" class="cls-1" d="M566.9,201.1l12.8,18.2,5.9,1.3-.5,12.8,2.7,5.3,9.3-.5,9.9,2.1,10.4,5.9.5-1.3c.4-1.1,0-3.6-.3-4.3s-1.4-1.7-1.9-2.1c-.7-.7-2.8,0-3.5-.8-.9-.9-1-1.5-2.4-2.1-1-.5-1.9-1.4-2.4-2.4-.6-.9-1.2-1.9-1.6-2.9-.5-1.1.2-2.3.5-3.5.4-1.2.9-2.4,1.6-3.5.7-1.5-1.6-2.9-2.4-3.5-1.1-.8-2-1.7-2.9-2.7-1-.8-1.6-1.9-1.6-3.2,0-1.1,2.3-2.1,2.9-2.7.3-.3-2-2.8-2.1-2.9-.6-.9-1.2-1.8-1.9-2.7-.8-.8-2.1-.8-3.5-.8s-1.9-1.4-2.1-2.4c-.5-1.8.7-2.3-.5-3.5-1-1-1.5-.9-1.9-2.1-.4-1.6,1-1.9-.3-3.2-1-.8-2.1-1.4-3.2-1.9-1.4-.7-1.7-1.4-2.7-2.4-.9-.8-1.6-1.8-1.9-2.9-.2-.3-.5-.6-.8-.8-.5-1.9-2.9,2.1-2.9,2.1-.2,1-2,.6-2.9,1.1-1.1.6-.4,1.8-1.6,2.4s-3.1-.3-4-.3c-1.3,0-.8,2-.8,3.2s-1.6,1.1-2.9,1.1-.8,2-.8,3.2c0,.9,0,1.8-.3,2.7Z"/>
  <path id="026" class="cls-1" d="M523.3,423.4l-2,11.1,21.2,21.2,2.9-2.6h5.7l-1.7,8.6,7.2-6.3,8,3.1,15.7-7.7,16.9-6.3.3,4.9,10.9,4,16.9,14.3-44.1,12-25.8,27.5,2,4-.6,16.6-9.4,9.4-6-14.6-4.9-8.3-13.4-7.7-.3-6-1.2-.9c-1-.7-1.3-2.7-2-3.4l-2.3-2.3c-.9-.9-1.5-2-2-3.2-.5-1-2-1.7-3.2-2.3-1.9-1-2.2-1.7-4.6-1.1-2.6.6-1.7-1.3-2.9-2.9-.8-.9-1.6-1.8-2.6-2.6-.8-.8-1.7-1.6-2.6-2.3-.9-.7-1.7-1.6-2.3-2.6-.6-1-1.5-1.8-2.6-2.3-1.2-.6-2.3-.7-3.1-1.1-1.2-.6-1.8-1-3.2-1.7l-4-2c-1.2-.4-2.3-1.1-3.2-2-.7-.7-.3-3-.3-4,0-1.4,0-2.9-.3-4.3-.2-.9-1.8-1.5-2.3-2-.6-.6-.2-2.6-.6-3.4s-3.9-.3-4.6-.3c-2.3,0-3.6.1-4-1.4-.5-1.9.4-1.8-1.7-2.9-1.6-.8-2.5-.2-3.4-1.1-1.2-1.2-1.8-1.1-4-1.1h-14.3l-12.9-20.6-2-10.3,16-8.3v15.7l38.6.9,21.2-1.1,16.6-.2Z"/>
  <path id="027" class="cls-1" d="M595,813.5c1.1-.5,4.3-.8,6.8-.8h6.7c3.3,0,1.2-1.2,0-2.4-1-1.2-2.4-2.1-4-2.4-2.1-.5-3.8-.1-5.2-.8-1.8-.9-2.3-1.1-2.8-3.2s-2.8-1.6-4.8-1.6c-3.6,0-3.2-1.1-4.8-3.2-1.1-1.3-2.5-2.4-4-3.2-1.6-.8-2.3-2.7-4-4.4s-2-2.8-4.8-2.8c-2.3-.1-4.5,0-6.8.4-1.2.3-2.5-3.1-2.8-3.6-1.1-2.2,1.4-3.1.4-5.2-.8-1.6-2.4-2.2-3.6-2.8-1.7-.8-2-2.8-3.2-4-1.7-1.7,1.8-3.2,2.8-4,1.4-1.1-2.8-3.4-3.2-3.6-1.4-.7-2.1-2.1-3.2-3.2-1.6-1.6-2.2-1.7-2.8-4s1.1-3.1,2-4c1.4-1.4,1.2-3,1.2-5.2s2.8-2.1,3.6-3.6c.8-1.9.5-4-.8-5.6-1-1,1-3.1.4-4.4-.9-1.7-2.7-1.6-4.8-1.6s-3.6,0-4.8-1.2-2.4-2-3.6-3.2c-2.3-2.3-.2-2.6,1.6-4.4s1-2.6-.4-4c-1.8-1.8-2.8-2-1.6-4.4.7-1.3.4-4.1.4-5.6s-2.7-2.6-3.2-3.2c-1.1-1.3-2.5-2.4-4-3.2-2.3-1.2-2.7-.3-4.4-2-1.5-1.5-.4-4.3-.4-5.2s-3.8-1.8-4.4-2l-4.8-1.2c-1.6-.4-2.6-2-3.2-3.2-.5-.9-2.5-2.2-3.2-2.8-1.3-1.3.2.4-.4-.8l-5.9,1.9-4.8-6.2-2.6-1.9c-.2-.3-.3-.5-.5-.8-.3-.7-1-1.1-1.7-1.2-.7,0-1.4-.4-2-.8-.5-.4-1-.9-1.4-1.4-.4-.5-.9-1-1.4-1.4-.7-.5-.8-1.2-1.5-1.7-.5-.5-1-1-1.4-1.5-.4-.5-1-.9-1.5-1.2-.7-.4-.7-.6-1.9-.6-.8,0-1.6,0-2.3-.2-.7-.2-1.3-1.1-1.5-1.4-.4-.4-1-.7-1.6-.8-.7-.2-1.4-.3-2.2-.3-.7.1-1.4,0-2-.2-.7-.3-1.4-.4-2.2-.3-.5,0-1.1,1.1-1.2,1.2-.7.7-1.1.4-2.2.2-.7-.1-1.5-.2-2.2-.2-.9,0-1.5-.2-1.5.8s0,1.4-.5,1.9c0,0-.1.2-.2.3-.4.5-.9,1-1.4,1.4-.4.5-.8,1-1.1,1.5-.3.3-.7.5-1.1.5l-11.7-.3-8.3-11.9-9.5,12.9-15.5-10.6-4.2-14.6-2.9,18.6-17-4.5-.2,10.7,1.4,7.9-11.2.5-4,16,13.4,4.5.9,11.6,4.5,11.1-6.7,3.5v5.8l7.6,8,2.2,11.1,4.9-3.1,17.8,7.6,4.9-9.3-2.2-5.8,3.1-2.7,4,6.7,6.7-.4,6.2,2.7-17.8,8.9.5,20h22.7l-9.3-12,18.7,1.3-3.6,12.5-8.5,7.2,8.9,8,2.2-4.9,4.9-.5c.3-.6.6-1.2.9-1.8,1.3-2.7-2-5.2,2.7-4,3.1.8,3.5,3.9,4,5.8,0,.2,6.8,0,7.6,0h7.1c1.1,0,1.3,2.2,4.5,2.2s3.5,1.6,4,3.6c.3,1-4.7,1.5-5.8,1.8s-3.4,3.9-4,4.5c-1.9,1.9.3,4.3.9,4.9,1.5,1.5,4.4.3.4,2.2-2.1,1.1-3.1.3-3.1,3.6s.5,4.5-2.7,4.5h-6.7c-2.4,0-.1,4.7,0,4.9.2.4,6,0,6.7,0h10.2l32-9.3h1.8c2.1,0,.4-6.2,2.7-1.8.7,1.4.4,4.1.4,6.2s2.9-3.3,3.1-3.6c1.6-1.6.2-4.7,3.1-1.8,1.6,1.6.8,3.8,2.2.9,1.2-2.3,2.8-2.4,4-2.7,2.1-.5,2.9,3.3,4.5,4.9s3.3.7,4.5-.5c1.7-1.7,1.8-2.7,4.9-2.7,2.4,0,4.8,0,7.1.5,3,.6,4,.2,4-2.7s4.4-1.8,5.8-1.8c2.9,0,1.7,2.3,4.5.9,2.5-1.3,3.2-1.5,5.8-.5,3,1.2,1.5,4.1,5.3,3.1.8-.2,1.5-.3,2.3-.5Z"/>
  <path id="028" class="cls-1" d="M477.7,317.7l-8.9,1.3v14.7l1,.8c1.2.9,1.7.7,2.9,1.8s2.7.4,3.4,0c1.1-.3,2.3-.3,3.4,0,1.5.4,1.6,1.1,1.8,2.1.2.7-.3,2.9-.3,3.9,0,1.8,0,2.3.8,3.1,1.2,1.2,2.7,1.6,3.9,2.9.4.4.7.8,1,1.3.3.7,2.7.5,3.9.5s3.2,1.6,4.2,2.1.5,2.1.3,3.1-2.5.5-3.4.5c-1.7,0-1.6.7-1.6,2.4s.1,2.4-1.3,3.1c-1.8.9,1.8,1.8,2.1,1.8.7.2,2.4,1.7,3.2,2.1,1.5.7,2.2.3,2.6,2.1.4,1.1.7,2.2.8,3.4,0,1.9.1,2.1-1.8,2.1s-1.3,2.1-1,2.9c.2,1,2.9-.4,2.9,2.4s.3,2.5-1.3,2.9c-1.2,0-2.5,0-3.7-.3h-4.1c-1.9,0-2-.2-2.9-1-.9-1-2.1-1.5-3.4-1.6h-3.4l2.9,8.6-8.9-6-4.5,2.1,16.8,41.4,21.2-1,16.8.3,14.4-9.4,7.3,5.5.8-17.6-18.1-13.4,5.5-3.4-4.2-5.6,4.5-9.2,5.2,1.8-2.9-11.8-10.5-5.5-.3-14.2-2.4-1.8.5-24.9-38.3,3.4h-7.1Z"/>
  <path id="029" class="cls-1" d="M424.4,563.2l-17.6,9.3-7.4-10.5-10.8-1.1v-1.9c0-1.9,0-3.8.4-5.6,0,0,2.7-.9,3-1.9s-1.4-2.5-1.1-3.7,2.4-3.9,3-4.5c.9-.9.9-2.8,1.9-3.7,1.2-1.1,2-1.7,3-2.6,1.7-1.7.7-2,3.4-3.4,1.5-.8.8.5,1.9,2.6.2.3,4.3-.8,5.2-.8h3.7l.4,9,9,8.6,2.2,10Z"/>
  <path id="030" class="cls-1" d="M564.9,881.9c-2,.8-2.3,1.3-2.3,4s.3,4.4.3,6.7v5c0,2.1,0,3-1.3,3.7-.3.2,0,4.5,0,5,0,2,1.2,2.3,2.7,2.7s3.4,2,4.3,2.7c1.5,1.1,1.5,2.2,3,3,1.4.8,2.7,2,3.7,3.3,1.2,1.7,1.7,1.4,1.7,4s-1.4,1-1,2.7c.3,1.1,3.2,2.1,4.3,2.7s-.8,1.5-1.3,2.7c-.8,1.7-1.7,3-2.3,4.3-1.1,2.1-1.3,1.1-1.3-1s-.3-3.2-.3-5-1.9-2.1-3-2.3c-.3,0-2.2,2.9-2.3,3-1.3,1.1-2.5,2.4-3.7,3.7-1,1-2.1,1.9-3.3,2.7-1.4,1-2,1.5-2.3,3s.4,3.3.7,4.3c.3,1.4,1,2.7,2,3.7,1.1,1,2.3,1.7,3.7,2.3,1.4.7,2.6.9,3.7,2s1.5,1.8,2.7,3,2.9.9.7,2c-1.1.7-2.2,1.6-3,2.7-1.3,1.3-1.5,1.4-3,.7-1.1-.5-2.1-1.2-3-2-1.7-1.8-1.7-.5-1.7,1.7v5.3c0,2.3-.5,3,2,3s3.8,1.2,5.7,1.7c1.3.3,1.3,1,1.3,3,0,2.9.8,4.2-.7,5.7-1.1,1.1-1.3,3-2,4.3s-2.7-1.3-4-1c0,1.7,0,3.3,0,5,0,2.3,0,2.9-1,4s-4.2,0-5,0c-2.7,0-2.7-.3-4-1.7l-3-3c-1.4-1.4-2-1.8-4-1.3-1.4.3-3,2-4,3-1.1,1-2.5,1.4-4,1.3-2.1,0-4.1-.9-5.7-1.3s-3.4-.3-5.3-.7-3.5-.5-5.3-1-2.9-1.3-4.7-2c-1.4-.6-2.6-1.3-3.7-2.3l-2.7-2.7-3.3-3.3c-1.2-1.2-1.4-2.1-2.3-3s-.8-3.6-1.3-4.7c-.7-1.4-1.3-2.8-1.7-4.3-.4-1.5-.6-2.9-1-4.3-.4-1.4-1.2-2.7-2.3-3.7-.9-1.1-2-1.9-3.3-2.3-.6-.1-2.6-2.7-3-3-1.4-1-3.6-1.5-4.7-2-1.3-.5-2.6-.8-4-1-1.8-.5-3.1-1.5-4.7-2.3-1.8-.9-3.5-2.1-4.7-2.7s-3.2,1.5-3.7,2c-1,1-2.7,1.4-4,2-1,.5-3.8,0-5,0-2.1,0-3.2-.3-4,1.3,1,.6,2,1.3,3,2,1.6,1.6.4,1.6-1,2.3-1.3.8-2.4,1.8-3.3,3-.9,1.1-2.2,1.8-3.7,1.7h-5c-1.4,0-3.1-1.7-4.3-2.3-1-.5-2.9.7-4.3.7s-2.6-1.2-4.7-.7c-2.5.6-2.9,1.1-4.7-.7s0-3.1,1-3.3c1.8-.3,3.6-.9,5.3-1.7,1.5-.8-.6-3.8-.7-4-.3-.7,0-2.5,0-3.3l7.3-6.7v-8l14-14.7-.3-7.3c-1-2.1,4.7,0,7,0s1.6-1.5,2.3-3c.6-1.2.3-3.6.3-5,0-2.2.2-3.1-1-4.3-.5-.5-4.2,0-5,0s-1.5,3.1-1.7,3.7c-.3,1-2.5,2.3-3.7,2.3s-1-2.8-1-4c0-1.7-2.8-1-4.3-1s-3.5-.3-5.3-.3c-1.5,0-3,.3-4.3,1-2,1,1.4,3.9-2,3-2.4-.6-2-2.2-2-4.3s1.3-2.2,1.3-4.3,0-3.3-.7-4.7c-.2-.5-4.5-.9-5-1-1.4-.3-.7-2.8-1.3-4s-1.9-.8-2.3-2.7c-.2-.8-.3-1.5-.3-2.3-.3-1.2,6-1,6.7-1,1.9,0,3.8.3,5.7.7,1.7.3,3.9,0,5.7,0s2.5.6,3.3,2.3c.5,1.1,2.8.7,4.3.7h5c2.3,0,1.7-1.8,1.7-3.7s4.4-.3,5-.3c2,0,1.3-2.4,1.3-4s-.3-3.2-.3-4.7c0-2.5,0-2.5,2-3,.7-.2.3-4,.3-4.7v-5c0-1.1,3.4-.7,4.3-.7h5c2,0,1.3-2.4,1.3-4v-5c0-2.4,1.6-1.7,3-1,.7.3,1.5,3.2,1.7,3.7.6,1.2,3.5.7,4.7.7s.4-4.2.3-4.3c-.3-1-2.7-2-3.3-2.3-1-.5-1.5-2.2-2.3-3-.5-.5-4.2,0-5,0h-5.4c-2.2,0-2.9.2-3.7-1.3s-.9-2.3-2-3.3-2-1.2-2-3.3-1-2.5-1-4.3,3.1-.3,4.3-.3h5c2.2,0,3.2-.6,3.7,1.3s.3,2.2,2,3l8.3-1,8.3.3,31.4-9.7c.6,2.4,4.2-1.9,4.3-2.3.2-.6-.3-1.9,1,.7s2.3,2.7.7,4.3-.1,3.5.7.3c.5-2,.9-3,2.3-3.7,2.3-1.2,1.1-1.2,3.3,1,1,1,1.7,2.3,2,3.7.2.8,2.5.5,3,2.3.7,1.6,1.7,3.1,3,4.3,1.3,1.3,1.7,1.7.3,3s-1.7,2.1-1.3,3.3c.2,1,3.5,2.1,4,2.3,1.1.6,2.1,1.4,3,2.3,1.1,1.1,2.7.6,2.7,2.7s-.2,2.3-2.7,2.3-2.9-1.1-4-1.7c-1.6-.8-1.7-1.7-3.7-1.7s-1.5.5-2,2.3,1.5,2,3,2,3.2,1.9,3.7,2.3c1.2,1.2,3,.8,3,2.7s-.7,3-2.3,3c-1.5,0-2.9-.6-4-1.7-1.4-1.4-1.8-2.2-3.3-3-1.2-.6-3.8,1.4-4.3,1.7-2,1-2.2,1.1-2.7,3-.4,1.6,3.3,0,5,0s2.5,1.5,3,2c.9.9,1.5,2.1,2.7,3,2,1.5,2.3.7,2.3,3.7s.4,3.2-1.3,3.7-3.3.1-4.3.7c-1.6.8.5,3.8.7,4,1.3,1.3,2.2,1.6,2.7,3.3.4,1.2,0,2.5-1,3.3.5,1.9,3.9.8,5.7,1.7,1.2.6.3,1.7,3.3,1.7,1.6,0,3.2.3,4.7,1,2.1,1,4,2.4,4.7,2-.5.4-1,.7-1.6,1Z"/>
  <path id="031" class="cls-1" d="M289.6,259.9l5.7,37.6-10.1,8.7,8.8,14.4,9.6,26.2.4,9.6,5.2,8.3,9.6-6.6,11.8,9.6-6.1,10-7.4,2.2,5.3,6.6,4.8-1.3,6.1.9,7.4,7-7.4,20.1,3.1,8.3,8.3-7.4,3.5,17.5,7,14,10.9,8.7,8.3,1.3,5.2-2.6h8.3l16.6,26.7.4,10-.4.7c-.7,1.1,1.2,1,1.7,1.3,1.6.8,2-.3,2,1.5s.9,1,2,1.3c.7.1,1.5.2,2.2.1.5,0,1.5,1,2,1.3.5.4.8,1.2.6,1.8-.4.7-1.2,1.2-2,1.4-1.5.4-.4.8.6,1.4.9.5,1.6,1.1,2.2,1.8.6.8.1,1.3,1.3,1.5s1.2-.3,1.4-1.3-.2-1.2.6-2c.5-.5,1.9.5,2.2.8.8.8.4,1.5,1.4,1.5.9,0,1.9,0,2.8.1.7.2.7.5.7,1.4s0,1.5,1,1.7c1.1.3,2,.8,3,1,.3,0-.2,2.3-.3,2.5-.2.4-1.3.3-1.8.3-.7,0-1.4,0-2,.3-.7.4-.8.9-1.5,1.1-.7.2-1.5.3-2.2.3-.6,0-1.1-.8-1.5-1.3l-1.5-1.5c-.4-.4-1.8-.3-2.5-.1s-1.4.2-1.8.8-1,.4-1.4,1.1c-.5,1,.7,1.4,1.1,1.8.8.8,2.1,1,2.5,2,.1.8,0,1.7-.2,2.5,0,.9,0,1.8,0,2.7,0,1.3.1,1.2,1.3,1.8l.6.3c.8.4,1.5.7,1.7,1.5.2,1,1.1,1.7,2.1,1.7.9.2,1.7.6,2.4,1.3.8.8,1.3,1,2,1.7.7.6,1.4,1.1,2.1,1.5.6.4,1.4.4,2,.8.5.4.9.9,1.3,1.4.5.4,1.1.6,1.7.6h2.5c.9,0,1.4-.1,2.2-.1.9.2,1.9.5,2.7,1,.4.2.4,1.4.6,1.7.3.6.1,1.3.4,2s1,1,1.5,1.5c.5.4,1.1.7,1.4,1l11.5-8.2,5.1-7.5-7.5-7.7-6.3-1.5,4.2-11.1,4.3-18.8-5.9-1.9,3.6-10.9-6.6-9.4v-10l-2.1-5.4-13-20.8-2.1-9.7,16.6-8.5.3-6.4-12.4-6.9-11.5-4.8-23.6-7.9-.6,1.5c-.6,1.5.4,1.5-2.4,1.5h-9.1c-1.9,0-2.1-.9-3-1.8-.8-.8-1.4-1.9-1.5-3-.3-1.4-1.3-2.2-2.1-3.3-.5-.7-2.9-1.1-3.6-1.8-.4-.4-.4-3.7-.6-4.2-.6-.9-1.3-1.7-2.1-2.4-.8-.8-2.7-.8-3.6-1.2s-.9-3-.9-3.9c0-2.1,0-2.6.9-3.6,1.4-1.4.3-1.5-.9-2.1-.9-.5-1.3-2.2-1.5-3-.4-1.6-1.7-1.2-3-.9-.4,0-1.6,2.5-1.8,2.7-1.2,1.1-1.6-.4-2.4-1.2-.8-.9-1.4-1.9-1.8-3-.3-.7-2.5-1.3-3-1.5-1.2-.6-1.1-1.7-2.7-2.1-.6,0-1.2,0-1.8,0-.5-.1.5-4.6.6-4.8.4-1.5.6-2.5.9-3.6.4-1.5.8-2,1.2-3.6.4-1.3.6-2.6.6-3.9v-9.1c0-1.5.7-2.4.3-3.9-.3-1.1-1.7-1.5-2.1-3-.3-1.3,0-3.2,0-4.5,0-1.3.1-2.7.6-3.9.7-1.3,1.2-1.1,1.2-3.3v-4.3c0-.8-1.8-1.2-1.8-3v-13.6c0-1.4-.6-2.3-.6-3.9,0-1.1,0-2.2-.3-3.3l-11.8-15-7-2.1-11.5-7.9-12.1-13.3-7-3,.3,6.6-6.3,8.5-.9,15.1-7.3-5.9Z"/>
  <path id="032" class="cls-1" d="M477.2,314.3c-1.4,0-2.8,0-4.2-.3-1.3-.1-2.6-.1-3.9,0-1.7,0-1.5.8-2.4,1.6-.4.4-3.3,0-3.9,0-.9,0-1.8,0-2.6.3l-10.5,8.6-12.3-7.3-3.4-.8-5.5,3.9,13.6,21.2,5.2,1-.3,6.3,2.4,5-2.9,4.5c-1.5,0,.3,3,.3,4.5s3.7.3,4.2.3c1,0,0-2.6,1-2.9,1.2-.3,2.5.3,3.7.3l11,4.7-3.9,6.5,7.6.3,1,3.7,8.1,2.6c.4-.1.9-.2,1.3-.3,1.1-.2,2.3-.1,3.4.3.6.1,1.9,2.1,2.1,2.4.4.4,3.3,0,3.9,0h4.3c1.3,0,2.5,0,3.7-.5,1-.5,0-2.4-.5-3.4s-2.2-.3-2.9-1c-1-1-.5-2.1.3-2.9.3-.3,3.8-.2,3.9-.3,1-.2-.9-1.8-1.3-2.6-.8-1.6-.3-1.9-1.6-3.1-.9-.9-1.6-1.1-2.6-2.1-.7-.8-1.5-1.4-2.4-1.8-.9-.4-1.8-.8-2.6-1.3-.7-.7,1.4-1.2,2.1-1.8.2-.2.2-3.5.3-3.7.2-.9,2.5-.5,3.4-.5,2,0,2.5-.1,2.1-1.8-.3-1.3-.9-1.5-2.1-1.8s-1.6-.7-2.9-1c-1.3-.1-2.6-.1-3.9,0-.5,0-2.1-2.5-2.4-2.9-.9-1.2-1.9-1.4-2.9-2.4-.8-.7-1.4-1.5-1.8-2.4-.6-1.2.8-2.3,1-2.9.7-1.3-.4-2.8-.8-3.7s-2.2-.7-2.9-.5c-1,.3-1.2,1-3.2,1s-2.7-.8-3.9-2.1c-1-1-1.6-.7-1.6-2.6v-11.8c0-1.9.7-1.5,1.6-2.4.5-.5,2.7-.3,3.7-.3h3.9c.2,0,0-.4,0-.5l-1-3.2Z"/>
  <path id="033" class="cls-1" d="M164,768.2c-.6-2,.9-4.5,1.9-6.5s1.3-3.1-.9-4.1c-2-1-3.4-1.3-2.8-3.7s1.8-3.9,2.3-6.5c.4-2.6.6-5.2.5-7.8,0-3,2.1,1.2,2.8,1.8.3.3,3.1-4.5,3.2-4.6,1.2-1.2-2.7-2.3-3.7-2.8-.3-.2,2-3.7,2.3-5.1.8-3.4,2.4-.3,3.2.5,1,.9,2.3,1.4,3.7,1.4,0,0,2.1-5,2.3-6,.5-2.2-.6-4.5-.9-6-.6-2.6-5.4-2.3-7.4-2.3-3.4,0-4.6.8-4.6-2.8v-6.9c0-3-.8-3.3.9-5.1.3-.3,4.5,3.1,4.6,3.2,1.3,1,1.8,5.4,1.8.9v-6.9c0,0,6.2-.5,6.9-.5,2.1,0,.2-6-1.8-6s-3.8-1.7-5.1-2.3c-1.5-.8.9-3.3.9-5.1l31.8,3.7c-1.9-1,5.5,1.1,5.5,3.2,0,3.5,3.5,2.8,6,2.8s-.9-3.6-.9-5.1c0-2.7,0-4.6-.9-6.5s-.7-3.6.5-6c.9-1.8,2-3.5,3.2-5.1,1.6-2.2-3.1-1.4-4.6-1.4-3.2,0-3.6-.3-5.1-1.8-.6-.6-.7-5.5-.9-6-.9-1.8-2.9-2.9-3.7-4.6-1-2-.5-5,0-6.9.9-3.7.9-2.8-1.4-5.1l-.5-.5,4.1-5.1.5-13.8,25.4-20.7,9.2.9,11.5,20.3,10.6,7.4,18.9-2.3,21.2-17h6.5l-28.1,59h23.5c-.7-.7,1.8,0,2.8,0l-.5-6.9,6.5,10.6-14.3,28.1,18.4-6,.5,9.7,5.1,5.1,21.2-7.8-1.8-7.8-.5-7.4,16.6-6.9,4.2,3.7v6l7.4,1.8-1.8-13.4,10.6,12.4-2.8,3.7v8.8h6.5l5.1,3.7-10.1,5.5-18.8-8.8-7.4,7.8-24.4.9-6.9,12.9,2.8,7.4-7.4,25.3h-4.7l-1.8-8.3-10.6-.9-.9,11.1h-6.9l-4.6-18.9h-12l-6.5,17.5c-.2-.2-7.5.5-8.3.5-3.1,0-3.8-.1-5.5-1.8-2.2-2.2-4,0-4.6,1.4-.9,1.9-.5,5.8-.5,7.8s-4.6-.5-6.9-.5-.2,1.6,0,2.3l10.6,6.5v3.2l-13.4-.9-7.8,15.2-13.8-4.1-24-1.8-4.6-2.3-4.6,4.2-6.9-6-11.1-4.6-3.6-14.3Z"/>
  <path id="034" class="cls-1" d="M98.8,256v9.4l-22,40.3-23.7,53.7,7.6,5.4-3.1,7.6-9.4-6.3-1.4,20.1,8.1,2.7-5.4,4.5,8.5,9.9-1.8,19.7,5.4,8.5v28.2l-2.2,22.4,7.2,4.5,4,10.8v21l8.1,8.5v9.9l-6.7.9v7.2l-10.8,7.2-.5,5.8,11.2,11.6,4.9,3.6,5.4,9,.9,6.3,1.4,1.8c.1.2,6.5,1,7.2,1.3,1.7.9,2.7,4.2,3.1,5.8.5,2.2,3.5,2.2,5.4,3.1s6.1,1,7.6,1.3c2.5.6,4.3,4.2,5.8,5.4,1.8,1.3,2.9,1.6,5.4,2.2,1.5.4,2-2.8,3.6-3.1,1.3-.3,4.8,3.6,7.2,3.6s3.5.2,4.5,2.2l9-8.5,30.9-16.6,19.7-11.2-28.2-29.6-20.6-.9-18.4-13.4-13-24.6,3.1-18.8h9.9l17.9-22-25.5-6.3,6.7-58.2-4-5.4,8.1-7.2-23.3-13-6.7,4,36.3-106.1-37.2-18.3Z"/>
  <path id="035" class="cls-1" d="M140.7,780.6l-22.9,28.5,25.4,26,.4.7c.4.9-.3,1.7-.7,2.1-.6.6-1.7.4-2.5,0-1.1-.6-2.2-1.3-3.1-2.1-.6-.5-1.3-.8-2.1-1-.9-.2-1.9-.2-2.8-.2-1.1,0-2.2,0-3.3.2-1.3.3-1.8,1.4-2.6,2.3-.6.6-1,1.2-1.6,1.8-.5.6-1.2,1.2-1.9,1.6-.7.4-1.7,2.1-1.9,2.6-.5,1.1-1.2,2-1.8,3.2-.6,1.1-1.1,2.3-1.4,3.5-.3,1.3-1.2,1.9-1.8,3-.3.6-1.1,1.4-1.4,1.9-.5.9-.8.9-1,1.9-.3,1.2,1.1,2.1,1.8,3,.8.9,1.7,1.7,2.6,2.4,1,1,2.3,1.7,3.7,1.9,1.4.4,2.6,1.2,3.5,2.3.7.7,1.2,1.6,1.4,2.6.2,1.2.8,2.3,1.8,3,1,.9,1.9,1.9,2.6,3,.5.6,1.1,1.1,1.8,1.6.8,1,1.3,2.1,1.6,3.3.1.5.4,1,.7,1.4.3,1.3,2.4,2.3,3,3.5.5,1,.1,1.5,1.2,2.1.9.5,1.8,1,2.6,1.7,1,1,2.2,1.8,3.5,2.5,1.3.7,1.4,1.4,3,1.7,1.1.4,2.1,1,3,1.8,1.1.7,2.2,1.6,3.1,2.5.6.6.6.9.2,1.8s-1.2,0-1.2,1.4.4,1.9.4,3c0,1.6.2,1.4,1.4,2.3,1,.7,1.9,1.6,2.8,2.5,1.1,1.1,1,1.7,1,3.2s-.4,1.7-.4,2.8.1,1.7.7,2.3,2.9.5,3.9.7c1.3.2,2,1.2,3.1,1.7,1.4.8,2.6,1.8,3.9,2.8,1.3,1,1.8,1,2.1,2.3.2,1,0,2.1.5,3,.7,1.2,1.7,2.2,2.8,3,.6.4,1.1,1,1.6,1.6.8,1-.9,1.4-1.2,1.6-.7.4-.7,1.3-.7,2.1,0,1.3,0,1.6.9,2.3.9.6,1.9,1.1,3,1.4,1,.4,1.9.8,2.8,1.4,1.2.7,2.4,1.3,3.7,1.8,1.2.3,2.5.2,3.7.5l3.5.9c1.3.4,2.5,1.1,3.5,1.9.8.6,2,1,3,1.6.8.5,1.9.3,2.4-.5.3-.6,0-2.3-.2-2.8-.3-.9,0-1.9.7-2.4.7-.5,2.4-.2,3.3-.2s.5-1.5.5-2.3v-3.5c0-1.1,0-2.1-.2-3.1-.1-.5-1.6-.9-2.3-1.2-1.3-.7-2.7-1.7-3.9-2.3s-2-1.2-2.8-1.6c-1.1-.5-2-1.2-3-1.8-.8-.4-1.6-1-2.1-1.8-.7-.9-.5-2-.5-3.2s0-1.7.7-2.5,1.6-.4,1.9-1.6c.3-1-.9-1.7-1.8-2.1-1.2-.6-1.1-.7-.2-1.9.7-.9-.4-1.6-.7-1.9l-2.3-2.3c-.9-.8-1.8-1.1-2.8-1.9-.7-.5-1.3-1.1-1.9-1.8-.8-.8-.7-1.2-.7-2.3v-9.4c.5-1.9-.6-3.8-2.5-4.4-1.1-.6-2.2-1.7-3.3-2.3-1.3-.7-2.5-1.4-3.9-2.1-.9-.6-1.7-1.2-2.4-1.9-1.1-.7-2.3-1.3-3.5-1.8-.8-.4-.7-1.2-.7-2.1v-3.2c0-.9-.2-1.7-.9-2.3-.5-.5-1.2-.4-1.7-.5-.7-.7-1.9-.2-2.8-.2s-2.7-1.5-3.7-1.9c-1.2-.4-2.4-.6-3.7-.5-1.1,0-2,.3-3.1.3-1.2,0-2.5-.2-3.7-.5-1-.2-1.9-.8-2.6-1.6-.8-.8-1.4-.8-1.4-2.1,0-1.1-.2-2.2-.7-3.2-.4-.8-2.1-1.4-2.8-1.9-.9-.7-1.6-1.3-2.5-1.9-.6-.5-1.1-1.1-1.6-1.7-.5-.7-1.2-1-1.4-1.9-.1-.9,0-1.7.5-2.5.4-.6,1-1,1.7-.9,1,0,1.8-.3,2.8-.3,1-.1,1.9-.4,2.8-.7.9-.4,1.8-.8,2.6-1.4.8-.4,1.7-2,2.3-2.8.6-.8,1.2-1.6,1.8-2.5.4-.8,1.1-1.2,1.4-2.3,0-.9,0-1.8,0-2.6v-2.6c0-.8-.2-.7-.4-1l-5.4-10.5,4.9-23.2,7.4-.2-2.8-6.2-13.6-1.9,3-8.2-3-4.2Z"/>
  <path id="036" class="cls-1" d="M201.6,946l21.6,7.7,28.9-57.8,37.7,12.4-1.8-21.2-15.4-23.4-7-2.9-16.1-20.5-.7-20.1-13.9-1.8,1.8-7-20.1-5.8,2.9-12.7-24.1-1.8-5.1,6.2h-5.9l2.6,18.3-3.7,5.5-2.9,14.6-13.5-4.4h-10.6l-5.5,3.3v.5c-.1.6-.1,1.2,0,1.8v3.8c0,.5,0,1.1-.2,1.5-.3.5-.6.9-1,1.3-.3.4-.6.7-1,1.1-.4.4-.7.8-1,1.3-.3.6-.7,1.1-1,1.5-.3.4-.6.8-1,1.1-.3.3-.9.4-1.3.6-.6.3-.8.6-1.5.6-.6.1-1.1.3-1.7.6-.5.1-1.1.3-1.7.5-.6.1-1.2.2-1.8.1-.6,0-1.1.2-1.7.5-.5.1-.7.6-1.2,1.1s-.2,1.2-.2,1.8.9,1.4,1.1,2,1.1,1.3,1.4,1.7c.4.4.8.8,1.3,1.2.4.3.9,1.2,1.3,1.5.4.5.9.8,1.4,1.1.6.3.8.2,1.3.7.3.5.5,1,.6,1.5.2.6.4,1.2.7,1.8.3.5.9.7,1.2,1,.5.4.9.9,1.5,1.4.6.3,1.2.6,1.9.7.7.3,1.5.4,2.3.4.5,0,1.3.2,1.9.2h2.1c.7,0,1.4.1,2.1.1s1.8.9,2.5,1.1c.9.2,1,1,1.8,1.2.6,0,1.3,0,1.9-.1,1-.3,2.1.5,3,.8s.8.8.8,1.7.6,1.5.7,2c.2.7.4,1.5.5,2.3,0,.8.2,1.4,1,1.5.7.4,1.4.9,2,1.4.4.3.8.7,1.2,1.1.7.6,1.5,1.1,2.4,1.4.9.4,1.4,1,2.1,1.4s1.8.9,2.5,1.3c.5.3,1.5,1,1.8,1.1,1,.1,1.9.6,2.5,1.4.5.5.5.8.5,1.5v3.8c0,.6,0,1.2-.1,1.8-.1.5-.1,1.1-.1,1.7v4c0,.6.3,1.2.6,1.8.3.5.6.9,1,1.3.5.5.9.8,1.4,1.3.6.5,1.3,1,2,1.3.6.3,1.2.7,1.8,1.2.4.4.8.8,1.2,1.3.9.9.7.8.4,1.2-.4.4-.8.6-1.3.7-.6.2.6,1,.7,1.1.5.2.9.5,1.3.8.6.4.6.8,1.1,1.3.3.4.3,1.1-.1,1.4-.5.3-1.1.6-1.7.8-.5.3-.8.8-.8,1.3,0,.6,0,1.3,0,1.9v1.5c0,.6,2,1.6,2.4,1.9.6.4,1.2.8,1.9,1.1.8.5,1.6.9,2.5,1.2.6.3,1.2.7,1.8,1.1.5.2,1,.5,1.4.8.5.4,1.1.8,1.5,1.1.6.4,1.3.8,2,1.1.7.3.6.8,1,1.4.2.6.3,1.2.2,1.8v5.8c0,.7,0,.6-.5.7,0,.2-2,.1-2.3.1-.6,0-1.1,0-1.7.1-.5.1-.5.8-.5,1.3,0,.6.1,1.1.2,1.7.2.7.3,1.2.5,1.8.2.2,0,.4-.2.7Z"/>
  <path id="037" class="cls-1" d="M584,390.5l-45.5-17.6-3-12.1-10.3-5.3-.6-14.1-2-1.5.3-17.1h25l.3-5.3,3.2-2.9-5.9-6.5,17.7-16.8,1.5-.9c.8-.5,2.8,2.6,2.9,2.9,1.5,0,2.9,0,4.4,0,1.6,0,.6-2,.6-3.2s-.2-1.1-.6-1.8l18.2-.3c0-1.5,1.5,2.7,2.6,3.8s1.4,1,.9,2.9c-.1,1.3-.1,2.6,0,3.8l-4.7,15.3-5.5,2.4.3,6.8,5,9.4,14.7,3.2-8.5,8.8,10,6.5-2.1,6.8-4.1-2.1-.9,6.2-5,2.9-8.9,25.6Z"/>
  <path id="038" class="cls-1" d="M588.4,238.6l-12.4,9-7.7,8.3-6.5,9-7.4,12.1h-1.9c-1.7,0-2.4-2.6-2.8-2.5-1.6.4-1.8,1.9-3.4,1.9-2.3,0-2.1.4-3.7,1.2-1,.5-1.7,2.1-2.8,1.9l-1.2-.3-3.4,5.6-19.8,3.4-22.3,1.2-80.3-23.5-46.8-88.3,27.9-52.1,50.2-19.2,9.3,25.1,19.8-7.5-.6,16.4-1.9,20.8,38.4,5.6-.3,33.5-5.9,16.8,7.1-.9,12.7,4,8.4,4.3,10.8-.3,11.5-9-.6-5.9,6.5-3.4,3.4.3,4.3-4.6,13,18.3,5.6.9-.6,12.4,3.4,5.6Z"/>
</svg>