<?xml version="1.0" encoding="UTF-8"?>
<svg id="Coahuila" xmlns="http://www.w3.org/2000/svg" version="1.1" viewBox="0 0 1110 930">
  <defs>
    <style>
      .cls-1 {
        fill: #c4f5ee;
        fill-rule: evenodd;
        stroke: #000;
        stroke-width: .2px;
      }
    </style>
  </defs>
  <!-- Generator: Adobe Illustrator 28.6.0, SVG Export Plug-In . SVG Version: 1.2.0 Build 709)  -->
      <path id_mun="001" class="cls-1 estado" d="M625.2,483.4l9.8,6.1,10.2,8.8,5.1-.4,6.8-5.1,4.5,5.5,13.5-5.1,4.1,3.1,13.9-12.2-24.8-10.2-6.4,6.1-2.4-5.5-3.4-3.4-.4-6.1h-4.7l-4.5-6.8-7.8-3.7-13.9,14.3-8.2-3.4-4.1,9.1,6.1,1.7,6.4,7.2h0Z"/>
      <path id_mun="002" class="cls-1 estado" d="M703.6,120.1c0,.7,0,1.5,0,2.3.8,1.6,2.4,2,3.2,3.6.3.5,2.5,5-.9,5s-2.2-2.5-5-1.8c-2.3.5-3.9,0-6.4,0s-4.5-.7-4.5,2.3.5,4.5-2.7,3.6c-2.3-.5-3.6,0-3.6,2.7v2.3l-48.9-4.5.5-15.4-18.1,6.8-8.2-22.6-45.7,17.2-24.9,47.5-59.6-13.2-9.1,15.8-25.3-24-14.4-7.3-18.5-14c-1.4-2.6-4.7-1.3-5.9-3.6s.2-2,1.8-3.6-.9-4.5-.9-5.9,1.4-3.3,1.8-5c.5-2.1,4.3,0,6.4-.5s.5-3.9.5-5.5,2.9-1.5,4.1-2.7c2.1-2.1-1.6-3.5-2.7-4.1-2.5-1.3-.4-4.4.9-5,1.5-.7,1.8-3.6,2.7-4.5s.5-5,.9-6.4c.5-1.9,2.5-2,3.6-3.2s1.8-2.2,1.8-5,2.2-1.5-.5-4.1c-2.4-2.4,1.7-1.8,3.6-1.8s0-4.5,0-6.8,3.7-1.7,4.1-3.2c.5-2,1.4-3.1,1.8-5,.7-3-.9-4.1,1.8-5.5,3-1.5-.3-3.6,4.1-3.6s3.5,3,3.6,3.2c.8,0,1.2,1.2,1.8,1.8s2.3-4.2,2.3-5.5c0-3,3.6.9,3.6-3.2s1.5-1.6,3.2,0c1.9,1.9,2.6,2.7,5.9,2.7s1.8-3.5,1.4-5.5c-.5-2.2,4.5,0,6.8.5,2.4.6,2.7,1.8,5.5,1.8s4.3.5,6.8.5,0-4.8,0-7.3,1.4-2.6,1.4-5.5,2.4-3.5,3.6-4.1c2.2-1.1,2.6-2.1,5-2.7,3.1-.8,3.6,1.5,3.6,4.1s6,1.4,7.3,1.4c2.1,0,4.3,0,6.4.5.6.2,3.5,2.4,5,2.7,1.6.4,4,3.5,5,4.5,2.4,2.4.9.8,4.1,0,2.5-.6,4.5,2.3,5.5,3.2,2,2,3.2.8,3.2-1.8s2.1-2.5,3.6-.9c2.2,2.2,3.8-2.6,4.1-3.2,1.6-3.4,5.5,2.8,5.9,3.6,1.6,3.4,3.9,1.6,4.5,1.4,1.7-.9.3-3.1,3.6-2.3,3.8.9,3,2.9,5,.9,2.2-2.2,1.9-1.7,4.5.9,0,0,1.4-3.5,4.1-.9,3,3,1.1,4.5,3.6,3.2,2.4-1.2,2.2-2.7,4.5.5,1.5,2.1,5.4,2.1,7.7,2.7h1.4c3.5.9,5.7,2.5,7.7.5,1.8-1.8,1.5-1.8,5-.9,3.4.8,3.2-1.2,3.6-3.2.3-1.1,4.1-4.1,4.5-4.5,1.7-1.7,4.5,5.3,4.5,5.5,0,1.4-4.5-.4-1.4,2.7,1.6,1.6,5.8-.8,6.4-1.4,2-2,0-2.7,4.5-2.7s0,4.3.5,6.4c.4,1.5,3-1.2,4.1-2.3,2.2-2.2,2.3,4.1,2.3,5,0,2.3,3.2,1.3,3.2,4.5s2.6,1.6,1.8,5.9,1.5,1.8,2.3.5c1-2,4.4-.5,5.5,0,1.8.9,1.4,3.6,1.4,5.9s-3.6,1.8-4.1,3.6c-.5,2,3.2,3.1,3.2,5.5s1.8-3.2,1.8-5c0-3.3.3-3.5,1.8-5,1.7-1.7,5.2,2.2,5.9,3.2,1.6,2.2-1.1,4.9-1.8,5.5-1.8,1.4-1.8,2.5-1.4,4.5.5,2.3.5,4.7,1.4,6.4,1.6,3.3,4-1.8,4.1-2.3.6-2.6,5.1.5,5.5,1.8.5,2.1,4.8,1.9,5.5,4.5.8,3.4.6,3.6,4.1,4.5,2.3.5,4-.5,6.4-.5s3,3,4.5,4.5c1.8,1.8,3.6,2.6,3.6,5s.7,3.5,1.4,5.9c.3,1.1,3.1,2.6,4.1,3.2,2.5,1.3,3.5,1.3,5,2.7,2.3,2.3,3.3,2.5,5.9,3.2,2.4.6,2.8,1.9,4.1,3.2-.4.2,2.3,4.5,2.5,4.9h-.5Z"/>
      <path id_mun="003" class="cls-1 estado" d="M680.6,293.3l.3,7.7h22.6l.3-4.9,3.2-2.5-5.8-6.1,15.8-15.1c0,.9,2-.9,2.6-.3,1.4,1.4.9,1.5,3.2,1.5s2.4.4,2.6-1-.3-2.2-.3-3.4-1.4,1.5-1.5,1.7c-.7,1.4-1.5-.4-1.5-1.2s-3-.5-3.2-.5c-1.3-.4-1.8-1-3.4-1s-1.8.3-2.6.3l-14.8,5.5-7.1,5.8.5,3.2-10.9,10h0Z"/>
      <path id_mun="004" class="cls-1 estado" d="M747.7,746.1c-.5.9-.6,2-.5,3,0,1.2,2.4.9,3.2.9,1.4,0,.8,1.1,1.1,2.3.4,1.4.2,1.3,1.4,1.9,1.4.7,2.2,1.4,3.7,1.4s2.5.2,3.7.5c.6.3.4,1.9.5,2.6.3,1.1,0,2.1,1.3,2.1s2.4.2,3.4.2,2.2-.4,2.5.7c0,.5,3.1,1.2,3.4,1.4.7.2,1.4.7,1.7,1.5.3,1.1-1.6,1.7-2.1,2.8s-.9,2-1.4,2.8c-.5.7-1.2,1.2-2.1,1.3-1,.3-1.2.8-1.7,1.5-1,1.4.7,1.6,1.7,1.9,1.4.4,2.8.5,2.8,1.9s2.5.9,3.5,1.5c1.5.7,4.3.2,5.8.5,1.3.2,2.5.2,3.7,0,1.2,0,1-.8,1.4-1.5s.9-1.4,1.7-1.7c.7-.3,1.5-.5,2.3-.5,1.1,0,2.1,0,3.2,0,.9,0,1.6,2,2.1,2.6.8,1.3,2.1,2.1,3.5,2.3,1.3.3,2.5,0,3.5.5s.7,2,.7,3v3.2c0,.8-1.6.4-2.5.5-1.2.3-.2,1.5.2,1.9.5.5,2.7.2,3.4.2,1.5,0,1.4.7,1.7,1.9,0,1,0,2-.2,3-.2.8-1.6.5-2.5.9-1.1.5-1,1.2-2.1,1.5-.9.2-1.9.3-2.8.2-1,0-1.9.2-2.8.5-.9.5-1.6.9-2.5,1.3-1.1.5-1.1,1-2.3,1.4-.6.2-.7,0-1.3.2-1,.3-3.7-1.5-4.9-1.7-.9-.2-2-.9-3-1.1-1.2-.5-2.4-1-3.4-1.7-1.2-.6-2.5-1.1-3.7-1.5-1.4-.5-2.6-1-3.9-1.7-1-.4-2-.7-3-.9-1.1-.2-2.1-.3-3.2-.2-1.1,0-2.3.2-3.4.2s-2.2.2-3.4.2-2.5-1.5-3.5-1.9c-1-.5-2.1-.8-3.2-1.1-1.5-.3-2.9-.3-4.4-.2h-3.4c-.6,0-2.2-1.7-3-2.1-.8-.4-1.7-.5-2.6-.2-.7.2-.9,1.2-1.4,1.9-.3.9-.5,1.8-.5,2.8-.2,1.2-.6,2.3-1.1,3.4-.4.9-1,1.7-1.7,2.5-.9.6-.2.7-.2,2.1s.2,2.1.2,3.2,0,1.5-1.3,1.5-.9-1-.9-2.1.2-2.3-.5-3-2,0-2.5.9-1,1.8-1.7,2.6c-.6.6,1.5,1.2,1.5,2.1s-1.1,1.5-1.5,1.9-1.1,1.3-1.5,2.1c-.4.5-1,.9-1.7.7-.7,0-1.5-.3-2.3-.5h-.5c-.5,0-2.7-1.3-3.2-1.5-.8-.5-1.5-1.2-2.5-1.5-1.1-.3-2.3-.4-3.4-.2-1.1,0-2.3-.9-3-1.5-.9-.5-1.8-1-2.8-1.3-.4,0,1.3-2.3,1.4-2.6.3-1.3-.5-1.4-.9-1.9-.7-.7-1.4-1.2-2.1-1.9-.6-.7-.9-1.7-.5-2.6.3-1,.5-1,1.7-1.4s1.4,0,1.9-.9c.5-.8.9-1.3.9-2.3s.2-1.9.2-3-.7-1.5-1.4-2.1c-.8-.6-1.5-1.2-2.5-1.7-.9-.6-1.9-1-3-1.1-1-.2-2-.3-3-.2-.7,0,.5-1.1.7-1.4.6-.6.8-1.2,1.9-1.7.5-.3.7-1.3,1.7-1.5.4,0,2.8,2.3,3,2.5.6.8,1.5,1.5,2.5,1.7,1.4.4,1.6.8,2.5,0,.5-.7,1-1.5,1.3-2.5.2-.4-1.3-1.3-1.5-1.5-.6-.5-1.3-.8-2.1-.9-.8-.3-1.5-.6-2.3-1.1-1.1-.5-1.5-1.3-2.3-1.7s-.4-1.7-.4-2.5c0-1.2,2-.4,2.8-.2.9.2,1.7.6,2.5,1.4.7.6,1.6,1.1,2.6,1.3,1.4.4,1.8.3,2.5-.4s0-2.2-.2-2.5c-.3-.5-1.5-1.1-1.9-1.5-.9-.9-1.7-1-2.6-1.9s-1.3-1.1-1.9-1.7c-.5-.6-1.1-1.4-1.5-2.1-.5-.5.9-1.6,1.1-1.9.8-.8-1.2-2.2-1.5-2.5-.8-.6-.5-1.5-.5-2.6s-.9-1.6-1.4-2.1-1.1-.7-1.7-1.3l-1.7-1.7c-.3-.5-.5-1-.7-1.5-.6-.6,1.3-1.3,1.5-2.1s1.5-.9,2.3-.9,1.6,0,2.5.4c.4.2.9,1.7,1.1,2.1s1.4,1.2,1.7,1.5c.7.7.6.9,2.1.9s1.1-.6,1.4-1.5c.2-.7,1.1-1,1.7-1.4.6-.5,1.5-.6,2.3-.5h5.6c.9,0,1.9,0,2.8.2,1.1.3,1.9,0,2.3-.7s.2-2,.4-2.6,2-.5,2.5-.5h2.8c1.2,0,1.8-.2,2.1.7,0,.2-.4,0-.5-.2-.7-.3,1.4.7,2.1,1.1s.8-1.2,1.5-1.4c.8-.3,1.7-.4,2.6-.4s1.8-.3,2.1.7c0,0,1.5,1.1,1.7,1.3.9.9,0,1.5,1.9,1.5s1.6-.3,2.5-.5c.6,0,1.2-.4,1.6-.7v.5Z"/>
      <path id_mun="005" class="cls-1 estado" d="M691.4,574.3l32.2-31.3,9.8,20.7,11.5-12.3.4-5.7,10.2-13.9c0-.5.2-1.1.4-1.7,0-.3-2.8-2.8-3.1-3.1-.8-.8-.2-3.6,0-4.4.3-1.1,2.5-2.6,3.1-3.4,1.1-1.4,0-3.5-.4-4.7-.4-1.9-2.3-1.8-.4-3.7s1-2.1.4-3.4c-1-2-2.1-1.6-1-3.7.9-1.9,1.4-2.5,1.4-4.7v-5.5c0-2-.8-1.7-3.4-1.7-2.6,0-5.3-.5-7.8-1.4-1.5-.5-3-1.5-4.1-2.7-1.5-1.5-1.8-1.7-2.7-3.4s-2.6-2.3-3.4-3.1c-1.2-1.2-3.6,0-4.4.7s-.5,2.9-1.4,3.7c-1.5,1.5-2.6-1-3.4,2,0,0,2,1.5,2,3.1s-2.9,1.1-3.4,1c-1-.3-2.3-2.6-2.7-3.1-1.1-1.1-2.4,0-3.1,1.4-1.1,2.3-2.9-1.3-3.1-2s-2.6-1.5-3.1-1.7l-8.8,9.5-5.5-12.5h-4.4l-14.5,12.9,3.4,7.8,6.1-.4,10.9,14.6c-.2-.7-.6,1.7-1.4,1.7-2.1,0-1.4,1.9-1.4,3.7s-.6,2.6-2.4,3.1c-1.5.4-2.1,1.5-2.7,2.7s.2,4.1.4,4.7c.7,2.7-.9,2.5-2.4,1.7-1.7-.8-1.9-2-4.4-1.4-.3,0-.2.5-.4.7l-14.3,14.9,14.3,17c-1.5.4,3.7,0,4.5,1.4.9,1.8-1.7,2.7,1,3.4,1.6.4,1.4.5,1.4,2.4l-.2-.2Z"/>
      <path id_mun="006" class="cls-1 estado" d="M691.6,573.9l-35.2,31,17.4,20,2.6,8.5-6.2,1.6-4-5.6-1.1-.8c-1.1-.8-2-1.7-2.9-2.6-.8-.8-2-.7-3.2-1.6-1-.8-1.3-1.5-2.5-2.6s-1.7-2-2.6-2.9-2-.8-3.5-.8-2.4-1.2-3.7-1.9c-1.2-.6-3.4,0-4.3-.5-2-1-1.1.4-2.6.8-1.4.4-3.4,0-4.8,0s-.4,2.2-1.1,2.9l-2.5,2.5c-.3.2-.5.4-.8.5l-10.7-.3-7.4-10.9-4.3-7.4,3.2-1.6-5.1-4.3,8.3-.5-15.2-18.7-13.9-7.7v-5.4l-5.1-4.3-2.4,3.2-15.5-26.2,12.8-10.4,16.1-8.5-1.9,4.5,6.4,4.8,4.8,4.5,8-6.6c-.8.8,1.8,1.4,2.6,2.1s1.2,1.5,2.5,1.9c1.4.2,2.6.2,4,0,2,0,1-1.6,2.9-1.6h4c1.5,0,1.8-.2,2.1-1.4l5.6,2.9,15.8-5.1,10.4,10.2v6.6l11.7,8.3,13.6,16.5h1.4c1.2,0,2.4.5,3.2,1.4s-.2,2.4-.3,2.5,2.6,1.8,2.9,1.9c1.1.3,1.4,0,.3,1.4h0Z"/>
      <path id_mun="007" class="cls-1 estado" d="M363.5,540.5l17.7,17.4,7.4-12.7,2.8,2.5-9.3,19.9,5.3,8.1-5,4.4,6.2,5,2.2,10.5,2.8-5.3.6-12.7,23.3-18.9,8.1.9,10.5,18.6,9.3,6.5,17.1-1.5,20.2-16.2h5.3l-25.4,53.1,19.9.6,1.3-.3c1.8-.5,2.5,2.4,2.5-.6v-5.3l5.3,9-12.4,25.4,16.2-5,1.5,9.3,3.1,3.5c0-.5.8.5,1.3.6l18.6-6.5-1.5-7.7.3-6.2,14.3-6.2,4.1,1.8.3,6.8,6.5,1.3-1.9-13-26.3-30.7,17.1,8.4,12.4-3.5,3.5,6.8,6.5.9c0-1.6,2.6-4.3,3.5-5.3,1.5-2.1-.5,1,.3-.6l1.8,13.6,7.4-5.3,15.2,4.4,2.8-15.7,4,12.4,14,9.3,8.1-11.4-3.5-7.2,2.8-1.3-4.6-4.6,8.4-.3-15.8-19.3-14-7.7v-5l-4.6-4.6-2.5,3.5-15.8-26.3,13.6-10.7-7.2-9.3-10.3-.9.3-5.9c.4-.5.6-1,.9-1.5.7-1.3,2.2-1.2,2.8-2.5s-1.4-1.5-1.5-2.5c0,0,1.5-2.3,1.5-3.5s1.5-1.9,2.2-2.5.6-1,.6-2.2l-8.4-7.4c.9-.9-1.5,2.5-2.8,2.8-1.2.5-2.5.5-3.7.3-2.3-.5-2.5.3-2.5,2.2s-1.9,1.3-3.5,1.3h-4.6c-1.8,0-1.8-1.2-2.8-2.2-1.4-1.5-1.6-1.8-.9-3.1.9-1.8,2-1.2,2.5-3.1,0-.5-1.5-2.5-1.5-3.1-.2-.9-1.6-2-2.2-2.5-.9-.8-1.6-1.7-2.2-2.8-.8-1.6-1.5-1.1-1.5-3.5s0-2.4-1.5-3.1c-1.2-.5-2.9-.3-4.4-.3s-.7-2.4-1.3-3.5-.3-3-.3-4.4v-4.4l-6.8-5.3-25.4-.6,4.1,5-2.5,3.1-9-5.9-6.8,11.8,12.4,10.5,4.4,20.2-21.4-4.6-10.9-10.9-6.2-.3-12.4-8.3-7.7,14.9-6.5-3.2-.4,5.9-4.6.6-5.9-6.5,1.3,34.8-27-16.8-1.5,3.7-4.4-4.1h-29.8l25.4,27-18.3,9.6-.3-.2Z"/>
      <path id_mun="008" class="cls-1 estado" d="M616.7,465.4l7.8,3.7,14.6-14.3,7.4,3.4,4.7,6.8,4.5.4v5.7l4.1,3.4,1.4,5.7,6.8-6.1,25.1,9.5,4.7-.7-4.7-7.8-11.9-7.5-.7-5.5-1.4-1.4c-1-1-1.7-2.4-2.7-3.4s-1.7-2.2-2.4-3.4c-.7-1.5-1.7-2.1-2.7-3.1-1.5-1.5-1.6-1.5-3.7-2-1.5-.4-2,2.6-2.7,0-.2-.8-1.9-2.2-2.4-2.7l-3.1-3.1c-1.4-1.4-2-1.3-2.7-2.7-.8-1.6-1.5-2-3.4-2.4-1.3-.3-2.5-1.2-3.4-1.7l-3.4-1.7c-1.3-.5-2.4-1.2-3.4-2-.8-.8-.4-3.5-.4-4.7,0-2.2-.4-2.7-1.4-3.7s-1.7-1.4-1.7-3.7-3.3-.7-4.5-.7c-2.5,0-2.6-.2-3.7-1.4s1.1-2.7-2.4-2.7-2.4-1.5-3.4-2-3.8,0-5.1,0h-9.8l2,5.5-.4,9.2,6.4,8.8-3.4,9.5,5.1,1.7-4.1,17.1h0Z"/>
      <path id_mun="009" class="cls-1 estado" d="M354.7,704.2l-8.8,10.9-3.7-2.9c-1.9,0,1-4.5-.5-5.9-1-1-2.4,2.1-3.7,2.1-1.5-1.5-.8-5.2-.8-7.1s1.3-3.2,1.3-5.5-2.4-3.5-2.9-4.2c-1.4-1.8,0-3.6,1.3-4.2,1.5-.7-.5-3.5-1.7-4.6s-2.7-1.3-3.4-3.8c-.4-1.9-.5-3.9-.5-5.9v-3.8c0-1.1,2.2-.5,2.9-1.3,1.6-1.6,1.3-3.5,1.3-5.9v-6.3c0-2,.8-3.7.8-6.3s1.5-4,1.6-5c.6-2.5,1.1-3.2,1.7-5.5s1.3-3.6,1.3-6.3,2-3.5,2.5-5.5c.2-.9,2.8-4.3,3.4-5,1.8-2.5,2.9-3.2,2.9-5.5s-.5-3.8-.5-5.9-2.5-2.7-2.9-3.7c-.7-1.5-2.9-2.5-3.7-3.4-1.5-1.5-2.5-2.1-3.4-3.8-1.3-2.5-.2-2.7-2.1-4.6-1-1.1-1.9-2.3-2.9-3.4s1.7-4.1,1.7-5.5c0-2.3-.8-3.3-2.1-4.6-1.5-1.5-.5-3.6.5-5.5s.5-4.4.5-6.3-2.9-3.6-3.4-4.2c-1-1.3-2.3-2.3-3.7-2.9l9.6-8.4,27.3-14.6,16.7,17.2,7.5-12.5,3.4,3-9.2,19.7,4.6,7.5-4.6,4.5,5.9,5,2.5,9.6c-1.3-.6,2.1,2.4,2.1,3.8,0,2.7-.8,2.8-1.6,4.6-1.2,2.4,1,3.9,1.6,4.6,1.7,1.7,1.4,2.2,2.1,5,.6,2.6,0,3.1,2.5,3.7,1.9.5,4.6,0,6.7,0s1.9,3.9-.8,4.6c-1.9.5-1.3,3.6-1.3,5.5v6.3c0,1.8.4,3.6.8,5.5s-3.3.7-4.6,0c-1-.5-2.7-3.2-3.4-3.8-1.4-1.4-4-.8-5.9-.8s-4.1-.5-6.3-.5-3.6-.8-5.5-.8-3.5-1.3-5-1.6c-1.9-.4-3.9-.5-5.9-.5-3,0-2.4,1.1-3.7,2.5-2.5,2.5,2.4,3.1,3.4,3.4,2.2.5,2.4,1.5,3.4,3.4,1.5,3-2,2.5-3.7,2.5-3.1,0-2.5.9-2.5,3.8,0,1.8-.2,3.7-.8,5.5-.3.5-3.5-3.8-3.7-4.2-1.8-2.4-1.6,0-2.1,1.6-.5,1.7-.8,3.6-.8,5.5,0,2.9.2,3.2,2.1,4.2.9.4,1.9.5,2.9.5,1.8.9,5.5.2,6.7.8.4.2,0,5.6,0,6.3,0,2,0,3.9-.5,5.9-.4,1.5-3.2-.2-4.2-1.3-1.2-1.2-1.8-3.1-2.5-.5-.5,1.6-1.8,2.3-2.5,3.8-.9,1.8,2.7,2.4,4.2,3.8,1.8,1.8-1.5,3.2-2.1,3.7-1.2,1.2-3.5-2.3-3.7-2.5-.5-.5-.8,4.7-.8,5.5,0,2.6-.2,4-1.3,5.5-1.1,1.3-1.5,3-.8,4.6.4,1.5,2.3,2,2.9,3.4,1.1,2.1,0,5.9-1.6,6.7h-.5Z"/>
      <path id_mun="010" class="cls-1 estado" d="M608.6,526.5l-8.2,6.4-6.4-5.7-4.5-3.4,1.7-4.5-2.4-9.2-7.8-7.8,5.1-2.7,4.7,5.1,12.9-.7,7.1-6.8,10.2-7.1,4.7-6.8,9.2,5.7c-.5,2.3-1.2,2.1-2,3.7-1,2-.3,2.5-2,3.7s-3.1-1.4-3.1,2-1,2.1-1.7,3.4c-.6,1-1.5,1.9-2.4,2.7s-1.5,1.9-2,3.1c.2,1.5.3,2.9.4,4.5-.4,1.4-1.4,1.7-1.4,4.1s-2.8.5-3.7,1.4-1.5,1.8-2.4,2.7c-1.6,1.6.6,2.4-2.7,2.4s-3,0-4.1,1c-.5.5.6,2.6.7,2.7h0Z"/>
      <path id_mun="011" class="cls-1 estado" d="M640.2,753.4l-11.3.3v1.2c0,1.4,0,2.7.5,4.1.6,1.3,2.3,1.5,2.9,2.6.9,1.8,0,2.5,1.5,3.5.6.5,3.5,0,4.4,0s2.5.5,3.7.5,3,.3,4.6.3c.7.8,1.4,1.7,2,2.6,1.5,1.5,2.9.7,2.9,3.5s-1.5,1.7-3.2,1.7-2.1-2.1-2.6-2.6c-1.3-1.3-1.2-1.5-2.6-.9-.7.4-.3,3.3-.3,4.1v4.4c0,1.9-2.4,1.2-4.1,1.2h-5.2c-1.5,0-.9,1.1-.9,2.9v4.4c0,2.1,0,2.2-1.7,2.6v8.7c0,1.6-1.9,1.2-3.5,1.2s-2.3.3-2.9,1.5c-.7,1.5-.5,1.7-2.6,1.7h-4.6c-2,0-2.5,0-2.9-1.7-.2-.6-3.5-.3-4.1-.3h-13.9c-2.6,0,.4.2-.5-.3l5.8-7.3c-1,0-3.2-1.2-4.9-1.2s-2.2-.2-1.7-2.3c.2-1.5,0-2.9-.3-4.4-.4-1.6-1.6-1.8-2.6-2.3-1.1-.5-1.1-2-2-2.9s-1.2-1.7-2.3-2.3c-1.3-.6-2.7-.5-4.4-.5s-2.6-1.6-3.2-2.3c-.6-1-1-2.1-1.2-3.2-.4-1.5-2.6.5-2.6-2.3s0-2.8,1.5-3.2,3.3-.3,4.1-.5c1.3-.5-.6-2.7-.3-4.1.5-1.8.7-2.8,1.7-3.7s.4-4,.5-5.2c.4-1.9-.5-2.4-1.5-2.9s-3.3,0-4.4,0-2.9,0-4.4-.3c-.8-.2-2.5-2.3-3.2-2.6-1.8-.9-2.3,0-1.2-2.3.5-1-1.7-2.3-2.3-2.9-1.2-1.2.2-2.1-1.5-2.9-1.1-.4-2.3-.7-3.5-.9-1-.4-2-.8-2.9-1.5-.8-.3-1.6-.8-2.3-1.5-.5-.3-.8-.5-1.2-.9-1.1-.8.8-3.4.9-3.5.9-.9,1.7-1.7,1.7-2.9s.7-2.5-.5-3.7.8-1.7,1.7-2.6c.5-.5,0-2.6,0-3.7s.5-2.3,1.4-3c1-1,3.8,1,4.1,1.2,1.2.9.3,1.5,2.3,2,.9,0,1.7,0,2.6,0,.7.2.5-4.5.5-4.9v-4.4c0-.2,2.7-1.3,2.9-1.5.5-.5.3-3.5.3-4.4v-4.4c0-1.2,0-2.4.5-3.5l4.9-3.2,15.6,6.9,4.6-7.8-2-5.8,3.2-2.6,3.7,6.4,5.5-.3,5.5,2.3-15.6,8.1v18.2l20.5-.3-8.1-10.7,17.1,1.7-3.5,11.3-7.8,6.9,8.4,6.9,2-5.2,4.6.3c-1.5.3,1.3-3,.5-4.4-.9-1.8.7-1.7,2.3-1.7,2.4,0,1.4,1.2,2.6,2.9.7.9.9,2.9,1.2,3.7h8.7c1.9,0,2.1-.5,3.5-1.2s2.6,1.2,2.9,1.7c.7,1.5,1.5,1.2,3.5,1.2s1.8,1.1,2.6,2c1.4,1.8-2.1,1.5-2.9,1.5-1.9,0-2.5.5-3.7,1.7-.7,1-1.3,2-1.7,3.2-.5,1.2-.7,2.5-.5,3.7,0,1.1,2.1.7,2.9,1.5,1.2,1.2-2.7,1.4-3.2,1.5-1,.3-.5,2.8-.5,3.7,0,2.1.4,2.5-1.5,2.9-1.3.3-3,0-4.4,0h-4.4c-1,0-.5-.2-.7,1.5h0Z"/>
      <path id_mun="012" class="cls-1 estado" d="M771.7,239.8c0,1.4-.5,2.7,1.4,3.2,1.5.4,1.9,1.5,1.9,3.2s3.8.8,4.5.8c2,0,2.8,0,3.7.8s-1.2,2.7-1.6,2.9c-1.2.5-3.2,0-4.3.5s.4,3.2.5,3.5c.4.7,3.1,1.8,3.7,2.2,1.2.6,1.5,2.1,2.6,2.9,1.5,1.1-1.4,2.4-2.1,2.4-1.5,0-1.4,1.5-1.4,2.9,0,1.3.5,2.5,1.1,3.7.6,1.4,2.2,1.9,2.9,2.6,1.5,1.5,1.6,1.5,2.1,3.5s1.6,2.2,4,2.6c1.1.2-.4,3.6-.5,4-.5,1-1.7,1.4-2.7,1.6-.2,0,3.2,3.1,3.5,3.5.6.9.9,2.6,1.1,3.5,0,.4,2.2,1.4,2.5,1.6,1.5,1.5,1.6,1.6,4,1.6s2.9,1.1,2.9,2.9-.2,1.6.8,2.6,3.1.3,4,.3,0,2.5.5,3.5c.5.8,3.4.6,4.3.8,1.5.3,3.1.6,4.5,1.4s2,.4,3.2,1.6c1,1,2.1,1.8,3.2,2.9s1.5,1.5,1.9,2.6c.4,1.5.5,2.2.8,3.5.2.5.4.9.5,1.6l-7.9,5.9,5.4,12.3-15.3,3.8-.8,17.4-20.3,3.5,3.5,14.2-53.7-12,8.3-23.3,4.3-2.2,1.1-5.9,3.2,2.2,1.9-6.4-8.8-5.6,7.7-8.3-13.6-2.6-4-8-.5-6.9,4.8-1.6,4.5-14.2,1.1-.8c.5-.5,1.1-2.2,1.6-2.6s3.4,0,4,0c1.6,0,2.2-.5,3.2-1.6.9-.9,1.6-1.2,2.5-1.9.9-.9,1.1-1.3,1.1-3.2,0-1.2,0-2.4.5-3.5.5-1,1.8-1.3,2.5-1.9.9-.9,1.6-.6,1.6-2.4s1.6-2.7,1.9-2.9c1.1-1.1,1.2-1.1.5-2.4-.5-.8-2.5-.5-3.5-.5-1.8,0-2.1,0-2.7-1.4s.3-1.9,1.4-2.2c1.8-.5,1.9-.4,1.9-2.4s-1.4-1.8-1.6-2.6c-.4-1.5.4-2.4.8-3.2.5-1,2.5,0,3.2-.8s1.5-.9,3.2-.5c.7.2,1.5-2.1,1.6-2.6s1.5,0,2.2,0h-.2Z"/>
      <path id_mun="013" class="cls-1 estado" d="M825.4,316.7c.3-1,.8,2.4,1.9,2.4,1.3,0,2.5,0,3.7.5.3,0,0,3.5,0,4,0,1.2,1.5,1.5,2.1,2.2.4.4,0,3.4,0,4,0,1.6,2.9,1.4,2.9,3.2s3.2.5,3.7.5c1.7,0,2.8-.3,3.5,1.1s1.1,1.6,1.1,3.5-2.4.5-3.2,1.4c-1.1,1.1,2.9,2.6,3.5,2.9,1.3.6,2.3.7,3.2,1.6s1.3,2.6,1.6,3.2c.6,1.3,2,2.4,0,2.4s-2.3,0-2.6,1.6c-.5,1.8.5,2.8,1.9,3.5s2.5.6,3.7,1.9,1.4,1.8,1.1,3.2c-.3,1.2-1.1,1.6-1.1,3.2s2.7,1.6,3.5,2.2c1.4,1,1.6,1.7,1.6,3.5s0,.5.3.8l-23,26.2-29.2-30.2-13.1,11.3-2.9-2.9-3.2-13.6,20.3-3.7,1.1-17.1,15.5-3.7-5.6-12.3,7.7-6.4h0Z"/>
      <path id_mun="014" class="cls-1 estado" d="M634.7,134.9l-1.5,19.2,35.2,4.8-.5,30.6-5.6,15.1,6.8-1,10.9,3.9,8,3.9h10.2l9.7-8.3v-5.4l5.1-3.2,3.9.3,3.5-4.4c0-1.5,0-3.1.5-4.6.3-1.3,2.3-.5,2.6-1.9s.7-1.9,1-2.9c.2-.5,3.2-.3,3.6-.3,1.9,0,1.5-1,2.9-1.7s.2-1.9,2.9-1.9,1.2,0,1.7-.3c.5,0,1.2-4.8,1.2-5.5v-8.4c0-.4-2.1-1.4-2.5-1.7-.7-.7-1.1-1.8-1-2.9,0-1.3.2-2.5.5-3.6.4-1.6-.4-2.7-1-3.9-.7-1.5-1.2-2.7-2.6-3.5-1-.5-2.2-.5-2.9-1-1.7-.9-1.7-2.2-3.2-2.9s-1.5-1.7-2.9-2.5c-1-.5-1.9-1.5-2.5-2.5-.7-.7-1.3-1.6-1.5-2.6-.3-.9.5-2.2.5-3.4s-1.8-2-2.2-2.5c-1.1-1.1-1-1.8-1-3.6s-.3-2.2-1.5-3.4c-.9-.9-1.8-.8-2.9-1.7-.8-.6-1.7-1-2.6-1.2-1.2-.3-1.2-1-2.9-1s-1.5,1.7-1.7,1.9c-1.2,0,1.4,2.1,2.2,2.9.8.8,1.4,1.1,1.9,1.7s.5,2,.5,3.2c0,1.8,0,1.9-1.7,1.9s-1.9-.3-2.7-1-2.2-.5-3.4-.5h-7.3c-1.5,0-2.5-.5-2.5,1.2v3.6c0,1.4-1.5,1.2-2.2,1-1.1-.3-1.5-.7-2.9-.7s-1.1,1.5-1.5,2.2c-.5.9-.3,2.3-.3,3.4v.5l-48.8-5.6.3.2Z"/>
      <path id_mun="015" class="cls-1 estado" d="M792.6,376.4l-10.9,9.1-8.5,47.1-14.8-13.3-9.9-3.1-.3-4.6-15.9,6-14.3,7-7-3.1-5.7,5.5,1.1-7.5h-5.5l-2.4,2.4-19.5-19.3,2.1-10.4,12.4-7.8,6.5,4.5,1-15.6-16.4-12,5.2-3.6-3.9-4.6,4.2-8.3,5.2,1.8,41.3,15.9,53.3,11.7,2.6,2.5v-.2Z"/>
      <path id_mun="016" class="cls-1 estado" d="M565.5,497.3l-8.8-8.4c1.7,0-2.2,2.5-3.4,3.7-.5.5-4.3,0-5.1,0-1.3,0-.5,2.8-1.7,3.4s-4.1,0-5.5,0c-2.4,0-2.9,0-3.7-1.7-.6-1.3-1-2.6-1-4.1s1.8-2.4,2-3.4c.2-.7-2-2.7-2.4-3.4-.6-1.3-1.8-2-2.4-3.1-.7-1.4-2.1-2.2-2.7-3.4s-.2-3.5-.7-4.5c-.3-.5-4.5-.6-4.7-.7-1.6-.4-2-3-2-4.4v-7.4c0-1.8,5,2,5.1,2,1.3,1.3,2.4,1,4.4,1s.6-4.2.7-4.4c.3-.9,1.8-2.5,2.4-3.1,1.2-1.2,3.1,1.7,3.7,2.4,1,1,1,1.4,2.7,1.4l11.9-8.8,6.8,6.8,20,36.6c1.5,1.5-4.1,0-6.1,0s-1.5,1.9-3.4,0c-1.3-1.3-.9-1.1-2.4.4-1.1,1.2-2.3,2.2-3.7,3h0Z"/>
      <path id_mun="017" class="cls-1 estado" d="M337.8,708.2l-4.1,8.3,2.4,4.3-2.7,7.3,12.9,2.1,2.1,5.3-6.8.3-4.3,20.8,5.1,9.7,5.7-3.5h9.8l11.9,4.1,2.7-13.2,2.7-4.5-2.1-17,4.9-.2,5.1-5.7-4.3-2.1-4,3.6-6.7-5.3-9.8-4.1-4-13.5-8.4,10-4.5-3.2v-.8c0-.7.4-1.4.9-1.7.5-.5.4-1.6.4-2.4s-.7-.8-1.6-.8-1.4.5-1.6,1.1c-.5,1.1-1,.5-2.4,1.3"/>
      <path id_mun="018" class="cls-1 estado" d="M670,550.2l-11.5-8.2v-7.1l-10.2-9.8-16,5.5-5.7-3.1c-.5.5-1.1.9-1.7,1.4-.4.3-3.2-.5-4.1-.4-1.1.3-2.2,1.5-3.1,2-1.6.8-2.1.5-3.7,0-1.5-.4-2.3-1.8-3.4-2.4s-1.1-.9-2-1.4l-.4-3.4,5.7-.6c-1.4-.7,2.4-2.5,2.4-4.1s2.5-2.1,3.7-2.4.8-2.5,1.7-3.4c1.1-1.1.4-2.5,0-4.1-.5-2.3.8-2.5,1.7-3.4s2.3-1.6,3.1-2.7c.6-.9.7-3,1-4.1.4-1.6,1.9-1.8,3.1-2.4,1.4-.6,2.5-1.9,2.7-3.4.5-1.7,1-1.9,1.4-3.4l10.5,8.8,4.7-.4,7.1-5.1,5.1,5.7,13.3-5.7,3.7,3.4,2.7,7.8,6.8-.4,10.2,14.3c.2-.5-.5,1.4-1,1.4-1.6,0-1,2.5-1,4.1,0,2.3-.7,2.3-2.4,2.7-1.8.5-2.4,1.2-2.4,3.1s-.7,2.8-.7,4.5c0,1.2,0,2.3-.4,3.4-.4,1.4-2.5-1.1-3.7-1.7-1.6-.8-2.5-2-3.1.4-.3,1.2-1.1,1.1-2,1.4l-12.3,13.3v-.2Z"/>
      <path id_mun="019" class="cls-1 estado" d="M639.6,293.3l1-15.1,13.4-7.5,20.2-1.5,17.3-2.9,3.6-4.8,1-.3c.8-.2,1.8-1.1,2.5-1.5,1.4-.6.5-1.2,2.6-1.2s1.7-.8,3.2-1.2c1.6-.5,2.2,0,2.2,1.5s1.8.7,2.9.7.7,1.5,2.5,1.5,1.7.2,1.7,1.9v3.9c0,.7,0,1.5-.5,2.2l-15.4,5.6-6.1,5.8v2.9l-10.9,10-35.7,3.1-5.1-.3-.3-2.9h0Z"/>
      <path id_mun="020" class="cls-1 estado" d="M611.9,392.8v-14.2l.4-6-9.9-5.3-11-5-22.3-7.4c0,2.5.5,3.2-2.1,3.2s-4,.5-5.6,0c-1.4-.4-3.9-.4-5-1.5s-1.6-2-2.1-3.2c-.5-1.2-1.3-3.9-3.2-3.9s-2.5-.8-2.5-3.2-.5-2.6-1.8-3.9c-1.1-1.1-4.3,0-4.3-1.5s-.2-5.6,0-5.6c2.1-.5,2.5-.4.7-1.8-.7-.5-2-4.7-2.5-4.6-1.7.5-2.6.5-3.9,1.8s-2.2.5-3.5-2.1-2.3-1.2-3.5-2.5-3.9-.4-3.9-1.8l3.5-12.4v-2.8c0-2-.4-3.6-.4-5.6s.5-5.6,0-6c-1.6-1.3-2.1-1.3-2.1-3.9s-.5-4.7,0-5.3c1.3-1.3,2.7-.5,2.1-2.8-.3-1,.3-3.9-.4-5l-1-1.7-1.1-19.8-10.6-13.4-6-2.1-10.6-7.1-11.4-12-6.4-2.5.4,5.6-5.6,7.4-1.1,14.2-6.7-5.3-1.7-9.2-3.9,1.7-8.5-9.9,2.8-4.6-12.7-5.6,24.8-44.9,9.9-15.9,59.4,13.1,42.1,80.7,72.5,20.9-12.7,7.8-1.5,15.3h-.6c-.8,0-1.6,0-2.5,0-.7,0-1.5,0-2.1-.4-.7-.2-1.5-.2-2.3-.2s-1.1.5-1.3,1.3c-.2.5-1.4.5-1.9.5h-2.5c-.9,0-1.5-.2-2.3-.2-.6,0-1.4.2-1.8.6-.5.4-.8.8-1.1,1.3-.3.5-1.2.8-1.6,1.1-.6.5-1.3,1-1.8,1.6-.5.5-.6,1.3-1.1,1.8s-.9.9-1.3,1.3c-.3.2-.5.4-.8.5l-11.2-6.4-3.3-.8-4.8,3.5,12.4,19.4,4.7,1-.2,5.5,2.3,4.7-2.9,4.1-.6.5c0,.8,0,1.6.3,2.5.2.8.5,1,1.6,1s1.6.4,2.5.4.6-.9.6-1.8.3-1.3,1.5-1c.7.2,1.5.2,2.3.2l10,4.5-3.4,5.8,7,.4.8,3.3,6.6,2.5,2.7,7.9-7.7-5.4-4.3,1.6,15.3,37.9-34.5-.5v-.4Z"/>
      <path id_mun="021" class="cls-1 estado" d="M573.3,453.5l.4-9.8-15.3-24.4-7.4-.4-4.4,3.1-8.2-2,16,29.9,5.5,6.1,21.3,38.3-.4,8.4,6.1-3.1,4.4,5.1,12.9-1,6.4-5.7c-1.3,1.3-2.8-2.2-4.1-3.4-.9-.9-.8-2.5-2-3.7-.9-.9-3.8-.4-5.1-.4-1.9,0-2.7-1.5-4.5-2.4-1.4-.5-2.6-1.4-3.7-2.4-.9-.8-1.9-1.5-3.1-2-1.1-.5-.4-2.1-2.7-2.7-1.4-.4-1-1.8-1-4.1s-.4-2.9-2-3.7c-2.3-1.1-1-2.1.4-2.7,1.2-.5,3.4-.3,4.5,0,.7.2,2.4,2.4,2.7,2.7.6.6,1.5-.5,2.4-1.4s3.1-.6,4.5-.6-.5-2.5-.7-3.1-2.9-1.2-3.4-1.7c-1.4-1.4,1-2.4-2.4-2.4s-1.5-1.5-2.7-2c-1.8-.9-1.5.5-2,2.4-.5,2-1.9-.4-3.1-1s-1.6-2.2-2.7-2.7,2.3-.8,3.4-1.4c1.8-.9-2.1-2.6-2.4-2.7-2.3-.5-3.2,1-3.7-1.4-.2-.8-2.8-1.5-3.7-1.6v-.2Z"/>
      <path id_mun="022" class="cls-1 estado" d="M740,224.5l-10.9,8-7.5,8.3-5.5,7.1-6.1,11.6.3,1.2c.2,1.1,2.4,0,3.2.7.4.4,0,3.3,0,3.9,0,1.2,0,2.3.3,3.4.3,1.2,2.5,0,3.6.3,1,.4,2.1.5,3.2.5,1.2,0,2.1,1.3,2.5,1.9s1.5-1.1,1.7-1.9c0-.2,4.7,0,5.4,0h11.6c1.3,0,1.3,1.5,1.5,2.5,0,.4,1.7,0,1.7,2.2v5.4c0,1.6,2-2.7,3.4-3.4,1.3-.6,2.7-.9,4.1-1,1.3-.2,2.5-.5,3.6-1,1.1-.3,1.5-1.2,2.2-1.9.4-1.2.7-2.4,1-3.6.4-1.5,0-2.2,1-3.2.7-.8,1.5-1.5,2.5-1.9,1-.5,1.2-2.5,1.5-2.9.7-1.4,1.5-1.3,1.9-2.6.3-1-1.7-1.7-2.2-1.9-1-.5-2.5-.2-3.6-.5-1.3-.4-.5-2.1,0-2.6.9-1.2,1.9,0,1.9-1.9s-.7-1.6-1-2.6c0-1.2,0-2.5,0-3.6,0-.3,2.5-.8,3.2-1,.8-.2.7-1.5,2.7-1.5s2.2.8,2.2-1.2,1.8-.7,2.9-.7.8-2,1.7-2.5c1.4-.6,1.2-1.9,1-2.9-.3-1.2-1.5-1.3-2.5-1.5-1.4-.4-2.3,0-3.2-.5s-1.4-1.1-2.2-1.5l-9.7-5.4-8.7-1.9-8.3.5-.2-.3Z"/>
      <path id_mun="023" class="cls-1 estado" d="M410.4,125.2c-.4,1.2,1.3,5.4-1.5,5.4s-3.9-.4-5.4,1.5,0,2.8-3.5,1.9c-.7-.2-3.1,1.9-4.2,1.9-2.2,0-1.5-2.1-4.2-.7-1.2.5-1,4.3-1.2,5-.3,1-3.8,1.5-4.5,1.9-.5.3-1.4,5.1-1.5,5.7-.5,1.8-2.7,1.7-3.8,2.3s-2.6,4.5-3.5,5.4c-1.7,1.7-2.3-.5-2.3,3.5s1.5,4.5-1.2,4.5-.4,3.5-1.2,5c-.4.6-3.1.5-3.8,1.9s-4.6-2.7-5-3.1c-1.6-1.6-2.8-1.5-5.4-1.5s-2.1,2.2-5,.7-3-1.2-5,.8-1.9-2.4-2.3-3.1l-.4-.8c0,0-1.5,3.7-3.5,5.7-1.3,1.5-2.3,3.2-3.1,5-.7,1.5-1.5,3-1.9,4.5-.5,1.8-3.5,3.1-4.5,4.2s-2.6,2.7-3.1,4.6c0,.2,2.5,5,2.7,5.4.8,1.1-2.8.5-3.8,1.5s-1.4,2.5-2.3,3.5c-.9,1.2-1.7,2.5-2.3,3.8-1,1.9-1.4,3.9-2.3,5.7-.7,1.7-1.6,3.4-2.7,5-1.2,1.6-1.4,3.6-2.7,5.4s-1.8,3.6-2.7,5.4c-1,1.7-2.4,3.3-3.8,4.5-1.7,1.7-2.7.7-4.2,0-2-1-1.4-1.9-4.2-1.9s-.8,3.7-.4,4.2c1.6,1.6,2.3,1.2,2.3,4.2s-3.2.7-4.6.7-1.4,4-1.5,4.2c-.4.5-.7.8-1.2,1.2l33.3,16.8-32.5,95.7,5.4-3.5,21.4,12.3-6.9,6.9,3,4.3-5.4,53.1,22.2,5.7-15.4,19.9h-10l-1.9,16.8,11.4,22.2,16.8,12.6,19.9.4,28.3.4,4.5,3.1,1.5-3.1,26.8,17.3-1.2-34.8,5.7,6.5,5-.7.4-5.4,6.5,2.3,8.1-14.5,12.3,8.4,6.1.4,10.4,10.7,21.8,3.8-4.5-19.5-12.2-11.1,6.9-11.1,8.8,5.7,2.3-3.1-3.5-4.2h25.3l6.9,5.4c-.6,1.2,3,0,3.8,1.2,1.5,2,.9,1.9,4.2,1.9s2.3-1.5,1.9-3.1c-.5-2.3-.5-3,1.2-3.8s1.6-.5,3.8,0,0,3.1,3.5,3.1,2.2-2.5,2.6-3.1,3.6-1.3,4.2-1.5c1.4-.7,2.5-1.6,3.8-2.3.9-.3,1.6-1,1.9-1.9l-16.4-30.3-9.5-7.6-7.3-13.4-2.7-14.9-7.3,6.1-3.1-6.9,6.5-18.7-6.1-6.4-5.7-.7-4.2,1.9-5-6.1,6.9-2.6,5.4-8.8-10.4-8.4-8.4,5.4-5.7-6.9v-9.9l-8.8-23.7-8.1-12.3,10-8.4-5.4-32.9-2.7-10-3.5,1.5-8.8-10.4,3.1-3.8-12.6-5.7,24.9-45.1-24.9-24.1-15.4-7.3-19.2-14.5h.4Z"/>
      <path id_mun="024" class="cls-1 estado" d="M602.5,861.5l-.9-8.8h-18.5v5.3l-11-4-11-16.7.5-5.7-22-11.9-4.8,4.8-32.2-10.5-21.6-1.4-14.5.9-13.2-21.2-6.2-2.6-15-18.9-.5-17.2-12.8-2.2,1.4-6.6-17.6-4.8,2.2-11.4,12.4,3.5,7.1-13.2h11.9c.3-.7.5-1.5.9-2.2.5-1.5-2.8-1.5-4-2.6-1.5-1.5-3.4-2.6-5.3-3.5-2.4-1.2-2.7-2.2.5-2.2s4.5.9,4.5-2.2,0-3.9,1.4-5.3c1.7-1.7,4.6,1.4,7.1,1.4h9.2l5.7-16.7,11.4.5,3.5,16.3h6.6l.9-9.7,9.7.9,1.4,7.9,4.4-.5,6.2-23.3-1.7-6.2c.8,0,.6-1.5.9-2.2l4.8-9.7,22.4-.5,6.6-7.1,18.1,7.4,7.4-4.8-3.5-3.5h-5.7v-7.1l2.2-3.5-9.7-13.2-25.1-30.4,16.3,8.4,11.9-3.5,4,7.1,5.7.5,4-4.8,2.2,12.8,7.9-5.3-.9,10.2,2.2,7.4h-10.5l-4.4,15.4,12.4,3.5.5,9.3,4.4,11.4-5.7,3.1v4.4l6.2,8.4,2.2,10.2-.8.2c-.4,0-.2,2.2-.2,2.5v2.7c0,1.2.2,2.2.2,3.3v2.7c0,.5-1.6,1.1-2,1.3-1.1.5-1.5,0-1.5,1.5v2.7c0,.9.2,1.7.2,2.7s0,2.1-.2,3.1c0,.3-2.9-.2-2.9-.2-.6-.2-1.2-1.2-1.5-1.6-.5-.7-1.1-1.4-1.8-1.8-.7-.5-1.7-.6-2.5-.4-.4,0-1.2,1.1-1.6,1.3-.9.5-.7,1.1-.7,2.2s0,1.7.2,2.5c.3,1,.6,1.3.4,2.2,0,.2-2.1.3-2.4.4-.8.2.8,1.5,1.5,2.2.4.4.2,1.9.2,2.5-.2,1-.6,1.9-1.3,2.5-.5.7-1.1,1.4-1.6,2-.5.5-.6.8-.4,2,.2.7,1.1,1.3,2,1.5,1.2.5,2.2,1,3.1,1.8.9.6,1.9.7,2.7,1.1s1.9.3,2.4.5.5,2,.7,2.5c.2.8,2.3,1.4,2.7,1.5,1,.3,0,1.9,0,2-.5,1-1,1.1.7,1.5,1,.3.9.7,1.5,1.3.7.7.6,1.1,1.5,1.5.6.3,2.3,0,2.9,0h6.1c1.3,0,1.5.3,1.5,1.5v5.9c0,1.3,0,1.4-1.1,1.6-.6.2-1.1,1-1.3,1.5-.5.9.3,2.2.5,2.7.3.8.3,1.7,0,2.5-.2.8-1.7.4-2.5.4s-1.6.4-2.4.7c-.3.2-.4,1.9-.4,2.4v1.1c0,1.5,1.3,1.1,2.2,1.3s.5,1.4.5,2.4,1.2,1.4,1.5,1.6c.7.7,1.1,1.2,2,1.5.8.3,1.5.4,2.4.4,1,0,2,0,2.9.4.8.5,1.5,1.2,1.8,2,.5.7,1.2,1.4,1.8,2,.7,1,0,1.2,1.5,1.8,1,.5,1.1,1.1,1.5,1.8.5,1.1,1.3,1.7,1.5,2.7.2.8,0,1.6-.4,2.4s-.9.9-.9,2,2.7.2,2.9.2c.9,0,1.8,0,2.7.4,1.1.5,2.5.3,1.1.9-.5.2-1.1,1.8-1.5,2.2-.6.5-1.1,1.1-1.5,1.8s-1.1.9-1.5,1.3c-.9.9-1.5,0-1.8,1.3s.6,1.9,1.1,2.5c.7,1,.7,1.8,2,2.7.8.6.5,1.5.5,2.5s2.1.7,2.7.9c1.4.4,2.2,0,2.7,1.5.4.9.5,1.9.4,2.9,0,.9-.6,1.4-.9,2s-.7,1-1.1,1.8c-.3.6,0,2.2.2,2.7.4,1.4-.2,1.3,1.3,1.6.8.2,1.8.9,1.8-.4s.7-1.6,1.5-2.4,1.1-.5,2.2-.5h8.7c1.1,0,2,.7,2,1.8v.4c0,1-.8.8-.5,2,.2.7,2.3.7,2.9.5,1.2-.2,1.5-1,1.5-2s.2-1.6.2-2.5.4-1.5,1.6-1.5,1.8,0,2.7.2c1.6.5,1.6.7,2,2.4,0,1,0,2.1,0,3.1,0,.8-.2,1.5-.2,2.5s-.4,1.6-.7,2.4c-.7,1.4-1.4.7-2.9.7s-1.9-.8-2.4-1.1c-.7-.5-1.6-.5-2.4,0-.5.2-.6,1.7-.9,2h-.4l.5,7.2-12.3,12.3.4,7.4-7.2,5.8v.8Z"/>
      <path id_mun="025" class="cls-1 estado" d="M720.7,190.3l11.6,16.5,5.4,1.2-.5,11.6,2.5,4.8,8.4-.5,9,1.9,9.4,5.4.5-1.2c.4-1,0-3.3-.3-3.9s-1.3-1.5-1.7-1.9c-.6-.6-2.5,0-3.2-.7-.8-.8-.9-1.4-2.2-1.9-.9-.5-1.7-1.3-2.2-2.2-.5-.8-1.1-1.7-1.5-2.6-.5-1,.2-2.1.5-3.2.4-1.1.8-2.2,1.5-3.2.6-1.4-1.5-2.6-2.2-3.2-1-.7-1.8-1.5-2.6-2.5-.9-.7-1.5-1.7-1.5-2.9s2.1-1.9,2.6-2.5c.3-.3-1.8-2.5-1.9-2.6-.5-.8-1.1-1.6-1.7-2.5-.7-.7-1.9-.7-3.2-.7s-1.7-1.3-1.9-2.2c-.5-1.6.6-2.1-.5-3.2-.9-.9-1.4-.8-1.7-1.9-.4-1.5.9-1.7-.3-2.9-.9-.7-1.9-1.3-2.9-1.7-1.3-.6-1.5-1.3-2.5-2.2-.8-.7-1.5-1.6-1.7-2.6-.2-.3-.5-.5-.7-.7-.5-1.7-2.6,1.9-2.6,1.9-.2.9-1.8.5-2.6,1-1,.5-.4,1.6-1.5,2.2s-2.8-.3-3.6-.3c-1.2,0-.7,1.8-.7,2.9s-1.5,1-2.6,1-.7,1.8-.7,2.9,0,1.6-.3,2.5h0Z"/>
      <path id_mun="026" class="cls-1 estado" d="M681.1,392.3l-1.8,10.1,19.3,19.3,2.6-2.4h5.2l-1.5,7.8,6.5-5.7,7.3,2.8,14.3-7,15.4-5.7.3,4.5,9.9,3.6,15.4,13-40.1,10.9-23.4,25,1.8,3.6-.5,15.1-8.5,8.5-5.5-13.3-4.5-7.5-12.2-7-.3-5.5-1.1-.8c-.9-.6-1.2-2.5-1.8-3.1l-2.1-2.1c-.8-.8-1.4-1.8-1.8-2.9-.5-.9-1.8-1.5-2.9-2.1-1.7-.9-2-1.5-4.2-1-2.4.5-1.5-1.2-2.6-2.6-.7-.8-1.5-1.6-2.4-2.4-.7-.7-1.5-1.5-2.4-2.1-.8-.6-1.5-1.5-2.1-2.4-.5-.9-1.4-1.6-2.4-2.1-1.1-.5-2.1-.6-2.8-1-1.1-.5-1.6-.9-2.9-1.5l-3.6-1.8c-1.1-.4-2.1-1-2.9-1.8-.6-.6-.3-2.7-.3-3.6s0-2.6-.3-3.9c-.2-.8-1.6-1.4-2.1-1.8s-.2-2.4-.5-3.1-3.5-.3-4.2-.3c-2.1,0-3.3,0-3.6-1.3-.5-1.7.4-1.6-1.5-2.6-1.5-.7-2.3-.2-3.1-1s-1.6-1-3.6-1h-13l-11.7-18.7-1.8-9.4,14.5-7.5v14.3l35.1.8,19.3-1,15.1-.2h.3Z"/>
      <path id_mun="027" class="cls-1 estado" d="M746.2,746.7c1-.5,3.9-.7,6.2-.7h6.1c3,0,1.1-1.1,0-2.2-.9-1.1-2.2-1.9-3.6-2.2-1.9-.5-3.5,0-4.7-.7-1.6-.8-2.1-1-2.5-2.9s-2.5-1.5-4.4-1.5c-3.3,0-2.9-1-4.4-2.9-1-1.2-2.3-2.2-3.6-2.9-1.5-.7-2.1-2.5-3.6-4s-1.8-2.5-4.4-2.5c-2.1,0-4.1,0-6.2.4-1.1.3-2.3-2.8-2.5-3.3-1-2,1.3-2.8.4-4.7-.7-1.5-2.2-2-3.3-2.5-1.5-.7-1.8-2.5-2.9-3.6-1.5-1.5,1.6-2.9,2.5-3.6,1.3-1-2.5-3.1-2.9-3.3-1.3-.6-1.9-1.9-2.9-2.9-1.5-1.5-2-1.5-2.5-3.6s1-2.8,1.8-3.6c1.3-1.3,1.1-2.7,1.1-4.7s2.5-1.9,3.3-3.3c.7-1.7.5-3.6-.7-5.1-.9-.9.9-2.8.4-4-.8-1.5-2.5-1.5-4.4-1.5s-3.3,0-4.4-1.1-2.2-1.8-3.3-2.9c-2.1-2.1-.2-2.4,1.5-4s.9-2.4-.4-3.6-2.5-1.8-1.5-4c.6-1.2.4-3.7.4-5.1s-2.5-2.4-2.9-2.9c-1-1.2-2.3-2.2-3.6-2.9-2.1-1.1-2.5-.3-4-1.8s-.4-3.9-.4-4.7-3.5-1.6-4-1.8l-4.4-1.1c-1.5-.4-2.4-1.8-2.9-2.9-.5-.8-2.3-2-2.9-2.5-1.2-1.2.2.4-.4-.7l-5.4,1.7-4.4-5.6-2.4-1.7c-.2-.3-.3-.5-.5-.7-.3-.6-.9-1-1.5-1.1-.6,0-1.3-.4-1.8-.7-.5-.4-.9-.8-1.3-1.3s-.8-.9-1.3-1.3c-.6-.5-.7-1.1-1.4-1.5-.5-.5-.9-.9-1.3-1.4s-.9-.8-1.4-1.1c-.6-.4-.6-.5-1.7-.5s-1.5,0-2.1-.2c-.6-.2-1.2-1-1.4-1.3-.4-.4-.9-.6-1.5-.7-.6-.2-1.3-.3-2-.3-.6,0-1.3,0-1.8-.2-.6-.3-1.3-.4-2-.3-.5,0-1,1-1.1,1.1-.6.6-1,.4-2,.2-.6,0-1.4-.2-2-.2s-1.4-.2-1.4.7,0,1.3-.5,1.7c0,0,0,.2-.2.3-.4.5-.8.9-1.3,1.3-.4.5-.7.9-1,1.4-.3.3-.6.5-1,.5l-10.6-.3-7.5-10.8-8.6,11.7-14.1-9.6-3.8-13.3-2.6,16.9-15.4-4.1-.2,9.7,1.3,7.2-10.2.5-3.6,14.5,12.2,4.1.8,10.5,4.1,10.1-6.1,3.2v5.3l6.9,7.3,2,10.1,4.5-2.8,16.2,6.9,4.5-8.4-2-5.3,2.8-2.5,3.6,6.1,6.1-.4,5.6,2.5-16.2,8.1.5,18.2h20.6l-8.4-10.9,17,1.2-3.3,11.4-7.7,6.5,8.1,7.3,2-4.5,4.5-.5.8-1.6c1.2-2.5-1.8-4.7,2.5-3.6,2.8.7,3.2,3.5,3.6,5.3,0,.2,6.2,0,6.9,0h6.4c1,0,1.2,2,4.1,2s3.2,1.5,3.6,3.3c.3.9-4.3,1.4-5.3,1.6s-3.1,3.5-3.6,4.1c-1.7,1.7.3,3.9.8,4.5,1.4,1.4,4,.3.4,2-1.9,1-2.8.3-2.8,3.3s.5,4.1-2.5,4.1h-6.1c-2.2,0,0,4.3,0,4.5.2.4,5.5,0,6.1,0h9.3l29.1-8.4h1.6c1.9,0,.4-5.6,2.5-1.6.6,1.3.4,3.7.4,5.6s2.6-3,2.8-3.3c1.5-1.5.2-4.3,2.8-1.6,1.5,1.5.7,3.5,2,.8,1.1-2.1,2.5-2.2,3.6-2.5,1.9-.5,2.6,3,4.1,4.5s3,.6,4.1-.5c1.5-1.5,1.6-2.5,4.5-2.5s4.4,0,6.4.5c2.7.5,3.6.2,3.6-2.5s4-1.6,5.3-1.6c2.6,0,1.5,2.1,4.1.8,2.3-1.2,2.9-1.4,5.3-.5,2.7,1.1,1.4,3.7,4.8,2.8.7-.2,1.4-.3,2.1-.5l.3.6Z"/>
      <path id_mun="028" class="cls-1 estado" d="M639.7,296.3l-8.1,1.2v13.4l.9.7c1.1.8,1.5.6,2.6,1.6s2.5.4,3.1,0c1-.3,2.1-.3,3.1,0,1.4.4,1.5,1,1.6,1.9.2.6-.3,2.6-.3,3.5,0,1.6,0,2.1.7,2.8,1.1,1.1,2.5,1.5,3.5,2.6.4.4.6.7.9,1.2.3.6,2.5.5,3.5.5s2.9,1.5,3.8,1.9.5,1.9.3,2.8-2.3.5-3.1.5c-1.5,0-1.5.6-1.5,2.2s0,2.2-1.2,2.8c-1.6.8,1.6,1.6,1.9,1.6.6.2,2.2,1.5,2.9,1.9,1.4.6,2,.3,2.4,1.9.4,1,.6,2,.7,3.1,0,1.7,0,1.9-1.6,1.9s-1.2,1.9-.9,2.6c.2.9,2.6-.4,2.6,2.2s.3,2.3-1.2,2.6c-1.1,0-2.3,0-3.4-.3h-3.7c-1.7,0-1.8-.2-2.6-.9-.8-.9-1.9-1.4-3.1-1.5h-3.1l2.6,7.8-8.1-5.5-4.1,1.9,15.3,37.6,19.3-.9,15.3.3,13.1-8.5,6.6,5,.7-16-16.4-12.2,5-3.1-3.8-5.1,4.1-8.4,4.7,1.6-2.6-10.7-9.5-5-.3-12.9-2.2-1.6.5-22.6-34.8,3.1h-6.4l.2.3Z"/>
      <path id_mun="029" class="cls-1 estado" d="M591.2,519.3l-16,8.4-6.7-9.5-9.8-1v-1.7c0-1.7,0-3.5.4-5.1,0,0,2.5-.8,2.7-1.7s-1.3-2.3-1-3.4,2.2-3.5,2.7-4.1c.8-.8.8-2.5,1.7-3.4,1.1-1,1.8-1.5,2.7-2.4,1.5-1.5.6-1.8,3.1-3.1,1.4-.7.7.5,1.7,2.4.2.3,3.9-.7,4.7-.7h3.4l.4,8.2,8.2,7.8,2,9.1-.2.2Z"/>
      <path id_mun="030" class="cls-1 estado" d="M718.9,808.8c-1.8.7-2.1,1.2-2.1,3.6s.3,4,.3,6.1v4.5c0,1.9,0,2.7-1.2,3.4-.3.2,0,4.1,0,4.5,0,1.8,1.1,2.1,2.5,2.5s3.1,1.8,3.9,2.5c1.4,1,1.4,2,2.7,2.7,1.3.7,2.5,1.8,3.4,3,1.1,1.5,1.5,1.3,1.5,3.6s-1.3.9-.9,2.5c.3,1,2.9,1.9,3.9,2.5s-.7,1.4-1.2,2.5c-.7,1.5-1.5,2.7-2.1,3.9-1,1.9-1.2,1-1.2-.9s-.3-2.9-.3-4.5-1.7-1.9-2.7-2.1c-.3,0-2,2.6-2.1,2.7-1.2,1-2.3,2.2-3.4,3.4-.9.9-1.9,1.7-3,2.5-1.3.9-1.8,1.4-2.1,2.7s.4,3,.6,3.9c.3,1.3.9,2.5,1.8,3.4,1,.9,2.1,1.5,3.4,2.1,1.3.6,2.4.8,3.4,1.8s1.4,1.6,2.5,2.7,2.6.8.6,1.8c-1,.6-2,1.5-2.7,2.5-1.2,1.2-1.4,1.3-2.7.6-1-.5-1.9-1.1-2.7-1.8-1.5-1.6-1.5-.5-1.5,1.5v4.8c0,2.1-.5,2.7,1.8,2.7s3.5,1.1,5.2,1.5c1.2.3,1.2.9,1.2,2.7,0,2.6.7,3.8-.6,5.2s-1.2,2.7-1.8,3.9-2.5-1.2-3.6-.9v4.5c0,2.1,0,2.6-.9,3.6s-3.8,0-4.5,0c-2.5,0-2.5-.3-3.6-1.5l-2.7-2.7c-1.3-1.3-1.8-1.6-3.6-1.2-1.3.3-2.7,1.8-3.6,2.7-1,.9-2.3,1.3-3.6,1.2-1.9,0-3.7-.8-5.2-1.2s-3.1-.3-4.8-.6-3.2-.5-4.8-.9-2.6-1.2-4.3-1.8c-1.3-.5-2.4-1.2-3.4-2.1l-2.5-2.5-3-3c-1.1-1.1-1.3-1.9-2.1-2.7s-.7-3.3-1.2-4.3c-.6-1.3-1.2-2.5-1.5-3.9-.4-1.4-.5-2.6-.9-3.9-.4-1.3-1.1-2.5-2.1-3.4-.8-1-1.8-1.7-3-2.1-.5,0-2.4-2.5-2.7-2.7-1.3-.9-3.3-1.4-4.3-1.8-1.2-.5-2.4-.7-3.6-.9-1.6-.5-2.8-1.4-4.3-2.1-1.6-.8-3.2-1.9-4.3-2.5s-2.9,1.4-3.4,1.8c-.9.9-2.5,1.3-3.6,1.8-.9.5-3.5,0-4.5,0-1.9,0-2.9-.3-3.6,1.2.9.5,1.8,1.2,2.7,1.8,1.5,1.5.4,1.5-.9,2.1-1.2.7-2.2,1.6-3,2.7-.8,1-2,1.6-3.4,1.5h-4.5c-1.3,0-2.8-1.5-3.9-2.1-.9-.5-2.6.6-3.9.6s-2.4-1.1-4.3-.6c-2.3.5-2.6,1-4.3-.6s0-2.8.9-3c1.6-.3,3.3-.8,4.8-1.5,1.4-.7-.5-3.5-.6-3.6-.3-.6,0-2.3,0-3l6.6-6.1v-7.3l12.7-13.4-.3-6.6c-.9-1.9,4.3,0,6.4,0s1.5-1.4,2.1-2.7c.5-1.1.3-3.3.3-4.5,0-2,.2-2.8-.9-3.9s-3.8,0-4.5,0-1.4,2.8-1.5,3.4c-.3.9-2.3,2.1-3.4,2.1s-.9-2.5-.9-3.6c0-1.5-2.5-.9-3.9-.9s-3.2-.3-4.8-.3-2.7.3-3.9.9c-1.8.9,1.3,3.5-1.8,2.7-2.2-.5-1.8-2-1.8-3.9s1.2-2,1.2-3.9,0-3-.6-4.3c-.2-.5-4.1-.8-4.5-.9-1.3-.3-.6-2.5-1.2-3.6s-1.7-.7-2.1-2.5c-.2-.7-.3-1.4-.3-2.1-.3-1.1,5.5-.9,6.1-.9,1.7,0,3.5.3,5.2.6,1.5.3,3.5,0,5.2,0s2.3.5,3,2.1c.5,1,2.5.6,3.9.6h4.5c2.1,0,1.5-1.6,1.5-3.4s4-.3,4.5-.3c1.8,0,1.2-2.2,1.2-3.6s-.3-2.9-.3-4.3q0-2.3,1.8-2.7c.6-.2.3-3.6.3-4.3v-4.5c0-1,3.1-.6,3.9-.6h4.5c1.8,0,1.2-2.2,1.2-3.6v-4.5c0-2.2,1.5-1.5,2.7-.9.6.3,1.4,2.9,1.5,3.4.5,1.1,3.2.6,4.3.6s.4-3.8.3-3.9c-.3-.9-2.5-1.8-3-2.1-.9-.5-1.4-2-2.1-2.7s-3.8,0-4.5,0h-4.9c-2,0-2.6.2-3.4-1.2s-.8-2.1-1.8-3-1.8-1.1-1.8-3-.9-2.3-.9-3.9,2.8-.3,3.9-.3h4.5c2,0,2.9-.5,3.4,1.2s.3,2,1.8,2.7l7.5-.9,7.5.3,28.5-8.8c.5,2.2,3.8-1.7,3.9-2.1.2-.5-.3-1.7.9.6s2.1,2.5.6,3.9,0,3.2.6.3c.5-1.8.8-2.7,2.1-3.4,2.1-1.1,1-1.1,3,.9s1.5,2.1,1.8,3.4c.2.7,2.3.5,2.7,2.1.6,1.5,1.5,2.8,2.7,3.9,1.2,1.2,1.5,1.5.3,2.7s-1.5,1.9-1.2,3c.2.9,3.2,1.9,3.6,2.1,1,.5,1.9,1.3,2.7,2.1,1,1,2.5.5,2.5,2.5s-.2,2.1-2.5,2.1-2.6-1-3.6-1.5c-1.5-.7-1.5-1.5-3.4-1.5s-1.4.5-1.8,2.1,1.4,1.8,2.7,1.8,2.9,1.7,3.4,2.1c1.1,1.1,2.7.7,2.7,2.5s-.6,2.7-2.1,2.7-2.6-.5-3.6-1.5c-1.3-1.3-1.6-2-3-2.7-1.1-.5-3.5,1.3-3.9,1.5-1.8.9-2,1-2.5,2.7-.4,1.5,3,0,4.5,0s2.3,1.4,2.7,1.8c.8.8,1.4,1.9,2.5,2.7,1.8,1.4,2.1.6,2.1,3.4s.4,2.9-1.2,3.4-3,0-3.9.6c-1.5.7.5,3.5.6,3.6,1.2,1.2,2,1.5,2.5,3,.4,1.1,0,2.3-.9,3,.5,1.7,3.5.7,5.2,1.5,1.1.5.3,1.5,3,1.5s2.9.3,4.3.9c1.9.9,3.6,2.2,4.3,1.8-.5.4-.9.6-1.5.9l-.5-.4Z"/>
      <path id_mun="031" class="cls-1 estado" d="M468.8,243.8l5.2,34.2-9.2,7.9,8,13.1,8.7,23.8.4,8.7,4.7,7.5,8.7-6,10.7,8.7-5.5,9.1-6.7,2,4.8,6,4.4-1.2,5.5.8,6.7,6.4-6.7,18.3,2.8,7.5,7.5-6.7,3.2,15.9,6.4,12.7,9.9,7.9,7.5,1.2,4.7-2.4h7.5l15.1,24.3.4,9.1-.4.6c-.6,1,1.1.9,1.5,1.2,1.5.7,1.8-.3,1.8,1.4s.8.9,1.8,1.2c.6,0,1.4.2,2,0,.5,0,1.4.9,1.8,1.2.5.4.7,1.1.5,1.6-.4.6-1.1,1.1-1.8,1.3-1.4.4-.4.7.5,1.3.8.5,1.5,1,2,1.6.5.7,0,1.2,1.2,1.4s1.1-.3,1.3-1.2-.2-1.1.5-1.8c.5-.5,1.7.5,2,.7.7.7.4,1.4,1.3,1.4s1.7,0,2.5,0c.6.2.6.5.6,1.3s0,1.4.9,1.5c1,.3,1.8.7,2.7.9.3,0-.2,2.1-.3,2.3-.2.4-1.2.3-1.6.3s-1.3,0-1.8.3c-.6.4-.7.8-1.4,1s-1.4.3-2,.3-1-.7-1.4-1.2l-1.4-1.4c-.4-.4-1.6-.3-2.3,0s-1.3.2-1.6.7-.9.4-1.3,1c-.5.9.6,1.3,1,1.6.7.7,1.9.9,2.3,1.8,0,.7,0,1.5-.2,2.3v2.5c0,1.2,0,1.1,1.2,1.6l.5.3c.7.4,1.4.6,1.5,1.4.2.9,1,1.5,1.9,1.5.8.2,1.5.5,2.2,1.2.7.7,1.2.9,1.8,1.5.6.5,1.3,1,1.9,1.4.5.4,1.3.4,1.8.7.5.4.8.8,1.2,1.3.5.4,1,.5,1.5.5h2.3c.8,0,1.3,0,2,0,.8.2,1.7.5,2.5.9.4.2.4,1.3.5,1.5.3.5,0,1.2.4,1.8s.9.9,1.4,1.4c.5.4,1,.6,1.3.9l10.4-7.4,4.6-6.8-6.8-7-5.7-1.4,3.8-10.1,3.9-17.1-5.4-1.7,3.3-9.9-6-8.5v-9.1l-1.9-4.9-11.8-18.9-1.9-8.8,15.1-7.7.3-5.8-11.3-6.3-10.4-4.4-21.4-7.2-.5,1.4c-.5,1.4.4,1.4-2.2,1.4h-8.3c-1.7,0-1.9-.8-2.7-1.6s-1.3-1.7-1.4-2.7c-.3-1.3-1.2-2-1.9-3-.5-.6-2.6-1-3.3-1.6-.4-.4-.4-3.4-.5-3.8-.5-.8-1.2-1.5-1.9-2.2-.7-.7-2.5-.7-3.3-1.1s-.8-2.7-.8-3.5c0-1.9,0-2.4.8-3.3,1.3-1.3.3-1.4-.8-1.9-.8-.5-1.2-2-1.4-2.7-.4-1.5-1.5-1.1-2.7-.8-.4,0-1.5,2.3-1.6,2.5-1.1,1-1.5-.4-2.2-1.1-.7-.8-1.3-1.7-1.6-2.7-.3-.6-2.3-1.2-2.7-1.4-1.1-.5-1-1.5-2.5-1.9h-1.6c-.5,0,.5-4.2.5-4.4.4-1.4.5-2.3.8-3.3.4-1.4.7-1.8,1.1-3.3.4-1.2.5-2.4.5-3.5v-8.3c0-1.4.6-2.2.3-3.5-.3-1-1.5-1.4-1.9-2.7-.3-1.2,0-2.9,0-4.1s0-2.5.5-3.5c.6-1.2,1.1-1,1.1-3v-3.9c0-.7-1.6-1.1-1.6-2.7v-12.4c0-1.3-.5-2.1-.5-3.5s0-2-.3-3l-10.7-13.6-6.4-1.9-10.4-7.2-11-12.1-6.4-2.7.3,6-5.7,7.7-.8,13.7-6.6-5.4h0Z"/>
      <path id_mun="032" class="cls-1 estado" d="M639.2,293.2c-1.3,0-2.5,0-3.8-.3-1.2,0-2.4,0-3.5,0-1.5,0-1.4.7-2.2,1.5-.4.4-3,0-3.5,0-.8,0-1.6,0-2.4.3l-9.5,7.8-11.2-6.6-3.1-.7-5,3.5,12.4,19.3,4.7.9-.3,5.7,2.2,4.5-2.6,4.1c-1.4,0,.3,2.7.3,4.1s3.4.3,3.8.3c.9,0,0-2.4.9-2.6,1.1-.3,2.3.3,3.4.3l10,4.3-3.5,5.9,6.9.3.9,3.4,7.4,2.4c.4,0,.8-.2,1.2-.3,1-.2,2.1,0,3.1.3.5,0,1.7,1.9,1.9,2.2.4.4,3,0,3.5,0h3.9c1.2,0,2.3,0,3.4-.5.9-.5,0-2.2-.5-3.1s-2-.3-2.6-.9c-.9-.9-.5-1.9.3-2.6s3.5-.2,3.5-.3c.9-.2-.8-1.6-1.2-2.4-.7-1.5-.3-1.7-1.5-2.8-.8-.8-1.5-1-2.4-1.9-.6-.7-1.4-1.3-2.2-1.6s-1.6-.7-2.4-1.2c-.6-.6,1.3-1.1,1.9-1.6.2-.2.2-3.2.3-3.4.2-.8,2.3-.5,3.1-.5,1.8,0,2.3,0,1.9-1.6-.3-1.2-.8-1.4-1.9-1.6s-1.5-.6-2.6-.9c-1.2,0-2.4,0-3.5,0-.5,0-1.9-2.3-2.2-2.6-.8-1.1-1.7-1.3-2.6-2.2-.7-.6-1.3-1.4-1.6-2.2-.5-1.1.7-2.1.9-2.6.6-1.2-.4-2.5-.7-3.4s-2-.6-2.6-.5c-.9.3-1.1.9-2.9.9s-2.5-.7-3.5-1.9c-.9-.9-1.5-.6-1.5-2.4v-10.7c0-1.7.6-1.4,1.5-2.2s2.5-.3,3.4-.3h3.5c.2,0,0-.4,0-.5l-.9-2.9h0Z"/>
      <path id_mun="033" class="cls-1 estado" d="M354.7,705.5c-.5-1.8.8-4.1,1.7-5.9s1.2-2.8-.8-3.7c-1.8-.9-3.1-1.2-2.5-3.4s1.6-3.5,2.1-5.9c.4-2.4.5-4.7.5-7.1,0-2.7,1.9,1.1,2.5,1.6.3.3,2.8-4.1,2.9-4.2,1.1-1.1-2.5-2.1-3.4-2.5-.3-.2,1.8-3.4,2.1-4.6.7-3.1,2.2-.3,2.9.5.9.8,2.1,1.3,3.4,1.3,0,0,1.9-4.5,2.1-5.5.5-2-.5-4.1-.8-5.5-.5-2.4-4.9-2.1-6.7-2.1-3.1,0-4.2.7-4.2-2.5v-6.3c0-2.7-.7-3,.8-4.6.3-.3,4.1,2.8,4.2,2.9,1.2.9,1.6,4.9,1.6.8v-6.3s5.6-.5,6.3-.5c1.9,0,.2-5.5-1.6-5.5s-3.5-1.5-4.6-2.1c-1.4-.7.8-3,.8-4.6l28.9,3.4c-1.7-.9,5,1,5,2.9,0,3.2,3.2,2.5,5.5,2.5s-.8-3.3-.8-4.6c0-2.5,0-4.2-.8-5.9s-.6-3.3.5-5.5c.8-1.6,1.8-3.2,2.9-4.6,1.5-2-2.8-1.3-4.2-1.3-2.9,0-3.3-.3-4.6-1.6-.5-.5-.6-5-.8-5.5-.8-1.6-2.6-2.6-3.4-4.2-.9-1.8-.5-4.5,0-6.3.8-3.4.8-2.5-1.3-4.6l-.5-.5,3.7-4.6.5-12.5,23.1-18.8,8.4.8,10.4,18.4,9.6,6.7,17.2-2.1,19.3-15.4h5.9l-25.5,53.6h21.3c-.6-.6,1.6,0,2.5,0l-.5-6.3,5.9,9.6-13,25.5,16.7-5.5.5,8.8,4.6,4.6,19.3-7.1-1.6-7.1-.5-6.7,15.1-6.3,3.8,3.4v5.5l6.7,1.6-1.6-12.2,9.6,11.3-2.5,3.4v8h5.9l4.6,3.4-9.2,5-17.1-8-6.7,7.1-22.2.8-6.3,11.7,2.5,6.7-6.7,23h-4.3l-1.6-7.5-9.6-.8-.8,10.1h-6.3l-4.2-17.2h-10.9l-5.9,15.9c-.2-.2-6.8.5-7.5.5-2.8,0-3.5,0-5-1.6-2-2-3.6,0-4.2,1.3-.8,1.7-.5,5.3-.5,7.1s-4.2-.5-6.3-.5-.2,1.5,0,2.1l9.6,5.9v2.9l-12.2-.8-7.1,13.8-12.5-3.7-21.8-1.6-4.2-2.1-4.2,3.8-6.3-5.5-10.1-4.2-3.3-13h-.4Z"/>
      <path id_mun="034" class="cls-1 estado" d="M295.5,240.2v8.5l-20,36.6-21.5,48.8,6.9,4.9-2.8,6.9-8.5-5.7-1.3,18.3,7.4,2.5-4.9,4.1,7.7,9-1.6,17.9,4.9,7.7v25.6l-2,20.3,6.5,4.1,3.6,9.8v19.1l7.4,7.7v9l-6.1.8v6.5l-9.8,6.5-.5,5.3,10.2,10.5,4.5,3.3,4.9,8.2.8,5.7,1.3,1.6c0,.2,5.9.9,6.5,1.2,1.5.8,2.5,3.8,2.8,5.3.5,2,3.2,2,4.9,2.8s5.5.9,6.9,1.2c2.3.5,3.9,3.8,5.3,4.9,1.6,1.2,2.6,1.5,4.9,2,1.4.4,1.8-2.5,3.3-2.8,1.2-.3,4.4,3.3,6.5,3.3s3.2.2,4.1,2l8.2-7.7,28.1-15.1,17.9-10.2-25.6-26.9-18.7-.8-16.7-12.2-11.8-22.3,2.8-17.1h9l16.3-20-23.2-5.7,6.1-52.9-3.6-4.9,7.4-6.5-21.2-11.8-6.1,3.6,33-96.4-33.8-16.6h-.2Z"/>
      <path id_mun="035" class="cls-1 estado" d="M333.5,716.8l-20.8,25.9,23.1,23.6.4.6c.4.8-.3,1.5-.6,1.9-.5.5-1.5.4-2.3,0-1-.5-2-1.2-2.8-1.9-.5-.5-1.2-.7-1.9-.9-.8-.2-1.7-.2-2.5-.2s-2,0-3,.2c-1.2.3-1.6,1.3-2.4,2.1-.5.5-.9,1.1-1.5,1.6-.5.5-1.1,1.1-1.7,1.5-.6.4-1.5,1.9-1.7,2.4-.5,1-1.1,1.8-1.6,2.9-.5,1-1,2.1-1.3,3.2-.3,1.2-1.1,1.7-1.6,2.7-.3.5-1,1.3-1.3,1.7-.5.8-.7.8-.9,1.7-.3,1.1,1,1.9,1.6,2.7.7.8,1.5,1.5,2.4,2.2.9.9,2.1,1.5,3.4,1.7,1.3.4,2.4,1.1,3.2,2.1.6.6,1.1,1.5,1.3,2.4.2,1.1.7,2.1,1.6,2.7.9.8,1.7,1.7,2.4,2.7.5.5,1,1,1.6,1.5.7.9,1.2,1.9,1.5,3,0,.5.4.9.6,1.3.3,1.2,2.2,2.1,2.7,3.2s0,1.4,1.1,1.9c.8.5,1.6.9,2.4,1.5.9.9,2,1.6,3.2,2.3s1.3,1.3,2.7,1.5c1,.4,1.9.9,2.7,1.6,1,.6,2,1.5,2.8,2.3.5.5.5.8.2,1.6s-1.1,0-1.1,1.3.4,1.7.4,2.7c0,1.5.2,1.3,1.3,2.1.9.6,1.7,1.5,2.5,2.3,1,1,.9,1.5.9,2.9s-.4,1.5-.4,2.5,0,1.5.6,2.1,2.6.5,3.5.6c1.2.2,1.8,1.1,2.8,1.5,1.3.7,2.4,1.6,3.5,2.5,1.2.9,1.6.9,1.9,2.1.2.9,0,1.9.5,2.7.6,1.1,1.5,2,2.5,2.7.5.4,1,.9,1.5,1.5.7.9-.8,1.3-1.1,1.5-.6.4-.6,1.2-.6,1.9,0,1.2,0,1.5.8,2.1.8.5,1.7,1,2.7,1.3.9.4,1.7.7,2.5,1.3,1.1.6,2.2,1.2,3.4,1.6,1.1.3,2.3.2,3.4.5l3.2.8c1.2.4,2.3,1,3.2,1.7.7.5,1.8.9,2.7,1.5.7.5,1.7.3,2.2-.5.3-.5,0-2.1-.2-2.5-.3-.8,0-1.7.6-2.2s2.2-.2,3-.2.5-1.4.5-2.1v-3.2c0-1,0-1.9-.2-2.8,0-.5-1.5-.8-2.1-1.1-1.2-.6-2.5-1.5-3.5-2.1s-1.8-1.1-2.5-1.5c-1-.5-1.8-1.1-2.7-1.6-.7-.4-1.5-.9-1.9-1.6-.6-.8-.5-1.8-.5-2.9s0-1.5.6-2.3,1.5-.4,1.7-1.5c.3-.9-.8-1.5-1.6-1.9-1.1-.5-1-.6-.2-1.7.6-.8-.4-1.5-.6-1.7l-2.1-2.1c-.8-.7-1.6-1-2.5-1.7-.6-.5-1.2-1-1.7-1.6-.7-.7-.6-1.1-.6-2.1v-8.5c.5-1.7-.5-3.5-2.3-4-1-.5-2-1.5-3-2.1-1.2-.6-2.3-1.3-3.5-1.9-.8-.5-1.5-1.1-2.2-1.7-1-.6-2.1-1.2-3.2-1.6-.7-.4-.6-1.1-.6-1.9v-2.9c0-.8-.2-1.5-.8-2.1-.5-.5-1.1-.4-1.5-.5-.6-.6-1.7-.2-2.5-.2s-2.5-1.4-3.4-1.7c-1.1-.4-2.2-.5-3.4-.5-1,0-1.8.3-2.8.3s-2.3-.2-3.4-.5c-.9-.2-1.7-.7-2.4-1.5-.7-.7-1.3-.7-1.3-1.9s-.2-2-.6-2.9-1.9-1.3-2.5-1.7c-.8-.6-1.5-1.2-2.3-1.7-.5-.5-1-1-1.5-1.5-.5-.6-1.1-.9-1.3-1.7,0-.8,0-1.5.5-2.3.4-.5.9-.9,1.5-.8.9,0,1.6-.3,2.5-.3.9,0,1.7-.4,2.5-.6.8-.4,1.6-.7,2.4-1.3.7-.4,1.5-1.8,2.1-2.5s1.1-1.5,1.6-2.3c.4-.7,1-1.1,1.3-2.1v-4.7c0-.7-.2-.6-.4-.9l-4.9-9.5,4.5-21.1,6.7-.2-2.5-5.6-12.4-1.7,2.7-7.4-2.7-3.8h0Z"/>
      <path id_mun="036" class="cls-1 estado" d="M388.8,867l19.6,7,26.3-52.5,34.2,11.3-1.6-19.3-14-21.3-6.4-2.6-14.6-18.6-.6-18.3-12.6-1.6,1.6-6.4-18.3-5.3,2.6-11.5-21.9-1.6-4.6,5.6h-5.4l2.4,16.6-3.4,5-2.6,13.3-12.3-4h-9.6l-5,3v.5c0,.5,0,1.1,0,1.6v3.5c0,.5,0,1-.2,1.4-.3.5-.5.8-.9,1.2-.3.4-.5.6-.9,1-.4.4-.6.7-.9,1.2-.3.5-.6,1-.9,1.4s-.5.7-.9,1c-.3.3-.8.4-1.2.5-.5.3-.7.5-1.4.5-.5,0-1,.3-1.5.5-.5,0-1,.3-1.5.5-.5,0-1.1.2-1.6,0-.5,0-1,.2-1.5.5-.5,0-.6.5-1.1,1s-.2,1.1-.2,1.6.8,1.3,1,1.8,1,1.2,1.3,1.5c.4.4.7.7,1.2,1.1.4.3.8,1.1,1.2,1.4.4.5.8.7,1.3,1,.5.3.7.2,1.2.6.3.5.5.9.5,1.4.2.5.4,1.1.6,1.6.3.5.8.6,1.1.9.5.4.8.8,1.4,1.3.5.3,1.1.5,1.7.6.6.3,1.4.4,2.1.4s1.2.2,1.7.2h1.9c.6,0,1.3,0,1.9,0s1.6.8,2.3,1c.8.2.9.9,1.6,1.1.5,0,1.2,0,1.7,0,.9-.3,1.9.5,2.7.7s.7.7.7,1.5.5,1.4.6,1.8c.2.6.4,1.4.5,2.1,0,.7.2,1.3.9,1.4.6.4,1.3.8,1.8,1.3.4.3.7.6,1.1,1,.6.5,1.4,1,2.2,1.3.8.4,1.3.9,1.9,1.3s1.6.8,2.3,1.2c.5.3,1.4.9,1.6,1,.9,0,1.7.5,2.3,1.3.5.5.5.7.5,1.4v3.5c0,.5,0,1.1,0,1.6,0,.5,0,1,0,1.5v3.6c0,.5.3,1.1.5,1.6.3.5.5.8.9,1.2.5.5.8.7,1.3,1.2.5.5,1.2.9,1.8,1.2.5.3,1.1.6,1.6,1.1.4.4.7.7,1.1,1.2.8.8.6.7.4,1.1-.4.4-.7.5-1.2.6-.5.2.5.9.6,1,.5.2.8.5,1.2.7.5.4.5.7,1,1.2.3.4.3,1,0,1.3-.5.3-1,.5-1.5.7-.5.3-.7.7-.7,1.2v3.1c0,.5,1.8,1.5,2.2,1.7.5.4,1.1.7,1.7,1,.7.5,1.5.8,2.3,1.1.5.3,1.1.6,1.6,1,.5.2.9.5,1.3.7.5.4,1,.7,1.4,1,.5.4,1.2.7,1.8,1s.5.7.9,1.3c.2.5.3,1.1.2,1.6v5.3c0,.6,0,.5-.5.6,0,.2-1.8,0-2.1,0-.5,0-1,0-1.5,0-.5,0-.5.7-.5,1.2s0,1,.2,1.5c.2.6.3,1.1.5,1.6.2.2,0,.4-.2.6h.2Z"/>
      <path id_mun="037" class="cls-1 estado" d="M736.2,362.4l-41.3-16-2.7-11-9.4-4.8-.5-12.8-1.8-1.4.3-15.5h22.7l.3-4.8,2.9-2.6-5.4-5.9,16.1-15.3,1.4-.8c.7-.5,2.5,2.4,2.6,2.6h4c1.5,0,.5-1.8.5-2.9s-.2-1-.5-1.6l16.5-.3c0-1.4,1.4,2.5,2.4,3.5s1.3.9.8,2.6c0,1.2,0,2.4,0,3.5l-4.3,13.9-5,2.2.3,6.2,4.5,8.5,13.4,2.9-7.7,8,9.1,5.9-1.9,6.2-3.7-1.9-.8,5.6-4.5,2.6-8.1,23.3v.2Z"/>
      <path id_mun="038" class="cls-1 estado" d="M740.2,224.4l-11.3,8.2-7,7.5-5.9,8.2-6.7,11h-1.7c-1.5,0-2.2-2.4-2.5-2.3-1.5.4-1.6,1.7-3.1,1.7-2.1,0-1.9.4-3.4,1.1s-1.5,1.9-2.5,1.7l-1.1-.3-3.1,5.1-18,3.1-20.3,1.1-72.9-21.3-42.5-80.2,25.3-47.3,45.6-17.4,8.4,22.8,18-6.8-.5,14.9-1.7,18.9,34.9,5.1-.3,30.4-5.4,15.3,6.4-.8,11.5,3.6,7.6,3.9,9.8-.3,10.4-8.2-.5-5.4,5.9-3.1,3.1.3,3.9-4.2,11.8,16.6,5.1.8-.5,11.3,3.1,5.1h0Z"/>
</svg>