<?xml version="1.0" encoding="UTF-8"?>
<svg id="Colima" xmlns="http://www.w3.org/2000/svg" viewBox="0 0 1071.32 771.06">
  <defs>
    <style>
      .cls-1 {
        fill: #c4f5ee;
        fill-rule: evenodd;
        stroke: #646464;
        stroke-miterlimit: 15.12;
        stroke-width: .2px;
      }
    </style>
  </defs>
  <path id="001" class="cls-1" d="M545.61,358.11l-.73.89c-.68,1.36-1.12,2.57-1.41,3.92s-.42,2.78-.42,4.54c0,1.77.11,2.94.47,3.92.36.98.93,1.76,1.93,2.77.93.93,1.92,1.55,2.92,2.09,1,.54,2.01.95,3.13,1.51.9.45,2.12.78,3.34,1.2,1.22.42,2.45.98,3.34,1.88.96.96,2.28,1.86,3.92,2.61,1.64.75,3.6,1.33,5.8,1.62l6.06,26.06-18.8,23.03,12.11,4.86,7.88,26.06-9.71,1.2-3.6,6.11-4.86-9.71-9.09,1.83-10.91,18.8-12.11-.63-3.66,6.06h-6.06l-14.57,31.55-.63.68c1.21.61,2.37,1.19,3.66,1.83,2.85,1.42,4.49,2.76,7.15,4.75,3.34,2.51,6.59,4.36,9.56,6.58,2.26,1.7,5.18,3.41,7.73,5.95,1.9,1.9,3.25,3.82,5.38,5.95,2.25,2.25,4.45,2.05,6.58,4.18,2.74,2.74,6.58,6.29,10.7,8.36.28.14,1.61.81,2.4,1.2,2.51,1.26,5.03,4.12,7.78,4.81,2.42.6,4.29,1.23,6.53,2.35,1.58.79,4.26,3.02,6.58,3.6,4.19,1.05,6.67,1.82,10.13,3.55,3.39,1.69,5.9,2.64,8.98,4.18,1.89.94,5.23,2.25,7.15,4.18,2.54,2.55,4.2,1.82,6.58,3.6,1.76,1.32,3.37,2.71,5.33,4.18,1.28.96,4.68,5.2,6.58,5.95.79.32,1.67,1.12,2.51,1.62l7.83-10.81h10.34l13.32-36.4c-.81-.81-1.59-1.59-2.4-2.4-.68-.68-1.14-1.36-1.41-1.98s-.39-1.23-.37-1.83c.04-1.19.57-2.34,1.15-3.5.7-1.39,1.41-1.78,1.83-2.4s.54-1.48,0-3.66c-.3-1.21-1.07-2.08-1.83-2.98-.75-.9-1.51-1.82-1.83-3.08-.07-.28.58-1.29,1.2-2.56.62-1.27,1.25-2.75,1.25-4.07,0-.87-.52-1.63-1.15-2.3-.63-.67-1.36-1.29-1.88-1.98l6.06-4.86,10.91,4.86,6.06-14.52-4.23-4.28,13.32-30.92-5.43-7.26,5.43-16.35-5.43-6.11,7.26-8.46,13.05-35.73-15.61-15.04-13.94-6.95h-13.89l-27.26-13.37h-20.26l-15.67-5.17-17.96,1.15c-.85-.28-.89-.16-1.72-.57-1.47-.73-3.08-2.49-4.6-3.76-.76-.63-1.5-1.15-2.19-1.36-.69-.21-1.35-.11-1.93.47-.63.63-1.08,1.14-1.36,2.04-.28.9-.37,2.18-.37,4.34,0,1-.16,1.68-.42,2.14-.26.46-.65.72-1.15.84-.99.22-2.41-.1-4.23-.1-1.41,0-3.04.2-4.28.16-.62-.02-1.14-.06-1.51-.26-.23-.12-.27-.39-.37-.63Z"/>
  <path id="002" class="cls-1" d="M784.77,417.6l.16.21c.46,0,1.09.08,1.67.05s1.11-.18,1.36-.68c.98-1.97,3.26-2.91,4.23-4.86.84-1.68,1.04-2.66,1.46-2.82.42-.16,1.11.53,2.82,2.25.42.42,1.22,1.66,2.14,2.87s1.96,2.37,2.72,2.56c1.07.27,2.52.65,3.97.68.73.02,1.42-.07,2.09-.26.67-.19,1.27-.49,1.78-.99,1.17-1.17,1.46-1.99,1.83-2.4.37-.41.86-.45,2.45-.05,1.3.33,1.99.99,2.56,1.93s.99,2.18,1.67,3.55c.36.73,1.11,2.11,1.98,3.08.44.48.92.86,1.41.99.49.14.98.02,1.46-.47,1.36-1.36,3.73-3.73,5.43-5.43.69-.69,1.11-1.96,1.67-2.72.28-.38.63-.63,1.04-.63.41,0,.92.24,1.57.89,1.31,1.31,3.12,3.13,5.43,4.28.73.36,2.22.46,3.39.37.59-.05,1.12-.15,1.41-.31.29-.17.34-.39.05-.68-.19-.19-1.48-1.19-2.45-2.4-.48-.6-.89-1.24-1.04-1.88s-.05-1.26.47-1.78c1.52-1.52,2.14-3.97,3.66-5.48.8-.8.98-2.29,1.25-3.6.14-.66.31-1.28.57-1.72.27-.44.64-.73,1.2-.73,2.87,0,5.07.5,7.88,1.2,2.86.72,4.87,1.57,7.88,3.08,1.08.54,2.17.75,3.29,1.1,1.12.35,2.25.84,3.34,1.93.59.59,1.82,1.75,3.19,2.82,1.37,1.07,2.9,1.98,4.13,1.98,1.23-.31,1.89-.88,2.61-1.41.72-.53,1.47-.99,2.82-.99,1.44,0,3.08.35,4.6.84,1.51.48,2.92,1.07,3.92,1.57,1,.5,2.06.93,2.87,1.62.41.34.75.73.99,1.25.24.53.37,1.18.37,1.98,0,.75.06,2.66.26,4.39.2,1.73.52,3.29.94,3.5,1.26.63,2.13,1.22,3.08,1.72.95.5,2.01.91,3.6,1.31.93.23,2.72.55,4.23,1.1.76.27,1.43.63,1.88,1.04s.67.91.52,1.51c-.59,2.38-1.67,4.96-2.4,7.89-.76,3.02-1.2,5.5-1.2,8.46v9.71c0,1.81-.21,3.59-.16,4.39.03.4.11.55.31.37s.55-.73,1.04-1.72c.49-.99.95-2.04,1.51-3.08.56-1.04,1.24-2.08,2.14-2.98.9-.9,1.43-1.66,2.25-2.19.82-.53,1.92-.84,3.81-.84h9.71c.72,0,2.72-.2,4.7-.31s3.93-.14,4.39.31c.91.91,1.32,2.05,1.67,3.29s.65,2.56,1.36,3.97c1.16,2.32,2.57,4.47,4.23,6.69,1.3,1.73,3.16,3.35,4.23,5.48.45.9,1.08,1.8,1.88,2.56s1.78,1.37,2.98,1.67c.88.22,2.22.83,2.98,1.78.38.47.62,1,.57,1.62-.05.62-.36,1.3-1.1,2.04-1.05,1.05-1.85,1.95-2.35,3.03-.49,1.08-.68,2.37-.68,4.28s.41,2.86.94,3.76c.53.9,1.15,1.64,1.46,2.87.29,1.17.88,2.24,1.41,3.29.53,1.05.99,2.11.99,3.39,0,1.97.55,3.29.73,4.44.09.57.08,1.12-.1,1.67s-.54,1.11-1.2,1.78c-1.63,1.64-2.33,2.06-2.35,2.61-.02.55.61,1.22,1.72,3.45.34.67.27,2.12,0,3.5-.27,1.38-.73,2.71-1.2,3.19-.34.34-1.77,1.52-2.92,2.77-.58.63-1.08,1.25-1.36,1.83-.28.58-.3,1.11.05,1.46.96.96,1.65,1.51,1.98,2.3s.33,1.81-.16,3.76c-.47,1.86-.73,2.78-.57,3.76.16.98.72,2.01,1.78,4.13.36.73.68,1.19,1.04,1.46.37.27.8.34,1.25.26.9-.15,2.04-.86,3.76-1.72.85-.43,1.53-.73,2.09-.84.56-.1.99.01,1.31.31.63.6.84,2.07.84,4.75,0,1.1-.16,1.82-.47,2.3-.31.47-.76.74-1.31.89-1.1.3-2.6.21-4.28,1.04-.96.48-2.19,1.02-3.08,1.67-.45.33-.77.67-.99,1.1s-.3.94-.16,1.51c.23.91.21,1.83-.16,2.82s-1.1,2.04-2.3,3.24c-1.05,1.05-1.84,1.86-1.98,2.61-.07.37.05.73.37,1.1.31.37.81.75,1.62,1.15.82.41,2.07.86,3.08,1.51.5.33.93.7,1.25,1.15.33.45.52.95.52,1.57,0,1.46-.11,2.97.05,4.28.08.65.24,1.27.52,1.78.28.51.67.91,1.25,1.2,1.08.54,2.41.83,3.34,1.51.46.34.81.78.99,1.41.18.63.17,1.47-.1,2.56-.27,1.07-.51,3.05-.57,4.91-.06,1.85.05,3.57.57,4.18l.37.26c.88.03,1.87-.02,3.19-.68,2.76-1.38,3.17-2.74,4.8-6.01,1.29-2.59,2.98-3.21,2.98-6.53,0-4.42-.12-4.46,3.55-5.38,3.38-.84,2.4-3.23,2.4-7.16,0-6.19,2.03-1.46,4.75-4.18,1.76-1.77,3.23-3.5,6.58-1.83,2.14,1.07,7.11,4.81,10.76,4.81,2.03,0,8.57.21,4.75-3.6-1.99-1.99-4.17-3.63-4.75-5.95-.54-2.15-3.21-7.14-.63-7.78,1.63-.41,6.42.39,8.35-.57,1.68-.84,4.18-2.93,6-4.75,2.19-2.19,1.92-2.81,0-6.01-1.47-2.45-4.84-5.72-4.18-8.36.36-1.44,2.11-6.01,5.38-3.55.63.47,6.71,5.07,7.15,4.18.82-1.65,3.75-3.5,2.98-6.58-.54-2.16-.31-6.26-2.4-8.36-3.86-3.86,1.38-1.69,3.6-.57,2.13,1.07,4.04,2.31,6.53,3.55.4.2,7.93,2.52,7.15-.57-.76-3.04-2.61-5.07-5.33-7.78-2.32-2.32-5.89-3.61-1.2-5.95,3.55-1.77,3.88-1.88,4.75-5.38.92-3.67,1.78-5.28,1.78-9.56s-.66-5.85-2.98-8.93c-.78-1.04-5.97-6.5-5.33-7.78,1.08-2.16,2.48-3.11,4.18-5.38,2.55-3.41,2.98-4.32,2.98-8.93,0-3.52-.99-5.17-2.98-7.16-1.82-1.82-5.38-3.18-5.38-5.95,0-2.3.52-7.21-2.4-7.21-2.95,0-5.97.6-7.15-1.78-1.28-2.55-2.98-1.84-2.98-5.95,0-4.64-6.58-4.19-6.58-4.81v-5.33c0-3.16-.49-5.24-2.4-7.16-.56-.56-5.25-4.94-2.98-7.21,1.63-1.63,1.61-3.96,3.6-5.95.99-.99,4.75-2.73,4.75-5.38v-8.93c0-2-3.07-6.39-2.98-6.58,1.06-2.12,2.21-3.52,3.6-5.38,1.25-1.66,1.84-4.82,3.55-6.53,1.49-1.49,2.98-3.18,2.98-6.58v-8.98c0-4.08,1.01-4.47,1.83-7.73.62-2.47,1.83-6.06,3.55-7.78,1.84-1.84,1.78-3.24,1.78-7.16,0-5.54,1.7-2.28,4.18-4.75,1.39-1.39,3.87-3.01,2.4-5.95-1.05-2.11-1.37-6.17-3.55-8.36-1.86-1.86-2.37-3.59-4.8-4.81-4.29-2.14-5.38-1.61-5.38-6.58,0-2.32-4.59-3.88-3.55-5.95,1.27-2.55,3.55-1.89,3.55-5.95h-.26c-1.29-.28-6.48.03-8.67.57-1.43.36-3.17.35-4.91.26-1.74-.09-3.5-.26-4.96-.26-1.64,0-3.23-.58-4.7-1.31-1.47-.72-2.84-1.6-4.02-2.19-.99-.5-2.67-.44-4.28-.21-1.62.23-3.15.62-3.81.78-1.52.38-2.96.45-4.23.52-1.27.08-2.35.21-3.29.68-.44.22-.77-.42-1.1-1.36-.33-.94-.7-2.18-1.25-3.29-.33-.66-.86-1.07-1.51-1.31-.65-.23-1.42-.31-2.25-.31-1.65-.01-3.47.25-4.91-.1-2.68-.67-4.7-1.2-8.15-1.2-1.42,0-2.33.12-3.08.31-.75.19-1.34.49-2.14.89l-25.48,17.97-18.54,15.62-8.15-6.95,8.15-11.02c-.69,0-1.26-.29-1.78-.73-.52-.44-1-1.01-1.46-1.62-.46-.61-.9-1.26-1.41-1.78-.51-.52-1.06-.93-1.72-1.1-1.65-.41-2.98-.35-3.6-.52-.31-.09-.47-.25-.37-.52.1-.27.43-.64,1.04-1.25,1.06-1.06,1.5-2.02,1.67-3.19s.05-2.51.05-4.34c0-1.64-.03-3.13-.21-4.39-.18-1.26-.51-2.32-.94-3.19-.14-.28-1.47.29-2.98.94s-3.17,1.41-3.97,1.41c-1.71,0-3.08-.21-4.28-.52-1.2-.31-2.23-.75-3.24-1.25-.28-.14-.28-2.05-.21-4.07s.21-4.13.21-4.6c0-.9.87-2.05,1.88-3.13s2.19-2.08,2.77-2.66c1-1,1.55-2.09,1.88-3.19.33-1.09.42-2.18.42-3.19v-8.72c0-.87-.98-1.82-2.04-2.66-1.06-.84-2.22-1.54-2.61-1.93-.98-.98-1.33-1.4-1.83-1.36s-1.16.53-2.82,1.36c-1.17.58-1.94,1.12-2.77,1.62-.83.5-1.71.92-3.03,1.25-.78.2-1.14.09-1.25-.21s.01-.81.26-1.36c.5-1.1,1.41-2.45,1.57-3.08.29-1.17.93-2.32,1.62-3.39.68-1.08,1.43-2.08,1.88-2.98.49-.98.66-2.32.68-3.76s-.1-2.96-.1-4.34v-8.72c0-.98.51-2.05,1.2-3.08.69-1.03,1.59-2.01,2.3-2.72,1.63-1.63,3.64-3.06,5.22-4.65.89-.89,1.57-1.57,2.35-2.14.78-.57,1.68-1.01,2.87-1.31,1.14-.28,1.76-.57,2.09-.84.33-.26.35-.51.16-.78-.38-.54-1.5-1.14-2.25-1.88-1.53-1.53-3.65-2.66-5.22-3.45-2.25-1.12-3.32-2.55-5.22-3.5-1.63-.81-2.37-1.24-2.61-1.78-.03-.07.07-.24.05-.31l-.37.37c-.38.13-.66.01-.94,0-.28-.01-.53.06-.78.57-.41.82-1.15,1.7-1.78,2.66-.62.96-1.15,2-1.15,3.13,0,1.32-.07,2.06-.26,2.51-.19.45-.5.59-.89.63-.39.03-.88-.03-1.46.05s-1.21.26-1.98.84c-.77.58-1.49,1.34-2.35,1.78l-22.61,31.29c0,1.13,1.1,2.47,1.93,3.66.42.59.77,1.15.89,1.62.12.47.04.84-.47,1.1-.5.25-2.16.8-3.66,1.36-1.49.56-2.82,1.17-2.72,1.57.38,1.53,1.08,2.29,1.78,3.03.69.74,1.34,1.44,1.67,2.77.23.9.34,2.04.05,3.03-.14.5-.35.92-.73,1.31-.38.38-.92.71-1.62.89-1.51.38-2.56.81-3.66,1.15-1.09.34-2.2.57-3.86.57-1.43,0-2.92-.13-4.23-.05-1.31.07-2.48.34-3.34,1.2-.36.36-1.06,1.59-1.83,2.77-.76,1.17-1.61,2.3-2.25,2.45-.43.11-1.59.16-2.87.37-1.29.21-2.7.56-3.5,1.36-1.16,1.16-2.23,1.92-3.5,2.35-1.27.43-2.72.57-4.6.57-2.9,0-5.82,0-8.72,0-2.7,0-3.46,0-3.39.37.06.37.97,1.1,1.67,2.51.35.7-.33,2.1-1.04,3.13-.71,1.03-1.44,1.7-1.25.94l-2.35-1.72c0,.58,0,1.14,0,1.72,0,1.84-.08,3.1.1,4.13.18,1.03.66,1.8,1.67,2.82.27.27,1.23,1.38,1.78,2.66.27.64.42,1.34.37,1.98s-.34,1.23-.99,1.72c-1,.75-1.56,1.62-2.09,2.51-.53.88-1.05,1.78-1.98,2.72-.74.75-1.75,1.6-2.51,2.35-.76.75-1.25,1.41-.94,1.72.9.9,1.76,1.23,2.4,1.83.32.3.6.67.78,1.2.19.53.26,1.23.26,2.19,0,.47.14,2.57.21,4.6.07,2.02.07,3.93-.21,4.07-.8.4-1.96.8-2.92,1.41-.48.3-.89.66-1.2,1.1-.31.43-.52.95-.52,1.57,0,1.05-.2,2.76-.31,4.44s-.14,3.37.31,4.28c.55,1.1,1.46,1.8,2.19,2.61.37.41.7.85.94,1.36.24.51.37,1.11.37,1.83,0,2.71-.53,6.02,0,8.67.24,1.2.27,2.05.16,2.56-.11.51-.4.67-.73.63-.66-.1-1.63-1.17-2.35-2.61-.14-.28-.95-1.63-1.98-2.66-.52-.52-1.06-.96-1.62-1.15-.56-.19-1.1-.11-1.57.37-.82.82-1.26,1.59-1.62,2.51-.36.92-.65,1.98-1.31,3.29-.26.53-.71,1.88-1.31,3.24-.59,1.36-1.36,2.72-2.19,3.13-.4.2-.84.12-1.31-.05-.47-.17-.94-.46-1.41-.73-.47-.27-.93-.51-1.36-.63-.42-.11-.78-.05-1.1.26-1.45,1.45-3.77,2-5.22,3.45-.64.64-1.34,1.41-2.09,2.14-.75.73-1.56,1.43-2.56,1.93-1.92.96-3.38,3.15-5.22,4.07-.29.15-5.33,3.22-5.22,3.45.99,1.99,1.84,3.63,2.92,5.8.33.65,1.34,1.75,2.35,2.92,1.01,1.18,1.99,2.42,2.25,3.45.32,1.27.07,2.35-.05,3.29-.06.47-.08.89,0,1.31.08.42.24.82.63,1.2.48.48,1.35,1.43,2.3,2.35.94.92,1.97,1.82,2.92,2.3,2.19,1.09,3.75,2.48,5.8,3.5.28.14,1.95,1.56,3.34,2.98,1.4,1.41,2.53,2.82,1.88,2.82l-2.87,6.37,8.09,9.87v12.33Z"/>
  <path id="003" class="cls-1" d="M695.22,88.39c1.08,1,1.92,1.35,3.19,2.61,1.66,1.66,2.72,3.3,4.65,5.22,1.41,1.41,2.37,3.52,4.07,5.22,1.45,1.45,2,3.77,3.45,5.22.72.72,1.09,1.21,1.2,1.62.11.41-.02.72-.31,1.04-.58.65-1.74,1.39-2.61,3.13-.43.87-.71,1.93-.89,3.19-.18,1.26-.26,2.69-.26,4.34,0,1.36.05,2.69.37,3.81s.88,2.03,1.93,2.56c.89.44,1.98,1.78,2.3,3.13.16.67.13,1.35-.21,1.93s-1.01,1.04-2.09,1.31c-.79.2-1.31.54-1.67.94-.37.4-.59.87-.68,1.46-.19,1.18.05,2.74.05,4.6,0,2.9,0,5.77,0,8.67,0,1.71-.27,3.06-.63,4.34s-.77,2.44-1.1,3.76c-.38,1.51-.91,2.43-1.57,3.29-.66.87-1.45,1.73-2.51,3.13-.66.88-1.72,2.15-1.93,3.24-.11.54,0,1.06.47,1.41s1.27.52,2.61.52c1.23,0,2.84,0,4.13-.31.64-.15,1.21-.36,1.62-.68.41-.32.63-.76.63-1.31,0-1.39.02-3.08.47-4.02.23-.47.56-.78,1.04-.73.48.05,1.15.42,1.98,1.25.51.51.77,1.39.94,2.35.17.96.24,2.01.31,2.98.07.97.13,1.81.37,2.35s.61.79,1.25.47c.86.21,1.17.27,1.62.1s1.05-.55,2.45-1.25c2.18-1.09,4.11-1.79,6.37-2.92,1.88-.94,3.97-1.67,6.37-2.87.95-.48,1.88-.88,2.82-.89s1.89.37,2.98,1.46c.82.82,1.74,1.85,2.72,2.82s2.01,1.87,3.08,2.4c.66.33,1.84.7,2.92,1.25s2.07,1.27,2.3,2.19c.43,1.73.65,2.62.37,3.29-.28.67-1.04,1.12-2.66,1.93-.98.49-2.05,1.06-2.61,1.93-.28.44-.44.93-.42,1.57.02.64.23,1.4.68,2.3.45.9,1.19,1.83,1.88,2.77s1.34,1.91,1.62,3.03c.64,2.55,1.23,4.24,2.3,6.37.09.19.85,1.64,1.62,2.98.77,1.33,1.58,2.55,1.88,2.25.26-.26,1.69-1.14,2.77-2.25.54-.55.97-1.17,1.15-1.78s.08-1.23-.47-1.78c-.81-.81-1.99-1.4-2.61-1.78-.31-.19-.47-.33-.37-.42.11-.09.49-.1,1.25-.1,2.43,0,3.33,0,3.76-.52.43-.51.39-1.55.89-3.55.22-.89.51-2.17.89-3.39.37-1.22.81-2.38,1.41-2.98,1.49-1.49,2.88-2.3,4.65-4.07.9-.9,1.93-1.57,2.72-1.46.39.05.75.33.99.84.24.51.37,1.3.37,2.4,0,.47.14,2.57.21,4.6s.07,3.93-.21,4.07c-.19.1-2,.73-3.81,1.46-1.81.74-3.6,1.6-3.71,2.04-.07.28-.79,1.77-1.25,3.39-.23.81-.39,1.67-.42,2.4-.03.73.09,1.34.47,1.72,1.58,1.58,3.29,2.14,5.22,4.07,1.37,1.37,2.4,4.12,4.07,5.8.84.84,1.64,1.66,2.72,2.14,1.07.48,2.4.61,4.23.16,1.33-.33,2.15-.91,3.08-1.41.94-.5,1.98-.89,3.86-.89,1.55,0,2.98-.06,4.18.21.6.14,1.15.35,1.62.68.47.33.89.8,1.2,1.41.49.99,1.89,1.9,2.98,2.77.54.43.97.85,1.2,1.25s.23.81-.16,1.2c-.73.73-1.66,1.71-2.3,2.87-.32.58-.56,1.2-.68,1.88-.12.68-.09,1.41.1,2.19.29,1.17,1,3.37,1.72,4.96.36.8.74,1.47,1.04,1.78.31.3.53.22.68-.37.22-.87.51-2.17.89-3.39.38-1.23.88-2.39,1.46-2.98,1.48-1.48,2.81-3.38,4.02-5.8.84-1.68,1.46-2.29,2.35-2.61.89-.33,2.11-.34,4.07-.84.7-.18,1.5-.07,2.35.16s1.73.56,2.56.84c.83.28,1.59.48,2.25.47.66-.01,1.19-.24,1.51-.89.36-.71.74-1.51.99-2.3.25-.79.35-1.58.16-2.35-.2-.8-.2-1.38-.1-1.83.09-.45.27-.8.57-1.1.6-.6,1.56-1.1,2.45-2.3.97-1.3,4.65-5.49,4.65-6.37,0-1.13-.21-2.8-.16-4.28.03-.74.11-1.41.31-1.98.2-.58.51-1.01.99-1.25.83-.41,2.14-.63,3.24-1.04.55-.21,1.05-.44,1.41-.84s.57-.93.57-1.62c0-1.01-.22-2.8-.26-4.54-.02-.87-.02-1.73.1-2.45.12-.73.37-1.36.73-1.72.7-.7,1.42-1.38,2.35-1.93.93-.55,2.06-.94,3.45-.94h9.87c1.92,0,2.96-.05,3.81-.37s1.51-.88,2.56-1.93c1.19-1.19,3.11-2.83,4.02-4.65.29-.58,1.19-1.6,1.98-2.61s1.51-2.04,1.51-2.61c0-1.31-.18-2.86-.26-4.39-.08-1.53-.05-3.07.26-4.34.3-1.2.54-2.28.94-3.24.4-.96.93-1.81,1.93-2.56,1.81-1.36,2.9-2.85,4.65-4.6,1.72-1.72,2.52-2.7,4.07-5.8.64-1.28,3.73-5.06,4.07-6.42.33-1.31.27-2.31-.1-3.29s-1.11-1.95-2.25-3.08c-.49-.49-1.19-.74-1.98-.94s-1.69-.33-2.51-.47c-.82-.14-1.59-.32-2.14-.63-.55-.3-.89-.72-.89-1.41,0-.89-.03-1.9.1-2.82.13-.92.41-1.77,1.04-2.4.53-.53,3.29-4.45,4.07-4.65,1.49-.37,5.17-1.54,6.94-2.87.98-.73,3.02-.76,4.65-.89.82-.06,1.54-.16,1.98-.37.45-.21.59-.55.31-1.1-.74-1.49-1.36-2.52-2.14-3.39-.78-.88-1.74-1.6-3.08-2.4-1.78-1.07-5.08-2.79-6.94-4.65-.55-.55-1.7-1.03-2.66-1.72-.48-.35-.94-.78-1.2-1.25-.26-.47-.37-.97-.21-1.62.28-1.1.61-1.77.94-2.09.33-.32.7-.29,1.15-.16.89.26,2.03,1.04,3.71,1.04,1.98,0,2.96-.36,3.66-.47s1.12.03,2.14,1.04c.72.72,1.32,1.26,1.83,1.57.51.31.92.42,1.36.31.7-.16,1.6-1.25,2.61-2.45-.07-.04-.25-.01-.31-.05-.72-.5-1.04-1.35-1.41-2.82-.47-1.87-.48-3.07-.68-4.07-.19-1-.55-1.8-1.62-2.87-.56-.56-.71-1.22-.57-1.88.14-.66.54-1.36,1.04-1.98,1.01-1.24,2.43-2.23,2.98-2.51.48-.24.79-.65.99-1.15s.29-1.1.31-1.72c.05-1.25-.1-2.65-.1-3.55l20.83-15.62c.81-.41,1.05-1,1.04-1.67,0-.67-.21-1.45-.37-2.14-.15-.7-.26-1.36.1-1.83.36-.47,1.17-.73,2.72-.73.12,0,3.7,5.15,4.02,5.8.55,1.09.72,2.43.73,3.86,0,1.43-.1,2.93-.1,4.23,0,.72,2.5-3.74,2.87-5.22.61-2.45.13-6.32.57-8.1.13-.51.44-.9.84-1.2.4-.31.88-.57,1.41-.78,1.06-.43,2.24-.78,2.98-1.51,1.81-1.81,3.16-2.47,5.22-3.5.53-.26,2.21,0,2.87,0,.01-1.53.12-2.94.78-3.6,2.29-2.29,10.1-8.03,7.21-6.58l-12.53-10.71c-.4.4-.7.95-1.2,1.2-2.46,1.23-3.75,2.14-6.58,3.55-2.02,1.01-3.47,1.74-5.95,2.98-1.2.6-4.4,2.98-6.58,2.98h-8.93c-2.03,0-5.65-3.16-6.01-2.98-2.18,1.09-4.08,2.38-6.53,3.6-2.15,1.07-4.5,2.51-6.58,3.55-2.61,1.3-5.35.62-5.38.63-1.3.32-8.35,1.03-8.35,2.98,0,4.11.25,4.97-2.98,6.58-2.48,1.24-4.11,2.22-5.38,4.75-1.42,2.84-3.12,3.7-5.38,5.95-1.46,1.46-2.87,2.92-4.75,4.81-2.27,2.27-1.33,11.2-3.6,8.93l-13.73,11.96-11.91-1.83-20.89,12.54-8.93,1.2-29.87,17.91c-.39-1.54-.46-2.86-1.78-4.18-3.33-3.33-1.59-2.73-.63-6.58.69-2.77.58-4.8-1.15-6.53-1.91-1.91.02-6.57-2.4-7.78l-14.93-1.2-10.76,7.16-8.93-15.51-8.93,4.18-12.53-17.29-13.16,7.73,7.83,16.87Z"/>
  <path id="004" class="cls-1" d="M542.48,256.26c.09,1.34-.25,2.84-.16,4.13.05.64.2,1.24.57,1.72.38.49,1,.86,1.93,1.1,1.99.5,2.98.54,3.5.89.52.35.52,1.01.52,2.61,0,.13-1.42-.22-2.87-.05-.72.08-1.44.28-1.98.73s-.94,1.14-.94,2.19c0,2.2-.05,3.19-.68,3.66-.63.46-1.78.42-3.92.42-1.69,0-2.95.33-4.02.78-1.07.45-1.98,1.01-2.98,1.51-2.21,1.1-3.9,1.97-5.8,2.92-2.33,1.17-3.31,2.25-5.8,2.87-.94.24-1.3.65-1.36,1.15-.06.5.21,1.1.63,1.67.84,1.14,2.23,2.2,2.51,2.4,1.2.9,2.05,2.11,2.92,3.34.87,1.24,1.76,2.49,2.87,3.6,1.7,1.71,3.19,3.24,4.6,4.65.43.43,2.28.42,4.18.31,1.89-.11,3.85-.31,4.54-.31.63,0,1.1.27,1.46.73s.6,1.09.84,1.78c.48,1.37.88,2.97,1.78,3.86,1.16,1.16,1.78,2.03,2.25,3.03.47,1,.75,2.13,1.2,3.92.46,1.84.76,2.64,1.36,3.08.6.44,1.51.55,3.29.99.98.25,1.63.65,2.09,1.1s.75.96,1.04,1.31c.3.35.56.58,1.04.52s1.17-.43,2.19-1.2c.35-.26.97,0,1.72.47s1.64,1.18,2.51,1.98c1.74,1.61,3.46,3.46,3.92,3.92.75.75,1.24,1.46,1.51,2.04.28.58.32,1.07.16,1.46-.17.39-.57.69-1.15.89-.58.2-1.34.26-2.3.26-2.85,0-6.09.07-8.09.57-1.68.42-2.58,1.04-3.55,1.51-.97.47-1.98.84-3.97.84-.5,0-.73.22-.73.63,0,.4.18.95.47,1.57.57,1.22,1.53,2.7,1.98,3.6.84,1.67,1.19,3.03,1.1,4.23-.09,1.2-.62,2.24-1.67,3.29-1.26,1.26-2.26,1.74-3.08,2.25-.82.51-1.47,1.06-2.14,2.4-.51,1.03-.66,2.37-.68,3.81-.02,1.44.1,2.95.1,4.28,0,.49.2.84.57,1.04.38.2.89.24,1.51.26,1.24.05,2.87-.16,4.28-.16,1.82,0,3.24.33,4.23.1.5-.11.89-.38,1.15-.84.26-.46.42-1.14.42-2.14,0-2.15.09-3.44.37-4.34.28-.9.73-1.41,1.36-2.04.58-.58,1.24-.68,1.93-.47.69.21,1.44.72,2.19,1.36,1.52,1.27,3.13,3.03,4.6,3.76.84.42.88.29,1.72.57l17.96-1.15,15.67,5.17h20.26l27.26,13.37h13.89l13.94,6.95,16.24,15.67,3.45-6.37-5.22-5.22c.57.28,1.32.1,2.14-.31.82-.42,1.74-1.06,2.61-1.83,1.74-1.53,3.35-3.41,3.97-4.23,1.23-1.64,2.84-3.41,4.07-4.65.72-.72,1.05-1.84,1.41-2.92.36-1.09.74-2.15,1.46-2.87.47-.47.92-.47,1.36-.16.44.31.87.92,1.2,1.62.67,1.4,1.08,3.19.94,3.76-.58,2.32-1.42,4.5-2.35,6.37-.29.57-.5,1.13-.63,1.72-.12.59-.11,1.21.1,1.78.22.56.62,1.08,1.36,1.57s1.8.95,3.24,1.31c2.9.73,6.09.57,9.29.57h10.39l-1.15,24.34-6.37-3.45,1.72,21.41-2.3,9.3,64.33-11.02-5.22-6.95v-13.32l-8.09-9.87,2.87-6.37c.65,0-.48-1.41-1.88-2.82-1.4-1.41-3.06-2.84-3.34-2.98-2.04-1.02-3.61-2.41-5.8-3.5-.96-.48-1.98-1.38-2.92-2.3-.94-.92-1.82-1.87-2.3-2.35-.38-.38-.55-.78-.63-1.2-.08-.42-.06-.84,0-1.31.13-.94.37-2.02.05-3.29-.26-1.02-1.23-2.27-2.25-3.45-1.01-1.18-2.02-2.27-2.35-2.92-1.08-2.17-1.93-3.81-2.92-5.8-.11-.23,4.93-3.3,5.22-3.45,1.84-.92,3.3-3.11,5.22-4.07,1-.5,1.81-1.2,2.56-1.93.75-.73,1.44-1.5,2.09-2.14,1.45-1.45,3.77-2,5.22-3.45.31-.31.67-.37,1.1-.26.42.11.88.35,1.36.63.47.27.94.56,1.41.73.47.17.91.25,1.31.05.84-.42,1.6-1.78,2.19-3.13.59-1.36,1.04-2.71,1.31-3.24.65-1.31.95-2.37,1.31-3.29.36-.92.8-1.69,1.62-2.51.47-.47,1.01-.56,1.57-.37.56.19,1.1.63,1.62,1.15,1.03,1.03,1.84,2.38,1.98,2.66.72,1.44,1.69,2.52,2.35,2.61.33.05.62-.12.73-.63.11-.51.08-1.36-.16-2.56-.53-2.65,0-5.96,0-8.67,0-.72-.13-1.32-.37-1.83-.24-.51-.57-.95-.94-1.36-.73-.81-1.64-1.51-2.19-2.61-.46-.91-.43-2.6-.31-4.28s.31-3.39.31-4.44c0-.61.21-1.13.52-1.57.31-.43.72-.79,1.2-1.1.96-.61,2.13-1.01,2.92-1.41.28-.14.28-2.05.21-4.07-.07-2.02-.21-4.13-.21-4.6,0-.96-.08-1.67-.26-2.19-.18-.53-.46-.9-.78-1.2-.64-.6-1.5-.93-2.4-1.83-.31-.31.18-.97.94-1.72.76-.75,1.76-1.61,2.51-2.35.93-.93,1.45-1.83,1.98-2.72.53-.88,1.09-1.76,2.09-2.51.66-.49.94-1.08.99-1.72s-.09-1.34-.37-1.98c-.55-1.28-1.5-2.39-1.78-2.66-1.02-1.02-1.49-1.79-1.67-2.82-.18-1.03-.1-2.29-.1-4.13,0-.58,0-1.14,0-1.72v-.05l-11.59-8.67,7-9.24-8.15-1.15-7.52-9.3-9.87,9.87-11.59-.57-9.87-3.5-3.45,15.09,4.65,20.84-11.59-17.39,3.45-13.32-31.85,1.15-31.33-15.67-6.37,4.07-5.8-2.3,2.35-7-16.81-9.24-8.15-7.57-8.09,8.15-16.81,1.15-3.5-6.37-11.59-4.65-5.22,4.65-10.55-6.69-.42.31h-10.44c-1.2,0-2.16-.64-2.98-1.46-.82-.83-1.49-1.86-2.25-2.61-.48-.48-1.16-.84-1.93-1.1s-1.62-.39-2.51-.52c-1.77-.26-3.63-.37-4.86-.68-1.47-.37-2.69-.7-3.86-.84-1.18-.14-2.31-.08-3.66.26-.55.14-.67.42-.52.84.14.41.54.95,1.04,1.51,1.02,1.13,2.47,2.44,2.98,3.45.34.68.37,1.21.26,1.67s-.37.82-.73,1.15c-.73.66-1.8,1.12-2.45,1.78-1.2,1.2-1.9,1.42-2.45,1.67-.55.25-.97.54-1.62,1.83-.17.34.06.79.52,1.25.46.46,1.15.94,1.88,1.41,1.03.66,1.73,1.03,2.4,1.41.26-.49.24-.92.63-1.41.85-1.08,1.85-2.08,2.14-2.66.38-.75.76-1.13,1.2-1.31.44-.17.92-.14,1.41.05.98.38,2.07,1.27,3.19,1.83,1.57.78,2.28,1.4,2.61,2.3.33.9.26,2.08.26,4.07,0,.97.28,1.65.68,2.04.4.39.92.49,1.57.47,1.28-.04,2.88-.68,4.13-1.31,1.28-.64,2.54-.68,3.86-.52,1.32.16,2.73.52,4.28.52.49,0,.79.36.99.94s.29,1.35.31,2.19c.05,1.69-.16,3.6-.16,4.39,0,.61-.33,1.07-.78,1.46-.46.4-1.07.74-1.72.99-1.31.5-2.74.72-3.29.99-1.08.54-1.56.61-2.09.42-.53-.19-1.13-.64-2.56-.99-.17-.04-3.47,5.75-3.5,5.8-.61,1.21-1.22,1.8-1.83,2.51-.61.71-1.18,1.53-1.62,3.29-.2.81-.93,1.82-1.67,2.77-.74.95-1.51,1.83-1.83,2.45-.16.32-2.18.34-4.33.26-2.15-.08-4.39-.26-4.91-.26-1.97,0-3.26,0-4.28.21s-1.8.65-2.72,1.57c-.78.78-.89.84-1.15,1.1,0,0,0,.05,0,.05Z"/>
  <path id="005" class="cls-1" d="M936.61,41.13c-.66,0-2.35-.26-2.87,0-2.06,1.03-3.41,1.69-5.22,3.5-.74.74-1.92,1.08-2.98,1.51-.53.22-1.01.48-1.41.78-.4.31-.71.69-.84,1.2-.44,1.78.04,5.64-.57,8.1-.37,1.49-2.87,5.95-2.87,5.22,0-1.3.11-2.8.1-4.23,0-1.43-.19-2.77-.73-3.86-.32-.64-3.9-5.8-4.02-5.8-1.54,0-2.35.26-2.72.73-.36.47-.26,1.13-.1,1.83.15.7.36,1.47.37,2.14,0,.67-.23,1.27-1.04,1.67l-20.83,15.62c0,.9.15,2.3.1,3.55-.03.62-.11,1.22-.31,1.72s-.51.91-.99,1.15c-.55.27-1.96,1.26-2.98,2.51-.51.62-.91,1.32-1.04,1.98-.14.66.01,1.32.57,1.88,1.07,1.07,1.42,1.87,1.62,2.87.19,1,.21,2.2.68,4.07.37,1.47.69,2.32,1.41,2.82.72.5,1.85.63,3.81.63,1.37,0,2.89-.08,4.33-.05,1.44.02,2.78.19,3.76.68.58.29,7,2.81,7,2.87,0,1.56.1,3.09,0,4.39-.1,1.3-.43,2.37-1.2,3.13-1.87,1.87-2.41,2.52-2.3,3.08.12.57.89,1.05,1.72,2.72.67,1.34,1.43,1.89,1.72,2.4.29.51.1,1-1.15,2.25-.65.65-2.23,1.82-3.45,3.03-.61.61-1.11,1.2-1.36,1.78-.25.58-.23,1.13.21,1.57.78.78,1.51,1.43,1.98,2.19.47.77.66,1.66.31,3.03-.12.47-.6,2.41-1.25,4.13-.33.86-.72,1.65-1.1,2.19-.38.54-.77.81-1.15.63-1.17-.59-1.78-1.13-2.61-1.57-.83-.43-1.87-.73-3.76-.73-1.42,0-2.99-.16-4.23.05-.62.11-1.14.32-1.51.68-.38.36-.63.83-.63,1.57s-.39,1.46-.99,2.14-1.38,1.36-2.09,1.98-1.39,1.2-1.72,1.78c-.34.57-.36,1.15.16,1.67.46.46,1.76,1.19,2.72,2.04.48.42.87.87,1.04,1.31.18.44.14.85-.26,1.25-.64.64-1.47,1.41-2.09,2.19-.62.78-1,1.59-.78,2.45.26,1.05.4,2.31.42,3.6.02,1.3-.09,2.66-.42,3.97-.25.99-.39,2.41-.68,3.81s-.74,2.78-1.67,3.71c-.46.46-.73,1.09-.94,1.83-.21.74-.36,1.6-.52,2.35-.16.76-.32,1.42-.63,1.93s-.71.84-1.36.84c-1.58,0-2.98-.87-4.07-1.31-.55-.22-1.02-.32-1.41-.16-.39.16-.72.6-.94,1.46-.25,1.02-.69,2.44-.78,3.71-.05.63,0,1.26.21,1.72s.6.79,1.2.94c.8.2,1.39.22,1.93.1.54-.11,1-.34,1.46-.63.92-.57,1.86-1.35,3.55-1.78.92-.23,1.94-.24,2.87.1.93.35,1.77,1.04,2.35,2.19.42.85.54,1.49.52,1.98-.02.5-.2.88-.47,1.25-.54.75-1.41,1.46-1.83,3.13-.28,1.12-.5,1.77-.26,2.3s.99.96,2.61,1.78c1.9.95,2.97,2.37,5.22,3.5,1.57.78,3.69,1.92,5.22,3.45.74.75,1.86,1.34,2.25,1.88.19.27.17.52-.16.78-.33.26-.95.55-2.09.84-1.2.3-2.09.73-2.87,1.31-.78.57-1.46,1.25-2.35,2.14-1.59,1.59-3.59,3.02-5.22,4.65-.71.71-1.6,1.69-2.3,2.72-.69,1.03-1.2,2.1-1.2,3.08v8.72c0,1.37.13,2.89.1,4.34s-.19,2.78-.68,3.76c-.45.9-1.2,1.9-1.88,2.98-.68,1.08-1.33,2.23-1.62,3.39-.16.63-1.07,1.98-1.57,3.08-.25.55-.38,1.06-.26,1.36s.47.4,1.25.21c1.32-.33,2.2-.76,3.03-1.25.83-.5,1.6-1.04,2.77-1.62,1.66-.83,2.32-1.32,2.82-1.36s.84.38,1.83,1.36c.39.39,1.55,1.09,2.61,1.93,1.06.84,2.04,1.79,2.04,2.66v8.72c0,1.01-.09,2.09-.42,3.19-.33,1.09-.88,2.19-1.88,3.19-.58.58-1.75,1.58-2.77,2.66s-1.88,2.23-1.88,3.13c0,.47-.14,2.57-.21,4.6s-.07,3.93.21,4.07c1.01.51,2.03.94,3.24,1.25,1.2.31,2.57.52,4.28.52.8,0,2.46-.76,3.97-1.41s2.83-1.22,2.98-.94c.43.87.76,1.93.94,3.19.18,1.26.21,2.74.21,4.39,0,1.82.12,3.17-.05,4.34s-.61,2.13-1.67,3.19c-.61.61-.94.99-1.04,1.25-.1.27.06.44.37.52.62.17,1.96.11,3.6.52.67.17,1.22.58,1.72,1.1.51.52.95,1.17,1.41,1.78.46.61.94,1.18,1.46,1.62.52.44,1.09.73,1.78.73l-8.15,11.02,8.15,6.95,18.54-15.62,25.48-17.97c.8-.4,1.39-.7,2.14-.89.75-.19,1.66-.31,3.08-.31,3.44,0,5.46.53,8.15,1.2,1.43.36,3.26.09,4.91.1.83,0,1.59.08,2.25.31.65.23,1.18.64,1.51,1.31.56,1.12.92,2.35,1.25,3.29.33.94.65,1.58,1.1,1.36.94-.47,2.02-.6,3.29-.68,1.27-.08,2.71-.14,4.23-.52.66-.16,2.2-.56,3.81-.78,1.62-.23,3.29-.29,4.28.21,1.18.59,2.55,1.47,4.02,2.19,1.47.72,3.06,1.31,4.7,1.31,1.46,0,3.22.17,4.96.26,1.74.09,3.48.1,4.91-.26,2.19-.55,7.37-.86,8.67-.57h.26c0-3.24,1.18-4.76,2.98-7.16,1.3-1.73,6.54-4.25,5.38-6.58-1.18-2.36-4.26-4.84-7.15-7.73-1.17-1.17-4.59-5.58-.57-6.58,3.4-.85,2.35-3.68,2.35-7.16,0-3.57-1.15-5.14-1.15-7.78,0-2.22-.98-9.2.57-10.76.2-.2.38-.38.57-.57,1.15-1.15,3.72-3.2,3.03-5.95-.91-3.64-3.21-3.4-4.8-6.58-2.15-4.3-.85-3.13,2.4-4.75,1.26-.63,5.95-1.19,5.95-3.6,0-4.13-.84-5.38,3.6-5.38,2.06,0,7.15.6,7.15-1.78,0-2.92-.9-5.54-2.98-6.58-.91-.45-6.4-2.7-2.98-3.55,4.1-1.02,3.8-1.13,5.33-4.18,1.42-2.83,2.4-5.21,2.4-8.36,0-1.39-1.7-8.35-2.98-8.98-1.83-.92-4.71-.43-7.78-1.2-1.24-.31-4.13-.58-6.53-1.78-3.19-1.6-5.63-4.28-8.98-5.95-2.49-1.24-3.24-2.36-4.75-5.38-1.36-2.71-2.82-3.86-4.18-6.58-1.45-2.9,1.12-8.11-1.78-9.56-3.76-1.88-2.27-.52-3.03-3.55-.7-2.78-2.72-5.13-4.75-7.16-1.42-1.42-4.04-4.42-5.95-5.38-2.49-1.24-2.95-2.37-5.38-4.81-.75-.75-5.88-7.16-6.58-7.16-4.25,0-2.8,2.82-5.95,3.6-4.92,1.23-2.44-1.33-4.18-4.81-.91-1.82-2.4-4.43-2.4-7.16,0-3.02.25-7-1.2-8.93-1.44-1.92-2.23-5.25-3.55-6.58-2.51-2.51-2.98-1.69-2.98-7.16l-26.27-25.64v-4.18c0-4.26,2.98-3.57,2.98-6.01,0-1.19-.22-3.36-.21-5.33Z"/>
  <path id="006" class="cls-1" d="M802.16,417.34l-.26.47c-.56.56-1.48,1.34-2.35,2.19s-1.67,1.81-1.88,2.66c-.5,2-.86,2.45-.99,2.87-.14.42-.07.8.37,2.56.76,3.02,2.41,6.04,3.03,8.51.35,1.41.74,2.3.84,3.24.1.94-.09,1.9-.84,3.39-.35.7-.81,1.83-1.04,3.13-.24,1.3-.22,2.8.47,4.18.48.97,1.06,1.93,1.46,2.92.4,1,.64,2.03.37,3.13-.44,1.74-1.23,2.47-1.88,3.24-.32.38-.62.78-.84,1.31-.22.53-.31,1.15-.31,2.09,0,1.56.16,2.99.47,4.28s.72,2.44,1.31,3.6c.32.63.36,1.38.26,2.14s-.32,1.52-.52,2.3c-.2.78-.36,1.55-.37,2.25,0,.69.13,1.33.63,1.83h-13.32l7.26,10.29-2.4,27.89c1,.25,2.95.6,3.6,1.25.39.39,1.85,1.08,2.92,1.93.54.43.97.87,1.15,1.36.18.49.1.99-.42,1.51-.59.59-1.59,1.86-2.25,3.19-.33.66-.56,1.38-.63,1.98-.06.61.08,1.12.47,1.51.81.81,1.36,1.25,1.83,1.41.46.16.8.02,1.15-.21.7-.45,1.45-1.37,3.08-1.78,1.1-.27,2.2-1.46,3.24-2.35.52-.44,1.04-.83,1.51-.99s.91-.14,1.31.26c.72.72,1.68,1.63,2.45,2.51.77.88,1.36,1.72,1.2,2.35-.46,1.82-1.02,2.51-1.78,3.08-.76.57-1.72,1.04-3.08,2.4-.65.65-4.03,3.84-4.28,4.86-.38,1.52-1.14,2.33-1.88,3.03-.74.7-1.44,1.28-1.72,2.4-.11.44-1.19,2.27-1.78,3.76-.29.74-.45,1.42-.31,1.78s.54.41,1.46-.05c.49-.24.83-.75,1.1-1.31.26-.56.43-1.21.63-1.83.2-.62.44-1.18.73-1.62.29-.44.65-.73,1.2-.73,1.15,0,2.04,0,2.66.52.62.52.94,1.55.94,3.71s-.35,3.56-.16,4.39c.1.41.34.66.84.84.49.17,1.23.26,2.35.26.8,0,1.82.41,2.82.94,1,.53,2.04,1.2,2.98,1.78.94.58,1.75,1.07,2.35,1.2.3.07.56.03.73-.1s.26-.38.26-.78l4.86-15.15,3.6,18.8,7.26-1.83,30.96,14.52c.25-.06.81.06,1.36.05.54,0,1.04-.11,1.04-.63,0-.76.28-1.49.68-2.09s.93-1.1,1.46-1.46c.53-.36,1.06-.54,1.46-.57.4-.03.63.1.63.47,0,3.23,0,6.48,0,9.71,0,.59.36,1.17.84,1.72s1.06,1.06,1.62,1.57c.56.51,1.09,1,1.36,1.46.26.46.26.89-.16,1.31-1.49,1.49-3.14,2.49-5.48,3.66-.75.38-1.22.71-1.57,1.1-.35.39-.55.81-.68,1.31-.26.99-.3,2.28-.78,4.23-.2.81-.37,1.65-.57,2.45l28.46,15.77,1.83,3.6,26.06,7.31.1.1c-.02-2.43.2-3.5,4.07-3.5,3.37,0,3.28-4.34,1.2-5.38-3.45-1.72-2.72-3.24-4.8-5.33-2.39-2.39-5.67-2.69-8.35-5.38-2.39-2.39-5.58-4.01-7.15-7.16-1.97-3.95.15-4.14,1.2-8.36.65-2.59,1.65-4.58,3.55-6.01,1.78-1.34,3.57-2.95,5.38-4.75.59-.59,4.96-5.59,7.78-4.18,1.2.3,1.28.01,2.4.57,1.35.67,5.4,1.28,6.53,2.4.25.25,3.98,4.75,4.18,4.75,2.33,0,5.69-2.67,7.78-.57,1.09,1.09,4.17,2.42,4.75,4.75.52,2.06.63,5.42.63,8.36,0,1.17,2.38,7.73,3.55,5.38.76-1.51.34-8.07,1.2-8.93,1.42-1.42,2.54-1.14,3.97-1.1l-.37-.26c-.52-.61-.64-2.32-.57-4.18.06-1.85.31-3.84.57-4.91.27-1.09.28-1.93.1-2.56-.18-.63-.53-1.07-.99-1.41-.93-.68-2.27-.98-3.34-1.51-.58-.29-.97-.69-1.25-1.2-.28-.51-.44-1.12-.52-1.78-.16-1.31-.05-2.82-.05-4.28,0-.61-.2-1.12-.52-1.57-.33-.45-.75-.82-1.25-1.15-1.01-.65-2.26-1.1-3.08-1.51-.81-.4-1.3-.78-1.62-1.15-.31-.37-.44-.72-.37-1.1.14-.75.94-1.56,1.98-2.61,1.19-1.19,1.93-2.25,2.3-3.24s.38-1.91.16-2.82c-.14-.57-.06-1.08.16-1.51s.55-.77.99-1.1c.89-.65,2.12-1.19,3.08-1.67,1.68-.84,3.19-.75,4.28-1.04.55-.15,1-.41,1.31-.89.31-.47.47-1.19.47-2.3,0-2.69-.2-4.15-.84-4.75-.32-.3-.75-.41-1.31-.31-.56.1-1.24.41-2.09.84-1.72.86-2.86,1.58-3.76,1.72-.45.07-.89,0-1.25-.26-.37-.27-.68-.74-1.04-1.46-1.06-2.11-1.62-3.15-1.78-4.13-.16-.98.11-1.9.57-3.76.49-1.95.49-2.97.16-3.76s-1.02-1.34-1.98-2.3c-.36-.36-.33-.88-.05-1.46.28-.58.78-1.2,1.36-1.83,1.15-1.25,2.58-2.42,2.92-2.77.47-.48.93-1.81,1.2-3.19.27-1.38.34-2.83,0-3.5-1.11-2.22-1.74-2.9-1.72-3.45.02-.55.72-.98,2.35-2.61.66-.66,1.02-1.22,1.2-1.78s.19-1.1.1-1.67c-.18-1.15-.73-2.46-.73-4.44,0-1.29-.46-2.34-.99-3.39-.53-1.05-1.12-2.12-1.41-3.29-.31-1.23-.93-1.97-1.46-2.87-.53-.9-.94-1.91-.94-3.76s.18-3.2.68-4.28c.49-1.08,1.3-1.98,2.35-3.03.74-.74,1.05-1.42,1.1-2.04.05-.62-.2-1.15-.57-1.62-.76-.94-2.1-1.56-2.98-1.78-1.2-.3-2.18-.91-2.98-1.67s-1.43-1.66-1.88-2.56c-1.07-2.14-2.93-3.75-4.23-5.48-1.66-2.21-3.07-4.37-4.23-6.69-.71-1.41-1-2.73-1.36-3.97s-.76-2.38-1.67-3.29c-.45-.45-2.41-.43-4.39-.31s-3.98.31-4.7.31h-9.71c-1.89,0-2.99.3-3.81.84-.82.53-1.35,1.3-2.25,2.19-.9.9-1.58,1.93-2.14,2.98-.56,1.04-1.02,2.09-1.51,3.08-.49.99-.84,1.54-1.04,1.72s-.29.03-.31-.37c-.06-.8.16-2.57.16-4.39v-9.71c0-2.96.45-5.44,1.2-8.46.73-2.93,1.81-5.51,2.4-7.89.15-.61-.07-1.1-.52-1.51s-1.12-.77-1.88-1.04c-1.51-.55-3.3-.86-4.23-1.1-1.59-.4-2.65-.81-3.6-1.31-.95-.5-1.82-1.09-3.08-1.72-.42-.21-.74-1.77-.94-3.5-.2-1.73-.26-3.64-.26-4.39,0-.81-.12-1.46-.37-1.98-.24-.53-.59-.91-.99-1.25-.81-.68-1.88-1.12-2.87-1.62-.99-.5-2.4-1.08-3.92-1.57-1.51-.48-3.15-.84-4.6-.84-1.35,0-2.1.46-2.82.99-.72.53-1.38,1.1-2.61,1.41-1.22,0-2.76-.92-4.13-1.98-1.37-1.07-2.6-2.23-3.19-2.82-1.09-1.09-2.22-1.58-3.34-1.93-1.12-.35-2.21-.55-3.29-1.1-3.02-1.51-5.02-2.37-7.88-3.08-2.81-.7-5.02-1.2-7.88-1.2-.56,0-.94.29-1.2.73-.27.44-.44,1.07-.57,1.72-.28,1.32-.45,2.8-1.25,3.6-1.52,1.52-2.14,3.97-3.66,5.48-.52.52-.63,1.14-.47,1.78s.56,1.28,1.04,1.88c.97,1.21,2.26,2.21,2.45,2.4.29.29.23.51-.05.68-.29.17-.82.26-1.41.31-1.17.1-2.67,0-3.39-.37-2.31-1.15-4.12-2.97-5.43-4.28-.65-.65-1.15-.89-1.57-.89-.41,0-.76.25-1.04.63-.57.76-.98,2.03-1.67,2.72-1.7,1.7-4.07,4.07-5.43,5.43-.49.49-.97.61-1.46.47-.49-.14-.97-.51-1.41-.99-.88-.97-1.62-2.35-1.98-3.08-.68-1.37-1.11-2.61-1.67-3.55s-1.26-1.61-2.56-1.93c-1.59-.4-2.08-.36-2.45.05-.37.41-.66,1.24-1.83,2.4-.5.5-1.11.8-1.78.99-.67.19-1.36.28-2.09.26-1.14-.03-2.18-.29-3.13-.52Z"/>
  <path id="007" class="cls-1" d="M384.26,194.47c-2.24,0-3.78,2.58-5.38,4.18-.24.24-2.83,5.97-2.98,6.01-3.9.97-5.05-4.13-7.15-3.6-2.78.7-3.47,9.72-4.75,7.16-.55-.55-3.6-2.4-4.18-3.55-1.01-2.03-3.16-7.41-4.18-5.38-.74,1.48-1.43,5.79-2.4,7.73-1.25,2.5-1.98,3.03-5.95,3.03-3.56,0-5.84-.61-6.58,2.35-.52,2.06-.63,5.42-.63,8.36,0,3.47-2.73,4.1-4.18,1.2-1.76-3.51-1.66-2.35-5.33-4.18-2.13-1.06-2.94-2.89-4.8-4.75-1.83-1.83-3.49-2.06-7.15-2.98-3.47-.87-4.03-.35-5.38,2.35-.92,1.83-1.17,4.21-2.35,6.58-1.04,2.08-2.55,3.84-3.6,5.95-1.27,2.53-.55,4.81-4.75,4.81-5.96,0-1.28-1.91-4.18-4.81-1.58-1.58-3.54-3.42-6.58-4.18-1.4-.35-5.1-2.63-7.15-.57-1.54,1.54-1.78,3.56-3.6,5.38-2.04,2.04-1.51,2.98-5.95,2.98-.97,0-8.69-.57-8.98,0-1.19,2.38-.61,6.42-1.78,1.78-.53-2.12-2.74-6.36,0-7.73,2.62-1.31,4.18-1.65,4.18-5.38,0-4.35-1.31-3.84-4.75-2.98-3.03.76-3.96,2.24-6.58,3.55-1.12.56-8.35,4.31-8.35,2.98,0-3.83-4.32-2.35-7.73-2.35-2.35,0-5.64,1.1-6.58,2.98-1.45,2.89,0,1.86,0,5.95,0,1.57.45,8.09-.63,8.36-2.73.68-4.45.96-7.73,1.78-2.14.53-7.24.18-8.35,2.4-1.79,3.57,1.2.44,1.2,4.18,0,4.22.2,4.43-3.6,5.38-2.15.54-6.64,1.14-5.38,2.4,1.75,1.75,3.08,3.6,5.38,4.75,2.48,1.24,2.95,2.43.63,4.75-1.5,1.5-2.72,5.06-5.38,2.4-1.28-1.28-4.64-4.12-7.15-4.75-1.88-.47-4.16-.07-6,1.78-3.22,3.22-5.58,3.35-5.95,2.98-1.76-1.76-2.87-4.54-4.18-7.16-2.66-5.32,2.16-.33,2.98-3.6.09-.37,1.86-7.89,0-8.36-.64-.16-6.53-3.6-7.15-2.98-2.19,2.19-2.78,3.41-4.75,5.38-1.13,1.13-2.11,6.6-3.6,3.6-1.03-2.07-2.02-3.84-3.55-5.38-.56-.56-5.77-5.95-6-5.95-1.47,0-8.22-.99-8.93-2.4-.23-.47-4.59-5.76-5.38-4.18-1.25,2.5-1.78,5.39-1.78,8.93,0,4.84-.49,3.52-2.98,6.01-1.4,1.4-2.87,3.31-4.8,4.75-.93.7-5.6,2.21-5.95,3.6-.54,2.16-3.52,3.8-2.98,5.95.93,3.72.43,4.9-1.83,7.16-1.03,1.03-3.22,3.41-4.75,4.18-.35.17-7.15,3.98-7.15,5.38,0,3,4.18,2.61,4.18,4.18,0,2.39-1.28,5.48-2.4,7.73-1.33,2.66-2.75,4.57-3.55,7.78-.25.99-1.51,7.06-2.4,7.73-5.67,4.25-2.32.71-4.8-1.15-.53-.4-7.24-5.57-7.73-3.6-.99,3.95-5.55.35-6.58,2.4-1.44,2.88-2.86,2.52,0,5.38,1.54,1.54,1.15,4.13,2.98,5.95.61.61,5.38,3.91,5.38,5.38,0,3.23.85,6.53-2.98,6.53-1.98,0-7.25.53-8.35-.57-2.17-2.17-5.28-1.14-7.73-2.98-1.31-.99-3.86-4.67-4.18-5.95-.52-2.08,2.87-3.93,2.35-6.01-.44-1.75-2.78-4.75-4.75-4.75-4.21,0-5.95.19-5.95,4.18,0,3.27-2.47,3.86-6,2.98-3.18-.79-4.8-1.24-7.15-3.6-1.95-1.96-3.54-4.75-5.95-5.95-2.6-1.3-4.07-2.4-7.78-2.4-3.54,0-5.53-.92-8.93-1.78-1.73-.43-6.48-1.63-7.15-2.98-1.31-2.62-1.61-3.69-4.18-2.4-4.69,2.34-.25,4.43-.63,4.81-1.66,1.66-3.45,2.22-3.55,2.35-.16.22-4.54,6.42-5.38,6.58,3.43,1.71,4.96,1.78,8.93,1.78,2.9,0,5.79-.01,8.35.63,2.22.56,4.99,1.32,7.15,2.4,2.05,1.02,3.98,1.68,6.58,2.98,2.34,1.17,5.14,2.89,7.78,3.55,3.17.79,6.85,2.98,10.13,2.98,2.97,0,5.67,1.01,8.93,1.83,3.4.85,5.01,1.31,8.35,2.98,2.26,1.13,4.43,2.28,7.21,2.98,3.13.78,5.18,2.18,8.35,2.98,2.8.7,4.42,1.57,7.73,2.4,2.22.56,5.92.59,8.35,1.2,2.38.59,5.64,1.1,8.35,1.78,3.28.82,5.8.99,8.93,1.78,1.98.5,5.71,1.31,7.78,1.83,2.55.64,5.26,1.27,7.78,1.78,3.76.75,6.31,1.14,9.5,1.78,3.69.74,7.65,1.47,11.38,2.4,3.47.87,7.12,1.45,10.7,2.35,3.13.78,5.23,1.63,7.78,4.18,1.76,1.76,3.92,4.39,7.15,6.01,1.8.9,5.49,3.14,7.73,5.38,2.55,2.56,4.15,2.35,8.98,2.35,3.06,0,7.52.99,8.35-2.35.68-2.71-.1-11.07.57-8.36.54,2.16-.13,4.75,1.2,6.53,1.42,1.89,4.47,3.01,2.98,6.01-1.56,3.12-.57,4.43-.57,8.36,0,2.67-.55,6.11.57,8.36.32.63,3.32,6.9,4.8,6.53,1.28-.32,4.3-4.88,4.18-5.38-.56-2.26-4.66-5.96-2.4-6.53,5.48-1.37,3.75.96,7.78,2.98,1.43.72,5.95.54,5.95-2.98,0-2.51.03-6.91,1.78-7.78,3.12-1.56,4.85-2.08,8.35-1.2,2.81.7,3.39,1.61,5.38,3.6,1.71,1.71,2.15,2.66,2.98,5.95.62,2.48,1.89,3.78,2.98,5.95.36.72.7,6.14,1.78,7.21,2.39,2.39,3.03,1.95,3.03-2.4v-8.98c0-2.46-3.57-5.42-1.83-7.16.86-.86-1.12-2.47-.57-3.55.64-1.28,2.4-2.17,2.4-3.6,0-3.7.63-4.49,4.18-5.38,2.24-.56,5.31-.57,8.35-.57h8.93c4.11,0,5.34.27,8.35,1.78.29.15,5.97,2.99,5.38,4.18-1.92,3.83,2.14,3.33,1.78,4.81-.36,1.44-1.83,3.67-2.98,5.95-.49.98-3.88,5.84-2.4,6.58,1.33.66,6,3.94,6,0,0-2.05,3.89-3.55,2.98-5.38-.67-1.34-3.23-3.6,1.2-3.6,3.77,0,5.57.38,8.35,1.78,2.04,1.02,3.5,2.38,5.95,3.6,1.97.98,2.73,3.17,4.75,4.18,2.15,1.08,3.32,2.12,5.38,4.18.67.67,4.99,3.84,5.38,5.38.68,2.71,1.78,3.42,1.78,7.16,0,3.37-.26,6.01,1.2,8.93.28.56,3.5,5.48,1.78,7.21-2.12,2.12-4.44,2.35-8.35,2.35-5.5,0-2.78-1.01-1.2-4.18,1.44-2.87.24-5.56-2.98-2.35-2.43,2.43-2.68,3.12-5.95,4.75-3.22,1.61-3.36,2.16-5.38,4.18-2.01,2.01-.49,5.87-2.35,7.73-1.95,1.95-4.07,3.63-4.8,6.58-1.14,4.55,2.98,3.09,2.98,5.95,0,3.07-2.67,3.07-1.2,6.01.1.2,4.02,6.16,4.8,5.38,1.95-1.95,1.93-3.41,5.95-2.4,3.25.81,6.95,1.12,9.56,1.78,3.94.98,8.67,1.67,12.53,3.6,3.04,1.52,8.19,2.83,10.76,4.75,2.25,1.69,7.38,3.97,10.7,4.81,3.59.9,5.74,1.36,8.98,2.98,3.97,1.99,8.14,3.62,12.53,5.38,4.04,1.62,6.99,2.69,10.7,4.18,4.06,1.62,6.94,3.65,11.33,4.75,5.27,1.32,9.43,3.98,14.36,5.95,5.38,2.15,11.15,3.15,16.71,5.38,4.98,1.99,11.04,2.7,15.51,5.38,2.76,1.66,6.34,3.14,9.56,4.75,3.54,1.77,8.62,3.42,12.53,5.38,3.73,1.87,7.69,2.36,11.33,4.18,1.99,1,3.95,1.99,5.9,2.98l.63-.68,14.57-31.55h6.06l3.66-6.06,12.11.63,10.91-18.8,9.09-1.83,4.86,9.71,3.6-6.11,9.71-1.2-7.88-26.06-12.11-4.86,18.8-23.03-6.06-26.06c-2.19-.29-4.16-.87-5.8-1.62-1.64-.75-2.96-1.65-3.92-2.61-.9-.9-2.12-1.46-3.34-1.88-1.22-.42-2.44-.75-3.34-1.2-1.12-.56-2.13-.98-3.13-1.51-1-.54-2-1.16-2.92-2.09-1-1-1.58-1.79-1.93-2.77-.36-.98-.47-2.15-.47-3.92,0-1.76.13-3.2.42-4.54s.73-2.56,1.41-3.92l.73-.89c-.06-.15-.21-.23-.21-.42,0-1.33-.12-2.84-.1-4.28.02-1.44.16-2.78.68-3.81.67-1.34,1.32-1.89,2.14-2.4.82-.51,1.82-.99,3.08-2.25,1.05-1.05,1.58-2.09,1.67-3.29.09-1.2-.26-2.56-1.1-4.23-.45-.9-1.41-2.38-1.98-3.6-.29-.61-.47-1.16-.47-1.57,0-.4.23-.63.73-.63,1.99,0,3-.36,3.97-.84.97-.47,1.87-1.09,3.55-1.51,2-.5,5.24-.57,8.09-.57.96,0,1.72-.06,2.3-.26.58-.2.98-.5,1.15-.89.17-.39.12-.89-.16-1.46-.28-.58-.76-1.28-1.51-2.04-.46-.46-2.18-2.31-3.92-3.92-.87-.81-1.75-1.51-2.51-1.98s-1.37-.73-1.72-.47c-1.03.77-1.71,1.14-2.19,1.2s-.75-.17-1.04-.52c-.3-.35-.58-.86-1.04-1.31s-1.11-.85-2.09-1.1c-1.77-.44-2.69-.55-3.29-.99-.6-.44-.9-1.25-1.36-3.08-.45-1.79-.73-2.91-1.2-3.92-.47-1-1.09-1.87-2.25-3.03-.89-.89-1.3-2.49-1.78-3.86-.24-.69-.48-1.32-.84-1.78s-.83-.73-1.46-.73c-.69,0-2.65.21-4.54.31-1.89.11-3.74.12-4.18-.31-1.41-1.41-2.89-2.94-4.6-4.65-1.11-1.11-2-2.37-2.87-3.6-.87-1.24-1.72-2.44-2.92-3.34-.28-.21-1.67-1.27-2.51-2.4-.42-.57-.68-1.17-.63-1.67.06-.5.42-.91,1.36-1.15,2.48-.62,3.47-1.71,5.8-2.87,1.9-.95,3.59-1.82,5.8-2.92,1-.5,1.91-1.06,2.98-1.51,1.07-.45,2.33-.78,4.02-.78,2.13,0,3.29.05,3.92-.42.63-.46.68-1.46.68-3.66,0-1.05.4-1.75.94-2.19s1.26-.65,1.98-.73c1.45-.16,2.87.19,2.87.05,0-1.6,0-2.27-.52-2.61-.52-.35-1.51-.39-3.5-.89-.93-.23-1.55-.61-1.93-1.1-.38-.49-.53-1.08-.57-1.72-.09-1.29.25-2.79.16-4.13-.13.13-.51.6-.63.57-.33-.07-.73-.83-2.25-2.35-1.2-1.2-1.76-1.76-2.61-2.04-.85-.28-1.99-.26-4.33-.26h-7l-22.04-11.02-1.15-6.95-17.96,7.52-27.83-20.27,4.07-5.22-13.32-2.92-.05-.1c-.28.71-.74,1.18-1.67.99-3.65-.73-4.64-3.55-7.15-4.18-1.96-.49-5.74.03-8.35-.63-2.25-.56-5.64-1.05-8.35-2.4-2.88-1.44-5.15-2.58-8.35-4.18-3.51-1.75-6.61-3.57-10.13-5.33-2.25-1.13-5.28-3.03-8.35-3.03h-10.76Z"/>
  <path id="008" class="cls-1" d="M447.39,213.22l.05.1,13.32,2.92-4.07,5.22,27.83,20.27,17.96-7.52,1.15,6.95,22.04,11.02h7c2.34,0,3.48-.02,4.33.26.85.28,1.41.84,2.61,2.04,1.52,1.52,1.91,2.28,2.25,2.35.33.07.56-.51,1.78-1.72.92-.92,1.7-1.36,2.72-1.57s2.31-.21,4.28-.21c.51,0,2.76.18,4.91.26,2.15.08,4.17.06,4.33-.26.31-.63,1.09-1.51,1.83-2.45.74-.95,1.47-1.96,1.67-2.77.44-1.76,1.01-2.58,1.62-3.29.61-.71,1.22-1.29,1.83-2.51.03-.05,3.33-5.84,3.5-5.8,1.43.36,2.02.8,2.56.99.53.19,1.01.12,2.09-.42.55-.28,1.98-.5,3.29-.99.66-.25,1.27-.6,1.72-.99.46-.4.78-.85.78-1.46,0-.79.2-2.7.16-4.39-.02-.84-.11-1.61-.31-2.19s-.5-.94-.99-.94c-1.55,0-2.96-.36-4.28-.52-1.32-.16-2.58-.12-3.86.52-1.24.62-2.84,1.26-4.13,1.31-.64.02-1.16-.08-1.57-.47-.4-.39-.68-1.06-.68-2.04,0-2,.07-3.17-.26-4.07-.33-.9-1.04-1.51-2.61-2.3-1.11-.56-2.2-1.45-3.19-1.83-.49-.19-.97-.23-1.41-.05-.44.17-.83.55-1.2,1.31-.29.59-1.29,1.58-2.14,2.66-.38.49-.37.92-.63,1.41.28.16.9.51.99.57.28.21-.09.67-.57.99s-1.06.49-1.15.16c-.12-.48.42-1.13.73-1.72-.67-.38-1.37-.75-2.4-1.41-.73-.47-1.42-.95-1.88-1.41-.46-.46-.69-.91-.52-1.25.64-1.29,1.06-1.58,1.62-1.83.55-.25,1.26-.48,2.45-1.67.65-.65,1.72-1.12,2.45-1.78.37-.33.62-.69.73-1.15s.08-.99-.26-1.67c-.5-1.01-1.96-2.32-2.98-3.45-.51-.56-.9-1.1-1.04-1.51-.14-.41-.02-.7.52-.84,1.35-.34,2.48-.4,3.66-.26,1.18.14,2.39.47,3.86.84,1.23.31,3.09.42,4.86.68.89.13,1.74.26,2.51.52s1.45.62,1.93,1.1c.75.75,1.43,1.79,2.25,2.61.82.83,1.78,1.46,2.98,1.46h10.44l.42-.31-.42-.26c.34-.67.94-1.35,1.51-2.09s1.11-1.56,1.36-2.56c.37-1.49.85-2.57,1.15-3.45.29-.88.39-1.57,0-2.35-.51-1.03-1.52-2.21-2.4-3.34-.89-1.13-1.62-2.21-1.62-3.03,0-.47-.19-1.57-.21-2.87s.14-2.78.78-4.07c.63-1.25,1.05-1.95,1.78-2.4s1.75-.67,3.45-1.1c1.35-.34,2.06-.85,2.82-1.46.76-.61,1.56-1.33,2.98-2.04.78-.39,1.58-1.28,2.45-2.14.87-.86,1.77-1.64,2.72-1.88,1.67-.42,2.81-.23,3.76-.26.47-.01.94-.1,1.36-.31s.85-.6,1.31-1.2c1.06-1.41,1.7-2.57,2.19-3.81s.82-2.57,1.25-4.28c.23-.91.54-1.46.94-1.78.4-.32.88-.41,1.46-.42,1.16,0,2.67.36,4.54-.1,1.62-.4,2.51-.71,2.98-1.41.47-.7.52-1.79.52-3.81,0-1.43-.32-3.17-.1-4.39.11-.61.37-1.09.84-1.36s1.12-.31,2.14-.05c.36.09,3.29.55,6.16.84,1.44.14,2.85.23,3.97.21,1.12-.02,1.93-.15,2.09-.47l26.06,12.17c.78-.78.98-.24,1.72-1.72.65-1.3,1.06-2.08,1.67-2.72.61-.64,1.42-1.16,2.98-1.93,1.71-.86,4.65-2.35,6.37-4.07,1.03-1.03,3.11-3.31,4.65-4.07.54-.27,1.98-1.03,3.29-1.2.66-.09,1.32-.04,1.78.31s.73,1.03.73,2.09c0,1.78-.39,2.52-.94,3.19-.55.66-1.25,1.25-1.93,2.61-.62,1.24-1.26,1.92-1.41,2.61-.15.69.21,1.41,1.41,2.61.47.47,1.62,1.14,2.66,1.93.52.4,1,.8,1.36,1.25s.57.91.57,1.41c0,1.26-.11,3.74-.1,5.59,0,.93.05,1.69.16,2.09.11.4.29.46.57-.1.67-1.34,1.26-1.84,1.98-2.25.72-.41,1.53-.75,2.61-1.83,1.03-1.03,2.11-2.2,3.19-3.03.54-.41,1.08-.75,1.62-.94s1.04-.25,1.57-.1l.52-.47c0-.12-.13-.19-.1-.31.21-1.09,1.27-2.36,1.93-3.24,1.05-1.41,1.85-2.27,2.51-3.13.66-.87,1.19-1.78,1.57-3.29.33-1.32.74-2.49,1.1-3.76s.63-2.62.63-4.34c0-2.9,0-5.77,0-8.67,0-1.85-.24-3.42-.05-4.6.09-.59.31-1.06.68-1.46.37-.4.88-.74,1.67-.94,1.08-.27,1.75-.73,2.09-1.31s.37-1.26.21-1.93c-.32-1.35-1.41-2.69-2.3-3.13-1.05-.53-1.62-1.44-1.93-2.56s-.37-2.45-.37-3.81c0-1.64.08-3.08.26-4.34.18-1.26.45-2.32.89-3.19.87-1.74,2.03-2.48,2.61-3.13.29-.33.42-.64.31-1.04-.11-.41-.48-.9-1.2-1.62-1.45-1.45-2-3.77-3.45-5.22-1.7-1.71-2.67-3.82-4.07-5.22-1.92-1.92-2.99-3.56-4.65-5.22-1.26-1.26-2.1-1.61-3.19-2.61l.52,1.04-59.06-21.47-7.15-17.34-23.86,5.38-31.07-17.29c-.41-.82.74-.54-.57-1.2-2.18-1.09-4.31-1.99-5.95-4.18-2.54-3.39-.55-5.38-5.38-5.38-1.27,0-3.14-.09-4.8,0-1.67.09-3.13.37-3.55,1.2-1.15,2.3-2.98,4.54-2.98,7.16,0,2.03.86,7.78-1.2,7.78-5.56,0-3.59.1-4.75,4.75-.53,2.1-1.2,5.95-2.4,8.36-1.22,2.43-2.22,4.14-2.98,7.16-.5,2.02.05,6.26-.63,8.98-.55,2.2-2.37,5.33-.57,7.73,1.53,2.04,4.13,8.48,4.75,6.01.49-1.97,4.18-6.1,4.18-1.83,0,2.91-1.2,6.66-1.2,8.36,0,3.24-1.5,4.19-2.98,7.16-1.3,2.6-3.77,3.83-5.95,6.01-.55.55-5.38,4.23-5.38,5.33,0,1.54.21,9.36-.57,9.56-1.42.71-2.76,3.09-4.8,3.6-2.17.54-4.57,1.76-7.15,2.4-2.08.52-4.84,1.24-6.58,2.98-.97.97-3.75,3.04-4.18,4.75-.78,3.13-2.19,3.23-3.55,5.95-1,2-1.2,4.31-1.2,7.78,0,4.38.58,4.91-3.6,5.95-1.68.42-7.59,1.48-6.53,3.6,1.1,2.2,1.88,4.96,2.98,7.16.81,1.62,2.49,4.02,2.98,5.95.5,2.02,1.78,4.7,1.78,7.16,0,2.99,2.42,8.98-.57,8.98-.97,0-8.69-.57-8.98,0-1.07,2.15-1.28,8.23-2.98,6.53-1.69-1.69-4.75-7.72-4.75-5.33,0,3.8,1.17,5.95-1.78,5.95-1.42,0-7.15-2.38-7.15-1.2,0,4.44-1.3,4.28-3.6,6.58-4.4,4.4-1.72-3.35-3.6-2.4-5.04,2.52-3.85-2.4-5.33-2.4-1.17,0-8.11-.62-8.35.63-1.09,5.46-2.78,2.15-5.38,4.75-1.67,1.67-3.16,2.34-2.4,5.38.32,1.29,1.17,4.99.47,6.79Z"/>
  <path id="009" class="cls-1" d="M694.33,394.2l-13.05,35.73-7.26,8.46,5.43,6.11-5.43,16.35,5.43,7.26-13.32,30.92,4.23,4.28-6.06,14.52-10.91-4.86-6.06,4.86c.52.7,1.25,1.31,1.88,1.98.63.67,1.15,1.43,1.15,2.3,0,1.32-.63,2.81-1.25,4.07-.62,1.27-1.27,2.28-1.2,2.56.32,1.27,1.07,2.19,1.83,3.08.75.9,1.52,1.76,1.83,2.98.54,2.17.42,3.03,0,3.66s-1.13,1.01-1.83,2.4c-.58,1.16-1.11,2.31-1.15,3.5-.02.6.09,1.2.37,1.83s.73,1.31,1.41,1.98c.81.81,1.59,1.59,2.4,2.4l-13.32,36.4h-10.34l-7.83,10.81c1.95,1.16,3.92,2.31,5.85,3.76,2.27,1.7,4.88,3.11,6.58,5.38,2.07,2.77,4.75,4.17,7.15,6.58,1.93,1.93,3.81,2.61,5.95,4.75,1.6,1.6,3.14,2.5,5.38,4.18,1.83,1.38,4.71,2.78,6.58,4.18,3.07,2.3,5.86,4.71,8.35,5.95,2.6,1.3,6.76,3.83,8.93,6.01,1.94,1.94,4.98,2.58,6.58,4.18,1.44,1.44,3.17,3.07,5.38,4.18,1.81.91,5.32,2.35,6.53,3.55,1.84,1.84,4.14,3.27,7.21,4.81,2.56,1.28,5.4,3.57,8.35,4.75,3.85,1.54,7.98,4.06,11.33,6.58,2.43,1.82,4.89,3.06,7.73,5.33,3.13,2.51,5.7,4.12,8.98,6.58,2.82,2.12,4.84,3.64,7.15,5.95,2.59,2.6,5.6,5.29,8.93,7.78,2.92,2.19,7.17,3.57,9.56,5.95,2.1,2.1,3.62,4.25,5.95,6.58,2.13,2.13,3.94,3.89,6,5.95,1.61,1.61,3.4,3.58,4.75,5.38,1.51,2.01,3.33,5.16,4.75,6.58,1.72,1.72,2.7,3.27,4.8,5.38,1.74,1.74,3.57,4.15,5.38,5.95,1.73,1.73,3.29,2.66,5.38,4.75,1.34,1.34,3.43,3.04,4.75,4.81,1.46,1.95,3.29,3.29,5.38,5.38,1.71,1.71,2.77,3.35,4.75,5.33,2.2,2.2,3.17,8.6,5.95,7.21.4-.2,1.14.39,1.2-.63,1.99-1,4.8-.76,4.8-4.18,0-3.03-.07-6.15-.63-8.36-.19-.76-4.4-4.64-1.78-5.95,2.55-1.28,3.56-2.4,7.15-2.4,2.88,0,6.01.51,7.15-1.78,1.12-2.25,1.52-5.12,2.98-6.58,1.78-1.78,2.7-2.75,5.38-4.75,1.51-1.14,5.62-4.04,6.58-5.95,1.73-3.47-.43-3.51-1.2-6.58-.65-2.59-4.74-4.77-3.55-7.16,1.12-2.24,3.29-3.65,4.75-6.58.34-.68,2.98-5.38,4.18-5.38,3.06,0,6.09.14,8.93-.57,1.71-.43,5.38-2.06,5.38-4.81,0-.97-.57-8.64,0-8.93,1.7-.85,5.35-2.53,7.15-2.98,4.5-1.13,5.72,2.89,10.18,1.78,3.05-.76,4.21-2.24,7.15-2.98,3.41-.85,5.05-.96,7.73-2.98,2.06-1.55,4.54-3.16,6.58-4.18,1.69-.85,3.7-2.5,5.38-4.18,1.23-1.23,2.04-4.31,4.18-5.38,3.92-1.96,3.55-1.71,3.55-6.58l-2.98-18.49c0-1.91.63-3.58.63-5.38,0-.98.11-1.22.1-1.88l-.1-.1-26.06-7.31-1.83-3.6-28.46-15.77c.2-.81.37-1.65.57-2.45.49-1.95.52-3.24.78-4.23.13-.5.33-.92.68-1.31.35-.39.81-.72,1.57-1.1,2.34-1.17,3.99-2.17,5.48-3.66.42-.42.42-.84.16-1.31-.26-.46-.8-.96-1.36-1.46-.56-.51-1.15-1.02-1.62-1.57s-.84-1.13-.84-1.72c0-3.23,0-6.48,0-9.71,0-.37-.23-.5-.63-.47-.4.03-.93.22-1.46.57-.53.36-1.06.86-1.46,1.46s-.68,1.33-.68,2.09c0,.52-.5.62-1.04.63-.54,0-1.11-.11-1.36-.05l-30.96-14.52-7.26,1.83-3.6-18.8-4.86,15.15c0,.4-.09.65-.26.78s-.43.17-.73.1c-.6-.13-1.41-.62-2.35-1.2-.94-.58-1.97-1.24-2.98-1.78-1-.53-2.02-.94-2.82-.94-1.12,0-1.86-.09-2.35-.26-.49-.18-.74-.42-.84-.84-.2-.83.16-2.23.16-4.39s-.32-3.19-.94-3.71c-.62-.52-1.51-.52-2.66-.52-.55,0-.91.3-1.2.73-.29.44-.54,1-.73,1.62-.2.62-.36,1.27-.63,1.83-.26.56-.61,1.06-1.1,1.31-.92.46-1.33.41-1.46.05s.02-1.03.31-1.78c.58-1.49,1.67-3.33,1.78-3.76.28-1.12.98-1.7,1.72-2.4.74-.7,1.5-1.51,1.88-3.03.25-1.02,3.63-4.21,4.28-4.86,1.36-1.36,2.32-1.83,3.08-2.4.76-.57,1.32-1.26,1.78-3.08.16-.63-.43-1.47-1.2-2.35-.77-.88-1.74-1.79-2.45-2.51-.4-.4-.83-.43-1.31-.26s-.99.55-1.51.99c-1.04.89-2.14,2.08-3.24,2.35-1.63.41-2.38,1.32-3.08,1.78-.35.23-.68.37-1.15.21-.46-.16-1.02-.6-1.83-1.41-.39-.39-.53-.91-.47-1.51.06-.61.3-1.32.63-1.98.66-1.33,1.66-2.6,2.25-3.19.52-.52.6-1.02.42-1.51-.18-.49-.61-.93-1.15-1.36-1.07-.85-2.53-1.54-2.92-1.93-.65-.66-2.6-1-3.6-1.25l2.4-27.89-7.26-10.29h13.32c-.5-.5-.63-1.14-.63-1.83,0-.69.16-1.47.37-2.25.2-.78.43-1.54.52-2.3s.06-1.51-.26-2.14c-.58-1.16-1-2.31-1.31-3.6s-.47-2.72-.47-4.28c0-.94.1-1.56.31-2.09.22-.53.51-.92.84-1.31.65-.76,1.44-1.49,1.88-3.24.28-1.1.04-2.14-.37-3.13-.4-1-.98-1.95-1.46-2.92-.69-1.38-.71-2.88-.47-4.18.24-1.3.69-2.43,1.04-3.13.75-1.49.93-2.45.84-3.39-.1-.94-.48-1.83-.84-3.24-.62-2.47-2.27-5.49-3.03-8.51-.44-1.76-.5-2.14-.37-2.56.14-.42.49-.87.99-2.87.21-.86,1.01-1.81,1.88-2.66s1.79-1.63,2.35-2.19l.26-.47c-.26-.06-.61-.1-.84-.16-.75-.19-1.8-1.35-2.72-2.56s-1.72-2.46-2.14-2.87c-1.71-1.71-2.4-2.41-2.82-2.25-.42.16-.62,1.14-1.46,2.82-.97,1.95-3.25,2.89-4.23,4.86-.25.5-.78.65-1.36.68s-1.21-.05-1.67-.05l-.16-.21v.99l5.22,6.95-64.33,11.02,2.3-9.3-1.72-21.41,6.37,3.45,1.15-24.34h-10.39c-3.21,0-6.39.15-9.29-.57-1.44-.36-2.5-.82-3.24-1.31s-1.14-1-1.36-1.57c-.22-.56-.23-1.18-.1-1.78.12-.59.34-1.15.63-1.72.93-1.87,1.77-4.05,2.35-6.37.14-.57-.27-2.36-.94-3.76-.33-.7-.76-1.31-1.2-1.62-.44-.31-.89-.31-1.36.16-.72.72-1.1,1.79-1.46,2.87-.36,1.09-.69,2.2-1.41,2.92-1.24,1.24-2.85,3.01-4.07,4.65-.62.82-2.23,2.7-3.97,4.23-.87.77-1.79,1.41-2.61,1.83-.82.42-1.58.6-2.14.31l5.22,5.22-3.45,6.37-.63-.63Z"/>
  <path id="010" class="cls-1" d="M700.07,166.48l-.52.47c-.52-.14-1.03-.09-1.57.1s-1.08.53-1.62.94c-1.07.83-2.15,2-3.19,3.03-1.08,1.08-1.89,1.42-2.61,1.83-.72.41-1.32.91-1.98,2.25-.28.56-.47.51-.57.1-.11-.4-.15-1.16-.16-2.09,0-1.85.1-4.33.1-5.59,0-.5-.21-.96-.57-1.41s-.84-.86-1.36-1.25c-1.04-.79-2.19-1.46-2.66-1.93-1.2-1.2-1.56-1.92-1.41-2.61.15-.69.79-1.37,1.41-2.61.68-1.36,1.38-1.95,1.93-2.61.55-.66.94-1.4.94-3.19,0-1.06-.27-1.74-.73-2.09s-1.12-.4-1.78-.31c-1.31.17-2.75.93-3.29,1.2-1.54.77-3.62,3.04-4.65,4.07-1.72,1.72-4.66,3.22-6.37,4.07-1.55.78-2.37,1.29-2.98,1.93-.61.64-1.02,1.41-1.67,2.72-.74,1.48-.94.94-1.72,1.72l-26.06-12.17c-.16.32-.97.45-2.09.47-1.12.02-2.53-.07-3.97-.21-2.87-.28-5.81-.75-6.16-.84-1.02-.25-1.68-.22-2.14.05s-.73.75-.84,1.36c-.22,1.22.1,2.96.1,4.39,0,2.03-.06,3.12-.52,3.81-.47.7-1.36,1.01-2.98,1.41-1.87.47-3.39.1-4.54.1-.58,0-1.06.1-1.46.42-.4.32-.71.86-.94,1.78-.43,1.72-.76,3.04-1.25,4.28s-1.14,2.4-2.19,3.81c-.45.61-.88.99-1.31,1.2s-.88.3-1.36.31c-.95.03-2.09-.16-3.76.26-.95.24-1.84,1.02-2.72,1.88-.87.86-1.68,1.75-2.45,2.14-1.41.71-2.22,1.43-2.98,2.04-.76.61-1.47,1.13-2.82,1.46-1.69.42-2.72.65-3.45,1.1s-1.15,1.15-1.78,2.4c-.65,1.29-.8,2.78-.78,4.07s.21,2.4.21,2.87c0,.82.73,1.9,1.62,3.03.89,1.13,1.89,2.31,2.4,3.34.39.78.29,1.47,0,2.35-.29.88-.78,1.96-1.15,3.45-.25,1-.78,1.82-1.36,2.56s-1.18,1.41-1.51,2.09l10.97,6.95,5.22-4.65,11.59,4.65,3.5,6.37,16.81-1.15,8.09-8.15,8.15,7.57,16.81,9.24-2.35,7,5.8,2.3,6.37-4.07,31.33,15.67,31.85-1.15-3.45,13.32,11.59,17.39-4.65-20.84,3.45-15.09,9.87,3.5,11.59.57,9.87-9.87,7.52,9.3,8.15,1.15-7,9.24,13.94,10.45c-.19.76.54.09,1.25-.94.71-1.03,1.39-2.44,1.04-3.13-.7-1.41-1.61-2.13-1.67-2.51-.06-.37.69-.37,3.39-.37,2.9,0,5.82,0,8.72,0,1.87,0,3.33-.14,4.6-.57,1.27-.43,2.34-1.19,3.5-2.35.8-.8,2.21-1.15,3.5-1.36,1.29-.21,2.44-.26,2.87-.37.63-.16,1.48-1.28,2.25-2.45.76-1.17,1.46-2.4,1.83-2.77.86-.86,2.03-1.13,3.34-1.2,1.31-.07,2.8.05,4.23.05,1.66,0,2.77-.23,3.86-.57,1.09-.34,2.15-.77,3.66-1.15.7-.18,1.23-.51,1.62-.89.38-.38.59-.81.73-1.31.28-.99.17-2.13-.05-3.03-.33-1.33-.98-2.03-1.67-2.77-.69-.74-1.39-1.5-1.78-3.03-.1-.4,1.22-1,2.72-1.57,1.49-.56,3.16-1.11,3.66-1.36.51-.25.59-.63.47-1.1-.12-.47-.47-1.03-.89-1.62-.83-1.19-1.93-2.53-1.93-3.66l22.61-31.29c.86-.43,1.58-1.2,2.35-1.78.77-.58,1.4-.76,1.98-.84s1.08-.02,1.46-.05c.39-.03.69-.18.89-.63.19-.45.26-1.19.26-2.51,0-1.13.53-2.17,1.15-3.13.62-.96,1.36-1.84,1.78-2.66.26-.51.51-.59.78-.57.28.01.56.13.94,0l.37-.37c-.11-.49-.03-1.02.21-1.98.42-1.68,1.29-2.38,1.83-3.13.27-.38.45-.76.47-1.25.02-.5-.1-1.14-.52-1.98-.58-1.16-1.42-1.85-2.35-2.19-.93-.35-1.95-.34-2.87-.1-1.69.42-2.63,1.2-3.55,1.78-.46.29-.92.51-1.46.63-.54.11-1.13.1-1.93-.1-.6-.15-.99-.47-1.2-.94s-.26-1.09-.21-1.72c.09-1.26.53-2.69.78-3.71.22-.86.55-1.3.94-1.46.39-.16.86-.06,1.41.16,1.09.43,2.49,1.31,4.07,1.31.65,0,1.05-.33,1.36-.84s.47-1.18.63-1.93c.16-.76.31-1.61.52-2.35.21-.74.48-1.37.94-1.83.93-.93,1.39-2.31,1.67-3.71s.43-2.82.68-3.81c.33-1.31.43-2.67.42-3.97-.02-1.3-.16-2.56-.42-3.6-.22-.86.16-1.67.78-2.45.62-.78,1.45-1.55,2.09-2.19.4-.4.44-.81.26-1.25-.18-.44-.57-.88-1.04-1.31-.96-.84-2.26-1.58-2.72-2.04-.52-.52-.49-1.1-.16-1.67.34-.57,1.01-1.15,1.72-1.78s1.49-1.3,2.09-1.98.99-1.4.99-2.14.25-1.21.63-1.57c.38-.36.89-.57,1.51-.68,1.24-.21,2.81-.05,4.23-.05,1.89,0,2.93.3,3.76.73.83.43,1.44.98,2.61,1.57.37.19.77-.08,1.15-.63.38-.54.77-1.34,1.1-2.19.65-1.71,1.14-3.65,1.25-4.13.34-1.37.16-2.26-.31-3.03-.47-.77-1.2-1.41-1.98-2.19-.44-.44-.46-.99-.21-1.57.25-.58.75-1.17,1.36-1.78,1.22-1.21,2.8-2.38,3.45-3.03,1.25-1.25,1.44-1.73,1.15-2.25-.29-.51-1.06-1.07-1.72-2.4-.83-1.66-1.61-2.15-1.72-2.72-.12-.57.43-1.21,2.3-3.08.77-.77,1.1-1.83,1.2-3.13.1-1.3,0-2.83,0-4.39,0-.07-6.41-2.58-7-2.87-.98-.49-2.32-.66-3.76-.68-1.44-.02-2.96.05-4.33.05-1.8,0-2.77-.17-3.5-.57-1.01,1.21-1.91,2.29-2.61,2.45-.43.1-.85,0-1.36-.31-.51-.31-1.1-.84-1.83-1.57-1.02-1.02-1.44-1.15-2.14-1.04s-1.68.47-3.66.47c-1.68,0-2.82-.78-3.71-1.04-.45-.13-.82-.16-1.15.16-.33.32-.66.99-.94,2.09-.16.65-.06,1.15.21,1.62.26.47.72.91,1.2,1.25.96.7,2.12,1.18,2.66,1.72,1.86,1.86,5.16,3.58,6.94,4.65,1.34.81,2.3,1.53,3.08,2.4.78.88,1.4,1.91,2.14,3.39.27.55.13.89-.31,1.1-.45.21-1.17.3-1.98.37-1.63.12-3.67.15-4.65.89-1.77,1.33-5.45,2.5-6.94,2.87-.78.2-3.54,4.12-4.07,4.65-.63.63-.91,1.48-1.04,2.4-.13.92-.1,1.93-.1,2.82,0,.69.33,1.11.89,1.41.55.3,1.32.49,2.14.63.82.14,1.71.27,2.51.47s1.5.45,1.98.94c1.13,1.13,1.87,2.1,2.25,3.08s.43,1.98.1,3.29c-.34,1.37-3.43,5.15-4.07,6.42-1.55,3.1-2.35,4.08-4.07,5.8-1.74,1.74-2.84,3.24-4.65,4.6-1,.75-1.53,1.6-1.93,2.56-.4.96-.64,2.04-.94,3.24-.32,1.26-.34,2.8-.26,4.34.08,1.53.26,3.08.26,4.39,0,.57-.72,1.6-1.51,2.61s-1.69,2.03-1.98,2.61c-.91,1.82-2.83,3.46-4.02,4.65-1.05,1.05-1.71,1.61-2.56,1.93s-1.89.37-3.81.37h-9.87c-1.39,0-2.52.39-3.45.94-.93.55-1.65,1.23-2.35,1.93-.36.36-.61,1-.73,1.72-.12.73-.12,1.58-.1,2.45.04,1.74.26,3.53.26,4.54,0,.69-.21,1.23-.57,1.62s-.86.63-1.41.84c-1.1.42-2.41.63-3.24,1.04-.48.24-.79.68-.99,1.25-.2.58-.29,1.24-.31,1.98-.05,1.48.16,3.15.16,4.28,0,.88-3.67,5.07-4.65,6.37-.9,1.2-1.85,1.7-2.45,2.3-.3.3-.48.64-.57,1.1-.09.45-.1,1.02.1,1.83.19.77.09,1.56-.16,2.35-.25.79-.64,1.59-.99,2.3-.32.65-.86.88-1.51.89-.66.01-1.42-.19-2.25-.47-.83-.28-1.71-.61-2.56-.84s-1.65-.33-2.35-.16c-1.96.49-3.18.51-4.07.84-.89.33-1.51.93-2.35,2.61-1.21,2.42-2.55,4.32-4.02,5.8-.59.59-1.08,1.75-1.46,2.98-.38,1.23-.67,2.52-.89,3.39-.15.59-.37.67-.68.37-.31-.3-.68-.98-1.04-1.78-.72-1.59-1.43-3.79-1.72-4.96-.2-.78-.23-1.51-.1-2.19.12-.68.36-1.3.68-1.88.64-1.17,1.57-2.14,2.3-2.87.39-.39.39-.79.16-1.2s-.66-.82-1.2-1.25c-1.09-.86-2.48-1.78-2.98-2.77-.31-.61-.73-1.08-1.2-1.41-.47-.33-1.02-.54-1.62-.68-1.2-.27-2.63-.21-4.18-.21-1.89,0-2.93.39-3.86.89-.94.5-1.75,1.08-3.08,1.41-1.83.46-3.16.33-4.23-.16-1.07-.48-1.88-1.3-2.72-2.14-1.67-1.67-2.7-4.42-4.07-5.8-1.93-1.93-3.64-2.49-5.22-4.07-.38-.38-.5-.99-.47-1.72.03-.73.19-1.59.42-2.4.46-1.62,1.18-3.11,1.25-3.39.11-.44,1.9-1.3,3.71-2.04,1.81-.74,3.62-1.37,3.81-1.46.28-.14.28-2.05.21-4.07s-.21-4.13-.21-4.6c0-1.1-.13-1.89-.37-2.4-.24-.51-.6-.78-.99-.84-.79-.11-1.81.56-2.72,1.46-1.77,1.77-3.15,2.58-4.65,4.07-.6.6-1.04,1.76-1.41,2.98-.37,1.22-.66,2.5-.89,3.39-.5,2.01-.46,3.04-.89,3.55-.43.51-1.33.52-3.76.52-.77,0-1.15.01-1.25.1-.11.09.06.23.37.42.62.38,1.8.97,2.61,1.78.55.55.65,1.17.47,1.78s-.61,1.22-1.15,1.78c-1.08,1.11-2.5,1.98-2.77,2.25-.3.3-1.11-.91-1.88-2.25-.77-1.33-1.53-2.79-1.62-2.98-1.06-2.13-1.66-3.82-2.3-6.37-.28-1.12-.93-2.09-1.62-3.03s-1.43-1.86-1.88-2.77c-.45-.9-.66-1.66-.68-2.3-.02-.64.14-1.13.42-1.57.56-.88,1.63-1.44,2.61-1.93,1.62-.81,2.38-1.26,2.66-1.93.28-.67.07-1.56-.37-3.29-.23-.92-1.22-1.64-2.3-2.19s-2.27-.92-2.92-1.25c-1.07-.53-2.1-1.44-3.08-2.4s-1.9-2-2.72-2.82c-1.09-1.09-2.04-1.47-2.98-1.46s-1.87.41-2.82.89c-2.4,1.2-4.49,1.93-6.37,2.87-2.26,1.13-4.19,1.83-6.37,2.92-1.41.7-2.01,1.09-2.45,1.25s-.76.11-1.62-.1c-.64.32-1.02.07-1.25-.47s-.29-1.38-.37-2.35c-.07-.97-.15-2.02-.31-2.98-.17-.96-.43-1.84-.94-2.35-.83-.83-1.5-1.21-1.98-1.25-.48-.05-.82.26-1.04.73-.45.94-.47,2.63-.47,4.02,0,.55-.22.99-.63,1.31-.41.32-.98.53-1.62.68-1.29.31-2.89.31-4.13.31-1.34,0-2.15-.17-2.61-.52-.36-.27-.37-.69-.37-1.1Z"/>
</svg>