<?xml version="1.0" encoding="UTF-8"?>
<svg id="Jalisco" xmlns="http://www.w3.org/2000/svg" viewBox="0 0 1187 847">
  <defs>
    <style>
      .cls-1 {
        fill: #c4f5ee;
        stroke: #000;
        stroke-miterlimit: 15.12;
        stroke-width: .25px;
      }
    </style>
  </defs>
  <path id="mu_x5F_001" class="cls-1" d="M736.46,463.28l-2.06-3.71-5.56-1.65-.21-3.3-2.06,1.03v-3.09l-6.59,4.74.21-4.95-2.88-1.65.21-3.3-3.3-1.85-.21,1.85-1.85-1.03,1.44-2.88-3.92-1.03,3.3-1.85v-4.74s2.88-3.71,2.88-3.71l2.88,1.44,2.88-1.44.41-2.47,2.88-2.88,1.44-.21,1.65-2.06,4.74-.41,1.85-1.65,6.59-.82,3.92-4.53h3.5l2.47,5.15,3.09.82-1.03,3.5h4.53l-1.44,1.85,1.85,5.77-1.65,1.03,2.27,2.06-2.47.21.82,6.59-2.27-.21-.82,5.56,1.85,1.65-.21,2.68-18.75,2.88,2.88,3.3-3.3,3.3Z"/>
  <path id="mu_x5F_002" class="cls-1" d="M591.19,532.31l.41-10.3-1.85.62-1.03-4.95,1.65-3.71-4.12,1.85-1.65-2.06-4.95-2.06-1.65-3.3v-3.3l-1.24-.82v-7.83s4.12.21,4.12.21l2.27-1.24,6.18,4.95,2.88-1.44,4.12,2.06,5.56,4.74,2.27,7.83,2.88,3.71-1.85,3.09,1.65,1.85-1.65,1.44,1.24,5.77-5.36,2.27-2.68-2.06-2.68-.21.41,3.5-4.95-.62Z"/>
  <path id="mu_x5F_003" class="cls-1" d="M531.63,428.66l8.04,5.15h7.62l3.3-2.88,2.27.21,3.3,2.06.21,2.06-7.62,7.83h-2.68l-1.24,2.47,1.44,1.65-2.27,3.3-1.85.41-1.03,3.92-5.77-8.65-3.92,4.53-1.85,4.33,2.06,2.47-.41,4.95,4.53,4.33-6.59-.82-4.53.21-1.85,3.09-4.74.21-1.65,2.27-7.83-2.68-7.83-7.83.21-5.15,5.56-10.92,2.27,1.44h2.68l2.27,2.47,3.71-.41,3.5-3.71-.21-3.09,1.65-1.44,2.47.21-.21-2.88,3.09-1.44.21-2.47,3.71-5.15Z"/>
  <path id="mu_x5F_004" class="cls-1" d="M579.44,619.89l2.68-2.68-1.24-2.47-2.06,1.65-2.06-1.03,1.24-2.88-.41-7.42,3.71-6.8-1.03-2.27,1.44-2.27,2.68.82h2.68l1.24-2.47,3.5-.62,4.53,5.77,1.24-1.85,5.56,1.65,2.27,3.09-5.77,2.68-4.33,8.45-4.53,3.92.82,5.77-.62,4.95-8.04-6.18-3.5.21Z"/>
  <path id="mu_x5F_005" class="cls-1" d="M584.18,408.88l4.12,4.74-.21,3.09-3.71,7.42.82,3.5h-2.06l-1.44,1.85-1.65.21-4.33-3.5-1.24,1.65-.41,5.15-2.27,1.65-.21,2.06-4.95,2.68-.21-3.09-10.1-1.03-.21-2.06,3.5-14.01,1.44-1.85,1.65-.41,1.24-2.27-3.3-2.27-.21-4.53,3.09-4.33,1.44,2.27h3.3l1.03-1.44,3.3,3.71,2.47-1.24,4.53,3.09,4.53-1.03Z"/>
  <path id="mu_x5F_006" class="cls-1" d="M462.4,454l2.68-.82,3.09,3.71-.62,1.65,1.44,2.47h3.09l1.85-1.24,2.47,2.47,4.95.62,4.74,1.03.82-2.27,4.74,4.53h2.47l2.47-4.74,2.47,2.06,1.65-2.27,7.83,7.83,7.83,2.68,1.65-2.27,4.74-.21,1.85-3.09,4.53-.21,4.12,3.5v2.27l2.27,3.5,2.47-.21-1.65,4.74,4.95.41-6.59,4.74,2.68,2.47-2.06,2.68-4.74.62-3.3,2.27,1.44,4.12-4.53,2.06-.82,4.95-1.24,1.44-4.95-6.39-.62,3.3-2.88-.41.21,4.53-2.47,7.83,3.3,2.47-1.65,2.47-5.77,1.44-3.5-2.47-3.09,1.65-1.44,2.27-4.53.41-3.5-7.21-5.15-3.3h-2.88l-1.85-1.44.62-1.65,1.65-.82,1.85-2.68-3.71,1.65-.82-2.06-2.68-.41-.62-2.47-2.47-.62-1.24,4.33-4.12-3.92-2.27-.62-4.95-5.36-1.44-4.12,1.03-2.88,1.65-.62-3.5-1.03,2.06-1.03-4.74-3.92v-1.24l1.65-1.03.41-2.06,3.71-3.71-2.68-1.65-.21-6.39-1.65-1.65.41-2.27,5.15-2.06-2.88-1.85-1.03-2.88,1.85-1.65Z"/>
  <path id="mu_x5F_007" class="cls-1" d="M494.54,411.76l2.68-3.92,3.3-1.44,5.77.21.82,1.65-1.44,2.06,3.3.21v10.3h6.8l3.71,3.3.41,2.88,4.74-2.47,1.44-3.09,2.68,1.03-.82,3.3,3.71,2.88-3.71,5.15-.21,2.47-3.09,1.44.21,2.88-2.47-.21-1.65,1.44.21,3.09-3.5,3.71-3.71.41-2.27-2.47h-2.68l-2.27-1.44,2.88-4.33-2.27-2.27-3.92,2.47-2.47-1.44,2.27-2.27-2.06-2.68-2.27-.62,1.24-5.98-1.44-.21-1.03-1.44,1.85-2.06.21-3.5,1.85-.21-3.5-1.85-.62-1.85,1.65-1.24-.41-3.71-2.68,3.5-1.24-3.71Z"/>
  <path id="mu_x5F_008" class="cls-1" d="M811.47,463.07l-1.03-6.39,1.65-2.06,3.3,5.56,6.39,1.85,5.36-1.03,7.62-24.52-.82-9.48-2.68.21-2.27,2.27-2.88-3.5-.62-2.88h2.88l1.03-4.33,4.95.41,3.09-5.15,2.88,1.85,5.15-.21,1.85-2.06,2.88.82,1.85,1.85,1.03-1.85,8.04.82,3.3-3.09,3.09,1.65.21,1.65h7.21v-3.92l3.09-2.47,5.36,2.27,6.8-1.65,2.88,2.88-2.06,4.12,1.85,1.24,6.39-1.24,3.09,2.06h3.09l1.24-2.68,4.33-1.24,2.06,3.5-2.27,3.71,1.65,1.24-1.65,2.06-2.68.21-1.03,1.65.82,4.53-2.47,2.06-1.44,3.3,1.24,1.44-2.06,4.53-.82-3.92-2.68-2.88-2.88-.21-2.68,3.5-3.3-.41-1.24,2.06,1.24,2.88-5.36.82-1.65,1.85,1.03,3.71-3.09.41-1.44,3.71-2.47-.82-3.3,5.15-2.68.21-2.27,2.68,1.65,3.3,2.06.21.21,3.09-4.12.82-4.12,4.74.21,3.5-3.92.21-1.03-1.65-5.15,2.27-2.06-.41-2.06-3.3-3.3.41-2.88,2.68-4.95-.41-2.68,2.47-2.47-.21-1.44-1.03.21-3.71h2.27l1.65-2.68-1.85-4.53-6.39-3.5-2.68.82-4.74-1.44-3.71,3.5-6.8-3.92Z"/>
  <path id="mu_x5F_009" class="cls-1" d="M585.21,427.63l1.44,3.71-3.71,1.65-1.24,7.21,3.3-1.44-.41,2.88,3.71.82,2.27-3.92,2.27.62,1.44,5.15-3.5,4.12.82,3.09-1.03,3.3-3.09-.82.21-4.74-11.13,3.92.62-4.95-3.09,1.24-7.01-1.44-1.44-2.68-3.09-.41v-4.33l1.65-2.06,2.47.82,4.95-2.68.21-2.06,2.27-1.65.41-5.15,1.24-1.65,4.33,3.5,1.65-.21,1.44-1.85h2.06Z"/>
  <path id="mu_x5F_010" class="cls-1" d="M544.62,561.36l1.65-2.88-3.09-1.85,2.06-1.65-1.24-4.12-3.09-1.85,4.74-2.47-1.24-4.12,1.65-2.06,2.47.41-.62,2.47,2.47,4.53.82-2.47,3.92.62,1.24,2.68,1.85-2.06,2.47.82,3.71.21.41,2.88,2.27,2.47,5.36,3.92,1.65-1.85h2.68l1.85-2.06,3.5,2.06-.82,2.88-.21,4.95,1.24,1.24-.41,4.53,3.5.41.82,2.47,3.71,1.85,3.09-2.68.41,3.71,2.68,2.88-1.24,3.09-1.85-1.65-.41,5.15-1.65-.82-3.3,4.53h-2.68l-2.27.41-1.85-1.44-1.65,1.44-2.88-1.85-4.12,1.85-2.47-2.06-4.95,2.68-2.06,3.92-3.3-.21v-2.06l-2.27-4.33,1.65-3.3,5.15-1.85-3.3-.21-1.44-1.24-.62-3.5-1.44-2.27-1.24,1.85-5.98-1.24-1.85-1.85.21-2.47-1.44-.82,1.44-3.92-3.71-3.71Z"/>
  <path id="mu_x5F_011" class="cls-1" d="M437.88,553.95l-3.5-8.86h-3.09l1.03-1.65-1.24-2.47-3.09-.62v-2.88l2.68.82,2.06-.62-3.09-4.12,2.47.21v-2.27l-2.27-1.03,2.06-2.06-.21-2.68.62-2.88,6.18-1.24,5.98,1.24,1.03-1.85-.21-3.92,2.47-5.15,4.12.41,4.74,2.06,2.06-4.12,2.27-1.03,2.88,3.92,3.71-.82,2.06-1.65,2.88,2.06.41,6.8,2.06,1.65-2.27,3.5,3.71-.21,3.09,2.68-1.03,5.56-.41,5.98,1.44,1.85-4.74,3.09-1.44,8.86-1.85-2.06-9.27,7.42-9.07,1.24-2.47-4.33-6.39-1.03-1.44-2.47h-2.88l-2.06,2.68Z"/>
  <path id="mu_x5F_012" class="cls-1" d="M367.2,557.24l-2.88-2.27,1.24-4.33-2.27-4.12,2.68-2.06,4.53-2.27,1.85,1.24.41-3.3,5.56-3.3,3.5,1.24-.82-8.65,2.27-.41-.21-3.09,2.27-1.24,2.27-1.65-.82-4.74-6.59-5.77h3.71l1.03-3.09,3.3-.62-2.68-1.65-.21-4.95,1.24-1.85,6.59.41.62,1.65,1.24,1.24,2.47.62,1.85-3.09-2.88-3.09.62-1.85,3.3.21,3.3-1.85,2.27-3.3h2.27l1.44,1.65,3.71-1.65,1.65,2.47-1.65,1.65-.21,1.44,1.85,2.47-.82,1.65,2.88,1.85-3.3,2.88,4.12,2.68-1.85,1.85,2.27.41,1.85-.62,1.03,1.03-4.12,3.09.41,1.65,5.77,2.27,2.68,5.36-.41,3.09-2.68,1.85,1.65,2.06h5.36l2.27,1.03v2.27l-2.47-.21,3.09,4.12-2.06.62-2.68-.82v2.88l-2.27,3.92-4.74-.41-2.27,2.06.41,2.27-4.12.41-5.36-.41-1.24-2.47-2.06-.62-1.03,2.88-3.5-5.56,1.24-1.85-2.68-3.3-5.98,5.56.21,2.88-1.03,2.27-3.09-.41-.41,2.47,2.27,2.88-1.65,3.3-3.09.21v2.88l.82,2.68-3.92,1.24-1.24,2.47-3.71,1.24-2.68-.21v-2.06l-2.06-2.06-2.27,1.85-5.36-7.21Z"/>
  <path id="mu_x5F_013" class="cls-1" d="M784.89,502.64l-3.09-2.47,1.44-1.44.62-4.53,7.01-2.68,2.88,2.27,2.88-5.36h-3.71l2.27-5.36-3.5-1.65-5.36-.41-.21-3.71,2.27.21,1.65-2.27,9.89-5.36-.21-2.06,6.18-3.09,2.06,4.33,1.24-4.95,2.27-1.03,6.8,3.92,3.71-3.5,4.74,1.44,2.68-.82,6.39,3.5,1.85,4.53-1.65,2.68h-2.27l-.21,3.71,1.44,1.03,2.47.21-1.03,8.24,2.47,1.03-1.65,4.95-4.12,4.33-.21,3.71-3.71-.62-1.24,2.27,4.53,2.88.41,2.88-3.09.62.21,2.68-5.36-1.44-.41-2.47-11.75.82-5.56-1.65-3.09,7.83-3.09,1.24-2.68-1.85,3.3-4.95-1.24-2.27-2.88.41-2.06-2.88-4.12,2.27-3.92-5.56-2.27.41Z"/>
  <path id="mu_x5F_014" class="cls-1" d="M614.27,628.54l-.21-2.88-2.47-.21-.41-3.5-2.27.21-.41-5.15-5.36,4.95-2.27-.21-1.65,3.92,1.24,1.24-1.03,2.68-2.06-.21v-2.88l-3.5-.62-2.27-4.95-.82-5.77,4.53-3.92,4.33-8.45,5.77-2.68-2.27-3.09,2.06-3.3,1.03-7.21-1.03-5.77,1.03-2.68,3.3-1.24,12.36,3.5-.41,1.65h-2.47l-.21,1.65-3.92,2.68.41,1.85,3.5,1.03.82,2.27,1.85.21,1.65-3.3v-2.68l4.53,1.65,4.33,2.88,1.44,3.5,4.74-.62.21,4.95,5.15,4.95,3.5.82,3.3-1.24,1.85,1.85.41,2.47,1.85-.21,1.65,2.06v2.68l-3.71-.21-3.5,1.44-.21,2.88-7.01.41-3.09,3.3,1.65,3.09-3.09-.82-3.3-2.47-2.68,2.47-2.88-1.24-.62,2.88,2.27,1.85-1.65,2.68,1.03,3.92-2.47,1.03-2.27-3.3-.62,1.44-9.68-2.27Z"/>
  <path id="mu_x5F_015" class="cls-1" d="M475.17,679.44l-4.33,7.42-3.5.41.62,1.44-.82,3.09-3.71,2.06-.82-2.06-3.09.62-5.15,1.85-4.95-1.65-3.3-2.68-3.3.82-1.85-.82-3.09,1.24-.41-3.5-5.56-.21-3.3-2.27,4.33-2.06-1.85-4.53.62-4.12,2.68-2.68-4.33-1.85-.62-3.09-1.24-1.24,2.47-.62.41-2.06,2.68-1.24-.21-2.06-2.47.21-4.74,2.68-4.12-2.88.21-3.3h-6.18l-1.44-3.71-2.06-.21-.62-5.77,2.47-4.95,5.36.21-3.5-4.33,3.92-9.07,2.68.21.82-5.15,1.65-2.27,3.71-.41,3.3,1.44,2.47-2.27,1.44,1.24-1.65,3.71h1.85l1.03,3.09h2.06l-.21,1.44,2.27-.41.21,2.06,1.65-.21,1.44,1.44,2.06-.41.62,2.27,2.27.82,1.44,1.85v3.09l1.85,3.09,3.5-1.24,3.3,1.24.82,3.92,2.47,3.3v2.88l1.85.82.82,2.88,3.71,1.65,2.88,2.68,4.33,1.03.21,3.71,1.24,2.47,1.44.41.62,1.44-2.06,1.24.82,1.03h1.85l-5.98,6.8Z"/>
  <path id="mu_x5F_016" class="cls-1" d="M830.02,512.73l-.21-2.68,3.09-.62-.41-2.88-4.53-2.88,1.24-2.27,3.71.62.21-3.71,4.12-4.33,1.65-4.95-2.47-1.03,1.03-8.24,2.68-2.47,4.95.41,2.88-2.68,3.3-.41,2.06,3.3,2.06.41,5.15-2.27,1.03,1.65,3.92-.21,1.85,2.88,4.33-2.68-2.68,4.74h2.47v1.85h1.65l.62,1.65-1.24,1.44.82,2.47,2.27,1.03-.41,2.27,1.85.41-.62,2.88h1.85l-.41,3.92-5.15,1.03-3.5,2.06-.82,2.27-3.92.21-3.5,2.47-1.44,5.15,4.74,15.25,15.04,1.85-3.3,2.27-5.36,1.44h-2.68l-1.65-2.06-1.85,1.65-.82-2.68-2.88-1.44-1.85,3.3-2.06-1.85-4.33,3.5-.62-1.85,1.85-2.47-1.03-5.15-7.83.62-1.03-5.56-3.92-1.44v-2.27l-6.8-4.33-3.09.41Z"/>
  <path id="mu_x5F_017" class="cls-1" d="M381.62,594.75l1.85-4.33-2.27-2.88-5.98-1.65,4.33-3.71-.21-1.65-2.68-1.03-4.12-3.71,2.06-1.65,4.74,4.74,3.3.41,3.09-3.09-1.24-1.44,2.06-1.85,3.71,3.3,3.5-.41,1.85-3.5,4.33.62v1.65l3.09,2.27h2.47l1.44-1.85-2.06-3.3,2.47-.41,4.33,4.95,2.68-.41,2.68,1.65,1.03-2.06,2.27,1.03.82-2.68,3.09,4.12,3.5,1.44-.82-3.5,3.71.82,1.65-.41-.41-3.3-3.3-5.15,1.24-4.12-1.65-2.88,3.71-1.24,1.44,1.85,2.27.21-.21-5.36,2.47-2.27,2.06-2.68h2.88l1.44,2.47,6.39,1.03,2.47,4.33-5.15-.41-2.47,2.68,2.68.82,3.5-.82-2.47,2.88v2.06l2.27,2.27,5.36-3.92v2.88l7.01-3.3.62-1.24,4.12-.21,2.47,2.47-.62,1.44-1.65,5.98v2.88s-3.71,3.3-3.71,3.3l-1.85.62-1.85-3.3-4.12,2.27-2.06.21.41,3.5,1.44,3.09-4.53-2.06-1.44,1.65-3.09,1.03.21,2.27,1.44,1.44-.82,2.06-2.06-1.24v2.27l-1.44,2.06-2.88-3.92-1.24,2.47,3.92,5.36-.41,6.18-3.09.82-1.85-2.68-.62,3.09-1.65.21-1.65,1.24-.41,1.85-2.06-.21.62,3.5-1.24,2.88.62,3.09,1.65,1.44-2.47,2.27-3.3-1.44-3.71.41-1.65,2.27-.82,5.15-2.68-.21-3.92,9.07-4.74-3.71-1.44.21-1.85,3.09-1.65,1.44-4.53-3.3.21-1.44.62-1.65-1.85-1.24-1.65-4.12-1.24-.62,1.44-5.56-1.65-3.09,2.06-.82-1.44-1.65.41-4.74-1.24-1.85h-2.47l-2.68-2.88.41-3.09,1.85-1.65-3.92-3.09-1.85,1.85-3.71,1.03-1.44-2.06v-4.33l-2.47.41Z"/>
  <path id="mu_x5F_018" class="cls-1" d="M797.66,548.59l1.65-4.95h-12.98l.62-3.09,5.36.62,2.27-.82-2.06-1.85-4.53.21-.82-2.27,3.09-1.65-2.68-2.47-.62-2.27,1.65-2.06-.62-1.85,10.1-10.92,2.68,1.85,3.09-1.24,3.09-7.83,5.56,1.65,11.75-.82.41,2.47,5.36,1.44,3.09-.41,6.8,4.33v2.27l3.92,1.44,1.03,5.56,7.83-.62,1.03,5.15-1.85,2.47.62,1.85-2.68-.82-.82,2.47-3.92-.62-1.85-1.65-1.44,1.85-1.44-.21-1.24-1.44-1.85,1.03-1.85-2.47-3.92.62-1.24,2.68-2.68-.62-3.71,1.65-.62,3.09-1.24.41-2.47-2.47-.41,3.09-3.71.62-1.03,1.24.41,1.03,2.06.41.41,1.85-2.27,2.06-1.24-.62-.62-1.44-1.44-.21-.62,1.24v2.27l-1.24,1.24-1.03-.62.41-2.27-1.24-1.24h-1.24v2.47l-2.88.21-1.24,1.24-4.95-2.27Z"/>
  <path id="mu_x5F_019" class="cls-1" d="M548.83,166.53l1.55,5.17-1.03,3.3-2.27-.21-.41,2.88,1.85,1.85,3.3.21-3.09,3.5,4.12.82,4.53-.41,1.44-3.71,1.44-2.47,1.65.21,4.53-3.09,5.77.41,2.06,1.85,3.3,1.03-.82,3.3,3.71.41.82,4.95-3.71,1.85-1.44,2.27,1.03,5.77-2.27,5.15,4.53,1.24,1.85,4.33-1.44,4.74-3.09-.21-3.3,2.68-8.65-2.47-2.27,3.5-2.47-1.85v-6.39l-4.74.82-1.85,2.68-4.95-.41-3.71,2.68,1.65,2.88-6.8,1.44-5.77.21-2.27,1.44-5.15-1.24-3.5,1.65-3.09-.41-1.85-2.27-14.63-2.88-3.92,2.47-2.27-.21-.62-2.47-3.09,1.44-3.92-.21-3.71-4.53-3.09-.21-5.98-8.45,4.53-4.74-2.88.21-3.49-5.45,4.4.44,3.96-2.2,1.32-4.4,2.2-.88,3.08,3.96,2.64-.44-.44,3.08,3.08-.44,3.08,1.32,1.32-3.96,3.52-2.2.88-5.28,2.64-1.76,7.03,5.71,2.64-1.32,3.96-3.08,3.96.88-.88,2.64,4.84.44,1.32-4.4,3.52,3.08-1.76-6.59,4.84-4.4-2.64-6.59h4.4l1.76-3.08-.44,3.96,1.76,2.2,7.91-1.76Z"/>
  <path id="mu_x5F_020" class="cls-1" d="M239.85,487.8v6.59l1.44,1.85,3.71-.41,1.24-1.44-2.27-3.3,1.03-2.27,5.36-.62,1.24,3.3-1.44,2.27,8.45.41,1.65,2.27h0l-2.47,3.71.41,5.98,3.09,7.21,6.18,3.92,5.98-.21,1.24,2.88h-3.3l-2.47,3.71-1.44,10.1,2.47,3.5-2.47,6.18-3.71,2.47.62,2.88,10.51,3.5,1.03,7.62-3.3-.82-6.39,5.15-7.42-1.03-5.56,3.3-1.85-2.27-1.24-6.8-5.15,3.92-3.5-2.27-8.04,3.92-3.71-.41-2.27-4.53v-4.12l-3.3-.21-.62-2.88-4.53,1.44-7.01-4.12-2.68-.21.41,4.33-4.12,2.88-7.83,3.92-4.74-.21-1.85-9.89-3.71-2.47h-1.85l-.82-3.92-13.81-13.39-4.12-7.01-2.27-4.95-.82-3.92-.62-4.53,1.85-1.03,3.09,1.44-.21-3.71,1.03-1.24,2.47.82.82-4.12h2.88l4.33-5.15,2.68-1.24,3.09.41,2.88-2.06,6.8-.62,4.12-1.44,6.8,1.03,3.71-1.65,5.56,2.68.21-2.88,9.07-1.85,7.42,1.85,8.04-2.27Z"/>
  <path id="mu_x5F_021" class="cls-1" d="M399.75,720.65l-4.95-8.65,4.74-4.53-2.68-4.33-2.47.62-4.74-3.71-1.24-2.47-4.12,2.88v-4.53l-2.47-1.44-.62-2.68,3.5-1.85,1.65-2.47-.82-4.74,2.68-2.47,5.98,4.12,1.85-1.85-.41-2.68,2.06-3.71,2.27-.82,2.47,3.71,1.24-1.44-1.85-4.95,2.68-2.06,6.39,3.5-.41-4.33,1.65-1.44-1.24-4.95,1.03-5.56,1.85-2.06-2.27-1.85,1.24-1.44,2.06.21,1.44,3.71h6.18l-.21,3.3,4.12,2.88,4.74-2.68,2.47-.21.21,2.06-2.68,1.24-.41,2.06-2.47.62,1.24,1.24.62,3.09,4.33,1.85-2.68,2.68-.62,4.12,1.85,4.53-4.33,2.06,3.3,2.27,5.56.21.41,3.5-2.88.41.82,3.3-2.47,4.33,2.47,1.24-5.15,5.36.41,2.88h-12.36l-1.65-.82-2.68,2.68h-2.47l1.65,4.74,2.68,1.85.21,4.33-2.68,1.24-9.07-.21-4.95-1.85Z"/>
  <path id="mu_x5F_022" class="cls-1" d="M345.97,768.46l-1.03-2.68,2.47.62v-2.68l4.12-5.15-4.12-1.44-2.27-3.92h-2.47l.41-2.68,4.12,2.27,2.68-3.3-1.44-2.06,3.09-1.44,7.21.62,3.92-3.3,5.56-2.06,1.03-2.68,3.92,1.24,1.03,2.68h3.3l-1.03,2.27-2.06-.21-.41,3.71,1.24,4.12,4.33,3.09,3.92-4.12,4.74-1.03,4.12-2.68,3.71.41,1.85-5.77,3.71,1.24,2.27-.41,1.85,2.27,2.06-.21.82-2.27,3.71-1.85-.41,2.88.41,1.24,2.47-.41-.21,2.47,2.06,4.53-.41,1.85,2.68,1.85-1.65,5.56.82,1.65-1.24,2.68h-3.09l-.82.82,1.24,1.65-2.47.41.41,1.85v1.65l-2.06.82-.62-2.47-1.65,2.06-1.24-.62.41-3.71-1.24-2.06-1.85.82-.62,1.65-1.44-.21-1.65-3.5-2.47.41-.62,1.65-3.92,3.09-1.24,2.27.21,2.06-2.06-.21-.41,2.06,1.03,2.06-1.44,1.24-.21,2.68-1.44,1.03-1.44-1.03-.82-1.24-1.85,1.65,1.24,2.68,1.65,1.03-.21,2.47-3.71-.21-1.85-2.06-.62-1.03.41-2.27-1.44-.82-1.44,1.85-4.74-2.47-4.95-.82-.41-1.85-1.65,2.68-1.03,2.68-2.27-2.06.82-1.65,1.03-.21.62-2.06,2.06-.82-.21-1.24-3.09-3.5-2.68-.82-1.24,1.65-3.5-.41v-1.44l1.03-2.88-2.27-.82-1.65,1.44-1.24-.62-.62,2.06-2.68.41-.41-2.68h-2.47Z"/>
  <path id="mu_x5F_023" class="cls-1" d="M607.67,686.86l-2.47-2.68h-4.53l1.85-2.47h-3.3l-1.65-4.33,1.85-2.47-5.15-2.68-4.95-2.68-.62-4.33,1.65-6.39-2.27-2.06,3.5-.82,4.53,1.65,1.44-2.27,7.21-.21h4.33s3.5,1.65,3.5,1.65l1.44,2.47,2.68-3.3,2.27-.41,2.47,1.65,1.44-2.27-.62-1.85,2.88-.41,1.24,1.65h1.65l.41,2.68,2.88-1.24,1.03,1.65-1.65,1.65.62,2.47,2.27,2.88-1.03,1.65,1.65,2.06-2.27,1.24-.21,2.88-2.47-.21-2.88,2.88-1.44-.21-5.77,6.8,1.24,6.8h-1.85l-2.27,2.47-5.98,1.44-1.85-2.68-2.27,1.85,1.44-4.53Z"/>
  <path id="mu_x5F_024" class="cls-1" d="M544.41,542.41l-2.88-2.88-3.09.62-2.68-1.44-2.68.62-1.65,2.68-3.3-2.47-1.03-2.47-2.06.62-2.47-2.68,3.3-1.24,1.44-3.5,3.71-.62-1.85-2.47,3.5-6.59.21,3.09,2.27.62-.62,2.27,7.21-.41,2.68-3.09-2.06-1.24.82-2.68-2.68-1.24-2.27,1.65-2.27-4.12,2.47-3.92-.82-8.04,2.88-3.3h2.06l-.21-2.88,2.47-1.03-1.24-2.27,2.68-3.92-.82-2.88,3.3-.82-1.03,2.68,2.06.82,1.85-1.03,3.09.21,2.88,1.85,2.27,1.24-.41,1.24-2.06.41-1.85,3.3,2.06,1.85-1.24,3.09,1.65,5.36h4.53l1.03,3.5-.62,1.24,1.03,1.24-1.85,2.06-1.24,4.53,3.3.41,1.65,6.39-2.47,4.33-2.47-.41v2.68l-1.44.21-.21,3.09h-2.06l3.5,10.72-2.47-.82-1.85,2.06-1.24-2.68-3.92-.62-.82,2.47-2.47-4.53.62-2.47-2.47-.41-1.65,2.06Z"/>
  <path id="mu_x5F_025" class="cls-1" d="M630.55,145.11l2.88-4.95-.21-5.36,1.03-3.5-2.27-2.27,3.3-.41,2.47-5.56,4.74.82.21-2.68,5.15-3.5,4.53-.82,4.53,3.09,3.3-4.74h3.3l-2.47,3.09v1.85l4.53,2.47-2.47,3.3,2.06,2.47-.62,2.88-2.06,2.27v3.71l4.12.21.62-3.3,6.39,1.03-.41,3.09-2.27,1.24,2.27,2.88,10.1-2.68,11.33,8.04-2.06,3.3-3.3.62-.41,2.88,3.5,1.85,5.98.41.21,4.95-1.65.62,1.03,5.15h-1.85l-3.09,3.09-2.06-1.44-4.53,2.27-6.59-.62-1.24,1.03,1.44,1.24,1.03,3.71-2.68,1.44-3.3-.41-5.15-2.68.21,2.47-5.56-1.24-.62-3.71-11.13,9.89h-2.88l-.21-3.3.82-1.65-2.06-1.24,2.47-3.09.21-2.27-6.18-1.24-.82-3.71-2.47,2.47-.21-3.09,2.68-.82-1.65-3.5,1.65-1.85-4.95-.82v-3.92l-1.85-1.44,1.65-2.06-3.71-3.5-3.09,1.03-1.65-3.5Z"/>
  <path id="mu_x5F_026" class="cls-1" d="M661.25,631.84l-1.65-3.3v-3.09l-4.95-4.74-2.88-2.06-3.09.41v-3.5s.21-2.88.21-2.88l3.5-1.44,3.71.21v-2.68l-1.65-2.06-1.85.21-.41-2.47-1.85-1.85,1.44-2.88-3.09-4.74,5.98,2.47.82,2.47,3.71,3.92,1.85-.82,1.24-7.01-2.47-3.3,3.09-2.47,4.33,1.44,3.92-1.85,4.95,1.03,2.27,2.06v2.06l1.65,1.24,1.85-1.65,3.5,6.59-3.3,2.06-3.3.41,3.09,1.85h2.27l-1.24,5.77,2.06,2.06-.62,3.71,2.06,5.15-3.71,2.47-.21,9.07-3.09-1.44-.41-6.39-7.62-4.74-3.09.82,1.24,2.68-.82,3.3-4.74,1.85-.21,3.71-2.47-1.65Z"/>
  <path id="mu_x5F_027" class="cls-1" d="M417.27,761.04l1.65-5.56-2.68-1.85.41-1.85-2.06-4.53.21-2.47-2.47.41-.41-1.24.41-2.88-3.71,1.85-.82,2.27-2.06.21-1.85-2.27-2.27.41-3.71-1.24-1.85,5.77-3.71-.41-4.12,2.68-4.74,1.03-3.92,4.12-4.33-3.09-1.24-4.12.41-3.71,2.06.21,1.03-2.27,1.85,2.47,1.03-5.36-2.47-1.03-1.03-3.3,4.12-4.33,5.77-.62,3.92,1.85,1.03-3.92-2.47-1.65v-4.53l7.42.62,3.09-2.06,4.95,1.85,9.07.21,2.68-1.24-.21-4.33-2.68-1.85-1.65-4.74h2.47l2.68-2.68,1.65.82h12.36l-.41-2.88,5.15-5.36-2.47-1.24,2.47-4.33-.82-3.3,2.88-.41,3.09-1.24,1.85.82,3.3-.82,3.3,2.68,4.95,1.65,5.15-1.85,3.09-.62.82,2.06,3.71-2.06.82-3.09-.62-1.44,3.5-.41,4.33-7.42,1.44,1.44-.62,3.09,1.44,2.27-.41,3.5,1.85,1.24,2.47.41,2.68,7.42,3.5.21.62,2.68,2.06,2.47,1.44-.21.62,2.27-1.85.82.41,1.24,2.47.41.41,3.09-.82,4.33,1.85.82-1.44,1.24-1.85,8.45,1.03,2.47,1.85-1.03-2.27,4.33-1.65,4.74-4.12,2.27-2.68,3.3.21,2.27-2.88.62,2.27,5.77v2.47l-2.06-.41-.62.82-2.27.82-1.65-1.03-1.44,2.47-1.65-.62-.62-1.65-1.85.41-.21,1.03-1.24.82-.41,2.68-3.09-2.47-3.09.82-4.74-2.68-3.3-.41-2.06,2.27h-2.68l-.82,1.03-1.85-1.44-1.03,1.03-2.47,1.24v2.68l-2.27.62-1.65-2.27-2.27-.82-2.27,2.68-1.44,2.27-1.24-.41-1.44-2.47-1.03.41-2.27,2.06-3.09.41.41-3.09,1.03-1.65-2.88.41-1.44,2.06-4.95-.41Z"/>
  <path id="mu_x5F_028" class="cls-1" d="M374.61,574.14l-.21-3.3-1.65-2.06-4.95,3.09-1.85-2.06-1.03-11.13,2.27-1.44,5.36,7.21,2.27-1.85,2.06,2.06v2.06l2.68.21,3.71-1.24,1.24-2.47,3.92-1.24-.82-2.68v-2.88l3.09-.21,1.65-3.3-2.27-2.88.41-2.47,3.09.41,1.03-2.27-.21-2.88,5.98-5.56,2.68,3.3-1.24,1.85,3.5,5.56,1.03-2.88,2.06.62,1.24,2.47,5.36.41,4.12-.41-.41-2.27,2.27-2.06,4.74.41,2.27-3.92,3.09.62,1.24,2.47-1.03,1.65h3.09l3.5,8.86-2.47,2.27.21,5.36-2.27-.21-1.44-1.85-3.71,1.24,1.65,2.88-1.24,4.12,3.3,5.15.41,3.3-1.65.41-3.71-.82.82,3.5-3.5-1.44-3.09-4.12-.82,2.68-2.27-1.03-1.03,2.06-2.68-1.65-2.68.41-4.33-4.95-2.47.41,2.06,3.3-1.44,1.85h-2.47l-3.09-2.27v-1.65l-4.33-.62-1.85,3.5-3.5.41-3.71-3.3-2.06,1.85,1.24,1.44-3.09,3.09-3.3-.41-2.27-2.06-2.47-2.68Z"/>
  <path id="mu_x5F_029" class="cls-1" d="M702.46,434.22l2.06-2.88-1.85-1.24.62-3.3-1.85-1.03-3.3-4.74-.41-4.74-3.92-2.06-3.92,1.85-2.68-3.09,1.24-4.74-1.65-3.5-5.98-1.44,2.27-2.68,4.53-1.65,4.33.21,2.68-1.44-3.09-2.27-.21-1.85,2.88.21.21-3.92-3.92-.62-2.47,3.3-1.65-1.24,1.44-2.27.62-3.92-.21-3.09,1.65-.82.82-2.68,1.24-.62,1.65-3.3,3.09.41,3.71.41,1.65-2.47,1.24-.21,3.92-4.95,1.85-1.85,2.47,2.27,4.74-2.47,3.09,1.24,1.03,2.27,5.36,1.03,1.24,1.85-1.85,1.65,1.03,2.47,3.3,4.53,4.74,2.06,3.92,1.85-1.24,3.3,3.3.82,3.92-1.65.21,2.06-1.85.62-4.95,5.36.62,5.36-2.06,3.09-2.68-.21-3.3,6.8.62,2.06,2.06,1.03-2.06,1.03-.62,2.68,4.53,3.09v2.27l-1.85,1.65-4.74.41-1.65,2.06-1.44.21-2.88,2.88-.41,2.47-2.88,1.44-2.88-1.44-2.88,3.71-.82-2.27-9.68.62Z"/>
  <path id="mu_x5F_030" class="cls-1" d="M643.94,556.83l-5.77.21-3.92.62-3.5-2.27.41-8.86,1.65-2.88,5.77-1.24,7.42,1.03,2.68,2.06,2.88-1.85,4.12.21.21-8.24,1.65-.21,1.65-1.44,3.09-2.06,6.18.62,6.39,3.09,5.15.21.21-2.06,5.15-.41v-2.06l2.68,2.06,4.53-4.74-.62-5.98-2.68-.82,3.09-1.85,4.53-.62,2.47,1.44,1.03,2.47,4.33,1.44-2.06,3.71-2.88-.21-.82,2.47h-3.09l-2.27,3.5,1.03,2.47h4.53l2.68-2.88,4.95,1.03,3.71-.82,2.68,10.1-3.3,23.08-4.12.41-3.92,4.74-2.88.21-1.24-1.65-3.71,1.03-2.06-1.65h-3.5l-2.68,2.06-3.5,1.85-2.47-1.65-3.3-4.12-3.09.41-1.03-2.06h-4.12l-4.33-3.09-8.86.41-3.71-3.5-6.8-1.24-.62-2.47Z"/>
  <path id="mu_x5F_031" class="cls-1" d="M603.14,213.12l1.03,3.71,4.74,3.5,2.88-.62,4.33,6.39-.41,6.39-3.71,3.71.21,4.12-2.88,2.88-2.88,6.18,1.65,10.72-2.68,2.27-6.18-2.88-1.44,2.68v3.92l-5.15.41-.21-1.85-1.65-2.27h-3.3l-3.09,2.68.82,1.44-5.77-.21-1.65-3.5-2.88-5.15,5.15-2.06v-2.68l-3.92-5.36,2.47-5.77,1.65,1.44,1.65-3.5,2.27-.41,3.92-8.65-4.33,2.06-1.44-.41-1.65,2.27-3.92,2.06-1.65-3.09-3.5-1.65-.21-1.44-4.74-.82-3.71,1.03-2.88-2.68-2.47-.62-1.24,1.65-2.68-2.68h-3.3l-1.85,1.44-2.68-3.09h-1.85l-2.68-2.06v-3.3l-1.65-2.06,6.8-1.44-1.65-2.88,3.71-2.68,4.95.41,1.85-2.68,4.74-.82v6.39l2.47,1.85,2.27-3.5,8.65,2.47,3.3-2.68,3.09.21,1.44-4.74-1.85-4.33-4.53-1.24,2.27-5.15-1.03-5.77,1.44-2.27,3.71-1.85,5.77.41.41,4.53-1.44,2.68,2.47,4.33,3.3-2.06,1.65,2.27-1.03,7.01,3.5,4.74,2.06-.62,1.24,2.27,3.92,1.03Z"/>
  <path id="mu_x5F_032" class="cls-1" d="M522.36,581.97l1.24-4.12,1.85,2.06,2.27-9.48,5.15.41,5.36-3.92,4.95-1.24,1.44-4.33,3.71,3.71-1.44,3.92,1.44.82-.21,2.47,1.85,1.85,5.98,1.24,1.24-1.85,1.44,2.27.62,3.5,1.44,1.24,3.3.21-5.15,1.85-1.65,3.3h-3.5s-1.85,1.65-1.85,1.65l.21,2.27h-2.68l-2.06,2.06-2.88-.41-.82,1.24,2.06,1.85-1.65,1.03-.41,2.88,4.12,3.92-1.44,2.47h-3.71l-2.06-2.88-3.71-.21-3.3,3.71-1.03-1.24-1.24,2.68-4.33,2.06-.62,3.3-7.21,2.27,2.47-5.98-1.85-1.03v-6.18h-4.33l-1.65-1.65,1.03-2.88-.62-1.85,4.33-3.5.21-5.15,3.71-1.85v-2.47Z"/>
  <path id="mu_x5F_033" class="cls-1" d="M879.26,530.66l-15.04-1.85-4.74-15.25,1.44-5.15,3.5-2.47,3.92-.21.82-2.27,3.5-2.06,5.15-1.03.41-3.92,2.68-3.09,4.33-1.65,6.39,3.09,4.33-2.47,3.71,1.24,3.09-2.47.21-4.33,3.92-2.47v1.85l-2.68,2.88,1.44,3.71,7.01-2.47.41-3.09h1.65l1.65,2.06,1.24-1.44,2.68-.21.82,2.06,1.24,2.27-2.06,2.47-.62,2.27-1.65.41v2.06l-3.71,2.68.62,2.88-.41,4.12-1.85.21-3.5,4.33-1.24,3.3,1.65,2.06h-2.27l-1.65,3.5-1.65.41-.62,1.85-1.85,1.24-1.24-1.03-1.03,1.24-2.27-1.44-.41,1.44-4.74-1.65-2.68.62,2.27,1.65v1.44l-3.09-1.03-1.65.82,1.65,1.85-4.53,1.85-2.47-2.06-2.06,1.24Z"/>
  <path id="mu_x5F_034" class="cls-1" d="M474.35,636.16l-5.77-2.27-3.09.41-4.53-2.27,1.65-2.27,3.92-1.44,2.06-8.65,3.5.62,2.47-3.71-.21-2.47,3.09-1.65,2.27,1.44,2.47-.41.41-3.92,5.77.21,4.33-2.27,1.03,2.88,3.5.41,2.68,2.27,7.21-1.24,4.33-3.3,5.56.41,2.68-1.44,1.85,1.03-2.47,5.98h0l.41,3.3-1.65,3.09-1.85-.62-.62,2.47,2.06.62-2.47,4.95.41,4.12,1.65,1.44-.82,4.12-1.24-2.47-3.09-.21-4.33-2.06-1.03,3.71-2.47,2.27,1.65,2.27-1.85,4.74-2.88-.82-2.06-1.85-4.12-.41v-5.36h1.85l2.68-2.47-.62-1.44,2.68-2.88,2.68-1.44-2.27-1.65,2.47-3.5-1.85-3.5-1.65-.82-1.65,3.3-2.27.62-1.85,3.92,2.27,1.03-1.44,3.09-2.47-.21v1.85l-2.06-1.65-4.95,1.85h-8.24l-3.71,2.27Z"/>
  <path id="mu_x5F_035" class="cls-1" d="M838.05,300.07l-1.03-3.3-2.27-1.85,1.85-2.27,4.12-1.85-.62-4.74,1.44-4.74,4.33-2.06,3.3-3.92-1.03-2.27.41-3.92-.62-5.98-2.68-.21-1.03,3.3-2.88,1.85,1.24-5.77-2.06-1.24,2.06-6.59,2.27-.82-.62-4.53,1.24-1.24h2.68s.82,2.47.82,2.47l7.62,3.71,1.65-1.65,2.27.41,3.09-5.36-1.65-.62-.41-2.06,5.15-.21.82,2.68h7.62l2.47-1.24,2.27-8.04,7.21,2.06,1.65-4.53,1.24,1.65,4.53-1.03,1.44-3.71,2.27-.62.82-2.68,3.71-3.3,4.95,1.24.21-2.06,3.71,2.06,8.04-1.44-1.03,4.95,2.88.82.62,2.06,1.65,1.03,2.47-3.3,1.03,4.53,2.06-.21-.41,4.12-.62,5.98-2.88-2.06-1.44,2.88,5.56,5.98-4.33,2.88-.41,2.47,3.71,2.27-1.03,2.27-3.09,1.65-.21,2.27-3.3,8.86-2.47-1.03v5.36l-4.95-1.03.21,2.47-2.27,1.44,2.68,1.85-.41,2.68-1.24,2.47-6.59.62-1.24,2.06-3.92-1.03-2.68,2.68-1.85-.41-.82,1.85,2.68,1.65,1.44-.82.62,1.44-2.06,3.71-5.15,4.53-3.09.62-2.47-2.68-7.21,3.3.41-5.77-3.3,2.68-.41,2.68-2.27.62-3.3-3.92-4.33,3.3-9.07-.82-3.5-6.59-8.04,4.53-.21,1.85h-4.12v-3.5l-3.92-1.85Z"/>
  <path id="mu_x5F_036" class="cls-1" d="M484.03,412.38l10.51-.62,1.24,3.71,2.68-3.5.41,3.71-1.65,1.24.62,1.85,3.5,1.85-1.85.21-.21,3.5-1.85,2.06,1.03,1.44,1.44.21-1.24,5.98,2.27.62,2.06,2.68-2.27,2.27,2.47,1.44,3.92-2.47,2.27,2.27-2.88,4.33-5.56,10.92-.21,5.15-1.65,2.27-2.47-2.06-2.47,4.74h-2.47l-4.74-4.53-.82,2.27-4.74-1.03-4.95-.62-2.47-2.47-1.85,1.24h-3.09l-1.44-2.47.62-1.65-3.09-3.71-2.68.82-1.44-3.09,1.85-.82-.82-3.3,8.04-.62,2.47-2.06-1.03-1.65,1.03-1.65-1.65-3.92,1.65-3.5,13.19,3.3,1.44-1.24-2.06-1.44.62-4.95,2.68-1.65-3.92-1.03,1.44-1.44.82-4.74-2.88-1.85-2.06-.21-.62-2.88,2.88-2.89Z"/>
  <path id="mu_x5F_037" class="cls-1" d="M478.47,671.61l2.06-1.24-.62-1.44-1.44-.41-1.24-2.47-.21-3.71-4.33-1.03-2.88-2.68-3.71-1.65-.82-2.88-1.85-.82v-2.88l-2.47-3.3-.82-3.92-3.3-1.24-3.5,1.24-1.85-3.09v-3.09l-1.44-1.85,1.44-4.12-2.06-2.88,1.03-.82,4.33-.21,2.27,2.06.41-4.12,2.27,2.47,2.06.21.82,2.06-1.65,2.27,4.53,2.27,3.09-.41,5.77,2.27-.21,5.15-3.71,3.71,1.65,1.85,3.92-.21.82-1.65,2.88.21,2.27,1.65,2.47-1.85,2.06,1.44-3.09,3.5-.82,3.71,1.85,1.85,2.06,2.06-.21,2.47-1.65.62,1.44,1.03-.41,2.88,1.44,1.03-2.27,1.65,2.88,3.92-2.88,1.44-6.39-1.03Z"/>
  <path id="mu_x5F_038" class="cls-1" d="M386.98,402.94l5.36-2.88,3.71,1.24,4.33,3.09,1.44,2.88,1.65,2.27.41,2.47,1.85-.82,1.03,3.71,2.68,2.06.62,4.33,3.5,1.24v2.06l6.59,4.33,2.88-.41,2.47,4.53,1.85-1.85,4.12,3.92,3.92,4.95.21,2.88,2.27-.41,5.15,5.36,3.92,1.24,3.3,4.53,3.09.82.21,7.42,1.24,1.85-.21,4.53,6.18,5.15,2.68,1.65-3.71,3.71-.41,2.06-1.65,1.03v1.24l4.74,3.92-2.06,1.03,3.5,1.03-1.65.62-1.03,2.88,1.44,4.12-7.83-1.03v3.3l1.85,1.24-1.65,4.74-4.95-2.47-1.24-2.47-2.47.62-.41-2.27,1.65-1.44-1.65-1.65-3.71-.21.82-1.24-1.85-1.65-2.06,1.85-3.5-1.03-.82-1.85-3.09,1.44-3.3-.41,1.44-2.88-4.12,2.68h-2.47l-2.06-3.71-2.06.41-.82-.82,3.09-4.53-2.47.62-1.65-.82-.21-5.36h-1.65l-2.88-2.06v-1.44l-2.27-.21.62-3.92-2.47-2.06,1.03-1.65,3.3,1.03,1.24-4.95-7.83-3.09-.21-2.68.82-1.24-3.92-5.77v-3.09l-1.44-2.68.41-1.65-1.85-2.47-1.03-.21-.62-1.85-2.47-.21-.21-3.09-2.47-4.12,1.44-2.47-3.3-.62-.82-4.95,2.47-3.3-1.24-3.3-1.85-1.03,1.44-1.85-3.71-2.68-.62-7.21Z"/>
  <path id="mu_x5F_039" class="cls-1" d="M635.9,469.46l1.03-5.15-1.85-4.33,1.03-4.95-1.44-3.71,4.74.62,8.24-1.24,3.09-2.68v-3.71l3.09-1.03,6.18,2.68,1.03,2.47-.21,3.09,3.3,1.85-1.65,1.65.82,4.53-.62,5.98-2.68,2.06-7.21-1.85v3.5l-2.68.21v2.06l-2.47,2.68-2.06-2.47-2.47-.21-4.95,3.09-1.65-1.85,2.06-2.68-2.68-.62Z"/>
  <path id="mu_x5F_040" class="cls-1" d="M520.3,400.63l-.21-3.92-2.06-.21-5.98-10.72-2.68-.41-2.47,5.77-3.09.21-3.3,4.74-3.3,1.03-2.47-1.44-1.85.62,2.06,2.88-1.85.62-2.68-1.44-1.44,1.44h-3.09l-2.47-2.47-2.68,3.71-4.53-.82,2.27-3.71-2.47-.21-.82-2.47-1.44,3.92-1.65-2.27h-3.71l-3.5-2.88-.21-4.12.82-2.27,2.47,1.03-.41-2.68-3.92-3.71,4.33-5.15-2.68-.21-.82-1.85,1.03-2.27h1.65l2.47-3.09-.41-2.06-1.24-1.03,2.47-4.74v-2.88l-2.47-2.27.82-6.39,3.5-4.33h3.3l4.12.62,1.24,1.44,3.71-2.27,1.85,1.44,1.85-2.06,3.3,1.65.62-1.03,1.24-1.44,1.85,1.85.62-2.47,1.44-.21.21,3.3,1.65.82.21,5.15h2.68l5.36,6.39h4.53l1.65-1.24,9.68,10.72,2.27.21,2.27,2.47,3.3,1.03,3.3.62,2.06-2.68,6.59,2.47-.41,2.06-1.85,1.24.41,1.44-3.5.21-.21,1.65,1.85,1.44,2.06-.21-.21,5.36-1.85.21-1.65,1.85-1.03,4.12-4.95,3.92-3.5,1.24.21,2.06-3.09,3.3-5.15-.62Z"/>
  <path id="mu_x5F_041" class="cls-1" d="M660.22,115.23l-4.33-1.65,2.68-1.44-.62-3.09,1.85-3.71-1.03-1.85-4.74-.62-1.85,5.15-3.5,1.65,1.24-6.18-2.88-1.65,3.92-4.53-3.5-.21-1.24-1.85.41-5.98,2.88.41.41-2.47,1.85-.62h2.68l2.27-5.15,2.06,3.92,3.5-2.88.82-2.88,4.74,1.24,1.65,2.88,4.33,1.03,2.47-3.92,2.68,1.44,1.44,5.36,2.47-2.27,3.3,1.44.62,2.47-.62,4.33-4.12,4.12-3.71-.21-.41,4.95-1.65,2.68-.82,3.5,1.44,1.24,3.3-.82,1.65-3.5,15.45.82,3.5,1.03,2.27,1.65.41,4.12,1.24,1.65-1.44,3.09-2.27-.82-2.27,4.12-.62,2.27-2.88-.62-3.09,2.47-3.92.21-.21-4.95-3.09-1.24-1.85-5.15-2.47-1.44-4.95.82-1.44-2.27-4.12-1.85-3.09.62-3.5,5.15h-3.3Z"/>
  <path id="mu_x5F_042" class="cls-1" d="M539.6,10.03l4.4-2.2,4.84,1.76h3.52l2.2-1.32,1.76,1.76h5.71l3.08-1.76,1.32,3.08,2.64.88v3.52l-1.76,6.59v5.28l-2.64.44,1.76,3.96-2.2,3.96-9.67,3.52-.88,1.76-3.08,1.32h-1.76l-2.2,2.2,1.32,3.52-.88,1.32-3.52,1.32-.44,3.52,2.64,2.64-.44,3.96-.88,5.71-2.64-1.32-.44,4.84,1.76,2.2-3.08,1.32,3.52,2.64-1.32,1.76,2.64.88.44,2.64-3.96-.44-.44,2.64-2.64,2.2,1.32,3.08-3.08.44-.44,1.76-2.64,1.76.44,3.08-.88,1.32-5.28,1.32-1.32-1.76-4.4,5.71-6.15-7.03-1.76-6.15,3.08-4.4-.88-5.28h3.08l.88-2.2,2.2-3.52h2.64l.88-3.08,1.76-2.2,3.08-.88.88-2.64-.44-5.71-5.28-2.2-.44-1.32-2.64.44-5.71-4.4v-1.76l6.59-.44-5.71-4.4,3.52-4.4-.44-1.32-5.71-1.32-3.96-7.91,1.76-3.52h1.76v-3.96l-2.64-2.2-1.76,1.32-3.08-1.32,2.2-2.2-4.84-.44-.88-2.64,2.64-2.64,2.2.88-.88-2.64,2.64-2.2,3.96-2.64,6.15-1.32,4.84,1.76,5.71-1.32,5.71-.44,2.64,4.84Z"/>
  <path id="mu_x5F_043" class="cls-1" d="M257.78,677.79l6.39.62,1.24-3.71,4.95-.41.41-4.33-1.24-2.06,3.92-1.03-1.85-1.85,3.5-4.53h2.27l1.85,2.27,3.09-.62,2.27-3.09,4.95-.82,1.65-1.85,3.09-.41-.41-2.06,3.92-1.24,3.3,2.06v5.56h-1.24l-1.44,2.06v1.85l1.65,2.47,7.62,3.3.21-3.92,2.06.21,2.06,3.09,2.06-.82,5.98,2.68,7.62-5.15,1.85-.41,7.01,12.78,2.27,3.92,12.16-1.24,3.09,1.24-1.03,2.68,3.09,2.06,4.12-5.77,2.27,3.3,3.09.82,5.98-.62,8.65,3.09,2.06,2.06h2.47l-3.5,1.85.62,2.68,2.47,1.44v4.53l4.12-2.88,1.24,2.47,4.74,3.71,2.47-.62,2.68,4.33-4.74,4.53,4.95,8.65-3.09,2.06-7.42-.62v4.53l2.47,1.65-1.03,3.92-3.92-1.85-5.77.62-4.12,4.33,1.03,3.3,2.47,1.03-1.03,5.36-1.85-2.47h-3.3l-1.03-2.68-3.92-1.24-1.03,2.68-5.56,2.06-3.92,3.3-7.21-.62-3.09,1.44,1.44,2.06-2.68,3.3-4.12-2.27-.41,2.68h2.47l2.27,3.92,4.12,1.44-4.12,5.15v2.68l-2.47-.62,1.03,2.68-1.85.21-1.65,2.27-.21-1.24-1.03-.21-1.24.62-1.44,2.68v-2.47l1.65-1.85.21-3.71-.41-1.03,2.47-.21.21-1.65,1.24-1.85,1.24-.82-1.03-2.47-3.09-2.68-4.12-1.03-2.47.62-.21,2.88-1.03,1.03-2.68-1.24-2.68.62-.82,2.27-2.47-2.47-4.74-1.65-4.33-2.88-1.24.62-.41-1.44-8.65-7.21-3.71-4.53-4.53-2.68-3.09-2.06,1.44-1.85,1.24,1.03,1.44-2.27.21-3.5-2.47-2.06,1.03-1.65-4.12-3.71-5.77-3.71,1.65-.41,1.24-1.44-.62-2.47-1.44-.41,2.06-1.24-1.44-1.24-2.47.41-1.03-1.85.62-4.12-2.06,1.03-.62-1.85v-2.27l2.47,1.85-1.24-4.53.21-1.65-2.06-.82-.41-2.68-3.5-2.47-2.27-.82-1.85.82,1.24,3.3-2.88-.62-1.44-2.68.21-4.12-2.27.62v-2.06l-2.47-1.24-2.06-1.44-3.71.41.41-1.85-3.3-3.5Z"/>
  <path id="mu_x5F_044" class="cls-1" d="M659.19,533.96l-1.85-4.53,1.24-2.68-1.44-1.65-.41-3.92,1.44-1.65,5.36-4.12.82-5.56,1.85,3.09,2.88.62-2.27-5.98,6.18-.21-1.44-2.68,1.85-1.65,1.85-.21.62,2.88,3.09,2.06,5.15-.82,4.53,2.88-1.24,3.92,1.85,2.27,4.33,1.44-1.24,2.47-3.09,1.85,2.68.82.62,5.98-4.53,4.74-2.68-2.06v2.06l-5.15.41-.21,2.06-5.15-.21-6.39-3.09-6.18-.62-3.09,2.06Z"/>
  <path id="mu_x5F_045" class="cls-1" d="M661.04,448.44l-1.03-2.47-6.18-2.68,1.65-3.71v-2.88l-3.5-.82-.41-2.88-2.06-1.03,2.06-3.5-1.85-3.3,1.85-2.88-2.88-7.83-2.68-1.44.62-5.36-3.3-2.47-.82-2.47,3.5-2.68,2.88.41v-2.47l-3.5-1.85.41-5.36,3.71-2.27-.21-3.71-1.85-1.44-.21-3.3,1.03-1.85,1.24,1.65,1.44-2.68,5.98-.41,1.03-2.27,4.12,3.71,3.92-3.92-1.24-1.85,1.44-2.47h2.68l1.03,2.27,6.59-4.12,1.85,2.06,1.44.41.82,3.09h4.95l4.33,1.44,2.06,2.88-1.24.62-.82,2.68-1.65.82.21,3.09-.62,3.92-1.44,2.27,1.65,1.24,2.47-3.3,3.92.62-.21,3.92-2.88-.21.21,1.85,3.09,2.27-2.68,1.44-4.33-.21-4.53,1.65-2.27,2.68,5.98,1.44,1.65,3.5-1.24,4.74,2.68,3.09,3.92-1.85,3.92,2.06.41,4.74,3.3,4.74,1.85,1.03-.62,3.3,1.85,1.24-2.06,2.88-1.65,3.5.21,3.71-8.45-.21-2.27,1.85-2.27-.62-7.01,5.15-6.18.21-3.3,3.3-10.51-2.68Z"/>
  <path id="mu_x5F_046" class="cls-1" d="M811.06,372.81l.41-8.24-3.71,1.03-5.36-1.24.62-2.47,3.3.41-.41-3.5.62-2.27-1.65-1.65-4.33,2.68-1.65-1.85,1.03-3.92-1.85-.21-1.44-6.18,3.71-3.92,4.12.62,1.44-3.92-1.44-1.44,2.27-3.5-4.74.82-4.53-2.68-2.06-2.27,2.47-2.27.82-4.12,2.27,1.24,2.68-1.85,3.5,2.47,1.65-3.3,1.65.82-.82,1.85.62,2.06,2.47-1.85,2.47,1.44.21-2.68,1.44,1.24,8.24-5.77,3.09-2.68,3.09,2.47,4.74-.41-.62,3.09-4.53,3.71-.41,3.92,2.88,1.03.62-3.09,1.24,1.65,2.06.41.82,1.44-1.85,2.06,2.06,5.36-4.53,2.27,5.77,2.47-2.47,2.88,3.5-1.44,1.65,2.47-4.33,3.3,2.27.82-.21,4.12,3.09-.62,1.24,1.44,1.65-1.24,1.24,1.65,2.88-1.24,3.71,1.24,5.15,2.27.62,3.71-.82,4.53-2.27-.41-2.06,2.47-1.85-2.47-2.88,3.71-2.68-4.33-8.24,3.5-2.47-1.44-.62,2.06,1.65,2.47-4.53.82-2.06,2.27-8.65,1.24-1.03-4.53-4.74-.82-5.15,2.27Z"/>
  <path id="mu_x5F_047" class="cls-1" d="M782.21,560.95l-3.71.82-2.88-1.24h-6.39l3.3-16.9,1.03-2.88-2.68-1.03-1.03-1.85,3.92-5.15,11.13-3.71-1.24-3.71,4.33.82.62,1.85-1.65,2.06.62,2.27,2.68,2.47-3.09,1.65.82,2.27,4.53-.21,2.06,1.85-2.27.82-5.36-.62-.62,3.09h12.98l-1.65,4.95.21,2.88-1.85.62.21,1.85-1.65,3.71-3.09,1.03-2.27-1.03-3.3-1.24-3.09,2.06-.62,2.47Z"/>
  <path id="mu_x5F_048" class="cls-1" d="M865.46,477.5l-.21-3.5,4.12-4.74,4.12-.82-.21-3.09-2.06-.21-1.65-3.3,2.27-2.68,2.68-.21,3.3-5.15,2.47.82,1.44-3.71,3.09-.41-1.03-3.71,1.65-1.85,5.36-.82-1.24-2.88,1.24-2.06,3.3.41,2.68-3.5,2.88.21,2.68,2.88.82,3.92,2.06-4.53,4.12.82,1.03,2.06-1.85,3.09,3.09.41-1.24,2.47,3.5-.21,2.27-1.65.62,2.06-1.24,3.92,4.33.21.62,4.53-1.24,4.53,2.88,3.71,5.15-1.24v2.88l2.88-2.88-.21,4.95,2.68,1.65-.41,4.53,1.44.41-2.47,5.98.41,2.88h-1.44l-.41,2.47-.41,2.88-1.65,1.85-1.85-.21.21-2.06-1.44,1.24-1.24-1.65-2.27,1.44-.82-2.06-2.68.21-1.24,1.44-1.65-2.06h-1.65l-.41,3.09-7.01,2.47-1.44-3.71,2.68-2.88v-1.85l-3.92,2.47-.21,4.33-3.09,2.47-3.71-1.24-4.33,2.47-6.39-3.09-4.33,1.65-2.68,3.09h-1.85l.62-2.88-1.85-.41.41-2.27-2.27-1.03-.82-2.47,1.24-1.44-.62-1.65h-1.65v-1.85h-2.47l2.68-4.74-4.33,2.68-1.85-2.88Z"/>
  <path id="mu_x5F_049" class="cls-1" d="M691.95,729.92l1.24-2.06,2.88,2.47,1.03-3.09,4.95.62-1.65-4.12-3.09-1.85,3.5.21,2.88-2.47-2.47-1.65-2.47.82-.82-.82,1.03-3.3,3.09-1.44,4.33,2.88,1.03,1.65,2.27-1.03,5.15,4.53,3.3,1.65,1.85-.62,1.85,2.47,2.06-1.24,3.71,3.09,5.98.41v-1.85l2.88-2.06,1.65.41,1.03,2.88h2.06l2.88,3.09-2.06,1.24v1.44l1.44,1.44,2.27,8.04,2.47-3.09,5.77-3.5.21-2.27,1.85-1.03,1.85,2.47.21,1.65,2.27-.21-.21,2.06,1.65.62-.62,2.06,2.68,1.44,1.24-3.3,2.68-1.44.21-2.47,2.88-2.06.21-4.33,8.24-1.03,4.33.41,4.12,1.24,1.03,1.85,2.06-.21,1.44-3.3,3.71-2.88,5.98.41,1.24-2.06-1.44-2.68,3.5-2.47,5.15.82,1.44,3.71-4.33,2.47-1.24,4.95,1.85-.82,2.27,1.03.82,1.65-1.85,1.85-2.47-2.06-2.27,2.06,1.24,2.47-3.09,5.36h-1.03l-2.88,5.15-1.03,4.33-.41,4.33-3.71,2.88-1.85,3.71-.62,4.95-2.68,7.01-2.47,3.3.21,1.24-1.03.21-.41,2.06-6.18-3.5,1.03-2.47-.41-2.68-1.24-.21-1.85,2.88-3.09-.82-2.27.21-3.5-3.5-3.92,2.68-4.53-.41.21,1.24.41,2.88-3.5.82-1.65,1.44v1.65l-1.44.82-1.44-2.06-2.88,3.5-4.33-.62-.21-2.47-4.33,1.24-5.98,6.59-3.09-.21-1.03-1.24v2.27l-2.06-1.24-7.01,4.95v7.62l-5.36-4.12-3.3,1.85-4.33.41-2.27-9.07,1.65-2.06-.21-1.44-5.56-.21-4.53-3.3-2.06-3.3,2.06-2.47v-1.65l2.47-1.24.82-3.5-.62-2.06-4.12,1.85-3.92-4.53-2.06.82-3.71-3.71-.41-3.92-2.27-.82.82-3.71,6.39-3.92v-2.47l1.85-1.44,2.27.21,4.74-7.42-1.44-1.44.41-1.65-1.65-2.47-2.68,1.65-2.06-2.27.41-2.27Z"/>
  <path id="mu_x5F_050" class="cls-1" d="M626.42,561.57v-2.27l-3.09-1.24-2.47-5.36,1.65-2.27.41-2.47-3.92-2.68-.62-2.47-2.88-.41-2.88-3.09-1.65-3.3-4.53-6.59-1.24-5.77,1.65-1.44-1.65-1.85,1.85-3.09,3.09-.62,9.07,3.3,4.95,4.95,1.85-.21,4.53,3.09,12.16-.21,5.15-1.24,1.03-3.71,3.09-2.68,2.27.82.62-2.06,3.3.82-1.44,1.65.41,3.92,1.44,1.65-1.24,2.68,1.85,4.53-1.65,1.44-1.65.21-.21,8.24-4.12-.21-2.88,1.85-2.68-2.06-7.42-1.03-5.77,1.24-1.65,2.88-.41,8.86,3.5,2.27,3.92-.62,5.77-.21-3.09,3.92-.21,3.3,7.21,3.5-1.85,2.47h-5.36l-3.3-4.12-4.74.82-2.47-3.3,1.03-2.47-4.74.62Z"/>
  <path id="mu_x5F_051" class="cls-1" d="M692.36,519.94l1.24-2.47-4.33-1.44-1.85-2.27,1.24-3.92-4.53-2.88-5.15.82-3.09-2.06-.62-2.88-.41-1.65,2.06-1.44,2.06-3.09,3.5.21v-3.09l.62-2.68,2.06-4.74,2.47-1.24v-2.06l2.68-.82.41,4.95,7.21,3.92-2.47,3.3,1.85.82,3.09-1.24-1.44,7.21h1.65l-1.24,15.66,2.06,2.47-2.06,1.44-2.47-1.44-4.53.62Z"/>
  <path id="mu_x5F_052" class="cls-1" d="M484.24,586.5l4.33-.41,7.21-6.59.21-2.06,2.06-2.27v-2.06l4.12-4.12,2.27,1.85-.82,7.62,2.47,1.85,1.85-1.44,6.39-.62,2.68,2.27,5.36,1.44v2.47s-3.71,1.85-3.71,1.85l-.21,5.15-4.33,3.5.62,1.85-1.03,2.88,1.65,1.65h4.33v6.18l-2.68,1.44-5.56-.41-4.33,3.3-7.21,1.24-2.68-2.27-3.5-.41-1.03-2.88,1.85,1.03,2.68-1.85-6.8-6.39-1.44-3.3-6.8-1.03,2.06-3.71v-5.77Z"/>
  <path id="mu_x5F_053" class="cls-1" d="M892.86,305.64l5.15-4.53,2.06-3.71-.62-1.44-1.44.82-2.68-1.65.82-1.85,1.85.41,2.68-2.68,3.92,1.03,1.24-2.06,6.59-.62,1.24-2.47.41-2.68-2.68-1.85,2.27-1.44-.21-2.47,4.95,1.03v-5.36l2.47,1.03,3.3-8.86.21-2.27,3.09-1.65,1.03-2.27-3.71-2.27.41-2.47,4.33-2.88-5.56-5.98,1.44-2.88,2.88,2.06.62-5.98.41-4.12-2.06.21-1.03-4.53-2.47,3.3-1.65-1.03-.62-2.06-2.88-.82,1.03-4.95-8.04,1.44-3.71-2.06-.21,2.06-4.95-1.24-.21-2.47,2.88-1.44-1.24-1.65,2.06-2.88,3.3,1.85,2.68-4.95v-2.47l3.09-1.65v-6.39l4.33.41.21-2.47,14.84-5.77,3.92.82-1.85,6.18,11.54,1.85,3.92,3.92.21,6.59,3.71,2.88,3.09.62v1.65l-4.12,3.09,2.47.82.62,1.85,3.09-2.06,2.27.62,1.85,3.92-1.44,2.06-3.92-.62,10.51,12.16h4.33l3.92,2.88-2.27,3.09,4.33,3.71,5.15,1.24,2.68,3.92-.82,6.39,2.27,3.3-.82,2.27,4.12-1.24.41,1.85,3.5.41.21,1.65,2.68-1.03,1.03,1.85-3.71,1.44-.62,3.5,2.47-.62,8.86,11.95-1.03,3.71,2.27-.21-.21,3.09,1.85,3.3-3.3.82-1.85-1.85-2.27,1.85-2.47-.21-2.68,2.06-6.18-.21-3.5,2.88,7.21,7.62.62,12.98-2.68.82-1.44,1.65-4.95-1.44-3.5,4.74-1.44-2.06-5.15.82-.21,1.65-2.88-.41-2.68,3.09,1.65,2.68-2.27.82-2.06,5.15-6.18,2.47v1.65l-4.12,1.65-.82,2.27-6.39,1.24.82-3.71-2.06-1.03-.82-4.95-3.71-5.36h-1.65l-1.44-2.47-8.86-.41-1.44-1.44h-1.65l-2.27-1.65-2.47,1.65-.21-2.88-2.88,3.3-4.33-2.47-1.65,2.68,2.88.62,1.44,3.71-4.12,4.74-2.06-5.36-1.03,2.27-3.92-.41-3.09,4.33-4.33-3.71,4.12-2.68-6.8-5.56-2.27.82.21-1.85h-4.12l2.68-2.88v-2.06l-3.3,1.44-1.24-2.06-2.68-.21,2.06-2.68v-6.39l3.92-1.44-2.47-7.83Z"/>
  <path id="mu_x5F_054" class="cls-1" d="M486.51,646.47l-2.06-1.44-2.47,1.85-2.27-1.65-2.88-.21-.82,1.65-3.92.21-1.65-1.85,3.71-3.71.21-5.15,3.71-2.27h8.24l4.95-1.85,2.06,1.65v-1.85l2.47.21,1.44-3.09-2.27-1.03,1.85-3.92,2.27-.62,1.65-3.3,1.65.82,1.85,3.5-2.47,3.5,2.27,1.65-2.68,1.44-2.68,2.88.62,1.44-2.68,2.47h-1.85v5.36l4.12.41,2.06,1.85-1.44,1.44,2.27,3.92-1.44,2.47-5.56,1.03-5.15-4.33-1.65-3.71-1.44.21Z"/>
  <path id="mu_x5F_055" class="cls-1" d="M531.63,428.66l-3.71-2.88.82-3.3-2.68-1.03-1.44,3.09-4.74,2.47-.41-2.88-3.71-3.3h-6.8v-10.3l-3.3-.21,1.44-2.06-.82-1.65-5.77-.21-3.3,1.44-2.68,3.92-10.51.62-6.59-6.59-1.85.21-4.12-2.47h-2.47l-5.77,5.56-3.3.41,2.68-3.5v-2.06l3.3-2.06,1.44-3.09,3.5,1.65v-2.88l1.24-2.06,1.65,2.27,1.44-3.92.82,2.47,2.47.21-2.27,3.71,4.53.82,2.68-3.71,2.47,2.47h3.09l1.44-1.44,2.68,1.44,1.85-.62-2.06-2.88,1.85-.62,2.47,1.44,3.3-1.03,3.3-4.74,3.09-.21,2.47-5.77,2.68.41,5.98,10.72,2.06.21.21,3.92,4.53,7.01,3.09-.21,2.47-2.88,1.65,2.47-1.85,1.24,5.98,2.88-.41,2.68,2.68,1.44-2.88,3.5.21,3.09-1.65.21,1.03,3.71-3.5,2.88Z"/>
  <path id="mu_x5F_056" class="cls-1" d="M706.38,716.12l6.59-4.95.21-2.27,2.27-2.88-.41-2.27-2.68-.62-1.44-5.56,1.65-1.85-.62-2.06,3.71-1.85-.21-6.39,3.92,2.27,3.09.21,1.03,4.74,4.12-5.56,3.5,1.44.62-1.85,2.88,1.03.62,1.85,3.09-3.3.62,1.85,1.44-.21,2.06,1.24.82-2.88,2.06-3.5h6.39l2.06,1.24.21-2.68,5.98-.21.82,2.27,1.85,2.68.21,3.3,3.5-.21,2.68,3.09,2.88-1.24,3.09,1.85.21,2.68-1.44,2.06.41,2.27,2.27,2.88-2.27,2.68.62,1.03h2.06l-1.44,2.68v2.47l-4.12,4.74-.62,1.65h3.3l4.95-3.71,3.71-.62,1.85.82v4.12l3.09,1.24,5.56-3.09,1.85.62,4.12-4.33,2.88-.82,1.44-2.27,1.44,2.27.41,2.47v2.88l-3.5,2.47,1.44,2.68-1.24,2.06-5.98-.41-3.71,2.88-1.44,3.3-2.06.21-1.03-1.85-4.12-1.24-4.33-.41-8.24,1.03-.21,4.33-2.88,2.06-.21,2.47-2.68,1.44-1.24,3.3-2.68-1.44.62-2.06-1.65-.62.21-2.06-2.27.21-.21-1.65-1.85-2.47-1.85,1.03-.21,2.27-5.77,3.5-2.47,3.09-2.27-8.04-1.44-1.44v-1.44l2.06-1.24-2.88-3.09h-2.06l-1.03-2.88-1.65-.41-2.88,2.06v1.85l-5.98-.41-3.71-3.09-2.06,1.24-1.85-2.47-1.85.62-3.3-1.65-5.15-4.53-2.27,1.03-1.03-1.65Z"/>
  <path id="mu_x5F_057" class="cls-1" d="M684.95,613.29l-2.06-2.06,1.24-5.77h-2.27l-3.09-1.85,3.3-.41,3.3-2.06-3.5-6.59.41-4.95,1.85-1.65,8.24.82.62,1.65-1.24,1.03.82,2.68-1.44,1.44.21,1.24,2.88-.82.82,1.65h2.47l1.65,2.88,5.15-4.33-.21-3.5,4.33-1.44,2.06,1.85,3.3,3.3-2.06.82.41,2.88-1.85.41v1.85l-2.68,2.88.82,2.06-1.65,1.03-2.47-.21-.41,2.27.62,2.27-2.88.41-1.85,2.27-3.5-1.65-2.88-.21-3.92,1.24-2.27-2.88-2.27,1.44Z"/>
  <path id="mu_x5F_058" class="cls-1" d="M283.33,485.33l.41-11.13-3.09-1.24-2.06-3.09,1.44-1.85-2.06-1.24,1.85-1.24-1.65-6.59-3.92-6.8-3.09-.41,3.3-3.71,3.71,3.71,1.03-2.68,2.06,1.03,1.85-1.24.82,1.44,1.65-1.44v2.68l1.65.41,1.24-1.44,2.27.82,1.65-1.44,2.68-5.77,10.1-4.95,3.3.21,3.5,8.24,3.09,2.47,2.06-.41,2.47-2.68,4.12-1.24,4.53,1.03,1.03,2.47,3.5,3.3.82-2.88,1.65,1.65,3.5-2.27h2.06l1.65,2.27,1.65-2.27-1.03-1.03.21-3.71,10.1,2.27,4.12,3.3,3.3.82.62-2.88-.21-5.15,4.53,1.24,1.44-4.95,2.88.62,5.15-3.71.21-2.06,3.71-2.88v-3.5l1.03-3.09-1.24-2.27.62-2.06,3.71,1.03v2.47l2.27-1.85h4.95s.82,4.95.82,4.95l3.3.62-1.44,2.47,2.47,4.12.21,3.09,2.47.21.62,1.85,1.03.21,1.85,2.47-.41,1.65,1.44,2.68v3.09l-2.47-.21-5.36,4.53v2.27h-1.44v2.27h-2.68v1.44l-2.27.82,2.06,3.5-2.88,1.03-.62,4.12-3.5,2.47,4.53,3.71,1.24,4.74-2.27,2.47-2.06-1.65-.82,3.3,3.5,2.27-2.47.21-1.44,2.47h-2.88l-2.47,3.3,3.3.82,4.12,2.88.62,4.53-1.24,1.85.21,4.95,2.68,1.65-3.3.62-1.03,3.09h-3.71l6.59,5.77.82,4.74-2.27,1.65-2.27,1.24.21,3.09-2.27.41.82,8.65-3.5-1.24-5.56,3.3-.41,3.3-1.85-1.24-4.53,2.27-2.68-1.03-1.24-7.42-2.06-1.03,2.88-7.01-2.68-1.65-2.68.62-2.06-3.3-1.03-3.71,3.09-3.5-.41-1.44-3.71,1.03-3.3-2.47-4.33-1.24,1.44-2.06-2.06-1.44-2.27-3.71v-1.44l1.44-.62.62-2.47-3.71-3.71,2.68-1.44-.62-3.09-2.47-2.68-2.06,1.65-3.71-2.88v-1.85l-1.24-2.06-3.3,2.68-3.5-2.06.82-1.65-1.65-.41.62-3.71-4.12,4.53-8.04.82,2.88,3.71-.82,2.68-4.12.82-1.65-1.65-3.3,3.09,3.3.82-.41,1.65,2.68,1.24-.82,4.53-1.85,1.24,1.24,3.71-6.39-1.85-1.24-2.06-3.09,2.47-3.71.21-3.3-4.53.21-3.09,3.09-2.47-3.3-1.85-2.88,2.06-7.42-4.12,2.88-4.33v-2.68l-3.3,1.03Z"/>
  <path id="mu_x5F_059" class="cls-1" d="M679.38,632.25l3.09,1.44.21-9.07,3.71-2.47-2.06-5.15.62-3.71,2.27-1.44,2.27,2.88,3.92-1.24,2.88.21,3.5,1.65,1.85-2.27,2.88-.41-.62-2.27.41-2.27,2.47.21,3.5,5.98,4.74,1.65,1.03,4.53,3.3.82-1.85,9.07,2.88,3.3-.21,1.65-1.24.62.82,2.27.82,3.09-1.03,1.24.41,1.85-1.44.82v2.47l-1.65,1.85.82,4.74-4.33-.82-.82-2.47-2.68-2.06-2.47.82-.21-2.68-2.47,1.24-.41-2.47-2.27-2.06-2.88.41-2.68-2.47,1.24-2.27-3.71-2.06-2.27.62-1.44,2.06-2.27,1.44-3.3-.82v-1.85l-4.12.21-2.88-2.68-.82-2.47,2.47-1.65Z"/>
  <path id="mu_x5F_060" class="cls-1" d="M758.51,352l-2.47-3.71.21-1.85-2.88-2.68.21-2.68-2.27-.41-3.3-1.85-.82-4.53.21-3.92,3.71-1.24-1.85-1.85v-1.65l3.09-2.88,4.53,2.68-.62-5.15,1.85-2.06,2.68,4.33.82-4.95,1.85-.21,2.06,3.09,3.5-1.03-.62-3.3,2.06-2.47,1.44.41,3.09-1.85-1.03-6.8,3.3.82,3.3,3.92-.21,3.3.82,1.65,3.3.41-5.15,4.33,3.3,1.24,3.71,4.12-.41,2.27,3.71,1.44.21,4.53,1.44,2.06-1.65.41-.41,2.47,1.44,1.03.41,3.71-3.5-1.24-6.18,6.59-1.65-.82,2.06-2.47-6.18-4.53-1.24,2.27,2.47,1.65v1.65l-2.88,1.65-3.09-2.88-.82,4.12-1.85-3.09h-3.09l-.62,1.44,2.27,1.44-1.65,1.03-2.06-1.24-.62,3.3h-3.92Z"/>
  <path id="mu_x5F_061" class="cls-1" d="M533.01,97.51l2.2,10.11-.88,4.4,2.64,4.84,4.4,3.52-.88,6.15,1.76.88,1.76,5.71,1.76-4.84,3.08-7.47v-8.35l3.96-6.15-3.52-8.35v-3.52l3.52-3.96,3.52-3.96-1.32-5.28,1.32-7.91,3.08-4.4,2.64-5.28-.88-5.28,2.64-3.08.44-5.28,2.2-2.2,3.96-.44,1.32-3.08,2.64-.44,8.35,4.4,1.76-2.2,2.64,3.52,2.2-.88,5.71-1.76,3.96.88-.88,4.4,1.32,2.64,3.52.44-3.08,4.4,3.96,2.2-1.32,3.08,1.76,2.64.88,6.59,2.2,1.76-3.96,5.28h-3.52l.88,3.52-1.32,5.71-3.96.88,3.08,2.64-.44,2.2-7.47-1.76v3.08l-1.32,3.08,1.32,5.28h2.64l2.2,3.52h3.96l-4.84,6.15-4.4,5.28,1.76,1.32-3.96,4.4-1.32,3.52.44,2.2-5.28,7.47-2.2,2.2-2.64-1.32,1.32-2.2-1.32-3.52-2.64.44-2.64-4.4v3.96l-5.28,1.76-3.08-4.84-3.52,3.52h-3.08l.44,1.76-3.52,2.64-3.08-2.2-1.32,1.32,2.2,3.52-1.76,3.08-.88,7.03-.44,1.32,4.4,1.76,4.4,6.15-.88,2.2-4.4,3.52-3.08-.88-5.28.88-2.64.88-1.76-2.2.44-3.96-1.76,3.08h-4.4l2.64,6.59-4.84,4.4,1.76,6.59-3.52-3.08-1.32,4.4-4.84-.44.88-2.64-3.96-.88-3.96,3.08-2.64,1.32-7.03-5.71-2.64,1.76-.88,5.28-3.52,2.2-1.32,3.96-3.08-1.32-3.08.44.44-3.08-2.64.44-3.08-3.96-2.2.88-1.32,4.4-3.96,2.2-4.4-.44.44-3.96,2.2-1.32.44-2.64,1.76-1.32,1.76-7.03-4.4-4.4-4.4,1.32-3.52,2.64h-3.08l-6.15-2.64-.88-3.52-3.52-1.32-1.76,3.08-3.52,2.64-6.15.88-3.52-.88,2.2-8.79-1.76-2.2.44-5.28,2.64-3.08-3.52-7.91,2.2-2.2,2.2-13.19,5.28-3.96-2.2-4.4,2.64-4.4-.88-3.52,8.79-9.23,1.32-3.52-2.64-2.2-1.32-7.91,7.03,2.2,2.64-1.32-.88-6.15,3.5-7.53,3.3-2.27h4.12l2.06,3.3,4.95,4.53,1.44-.41-.82-4.33-1.85-3.71,2.27-3.92-2.47-1.85-1.85,1.03-1.85-1.65v-1.65h2.68l.21-1.65-4.53-3.09,3.5-4.95h2.68l2.27-1.44,3.3-1.03,1.85,3.3h3.3l1.03,2.06,1.44-2.88-2.06-2.27,3.92-3.09,4.74-.62,2.06,2.88-.62,2.06.41,2.27,2.88,1.85,1.24,5.36-2.47,3.92-.21,5.15-1.65,1.03-2.27,7.01,1.44,1.44-1.65,1.85-2.88-.82-.62,4.95,3.3-.41,6.8-3.3,6.37,2.39,1.76,6.15,6.15,7.03,4.4-5.71,1.32,1.76,5.28-1.32Z"/>
  <path id="mu_x5F_062" class="cls-1" d="M386.57,500.37l-.62-4.53-4.12-2.88-3.3-.82,2.47-3.3h2.88l1.44-2.47,2.47-.21-3.5-2.27.82-3.3,2.06,1.65,2.27-2.47-1.24-4.74-4.53-3.71,3.5-2.47.62-4.12,2.88-1.03-2.06-3.5,2.27-.82v-1.44h2.68v-2.27h1.44v-2.27l5.36-4.53,2.47.21,3.92,5.77-.82,1.24.21,2.68,7.83,3.09-1.24,4.95-3.3-1.03-1.03,1.65,2.47,2.06-.62,3.92,2.27.21v1.44l2.88,2.06h1.65l.21,5.36,1.65.82,2.47-.62-3.09,4.53.82.82,2.06-.41,2.06,3.71h2.47l4.12-2.68-1.44,2.88,3.3.41,3.09-1.44.82,1.85,3.5,1.03,2.06-1.85,1.85,1.65-.82,1.24,3.71.21,1.65,1.65-1.65,1.44.41,2.27,2.47-.62,1.24,2.47,4.95,2.47,1.65-4.74-1.85-1.24v-3.3l7.83,1.03,4.95,5.36,2.27.62,4.12,3.92-3.3.21-1.03,4.53-2.06,1.65-3.71.82-2.88-3.92-2.27,1.03-2.06,4.12-4.74-2.06-4.12-.41-2.47,5.15.21,3.92-1.03,1.85-5.98-1.24-6.18,1.24-.62,2.88.21,2.68-2.06,2.06h-5.36l-1.65-2.06,2.68-1.85.41-3.09-2.68-5.36-5.77-2.27-.41-1.65,4.12-3.09-1.03-1.03-1.85.62-2.27-.41,1.85-1.85-4.12-2.68,3.3-2.88-2.88-1.85.82-1.65-1.85-2.47.21-1.44,1.65-1.65-1.65-2.47-3.71,1.65-1.44-1.65h-2.27l-2.27,3.3-3.3,1.85-3.3-.21-.62,1.85,2.88,3.09-1.85,3.09-2.47-.62-1.24-1.24-.62-1.65-6.59-.41Z"/>
  <path id="mu_x5F_063" class="cls-1" d="M772.52,543.64l-5.56.21-4.53-5.98v-3.5l1.24-1.65-2.06-5.56-4.95-4.12-6.59-1.44-2.47,1.44-5.15-.21v-2.27l2.06-2.06,6.8-2.06,6.18,1.03,4.33-4.95.41-2.47h3.3l3.09,3.3,1.65-3.5,3.09,4.74,8.45-5.36-1.03-3.71,3.09.21,1.03-3.09,2.27-.41,3.92,5.56,4.12-2.27,2.06,2.88,2.88-.41,1.24,2.27-3.3,4.95-10.1,10.92-4.33-.82,1.24,3.71-11.13,3.71-3.92,5.15,1.03,1.85,2.68,1.03-1.03,2.88Z"/>
  <path id="mu_x5F_064" class="cls-1" d="M934.7,196.01l13.6-4.74,8.45.41-.21-7.42-7.01-1.44-2.47,4.12-2.68-5.36v-6.8l-2.27-.41-1.03-2.68,4.53,1.85,1.03,3.09,5.15-2.68-.41-9.27,5.15.21,1.65,2.06,4.12-.21,1.44-2.47.82,1.65,3.71.62,1.03,3.3,3.71-.62,1.24-1.24,4.95,3.3-1.24,2.06,5.15,2.06.21,2.47,5.56,1.85,1.24,3.92,3.3.82,1.44,7.01h3.92l2.68-4.95,4.33,5.56,1.24-2.06h3.5l2.06,16.07,3.3,1.44,2.06,5.56,3.3-1.85,2.47,4.33-5.56,4.74-10.51-.82,1.65,9.89,4.53.41-2.47,5.56-2.68-.41,3.09,3.92-3.5,4.53-2.27,8.86h2.88l-.41,4.74-2.27-.41v1.44l-3.92,4.95,1.85,4.33-3.92,3.5-2.68,1.03-.21-1.65-3.5-.41-.41-1.85-4.12,1.24.82-2.27-2.27-3.3.82-6.39-2.68-3.92-5.15-1.24-4.33-3.71,2.27-3.09-3.92-2.88h-4.33l-10.51-12.16,3.92.62,1.44-2.06-1.85-3.92-2.27-.62-3.09,2.06-.62-1.85-2.47-.82,4.12-3.09v-1.65l-3.09-.62-3.71-2.88-.21-6.59-3.92-3.92-11.54-1.85,1.85-6.18-3.91-.82Z"/>
  <path id="mu_x5F_065" class="cls-1" d="M610.76,771.75l3.5-2.47h2.68l1.44,1.44h1.24l3.71,1.65,5.98-4.33.41-4.33,3.09.21,2.68-2.47-1.65-2.68,1.85-6.59,4.74-2.27,1.03,3.5h1.65l1.65-1.24,3.92-.62.82-4.33,1.44-.21,2.47-2.27h6.18l2.88,5.15-2.68,1.85,1.03,3.09-1.65,2.06-2.68-.21-2.47,2.47,5.15,2.68.41,5.36,2.68.21,1.03,3.5-2.47,1.24-2.47,3.71-1.65,6.18,5.36,2.47,2.27,4.12-3.92,1.03-1.44-2.06v1.85l3.5,3.3-2.06,5.98-1.65-2.47h-3.09l.62,1.85-1.44,1.03,1.65,2.06-.82,2.27h-1.85l-1.24,4.74-4.53,2.06,3.3,3.5,2.27.82,1.44-1.24,1.85-.41,2.06.82,2.27-.62,1.44,3.71v2.88h2.06l-.62,2.68-1.65.41-.62,1.85-2.68.21-.41.62-2.27-.41-.21,1.65-2.68-.21-.82,1.44-6.59,3.3-1.65-1.24-2.27.21-.62-1.24-.82,1.03-3.09.41-1.03-1.44-3.5,3.5-1.85-1.65-1.24,1.03-1.44-3.3-5.36-.21-4.33,1.65-1.03-2.88-2.06,2.47.21,1.65-1.44.82-1.85-.41.82-1.85-1.03-7.62.21-2.47,1.85-1.24-2.27-1.65v-2.68h-1.44l-1.03-2.68-3.09-1.03.82-1.85-1.65-1.03,1.24-2.88,1.65-1.03-.82-.82-.41-2.47-1.44-.62,3.5-3.92-1.44-1.03,1.65-2.88-.82-1.24,2.06-.62.41-2.27,1.65-1.44-.82-3.09-2.47-1.85-1.24-3.3,1.85-2.88.21-3.5Z"/>
  <path id="mu_x5F_066" class="cls-1" d="M709.88,567.13l3.3-23.08-2.68-10.1-3.71.82-4.95-1.03-2.68,2.88h-4.53l-1.03-2.47,2.27-3.5h3.09l.82-2.47,2.88.21,2.06-3.71-4.33-1.44-1.03-2.47,2.06-1.44,6.8-2.27,2.88,1.03-.21-2.47,2.27-.62,6.59,4.53,7.83-.41,4.12,3.92,7.01,1.24,3.71-1.44,5.15.21,2.47-1.44,6.59,1.44,4.95,4.12,2.06,5.56-1.24,1.65v3.5l4.53,5.98,5.56-.21-3.3,16.9h6.39l2.88,1.24,3.71-.82.62,4.95,1.24,2.47-1.03,2.06-2.47,1.44-3.3-1.44-4.33.82-4.12,3.71-1.44-1.03-3.71,3.71h-1.85l-1.24-1.44-3.71.21-1.85.82,2.68,1.03.41,2.88-1.65,2.68h-2.47l-2.06-1.85-1.85-.21-.82-3.09-2.27-.82v-2.06l1.03-1.24-2.27-.82-.82-2.27-1.03,1.44-3.3-.41-.62-1.24-2.47-.41-.82,1.24-2.88-1.24-2.47.21-.62-1.65-3.09,1.24-2.68-1.03-4.74-.21-3.09,1.85-4.33,1.03-2.88-5.15Z"/>
  <path id="mu_x5F_067" class="cls-1" d="M290.33,400.02l.82,4.12,1.85,1.24.21,2.47,5.36,2.27.82,2.27-2.47,2.27,2.88.21.21,1.65-1.44,2.68.62,1.85,2.88.21,4.53,2.47,1.03,3.71,3.09.41,2.88,4.12-.82,5.15-1.44,2.27h-2.88l-3.3-.21-10.1,4.95-2.68,5.77-1.65,1.44-2.27-.82-1.24,1.44-1.65-.41v-2.68l-1.65,1.44-.82-1.44-1.85,1.24-2.06-1.03-1.03,2.68-3.71-3.71-3.3,3.71,3.09.41,3.92,6.8,1.65,6.59-1.85,1.24,2.06,1.24-1.44,1.85,2.06,3.09,3.09,1.24-.41,11.13-3.92,3.3-2.27-2.68-3.92-2.68-.82,3.5-5.56,1.44-2.06,3.3,1.24,3.3-3.09-2.06-2.68,3.71-1.65-2.27-8.45-.41,1.44-2.27-1.24-3.3-5.36.62-1.03,2.27,2.27,3.3-1.24,1.44-3.71.41-1.44-1.85v-6.59l7.83-5.15-.62-1.65h3.09l3.71-2.47,4.95-11.95v-4.12l-2.06-4.95-7.21-3.71.21-2.06,3.3.82v-2.27l1.03-1.44.21-1.85h2.88l-.62-3.92,2.06-1.03-.21-4.74,3.5-1.03v-1.85l1.85-.82,1.44.41,1.65-2.47,4.74,1.85,2.88-5.56-1.85.21-.82-2.88.62-3.3,2.27-2.47-.21-3.5,1.85-.62-1.44-1.65,4.53-4.12-.82-1.03,3.09-1.24,8.65-7.21Z"/>
  <path id="mu_x5F_068" class="cls-1" d="M297.75,652.65l.82-4.74,2.88-.62,1.85-5.98-.62-2.06,2.47-.62.21-2.47,2.68-1.85-1.24-3.3-3.09-3.92,3.71-3.92,5.77,4.33,2.06-.82.41-5.56,4.74-1.65.21-1.85,2.06-1.44,1.44,2.06-.82,1.24,1.65,2.47h3.5l3.3,3.3,2.68-3.09.82-7.01,7.01-.82,6.39-2.27,1.85-5.15,5.15-4.53,2.27,1.65,1.24-2.06,3.71.41.41-3.92,2.68.41,2.47-3.71h3.5l5.56,2.47,1.44-3.71,2.68.82,2.47-.41v4.33l1.44,2.06,3.71-1.03,1.85-1.85,3.92,3.09-1.85,1.65-.41,3.09,2.68,2.88h2.47l1.24,1.85-.41,4.74,1.44,1.65-2.06.82,1.65,3.09-1.44,5.56,1.24.62,1.65,4.12,1.85,1.24-.82,3.09,4.53,3.3,1.65-1.44,1.85-3.09,1.44-.21,4.74,3.71,3.5,4.33-5.36-.21-2.47,4.95.62,5.77-1.24,1.44,2.27,1.85-1.85,2.06-1.03,5.56,1.24,4.95-1.65,1.44.41,4.33-6.39-3.5-2.68,2.06,1.85,4.95-1.24,1.44-2.47-3.71-2.27.82-2.06,3.71.41,2.68-1.85,1.85-5.98-4.12-2.68,2.47.82,4.74-1.65,2.47h-2.47l-2.06-2.06-8.65-3.09-5.98.62-3.09-.82-2.27-3.3-4.12,5.77-3.09-2.06,1.03-2.68-3.09-1.24-12.16,1.24-2.27-3.92-7.01-12.78-1.85.41-7.62,5.15-5.98-2.68-2.06.82-2.06-3.09-2.06-.21-.21,3.92-7.62-3.3-1.65-2.47v-1.85l1.44-2.06h1.24v-5.56l-3.3-2.06Z"/>
  <path id="mu_x5F_069" class="cls-1" d="M722.45,687.89l1.24-6.18,2.88-.41,2.47-3.92-2.27-3.3-2.27-.41-.62-3.3,1.85-2.47-3.71-2.27.62-2.88-2.68-1.24.62-3.92,3.5-2.27.21-3.71-2.06.41-1.65-1.85,2.06-3.5-1.03-1.03.41-2.27.82-3.09-1.85-2.68,1.24-1.85,2.68.21,2.27-2.06-.21-1.65,2.68-1.24h2.27l2.27-1.65-.62-8.86,2.47-3.5-.21-3.71,2.06,1.65,3.92-1.03.21-1.85,12.57,2.88,3.92,3.3,2.27-.21,1.44-2.47,2.06.21-1.85,2.68,3.3,5.15,5.15,4.12,2.27,1.24v2.68l-2.06.62-1.03,1.65,2.68,1.44-1.03,3.09,1.44,1.03-4.53,3.92,2.06,3.71-.21.62-2.88.41-.62,1.03-7.21-1.65-5.15,8.24,1.44,1.65.21,2.27-1.24,2.47,2.88-.62-1.44,2.27,2.27,3.5,3.5,4.53.21,1.85-5.15,4.74h2.88l-.21,2.68-5.98.21-.21,2.68-2.06-1.24h-6.39l-2.06,3.5-.82,2.88-2.06-1.24-1.44.21-.62-1.85-3.09,3.3-.62-1.85-2.88-1.03-.62,1.85-3.5-1.44-4.12,5.56-1.03-4.74Z"/>
  <path id="mu_x5F_070" class="cls-1" d="M649.92,485.33l-.82-4.53,3.3-2.27,1.85,2.68,1.24-1.44,3.5-.41.41,2.88,6.59,1.44,7.83,2.88,1.03-3.5,5.15.62,1.44,7.21,1.65.21-.62,2.68v3.09l-3.5-.21-2.06,3.09-1.65-1.85-5.15-.41-1.03,1.65h-1.24l-.62-3.3-1.24-.82-2.68.82-1.24-4.74-2.68.21-.82-1.44-4.95-1.85-.82-1.44-1.85.82-1.03-2.06Z"/>
  <path id="mu_x5F_071" class="cls-1" d="M591.6,396.92v-2.68l2.06-.82-3.09-4.12v-2.47l2.68-.21,2.68-2.27-1.24-1.65.41-3.3-3.09-.41-6.8,5.77v-4.95l-4.33-.62,1.03-4.53,2.06-.21.41-7.42,2.06-1.85-.41-3.09,3.92-3.71-.41-2.27,3.92-2.47,2.89,2.27.62,4.33,2.88.41,2.27,2.06,3.3-.21,1.03-1.85,2.47-.21,1.44-1.24-.41-1.65,4.33-1.03,1.24,4.33,6.59-2.27v-1.65l7.62.82,1.44-1.24,2.27,1.85-1.03,3.3,5.15,5.36-.21,3.3,1.85,1.65.62,2.06,2.27.41.82,3.09,2.27.21,2.06,2.27.21,3.3,1.85,1.44.21,3.71-3.71,2.27-.41,5.36,3.5,1.85v2.47l-2.88-.41-3.5,2.68-2.06-3.5-3.09,1.44-1.65-3.09-5.56,5.15-1.44-.62,1.24-4.95-3.5-2.88-1.85,1.03-1.65-2.06-3.5-2.06-2.68,1.03-2.88.41-2.47-4.53-.82,3.09-4.12,1.24v2.27l-3.3,2.27-1.44-1.65-1.24-.21-1.24,2.47-2.47-1.44-5.15.82Z"/>
  <path id="mu_x5F_072" class="cls-1" d="M899.25,416.71l-.62-4.74,2.27.82,1.85-7.62-3.5-2.27,3.5-.82-2.88-1.44-.82-6.59,2.06-.62,1.85-1.44-2.47-2.27-1.44-6.59,2.47-6.39,6.59-.21-2.06,2.68,1.65,3.3,19.16-2.27,1.85-3.71,2.47,2.88,3.92-.41.62-1.85,3.71,3.5,5.98-5.15,1.65,1.24-2.47,2.47-1.44,5.15-1.03,6.59-3.09,3.09v2.27l-2.68,3.3v6.59l-3.71-2.06-1.24,2.88-3.71-1.24.21,2.68-2.68.82-4.33,6.39-.21,2.68-5.15,4.95h-3.09l-1.65-1.24,2.27-3.71-2.06-3.5-4.33,1.24-1.24,2.68h-3.09l-3.09-2.06Z"/>
  <path id="mu_x5F_073" class="cls-1" d="M858.66,366.01l.82-4.53-.62-3.71-5.15-2.27-3.71-1.24-2.88,1.24-1.24-1.65-1.65,1.24-1.24-1.44-3.09.62.21-4.12-2.27-.82,4.33-3.3-1.65-2.47-3.5,1.44,2.47-2.88-5.77-2.47,4.53-2.27-2.06-5.36,1.85-2.06-.82-1.44-2.06-.41-1.24-1.65-.62,3.09-2.88-1.03.41-3.92,4.53-3.71.62-3.09-4.74.41-3.09-2.47-3.09,2.68-2.47-5.36,2.88.21,4.12-5.77-.62-1.65,1.44-3.92,1.85-.41,3.09,1.03,2.68-2.47,3.92,1.85v3.5h4.12l.21-1.85,8.04-4.53,3.5,6.59,9.07.82,4.33-3.3,3.3,3.92,2.27-.62.41-2.68,3.3-2.68-.41,5.77,7.21-3.3,2.47,2.68,3.09-.62,2.47,7.83-3.92,1.44v6.39l-2.06,2.68,2.68.21,1.24,2.06,3.3-1.44v2.06l-2.68,2.88h4.12l-.21,1.85-2.27,1.03-2.06,8.04,1.03,4.33-2.47,2.06-2.68-.82-1.24,2.06-2.88,1.03,3.5,1.65-.41,1.24-3.5,1.44-2.68,6.8,2.88,4.33-1.65,3.3-4.74.62-.41-2.27-4.53-2.88-1.03,4.12-8.24,1.44-5.77-3.09Z"/>
  <path id="mu_x5F_074" class="cls-1" d="M874.94,411.55l-3.5-3.09h3.71l2.88-4.33-.21-3.09,1.03-4.33h2.47l.82-2.06-3.5-1.65,3.71-3.92-2.47-3.09-1.03-6.8,1.44-1.65-2.27-5.56.62-3.3,4.74-.62,1.65-3.3,1.65,2.06,4.95-1.24v4.74l5.77-4.53,2.27,1.65.41,2.88,2.27,2.06,2.27-.41.41,2.68,3.09,1.85-6.59.21-2.47,6.39,1.44,6.59,2.47,2.27-1.85,1.44-2.06.62.82,6.59,2.88,1.44-3.5.82,3.5,2.27-1.85,7.62-2.27-.82.62,4.74-6.39,1.24-1.85-1.24,2.06-4.12-2.88-2.88-6.8,1.65-5.36-2.27-3.09,2.47Z"/>
  <path id="mu_x5F_075" class="cls-1" d="M459.92,409.49l3.3-.41,5.77-5.56h2.47l4.12,2.47,1.85-.21,6.59,6.59-2.88,2.88.62,2.88,2.06.21,2.88,1.85-.82,4.74-1.44,1.44,3.92,1.03-2.68,1.65-.62,4.95,2.06,1.44-1.44,1.24-13.19-3.3-1.65,3.5,1.65,3.92-1.03,1.65,1.03,1.65-2.47,2.06-8.04.62-2.88-2.27-2.68-7.62-.82-.41-.41-3.3-2.27,1.03v2.06h-1.24l-6.39-5.77-1.24,1.24-2.27-.62-5.36,4.12-.62-2.27,5.36-5.56-2.88-.62,2.27-3.3-2.06-2.27,3.3-1.85,6.18,1.85,2.27-1.85,2.68.62.62-4.12h2.06l-2.27-4.95,6.59-1.44Z"/>
  <path id="mu_x5F_076" class="cls-1" d="M579.44,266.28l-.41,4.95-1.85.82,4.95,5.36-4.12,2.47-.21,3.5-1.65,2.47,4.95.82,4.12.21-2.27,2.47,1.65,3.09,5.36-.21,2.68,3.09-1.24,2.27-2.88-1.24-4.95,3.3-7.83,2.06-.41,3.5-4.33-.41-3.71,3.92.21-3.3-4.74-2.06-.62-1.44,2.06-1.65-1.03-1.65,1.65-.41.21-1.44h4.12l2.47-1.85-1.03-2.47-2.88-1.24-2.06-4.53.41-1.85-3.71-2.47-1.44-1.03-.21-2.47-2.68.21-1.24,2.27-3.3-1.24h-3.09v-2.68l-1.24-1.85h-3.09l-2.06-2.47.41-2.06v-3.71h-3.3l-2.27-1.03-1.44-1.85v-3.09h-4.53l-1.65-3.3,1.65-3.3-1.03-2.06,1.85-.21.21-2.06-4.33-3.09,1.85-4.74v-1.24l3.09-.21-.41-1.65,3.92-3.5v-2.68l-1.03-.82.21-4.33-1.85,2.88-5.98-5.56v-2.06h3.3l-1.03-4.53,2.27-1.44,5.77-.21,1.65,2.06v3.3l2.68,2.06h1.85l2.68,3.09,1.85-1.44h3.3l2.68,2.68,1.24-1.65,2.47.62,2.88,2.68,3.71-1.03,4.74.82.21,1.44,3.5,1.65,1.65,3.09,3.92-2.06,1.65-2.27,1.44.41,4.33-2.06-3.92,8.65-2.27.41-1.65,3.5-1.65-1.44-2.47,5.77,3.92,5.36v2.68l-5.15,2.06,4.53,8.65Z"/>
  <path id="mu_x5F_077" class="cls-1" d="M503.82,518.3l3.5,2.47,5.77-1.44,1.65-2.47-3.3-2.47,2.47-7.83-.21-4.53,2.88.41.62-3.3,4.95,6.39,1.24-1.44.82-4.95,4.53-2.06-1.44-4.12,3.3-2.27,4.74-.62,2.06-2.68-2.68-2.47,6.59-4.74,2.68-2.47,2.47.62,2.27-2.27,2.27-.21,5.98,5.77,1.24-1.24,8.24,4.12,5.56,9.07-3.3.21-8.04-5.36-3.09,2.47-2.88-1.85-3.09-.21-1.85,1.03-2.06-.82,1.03-2.68-3.3.82.82,2.88-2.68,3.92,1.24,2.27-2.47,1.03.21,2.88h-2.06l-2.88,3.3.82,8.04-2.47,3.92,2.27,4.12,2.27-1.65,2.68,1.24-.82,2.68,2.06,1.24-2.68,3.09-7.21.41.62-2.27-2.27-.62-.21-3.09-3.5,6.59,1.85,2.47-3.71.62-1.44,3.5-3.3,1.24.41-4.53h-1.44l-1.85,2.68-3.09-2.06h-2.88l-1.24.62-.41,3.71-3.3-.41-2.06.82-1.65-2.68,2.06-4.12-1.24-2.06-1.03-3.09-1.44-1.65.41-3.92Z"/>
  <path id="mu_x5F_078" class="cls-1" d="M807.55,396.51l1.24-2.88-2.68-1.65-.41-1.85,5.15-4.53,1.65,1.44,3.92-3.71-4.53-2.06-2.88-5.36,2.06-3.09,5.15-2.27,4.74.82,1.03,4.53,8.65-1.24,2.06-2.27,4.53-.82-1.65-2.47.62-2.06,2.47,1.44,8.24-3.5,2.68,4.33,2.88-3.71,1.85,2.47,2.06-2.47,2.27.41,5.77,3.09,8.24-1.44,1.03-4.12,4.53,2.88.41,2.27-.62,3.3,2.27,5.56-1.44,1.65,1.03,6.8,2.47,3.09-3.71,3.92,3.5,1.65-.82,2.06h-2.47l-1.03,4.33.21,3.09-2.88,4.33h-3.71l3.5,3.09v3.92h-7.21l-.21-1.65-3.09-1.65-3.3,3.09-8.04-.82-1.03,1.85-1.85-1.85-2.88-.82-1.85,2.06-5.15.21-2.88-1.85-3.09,5.15-4.95-.41-5.56.82-1.44-1.85v-7.42l-2.88-2.88-2.88.41-1.65-2.68-3.3.21-4.12-8.86Z"/>
  <path id="mu_x5F_079" class="cls-1" d="M604.79,655.12l-.62-3.5-3.09-1.65-1.44-5.56,2.27.21-.21-2.47,2.06-.21,1.85-5.77,5.36,1.85.41-4.95,2.88-4.53,9.68,2.27.62-1.44,2.27,3.3,2.47-1.03-1.03-3.92,1.65-2.68-2.27-1.85.62-2.88,2.88,1.24,2.68-2.47,3.3,2.47,3.09.82-1.65-3.09,3.09-3.3,7.01-.41v3.5s3.09-.41,3.09-.41l2.88,2.06,4.95,4.74v3.09l1.65,3.3-4.74.21-4.12-.62-1.65,2.06,1.03,2.06,2.68,2.27,1.44,2.88-1.24,1.24-2.47-.82-.21,2.27-1.85,2.06-1.03,2.27-.21,2.27-1.65,1.44-2.68-.82-2.47-2.27-4.12-1.24-6.39.21-2.06,2.88-1.44,4.12h-1.65l-1.24-1.65-2.88.41.62,1.85-1.44,2.27-2.47-1.65-2.27.41-2.68,3.3-1.44-2.47-3.5-1.65h-4.33Z"/>
  <path id="mu_x5F_080" class="cls-1" d="M290.33,400.02l2.68-1.85,5.77-.41,2.27,1.65-1.65,2.27,1.85,1.65,2.88-1.85,2.88-.82.62,2.47,1.24-1.85,2.27-.41,3.09,2.68,4.33-4.53,8.04-3.09,2.06-.21v-2.88l4.53-4.95h1.44l1.03-2.68,3.5-.41-.62-1.85,2.47-.21.41-2.47,6.59,1.44,5.15-1.65,2.68,2.47,3.3-.82,2.27,1.85,2.88-1.44.41,5.98,2.47,1.24,1.03,2.68,5.77,1.65-.21,3.09,3.92.82,1.24,2.47,1.65-1.24,3.09,1.24,3.3,2.27.62,7.21,3.71,2.68-1.44,1.85,1.85,1.03,1.24,3.3-2.47,3.3h-4.95s-2.27,1.85-2.27,1.85v-2.47l-3.71-1.03-.62,2.06,1.24,2.27-1.03,3.09v3.5l-3.71,2.88-.21,2.06-5.15,3.71-2.88-.62-1.44,4.95-4.53-1.24.21,5.15-.62,2.88-3.3-.82-4.12-3.3-10.1-2.27-.21,3.71,1.03,1.03-1.65,2.27-1.65-2.27h-2.06l-3.5,2.27-1.65-1.65-.82,2.88-3.5-3.3-1.03-2.47-4.53-1.03-4.12,1.24-2.47,2.68-2.06.41-3.09-2.47-3.5-8.24h2.88l1.44-2.27.82-5.15-2.88-4.12-3.09-.41-1.03-3.71-4.53-2.47-2.88-.21-.62-1.85,1.44-2.68-.21-1.65-2.88-.21,2.47-2.27-.82-2.27-5.36-2.27-.21-2.47-1.85-1.24-.82-4.12Z"/>
  <path id="mu_x5F_081" class="cls-1" d="M663.52,115.23l3.5-5.15,3.09-.62,4.12,1.85,1.44,2.27,4.95-.82,2.47,1.44,1.85,5.15,3.09,1.24.21,4.95,3.92-.21,3.09-2.47,2.88.62.62-2.27,2.27-4.12,2.27.82,1.44-3.09,2.88.62,1.24,1.85-.82,3.3,1.03,3.09-3.09,1.03-.21,2.27-2.88-1.03-3.92,3.09,1.03,3.09-1.24,4.74.41,2.27,5.36,2.06-.62,2.68-3.71,3.09-1.03,1.44-4.53-.62-11.33-8.04-10.1,2.68-2.27-2.88,2.27-1.24.41-3.09-6.39-1.03-.62,3.3-4.12-.21v-3.71l2.06-2.27.62-2.88-2.06-2.47,2.47-3.3-4.53-2.47v-1.85l2.47-3.09Z"/>
  <path id="mu_x5F_082" class="cls-1" d="M591.6,655.95l-3.3-3.92-5.77-2.88.82-2.88-1.24-1.65.62-2.27,3.09,1.44,1.85-4.33h-8.04l-1.85-2.06v-2.68l-2.47.21-4.53-3.09,4.12-2.06,2.27.82,1.44-.62.41-2.68,2.47-2.27.82-1.85-2.88-3.3,3.5-.21,8.04,6.18.62-4.95,2.27,4.95,3.5.62v2.88l2.06.21,1.03-2.68-1.24-1.24,1.65-3.92,2.27.21,5.36-4.95.41,5.15,2.27-.21.41,3.5,2.47.21.21,2.88-2.88,4.53-.41,4.95-5.36-1.85-1.85,5.77-2.06.21.21,2.47-2.27-.21,1.44,5.56,3.09,1.65.62,3.5-7.21.21-1.44,2.27-4.53-1.65Z"/>
  <path id="mu_x5F_083" class="cls-1" d="M562.54,444.94l3.09.41,1.44,2.68,7.01,1.44,3.09-1.24-.62,4.95,6.18-2.27,1.65,5.98,8.04-1.44-.41,4.12-2.27,3.92,3.3,1.03.21,1.44-2.27,1.24,4.12,1.03.21,5.56,4.95.21,1.85-2.68,6.8,2.68-.41,2.88-2.27,1.85-2.68,4.33-1.85-.21-3.92,6.8,2.47,1.65-2.47,1.03-2.47,2.88,1.03,5.77-4.12-2.06-2.88,1.44-6.18-4.95-2.27,1.24-4.12-.21-.21-3.71-1.44-1.44-3.09,2.27-5.56-9.07-8.24-4.12-1.24,1.24-5.98-5.77-2.27.21-2.27,2.27-2.47-.62v-2.47l6.59-2.47.21-2.27,2.88-3.09,2.47.21,4.12-4.33-.82-2.68,3.09-1.65v-2.06l-1.65-.82-1.85-5.36-1.24-1.44,1.85-3.71,2.88-.62Z"/>
  <path id="mu_x5F_084" class="cls-1" d="M275.91,559.92l-1.03-7.62-10.51-3.5-.62-2.88,3.71-2.47,2.47-6.18-2.47-3.5,1.44-10.1,2.47-3.71h3.3l-1.24-2.88-5.98.21-6.18-3.92-3.09-7.21-.41-5.98,2.47-3.71,2.68-3.71,3.09,2.06-1.24-3.3,2.06-3.3,5.56-1.44.82-3.5,3.92,2.68,2.27,2.68,3.92-3.3,3.3-1.03v2.68l-2.88,4.33,7.42,4.12,2.88-2.06,3.3,1.85-3.09,2.47-.21,3.09,3.3,4.53,3.71-.21,3.09-2.47,1.24,2.06,6.39,1.85-1.24-3.71,1.85-1.24.82-4.53-2.68-1.24.41-1.65-3.3-.82,3.3-3.09,1.65,1.65,4.12-.82.82-2.68-2.88-3.71,8.04-.82,4.12-4.53-.62,3.71,1.65.41-.82,1.65,3.5,2.06,3.3-2.68,1.24,2.06v1.85l3.71,2.88,2.06-1.65,2.47,2.68.62,3.09-2.68,1.44,3.71,3.71-.62,2.47-1.44.62v1.44l2.27,3.71,2.06,1.44-1.44,2.06,4.33,1.24,3.3,2.47,3.71-1.03.41,1.44-3.09,3.5,1.03,3.71,2.06,3.3,2.68-.62,2.68,1.65-2.88,7.01,2.06,1.03,1.24,7.42,2.68,1.03-2.68,2.06,2.27,4.12-1.24,4.33,2.88,2.27-2.27,1.44,1.03,11.13-5.56.41-4.12,2.68-1.65,3.09h-2.27l-1.03,2.47,2.06,2.47-2.06,6.18-4.53.82-3.71,2.06-1.24-1.44-7.21.21-7.83,4.74-.21-2.47-3.3-3.09-.41,1.85-7.01.62-3.92-5.15-3.09-.21-1.24-5.56,1.24-2.06-4.95-3.71-4.12.82-6.18-7.62-2.06-.21-1.65-3.71-2.27,1.03-2.68-1.44.82-3.09-2.27-2.27-7.62,2.68Z"/>
  <path id="mu_x5F_085" class="cls-1" d="M633.64,664.4l-2.27-2.88-.62-2.47,1.65-1.65-1.03-1.65-2.88,1.24-.41-2.68,1.44-4.12,2.06-2.88,6.39-.21,4.12,1.24,2.47,2.27,2.68.82,1.65-1.44.21-2.27,1.03-2.27,1.85-2.06.21-2.27,2.47.82,1.24-1.24-1.44-2.88-2.68-2.27-1.03-2.06,1.65-2.06,4.12.62,4.74-.21,2.47,1.65.21-3.71,4.74-1.85.82-3.3-1.24-2.68,3.09-.82,7.62,4.74.41,6.39-2.47,1.65.82,2.47,2.88,2.68,4.12-.21v1.85l3.3.82,2.27-1.44,1.44-2.06,2.27-.62,3.71,2.06-1.24,2.27,2.68,2.47,2.88-.41,2.27,2.06.41,2.47,2.47-1.24.21,2.68,2.47-.82,2.68,2.06.82,2.47-1.24,5.77,3.3,2.88.21,4.33-3.3,4.12,4.33,5.15v2.88l-2.68,3.09,1.44,1.03v2.68l.21,6.39-3.71,1.85.62,2.06-1.65,1.85,1.44,5.56,2.68.62.41,2.27-2.27,2.88-.21,2.27-6.59,4.95-4.33-2.88-3.09,1.44-1.03,3.3.82.82,2.47-.82,2.47,1.65-2.88,2.47-3.5-.21,3.09,1.85,1.65,4.12-4.95-.62-1.03,3.09-2.88-2.47-1.24,2.06-3.09-3.5-2.68-1.65-3.5,3.3-1.65-1.03-1.03-2.27-2.68-.21-.62,2.68h-5.15l-2.06-3.71.62-3.92,3.3-.82.21-1.65,1.65-1.44v-1.03l-1.65-1.03-.41-1.24-2.47-1.03v-1.85l-2.47-.41-2.06-2.47-2.47-.21-1.24-.82,2.27-1.03,1.44-4.12-1.44-2.06-3.5-.21-.41-2.68-3.09-3.09-2.27,1.44-3.3-1.44.82-2.68-.21-3.3-1.44-1.44-3.5-.21.82-4.33,2.27-1.24-1.03-1.85h-2.68l-1.24-2.06-2.47-1.65v-2.06l1.65-1.24-2.06-2.68,1.44-3.09,6.39-3.09-1.03-1.03-4.95-.41-3.5,1.85.41,2.47-2.27.82-2.47-.41-1.44-2.06-2.06,1.65Z"/>
  <path id="mu_x5F_086" class="cls-1" d="M535.14,644.61l-.21-2.68,3.3-1.44-.41-9.48-2.47-2.88-4.12.82,3.09-3.3.41-4.33-2.27-1.24-.62-3.5,2.06-1.03-.62-4.33-1.24-2.27,1.85-1.03-.41-2.47,3.3-3.71,3.71.21,2.06,2.88h3.71l1.44-2.47-4.12-3.92.41-2.88,1.65-1.03-2.06-1.85.82-1.24,2.88.41,2.06-2.06h2.68l-.21-2.27,1.85-1.65h3.5s2.27,4.33,2.27,4.33v2.06l3.3.21,2.06-3.92,4.95-2.68,2.47,2.06,4.12-1.85,2.88,1.85,1.65-1.44,1.85,1.44,2.27-.41,1.03,2.88,2.27,1.65-1.24,2.47h-2.68l-2.68-.82-1.44,2.27,1.03,2.27-3.71,6.8.41,7.42-1.24,2.88,2.06,1.03,2.06-1.65,1.24,2.47-2.68,2.68,2.88,3.3-.82,1.85-2.47,2.27-.41,2.68-1.44.62-2.27-.82-4.12,2.06,4.53,3.09,2.47-.21v2.68l1.85,2.06h8.04l-1.85,4.33-3.09-1.44-.62,2.27-4.12,3.5-1.44-1.44-2.47-4.12-1.44,7.42-.82-3.09-2.88-.21.82-6.59-6.8,6.59-3.5-2.68-3.3,1.03-.62-2.88-2.06-1.85-1.65.62.62,2.68-1.24,2.88-3.5-2.47-4.33,1.03-2.06-3.71-1.44,3.09-1.24-1.24-3.5,1.44Z"/>
  <path id="mu_x5F_087" class="cls-1" d="M664.13,822.45l.62-2.68h-2.06v-2.88l-1.44-3.71-2.27.62-2.06-.82-1.85.41-1.44,1.24-2.27-.82-3.3-3.5,4.53-2.06,1.24-4.74h1.85l.82-2.27-1.65-2.06,1.44-1.03-.62-1.85h3.09l1.65,2.47,2.06-5.98-3.5-3.3v-1.85l1.44,2.06,3.92-1.03-2.27-4.12-5.36-2.47,1.65-6.18,2.47-3.71,2.47-1.24-1.03-3.5-2.68-.21-.41-5.36-5.15-2.68,2.47-2.47,2.68.21,1.65-2.06-1.03-3.09,2.68-1.85-2.88-5.15h-6.18l-2.47,2.27-1.44.21-.82,4.33-3.92.62-1.65,1.24h-1.65l-1.03-3.5-4.74,2.27-1.03-2.47,2.06-1.44-.41-3.5,3.5-6.39-2.47-1.44.41-4.33,3.92-.82,2.27-2.47-1.03-6.18,4.74,2.47,1.65-1.03-.41-2.47,1.24-.62-4.95-8.86.82-2.68,3.71-3.3,4.53-2.47,2.68,4.12-.62,1.65,1.65,2.68-.21,3.5,3.92.82,3.92-.21,4.53,2.88-.62,3.92,2.06,3.71h5.15l.62-2.68,2.68.21,1.03,2.27,1.65,1.03,3.5-3.3,2.68,1.65,3.09,3.5-.41,2.27,2.06,2.27,2.68-1.65,1.65,2.47-.41,1.65,1.44,1.44-4.74,7.42-2.27-.21-1.85,1.44v2.47l-6.39,3.92-.82,3.71,2.27.82.41,3.92,3.71,3.71,2.06-.82,3.92,4.53,4.12-1.85.62,2.06-.82,3.5-2.47,1.24v1.65l-2.06,2.47,2.06,3.3,4.53,3.3,5.56.21.21,1.44-1.65,2.06,2.27,9.07,4.33-.41,1.65,5.15-1.44.21.62,6.39,5.98,4.95h-7.83l-2.27,5.98-3.5-2.47-3.3,2.68.82,4.33,3.09,2.27h-4.12l-4.33,2.27-2.06,4.53-1.65.21-.41,2.88-3.3,2.68.41,1.65-5.36.82-5.15-1.65-3.5-5.98-3.09-.62.62-3.5-2.47-2.88,1.24-2.68-3.3-1.44v-3.92l-5.15,3.3Z"/>
  <path id="mu_x5F_088" class="cls-1" d="M479.5,540.55l-1.44-1.85.41-5.98,1.03-5.56-3.09-2.68-3.71.21,2.27-3.5-2.06-1.65-.41-6.8-2.88-2.06,1.03-4.53,3.3-.21,1.24-4.33,2.47.62.62,2.47,2.68.41.82,2.06,3.71-1.65-1.85,2.68-1.65.82-.62,1.65,1.85,1.44h2.88l5.15,3.3,3.5,7.21,4.53-.41,1.44-2.27,3.09-1.65-.41,3.92,1.44,1.65,1.03,3.09,1.24,2.06-2.06,4.12,1.65,2.68,2.06-.82,3.3.41.41-3.71,1.24-.62h2.88l3.09,2.06,1.85-2.68h1.44l-.41,4.53,2.47,2.68,2.06-.62,1.03,2.47,3.3,2.47,1.65-2.68,2.68-.62,2.68,1.44,3.09-.62,2.88,2.88,1.24,4.12-4.74,2.47,3.09,1.85,1.24,4.12-2.06,1.65,3.09,1.85-1.65,2.88-1.44,4.33-4.95,1.24-5.36,3.92-5.15-.41-2.27,9.48-1.85-2.06-1.24,4.12-5.36-1.44-2.68-2.27-6.39.62-1.85,1.44-2.47-1.85.82-7.62-2.27-1.85-4.12,4.12v2.06l-2.06,2.27-.21,2.06-6.18,5.15-1.03,1.44-4.33.41-.82-1.24,3.92-1.85.21-3.92,3.3-5.77-2.27-1.65.41-4.74-2.27-1.24-.41-1.85,2.27-3.5-3.09-9.07-2.88.41-1.85-1.24.82-2.47,3.71-2.06.21-3.09-5.98-2.68Z"/>
  <path id="mu_x5F_089" class="cls-1" d="M588.3,592.07l-2.27-1.65-1.03-2.88h2.68l3.3-4.53,1.65.82.41-5.15,1.85,1.65,1.24-3.09,5.77-1.65,1.85-2.06,1.44,1.44,5.98-.62-1.65,2.47-3.3,1.24-1.03,2.68,1.03,5.77-1.03,7.21-2.06,3.3-5.56-1.65-1.24,1.85-4.53-5.77-3.5.62Z"/>
  <path id="mu_x5F_090" class="cls-1" d="M453.12,559.1l9.07-1.24,9.27-7.42,1.85,2.06,1.44-8.86,4.74-3.09,5.98,2.68-.21,3.09-3.71,2.06-.82,2.47,1.85,1.24,2.88-.41,3.09,9.07-2.27,3.5.41,1.85,2.27,1.24-.41,4.74,2.27,1.65-3.3,5.77-.21,3.92-3.92,1.85.82,1.24v5.77s-2.06,3.71-2.06,3.71l6.8,1.03,1.44,3.3,6.8,6.39-2.68,1.85-1.85-1.03-4.33,2.27-5.77-.21,2.68-3.5-2.47-2.06-.62-2.88-2.27-.41-2.88-3.5-2.88,1.03-3.5-1.85.62-3.3,2.88-3.71-1.44-4.53,1.44-4.12-.21-4.33,1.44-4.74-4.53,2.47-2.06-1.44,1.65-5.98.62-1.44-2.47-2.47-4.12.21-.62,1.24-7.01,3.3v-2.88l-5.36,3.92-2.27-2.27v-2.06l2.47-2.88-3.5.82-2.68-.82,2.47-2.68,5.15.41Z"/>
  <path id="mu_x5F_091" class="cls-1" d="M791.28,335.52l-1.44-2.06-.21-4.53-3.71-1.44.41-2.27-3.71-4.12-3.3-1.24,5.15-4.33,7.01-5.98,1.24-5.56-3.5-2.68,1.24-1.65-1.44-2.68,1.44-.41-.41-4.53h1.44l2.47-3.5-2.06.82-1.24-3.09,3.3-.62-.62-1.85,1.44-2.68,1.44-.62-3.3-4.12,2.47-3.09-6.39-.21-3.71-2.06-3.71.21-1.03-1.85,1.44-2.27-.62-2.88-4.12.62-2.27-4.74h-1.24l-.82,1.03-5.56-1.44-3.3-11.54,2.06-1.85-5.36-2.06-1.65-1.44,1.85.41v-1.65l2.27.21,4.95-3.3,3.09-5.77,1.44,5.36-1.65,3.5.62,6.59,2.27-1.65,1.24,2.27,1.85.41,1.03-2.47h1.03l3.71,6.18,5.98,4.12,4.33-.21,2.88,6.8,3.3,1.85h2.27v2.27l3.92-2.27v-2.27h1.44l2.88,3.5,1.44-2.68,5.15-.41,6.8-5.98,2.27-.62,1.85-2.88,4.74-1.03.82-1.65,2.27-1.03-1.65-1.03-.21-2.06,4.95-3.5,3.09,1.24-.41,1.24,4.53,1.65-1.24,1.24.62,4.53-2.27.82-2.06,6.59,2.06,1.24-1.24,5.77,2.88-1.85,1.03-3.3,2.68.21.62,5.98-.41,3.92,1.03,2.27-3.3,3.92-4.33,2.06-1.44,4.74.62,4.74-4.12,1.85-1.85,2.27,2.27,1.85,1.03,3.3-2.68,2.47-3.09-1.03-1.85.41-1.44,3.92.62,1.65-4.12,5.77-2.88-.21,2.47,5.36-8.24,5.77-1.44-1.24-.21,2.68-2.47-1.44-2.47,1.85-.62-2.06.82-1.85-1.65-.82-1.65,3.3-3.5-2.47-2.68,1.85-2.27-1.24-.82,4.12-2.47,2.27,2.06,2.27-1.24,2.27-2.27-.62-.41,2.88-2.27-.41Z"/>
  <path id="mu_x5F_092" class="cls-1" d="M621.89,580.32l2.27-2.47,3.09-2.06-2.68-2.68v-5.36l2.27-1.44,1.03-1.85-1.44-2.88,4.74-.62-1.03,2.47,2.47,3.3,4.74-.82,3.3,4.12h5.36l1.85-2.47,2.06,2.06,5.77-.41,5.98,3.5.82-1.24,8.86,3.09.21,1.85,7.21,2.06-1.03,2.68-4.74-1.03-.62,2.06-5.56-.82.21,2.06,1.85,4.33,2.27,2.06-3.92,1.85-4.33-1.44-3.09,2.47,2.47,3.3-1.24,7.01-1.85.82-3.71-3.92-.82-2.47-5.98-2.47,3.09,4.74-1.44,2.88-3.3,1.24-3.5-.82-5.15-4.95-.21-4.95-4.74.62-1.44-3.5-4.33-2.88-4.53-1.65v2.68l-1.65,3.3-1.85-.21-.82-2.27-3.5-1.03-.41-1.85,3.92-2.68.21-1.65h2.47l.41-1.65Z"/>
  <path id="mu_x5F_093" class="cls-1" d="M744.5,476.26l-5.77,1.85,3.09-4.12-6.8-1.24.41-5.36,4.95-.41v-2.06l-3.92-1.65,3.3-3.3-2.88-3.3,18.75-2.88.21-2.68-1.85-1.65.82-5.56,2.27.21-.82-6.59,2.47-.21-2.27-2.06,1.65-1.03-1.85-5.77,1.44-1.85h-4.53l1.03-3.5-3.09-.82-2.47-5.15h-3.5l-3.92,4.53-6.59.82v-2.27l-4.53-3.09.62-2.68,2.06-1.03-2.06-1.03-.62-2.06,3.3-6.8,2.68.21,2.06-3.09-.62-5.36,4.95-5.36,1.85-.62-.21-2.06,1.44-.82,2.88,4.53h1.24l.82,2.27,1.65-1.44-.21-2.27,4.74-1.65,4.12-2.68.41-1.85,5.98-3.3.62,3.09,6.59-1.44.21,7.42h7.83l-.21,5.36,4.12,3.5,4.12-4.95,1.03,2.68-2.68,2.88,4.12,3.3,4.95.41,6.18-2.06,3.5-3.71,4.12,8.86,3.3-.21,1.65,2.68,2.88-.41,2.88,2.88v7.42l1.44,1.85-3.92,1.03-.41,3.5-5.15,1.24.21,2.88-4.53,2.88-2.88.21-4.53,5.98v5.36l1.85,6.59,5.15,2.06,2.47,3.3-1.65,2.06,1.03,6.39-2.27,1.03-1.24,4.95-2.06-4.33-6.18,3.09.21,2.06-9.89,5.36-8.04-4.74-2.68,2.47-5.36.62.41-2.06,3.5-.82.62-4.53h-2.06l-3.71,2.47-1.44,4.53-4.33.62-2.06-2.88-4.74.82-3.92-4.12-1.03,4.95-2.27,3.09-8.45.62Z"/>
  <path id="mu_x5F_094" class="cls-1" d="M591.39,297.6l5.15,3.3,1.03,2.06h1.65l-.21-3.3,3.09-7.42,2.68,1.44,4.74-2.88-.41,3.5,3.3,6.39,2.88,2.47.82,3.09-2.06,5.15-5.98-.62-2.27,1.85-2.68-1.85-.21,3.5-1.85,2.06-1.85-2.06-2.06-.41-1.03-2.06-3.3-1.44-.21,2.27-4.74.62-3.5,1.65-1.24-.82-1.03,3.09-3.92,1.65-3.3-2.06-1.03,2.68-2.27.82-.21,7.01,1.65,2.68,3.71-4.33,4.33.41,1.65-1.65,1.85,2.88,1.44-1.65h2.68l.62,1.65-1.03,1.24.41,1.85-.62.41.41,4.74-.21,3.71-5.77.62,7.42,6.18,2.06.82,1.85,2.68-.41,4.12-3.92,2.47.41,2.27-3.92,3.71.41,3.09-2.06,1.85-.41,7.42-2.06.21-1.03,4.53,4.33.62v4.95l6.8-5.77,3.09.41-.41,3.3,1.24,1.65-2.68,2.27-2.68.21v2.47l3.09,4.12-2.06.82v2.68l-7.42,11.95-4.53,1.03-4.53-3.09-2.47,1.24-3.3-3.71-1.03,1.44h-3.3l-1.44-2.27-3.09,4.33.21,4.53,3.3,2.27-1.24,2.27-1.65.41-1.44,1.85-3.5,14.01-3.3-2.06-2.27-.21-3.3,2.88h-7.62l-8.04-5.15,3.5-2.88-1.03-3.71,1.65-.21-.21-3.09,2.88-3.5-2.68-1.44.41-2.68-5.98-2.88,1.85-1.24-1.65-2.47-2.47,2.88-3.09.21-4.53-7.01,5.15.62,3.09-3.3-.21-2.06,3.5-1.24,4.95-3.92,1.03-4.12,1.65-1.85,1.85-.21.21-5.36-2.06.21-1.85-1.44.21-1.65,3.5-.21-.41-1.44,1.85-1.24.41-2.06-6.59-2.47-2.06,2.68-3.3-.62-3.3-1.03-2.27-2.47-2.27-.21-9.68-10.72-1.65,1.24h-4.53l-5.36-6.39h-2.68l-.21-5.15,1.24-.82-.62-2.06,3.09,1.03-.41-2.47,2.88,1.85.62-1.24,2.06,2.47-.21-2.68,1.03-1.65,2.06,1.65-.62-4.53,3.09-.21-.21-2.27,6.59-4.33,3.09.82,2.27,3.5,4.33,1.03-1.03-3.71-1.03-1.24.82-1.44,2.27,2.06,1.03,5.15,2.47-.82,1.03,2.06,1.24-2.88,2.47-1.44,3.92-.62,4.33,1.85,4.95-2.27-1.65-4.12.82-3.3,2.88-1.03-.21-2.27,6.39-1.85.41-3.09,3.5-1.65,3.09-7.01,3.71-3.92,4.33.41.41-3.5,7.83-2.06,4.95-3.3,2.89,1.24Z"/>
  <path id="mu_x5F_095" class="cls-1" d="M556.36,435.25l10.1,1.03.21,3.09-2.47-.82-1.65,2.06v4.33l-2.88.62-1.85,3.71,1.24,1.44,1.85,5.36,1.65.82v2.06l-3.09,1.65.82,2.68-4.12,4.33-2.47-.21-2.88,3.09-.21,2.27-6.59,2.47v2.47l-2.68,2.47-4.95-.41,1.65-4.74-2.47.21-2.27-3.5v-2.27l-4.12-3.5,6.59.82-4.53-4.33.41-4.95-2.06-2.47,1.85-4.33,3.92-4.53,5.77,8.65,1.03-3.92,1.85-.41,2.27-3.3-1.44-1.65,1.24-2.47h2.68l7.62-7.83Z"/>
  <path id="mu_x5F_096" class="cls-1" d="M684.12,587.95l-1.65-3.3,1.85-.82-1.85-3.09,3.3.41,1.03-1.03-2.27-1.03,1.24-1.85v-4.95l2.68-2.06h3.5l2.06,1.65,3.71-1.03,1.24,1.65,2.88-.21,3.92-4.74,4.12-.41,2.88,5.15,4.33-1.03,3.09-1.85,4.74.21,2.68,1.03,1.44,3.92,4.33,2.68-1.03,2.06-2.88.21-2.68-3.09-1.65.41.21,3.09-8.04-.21-.41-2.88h-6.59l.62,2.47-2.47.62v2.06h2.06l.21,2.47-1.24,2.47,1.24,3.3-.21,2.88-2.06-1.85-4.33,1.44.21,3.5-5.15,4.33-1.65-2.88h-2.47l-.82-1.65-2.88.82-.21-1.24,1.44-1.44-.82-2.68,1.24-1.03-.62-1.65-8.24-.82Z"/>
  <path id="mu_x5F_097" class="cls-1" d="M607.05,517.27l-2.88-3.71-2.27-7.83-5.56-4.74-1.03-5.77,2.47-2.88,2.47-1.03-2.47-1.65,3.92-6.8,1.85.21,2.68-4.33,2.27-1.85,8.45-1.44,9.07.82,3.5,1.85.21,1.85-5.77,6.59,1.85,2.06,3.5-.41.62-3.5,3.3,1.65,3.5-.62,1.24-2.47,4.95-2.27,1.85.62-1.65,2.68.62,1.24,6.18-.21,1.03,2.06,1.85-.82.82,1.44,4.95,1.85.82,1.44,2.68-.21,1.24,4.74,2.68-.82,1.24.82.62,3.3h1.24l1.03-1.65,5.15.41,1.65,1.85-2.06,1.44.41,1.65-1.85.21-1.85,1.65,1.44,2.68-6.18.21,2.27,5.98-2.88-.62-1.85-3.09-.82,5.56-5.36,4.12-3.3-.82-.62,2.06-2.27-.82-3.09,2.68-1.03,3.71-5.15,1.24-12.16.21-4.53-3.09-1.85.21-4.95-4.95-9.07-3.3-3.09.62Z"/>
  <path id="mu_x5F_098" class="cls-1" d="M629.51,478.11l2.68-.21-.82-4.12-.82-3.09,3.3,1.03,2.06-2.27,2.68.62-2.06,2.68,1.65,1.85,4.95-3.09,2.47.21,2.06,2.47,2.47-2.68v-2.06l2.68-.21v-3.5l7.21,1.85.62,4.95,5.56.62-.62,4.53,3.3,1.65v1.85l-3.09-.41.21,2.88-6.59-1.44-.41-2.88-3.5.41-1.24,1.44-1.85-2.68-3.3,2.27.82,4.53-6.18.21-.62-1.24,1.65-2.68-1.85-.62-4.95,2.27-1.24,2.47-3.5.62-3.3-1.65-.62,3.5-3.5.41-1.85-2.06,5.77-6.59-.21-1.85Z"/>
  <path id="mu_x5F_099" class="cls-1" d="M494.75,716.94l-1.85-.82.82-4.33-.41-3.09-2.47-.41-.41-1.24,1.85-.82-.62-2.27-1.44.21-2.06-2.47-.62-2.68.21-3.5,1.65.21,2.68-3.92,2.27.21,1.44-2.68,5.15,1.85,1.24,2.06,3.5-1.24.62,4.33,2.68-2.27,7.42-2.06,1.44-1.85-2.06-.41-.82-1.44,5.36-4.53,3.3.82,1.44-1.85-3.3-2.88,6.39.21,13.81.82-.82,2.27h3.92l-.21,5.98,3.3,1.44,3.09-2.06,3.71.21,1.65-1.44,2.88.41,3.5,3.71,8.45.62.82,2.88-4.12,1.24-7.01-1.24-2.47,1.24,2.06,3.92-4.74.62h-12.98l-5.77,4.33-2.88,1.85-2.68-2.27-.62,3.92,3.09,2.47-.62,2.47,3.3.41v4.12l2.06.21.62-2.27-1.24-1.65.62-1.24,2.06,1.44-.21,2.27,3.92,2.68.21,3.3-2.27,3.3,1.03,1.85-3.5,1.65h-1.65l-1.24-3.09-2.27,1.24-1.24-1.24.21-2.06-1.65-1.65-3.92,1.44,2.06,4.74-14.63-4.12-1.44-2.88.41-2.06-5.77,1.03-7.42-2.88-2.68-2.47-.41-1.24-1.65.21-2.06,2.47Z"/>
  <path id="mu_x5F_100" class="cls-1" d="M193.07,558.89l4.74.21,7.83-3.92,4.12-2.88-.41-4.33,2.68.21,7.01,4.12,4.53-1.44.62,2.88,3.3.21v4.12l2.27,4.53,3.71.41,8.04-3.92,3.5,2.27,5.15-3.92,1.24,6.8,1.85,2.27,5.56-3.3,7.42,1.03,6.39-5.15,3.3.82,7.62-2.68,2.27,2.27-.82,3.09,2.68,1.44,2.27-1.03,1.65,3.71,2.06.21,6.18,7.62,4.12-.82,4.95,3.71-1.24,2.06,1.24,5.56,3.09.21,3.92,5.15,7.01-.62.41-1.85,3.3,3.09.21,2.47,7.83-4.74,7.21-.21,1.24,1.44,3.71-2.06,4.53-.82,2.06-6.18-2.06-2.47,1.03-2.47h2.27l1.65-3.09,4.12-2.68,5.56-.41,1.85,2.06,4.95-3.09,1.65,2.06.21,3.3-2.06,1.65,4.12,3.71,2.68,1.03.21,1.65-4.33,3.71,5.98,1.65,2.27,2.88-1.85,4.33-2.68-.82-1.44,3.71-5.56-2.47h-3.5l-2.47,3.71-2.68-.41-.41,3.92-3.71-.41-1.24,2.06-2.27-1.65-5.15,4.53-1.85,5.15-6.39,2.27-7.01.82-.82,7.01-2.68,3.09-3.3-3.3h-3.5l-1.65-2.47.82-1.24-1.44-2.06-2.06,1.44-.21,1.85-4.74,1.65-.41,5.56-2.06.82-5.77-4.33-3.71,3.92,3.09,3.92,1.24,3.3-2.68,1.85-.21,2.47-2.47.62.62,2.06-1.85,5.98-2.88.62-.82,4.74-3.92,1.24.41,2.06-3.09.41-1.65,1.85-4.95.82-2.27,3.09-3.09.62-1.85-2.27h-2.27l-3.5,4.53,1.85,1.85-3.92,1.03,1.24,2.06-.41,4.33-4.95.41-1.24,3.71-6.39-.62-10.1-7.62,1.85-.41-4.74-7.42-2.27-.41.21-1.44-8.04-9.69,1.03-1.24-3.3-7.21-9.48-10.92-21.43-31.53-8.65-19.16-2.06-2.68,1.65-1.44-.41-14.84,1.03-2.88Z"/>
  <path id="mu_x5F_101" class="cls-1" d="M665.99,483.68l-.21-2.88,3.09.41v-1.85l-3.3-1.65.62-4.53-5.56-.62-.62-4.95,2.68-2.06.62-5.98-.82-4.53,1.65-1.65,3.71,1.65,1.03-1.85,4.53,3.92,3.3.62,3.5,3.5.82,2.68-1.85,2.88.62,2.68h3.3l2.27,2.88,2.88-2.06,1.65,1.03-2.47,3.3.41,5.56,2.47,2.06-2.68.82v2.06l-2.47,1.24-2.06,4.74-1.65-.21-1.44-7.21-5.15-.62-1.03,3.5-7.83-2.88Z"/>
  <path id="mu_x5F_102" class="cls-1" d="M500.31,653.27l1.44-2.47-2.27-3.92,1.44-1.44,2.88.82,1.85-4.74-1.65-2.27,2.47-2.27,1.03-3.71,4.33,2.06,3.09.21,1.24,2.47.82-4.12-1.65-1.44-.41-4.12,2.47-4.95-2.06-.62.62-2.47,1.85.62,1.65-3.09-.41-3.3,7.21-2.27.62-3.3,4.33-2.06,1.24-2.68,1.03,1.24.41,2.47-1.85,1.03,1.24,2.27.62,4.33-2.06,1.03.62,3.5,2.27,1.24-.41,4.33-3.09,3.3,4.12-.82,2.47,2.88.41,9.48-3.3,1.44.21,2.68-1.65.62-1.03,2.68-3.71-.21-4.53,1.65-3.5,5.15,2.06,5.15,3.71,2.06-1.44,1.85-5.98-.41-14.01-2.06,1.24-2.06-1.44-.82-.21-1.85-2.88-.41-1.44-2.68Z"/>
  <path id="mu_x5F_103" class="cls-1" d="M588.3,712.41l6.39-1.85,2.47,3.5,1.24.21v2.88l2.27,1.24h1.65l.62,2.27h1.65l.82-3.92,2.68,5.15,6.8,3.92,2.06-.21,1.65,3.09-2.27,3.09v2.47l4.33,1.44-1.03,2.47,1.65,3.09-4.12,2.68-.21,1.65-.82.21-1.03,4.74-1.85-1.85-1.44.82-4.53-2.27v-2.88l-6.39-8.45-2.47-.21-1.85-1.24-.21-4.74-7.62-8.45.41-4.53,1.44-1.65-2.27-2.68Z"/>
  <path id="mu_x5F_104" class="cls-1" d="M610.56,144.7l1.85-2.27,3.71-.82-1.24,2.27.82,2.88h5.77l1.65-1.85,1.24,2.27,2.27-.21.82-1.85h3.09l1.65,3.5,3.09-1.03,3.71,3.5-1.65,2.06,1.85,1.44v3.92l4.95.82-1.65,1.85,1.65,3.5-2.68.82.21,3.09,2.47-2.47.82,3.71,6.18,1.24-.21,2.27-2.47,3.09,2.06,1.24-.82,1.65.21,3.3.41,6.39-6.8-.41-2.68,1.65-.62,2.47-3.92-2.27-5.36,6.59-2.68,5.15-1.24,4.53-2.68-1.65-1.44,2.27,1.03,3.5-2.47.21-3.3-2.88-.82-2.27-5.77,3.71.82,2.68-9.27.82-3.92-1.03-1.24-2.27-2.06.62-3.5-4.74,1.03-7.01h4.74l2.47-2.88v-3.92l7.42-1.03-.21-4.74-5.15.21,1.24-3.3,5.56-5.36,2.88-1.85-4.33-.62-3.3-1.85,7.42-2.68-2.68-2.06.82-4.95-2.06-1.85-.82-7.83,1.65-4.33,3.09-3.3-1.65-1.65Z"/>
  <path id="mu_x5F_105" class="cls-1" d="M768.61,513.35l-2.27-13.39-3.92.21-5.36-8.65-5.56-.41-4.33,3.09-4.33-6.8,2.47-5.36-.82-5.77,8.45-.62,2.27-3.09,1.03-4.95,3.92,4.12,4.74-.82,2.06,2.88,4.33-.62,1.44-4.53,3.71-2.47h2.06l-.62,4.53-3.5.82-.41,2.06,5.36-.62,2.68-2.47,8.04,4.74-1.65,2.27-2.27-.21.21,3.71,5.36.41,3.5,1.65-2.27,5.36h3.71l-2.88,5.36-2.88-2.27-7.01,2.68-.62,4.53-1.44,1.44,3.09,2.47-1.03,3.09-3.09-.21,1.03,3.71-8.45,5.36-3.09-4.74-1.65,3.5Z"/>
  <path id="mu_x5F_106" class="cls-1" d="M487.54,699.01l-3.5-.21-2.68-7.42-2.47-.41-1.85-1.24.41-3.5-1.44-2.27.62-3.09-1.44-1.44,5.98-6.8h-1.85l-.82-1.03,6.39,1.03,2.88-1.44-2.88-3.92,2.27-1.65-1.44-1.03.41-2.88-1.44-1.03,1.65-.62.21-2.47-2.06-2.06-1.85-1.85.82-3.71,3.09-3.5,1.44-.21,1.65,3.71,5.15,4.33,5.56-1.03,1.44,2.68,2.88.41.21,1.85,1.44.82-1.24,2.06,19.99,2.47,1.44-1.85,2.88,1.24,2.47-2.27,2.27-.62,2.27,2.68,2.68,2.68-.82,1.65-1.65.21-.82,2.47h-5.56l6.8,2.68-3.5.62-5.36,7.01-6.39-.21,3.3,2.88-1.44,1.85-3.3-.82-5.36,4.53.82,1.44,2.06.41-1.44,1.85-7.42,2.06-2.68,2.27-.62-4.33-3.5,1.24-1.24-2.06-5.15-1.85-1.44,2.68-2.27-.21-2.68,3.92-1.65-.21-.21,3.5Z"/>
  <path id="mu_x5F_107" class="cls-1" d="M671.14,589.8l-2.27-2.06-1.85-4.33-.21-2.06,5.56.82.62-2.06,4.74,1.03,1.03-2.68-7.21-2.06-.21-1.85-8.86-3.09-.82,1.24-5.98-3.5-5.77.41-2.06-2.06-7.21-3.5.21-3.3,3.09-3.92.62,2.47,6.8,1.24,3.71,3.5,8.86-.41,4.33,3.09h4.12l1.03,2.06,3.09-.41,3.3,4.12,2.47,1.65,3.5-1.85v4.95l-1.24,1.85,2.27,1.03-1.03,1.03-3.3-.41,1.85,3.09-1.85.82,1.65,3.3-1.85,1.65-.41,4.95-1.85,1.65-1.65-1.24v-2.06l-2.27-2.06-4.95-1.03Z"/>
  <path id="mu_x5F_108" class="cls-1" d="M588.3,712.41l-5.98-.82,2.27-3.5-3.5-1.24,3.71-.82-.82-5.56h2.68l1.65-3.3,2.47,1.65,3.3-3.71,3.92-1.85,1.44-3.5,3.5-2.06,4.74-.82-1.44,4.53,2.27-1.85,1.85,2.68,5.98-1.44,2.27-2.47h1.85l7.62.21,10.92,7.21,2.88-3.3,4.74,1.85,1.85,2.27,1.85-2.27,2.47,4.33-3.3,2.06-1.24,3.92,1.44,2.06-3.71,3.3-.82,2.68,4.95,8.86-1.24.62.41,2.47-1.65,1.03-4.74-2.47,1.03,6.18-2.27,2.47-3.92.82-.41,4.33,2.47,1.44-3.5,6.39.41,3.5-2.06,1.44,1.03,2.47-1.85,6.59,1.65,2.68-2.68,2.47-3.09-.21-.41,4.33-5.98,4.33-3.71-1.65h-1.24l-1.44-1.44h-2.68l-3.5,2.47-.62-10.51,2.68-3.71h2.06v-1.65l-1.65-.82,1.85-1.24v-3.3l1.03-4.74.82-.21.21-1.65,4.12-2.68-1.65-3.09,1.03-2.47-4.33-1.44v-2.47l2.27-3.09-1.65-3.09-2.06.21-6.8-3.92-2.68-5.15-.82,3.92h-1.65l-.62-2.27h-1.65l-2.27-1.24v-2.88l-1.24-.21-2.47-3.5-6.39,1.85Z"/>
  <path id="mu_x5F_109" class="cls-1" d="M885.03,364.78l-2.88-4.33,2.68-6.8,3.5-1.44.41-1.24-3.5-1.65,2.88-1.03,1.24-2.06,2.68.82,2.47-2.06-1.03-4.33,2.06-8.04,2.27-1.03,2.27-.82,6.8,5.56-4.12,2.68,4.33,3.71,3.09-4.33,3.92.41,1.03-2.27,2.06,5.36,4.12-4.74-1.44-3.71-2.88-.62,1.65-2.68,4.33,2.47,2.88-3.3.21,2.88,2.47-1.65,2.27,1.65h1.65l1.44,1.44,8.86.41,1.44,2.47h1.65l3.71,5.36.82,4.95,2.06,1.03-.82,3.71,6.39-1.24.82-2.27,4.12-1.65v-1.65l6.18-2.47.62,5.15-1.44,1.24v7.01l-1.24.62-3.5-2.68-2.06,3.3,1.44,1.85-2.27,2.06-3.09-.62.62,3.09,2.27,1.03v3.09l-3.5,1.65h-6.8l-1.85,2.47,1.03,3.09-2.27,2.06-1.65-1.24-5.98,5.15-3.71-3.5-.62,1.85-3.92.41-2.47-2.88-1.85,3.71-19.16,2.27-1.65-3.3,2.06-2.68-3.09-1.85-.41-2.68-2.27.41-2.27-2.06-.41-2.88-2.27-1.65-5.77,4.53v-4.74l-4.95,1.24-1.65-2.06Z"/>
  <path id="mu_x5F_110" class="cls-1" d="M434.99,620.09l-1.65-1.44-.62-3.09,1.24-2.88-.62-3.5,2.06.21.41-1.85,1.65-1.24,1.65-.21.62-3.09,1.85,2.68,3.09-.82.41-6.18-3.92-5.36,1.24-2.47,2.88,3.92,1.44-2.06v-2.27l2.06,1.24.82-2.06-1.44-1.44-.21-2.27,3.09-1.03,1.44-1.65,4.53,2.06-1.44-3.09-.41-3.5,2.06-.21,4.12-2.27,1.85,3.3,1.85-.62,3.71-3.3v-2.88s2.06,1.44,2.06,1.44l4.53-2.47-1.44,4.74.21,4.33-1.44,4.12,1.44,4.53-2.88,3.71-.62,3.3,3.5,1.85,2.88-1.03,2.88,3.5,2.27.41.62,2.88,2.47,2.06-2.68,3.5-.41,3.92-2.47.41-2.27-1.44-3.09,1.65.21,2.47-2.47,3.71-3.5-.62-2.06,8.65-3.92,1.44-.82-2.06-2.06-.21-2.27-2.47-.41,4.12-2.27-2.06-4.33.21-1.03.82,2.06,2.88-1.44,4.12-2.27-.82-.62-2.27-2.06.41-1.44-1.44-1.65.21-.21-2.06-2.27.41.21-1.44h-2.06l-1.03-3.09h-1.85l1.65-3.71-1.44-1.24Z"/>
  <path id="mu_x5F_111" class="cls-1" d="M761.19,383.32h-3.5l-2.06-1.44,1.44-1.44-.82-2.06-1.65-1.44,2.06-2.27,5.77-.41.62-1.24,1.65,1.85.41-3.71,3.71-4.53,1.44,1.44,2.27-.62-1.24,2.88,3.5,1.85,3.71-5.56,1.24,2.68h2.68l1.65-5.77,2.68,1.24,4.12-4.74,2.47,4.53,2.27-2.27-2.68-3.5h5.56l3.3,2.27,4.12-2.27.41,3.5-3.3-.41-.62,2.47,5.36,1.24,3.71-1.03-.41,8.24-2.06,3.09,2.88,5.36,4.53,2.06-3.92,3.71-1.65-1.44-5.15,4.53.41,1.85,2.68,1.65-1.24,2.88-3.5,3.71-6.18,2.06-4.95-.41-4.12-3.3,2.68-2.88-1.03-2.68-4.12,4.95-4.12-3.5.21-5.36h-7.83l-.21-7.42-6.59,1.44-.62-3.09-5.98,3.3Z"/>
  <path id="mu_x5F_112" class="cls-1" d="M713.38,653.47l4.33.82-.82-4.74,1.65-1.85v-2.47l1.44-.82-.41-1.85,1.03-1.24-.82-3.09-.82-2.27,1.24-.62.21-1.65-2.88-3.3,1.85-9.07-3.3-.82-1.03-4.53.21-2.68h1.65l1.44-3.3,2.88.21,5.56-2.47,2.06,1.03-.41,2.06,2.06.41.62-1.24h1.65l3.09,3.3.21,3.71-2.47,3.5.62,8.86-2.27,1.65h-2.27l-2.68,1.24.21,1.65-2.27,2.06-2.68-.21-1.24,1.85,1.85,2.68-.82,3.09-.41,2.27,1.03,1.03-2.06,3.5,1.65,1.85,2.06-.41-.21,3.71-3.5,2.27-.62,3.92,2.68,1.24-.62,2.88,3.71,2.27-1.85,2.47.62,3.3,2.27.41,2.27,3.3-2.47,3.92-2.88.41-.82,3.5-.41,2.68-3.09-.21-3.92-2.27v-2.68l-1.44-1.03,2.68-3.09v-2.88l-4.33-5.15,3.3-4.12-.21-4.33-3.3-2.88,1.24-5.77Z"/>
  <path id="mu_x5F_113" class="cls-1" d="M572.23,694.89l-.82-2.88-8.45-.62-3.5-3.71-2.88-.41-1.65,1.44-3.71-.21-3.09,2.06-3.3-1.44.21-5.98h-3.92l.82-2.27-13.81-.82,5.36-7.01,3.5-.62-6.8-2.68h5.56l.82-2.47,1.65-.21.82-1.65-2.68-2.68-2.27-2.68-2.27.62-2.47,2.27-2.88-1.24-3.71-2.06-2.06-5.15,3.5-5.15,4.53-1.65,3.71.21,1.03-2.68,1.65-.62,3.5-1.44,1.24,1.24,1.44-3.09,2.06,3.71,4.33-1.03,3.5,2.47,1.24-2.88-.62-2.68,1.65-.62,2.06,1.85.62,2.88,3.3-1.03,3.5,2.68,6.8-6.59-.82,6.59,2.88.21.82,3.09,1.44-7.42,2.47,4.12,1.44,1.44,4.12-3.5,1.24,1.65-.82,2.88,5.77,2.88,3.3,3.92-3.5.82,2.27,2.06-1.65,6.39.62,4.33,4.95,2.68,5.15,2.68-1.85,2.47,1.65,4.33h3.3l-1.85,2.47h4.53l2.47,2.68-4.74.82-3.5,2.06-1.44,3.5-3.92,1.85-3.3,3.71-2.47-1.65-1.65,3.3h-2.68l-2.88-.62-1.85-6.18-2.47,1.24h-4.53Z"/>
  <path id="mu_x5F_114" class="cls-1" d="M560.69,547.35l-3.5-10.72h2.06l.21-3.09,1.44-.21v-2.68l2.47.41,2.47-4.33-1.65-6.39-3.3-.41,1.24-4.53,1.85-2.06-1.03-1.24.62-1.24-1.03-3.5h-4.53l-1.65-5.36,1.24-3.09-2.06-1.85,1.85-3.3,2.06-.41.41-1.24-2.27-1.24,3.09-2.47,8.04,5.36,3.3-.21,3.09-2.27,1.44,1.44.21,3.71v7.83s1.24.82,1.24.82v3.3l1.65,3.3,4.95,2.06,1.65,2.06,4.12-1.85-1.65,3.71,1.03,4.95,1.85-.62-.41,10.3-2.27,3.92-7.62-3.5.62,2.27-1.24,2.88-3.5-1.24,1.65,5.56-4.12.21-1.03,2.88-3.5.62,1.85,3.3-.41,2.27-4.53,1.44-2.27-2.47-.41-2.88-3.71-.21Z"/>
  <path id="mu_x5F_115" class="cls-1" d="M579.61,141.91l3.75,1.96-2.88,1.03,1.24,1.65,3.09-.62.62,2.06h3.09l2.06-1.24,2.47-.21,1.03,1.65,2.88.41,2.88-3.3,2.27,1.65.82-2.68-1.03-1.85,4.53-2.47,2.68.62,1.44,4.12,1.65,1.65-3.09,3.3-1.65,4.33.82,7.83,2.06,1.85-.82,4.95,2.68,2.06-7.42,2.68,3.3,1.85,4.33.62-2.88,1.85-5.56,5.36-1.24,3.3,5.15-.21.21,4.74-7.42,1.03v3.92l-2.47,2.88h-4.74l-1.65-2.27-3.3,2.06-2.47-4.33,1.44-2.68-.41-4.53-5.77-.41-.82-4.95-3.71-.41.82-3.3-3.3-1.03-2.06-1.85-5.77-.41-4.53,3.09-1.65-.21-1.44,2.47-1.44,3.71-4.53.41-4.12-.82,3.09-3.5-3.3-.21-1.85-1.85.41-2.88,2.27.21,1.03-3.3-1.55-5.17,3.08.88,4.4-3.52.88-2.2-4.4-6.15-4.4-1.76,1.32-8.35,1.76-3.08-2.2-3.52,1.32-1.32,3.08,2.2,3.52-2.64-.44-1.76h3.08l3.52-3.52,3.08,4.84,5.28-1.76v-3.96l2.64,4.4,2.64-.44,1.32,3.52-1.32,2.2,2.64,1.32Z"/>
  <path id="mu_x5F_116" class="cls-1" d="M838.26,243.82l-4.95,3.5.21,2.06,1.65,1.03-2.27,1.03-.82,1.65-4.74,1.03-1.85,2.88-2.27.62-6.8,5.98-5.15.41-1.44,2.68-2.88-3.5h-1.44v2.27l-3.92,2.27v-2.27h-2.27l-3.3-1.85-2.88-6.8-4.33.21-5.98-4.12-3.71-6.18h-1.03l-1.03,2.47-1.85-.41-1.24-2.27-2.27,1.65-.62-6.59,1.65-3.5-1.44-5.36,3.71.62,2.27-1.44-.21-2.47,2.06,1.44,3.3-.41-1.44-2.27,1.44-1.44.41-1.85,2.06.41,2.27-2.47h3.92l1.65,1.03,2.06-1.65,4.95,3.71,2.27-1.24.21,2.68h8.45l3.09,3.09,12.57,6.18.41,1.44,4.12-.41.62,2.68-2.06,1.85,3.09-.82,1.44,2.06,4.33.41Z"/>
  <path id="mu_x5F_117" class="cls-1" d="M756.66,374.67l-1.03-2.27.41-4.12-1.44-1.24,5.15-6.18v-1.85l-2.47.62-1.65-2.06v-1.85l1.65-.82,1.24-2.88h3.92s.62-3.3.62-3.3l2.06,1.24,1.65-1.03-2.27-1.44.62-1.44h3.09l1.85,3.09.82-4.12,3.09,2.88,2.88-1.65v-1.65l-2.47-1.65,1.24-2.27,6.18,4.53-2.06,2.47,1.65.82,6.18-6.59,3.5,1.24-.41-3.71-1.44-1.03.41-2.47,1.65-.41,2.27.41.41-2.88,2.27.62,1.24-2.27,4.53,2.68,4.74-.82-2.27,3.5,1.44,1.44-1.44,3.92-4.12-.62-3.71,3.92,1.44,6.18,1.85.21-1.03,3.92,1.65,1.85,4.33-2.68,1.65,1.65-.62,2.27-4.12,2.27-3.3-2.27h-5.56l2.68,3.5-2.27,2.27-2.47-4.53-4.12,4.74-2.68-1.24-1.65,5.77h-2.68l-1.24-2.68-3.71,5.56-3.5-1.85,1.24-2.88-2.27.62-1.44-1.44-3.71,4.53-.41,3.71-1.65-1.85-.62,1.24-5.77.41Z"/>
  <path id="mu_x5F_118" class="cls-1" d="M744.09,387.24l-3.92,1.65-3.3-.82,1.24-3.3-3.92-1.85-4.74-2.06-3.3-4.53-1.03-2.47,1.85-1.65-1.24-1.85-5.36-1.03-1.03-2.27-3.09-1.24-4.74,2.47-2.47-2.27-1.85,1.85-1.85-1.24-2.47,1.85v-3.5l-2.68-1.03-1.85-3.09,3.92-2.47,1.65-3.09-1.24-1.65,1.03-.62-1.85-4.33.41-2.68,3.09-2.47-2.47-1.24,1.85-4.53,2.68-2.06-1.24-2.06,1.44-1.65,2.88-.41-1.03,1.44v1.65h3.71l.62,1.65h2.27l.82-2.88,2.47-.82,4.74,4.12,5.56,1.65v3.92l7.62,1.85.21-2.68,1.03-1.44.62-2.68,2.68.62,2.68-.21.62-4.12,2.06.62.82,4.53,3.3,1.85,2.27.41-.21,2.68,2.88,2.68-.21,1.85,2.47,3.71-1.24,2.88-1.65.82v1.85l1.65,2.06,2.47-.62v1.85l-5.15,6.18,1.44,1.24-.41,4.12,1.03,2.27-2.06,2.27,1.65,1.44.82,2.06-1.44,1.44,2.06,1.44h3.5l-.41,1.85-4.12,2.68-4.74,1.65.21,2.27-1.65,1.44-.82-2.27h-1.24l-2.88-4.53-1.44.82Z"/>
  <path id="mu_x5F_119" class="cls-1" d="M567.08,552.91l4.53-1.44.41-2.27-1.85-3.3,3.5-.62,1.03-2.88,4.12-.21-1.65-5.56,3.5,1.24,1.24-2.88-.62-2.27,7.62,3.5,2.27-3.92,4.95.62-.41-3.5,2.68.21,2.68,2.06,5.36-2.27,4.53,6.59,1.65,3.3,2.88,3.09,2.88.41.62,2.47,3.92,2.68-.41,2.47-1.65,2.27,2.47,5.36,3.09,1.24v2.27l1.44,2.88-1.03,1.85-2.27,1.44v5.36l2.68,2.68-3.09,2.06-2.27,2.47-12.36-3.5,1.65-2.47-5.98.62-1.44-1.44-1.85,2.06-5.77,1.65-2.68-2.88-.41-3.71-3.09,2.68-3.71-1.85-.82-2.47-3.5-.41.41-4.53-1.24-1.24.21-4.95.82-2.88-3.5-2.06-1.85,2.06h-2.68l-1.65,1.85-5.36-3.92Z"/>
  <path id="mu_x5F_120" class="cls-1" d="M608.5,476.88l.41-2.88-6.8-2.68-1.85,2.68-4.95-.21-.21-5.56-4.12-1.03,2.27-1.24-.21-1.44-3.3-1.03,2.27-3.92.41-4.12-8.04,1.44-1.65-5.98,4.95-1.65-.21,4.74,3.09.82,1.03-3.3-.82-3.09,3.5-4.12-1.44-5.15-2.27-.62-2.27,3.92-3.71-.82.41-2.88-3.3,1.44,1.24-7.21,3.71-1.65-1.44-3.71-.82-3.5,3.71-7.42.21-3.09-4.12-4.74,7.42-11.95,5.15-.82,2.47,1.44,1.24-2.47,1.24.21,1.44,1.65,3.3-2.27v-2.27l4.12-1.24.82-3.09,2.47,4.53,2.88-.41,2.68-1.03,3.5,2.06,1.65,2.06,1.85-1.03,3.5,2.88-1.24,4.95,1.44.62,5.56-5.15,1.65,3.09,3.09-1.44,2.06,3.5.82,2.47,3.3,2.47-.62,5.36,2.68,1.44,2.88,7.83-1.85,2.88,1.85,3.3-2.06,3.5,2.06,1.03.41,2.88,3.5.82v2.88l-1.65,3.71-3.09,1.03v3.71l-3.09,2.68-8.24,1.24-4.74-.62,1.44,3.71-1.03,4.95,1.85,4.33-1.03,5.15-2.06,2.27-3.3-1.03.82,3.09.82,4.12-2.68.21-3.5-1.85-9.07-.82-8.45,1.44Z"/>
  <path id="mu_x5F_121" class="cls-1" d="M620.45,688.3l-1.24-6.8,5.77-6.8,1.44.21,2.88-2.88,2.47.21.21-2.88,2.27-1.24-1.65-2.06,1.03-1.65,2.06-1.65,1.44,2.06,2.47.41,2.27-.82-.41-2.47,3.5-1.85,4.95.41,1.03,1.03-6.39,3.09-1.44,3.09,2.06,2.68-1.65,1.24v2.06l2.47,1.65,1.24,2.06h2.68l1.03,1.85-2.27,1.24-.82,4.33,3.5.21,1.44,1.44.21,3.3-.82,2.68,3.3,1.44,2.27-1.44,3.09,3.09.41,2.68,3.5.21,1.44,2.06-1.44,4.12-2.27,1.03,1.24.82,2.47.21,2.06,2.47,2.47.41v1.85l2.47,1.03.41,1.24,1.65,1.03v1.03l-1.65,1.44-.21,1.65-3.3.82-4.53-2.88-3.92.21-3.92-.82.21-3.5-1.65-2.68.62-1.65-2.68-4.12-4.53,2.47-1.44-2.06,1.24-3.92,3.3-2.06-2.47-4.33-1.85,2.27-1.85-2.27-4.74-1.85-2.88,3.3-10.92-7.21-7.62-.21Z"/>
  <path id="mu_x5F_122" class="cls-1" d="M543.59,727.86l-1.03-1.85,2.27-3.3-.21-3.3-3.92-2.68.21-2.27-2.06-1.44-.62,1.24,1.24,1.65-.62,2.27-2.06-.21v-4.12l-3.3-.41.62-2.47-3.09-2.47.62-3.92,2.68,2.27,8.65-6.18h12.98l4.74-.62-2.06-3.92,2.47-1.24,7.01,1.24,4.12-1.24h4.53s2.47-1.24,2.47-1.24l1.85,6.18,2.88.62.82,5.56-3.71.82,3.5,1.24-2.27,3.5,5.98.82-6.59,2.88-3.09-1.24-4.74,2.68-4.53,5.15-1.24.21.21,2.88-4.12,2.68-3.5-1.03-4.95,3.5-3.3-.21-5.98,4.53-2.88-6.59Z"/>
  <path id="mu_x5F_123" class="cls-1" d="M701.43,519.33l-2.06-2.47,1.24-15.66,1.85-2.47,5.36,1.65,3.92-1.24-.82-3.71,1.24-.62,3.09,1.03,1.24-4.12,11.33,5.98,3.92.21,5.77-4.53-2.27-2.06,2.47-3.92h5.15l4.33,6.8,4.33-3.09,5.56.41,5.36,8.65,3.92-.21,2.27,13.39-3.09-3.3h-3.3l-.41,2.47-4.33,4.95-6.18-1.03-6.8,2.06-2.06,2.06v2.27l-3.71,1.44-7.01-1.24-4.12-3.92-7.83.41-6.59-4.53-2.27.62.21,2.47-2.88-1.03-6.8,2.27Z"/>
  <path id="mu_x5F_124" class="cls-1" d="M690.3,482.23l-2.47-2.06-.41-5.56,2.47-3.3-1.65-1.03-2.88,2.06-2.27-2.88h-3.3l-.62-2.68,1.85-2.88-.82-2.68-3.5-3.5-3.3-.62-4.53-3.92-1.03,1.85-3.71-1.65-3.3-1.85.21-3.09,10.51,2.68,3.3-3.3,6.18-.21,7.01-5.15,2.27.62,2.27-1.85,8.45.21-.21-3.71,1.65-3.5,9.68-.62.82,2.27v4.74s-3.3,1.85-3.3,1.85l3.92,1.03-1.44,2.88,1.85,1.03.21-1.85,3.3,1.85-.21,3.3,2.88,1.65-.21,4.95,6.59-4.74v3.09l2.06-1.03.21,3.3,5.56,1.65,2.06,3.71,3.92,1.65v2.06l-4.95.41-.41,5.36,6.8,1.24-3.09,4.12,5.77-1.85.82,5.77-2.47,5.36h-5.15l-2.47,3.92,2.27,2.06-5.77,4.53-3.92-.21-11.33-5.98-1.24,4.12-3.09-1.03-1.24.62.82,3.71-3.92,1.24-5.36-1.65-1.85,2.47h-1.65l1.44-7.21-3.09,1.24-1.85-.82,2.47-3.3-7.21-3.92-.41-4.95Z"/>
  <path id="mu_x5F_125" class="cls-1" d="M812.09,454.62l-2.47-3.3-5.15-2.06-1.85-6.59v-5.36l4.53-5.98,2.88-.21,4.53-2.88-.21-2.88,5.15-1.24.41-3.5,3.92-1.03,5.56-.82-1.03,4.33h-2.88l.62,2.88,2.88,3.5,2.27-2.27,2.68-.21.82,9.48-7.62,24.52-5.36,1.03-6.39-1.85-3.3-5.56Z"/>
</svg>