<svg id="Zacatecas" xmlns="http://www.w3.org/2000/svg" viewBox="0 0 4024.25 5110.51">
  <defs>
    <style>
      .cls-1 {
        fill: none;
        stroke-width: 2px;
      }

      .cls-1, .cls-2 {
        stroke: #000;
      }

      .cls-2 {
        fill: #c4f5ee;
        stroke-width: 0.2px;
        fill-rule: evenodd;
      }
    </style>
  </defs>
  <path id="001" class="cls-2" d="M1441.24,4507.73l20-22.63,56.17,17.17,24.27,23,62.84,7.6,20.06,23,15.13,20.13-19.34,37.53,23.75,31.57-37.65,44.36-17-18,4.11-22.32-43.52-26.59-68.78.06-63.72-35-44.48-16.81-6.81,35.43-44.69-6.65,14.83-38.51L1319,4513.49l31.29-68.65,38.64,18.56,4.27,18.57,48.07,25.76Z"/>
  <path id="002" class="cls-2" d="M1997.18,4475.73l12,32.3-27.38,126.4,17.53,22.09-27.87,61.63-36.29-.09-26.3-64.7,22.2-25.81-19.88-37-58.45-15.29-1.65-55.27,25-26.81-12.9-35.22,43.91-37.33,31.94,2.25-7.48,36.78,65.65,16.1Z"/>
  <path id="003" class="cls-2" d="M1149.34,4174.89l-53.1,20.17,12.82,39.1-108.51,116.95-13.83-1.57,18.92-24.81,23.12-82.31-80.32-38.82L943.09,4172l25-7.19-10.42-18.94,34.76-17.9,40.13,25.28,59.77-110.77,18.46,6.62,20.81,12.32,4.2,21.15,68,15.91,13,28.28-17.91,33.9-46.41-12.37-3.07,26.63Z"/>
  <path id="004" class="cls-2" d="M1027.4,4473.47,1001.1,4506l38.22,63.34L996.19,4660l-95.29,31.44-168.21,34.24,4.38-52.13-21.77-70,57.82-113.15,26.21-24.62,51-3,4.31-23.85,50.89,24.18,21.89-2.07,12.08-38.54,34.59,14.39,14.05,29.84,39.29,6.7Z"/>
  <path id="005" class="cls-2" d="M1981.89,2637l2.17,125.57-43.51-4-6,17.28-24.29,2-.92,26.47-20.43,0-1.49,28.7L1809.5,2835l.33,46.27-71.8,2.8-30.42-5.61-1.67-70.13-34.63-5.62-4.26-26.87,31-89.73,26.24-.34,10.42,12.63,33.89.18,13.06,16.2,68.41-.45,56.83-22.61,15.36-50.53-29.89-45.56L1934,2509l57.74,62-9.84,66Z"/>
  <path id="006" class="cls-2" d="M1930,1867.31l40.6-13.07,44.1,93.53,32.19,22,11.14,72.49-58.64,27.59-67.06-17.29-17,34.83-21.92-11.44-155.86,32.73-50.39-14,0-97.9,36.45-23.64,21-82.55,28.71-73.94,122.57,9.31,34.06,41.39Z"/>
  <path id="007" class="cls-2" d="M3491,448.57l28.12,2.15,20.31,25.42,25,3.56,15.91,28.11,11,75.09,53.89,37.44,1.28,26.91,46.87,14.3,11.81,40.24,14.34,3.48,30.5,45.5,5.14,36.92,23.11,17.18,11.9,59.26-59.08,74.73,5.44,22.82,60,56.88-54.61,7,8.28,46.21,17.39,4.84,8.28,37.09-45.08,20.51-24,52.06-22.64-1.24-29.64,54.87-43.68-1.24-63.68,49.13-118.39-49-19.51-44.84-86.83-56.06-9.31-23.67-21.23-16,45.44-115.08,28.39-213.06-55.52-.44L3275,739.77l23.73-31.29-32.48-36.41-24.77-3.45L3230.73,642l37.64-8.36,31.12-44.25-19.15-26.83,23.94-28.06-38.8-38.32,10.18-38.49,84.16-52.21,14.48,9.33,16.3-9.16L3491,448.57Z"/>
  <path id="008" class="cls-2" d="M2086.66,3436.72l36.72-71.61,50.74-31.65,28.66,31.82,46.19-2.19-6.76-27.44,15.68-20.42-1.5-32-19.83-19,30.65-11.59,7.17-70.15L2371,3223l.57,44.65L2358,3278.94l3.57,53.73-35.05,9,31.81,62.34-76.66,21.21-1.65,13.32-12.07,8.71-36.17-7.12-8.13,22.68-34.38,2.58-28.73,22.47L2146.86,3477l4.58-22.41-19.62-15-14.66,18Z"/>
  <path id="009" class="cls-2" d="M669.4,2083.53l-64,45.16,26.46,59.9L720,2150.3l20.15,171.39-101.52,8.58,2.2-40L553,2301.75l-1,47.78-70.12,6.69-56.89-47.33-57.59-4.55-24.74,16.92-16.33-15.34,33.27-67.14L349.61,2223l1.76-75.71,37.52-93.24,31.22,12,79.59-57.47,22.1-47,24.2,13.35,34-28,105.71,66.91-16.32,69.71Z"/>
  <path id="010" class="cls-2" d="M1169.59,2183.21l34.58-55.08,90.69.31,3,43.35,38.09,13.49,18-24.46,27,22.69,167.63-78,62.32,2.23-1.8-150.36,78.1,39.38,0,97.9,50.39,14,155.86-32.73,21.92,11.44,17-34.83,67.06,17.29,58.64-27.59,79.17,72.49-87.73,97.74.62,27.6,47.62,50.75L2059.76,2397l85.48,58.47-26,.25-85.63,111.06-41.86,4.28L1934,2509l-41.6,86.65-65.45-17.14-73.86,17.92-54.86,42.74-.15,47-31,89.72-30.31-.73-58.88,36.26-16.81-38.78-38.55-.91-126.21,81.84-114.86-47.26.86-144-99.42-45.15-75.58-3.77-42.38-61.77-90.77-7.78-13.37-44.41,54.14-53.19.56-144.05-38-14.31-30-36.22,9.24-41.13,37,2.38,81.53,18.1,28.27-39.65,66.14-8.1Z"/>
  <path id="011" class="cls-2" d="M1119.81,4833.27l-15,40.75-30.89,9.95-4.74,10.56,21.2,6.34-.66,27-22.4.36-15.86,38.35-39.61,27.73-4.12-26.91-25.15,11-20.49,24.3-28.9,1.87-55-62.19-.61-22,38.23-22.06-.34-62,42.23-34.33,49.32-27.74,73.16-21.43,39.63,80.51Z"/>
  <path id="012" class="cls-2" d="M1971.3,3490l-16.76-67.63-39.14-36.76,13.46-45.88,20.47-30.45-18.2-30.23-77.81-28.83,28.08-106,31-19.09,79.86-1.79,0,34.67,88.75-.4-28.91,31.7,15.35,17.61,55.68,27.07,37.55-30.9,5.12-64,44.31,22.26,64.24,21.15-7.17,70.15-30.65,11.59,19.83,19,1.5,32-15.68,20.42,6.76,27.44-46.19,2.19-28.66-31.82-50.74,31.65-36.73,71.61,30.51,20.82,14.66-18,19.62,15-4.58,22.41,13.66,10.84,25.94,23.69-17.9,18.71-152.1-7.25L2006,3489.8l-34.71.22Z"/>
  <path id="013" class="cls-2" d="M1922.28,2641.23l-15.36,50.53-56.83,22.61-68.41.45-13.06-16.2-33.89-.18-10.42-12.63-26.24.34.15-47,54.86-42.74,73.86-17.92,65.45,17.14,29.89,45.56Z"/>
  <path id="014" class="cls-2" d="M1994.31,954.8l46.79,23.53,14.52,39.66,18.73-8.73,23,46,98.67,67-3,32,51,3.19,8.35,93.12,76.37,14.58,4.84,107.15,31.5,20.19-12,26.5-19.16,36.89-54.22,1.84-38.09,41.8L2221,1565.11l-72.45,11-40.2-27.62L2078,1569.21l-13.73,55.86-83.86,56.56-111.62,4.42-111.4-113.58L1735,1592.84l-36.37-44.16-185.74,14-39.18-39.94-75.64,33.69-28.65-20.32-112.83-168.09,23.93-153.37-44.81-36.26,59-22.23-37.09-58-.63-46.08,45-47.48-9.89-78.28,44.81-17.27,53.92,12.19,6.94,35.32,42,8.68,18.16-46.72,78.46-8.86,42.2-42.71,26.76,23.9,56.92,5,47.11,52,26.31,8.51,79.25-26.27,23.59,17.75,18.41,33.61,137.39-26.62Z"/>
  <path id="015" class="cls-2" d="M1627.12,3757.26l-1.51,45.24,35.64,1.22-70.61,44.41-41.08,143.43-31.65,16.84.23,14.59,31.06,15.24-.5,11.73-68.52,22.25-11,18-71-40.76,1.92-60.4,6.63-35.23L1378,3936.61l-10.45-21.44,86.32-14.44L1471.5,3862l41.74-15.9,11.29-57.75,70.88-52.84,31.71,21.8Z"/>
  <path id="016" class="cls-2" d="M2583.23,2916.12l16.9,21.43,7.53,39.4L2633,2954l8.13,1.6.41,37.71,27.93,5.94-7-31,12.94-13.5,44.85,25.41,17.09-8.19,17.78,24.76-33.85,21.47,33.54,66.25-44.65-6.68-103.21,133.92-2.23,22.07-49.92-.72-4.33-32.63-52.18-52.4,2.17-15.59L2481.53,3120l17.6-30.31-8.6-12.49,33.48-42.3-14.41-15,16.39-19-43.35-31.38-25.15,8.41-11.76-8.64,3.26-26.62,19.11,6.49,5.44-20.16,65-24.87,44.67,12Z"/>
  <path id="017" class="cls-2" d="M2375.35,2675.85l4.23,16.26,20.65-12.45,11.19,5.36,12.18,62.68-49.66,33.14.17,9.28,73.61,33.66.33,18.23,11.55-4.91,8.74,6.31,0,20,14,11.92-8.78,53.65-5.44,20.16-19.11-6.49-43.31-33.48-52.07-1.58-43,6.14-48.94,38.11-27.3,37.72.4,101.19-24.67,70.66-44.31-22.26-5.11,64-37.56,30.9L2067.48,3207l-15.35-17.61,28.91-31.7-88.75.4,0-34.67,15.24-20-.88-23.55L2042,3075l2-27.34,15.66-12.09,9.2-53.92,22.12-4,13.78-45.39,30.06-21.38,34.23,3.33,42.52-37.79,30.54-2.21,28.78-77.66-32.33.31-18.58-10L2190.8,2748l36.75-5.17,4.49-29,17.43-2.8L2256,2733l40.41.78,9.08-54.26,69.86-3.65Z"/>
  <path id="018" class="cls-2" d="M1719.16,4085.84l25.52,69.26,40,47.12,93.34,61.14-61.58,48-26.37-6.48-39-57-117.85,15.6-27-21.29-38.31-4.28-38.09-5.79-20.94-30.16-30.45-2.47-9.27-109.22L1593.7,4120l30.36,30.66,37.37-1.59,57.73-63.25Z"/>
  <path id="019" class="cls-2" d="M1478.44,4199.47l30.45,2.47,20.94,30.16,76.4,10.07,27,21.29,117.85-15.6,39,57,26.37,6.48-32.28,71.55-37-5.16L1707,4440.57l.4,39-66.22,36.93-16.55,39.39-20.06-23-62.84-7.6-24.27-23-56.17-17.17-20,22.63L1393.17,4482l-4.27-18.57-38.64-18.56-21.35-26.4,54.45-50.3,50.4.71,24.76-65-10.78-14,41.06-42.53-10.36-47.86Z"/>
  <path id="020" class="cls-2" d="M1331.26,2826.76l65,26.79,126.21-81.84,38.55.91,16.81,38.78,58.88-36.26,30.31.74,4.26,26.87,34.63,5.62,1.67,70.13,30.42,5.61-7.31,19.34,23.9,30.2,19.34-5.91,64.22,28.1L1814,2980.79l-3.81,43.17,26.35,3.91-37.11,59.31-33.77,143.49-104.23.21-43.93,70.34-53-27.89-13,11.7-59-3.27,17.46-36.22-33.78-15.26,7.17-47.84-1.25-34.35-13.87-19.61-38.13-1.33-33.28-29.2-8.38-34.54-62,5.87-36.54-30-6.38-99.39,47.61-62.22,0-50.95Z"/>
  <path id="021" class="cls-2" d="M720,2373.13l53.15,8.13,5.75,68.83-89.73,42.8-13.66,74.87-11.58,29-58.1,16.82-76-4-39.61,27.44-54-2.36-25.77-11.29L366.31,2646l-12.58,19.1-42,10.68-13.83-22.05-23,3.19,10,43.17-26.9,32.1-103.65,26.46,10-132-10.23-13.71,31.14-79.63,54.29,3.81,15.6-56.16,38.75-6.38-13.33-62.67,21.74-8.67-7.93-68.72,31.91-28.56,16.33,15.34,24.74-16.92,57.59,4.55,56.89,47.33,70.12-6.69,1-47.78,87.89-11.46-2.2,40,101.52-8.58L720,2373.13Z"/>
  <path id="022" class="cls-2" d="M1302,1004.65l-45,47.48.63,46.08,37.09,58-59,22.23,44.81,36.26-23.93,153.37-169.29-237.21-43.82-117,7.72-86.58,87.42-69.2,14.51,28.3,66.41,36.72,39.76-31.31,32.75,34.61,9.89,78.28Z"/>
  <path id="023" class="cls-2" d="M1550.06,4622.6l43.52,26.59-4.11,22.32,17,18-67.58,91.24-113.57-45.14-121.22,2.8-25.55-12.29,5.8-72,36.65-22.25.56-32.21,44.69,6.65,6.81-35.43,44.48,16.81,63.72,35,68.78-.06Z"/>
  <path id="024" class="cls-2" d="M2770.85,3462.27l113.57,39.24,61.17-9.58L2930.24,3543l15.84,2.36-7.29,27.61,21.46,3.42-33.95,39.18,25.83,58.8-77.45,4.39-45.31-48.08.92-24L2713,3614.17l-.68-18.7-28.12-47.42-33,.26-3.22-8.5,21.32-14.46-62.48-17.62-13.92,32.83-27.22,4.13-.57,13.23-9.34,6.93-10.13-7.65-2.42-27.28-15.75-11.86,10.26-16.29-15.33-8.57,15.17-14.88,6-22.84,20-20.37,37.48-10,27.79,23.57,142,13.57Z"/>
  <path id="025" class="cls-2" d="M2486.25,3285.37l5.33,52.64-19.32,23.66,4.88,27.8,115.27,13.25,8.62,22.41-37.48,10-20,20.37-6,22.84-15.17,14.88-13.58.14-27-30.19-52.28-16.88-1.47-29.89-43.54-33-10.24-52.68-12.69,2-3.57-53.73,13.61-11.31,40.61,1.67,20.44-20.11,15.25,25.9,38.36,10.28Z"/>
  <path id="026" class="cls-2" d="M3304.28,534.53l-23.94,28.06,19.15,26.83-31.12,44.25L3230.73,642l10.74,26.59,24.77,3.45,32.48,36.41L3275,739.77l35.18,29.88,55.52.44L3337.3,983.15l-45.44,115.08,21.23,16,9.31,23.67,86.83,56.06,19.51,44.84,118.39,49,21.29,12.37-16.24,17.6,18.82,45,16.6,57.65-5.84,60.44-95.4,106.67-148.7,60.38-124.86,9.18L3083,1619.26l-55.58-2.32-72.05,36.31L2744.51,1618,2650,1640.31l-32.77-57-41.19,25.09-28.57-68.18L2493,1559.74l-6.83-101.84-20.27,14.17L2353,1418.93l12-26.5-31.5-20.19-4.84-107.15-76.37-14.58-8.35-93.12-51-3.19,3-32-98.67-67-23-46-18.73,8.73-14.52-39.66-46.79-23.53,113.81-11.61,26.16-19.25-2.59-15.75-23.64-2.42-51-41,52.81-47.3,33.87,1.79,4.42-17.85-23.64-13.64-3.29-61.33-110.59-96.39,33.17-66.23.91-60.63-16.62-.31,11.43-38.19-37.65-15,35.76-53.16-27.36-38.44-40,7.15-17.54-18.1,2.79-26.11-26.66-33.83,1.39-25.41L1908,268.34l-1.94-15.16,10.69-31.29-27.88-3.23-4.74-25,17-35.5L1887.3,128.3l37.34-62.15,11.86,11.26,44.83-10.47L2031.07,34l56,27.4,21.69-8.37,34.31,30.19L2207.26,154l9.35,34.12,39.17,21.75L2280,242.22l-2.43,24.65,34,7.13L2333,258.68l35.44,8.52-5.93,21.85,23.52,2.92,20.56-28.39,52.82,51.56-4,34,58.43,67.69,35.27-4.08,26.85,37.3,73.13,13.46,262.92,100,17.47-29.7,42.07-8.36,43.47,23.9-12.23,30.25,41.07,9.2L3091,540l17-56.44L3246,513l19.52-16.81,38.8,38.32Z"/>
  <path id="027" class="cls-2" d="M2411.77,31.32l42.84,18.27,39.94-11.05,99.9,44.64,23.41,26.57,24.32-3.87,17.31,21.37,24.32,4.55,129.53,58.07,13.12,27.92,18,10.38L2873,270.82l30.22,10.06,14.79,36.71,24.6,16.38,12,22.68L2980,343.58l37.87,2.74,10.53,13.27,25.25-19,42.79,72.18-4.9,20.27-17,11.56L3108,483.52,3091,540l-47.07,48.9-41.07-9.2,12.23-30.25-43.47-23.9-42.07,8.36-17.47,29.7-262.92-100L2576,450.07l-26.85-37.3-35.27,4.08-58.43-67.69,4-34-52.82-51.56L2386.06,292l-23.52-2.92,5.93-21.85L2333,258.68,2311.61,274l-34-7.13,2.43-24.65-24.22-32.37-39.17-21.75L2207.26,154l-64.15-70.74,10.52-48.71,57.26-13.1,49.26,14.68,151.62-4.79Z"/>
  <path id="028" class="cls-2" d="M1244.63,4904.8l10.26,68.8,53.68,28.3-10.33,41-4.88,25.11-119.18,14.58-7.88-20.37-54.74-58.56,4.53-30-24.38-15-40.24,7.93,15.86-38.35,22.4-.36.66-27-21.2-6.34,4.74-10.56,30.89-9.95,15-40.75L1200.93,4716l77.64,10.14,25.55,12.29,8.27,23.51-37.32,15.4-1.1,26.31,51.79,62.42-81.13,38.75Z"/>
  <path id="029" class="cls-2" d="M1256.62,1368.07l-49.06,77.48-39.94-34-33.13,54.66-56.85,1.39-46.33-37.88L964,1474.56l-97-15.48-1.58,23.79-33.13,1.36-83.62-43.52-12.8-31.61-52.06-14.77,3.53-44.54L761,1327l-15.4-29.11,41.4-27,15.46,32.59L848,1272.78l1-34.61,52.15-27.43-4.43-50L873,1132.72l9.59-37.63,81.71-3.42,23.85-33.28,55.39-44.56,43.82,117,169.29,237.21Z"/>
  <path id="030" class="cls-2" d="M1378,3936.61l28.68,17.25-6.63,35.23-39.29,16L1341.41,4038l-80.17-19.1-19.53,35.75-33.26,6.65-39.12-9.78-37.71,9.85-20.81-12.32L1147,4017l56.47-20.15-8.74-11.74,72-59.56,7.46,19.68,39.14-1L1344,3967l5.48-37.84,18.11-14,10.45,21.44Z"/>
  <path id="031" class="cls-2" d="M1235.73,3322.86l-.63,85.6-15.46-1.24L1166,3445.55l-5.34,45.5,15.31,11.13-12,54.66,59.94-20.36,38.38,59.25-25,21.91-24.48-14.51-58.15,34.58,1.47,20.55-16.11,11.8-29.44,3.39-13.31,84-31.9,18-76.79-.19L987.52,3759l-50.84-8.6L884.44,3793l-85.21-9.3-11.56-27.54,12.4-33,32.74-25.27,21.52-69.45,40.46-34.38-31.08-44.91-15.65-3.53-.22-28.07,17.48-1.41-9.87-30.86,42-2.81-6.15-26.3,21.2-1.76,7.28-103.92-21.63-32.74,17.75-28.31-19.42-17.8,14.94-28.31-9.35-6.64,93.58-.17,93.59-45,5.22-64,37.48-33.12,22.06,31.39,55.11-4.14,11.55,52.23,26,11,17.61,53.73-9.73,57.94-18.86,26.38Z"/>
  <path id="032" class="cls-2" d="M2009.94,2930.15l-23.77-38.53-91.9,26.82-84.44-37.13-.33-46.27,77.93-2.06,1.49-28.7,20.43,0,.92-26.47,24.29-2,6-17.28,49.51,63.17,17.21-16.6,29.53,36.93-18.57,55.63,9.88,13.08-18.17,19.39Z"/>
  <path id="033" class="cls-2" d="M1542.33,4817.1l-45.08,85,18,50.88-39.15,27.8,6.17,14.84,73.49,9.93-47.13,38-16.27,30.27-112.07-21.29-2.68-17.09-79.42,7.41,10.33-41-53.68-28.3-10.26-68.8,81.13-38.75L1274,4803.63l1.1-26.31,37.32-15.4-8.27-23.51,121.22-2.8,113.57,45.14,3.42,36.35Z"/>
  <path id="034" class="cls-2" d="M1747.24,4377.7l37,5.16,32.28-71.55,26.19,11.5-11.78,28.53,16.51,6.26-.32,31.5,60,31.5-43.91,37.33,12.9,35.22-25,26.81,1.65,55.27,58.45,15.29,19.88,37-22.2,25.82-14,46.69-28,15.83-.92,33.43-64,15.19-3,37.63-31.07-4.45-26,18.11-5.69,24.42-25.77-2.35-13.14,43.93-103.41-52.39-36.8,6.51-14.65-18.82-3.42-36.35,67.58-91.24,37.65-44.36-23.75-31.57,19.34-37.53-15.13-20.13,16.55-39.39,66.22-36.93-.4-39,40.27-62.87Z"/>
  <path id="035" class="cls-2" d="M2770.85,3462.27l-142-13.57L2601,3425.13l51.78-55.66,52-32.3,14.43-24.94,38-2,7.39,12.52,54.74-33.13,37.44,22,27.93-38.57,28.63,2.8,12.42,20.21,22,8.69-28.16,86.53,5.84,65.82,20.22,34.81-61.17,9.58-113.57-39.24Z"/>
  <path id="036" class="cls-2" d="M2363.59,2992.45l82.14-23.2,11.76,8.64,25.15-8.41,43.35,31.38-16.39,19,14.41,15-33.48,42.3,8.6,12.49-17.6,30.31,18.87,12.43-2.17,15.59,52.18,52.4,4.33,32.63,49.92.72,2.23-22.07,60.18,25.58-2.58,37.54-38,.11,2,28.06,27.41,24.85-3.1,41.68L2601,3425.13l-8.62-22.41-115.27-13.25-4.88-27.8,19.32-23.66-5.33-52.64-38.36-10.28-15.25-25.9-20.44,20.11-40.61-1.67L2371,3223l-96.64-40.44-64.24-21.15,24.67-70.66,30.89-7.65,11.47-30.15,36.34-21.21,10.6,14.1,17.57-6.06L2328,3016.09l28.69,5.22,6.87-28.86Z"/>
  <path id="037" class="cls-2" d="M2174.9,2541.63l75.47,6.17,55.12,131.7-9.08,54.26L2256,2733l-6.53-21.92-17.44,2.8-4.48,29L2190.8,2748l29.17,38.83-55.47,56.34-127.7-1.16-29.53-36.93-17.21,16.6-49.51-63.17,43.51,4L1981.89,2637l9.84-66,41.86-4.28L2152,2576.84Z"/>
  <path id="038" class="cls-2" d="M2945.59,3491.93l72.42,17.64,52.41-13.08,32.07-35.87,16.29.59,7.87,10.76,11.38-8.18-30.05-44.1,19-17.11-.24-22,29.21-31.13-31.8-69-28.28-11.82-.82-17.65,93.56-137.35,6.65-66.71,86.94-55.49,17.51-.09,21.37,7.27,19.72,0,31.29-7.39,56.89,32.94.1,30.41,18.35,13.23,20.44-1.5,7.47,8.68-1.49,29.51,28,15.84-.09,63.53,14.63,11.28-11,19,12.53,8.48-.1,10.23-15.92,9.43,5.82,22.06-10,29.06-36.26,25.91-19.78,38.89-29.6,16.79,3.36,22.06-16.27,28,7.51,12.17,11.65,1.35.81,25.23L3398.27,3510l-13.92,5.95.11,8.75,18.47,9,7.6,30.05,26.88,3.4,21.63,16.72,12.51,27.63-11,45.86-34.47,45.16,7.9,47.09,19.83,20.45-8.23,21.15,16.67,22.9-44.73,17.73,14.52,16.32.84,41.93-45.09,61.56-63.38,49-9.68,57.35-29-3.31-18.09,20.88-11.42.2-3-32.06-13.88-7.51-4.41-41.88-37.73,5.45L3179.86,3987l-11.54,20.34-28,2.1-12.6-75-33.64-7.72-64.14-55.05-34-1.75-15.63-20,12.53-45.58-20.12-8.59-22.7-81.27,2.13-40.07-25.83-58.8,33.95-39.18-21.46-3.42,7.29-27.61-15.84-2.36,15.35-51.11Z"/>
  <path id="039" class="cls-2" d="M1398.1,1556.48l75.64-33.69,39.18,39.94,185.74-14,36.37,44.16,22.34-20.37,111.4,113.58-6.1,47.69,41.53,18.74-8.26,73.44-122.57-9.31-28.71,73.94-21,82.55-36.45,23.64-120.58-59.31-68.68,19.24-6-44.23-66.3-10.57,8-41.42-16.5-16.88,21.36-33.71-120.3,31.51-13-125.58-158.87,51.14,6.78-26.34.47-42.47-24.77-16.52,33.76-54.71,13.09-73.39L1157.12,1522l50.44-76.48,49.06-77.48,112.83,168.09,28.65,20.32Z"/>
  <path id="040" class="cls-2" d="M1566.61,1937.43l42.48,19.93,1.8,150.36-62.32-2.23-167.63,78-27-22.69-18,24.46-38.09-13.49-3-43.35-90.69-.31-34.58,55.08-66.14,8.1L1075.18,2231l-81.53-18.1,8.23-60.17,39.95-67.48L998.33,2017l1.38-73.1,73.55,6.37,58.11-37.1-50.58-77.78,65.57-68.49,158.87-51.14,13,125.58,120.3-31.51-21.36,33.71,16.5,16.88-8,41.42,66.3,10.57,6,44.23,68.68-19.24Z"/>
  <path id="041" class="cls-2" d="M3772.93,722.77l19.71,6.35,16.1-6.14L3807,705.2l42.34-33.74,40.45,5.44,63.84,29.8,23.68-13.94,1.23,21.83-25.42,47.07,37.13,29.83-4.95,61.38,21.69,7.39,1.92,17.8-39.45,18.5-16.32,69.69-39.32,8.13-4.95,49.51-33,3.22-17.19-26.72-62.08,18.17-60-56.88-5.44-22.82,59.08-74.73-11.9-59.26-23.11-17.18-5.14-36.92-30.5-45.5L3735,681.11l29.91,3,15.6,12.58-7.58,26.06Z"/>
  <path id="042" class="cls-2" d="M1157.12,1522l18.57,31.47-13.09,73.39-33.76,54.71,24.77,16.52-.47,42.47-6.78,26.34-65.57,68.49,50.58,77.78-58.11,37.1-73.55-6.37-1.38,73.1,43.5,68.18-39.95,67.48-8.23,60.17-37-2.38-9.24,41.13,30,36.22,38,14.31-.56,144.05-54.14,53.19L866,2509.1l-4.28,25.19-47,34-139.21-.53,13.66-74.87,89.73-42.8-5.75-68.83L720,2373.13l20.21-51.44L720,2150.3l-88.17,38.29-26.46-59.9,64-45.16,16.32-69.71L580,1946.91l23.78-15.39-28.12-51.86,19.57-42L541,1756.37l54.42-20.24-5.88-13.93-17.81.8-25.52-53.2L588,1632.73l19.36-43.38-12.75-28.55,13.87-7.92,11.06-50.7-35.92-22.65-4.37-38.78,48.93,1.9-15.59-33.87,25.79-35.28,45.43,20.83,52.06,14.77,12.8,31.61,83.62,43.52,33.13-1.36,1.58-23.79,97,15.48,67.36-44.87,46.33,37.88,56.85-1.39,33.13-54.66,39.94,34L1157.12,1522Z"/>
  <path id="043" class="cls-2" d="M1326.59,3069.28l62-5.87,8.38,34.54,33.28,29.2,38.13,1.33,13.87,19.61,1.25,34.35-7.17,47.84-143.21-68.21-1.34,62.17-67.42,14.3-17.61-53.73-26-11-11.55-52.23,27.77-35,89.69-17.34Z"/>
  <path id="044" class="cls-2" d="M1760.51,3919.43l-5.9,22,14,11.4-44.56,114-20.07,5.54,15.19,13.45-57.73,63.25-37.37,1.59L1593.7,4120l-124.53-29.77,11-18L1548.7,4050l.5-11.73L1518.14,4023l-.23-14.59,31.65-16.84,41.08-143.43,70.61-44.41,18,25.33-1.66,58.18,28.5-14.05,54.45,46.25Z"/>
  <path id="045" class="cls-2" d="M1320.4,4319.22l63,48.92-54.45,50.3,21.35,26.4L1319,4513.49l-108.92-1.58-.6-20.35-51.5-61.37-24.62,37.73-28.77-12.3-77.16,17.85-39.29-6.7-14.05-29.84,12.66-87.39,13.83,1.57,82.84-89.33,123,12.89,86.81,53.13,27.2-8.58Z"/>
  <path id="046" class="cls-2" d="M1564.56,3273.33l53,27.89-11,30.37,12.88,17.75-77.59,12.13,10.08,24.06-29.11,51-32.27,4.27L1522.8,3553l31.54,3.57-30.17,39.33-16.83.46-15.79-37.07-28.4-16-81-2-21,19.84-30.81-7.61-18.21-17.13,10.53-15.58,30.16,4.06,7.19-29.05L1399,3482,1388,3427.46l-18.12-3.11L1336.36,3396l-35,27.05-33.55-32.56-32.75,18,.63-85.6,18.86-26.38,9.73-57.94,67.42-14.3,1.34-62.17,127.57,61.25,49.42,22.22-17.46,36.22,59,3.27,13-11.7Z"/>
  <path id="047" class="cls-2" d="M1007,4774.19l-49.32,27.74-42.23,34.33.34,62-38.23,22.06-3.44-16.44L835,4889.18,687.4,4916.87l45.29-191.21,168.21-34.24L996.19,4660l43.13-90.69,48.89-6,66.19,37.1,167.18-.77-.56,32.21-36.65,22.25-5.8,72L1200.93,4716l-81.12,117.29-39.63-80.51Z"/>
  <path id="048" class="cls-2" d="M1469.17,4090.25l9.27,109.22,10.36,47.86-41.06,42.53,10.78,14-24.76,65-50.4-.71-63-48.92-27.2,8.58-86.81-53.13-123-12.89,25.67-27.62-12.82-39.1,53.1-20.17,3.07-26.63,46.41,12.37,17.91-33.9-13-28.28-68-15.91-4.2-21.15,37.71-9.85,39.12,9.78,33.26-6.65,19.53-35.75,80.17,19.1,19.37-32.88,39.29-16-1.92,60.4,71,40.76Z"/>
  <path id="049" class="cls-2" d="M605.79,2613.58l58.1-16.82,11.58-29,139.21.53,47-34L866,2509.1l94.81-9.72,13.37,44.41,90.77,7.78,42.38,61.77,75.58,3.77,99.42,45.15-.86,144,49.83,20.47,0,50.95-47.61,62.22,6.38,99.39,36.54,30-89.69,17.34-27.77,35-55.11,4.14L1132,3094.37l-37.48,33.12-5.22,64-93.59,45-93.58.17L882.55,3191l-74.24,28.61-58.11-28.18-6.91,17.4-30.47-14.56-33.53,99.6.14,35.08-27.21,53.32-19.5,104.51-24,19.12,19.5,68.2-38.29,129.47-18.45-46.06-40.18-53.78-9.85-116L578.92,3378l-24.58-20.64,18.9-5.21,5.65-35.94,19-12.79-9.79-91.34L614.55,3174l81.89-46.5L718,3015.77l-17.7-26.17-28.62,11.24-112.06,0L536.26,2979l-119.82,16.82L385.71,3020l14.84,140.67,47.8,7.42-5.75,47.09,15.28,24L436,3244.86l.13,30,68.17,30.7,5,23.7-32.92,19.42-14,48.88-42.74,18.72-10.52,53.18-37.86,51.08L304.69,3526,48,3641.64l9.82-31,46.29-43.59-21-49.21,7.71-31-35.76-49.28-1.41-53.49-21-19.82v-51.39l80.64-113.09L87.32,3168l23.84-51.38,4.3-85.71,33.75-5.76,18.43-61.23,53.5,25.74,100.48-1.62-15.93-59.12-9-108.85-142.31-61.43L258,2732.19l26.9-32.1-10-43.17,23-3.19,13.83,22.05,42-10.68,12.58-19.1,44.13-22.59,25.77,11.28,54,2.36,39.61-27.44,76,4Z"/>
  <path id="050" class="cls-2" d="M2238.55,2796.91l32.33-.31-28.78,77.66-30.54,2.21L2169,2914.26l-34.23-3.33-30.06,21.38-94.81-2.16,18.17-19.39-9.88-13.08,18.57-55.63,127.7,1.16,55.47-56.34Z"/>
  <path id="051" class="cls-2" d="M2486.14,1457.9l6.83,101.84,54.52-19.48,28.57,68.18,41.19-25.09,32.77,57,94.49-22.28,210.9,35.22,72.05-36.31,55.58,2.32,129.76,37.8,6.8,41-25.33,16.62L3150,1875.09l-164.18,143.55-110.9-32.46-174,98.67-1.5,99.37L2595,2227l-123.39-.68,26-57.48-17.5-12.6-28,17.56-29.42-7.69L2363,2261.52l44.45,21.89,9.71,60.17-51.3,27.21,81.94,72.09,2.7,23-45.8,78.26,15.92,77.57-45.31,54.14-69.86,3.65-55.12-131.7-75.47-6.17L2152,2576.84l-118.44-10.08,85.63-111.06,26-.25L2059.76,2397l37.95-106.15-47.62-50.75-.62-27.6,87.73-97.74L2058,2042.25l-11.14-72.49-32.19-22-44.1-93.53-40.6,13.07-34.06-41.39,8.26-73.44-41.53-18.74,6.1-47.69,111.62-4.42,83.86-56.56,13.73-55.86,30.37-20.77,40.2,27.62,72.45-11,20.56-65.65,38.09-41.8,54.22-1.84,19.16-36.89,112.84,53.14,20.27-14.17Z"/>
  <path id="052" class="cls-2" d="M2829.37,3630.72l45.31,48.08,77.45-4.39-2.13,40.07,22.7,81.27,20.11,8.59-12.52,45.58-21.62-.46-5.24-11.48-62.83,3.77-30.27-28.3-37.93,3.42-45-16.22-63.88-49.17-3.57-12,23.08-52.33-3.93-16.22-14.44-8.15-9.18-28.13,7.47-20.47,117.29-7.41-.92,24Z"/>
  <path id="053" class="cls-2" d="M2856.72,3311.64l-37.44-22-54.74,33.13-7.39-12.52-38,2-14.43,24.94-52,32.3,3.1-41.68-27.41-24.85-2-28.06,38-.11,2.58-37.54-60.18-25.58,103.21-133.92,44.65,6.68,87.43,15.08,3.39,14.91-8.17,10.34,14.93,24.81-.5,17.79,36.68,39.89-12.07,15,25.72,31.91,18.36-3.51-7.24,25.25-28.63-2.8-27.93,38.57Z"/>
  <path id="054" class="cls-2" d="M2925.37,3457.12l-5.84-65.82,28.16-86.53,29.45-.7,4.45-17.61,39.86-7.82,57.39-28.5,16.25.82.82,17.65,28.28,11.82,31.8,69-29.21,31.13.24,22-19,17.11,30.05,44.1-11.38,8.18-7.87-10.76-16.29-.59-32.07,35.87L3018,3509.57l-72.42-17.64-20.22-34.81Z"/>
  <path id="055" class="cls-2" d="M1551.94,3385.53l-10.08-24.06,77.59-12.13-12.88-17.75,11-30.37,43.93-70.34,104.23-.21,33.77-143.49,74.66,8.53-4.24,18,42.59-.77-.09,12.25-31,19.09-28.08,106,77.81,28.83,18.2,30.23-20.47,30.45-13.46,45.88,39.14,36.76L1971.3,3490l34.71-.22,10.45,33.2-78.63,43.37-28.25,65.32,23.74,13,2.71,111.9-84.26,56.51L1798.08,3907l-37.57,12.47-54.45-46.25-28.5,14.05,1.66-58.18-18-25.33-35.64-1.22,1.51-45.24-31.71-21.8-70.88,52.84-11.29,57.75L1471.5,3862l3.17-39.85-37,8.12-7.14-28.48,20.91-24.26,15.3,11.49,20.91-2.52,19.3-42-26.73-4.18-14.81-26.62,59.52-81.32-.78-36.44,30.17-39.33L1522.8,3553l-32.24-112.26,32.27-4.27,29.11-51Z"/>
  <path id="056" class="cls-2" d="M2009.94,2930.15l94.81,2.16L2091,2977.7l-22.12,4-9.2,53.92L2044,3047.67l-2,27.34-35.38,4.8.88,23.55-15.24,20-79.86,1.79.09-12.25-42.59.77,4.24-18-74.66-8.53,37.11-59.31-26.35-3.91,3.81-43.17,24.14-24.95-64.22-28.1-19.34,5.91-23.9-30.2,7.31-19.34,71.8-2.8,84.44,37.13,91.89-26.82,23.78,38.53Z"/>
  <path id="057" class="cls-2" d="M2356.72,3021.31l-28.69-5.22,13.65,23.67-17.57,6.06-10.6-14.1-36.34,21.21-11.47,30.15-30.89,7.65-.4-101.19,27.3-37.72,48.94-38.11,43-6.14,52.07,1.58,43.31,33.48-3.26,26.62-82.14,23.2-6.87,28.86Z"/>
  <path id="058" class="cls-2" d="M1209.45,4491.56l.6,20.35,108.92,1.58,17.44,47.63-14.83,38.51-167.18.77-66.19-37.1-48.89,6L1001.1,4506l26.3-32.48,77.16-17.85,28.77,12.3,24.62-37.73,51.5,61.37Z"/>
</svg>
